<?xml version="1.0" encoding="UTF-8" standalone="no"?>
<svg
   width="325.12mm"
   height="128.5mm"
   viewBox="0 0 325.12002 128.50002"
   version="1.1"
   id="svg8"
   inkscape:version="1.2.1 (9c6d41e410, 2022-07-14)"
   sodipodi:docname="Basically.svg"
   xmlns:inkscape="http://www.inkscape.org/namespaces/inkscape"
   xmlns:sodipodi="http://sodipodi.sourceforge.net/DTD/sodipodi-0.dtd"
   xmlns="http://www.w3.org/2000/svg"
   xmlns:svg="http://www.w3.org/2000/svg"
   xmlns:rdf="http://www.w3.org/1999/02/22-rdf-syntax-ns#"
   xmlns:cc="http://creativecommons.org/ns#"
   xmlns:dc="http://purl.org/dc/elements/1.1/">
  <defs
     id="defs2">
    <linearGradient
       id="linearGradient2877"
       inkscape:swatch="solid">
      <stop
         style="stop-color:#0000ff;stop-opacity:1;"
         offset="0"
         id="stop2875" />
    </linearGradient>
  </defs>
  <sodipodi:namedview
     id="base"
     pagecolor="#ffffff"
     bordercolor="#666666"
     borderopacity="1.0"
     inkscape:pageopacity="0.0"
     inkscape:pageshadow="2"
     inkscape:zoom="2.8"
     inkscape:cx="1.6071429"
     inkscape:cy="119.10714"
     inkscape:document-units="mm"
     inkscape:current-layer="layer1"
     showgrid="false"
     units="mm"
     inkscape:snap-bbox="true"
     inkscape:snap-page="true"
     inkscape:bbox-nodes="false"
     inkscape:snap-bbox-edge-midpoints="false"
     inkscape:window-width="1868"
     inkscape:window-height="934"
     inkscape:window-x="81"
     inkscape:window-y="243"
     inkscape:window-maximized="0"
     inkscape:snap-bbox-midpoints="true"
     inkscape:snap-nodes="false"
     inkscape:document-rotation="0"
     inkscape:showpageshadow="2"
     inkscape:pagecheckerboard="0"
     inkscape:deskcolor="#d1d1d1">
    <inkscape:grid
       type="xygrid"
       id="grid869" />
  </sodipodi:namedview>
  <metadata
     id="metadata5">
    <rdf:RDF>
      <cc:Work
         rdf:about="">
        <dc:format>image/svg+xml</dc:format>
        <dc:type
           rdf:resource="http://purl.org/dc/dcmitype/StillImage" />
        <dc:title />
      </cc:Work>
    </rdf:RDF>
  </metadata>
  <g
     inkscape:groupmode="layer"
     id="layer3"
     inkscape:label="Background"
     style="display:inline">
    <rect
       style="display:inline;opacity:1;mix-blend-mode:normal;vector-effect:none;fill:#e8f1f2;fill-opacity:1;fill-rule:evenodd;stroke:none;stroke-width:2.11962;stroke-linecap:butt;stroke-linejoin:miter;stroke-miterlimit:4;stroke-dasharray:none;stroke-dashoffset:0;stroke-opacity:1;paint-order:normal"
       id="rect420"
       width="325.12"
       height="128.5"
       x="5.9211732e-17"
       y="-1.0517578e-05" />
    <g
       aria-label="!"
       transform="matrix(1.3671122,-0.15549205,0.15715032,1.3252755,-0.09637002,-3.1082607)"
       id="text912"
       style="font-style:normal;font-weight:normal;font-size:127.426px;line-height:1.25;font-family:sans-serif;display:inline;fill:#ff8589;fill-opacity:1;stroke:none;stroke-width:3.18579;stroke-miterlimit:4;stroke-dasharray:none">
      <path
         d="M 17.007808,5.7176488 15.390095,72.852735 H 4.8127414 L 3.070589,5.7176488 Z M 16.385611,98.362823 H 3.6927863 V 85.234461 H 16.385611 Z"
         style="fill:#ff8589;fill-opacity:1;stroke-width:3.18579;stroke-miterlimit:4;stroke-dasharray:none"
         id="path1767" />
    </g>
    <g
       aria-label="!"
       transform="matrix(1.3671122,-0.15549205,0.15715032,1.3252755,39.90363,-8.2049867)"
       id="text912-7"
       style="font-style:normal;font-weight:normal;font-size:127.426px;line-height:1.25;font-family:sans-serif;display:inline;opacity:0.875;fill:#ff8589;fill-opacity:1;stroke:none;stroke-width:3.18579;stroke-miterlimit:4;stroke-dasharray:none">
      <path
         d="M 16.571616,9.5122572 14.953903,76.647343 H 4.376549 L 2.6343966,9.5122572 Z M 15.949419,102.15743 H 3.2565939 V 89.029069 H 15.949419 Z"
         style="fill:#ff8589;fill-opacity:1;stroke-width:3.18579;stroke-miterlimit:4;stroke-dasharray:none"
         id="path1767-1" />
    </g>
    <g
       aria-label="!"
       transform="matrix(1.3671122,-0.15549205,0.15715032,1.3252755,79.90363,-8.2049867)"
       id="text912-7-2"
       style="font-style:normal;font-weight:normal;font-size:127.426px;line-height:1.25;font-family:sans-serif;display:inline;opacity:0.75;fill:#ff8589;fill-opacity:1;stroke:none;stroke-width:3.18579;stroke-miterlimit:4;stroke-dasharray:none">
      <path
         d="M 16.571616,9.5122572 14.953903,76.647343 H 4.376549 L 2.6343966,9.5122572 Z M 15.949419,102.15743 H 3.2565939 V 89.029069 H 15.949419 Z"
         style="fill:#ff8589;fill-opacity:1;stroke-width:3.18579;stroke-miterlimit:4;stroke-dasharray:none"
         id="path1767-1-3" />
    </g>
    <g
       aria-label="!"
       transform="matrix(1.3671122,-0.15549205,0.15715032,1.3252755,119.90363,-8.2049867)"
       id="text912-7-4"
       style="font-style:normal;font-weight:normal;font-size:127.426px;line-height:1.25;font-family:sans-serif;display:inline;opacity:0.625;fill:#ff8589;fill-opacity:1;stroke:none;stroke-width:3.18579;stroke-miterlimit:4;stroke-dasharray:none">
      <path
         d="M 16.571616,9.5122572 14.953903,76.647343 H 4.376549 L 2.6343966,9.5122572 Z M 15.949419,102.15743 H 3.2565939 V 89.029069 H 15.949419 Z"
         style="fill:#ff8589;fill-opacity:1;stroke-width:3.18579;stroke-miterlimit:4;stroke-dasharray:none"
         id="path1767-1-0" />
    </g>
    <g
       aria-label="!"
       transform="matrix(1.3671122,-0.15549205,0.15715032,1.3252755,159.90363,-8.2049867)"
       id="text912-7-42"
       style="font-style:normal;font-weight:normal;font-size:127.426px;line-height:1.25;font-family:sans-serif;display:inline;opacity:0.5;fill:#ff8589;fill-opacity:1;stroke:none;stroke-width:3.18579;stroke-miterlimit:4;stroke-dasharray:none">
      <path
         d="M 16.571616,9.5122572 14.953903,76.647343 H 4.376549 L 2.6343966,9.5122572 Z M 15.949419,102.15743 H 3.2565939 V 89.029069 H 15.949419 Z"
         style="fill:#ff8589;fill-opacity:1;stroke-width:3.18579;stroke-miterlimit:4;stroke-dasharray:none"
         id="path1767-1-4" />
    </g>
    <g
       aria-label="!"
       transform="matrix(1.3671122,-0.15549205,0.15715032,1.3252755,199.90363,-8.2049867)"
       id="text912-7-8"
       style="font-style:normal;font-weight:normal;font-size:127.426px;line-height:1.25;font-family:sans-serif;display:inline;opacity:0.375;fill:#ff8589;fill-opacity:1;stroke:none;stroke-width:3.18579;stroke-miterlimit:4;stroke-dasharray:none">
      <path
         d="M 16.571616,9.5122572 14.953903,76.647343 H 4.376549 L 2.6343966,9.5122572 Z M 15.949419,102.15743 H 3.2565939 V 89.029069 H 15.949419 Z"
         style="fill:#ff8589;fill-opacity:1;stroke-width:3.18579;stroke-miterlimit:4;stroke-dasharray:none"
         id="path1767-1-9" />
    </g>
    <g
       aria-label="!"
       transform="matrix(1.3671122,-0.15549205,0.15715032,1.3252755,239.90363,-8.2049867)"
       id="text912-7-1"
       style="font-style:normal;font-weight:normal;font-size:127.426px;line-height:1.25;font-family:sans-serif;display:inline;opacity:0.25;fill:#ff8589;fill-opacity:1;stroke:none;stroke-width:3.18579;stroke-miterlimit:4;stroke-dasharray:none">
      <path
         d="M 16.571616,9.5122572 14.953903,76.647343 H 4.376549 L 2.6343966,9.5122572 Z M 15.949419,102.15743 H 3.2565939 V 89.029069 H 15.949419 Z"
         style="fill:#ff8589;fill-opacity:1;stroke-width:3.18579;stroke-miterlimit:4;stroke-dasharray:none"
         id="path1767-1-48" />
    </g>
    <g
       aria-label="!"
       transform="matrix(1.3671122,-0.15549205,0.15715032,1.3252755,279.90363,-8.2049867)"
       id="text912-7-6"
       style="font-style:normal;font-weight:normal;font-size:127.426px;line-height:1.25;font-family:sans-serif;display:inline;opacity:0.125;fill:#ff8589;fill-opacity:1;stroke:none;stroke-width:3.18579;stroke-miterlimit:4;stroke-dasharray:none">
      <path
         d="M 16.571616,9.5122572 14.953903,76.647343 H 4.376549 L 2.6343966,9.5122572 Z M 15.949419,102.15743 H 3.2565939 V 89.029069 H 15.949419 Z"
         style="fill:#ff8589;fill-opacity:1;stroke-width:3.18579;stroke-miterlimit:4;stroke-dasharray:none"
         id="path1767-1-8" />
    </g>
  </g>
  <g
     inkscape:label="Layer 1"
     inkscape:groupmode="layer"
     id="layer1"
     transform="translate(0,-168.49998)"
     style="display:inline">
    <g
       aria-label="RUN"
       id="text1614"
       style="font-size:3.52778px;line-height:1.25;font-family:sans-serif;word-spacing:0px;stroke-width:0.264583"
       transform="translate(26.505912,-44.01243)">
      <path
         d="m -16.810095,246.93004 h -0.442695 l -0.857829,-1.01975 h -0.480591 v 1.01975 h -0.341065 v -2.56488 h 0.718303 q 0.232544,0 0.387573,0.031 0.15503,0.0293 0.279053,0.1068 0.139527,0.0879 0.217041,0.22221 0.07924,0.13263 0.07924,0.33762 0,0.27733 -0.139527,0.46508 -0.139526,0.18604 -0.384128,0.28078 z m -0.79754,-1.84313 q 0,-0.11024 -0.03962,-0.19465 -0.0379,-0.0861 -0.127468,-0.14469 -0.07407,-0.0499 -0.1757,-0.0689 -0.101631,-0.0207 -0.239435,-0.0207 h -0.401353 v 0.96807 h 0.344509 q 0.16192,0 0.282498,-0.0276 0.120579,-0.0293 0.204984,-0.1068 0.07751,-0.0724 0.113688,-0.16536 0.0379,-0.0947 0.0379,-0.23944 z"
         style="font-size:3.52778px;stroke-width:0.264583"
         id="path1616" />
      <path
         d="m -14.548388,245.89995 q 0,0.27906 -0.06201,0.48749 -0.06029,0.2067 -0.199816,0.34451 -0.132636,0.13091 -0.310059,0.1912 -0.177422,0.0603 -0.413411,0.0603 -0.241157,0 -0.420302,-0.0637 -0.179145,-0.0637 -0.301446,-0.18775 -0.139527,-0.14125 -0.201539,-0.34107 -0.06029,-0.19982 -0.06029,-0.49093 v -1.53479 h 0.341065 v 1.55202 q 0,0.20843 0.02756,0.32901 0.02928,0.12057 0.09646,0.21876 0.07579,0.11197 0.204984,0.16881 0.130913,0.0568 0.313504,0.0568 0.184312,0 0.313504,-0.0551 0.129191,-0.0568 0.206705,-0.17053 0.06718,-0.0982 0.09474,-0.22393 0.02928,-0.12747 0.02928,-0.31523 v -1.56063 h 0.341065 z"
         style="font-size:3.52778px;stroke-width:0.264583"
         id="path1618" />
      <path
         d="m -11.940449,246.93004 h -0.422025 l -1.216119,-2.29444 v 2.29444 h -0.318672 v -2.56488 h 0.528823 l 1.109321,2.09462 v -2.09462 h 0.318672 z"
         style="font-size:3.52778px;stroke-width:0.264583"
         id="path1620" />
    </g>
    <g
       aria-label="-"
       id="text1760"
       style="font-size:10.5833px;line-height:1.25;font-family:sans-serif;word-spacing:0px;display:inline;stroke-width:0.264583"
       transform="translate(65.136239,176.66553)" />
    <g
       aria-label="BASICally"
       id="text933"
       style="font-size:7.05556px;line-height:1.25;font-family:sans-serif;word-spacing:0px;stroke-width:0.264583"
       transform="translate(16.005476,1.5875)">
      <path
         d="m 9.8633691,174.85961 q 0,0.38241 -0.1446941,0.67524 -0.1446941,0.29284 -0.3892961,0.48232 -0.2893882,0.22737 -0.6373431,0.32384 -0.3445097,0.0965 -0.8784999,0.0965 H 5.9945243 v -5.12975 h 1.5192881 q 0.561551,0 0.8406039,0.0413 0.2790529,0.0413 0.5339901,0.17226 0.282498,0.14813 0.4099666,0.3824 0.1274687,0.23082 0.1274687,0.55466 0,0.36518 -0.1860353,0.62356 -0.1860353,0.25494 -0.4960941,0.40997 v 0.0276 q 0.5202098,0.1068 0.8199333,0.4582 0.2997235,0.34795 0.2997235,0.88194 z m -1.1472176,-2.31166 q 0,-0.18603 -0.062012,-0.3135 -0.062012,-0.12747 -0.1998157,-0.20671 -0.1619196,-0.093 -0.3927411,-0.11368 -0.2308216,-0.0241 -0.5718863,-0.0241 h -0.813043 v 1.48139 h 0.881945 q 0.3203941,0 0.5098745,-0.031 0.1894803,-0.0344 0.3513999,-0.13781 0.1619196,-0.10335 0.2273765,-0.26527 0.068902,-0.16536 0.068902,-0.3893 z m 0.4375274,2.33923 q 0,-0.31006 -0.093018,-0.49265 -0.093018,-0.18259 -0.3376196,-0.31006 -0.1653647,-0.0861 -0.4030764,-0.11025 -0.2342666,-0.0276 -0.5718862,-0.0276 h -1.071425 v 1.90859 h 0.9026156 q 0.4478627,0 0.7338058,-0.0448 0.2859431,-0.0482 0.4685333,-0.17225 0.1929255,-0.13436 0.282498,-0.30662 0.089572,-0.17225 0.089572,-0.44441 z"
         style="font-size:7.05556px;stroke-width:0.264583"
         id="path937" />
      <path
         d="m 14.875986,176.43747 h -0.726915 l -0.502984,-1.42972 h -2.218643 l -0.502985,1.42972 h -0.692464 l 1.867243,-5.12975 h 0.909505 z m -1.44005,-2.01538 -0.899171,-2.51837 -0.902615,2.51837 z"
         style="font-size:7.05556px;stroke-width:0.264583"
         id="path939" />
      <path
         d="m 19.347723,174.9733 q 0,0.29973 -0.141249,0.59256 -0.137804,0.29283 -0.389296,0.49609 -0.275608,0.22049 -0.644234,0.34451 -0.36518,0.12403 -0.881945,0.12403 -0.55466,0 -0.999078,-0.10336 -0.440972,-0.10335 -0.89917,-0.30661 v -0.85438 h 0.04823 q 0.389296,0.32384 0.89917,0.49954 0.509875,0.1757 0.957738,0.1757 0.633898,0 0.985298,-0.23772 0.354845,-0.23771 0.354845,-0.63389 0,-0.34107 -0.16881,-0.50299 -0.165365,-0.16192 -0.506429,-0.25149 -0.258383,-0.0689 -0.561551,-0.11369 -0.299724,-0.0448 -0.637343,-0.11369 -0.68213,-0.14469 -1.012859,-0.49265 -0.327285,-0.3514 -0.327285,-0.91295 0,-0.64423 0.544326,-1.0542 0.544325,-0.41341 1.381484,-0.41341 0.54088,0 0.992188,0.10335 0.451308,0.10336 0.799263,0.25494 v 0.80615 h -0.04823 q -0.292834,-0.24804 -0.771702,-0.40996 -0.475424,-0.16537 -0.974963,-0.16537 -0.547771,0 -0.881945,0.22738 -0.330729,0.22738 -0.330729,0.58567 0,0.32039 0.165364,0.50298 0.165365,0.18259 0.582222,0.27905 0.220486,0.0482 0.627008,0.11714 0.406521,0.0689 0.689019,0.14125 0.571886,0.15158 0.861275,0.45819 0.289388,0.30662 0.289388,0.85783 z"
         style="font-size:7.05556px;stroke-width:0.264583"
         id="path941" />
      <path
         d="m 22.251941,176.43747 h -2.025718 v -0.52366 h 0.671794 v -4.08244 h -0.671794 v -0.52365 h 2.025718 v 0.52365 h -0.671794 v 4.08244 h 0.671794 z"
         style="font-size:7.05556px;stroke-width:0.264583"
         id="path943" />
      <path
         d="m 27.374802,176.0654 q -0.189481,0.0827 -0.34451,0.15503 -0.151584,0.0724 -0.399631,0.15158 -0.210151,0.0655 -0.458198,0.11025 -0.244602,0.0482 -0.540881,0.0482 -0.558105,0 -1.016303,-0.15503 -0.454753,-0.15848 -0.792373,-0.49265 -0.330729,-0.32729 -0.516765,-0.83027 -0.186035,-0.50643 -0.186035,-1.17478 0,-0.6339 0.179145,-1.13344 0.179145,-0.49953 0.516765,-0.84404 0.327284,-0.33418 0.788927,-0.50988 0.465088,-0.1757 1.030084,-0.1757 0.413412,0 0.823379,0.0999 0.413412,0.0999 0.916396,0.3514 v 0.8096 h -0.05168 q -0.423747,-0.35485 -0.840604,-0.51677 -0.416856,-0.16192 -0.89228,-0.16192 -0.389296,0 -0.7028,0.12747 -0.310059,0.12402 -0.554661,0.3893 -0.237711,0.25838 -0.37207,0.65457 -0.130914,0.39274 -0.130914,0.9095 0,0.54088 0.144694,0.93018 0.14814,0.38929 0.378961,0.6339 0.241157,0.25493 0.561551,0.37896 0.323839,0.12058 0.682129,0.12058 0.492649,0 0.923287,-0.16881 0.430637,-0.16881 0.806152,-0.50643 h 0.04823 z"
         style="font-size:7.05556px;stroke-width:0.264583"
         id="path950" />
      <path
         d="m 31.278097,176.43747 h -0.644234 v -0.40997 q -0.08613,0.0586 -0.234266,0.16537 -0.144694,0.10335 -0.282498,0.16536 -0.16192,0.0792 -0.372071,0.13092 -0.210151,0.0551 -0.492649,0.0551 -0.52021,0 -0.881945,-0.34451 -0.361735,-0.34451 -0.361735,-0.8785 0,-0.43753 0.186035,-0.70625 0.189481,-0.27216 0.537435,-0.42719 0.3514,-0.15503 0.844049,-0.21015 0.492649,-0.0551 1.057645,-0.0827 v -0.0999 q 0,-0.22049 -0.07924,-0.36518 -0.07579,-0.14469 -0.220486,-0.22738 -0.137804,-0.0792 -0.33073,-0.1068 -0.192925,-0.0276 -0.403076,-0.0276 -0.254937,0 -0.568441,0.0689 -0.313504,0.0654 -0.647678,0.19292 h -0.03445 v -0.65801 q 0.18948,-0.0517 0.54777,-0.11369 0.35829,-0.062 0.706245,-0.062 0.406522,0 0.706245,0.0689 0.303169,0.0655 0.523655,0.22738 0.217041,0.15847 0.330729,0.40996 0.113689,0.25149 0.113689,0.62357 z m -0.644234,-0.9474 v -1.07143 q -0.296278,0.0172 -0.699354,0.0517 -0.399632,0.0345 -0.633898,0.0999 -0.279053,0.0792 -0.451308,0.24804 -0.172255,0.16537 -0.172255,0.4582 0,0.33073 0.199816,0.49954 0.199815,0.16537 0.609782,0.16537 0.341064,0 0.623563,-0.13092 0.282498,-0.13436 0.523654,-0.32039 z"
         style="font-size:7.05556px;stroke-width:0.264583"
         id="path952" />
      <path
         d="m 33.179791,176.43747 h -0.647678 v -5.36057 h 0.647678 z"
         style="font-size:7.05556px;stroke-width:0.264583"
         id="path954" />
      <path
         d="m 35.115935,176.43747 h -0.647678 v -5.36057 h 0.647678 z"
         style="font-size:7.05556px;stroke-width:0.264583"
         id="path956" />
      <path
         d="m 39.725476,172.5893 -2.246203,5.26755 h -0.692465 l 0.71658,-1.60542 -1.533068,-3.66213 h 0.7028 l 1.181668,2.85254 1.192004,-2.85254 z"
         style="font-size:7.05556px;stroke-width:0.264583"
         id="path958" />
    </g>
    <g
       aria-label="IN1"
       transform="translate(-16.749505,134.64662)"
       id="text1007"
       style="font-size:10.5833px;line-height:1.25;font-family:sans-serif;word-spacing:0px;display:inline;stroke-width:0.264583">
      <path
         d="M 21.753807,99.263062 H 20.943521 V 99.0536 h 0.268718 v -1.632974 h -0.268718 v -0.209462 h 0.810286 v 0.209462 H 21.48509 V 99.0536 h 0.268717 z"
         style="font-size:2.82222px;stroke-width:0.264583"
         id="path895" />
      <path
         d="m 23.783656,99.263062 h -0.337619 l -0.972894,-1.835546 v 1.835546 h -0.254937 v -2.051898 h 0.423057 l 0.887456,1.675693 v -1.675693 h 0.254937 z"
         style="font-size:2.82222px;stroke-width:0.264583"
         id="path897" />
      <path
         d="M 25.547543,99.263062 H 24.436845 V 99.0536 h 0.427192 v -1.375281 h -0.427192 v -0.187413 q 0.08682,0 0.186035,-0.01378 0.09922,-0.01516 0.150206,-0.04272 0.06339,-0.03445 0.09922,-0.08682 0.03721,-0.05374 0.04272,-0.143316 h 0.213594 v 1.84933 h 0.418923 z"
         style="font-size:2.82222px;stroke-width:0.264583"
         id="path899" />
    </g>
    <g
       aria-label="IN2"
       transform="translate(-17.427915,134.64661)"
       id="text1007-3"
       style="font-size:10.5833px;line-height:1.25;font-family:sans-serif;word-spacing:0px;display:inline;stroke-width:0.264583">
      <path
         d="m 31.522617,99.280983 h -0.810289 v -0.209462 h 0.268719 v -1.63298 h -0.268719 v -0.209463 h 0.810289 v 0.209463 h -0.268718 v 1.63298 h 0.268718 z"
         style="font-size:2.82223px;stroke-width:0.264583"
         id="path902" />
      <path
         d="m 33.552473,99.280983 h -0.33762 l -0.972898,-1.835552 v 1.835552 h -0.254938 v -2.051905 h 0.423059 l 0.887459,1.675699 v -1.675699 h 0.254938 z"
         style="font-size:2.82223px;stroke-width:0.264583"
         id="path904" />
      <path
         d="m 35.433501,99.280983 h -1.389067 v -0.288011 q 0.144695,-0.124024 0.289389,-0.248047 0.146072,-0.124024 0.271474,-0.24667 0.264584,-0.256316 0.362425,-0.406522 0.09784,-0.151585 0.09784,-0.326596 0,-0.159853 -0.106109,-0.249426 -0.104731,-0.09095 -0.293523,-0.09095 -0.125402,0 -0.271474,0.0441 -0.146073,0.0441 -0.285255,0.135048 h -0.01378 V 97.31452 q 0.09784,-0.04823 0.26045,-0.08819 0.163987,-0.03996 0.316949,-0.03996 0.315572,0 0.494717,0.152963 0.179146,0.151584 0.179146,0.412034 0,0.117134 -0.03032,0.219109 -0.02894,0.100597 -0.08682,0.191548 -0.05374,0.08544 -0.12678,0.168121 -0.07166,0.08268 -0.175011,0.18328 -0.14745,0.144694 -0.304547,0.28112 -0.157097,0.135048 -0.293523,0.250804 h 1.103812 z"
         style="font-size:2.82223px;stroke-width:0.264583"
         id="path906" />
    </g>
    <g
       aria-label="IN3"
       transform="translate(-36.404269,148.68549)"
       id="text1007-1"
       style="font-size:10.5833px;line-height:1.25;font-family:sans-serif;word-spacing:0px;display:inline;stroke-width:0.264583">
      <path
         d="m 41.364467,99.259621 h -0.810288 v -0.209463 h 0.268718 v -1.63298 h -0.268718 v -0.209462 h 0.810288 v 0.209462 h -0.268718 v 1.63298 h 0.268718 z"
         style="font-size:2.82223px;stroke-width:0.264583"
         id="path909" />
      <path
         d="m 43.394323,99.259621 h -0.33762 l -0.972898,-1.835552 v 1.835552 h -0.254937 v -2.051905 h 0.423059 l 0.887459,1.675699 v -1.675699 h 0.254937 z"
         style="font-size:2.82223px;stroke-width:0.264583"
         id="path911" />
      <path
         d="m 45.094827,98.271565 q 0.06615,0.05926 0.108866,0.148828 0.04272,0.08957 0.04272,0.231511 0,0.14056 -0.05099,0.257694 -0.05099,0.117134 -0.143316,0.20395 -0.103353,0.09646 -0.243913,0.143317 -0.139183,0.04547 -0.305926,0.04547 -0.170877,0 -0.336242,-0.04134 -0.165365,-0.03996 -0.271474,-0.08819 v -0.288011 h 0.02067 q 0.117134,0.07717 0.275609,0.128158 0.158475,0.05099 0.305925,0.05099 0.08682,0 0.184658,-0.02894 0.09784,-0.02894 0.158475,-0.08544 0.06339,-0.06063 0.09371,-0.13367 0.03169,-0.07304 0.03169,-0.184658 0,-0.110243 -0.03583,-0.181901 -0.03445,-0.07304 -0.09646,-0.114378 -0.06201,-0.04272 -0.150206,-0.05788 -0.08819,-0.01654 -0.19017,-0.01654 H 44.368599 V 98.03178 h 0.09646 q 0.209462,0 0.333486,-0.08682 0.125402,-0.08819 0.125402,-0.256316 0,-0.07442 -0.03169,-0.129536 -0.03169,-0.0565 -0.08819,-0.09233 -0.05926,-0.03583 -0.126779,-0.04961 -0.06753,-0.01378 -0.152963,-0.01378 -0.130914,0 -0.278365,0.04685 -0.14745,0.04685 -0.278364,0.132293 h -0.01378 V 97.29452 q 0.09784,-0.04823 0.26045,-0.08819 0.163987,-0.04134 0.31695,-0.04134 0.150207,0 0.264584,0.02756 0.114378,0.02756 0.206706,0.08819 0.09922,0.06615 0.150207,0.159853 0.05099,0.09371 0.05099,0.219109 0,0.170877 -0.121268,0.299035 -0.11989,0.12678 -0.283877,0.159853 v 0.01929 q 0.06615,0.01103 0.151585,0.04685 0.08544,0.03445 0.144694,0.08682 z"
         style="font-size:2.82223px;stroke-width:0.264583"
         id="path913" />
    </g>
    <g
       aria-label="IN4"
       transform="translate(-37.082681,148.64276)"
       id="text1007-0"
       style="font-size:10.5833px;line-height:1.25;font-family:sans-serif;word-spacing:0px;display:inline;stroke-width:0.264583">
      <path
         d="m 51.153957,99.259621 h -0.810289 v -0.209463 h 0.268719 v -1.63298 h -0.268719 v -0.209462 h 0.810289 v 0.209462 h -0.268718 v 1.63298 h 0.268718 z"
         style="font-size:2.82223px;stroke-width:0.264583"
         id="path916" />
      <path
         d="m 53.183813,99.259621 h -0.33762 l -0.972898,-1.835552 v 1.835552 h -0.254938 v -2.051905 h 0.423059 l 0.887459,1.675699 v -1.675699 h 0.254938 z"
         style="font-size:2.82223px;stroke-width:0.264583"
         id="path918" />
      <path
         d="m 55.111694,98.682221 h -0.304547 v 0.5774 h -0.264584 v -0.5774 h -0.982544 v -0.31695 l 0.993568,-1.157555 h 0.25356 v 1.254018 h 0.304547 z M 54.542563,98.461734 V 97.53569 l -0.795131,0.926044 z"
         style="font-size:2.82223px;stroke-width:0.264583"
         id="path920" />
    </g>
    <path
       style="display:inline;fill:#000000;fill-opacity:1;stroke:#000000;stroke-width:0.0949555;stroke-miterlimit:4;stroke-dasharray:none;stroke-opacity:1"
       id="path923"
       sodipodi:type="arc"
       sodipodi:cx="9.4775238"
       sodipodi:cy="214.51291"
       sodipodi:rx="0.45252839"
       sodipodi:ry="0.45253617"
       sodipodi:start="0.36229666"
       sodipodi:end="0.35175191"
       sodipodi:arc-type="slice"
       d="m 9.9006764,214.6733 a 0.45252839,0.45253617 0 0 1 -0.5824229,0.26319 0.45252839,0.45253617 0 0 1 -0.2647221,-0.58174 0.45252839,0.45253617 0 0 1 0.5810272,-0.26626 0.45252839,0.45253617 0 0 1 0.2677855,0.58034 l -0.4248203,-0.15592 z" />
    <path
       style="display:inline;fill:#000000;fill-opacity:1;stroke:#000000;stroke-width:0.0949555;stroke-miterlimit:4;stroke-dasharray:none;stroke-opacity:1"
       id="path923-3"
       sodipodi:type="arc"
       sodipodi:cx="15.031563"
       sodipodi:cy="216.12384"
       sodipodi:rx="0.45252839"
       sodipodi:ry="0.45253617"
       sodipodi:start="0.36229666"
       sodipodi:end="0.35175191"
       sodipodi:arc-type="slice"
       d="m 15.454715,216.28423 a 0.45252839,0.45253617 0 0 1 -0.582422,0.26319 0.45252839,0.45253617 0 0 1 -0.264723,-0.58174 0.45252839,0.45253617 0 0 1 0.581028,-0.26625 0.45252839,0.45253617 0 0 1 0.267785,0.58033 l -0.42482,-0.15592 z" />
    <path
       style="display:inline;fill:#000000;fill-opacity:1;stroke:#000000;stroke-width:0.0949555;stroke-miterlimit:4;stroke-dasharray:none;stroke-opacity:1"
       id="path923-3-2"
       sodipodi:type="arc"
       sodipodi:cx="7.1472445"
       sodipodi:cy="216.12384"
       sodipodi:rx="0.45252839"
       sodipodi:ry="0.45253617"
       sodipodi:start="0.36229666"
       sodipodi:end="0.35175191"
       sodipodi:arc-type="slice"
       d="m 7.5703971,216.28423 a 0.45252839,0.45253617 0 0 1 -0.5824229,0.26319 0.45252839,0.45253617 0 0 1 -0.2647221,-0.58174 0.45252839,0.45253617 0 0 1 0.5810272,-0.26625 0.45252839,0.45253617 0 0 1 0.2677855,0.58033 l -0.4248203,-0.15592 z" />
    <g
       aria-label="STYLE"
       id="text1681"
       style="font-size:3.52778px;line-height:1.25;font-family:sans-serif;word-spacing:0px;stroke-width:0.264583"
       transform="translate(29.389673,-10.32828)">
      <path
         d="m -21.604192,237.12653 q 0,0.14986 -0.07062,0.29628 -0.0689,0.14641 -0.194648,0.24804 -0.137804,0.11025 -0.322117,0.17226 -0.18259,0.062 -0.440972,0.062 -0.27733,0 -0.499539,-0.0517 -0.220486,-0.0517 -0.449585,-0.1533 v -0.42719 h 0.02412 q 0.194648,0.16192 0.449585,0.24977 0.254938,0.0879 0.478869,0.0879 0.316949,0 0.492649,-0.11886 0.177423,-0.11886 0.177423,-0.31695 0,-0.17053 -0.08441,-0.25149 -0.08268,-0.081 -0.253215,-0.12575 -0.129191,-0.0344 -0.280775,-0.0568 -0.149862,-0.0224 -0.318672,-0.0568 -0.341065,-0.0723 -0.506429,-0.24632 -0.163643,-0.1757 -0.163643,-0.45648 0,-0.32211 0.272163,-0.5271 0.272163,-0.2067 0.690742,-0.2067 0.27044,0 0.496094,0.0517 0.225654,0.0517 0.399632,0.12747 v 0.40308 h -0.02412 q -0.146417,-0.12402 -0.385851,-0.20498 -0.237712,-0.0827 -0.487481,-0.0827 -0.273886,0 -0.440973,0.11369 -0.165364,0.11369 -0.165364,0.29284 0,0.16019 0.08268,0.25149 0.08268,0.0913 0.291111,0.13952 0.110243,0.0241 0.313504,0.0586 0.20326,0.0345 0.344509,0.0706 0.285943,0.0758 0.430638,0.22909 0.144694,0.15331 0.144694,0.42892 z"
         style="font-size:3.52778px;stroke-width:0.264583"
         id="path1683" />
      <path
         d="m -19.227075,235.59691 h -0.916396 v 2.2617 h -0.341065 v -2.2617 h -0.916396 v -0.30317 h 2.173857 z"
         style="font-size:3.52778px;stroke-width:0.264583"
         id="path1685" />
      <path
         d="m -17.066998,235.29374 -0.902616,1.44005 v 1.12482 h -0.341065 v -1.08865 l -0.90606,-1.47622 h 0.377238 l 0.701077,1.14721 0.707968,-1.14721 z"
         style="font-size:3.52778px;stroke-width:0.264583"
         id="path1687" />
      <path
         d="m -15.089513,237.85861 h -1.622641 v -2.56487 h 0.341065 v 2.2617 h 1.281576 z"
         style="font-size:3.52778px;stroke-width:0.264583"
         id="path1689" />
      <path
         d="m -13.058627,237.85861 h -1.689821 v -2.56487 h 1.689821 v 0.30317 h -1.348756 v 0.7028 h 1.348756 v 0.30316 h -1.348756 v 0.95257 h 1.348756 z"
         style="font-size:3.52778px;stroke-width:0.264583"
         id="path1691" />
    </g>
    <path
       style="display:inline;fill:#000000;fill-opacity:1;stroke:#000000;stroke-width:0.0949555;stroke-miterlimit:4;stroke-dasharray:none;stroke-opacity:1"
       id="path923-9"
       sodipodi:type="arc"
       sodipodi:cx="12.516524"
       sodipodi:cy="214.51291"
       sodipodi:rx="0.45252839"
       sodipodi:ry="0.45253617"
       sodipodi:start="0.36229666"
       sodipodi:end="0.35175191"
       sodipodi:arc-type="slice"
       d="m 12.939677,214.6733 a 0.45252839,0.45253617 0 0 1 -0.582423,0.26319 0.45252839,0.45253617 0 0 1 -0.264722,-0.58174 0.45252839,0.45253617 0 0 1 0.581027,-0.26626 0.45252839,0.45253617 0 0 1 0.267786,0.58034 l -0.424821,-0.15592 z" />
    <rect
       style="fill:#000000;fill-opacity:1;fill-rule:evenodd;stroke:#000000;stroke-width:7.57265;stroke-linecap:butt;stroke-linejoin:round;stroke-dasharray:none;stroke-opacity:1"
       id="rect3981"
       width="11.427346"
       height="23.427347"
       x="5.3558497"
       y="262.71375"
       ry="0.29284185" />
    <g
       aria-label="OUT4"
       id="text906-71"
       style="font-size:2.82222px;line-height:1.25;font-family:sans-serif;word-spacing:0px;display:inline;fill:#e8f1f2;fill-opacity:1;stroke-width:0.264583"
       transform="translate(-37.082678,-5.358185)">
      <path
         d="m 50.611705,281.737 q 0.125402,0.1378 0.191547,0.33762 0.06752,0.19981 0.06752,0.45337 0,0.25356 -0.0689,0.45476 -0.06752,0.19981 -0.190169,0.33348 -0.126779,0.13918 -0.300412,0.20946 -0.172254,0.0703 -0.394118,0.0703 -0.216352,0 -0.394119,-0.0717 -0.176389,-0.0717 -0.300412,-0.20808 -0.124024,-0.13642 -0.191547,-0.33486 -0.06615,-0.19844 -0.06615,-0.45338 0,-0.2508 0.06615,-0.44924 0.06614,-0.19981 0.192925,-0.34175 0.121267,-0.13505 0.300412,-0.20671 0.180523,-0.0716 0.392741,-0.0716 0.220485,0 0.395496,0.073 0.176389,0.0717 0.299034,0.20533 z m -0.0248,0.79099 q 0,-0.39963 -0.179145,-0.61598 -0.179145,-0.21773 -0.489203,-0.21773 -0.312815,0 -0.49196,0.21773 -0.177766,0.21635 -0.177766,0.61598 0,0.40377 0.1819,0.61874 0.181901,0.2136 0.487826,0.2136 0.305924,0 0.486447,-0.2136 0.181901,-0.21497 0.181901,-0.61874 z"
         style="font-size:2.82222px;fill:#e8f1f2;fill-opacity:1;stroke-width:0.264583"
         id="path969" />
      <path
         d="m 52.84826,282.72919 q 0,0.22324 -0.04961,0.38998 -0.04823,0.16537 -0.159852,0.27561 -0.106109,0.10473 -0.248047,0.15296 -0.141938,0.0482 -0.330729,0.0482 -0.192925,0 -0.336241,-0.051 -0.143316,-0.051 -0.241156,-0.1502 -0.111621,-0.113 -0.161231,-0.27285 -0.04823,-0.15985 -0.04823,-0.39274 v -1.22783 h 0.272852 v 1.24161 q 0,0.16674 0.02205,0.2632 0.02343,0.0965 0.07717,0.17501 0.06063,0.0896 0.163987,0.13505 0.10473,0.0455 0.250802,0.0455 0.14745,0 0.250803,-0.0441 0.103353,-0.0455 0.165365,-0.13643 0.05374,-0.0785 0.07579,-0.17914 0.02343,-0.10198 0.02343,-0.25218 v -1.2485 h 0.272852 z"
         style="font-size:2.82222px;fill:#e8f1f2;fill-opacity:1;stroke-width:0.264583"
         id="path971" />
      <path
         d="m 54.832633,281.74389 h -0.733116 v 1.80936 h -0.272851 v -1.80936 H 53.09355 v -0.24253 h 1.739083 z"
         style="font-size:2.82222px;fill:#e8f1f2;fill-opacity:1;stroke-width:0.264583"
         id="path973" />
      <path
         d="m 56.490412,282.97586 h -0.304546 v 0.57739 h -0.264584 v -0.57739 h -0.98254 v -0.31695 l 0.993565,-1.15755 h 0.253559 v 1.25401 h 0.304546 z m -0.56913,-0.22049 v -0.92604 l -0.795127,0.92604 z"
         style="font-size:2.82222px;fill:#e8f1f2;fill-opacity:1;stroke-width:0.264583"
         id="path975" />
    </g>
    <g
       aria-label="OUT3"
       id="text906-3"
       style="font-size:2.82222px;line-height:1.25;font-family:sans-serif;word-spacing:0px;display:inline;fill:#e8f1f2;fill-opacity:1;stroke-width:0.264583"
       transform="translate(-36.404266,-5.35819)">
      <path
         d="m 40.822216,281.737 q 0.125401,0.1378 0.191547,0.33762 0.06752,0.19981 0.06752,0.45337 0,0.25356 -0.0689,0.45476 -0.06752,0.19981 -0.190169,0.33348 -0.12678,0.13918 -0.300413,0.20946 -0.172254,0.0703 -0.394118,0.0703 -0.216352,0 -0.394119,-0.0717 -0.176389,-0.0717 -0.300412,-0.20808 -0.124023,-0.13642 -0.191547,-0.33486 -0.06615,-0.19844 -0.06615,-0.45338 0,-0.2508 0.06615,-0.44924 0.06615,-0.19981 0.192925,-0.34175 0.121267,-0.13505 0.300412,-0.20671 0.180523,-0.0716 0.392741,-0.0716 0.220486,0 0.395496,0.073 0.176389,0.0717 0.299035,0.20533 z m -0.02481,0.79099 q 0,-0.39963 -0.179145,-0.61598 -0.179145,-0.21773 -0.489203,-0.21773 -0.312815,0 -0.491959,0.21773 -0.177767,0.21635 -0.177767,0.61598 0,0.40377 0.181901,0.61874 0.181901,0.2136 0.487825,0.2136 0.305924,0 0.486447,-0.2136 0.181901,-0.21497 0.181901,-0.61874 z"
         style="font-size:2.82222px;fill:#e8f1f2;fill-opacity:1;stroke-width:0.264583"
         id="path960" />
      <path
         d="m 43.05877,282.72919 q 0,0.22324 -0.04961,0.38998 -0.04823,0.16537 -0.159853,0.27561 -0.106109,0.10473 -0.248046,0.15296 -0.141938,0.0482 -0.330729,0.0482 -0.192926,0 -0.336241,-0.051 -0.143316,-0.051 -0.241157,-0.1502 -0.111621,-0.113 -0.16123,-0.27285 -0.04823,-0.15985 -0.04823,-0.39274 v -1.22783 h 0.272852 v 1.24161 q 0,0.16674 0.02205,0.2632 0.02343,0.0965 0.07717,0.17501 0.06063,0.0896 0.163987,0.13505 0.104731,0.0455 0.250803,0.0455 0.14745,0 0.250802,-0.0441 0.103353,-0.0455 0.165365,-0.13643 0.05374,-0.0785 0.07579,-0.17914 0.02343,-0.10198 0.02343,-0.25218 v -1.2485 h 0.272851 z"
         style="font-size:2.82222px;fill:#e8f1f2;fill-opacity:1;stroke-width:0.264583"
         id="path962" />
      <path
         d="m 45.043143,281.74389 h -0.733115 v 1.80936 h -0.272852 v -1.80936 H 43.30406 v -0.24253 h 1.739083 z"
         style="font-size:2.82222px;fill:#e8f1f2;fill-opacity:1;stroke-width:0.264583"
         id="path964" />
      <path
         d="m 46.473546,282.5652 q 0.06615,0.0593 0.108865,0.14883 0.04272,0.0896 0.04272,0.23151 0,0.14056 -0.05099,0.25769 -0.05099,0.11713 -0.143316,0.20395 -0.103353,0.0965 -0.243913,0.14332 -0.139182,0.0455 -0.305924,0.0455 -0.170877,0 -0.336241,-0.0413 -0.165365,-0.04 -0.271474,-0.0882 v -0.28801 h 0.02067 q 0.117133,0.0772 0.275607,0.12815 0.158475,0.051 0.305925,0.051 0.08682,0 0.184657,-0.0289 0.09784,-0.0289 0.158474,-0.0854 0.06339,-0.0606 0.09371,-0.13366 0.03169,-0.073 0.03169,-0.18466 0,-0.11024 -0.03583,-0.1819 -0.03445,-0.073 -0.09646,-0.11438 -0.06201,-0.0427 -0.150206,-0.0579 -0.08819,-0.0165 -0.190169,-0.0165 H 45.74732 v -0.22876 h 0.09646 q 0.209462,0 0.333485,-0.0868 0.125401,-0.0882 0.125401,-0.25632 0,-0.0744 -0.03169,-0.12953 -0.03169,-0.0565 -0.08819,-0.0923 -0.05926,-0.0358 -0.126779,-0.0496 -0.06752,-0.0138 -0.152963,-0.0138 -0.130913,0 -0.278363,0.0469 -0.14745,0.0469 -0.278364,0.13229 h -0.01378 v -0.28801 q 0.09784,-0.0482 0.260449,-0.0882 0.163987,-0.0413 0.316949,-0.0413 0.150206,0 0.264583,0.0276 0.114377,0.0276 0.206705,0.0882 0.09922,0.0661 0.150206,0.15985 0.05099,0.0937 0.05099,0.21911 0,0.17088 -0.121267,0.29904 -0.11989,0.12678 -0.283876,0.15985 v 0.0193 q 0.06615,0.011 0.151584,0.0469 0.08544,0.0345 0.144694,0.0868 z"
         style="font-size:2.82222px;fill:#e8f1f2;fill-opacity:1;stroke-width:0.264583"
         id="path966" />
    </g>
    <g
       aria-label="OUT2"
       id="text906-7"
       style="font-size:2.82222px;line-height:1.25;font-family:sans-serif;word-spacing:0px;display:inline;fill:#e8f1f2;fill-opacity:1;stroke-width:0.264583"
       transform="translate(-17.427911,-19.35818)">
      <path
         d="m 30.980365,281.737 q 0.125402,0.1378 0.191547,0.33762 0.06752,0.19981 0.06752,0.45337 0,0.25356 -0.0689,0.45476 -0.06752,0.19981 -0.190169,0.33348 -0.126779,0.13918 -0.300412,0.20946 -0.172255,0.0703 -0.394118,0.0703 -0.216352,0 -0.394119,-0.0717 -0.176389,-0.0717 -0.300412,-0.20808 -0.124024,-0.13642 -0.191547,-0.33486 -0.06615,-0.19844 -0.06615,-0.45338 0,-0.2508 0.06615,-0.44924 0.06614,-0.19981 0.192925,-0.34175 0.121267,-0.13505 0.300412,-0.20671 0.180523,-0.0716 0.392741,-0.0716 0.220485,0 0.395496,0.073 0.176389,0.0717 0.299034,0.20533 z m -0.0248,0.79099 q 0,-0.39963 -0.179145,-0.61598 -0.179145,-0.21773 -0.489203,-0.21773 -0.312815,0 -0.49196,0.21773 -0.177767,0.21635 -0.177767,0.61598 0,0.40377 0.181901,0.61874 0.181901,0.2136 0.487826,0.2136 0.305924,0 0.486447,-0.2136 0.181901,-0.21497 0.181901,-0.61874 z"
         style="font-size:2.82222px;fill:#e8f1f2;fill-opacity:1;stroke-width:0.264583"
         id="path951" />
      <path
         d="m 33.21692,282.72919 q 0,0.22324 -0.04961,0.38998 -0.04823,0.16537 -0.159852,0.27561 -0.106109,0.10473 -0.248047,0.15296 -0.141938,0.0482 -0.330729,0.0482 -0.192925,0 -0.336241,-0.051 -0.143316,-0.051 -0.241156,-0.1502 -0.111621,-0.113 -0.161231,-0.27285 -0.04823,-0.15985 -0.04823,-0.39274 v -1.22783 h 0.272852 v 1.24161 q 0,0.16674 0.02205,0.2632 0.02343,0.0965 0.07717,0.17501 0.06063,0.0896 0.163987,0.13505 0.10473,0.0455 0.250802,0.0455 0.14745,0 0.250803,-0.0441 0.103353,-0.0455 0.165365,-0.13643 0.05374,-0.0785 0.07579,-0.17914 0.02343,-0.10198 0.02343,-0.25218 v -1.2485 h 0.272852 z"
         style="font-size:2.82222px;fill:#e8f1f2;fill-opacity:1;stroke-width:0.264583"
         id="path953" />
      <path
         d="m 35.201293,281.74389 h -0.733116 v 1.80936 h -0.272851 v -1.80936 H 33.46221 v -0.24253 h 1.739083 z"
         style="font-size:2.82222px;fill:#e8f1f2;fill-opacity:1;stroke-width:0.264583"
         id="path955" />
      <path
         d="m 36.812218,283.55325 h -1.389061 v -0.28801 q 0.144694,-0.12402 0.289388,-0.24804 0.146072,-0.12403 0.271473,-0.24667 0.264583,-0.25632 0.362424,-0.40652 0.09784,-0.15159 0.09784,-0.3266 0,-0.15985 -0.106109,-0.24942 -0.104731,-0.0909 -0.293522,-0.0909 -0.125402,0 -0.271474,0.0441 -0.146072,0.0441 -0.285253,0.13505 h -0.01378 v -0.28939 q 0.09784,-0.0482 0.260449,-0.0882 0.163987,-0.04 0.316949,-0.04 0.31557,0 0.494715,0.15296 0.179145,0.15158 0.179145,0.41203 0,0.11714 -0.03032,0.21911 -0.02894,0.1006 -0.08682,0.19155 -0.05374,0.0854 -0.126779,0.16812 -0.07166,0.0827 -0.175011,0.18328 -0.14745,0.14469 -0.304546,0.28112 -0.157097,0.13504 -0.293522,0.2508 h 1.103807 z"
         style="font-size:2.82222px;fill:#e8f1f2;fill-opacity:1;stroke-width:0.264583"
         id="path957" />
    </g>
    <g
       aria-label="OUT1"
       id="text906"
       style="font-size:2.82222px;line-height:1.25;font-family:sans-serif;word-spacing:0px;fill:#e8f1f2;fill-opacity:1;stroke-width:0.264583"
       transform="translate(-16.749503,-19.35819)">
      <path
         d="m 21.211549,281.737 q 0.125402,0.1378 0.191547,0.33762 0.06752,0.19981 0.06752,0.45337 0,0.25356 -0.0689,0.45476 -0.06752,0.19981 -0.190169,0.33348 -0.126779,0.13918 -0.300412,0.20946 -0.172255,0.0703 -0.394118,0.0703 -0.216352,0 -0.394119,-0.0717 -0.176389,-0.0717 -0.300412,-0.20808 -0.124024,-0.13642 -0.191547,-0.33486 -0.06615,-0.19844 -0.06615,-0.45338 0,-0.2508 0.06615,-0.44924 0.06614,-0.19981 0.192925,-0.34175 0.121267,-0.13505 0.300412,-0.20671 0.180523,-0.0716 0.392741,-0.0716 0.220485,0 0.395496,0.073 0.176389,0.0717 0.299034,0.20533 z m -0.0248,0.79099 q 0,-0.39963 -0.179145,-0.61598 -0.179145,-0.21773 -0.489203,-0.21773 -0.312815,0 -0.49196,0.21773 -0.177767,0.21635 -0.177767,0.61598 0,0.40377 0.181901,0.61874 0.181901,0.2136 0.487826,0.2136 0.305924,0 0.486447,-0.2136 0.181901,-0.21497 0.181901,-0.61874 z"
         style="font-size:2.82222px;fill:#e8f1f2;fill-opacity:1;stroke-width:0.264583"
         id="path942" />
      <path
         d="m 23.448104,282.72919 q 0,0.22324 -0.04961,0.38998 -0.04823,0.16537 -0.159852,0.27561 -0.106109,0.10473 -0.248047,0.15296 -0.141938,0.0482 -0.330729,0.0482 -0.192925,0 -0.336241,-0.051 -0.143316,-0.051 -0.241156,-0.1502 -0.111621,-0.113 -0.161231,-0.27285 -0.04823,-0.15985 -0.04823,-0.39274 v -1.22783 h 0.272852 v 1.24161 q 0,0.16674 0.02205,0.2632 0.02343,0.0965 0.07717,0.17501 0.06063,0.0896 0.163987,0.13505 0.10473,0.0455 0.250802,0.0455 0.14745,0 0.250803,-0.0441 0.103353,-0.0455 0.165365,-0.13643 0.05374,-0.0785 0.07579,-0.17914 0.02343,-0.10198 0.02343,-0.25218 v -1.2485 h 0.272852 z"
         style="font-size:2.82222px;fill:#e8f1f2;fill-opacity:1;stroke-width:0.264583"
         id="path944" />
      <path
         d="m 25.432477,281.74389 h -0.733116 v 1.80936 H 24.42651 v -1.80936 h -0.733116 v -0.24253 h 1.739083 z"
         style="font-size:2.82222px;fill:#e8f1f2;fill-opacity:1;stroke-width:0.264583"
         id="path946" />
      <path
         d="m 26.926269,283.55325 h -1.110698 v -0.20946 h 0.427192 v -1.37528 h -0.427192 v -0.18741 q 0.08682,0 0.186035,-0.0138 0.09922,-0.0152 0.150206,-0.0427 0.06339,-0.0344 0.09922,-0.0868 0.03721,-0.0537 0.04272,-0.14331 h 0.213596 v 1.84932 h 0.418923 z"
         style="font-size:2.82222px;fill:#e8f1f2;fill-opacity:1;stroke-width:0.264583"
         id="path948" />
    </g>
    <g
       aria-label="GOOD?"
       id="text943"
       style="font-size:3.52778px;line-height:1.25;word-spacing:0px;stroke-width:0.264583">
      <path
         d="m 7.0852948,182.77077 q -0.2101509,0.0965 -0.4599205,0.16881 -0.248047,0.0706 -0.4805911,0.0706 -0.2997235,0 -0.5494931,-0.0827 -0.2497696,-0.0827 -0.4254696,-0.24804 -0.1774225,-0.16709 -0.2738853,-0.41686 -0.096463,-0.25149 -0.096463,-0.58739 0,-0.61495 0.3582902,-0.9698 0.3600127,-0.35656 0.9870205,-0.35656 0.2187637,0 0.4461401,0.0534 0.229099,0.0517 0.492649,0.17742 v 0.4048 h -0.031006 q -0.053399,-0.0413 -0.1550294,-0.10852 -0.1016304,-0.0672 -0.1998156,-0.11197 -0.1188559,-0.0534 -0.2704402,-0.0879 -0.1498618,-0.0362 -0.3410647,-0.0362 -0.4306372,0 -0.6821293,0.27733 -0.2497696,0.27561 -0.2497696,0.74758 0,0.49782 0.2618274,0.77515 0.2618274,0.27561 0.7131352,0.27561 0.1653647,0 0.3290069,-0.0327 0.1653647,-0.0327 0.2893882,-0.0844 v -0.62873 h -0.687297 v -0.29973 h 1.0249165 z"
         id="path940" />
      <path
         d="m 9.593326,180.68993 q 0.1567519,0.17226 0.2394343,0.42203 0.084405,0.24977 0.084405,0.56671 0,0.31695 -0.086127,0.56845 -0.084405,0.24977 -0.2377117,0.41685 -0.1584745,0.17398 -0.3755157,0.26183 -0.2153186,0.0879 -0.4926489,0.0879 -0.2704402,0 -0.492649,-0.0896 -0.2204863,-0.0896 -0.3755157,-0.26011 -0.1550294,-0.17053 -0.2394343,-0.41858 -0.082682,-0.24804 -0.082682,-0.56672 0,-0.3135 0.082682,-0.56155 0.082682,-0.24977 0.2411569,-0.42719 0.1515843,-0.16881 0.3755156,-0.25838 0.2256539,-0.0896 0.4909265,-0.0896 0.2756078,0 0.4943715,0.0913 0.2204862,0.0896 0.3737931,0.25666 z m -0.031006,0.98874 q 0,-0.49953 -0.2239313,-0.76997 -0.2239314,-0.27217 -0.6115049,-0.27217 -0.3910186,0 -0.6149499,0.27217 -0.2222088,0.27044 -0.2222088,0.76997 0,0.50471 0.2273764,0.77343 0.2273765,0.26699 0.6097823,0.26699 0.3824059,0 0.6080598,-0.26699 0.2273764,-0.26872 0.2273764,-0.77343 z"
         id="path945" />
      <path
         d="m 12.370075,180.68993 q 0.156752,0.17226 0.239434,0.42203 0.08441,0.24977 0.08441,0.56671 0,0.31695 -0.08613,0.56845 -0.08441,0.24977 -0.237712,0.41685 -0.158475,0.17398 -0.375516,0.26183 -0.215318,0.0879 -0.492649,0.0879 -0.27044,0 -0.492649,-0.0896 -0.220486,-0.0896 -0.375515,-0.26011 -0.15503,-0.17053 -0.239435,-0.41858 -0.08268,-0.24804 -0.08268,-0.56672 0,-0.3135 0.08268,-0.56155 0.08268,-0.24977 0.241157,-0.42719 0.151584,-0.16881 0.375516,-0.25838 0.225654,-0.0896 0.490926,-0.0896 0.275608,0 0.494372,0.0913 0.220486,0.0896 0.373793,0.25666 z m -0.03101,0.98874 q 0,-0.49953 -0.223931,-0.76997 -0.223932,-0.27217 -0.611505,-0.27217 -0.391019,0 -0.61495,0.27217 -0.222209,0.27044 -0.222209,0.76997 0,0.50471 0.227377,0.77343 0.227376,0.26699 0.609782,0.26699 0.382406,0 0.60806,-0.26699 0.227376,-0.26872 0.227376,-0.77343 z"
         id="path947" />
      <path
         d="m 15.401761,181.6804 q 0,0.34967 -0.153307,0.6339 -0.151584,0.28422 -0.404799,0.44097 -0.1757,0.10852 -0.392741,0.15675 -0.215319,0.0482 -0.568441,0.0482 h -0.647679 v -2.56487 h 0.640788 q 0.375516,0 0.596002,0.0551 0.222209,0.0534 0.375516,0.14814 0.261827,0.16364 0.408244,0.4358 0.146417,0.27216 0.146417,0.64596 z m -0.356568,-0.005 q 0,-0.30145 -0.105075,-0.50815 -0.105076,-0.20671 -0.313504,-0.32556 -0.151585,-0.0861 -0.322117,-0.11886 -0.170532,-0.0344 -0.408244,-0.0344 h -0.320394 v 1.97921 h 0.320394 q 0.246325,0 0.428915,-0.0362 0.184312,-0.0362 0.337619,-0.13435 0.191203,-0.12231 0.285943,-0.32212 0.09646,-0.19982 0.09646,-0.49954 z"
         id="path949" />
      <path
         d="m 17.339628,180.99827 q 0,0.16881 -0.06029,0.30144 -0.06029,0.13092 -0.158475,0.23255 -0.09646,0.0982 -0.222209,0.18431 -0.125746,0.0861 -0.266995,0.16709 v 0.38757 h -0.308336 v -0.52538 q 0.111966,-0.0637 0.241157,-0.13952 0.130913,-0.0758 0.213596,-0.15331 0.09991,-0.0896 0.155029,-0.18431 0.05512,-0.0965 0.05512,-0.2446 0,-0.19465 -0.132636,-0.28939 -0.130914,-0.0965 -0.339343,-0.0965 -0.186035,0 -0.353122,0.0586 -0.165365,0.0586 -0.261828,0.11886 h -0.01722 v -0.3514 q 0.120578,-0.0465 0.304891,-0.0827 0.186035,-0.0379 0.3514,-0.0379 0.370348,0 0.583944,0.18087 0.215319,0.17914 0.215319,0.4737 z m -0.680407,1.96198 h -0.3514 v -0.36346 h 0.3514 z"
         id="path959" />
    </g>
  </g>
  <g
     inkscape:groupmode="layer"
     id="layer2"
     inkscape:label="components"
     style="display:none">
    <circle
       r="4"
       cy="71.350502"
       cx="6.4960275"
       id="circle4956"
       style="display:inline;opacity:1;vector-effect:none;fill:#00ff00;fill-opacity:1;fill-rule:evenodd;stroke:none;stroke-width:1;stroke-linecap:butt;stroke-linejoin:miter;stroke-miterlimit:4;stroke-dasharray:none;stroke-dashoffset:0;stroke-opacity:1;paint-order:normal"
       inkscape:label="in" />
    <circle
       style="display:inline;opacity:1;vector-effect:none;fill:#0000ff;fill-opacity:1;fill-rule:evenodd;stroke:none;stroke-width:1;stroke-linecap:butt;stroke-linejoin:miter;stroke-miterlimit:4;stroke-dasharray:none;stroke-dashoffset:0;stroke-opacity:1;paint-order:normal"
       id="circle4958"
       cx="6.4960275"
       cy="101.60051"
       inkscape:label="out"
       r="4" />
    <circle
       style="display:inline;opacity:1;vector-effect:none;fill:#0000ff;fill-opacity:1;fill-rule:evenodd;stroke:none;stroke-width:1;stroke-linecap:butt;stroke-linejoin:miter;stroke-miterlimit:4;stroke-dasharray:none;stroke-dashoffset:0;stroke-opacity:1;paint-order:normal"
       id="circle4958-9"
       cx="15.645"
       cy="101.60051"
       r="4"
       inkscape:label="out" />
    <circle
       style="display:inline;opacity:1;vector-effect:none;fill:#0000ff;fill-opacity:1;fill-rule:evenodd;stroke:none;stroke-width:1;stroke-linecap:butt;stroke-linejoin:miter;stroke-miterlimit:4;stroke-dasharray:none;stroke-dashoffset:0;stroke-opacity:1;paint-order:normal"
       id="circle4958-3"
       cx="6.4960275"
       cy="115.60053"
       r="4"
       inkscape:label="out" />
    <circle
       style="display:inline;opacity:1;vector-effect:none;fill:#0000ff;fill-opacity:1;fill-rule:evenodd;stroke:none;stroke-width:1;stroke-linecap:butt;stroke-linejoin:miter;stroke-miterlimit:4;stroke-dasharray:none;stroke-dashoffset:0;stroke-opacity:1;paint-order:normal"
       id="circle4958-8"
       cx="15.645"
       cy="115.60053"
       r="4"
       inkscape:label="out" />
    <circle
       r="4"
       cy="71.350502"
       cx="15.645"
       id="circle4956-5"
       style="display:inline;opacity:1;vector-effect:none;fill:#00ff00;fill-opacity:1;fill-rule:evenodd;stroke:none;stroke-width:1;stroke-linecap:butt;stroke-linejoin:miter;stroke-miterlimit:4;stroke-dasharray:none;stroke-dashoffset:0;stroke-opacity:1;paint-order:normal"
       inkscape:label="in" />
    <circle
       r="4"
       cy="85.350494"
       cx="6.4960275"
       id="circle4956-1"
       style="display:inline;opacity:1;vector-effect:none;fill:#00ff00;fill-opacity:1;fill-rule:evenodd;stroke:none;stroke-width:1;stroke-linecap:butt;stroke-linejoin:miter;stroke-miterlimit:4;stroke-dasharray:none;stroke-dashoffset:0;stroke-opacity:1;paint-order:normal"
       inkscape:label="in" />
    <circle
       r="4"
       cy="85.350494"
       cx="15.645"
       id="circle4956-0"
       style="display:inline;opacity:1;vector-effect:none;fill:#00ff00;fill-opacity:1;fill-rule:evenodd;stroke:none;stroke-width:1;stroke-linecap:butt;stroke-linejoin:miter;stroke-miterlimit:4;stroke-dasharray:none;stroke-dashoffset:0;stroke-opacity:1;paint-order:normal"
       inkscape:label="in" />
    <circle
       style="display:inline;opacity:1;vector-effect:none;fill:#ff0000;fill-opacity:1;fill-rule:evenodd;stroke:none;stroke-width:1;stroke-linecap:butt;stroke-linejoin:miter;stroke-miterlimit:4;stroke-dasharray:none;stroke-dashoffset:0;stroke-opacity:1;paint-order:normal"
       id="path4954-3-0-2-9"
       cx="11.07"
       cy="27.181458"
       r="4"
       inkscape:label="reset_button" />
    <circle
       r="4"
       cy="39.640053"
       cx="11.069551"
       id="circle4956-3-4"
       style="display:inline;opacity:1;vector-effect:none;fill:#00ff00;fill-opacity:1;fill-rule:evenodd;stroke:none;stroke-width:1;stroke-linecap:butt;stroke-linejoin:miter;stroke-miterlimit:4;stroke-dasharray:none;stroke-dashoffset:0;stroke-opacity:1;paint-order:normal"
       inkscape:label="reset_in" />
    <circle
       style="display:inline;opacity:1;vector-effect:none;fill:#ff0000;fill-opacity:1;fill-rule:evenodd;stroke:none;stroke-width:1;stroke-linecap:butt;stroke-linejoin:miter;stroke-miterlimit:4;stroke-dasharray:none;stroke-dashoffset:0;stroke-opacity:1;paint-order:normal"
       id="path4954-0"
       cx="11.069523"
       cy="51.267727"
       r="4"
       inkscape:label="style" />
  </g>
</svg>
