<?xml version="1.0" encoding="UTF-8" standalone="no"?>
<svg
   xmlns:osb="http://www.openswatchbook.org/uri/2009/osb"
   xmlns:dc="http://purl.org/dc/elements/1.1/"
   xmlns:cc="http://creativecommons.org/ns#"
   xmlns:rdf="http://www.w3.org/1999/02/22-rdf-syntax-ns#"
   xmlns:svg="http://www.w3.org/2000/svg"
   xmlns="http://www.w3.org/2000/svg"
   xmlns:sodipodi="http://sodipodi.sourceforge.net/DTD/sodipodi-0.dtd"
   xmlns:inkscape="http://www.inkscape.org/namespaces/inkscape"
   width="45.720001mm"
   height="128.5mm"
   viewBox="0 0 45.720005 128.50002"
   version="1.1"
   id="svg8"
   inkscape:version="1.0.1 (3bc2e813f5, 2020-09-07)"
   sodipodi:docname="Basically.svg">
  <defs
     id="defs2">
    <linearGradient
       id="linearGradient2877"
       osb:paint="solid">
      <stop
         style="stop-color:#0000ff;stop-opacity:1;"
         offset="0"
         id="stop2875" />
    </linearGradient>
  </defs>
  <sodipodi:namedview
     id="base"
     pagecolor="#ffffff"
     bordercolor="#666666"
     borderopacity="1.0"
     inkscape:pageopacity="0.0"
     inkscape:pageshadow="2"
     inkscape:zoom="1.4"
     inkscape:cx="58.082586"
     inkscape:cy="237.42708"
     inkscape:document-units="mm"
     inkscape:current-layer="layer1"
     showgrid="false"
     units="mm"
     inkscape:snap-bbox="true"
     inkscape:snap-page="true"
     inkscape:bbox-nodes="false"
     inkscape:snap-bbox-edge-midpoints="false"
     inkscape:window-width="1455"
     inkscape:window-height="1000"
     inkscape:window-x="10"
     inkscape:window-y="21"
     inkscape:window-maximized="0"
     inkscape:snap-bbox-midpoints="true"
     inkscape:snap-nodes="false"
     inkscape:document-rotation="0" />
  <metadata
     id="metadata5">
    <rdf:RDF>
      <cc:Work
         rdf:about="">
        <dc:format>image/svg+xml</dc:format>
        <dc:type
           rdf:resource="http://purl.org/dc/dcmitype/StillImage" />
        <dc:title />
      </cc:Work>
    </rdf:RDF>
  </metadata>
  <g
     inkscape:groupmode="layer"
     id="layer3"
     inkscape:label="Background"
     style="display:inline">
    <rect
       style="display:inline;opacity:1;mix-blend-mode:normal;vector-effect:none;fill:#e8f1f2;fill-opacity:1;fill-rule:evenodd;stroke:none;stroke-width:0.794859;stroke-linecap:butt;stroke-linejoin:miter;stroke-miterlimit:4;stroke-dasharray:none;stroke-dashoffset:0;stroke-opacity:1;paint-order:normal"
       id="rect420"
       width="45.720001"
       height="128.5"
       x="5.9211732e-17"
       y="-1.0517578e-05" />
    <g
       aria-label="!"
       transform="matrix(1.3671122,-0.15549205,0.15715032,1.3252755,1.3824567,-3.1082607)"
       id="text912"
       style="font-style:normal;font-weight:normal;font-size:127.426px;line-height:1.25;font-family:sans-serif;display:inline;fill:#ff8589;fill-opacity:1;stroke:none;stroke-width:3.18579487;stroke-miterlimit:4;stroke-dasharray:none">
      <path
         d="M 17.007808,5.7176488 15.390095,72.852735 H 4.8127414 L 3.070589,5.7176488 Z M 16.385611,98.362823 H 3.6927863 V 85.234461 H 16.385611 Z"
         style="fill:#ff8589;fill-opacity:1;stroke-width:3.18579487;stroke-miterlimit:4;stroke-dasharray:none"
         id="path1767" />
    </g>
  </g>
  <g
     inkscape:label="Layer 1"
     inkscape:groupmode="layer"
     id="layer1"
     transform="translate(0,-168.49998)"
     style="display:inline">
    <g
       aria-label="IN1"
       id="text1067"
       style="font-size:5.64444px;line-height:1.25;font-family:sans-serif;word-spacing:0px;stroke-width:0.264583">
      <path
         d="M 11.44756,290.7753 H 9.8269878 v -0.41892 h 0.5374342 v -3.26595 H 9.8269878 V 286.6715 H 11.44756 v 0.41893 h -0.537435 v 3.26595 h 0.537435 z"
         style="font-size:5.64444px;stroke-width:0.264583"
         id="path1069" />
      <path
         d="m 15.507257,290.7753 h -0.675238 l -1.945789,-3.67109 v 3.67109 h -0.509873 v -4.1038 h 0.846114 l 1.774912,3.35139 v -3.35139 h 0.509874 z"
         style="font-size:5.64444px;stroke-width:0.264583"
         id="path1071" />
      <path
         d="m 19.035032,290.7753 h -2.221396 v -0.41892 h 0.854383 v -2.75057 h -0.854383 v -0.37482 q 0.173633,0 0.37207,-0.0276 0.198437,-0.0303 0.300412,-0.0854 0.126779,-0.0689 0.198437,-0.17363 0.07441,-0.10749 0.08544,-0.28664 h 0.427191 v 3.69866 h 0.837847 z"
         style="font-size:5.64444px;stroke-width:0.264583"
         id="path1073" />
    </g>
    <rect
       style="fill:#000000;fill-opacity:0.88755;stroke-width:0.244442"
       id="rect652"
       width="16.036171"
       height="10.721942"
       x="19.779062"
       y="275.1405"
       ry="4.2203341" />
    <g
       aria-label="-"
       id="text1760"
       style="font-size:10.5833px;line-height:1.25;font-family:sans-serif;word-spacing:0px;display:inline;stroke-width:0.264583"
       transform="translate(65.136239,176.66553)" />
    <rect
       style="display:inline;fill:#000000;stroke:#000000;stroke-width:6.31047"
       id="rect946"
       width="38.689526"
       height="77.689529"
       x="3.5152371"
       y="183.49936" />
    <g
       aria-label="BASICally"
       id="text933"
       style="font-size:7.05556px;line-height:1.25;font-family:sans-serif;word-spacing:0px;stroke-width:0.264583"
       transform="translate(0,1.5875)">
      <path
         d="m 9.8633691,174.85961 q 0,0.38241 -0.1446941,0.67524 -0.1446941,0.29284 -0.3892961,0.48232 -0.2893882,0.22737 -0.6373431,0.32384 -0.3445097,0.0965 -0.8784999,0.0965 H 5.9945243 v -5.12975 h 1.5192881 q 0.561551,0 0.8406039,0.0413 0.2790529,0.0413 0.5339901,0.17226 0.282498,0.14813 0.4099666,0.3824 0.1274687,0.23082 0.1274687,0.55466 0,0.36518 -0.1860353,0.62356 -0.1860353,0.25494 -0.4960941,0.40997 v 0.0276 q 0.5202098,0.1068 0.8199333,0.4582 0.2997235,0.34795 0.2997235,0.88194 z m -1.1472176,-2.31166 q 0,-0.18603 -0.062012,-0.3135 -0.062012,-0.12747 -0.1998157,-0.20671 -0.1619196,-0.093 -0.3927411,-0.11368 -0.2308216,-0.0241 -0.5718863,-0.0241 h -0.813043 v 1.48139 h 0.881945 q 0.3203941,0 0.5098745,-0.031 0.1894803,-0.0344 0.3513999,-0.13781 0.1619196,-0.10335 0.2273765,-0.26527 0.068902,-0.16536 0.068902,-0.3893 z m 0.4375274,2.33923 q 0,-0.31006 -0.093018,-0.49265 -0.093018,-0.18259 -0.3376196,-0.31006 -0.1653647,-0.0861 -0.4030764,-0.11025 -0.2342666,-0.0276 -0.5718862,-0.0276 h -1.071425 v 1.90859 h 0.9026156 q 0.4478627,0 0.7338058,-0.0448 0.2859431,-0.0482 0.4685333,-0.17225 0.1929255,-0.13436 0.282498,-0.30662 0.089572,-0.17225 0.089572,-0.44441 z"
         style="font-size:7.05556px;stroke-width:0.264583"
         id="path937" />
      <path
         d="m 14.875986,176.43747 h -0.726915 l -0.502984,-1.42972 h -2.218643 l -0.502985,1.42972 h -0.692464 l 1.867243,-5.12975 h 0.909505 z m -1.44005,-2.01538 -0.899171,-2.51837 -0.902615,2.51837 z"
         style="font-size:7.05556px;stroke-width:0.264583"
         id="path939" />
      <path
         d="m 19.347723,174.9733 q 0,0.29973 -0.141249,0.59256 -0.137804,0.29283 -0.389296,0.49609 -0.275608,0.22049 -0.644234,0.34451 -0.36518,0.12403 -0.881945,0.12403 -0.55466,0 -0.999078,-0.10336 -0.440972,-0.10335 -0.89917,-0.30661 v -0.85438 h 0.04823 q 0.389296,0.32384 0.89917,0.49954 0.509875,0.1757 0.957738,0.1757 0.633898,0 0.985298,-0.23772 0.354845,-0.23771 0.354845,-0.63389 0,-0.34107 -0.16881,-0.50299 -0.165365,-0.16192 -0.506429,-0.25149 -0.258383,-0.0689 -0.561551,-0.11369 -0.299724,-0.0448 -0.637343,-0.11369 -0.68213,-0.14469 -1.012859,-0.49265 -0.327285,-0.3514 -0.327285,-0.91295 0,-0.64423 0.544326,-1.0542 0.544325,-0.41341 1.381484,-0.41341 0.54088,0 0.992188,0.10335 0.451308,0.10336 0.799263,0.25494 v 0.80615 h -0.04823 q -0.292834,-0.24804 -0.771702,-0.40996 -0.475424,-0.16537 -0.974963,-0.16537 -0.547771,0 -0.881945,0.22738 -0.330729,0.22738 -0.330729,0.58567 0,0.32039 0.165364,0.50298 0.165365,0.18259 0.582222,0.27905 0.220486,0.0482 0.627008,0.11714 0.406521,0.0689 0.689019,0.14125 0.571886,0.15158 0.861275,0.45819 0.289388,0.30662 0.289388,0.85783 z"
         style="font-size:7.05556px;stroke-width:0.264583"
         id="path941" />
      <path
         d="m 22.251941,176.43747 h -2.025718 v -0.52366 h 0.671794 v -4.08244 h -0.671794 v -0.52365 h 2.025718 v 0.52365 h -0.671794 v 4.08244 h 0.671794 z"
         style="font-size:7.05556px;stroke-width:0.264583"
         id="path943" />
      <path
         d="m 27.374802,176.0654 q -0.189481,0.0827 -0.34451,0.15503 -0.151584,0.0724 -0.399631,0.15158 -0.210151,0.0655 -0.458198,0.11025 -0.244602,0.0482 -0.540881,0.0482 -0.558105,0 -1.016303,-0.15503 -0.454753,-0.15848 -0.792373,-0.49265 -0.330729,-0.32729 -0.516765,-0.83027 -0.186035,-0.50643 -0.186035,-1.17478 0,-0.6339 0.179145,-1.13344 0.179145,-0.49953 0.516765,-0.84404 0.327284,-0.33418 0.788927,-0.50988 0.465088,-0.1757 1.030084,-0.1757 0.413412,0 0.823379,0.0999 0.413412,0.0999 0.916396,0.3514 v 0.8096 h -0.05168 q -0.423747,-0.35485 -0.840604,-0.51677 -0.416856,-0.16192 -0.89228,-0.16192 -0.389296,0 -0.7028,0.12747 -0.310059,0.12402 -0.554661,0.3893 -0.237711,0.25838 -0.37207,0.65457 -0.130914,0.39274 -0.130914,0.9095 0,0.54088 0.144694,0.93018 0.14814,0.38929 0.378961,0.6339 0.241157,0.25493 0.561551,0.37896 0.323839,0.12058 0.682129,0.12058 0.492649,0 0.923287,-0.16881 0.430637,-0.16881 0.806152,-0.50643 h 0.04823 z"
         style="font-size:7.05556px;stroke-width:0.264583"
         id="path950" />
      <path
         d="m 31.278097,176.43747 h -0.644234 v -0.40997 q -0.08613,0.0586 -0.234266,0.16537 -0.144694,0.10335 -0.282498,0.16536 -0.16192,0.0792 -0.372071,0.13092 -0.210151,0.0551 -0.492649,0.0551 -0.52021,0 -0.881945,-0.34451 -0.361735,-0.34451 -0.361735,-0.8785 0,-0.43753 0.186035,-0.70625 0.189481,-0.27216 0.537435,-0.42719 0.3514,-0.15503 0.844049,-0.21015 0.492649,-0.0551 1.057645,-0.0827 v -0.0999 q 0,-0.22049 -0.07924,-0.36518 -0.07579,-0.14469 -0.220486,-0.22738 -0.137804,-0.0792 -0.33073,-0.1068 -0.192925,-0.0276 -0.403076,-0.0276 -0.254937,0 -0.568441,0.0689 -0.313504,0.0654 -0.647678,0.19292 h -0.03445 v -0.65801 q 0.18948,-0.0517 0.54777,-0.11369 0.35829,-0.062 0.706245,-0.062 0.406522,0 0.706245,0.0689 0.303169,0.0655 0.523655,0.22738 0.217041,0.15847 0.330729,0.40996 0.113689,0.25149 0.113689,0.62357 z m -0.644234,-0.9474 v -1.07143 q -0.296278,0.0172 -0.699354,0.0517 -0.399632,0.0345 -0.633898,0.0999 -0.279053,0.0792 -0.451308,0.24804 -0.172255,0.16537 -0.172255,0.4582 0,0.33073 0.199816,0.49954 0.199815,0.16537 0.609782,0.16537 0.341064,0 0.623563,-0.13092 0.282498,-0.13436 0.523654,-0.32039 z"
         style="font-size:7.05556px;stroke-width:0.264583"
         id="path952" />
      <path
         d="m 33.179791,176.43747 h -0.647678 v -5.36057 h 0.647678 z"
         style="font-size:7.05556px;stroke-width:0.264583"
         id="path954" />
      <path
         d="m 35.115935,176.43747 h -0.647678 v -5.36057 h 0.647678 z"
         style="font-size:7.05556px;stroke-width:0.264583"
         id="path956" />
      <path
         d="m 39.725476,172.5893 -2.246203,5.26755 h -0.692465 l 0.71658,-1.60542 -1.533068,-3.66213 h 0.7028 l 1.181668,2.85254 1.192004,-2.85254 z"
         style="font-size:7.05556px;stroke-width:0.264583"
         id="path958" />
    </g>
    <g
       aria-label="OUT1"
       id="text1078"
       style="font-size:6.35px;line-height:1.25;font-family:sans-serif;word-spacing:0px;stroke-width:0.264583">
      <path
         d="m 24.094505,286.87769 q 0.282154,0.31006 0.430982,0.75965 0.151928,0.44958 0.151928,1.02009 0,0.57051 -0.155029,1.02319 -0.151929,0.44959 -0.427881,0.75034 -0.285254,0.31316 -0.675927,0.47129 -0.387574,0.15813 -0.886768,0.15813 -0.486792,0 -0.886768,-0.16123 -0.396875,-0.16123 -0.675927,-0.46819 -0.279053,-0.30695 -0.430982,-0.75344 -0.148828,-0.44648 -0.148828,-1.02009 0,-0.56431 0.148828,-1.01079 0.148828,-0.44959 0.434082,-0.76895 0.272852,-0.30386 0.675928,-0.46509 0.406177,-0.16123 0.883667,-0.16123 0.496094,0 0.889868,0.16433 0.396875,0.16123 0.672827,0.46199 z m -0.05581,1.77974 q 0,-0.89917 -0.403076,-1.38596 -0.403077,-0.4899 -1.100708,-0.4899 -0.703833,0 -1.10691,0.4899 -0.399975,0.48679 -0.399975,1.38596 0,0.90847 0.409277,1.39216 0.409277,0.48059 1.097608,0.48059 0.68833,0 1.094506,-0.48059 0.409278,-0.48369 0.409278,-1.39216 z"
         style="font-size:6.35px;stroke-width:0.264583"
         id="path866" />
      <path
         d="m 29.126756,289.11011 q 0,0.5023 -0.111621,0.87747 -0.10852,0.37207 -0.359668,0.62012 -0.238745,0.23564 -0.558105,0.34416 -0.319361,0.10852 -0.744141,0.10852 -0.434082,0 -0.756543,-0.11472 -0.322461,-0.11472 -0.542602,-0.33796 -0.251148,-0.25425 -0.362769,-0.61392 -0.10852,-0.35967 -0.10852,-0.88367 v -2.76262 h 0.613916 v 2.79363 q 0,0.37517 0.04961,0.59221 0.05271,0.21704 0.173633,0.39378 0.136426,0.20153 0.36897,0.30385 0.235644,0.10232 0.564306,0.10232 0.331763,0 0.564307,-0.0992 0.232544,-0.10232 0.37207,-0.30695 0.120923,-0.17674 0.170532,-0.40308 0.05271,-0.22944 0.05271,-0.56741 v -2.80913 h 0.613916 z"
         style="font-size:6.35px;stroke-width:0.264583"
         id="path868" />
      <path
         d="m 33.5916,286.89319 h -1.649512 v 4.07107 h -0.613916 v -4.07107 H 29.67866 v -0.5457 h 3.91294 z"
         style="font-size:6.35px;stroke-width:0.264583"
         id="path870" />
      <path
         d="m 36.952635,290.96426 h -2.499073 v -0.47129 h 0.961182 v -3.09438 h -0.961182 v -0.42168 q 0.195337,0 0.418579,-0.031 0.223243,-0.0341 0.337964,-0.0961 0.142627,-0.0775 0.223242,-0.19534 0.08372,-0.12092 0.09612,-0.32246 h 0.48059 v 4.16098 h 0.942579 z"
         style="font-size:6.35px;stroke-width:0.264583"
         id="path872" />
    </g>
  </g>
  <g
     inkscape:groupmode="layer"
     id="layer2"
     inkscape:label="components"
     style="display:none">
    <circle
       r="4"
       cy="112"
       cx="13.904768"
       id="circle4956"
       style="display:inline;opacity:1;vector-effect:none;fill:#00ff00;fill-opacity:1;fill-rule:evenodd;stroke:none;stroke-width:1;stroke-linecap:butt;stroke-linejoin:miter;stroke-miterlimit:4;stroke-dasharray:none;stroke-dashoffset:0;stroke-opacity:1;paint-order:normal"
       inkscape:label="in" />
    <circle
       style="display:inline;opacity:1;vector-effect:none;fill:#0000ff;fill-opacity:1;fill-rule:evenodd;stroke:none;stroke-width:1;stroke-linecap:butt;stroke-linejoin:miter;stroke-miterlimit:4;stroke-dasharray:none;stroke-dashoffset:0;stroke-opacity:1;paint-order:normal"
       id="circle4958"
       cx="27.797148"
       cy="112"
       r="4"
       inkscape:label="out" />
  </g>
</svg>
