<?xml version="1.0" encoding="UTF-8" standalone="no"?>
<svg
   width="25.4mm"
   height="128.5mm"
   viewBox="0 0 25.400002 128.50002"
   version="1.1"
   id="svg8"
   inkscape:version="1.2.1 (9c6d41e410, 2022-07-14)"
   sodipodi:docname="Brainwash.svg"
   xmlns:inkscape="http://www.inkscape.org/namespaces/inkscape"
   xmlns:sodipodi="http://sodipodi.sourceforge.net/DTD/sodipodi-0.dtd"
   xmlns="http://www.w3.org/2000/svg"
   xmlns:svg="http://www.w3.org/2000/svg"
   xmlns:rdf="http://www.w3.org/1999/02/22-rdf-syntax-ns#"
   xmlns:cc="http://creativecommons.org/ns#"
   xmlns:dc="http://purl.org/dc/elements/1.1/">
  <defs
     id="defs2" />
  <sodipodi:namedview
     id="base"
     pagecolor="#ffffff"
     bordercolor="#666666"
     borderopacity="1.0"
     inkscape:pageopacity="0.0"
     inkscape:pageshadow="2"
     inkscape:zoom="2.0000001"
     inkscape:cx="40.499998"
     inkscape:cy="266.74999"
     inkscape:document-units="mm"
     inkscape:current-layer="layer1"
     showgrid="false"
     units="mm"
     inkscape:snap-bbox="true"
     inkscape:snap-page="true"
     inkscape:bbox-nodes="false"
     inkscape:snap-bbox-edge-midpoints="false"
     inkscape:window-width="1256"
     inkscape:window-height="1360"
     inkscape:window-x="20"
     inkscape:window-y="23"
     inkscape:window-maximized="0"
     inkscape:snap-bbox-midpoints="true"
     inkscape:snap-nodes="false"
     inkscape:document-rotation="0"
     inkscape:showpageshadow="2"
     inkscape:pagecheckerboard="0"
     inkscape:deskcolor="#d1d1d1" />
  <metadata
     id="metadata5">
    <rdf:RDF>
      <cc:Work
         rdf:about="">
        <dc:format>image/svg+xml</dc:format>
        <dc:type
           rdf:resource="http://purl.org/dc/dcmitype/StillImage" />
      </cc:Work>
    </rdf:RDF>
  </metadata>
  <g
     inkscape:label="Background"
     inkscape:groupmode="layer"
     id="layer1"
     transform="translate(0,-168.49998)"
     style="display:inline">
    <rect
       style="display:inline;opacity:1;vector-effect:none;fill:#e8f1f2;fill-opacity:1;fill-rule:evenodd;stroke:none;stroke-width:0.59278;stroke-linecap:butt;stroke-linejoin:miter;stroke-miterlimit:4;stroke-dasharray:none;stroke-dashoffset:0;stroke-opacity:1;paint-order:normal"
       id="rect420"
       width="25.4"
       height="128.5"
       x="5.9211732e-17"
       y="168.49997" />
    <g
       aria-label="!"
       transform="matrix(1.1167128,-0.15549235,0.12836675,1.3252781,-4.8437299,165.39159)"
       id="text912"
       style="font-style:normal;font-weight:normal;font-size:127.426px;line-height:1.25;font-family:sans-serif;display:inline;fill:#5e79df;fill-opacity:1;stroke:none;stroke-width:3.18552;stroke-miterlimit:4;stroke-dasharray:none">
      <path
         d="M 17.007808,5.7176488 15.390095,72.852735 H 4.8127414 L 3.070589,5.7176488 Z M 16.385611,98.362823 H 3.6927863 V 85.234461 H 16.385611 Z"
         style="display:inline;fill:#5e79df;fill-opacity:1;stroke-width:3.18552;stroke-miterlimit:4;stroke-dasharray:none"
         id="path1767" />
    </g>
  </g>
  <g
     inkscape:label="Layer 1"
     inkscape:groupmode="layer"
     id="g1684"
     transform="translate(0,-168.49998)"
     style="display:inline;opacity:1">
    <g
       aria-label="Brainwash"
       id="text650"
       style="font-size:4.23333px;line-height:1.25;word-spacing:0px;stroke-width:0.264583">
      <path
         d="m 4.4875878,176.29206 q 0,0.22944 -0.086816,0.40514 -0.086816,0.1757 -0.2335773,0.28939 -0.1736327,0.13642 -0.3824053,0.1943 -0.2067055,0.0579 -0.5270992,0.0579 H 2.1662844 v -3.07785 h 0.9115715 q 0.3369301,0 0.5043616,0.0248 0.1674315,0.0248 0.3203936,0.10335 0.1694985,0.0889 0.2459796,0.22944 0.076481,0.1385 0.076481,0.3328 0,0.21911 -0.111621,0.37414 -0.111621,0.15296 -0.297656,0.24598 v 0.0165 q 0.3121254,0.0641 0.4919593,0.27492 0.1798338,0.20877 0.1798338,0.52917 z m -0.6883295,-1.387 q 0,-0.11162 -0.037207,-0.1881 -0.037207,-0.0765 -0.1198892,-0.12402 -0.097152,-0.0558 -0.2356444,-0.0682 -0.1384927,-0.0145 -0.3431312,-0.0145 H 2.5755614 v 0.88883 h 0.5291662 q 0.1922362,0 0.3059243,-0.0186 0.113688,-0.0207 0.2108396,-0.0827 0.097152,-0.062 0.1364257,-0.15916 0.041341,-0.0992 0.041341,-0.23358 z m 0.2625161,1.40353 q 0,-0.18603 -0.05581,-0.29558 -0.055811,-0.10956 -0.2025715,-0.18604 -0.099219,-0.0517 -0.2418455,-0.0661 -0.1405598,-0.0165 -0.3431312,-0.0165 H 2.5755614 v 1.14515 H 3.11713 q 0.2687172,0 0.4402828,-0.0269 0.1715656,-0.0289 0.2811196,-0.10336 0.1157551,-0.0806 0.1694985,-0.18397 0.053744,-0.10335 0.053744,-0.26665 z"
         id="path652" />
      <path
         d="m 6.4781624,175.35361 h -0.020671 q -0.086816,-0.0207 -0.1694985,-0.0289 -0.080615,-0.0103 -0.1922362,-0.0103 -0.1798338,0 -0.3472653,0.0806 -0.1674315,0.0785 -0.3224607,0.20463 v 1.63918 H 5.0374247 v -2.3089 h 0.3886064 v 0.34106 q 0.2315102,-0.18603 0.40721,-0.26251 0.1777667,-0.0786 0.3617347,-0.0786 0.1012857,0 0.1467609,0.006 0.045475,0.004 0.1364257,0.0186 z"
         id="path654" />
      <path
         d="M 8.5638212,177.23877 H 8.1772818 v -0.24598 q -0.051676,0.0351 -0.1405598,0.0992 -0.086816,0.062 -0.1694985,0.0992 -0.097152,0.0475 -0.223242,0.0786 -0.1260904,0.0331 -0.295589,0.0331 -0.3121254,0 -0.5291662,-0.20671 -0.2170408,-0.2067 -0.2170408,-0.5271 0,-0.26251 0.111621,-0.42374 0.113688,-0.1633 0.3224606,-0.25632 0.2108397,-0.093 0.5064286,-0.12609 0.295589,-0.0331 0.6345861,-0.0496 v -0.0599 q 0,-0.13229 -0.047542,-0.21911 -0.045475,-0.0868 -0.1322915,-0.13643 -0.082682,-0.0475 -0.1984374,-0.0641 -0.1157551,-0.0165 -0.2418455,-0.0165 -0.1529621,0 -0.3410641,0.0413 -0.1881021,0.0393 -0.3886065,0.11576 H 6.806824 v -0.39481 q 0.113688,-0.031 0.3286618,-0.0682 0.2149738,-0.0372 0.4237464,-0.0372 0.2439125,0 0.4237464,0.0413 0.1819009,0.0393 0.3141924,0.13642 0.1302245,0.0951 0.1984373,0.24598 0.068213,0.1509 0.068213,0.37414 z m -0.3865394,-0.56844 v -0.64286 q -0.1777668,0.0103 -0.4196123,0.031 -0.2397784,0.0207 -0.3803382,0.0599 -0.1674315,0.0475 -0.2707843,0.14882 -0.1033528,0.0992 -0.1033528,0.27492 0,0.19844 0.1198893,0.29972 0.1198892,0.0992 0.3658688,0.0992 0.2046385,0 0.374137,-0.0785 0.1694986,-0.0806 0.3141925,-0.19224 z"
         id="path656" />
      <path
         d="M 9.7296407,174.54333 H 9.291425 v -0.40308 h 0.4382157 z m -0.024805,2.69544 H 9.3162296 v -2.3089 h 0.3886065 z"
         id="path658" />
      <path
         d="m 12.40441,177.23877 h -0.388606 v -1.31465 q 0,-0.15916 -0.0186,-0.29765 -0.0186,-0.14056 -0.06821,-0.21911 -0.05168,-0.0868 -0.148828,-0.12816 -0.09715,-0.0434 -0.252181,-0.0434 -0.159163,0 -0.332796,0.0785 -0.173633,0.0786 -0.332796,0.20051 v 1.72392 h -0.388606 v -2.3089 h 0.388606 v 0.25631 q 0.181901,-0.15089 0.376204,-0.23564 0.194303,-0.0847 0.398942,-0.0847 0.374137,0 0.570507,0.22531 0.19637,0.22531 0.19637,0.64905 z"
         id="path660" />
      <path
         d="m 16.036227,174.92987 -0.601513,2.3089 h -0.359668 l -0.593245,-1.77974 -0.58911,1.77974 H 13.53509 l -0.607714,-2.3089 h 0.405143 l 0.423746,1.788 0.576708,-1.788 h 0.320394 l 0.591178,1.788 0.401009,-1.788 z"
         id="path662" />
      <path
         d="m 18.349263,177.23877 h -0.38654 v -0.24598 q -0.05168,0.0351 -0.14056,0.0992 -0.08682,0.062 -0.169498,0.0992 -0.09715,0.0475 -0.223242,0.0786 -0.126091,0.0331 -0.295589,0.0331 -0.312125,0 -0.529166,-0.20671 -0.217041,-0.2067 -0.217041,-0.5271 0,-0.26251 0.111621,-0.42374 0.113688,-0.1633 0.322461,-0.25632 0.210839,-0.093 0.506428,-0.12609 0.295589,-0.0331 0.634586,-0.0496 v -0.0599 q 0,-0.13229 -0.04754,-0.21911 -0.04547,-0.0868 -0.132292,-0.13643 -0.08268,-0.0475 -0.198437,-0.0641 -0.115755,-0.0165 -0.241845,-0.0165 -0.152963,0 -0.341065,0.0413 -0.188102,0.0393 -0.388606,0.11576 h -0.02067 v -0.39481 q 0.113688,-0.031 0.328662,-0.0682 0.214974,-0.0372 0.423747,-0.0372 0.243912,0 0.423746,0.0413 0.181901,0.0393 0.314192,0.13642 0.130225,0.0951 0.198438,0.24598 0.06821,0.1509 0.06821,0.37414 z m -0.38654,-0.56844 v -0.64286 q -0.177767,0.0103 -0.419612,0.031 -0.239779,0.0207 -0.380338,0.0599 -0.167432,0.0475 -0.270785,0.14882 -0.103352,0.0992 -0.103352,0.27492 0,0.19844 0.119889,0.29972 0.119889,0.0992 0.365869,0.0992 0.204638,0 0.374137,-0.0785 0.169498,-0.0806 0.314192,-0.19224 z"
         id="path664" />
      <path
         d="m 20.747046,176.57318 q 0,0.31626 -0.262516,0.51883 -0.260449,0.20257 -0.713134,0.20257 -0.256315,0 -0.471289,-0.0599 -0.212906,-0.062 -0.3576,-0.13436 v -0.43615 h 0.02067 q 0.183968,0.13849 0.409277,0.22117 0.225309,0.0806 0.432015,0.0806 0.256315,0 0.401009,-0.0827 0.144694,-0.0827 0.144694,-0.26045 0,-0.13643 -0.07855,-0.20671 -0.07855,-0.0703 -0.301791,-0.11989 -0.08268,-0.0186 -0.21704,-0.0434 -0.132292,-0.0248 -0.241846,-0.0537 -0.303857,-0.0806 -0.432015,-0.23564 -0.12609,-0.1571 -0.12609,-0.38448 0,-0.14262 0.05788,-0.26871 0.05994,-0.12609 0.179833,-0.22531 0.115756,-0.0971 0.293522,-0.15296 0.179834,-0.0579 0.401009,-0.0579 0.206706,0 0.417545,0.0517 0.212907,0.0496 0.353467,0.12196 v 0.41548 h -0.02067 q -0.148828,-0.10956 -0.361734,-0.18397 -0.212907,-0.0765 -0.417546,-0.0765 -0.212906,0 -0.359667,0.0827 -0.146761,0.0806 -0.146761,0.24185 0,0.14262 0.08888,0.21497 0.08682,0.0724 0.28112,0.11782 0.107487,0.0248 0.239778,0.0496 0.134359,0.0248 0.223242,0.0455 0.270784,0.062 0.417545,0.2129 0.146761,0.15297 0.146761,0.40515 z"
         id="path666" />
      <path
         d="m 23.233715,177.23877 h -0.388606 v -1.31465 q 0,-0.15916 -0.0186,-0.29765 -0.0186,-0.14056 -0.06821,-0.21911 -0.05168,-0.0868 -0.148828,-0.12816 -0.09715,-0.0434 -0.25218,-0.0434 -0.159164,0 -0.332796,0.0785 -0.173633,0.0786 -0.332796,0.20051 v 1.72392 h -0.388607 v -3.21634 h 0.388607 v 1.16375 q 0.181901,-0.15089 0.376204,-0.23564 0.194303,-0.0847 0.398941,-0.0847 0.374138,0 0.570508,0.22531 0.19637,0.22531 0.19637,0.64905 z"
         id="path668" />
    </g>
    <g
       aria-label="-"
       id="text1760-3"
       style="font-size:10.5833px;line-height:1.25;font-family:sans-serif;word-spacing:0px;display:inline;stroke-width:0.264583"
       transform="translate(62.646758,215.99679)">
      <path
         d="m -48.334459,40.379236 h -3.224599 v -0.935341 h 3.224599 z"
         style="stroke-width:0.264583"
         id="path1762-7" />
    </g>
    <g
       aria-label="RECORD"
       id="text1074"
       style="font-size:4.93889px;line-height:1.25;word-spacing:0px;stroke-width:0.264583"
       transform="translate(-2.5400001,7.4083337)">
      <path
         d="M 8.0306188,257.26767 H 7.410846 L 6.2098854,255.84002 H 5.5370581 v 1.42765 H 5.0595678 v -3.59082 h 1.0056236 q 0.3255616,0 0.5426026,0.0434 0.2170411,0.041 0.3906739,0.14952 0.195337,0.12299 0.3038575,0.31109 0.1109321,0.18569 0.1109321,0.47267 0,0.38826 -0.1953369,0.65112 -0.195337,0.26045 -0.5377796,0.39309 z m -1.1165557,-2.58038 q 0,-0.15434 -0.055466,-0.2725 -0.053055,-0.12058 -0.178456,-0.20258 -0.1036974,-0.0699 -0.2459798,-0.0965 -0.1422825,-0.0289 -0.3352079,-0.0289 H 5.5370581 v 1.3553 h 0.4823135 q 0.2266873,0 0.395497,-0.0386 0.1688097,-0.041 0.2869766,-0.14952 0.1085205,-0.10128 0.1591634,-0.23151 0.053055,-0.13264 0.053055,-0.33521 z"
         id="path359" />
      <path
         d="M 10.859387,257.26767 H 8.4936398 v -3.59082 h 2.3657472 v 0.42443 H 8.9711301 v 0.98392 h 1.8882569 v 0.42444 H 8.9711301 v 1.33359 h 1.8882569 z"
         id="path361" />
      <path
         d="m 14.389922,257.00722 q -0.132636,0.0579 -0.241157,0.10852 -0.106109,0.0506 -0.279742,0.10611 -0.147105,0.0458 -0.320738,0.0772 -0.171221,0.0338 -0.378616,0.0338 -0.390674,0 -0.711413,-0.10852 -0.318326,-0.11093 -0.55466,-0.34485 -0.231511,-0.2291 -0.361735,-0.58119 -0.130225,-0.3545 -0.130225,-0.82234 0,-0.44373 0.125402,-0.79341 0.125401,-0.34968 0.361735,-0.59083 0.229099,-0.23393 0.552249,-0.35692 0.325561,-0.12299 0.721058,-0.12299 0.289388,0 0.576365,0.0699 0.289388,0.0699 0.641477,0.24598 v 0.56672 h -0.03617 q -0.296622,-0.24839 -0.588422,-0.36174 -0.2918,-0.11334 -0.624596,-0.11334 -0.272507,0 -0.49196,0.0892 -0.217041,0.0868 -0.388262,0.2725 -0.166398,0.18087 -0.260449,0.4582 -0.09164,0.27492 -0.09164,0.63666 0,0.37861 0.101286,0.65112 0.103697,0.27251 0.265272,0.44373 0.16881,0.17845 0.393086,0.26527 0.226687,0.0844 0.47749,0.0844 0.344854,0 0.6463,-0.11816 0.301446,-0.11817 0.564307,-0.3545 h 0.03376 z"
         id="path363" />
      <path
         d="m 17.742001,254.08922 q 0.219452,0.24116 0.335208,0.59084 0.118167,0.34968 0.118167,0.7934 0,0.44373 -0.120579,0.79582 -0.118167,0.34968 -0.332796,0.5836 -0.221864,0.24357 -0.525722,0.36656 -0.301446,0.12299 -0.689708,0.12299 -0.378616,0 -0.689708,-0.1254 -0.308681,-0.1254 -0.525722,-0.36415 -0.217041,-0.23875 -0.335208,-0.58601 -0.115755,-0.34727 -0.115755,-0.79341 0,-0.4389 0.115755,-0.78617 0.115755,-0.34967 0.33762,-0.59807 0.212217,-0.23633 0.525721,-0.36173 0.315916,-0.1254 0.687297,-0.1254 0.385851,0 0.69212,0.12781 0.30868,0.1254 0.52331,0.35932 z m -0.04341,1.38424 q 0,-0.69935 -0.313504,-1.07797 -0.313504,-0.38102 -0.856107,-0.38102 -0.547425,0 -0.860929,0.38102 -0.311092,0.37862 -0.311092,1.07797 0,0.70659 0.318327,1.0828 0.318327,0.37379 0.853694,0.37379 0.535368,0 0.851284,-0.37379 0.318327,-0.37621 0.318327,-1.0828 z"
         id="path365" />
      <path
         d="m 21.923658,257.26767 h -0.619772 l -1.200961,-1.42765 h -0.672827 v 1.42765 h -0.477491 v -3.59082 h 1.005624 q 0.325562,0 0.542603,0.0434 0.217041,0.041 0.390674,0.14952 0.195337,0.12299 0.303857,0.31109 0.110932,0.18569 0.110932,0.47267 0,0.38826 -0.195337,0.65112 -0.195337,0.26045 -0.537779,0.39309 z m -1.116555,-2.58038 q 0,-0.15434 -0.05547,-0.2725 -0.05306,-0.12058 -0.178456,-0.20258 -0.103698,-0.0699 -0.24598,-0.0965 -0.142283,-0.0289 -0.335208,-0.0289 h -0.561895 v 1.3553 h 0.482313 q 0.226688,0 0.395497,-0.0386 0.16881,-0.041 0.286977,-0.14952 0.10852,-0.10128 0.159163,-0.23151 0.05306,-0.13264 0.05306,-0.33521 z"
         id="path367" />
      <path
         d="m 25.420432,255.47588 q 0,0.48954 -0.21463,0.88745 -0.212218,0.39791 -0.566718,0.61736 -0.24598,0.15193 -0.549837,0.21946 -0.301446,0.0675 -0.795818,0.0675 H 22.38668 v -3.59082 h 0.897103 q 0.525722,0 0.834402,0.0772 0.311093,0.0747 0.525722,0.20739 0.366558,0.2291 0.571541,0.61013 0.204984,0.38102 0.204984,0.90434 z m -0.499195,-0.007 q 0,-0.42202 -0.147105,-0.71141 -0.147106,-0.28939 -0.438906,-0.45579 -0.212218,-0.12058 -0.450963,-0.1664 -0.238745,-0.0482 -0.571541,-0.0482 H 22.86417 v 2.77089 h 0.448552 q 0.344854,0 0.60048,-0.0506 0.258038,-0.0506 0.472667,-0.1881 0.267684,-0.17122 0.400321,-0.45097 0.135047,-0.27974 0.135047,-0.69935 z"
         id="path369" />
    </g>
    <g
       aria-label="L"
       id="text1685"
       style="font-size:7.05556px;line-height:1.25;word-spacing:0px;display:inline;stroke-width:0.264583"
       transform="matrix(0.75541418,0,0,0.75541418,2.2273667,57.036184)">
      <path
         d="m 9.6463625,292.45724 h -3.245282 v -5.12975 h 0.6821293 v 4.52342 h 2.5631527 z"
         id="path1691" />
    </g>
    <g
       aria-label="R"
       id="text1689"
       style="font-size:7.05556px;line-height:1.25;word-spacing:0px;display:inline;stroke-width:0.264583"
       transform="matrix(0.71948077,0,0,0.71948077,-6.7997475,77.77176)">
      <path
         d="m 23.093342,292.45724 h -0.88539 l -1.715659,-2.03949 h -0.961182 v 2.03949 h -0.68213 v -5.12975 h 1.436606 q 0.465088,0 0.775147,0.062 0.310059,0.0586 0.558106,0.21359 0.279053,0.1757 0.434082,0.44442 0.158475,0.26527 0.158475,0.67524 0,0.55466 -0.279053,0.93018 -0.279053,0.37207 -0.768257,0.56155 z m -1.595081,-3.68625 q 0,-0.22049 -0.07924,-0.3893 -0.07579,-0.17225 -0.254937,-0.28938 -0.148139,-0.0999 -0.3514,-0.13781 -0.203261,-0.0413 -0.478869,-0.0413 h -0.802707 v 1.93615 h 0.689019 q 0.323839,0 0.564996,-0.0551 0.241157,-0.0586 0.409967,-0.21359 0.155029,-0.1447 0.227376,-0.33073 0.07579,-0.18948 0.07579,-0.47887 z"
         id="path1694" />
    </g>
  </g>
  <g
     inkscape:groupmode="layer"
     id="layer2"
     inkscape:label="components"
     style="display:none">
    <circle
       style="display:inline;vector-effect:none;fill:#00ff00;fill-opacity:1;fill-rule:evenodd;stroke:none;stroke-width:1;stroke-linecap:butt;stroke-linejoin:miter;stroke-miterlimit:4;stroke-dasharray:none;stroke-dashoffset:0;stroke-opacity:1;paint-order:normal"
       id="circle4958"
       cx="14.638268"
       cy="117.84376"
       r="4"
       inkscape:label="right_in" />
    <circle
       style="display:inline;vector-effect:none;fill:#00ff00;fill-opacity:1;fill-rule:evenodd;stroke:none;stroke-width:1;stroke-linecap:butt;stroke-linejoin:miter;stroke-miterlimit:4;stroke-dasharray:none;stroke-dashoffset:0;stroke-opacity:1;paint-order:normal"
       id="circle4958-4"
       cx="14.638268"
       cy="107.525"
       r="4"
       inkscape:label="left_in" />
    <circle
       r="4"
       cy="87.40834"
       cx="6.3503332"
       id="circle4956-3-5"
       style="display:inline;opacity:1;fill:#00ff00;fill-opacity:1;fill-rule:evenodd;stroke:none;stroke-width:1;stroke-linecap:butt;stroke-linejoin:miter;stroke-miterlimit:4;stroke-dasharray:none;stroke-dashoffset:0;stroke-opacity:1;paint-order:normal"
       inkscape:label="play_trigger" />
    <circle
       style="display:inline;opacity:1;vector-effect:none;fill:#ff0000;fill-opacity:1;fill-rule:evenodd;stroke:none;stroke-width:1;stroke-linecap:butt;stroke-linejoin:miter;stroke-miterlimit:4;stroke-dasharray:none;stroke-dashoffset:0;stroke-opacity:1;paint-order:normal"
       id="path4954-3-0-2-9-7-7"
       cx="19.049669"
       cy="87.40834"
       r="4"
       inkscape:label="play_button" />
    <circle
       style="display:inline;fill:#ff00ff;fill-opacity:1;fill-rule:evenodd;stroke:none;stroke-width:1;stroke-linecap:butt;stroke-linejoin:miter;stroke-miterlimit:4;stroke-dasharray:none;stroke-dashoffset:0;stroke-opacity:1;paint-order:normal"
       id="path4954-3-0-2-9-0-0"
       cx="12.7"
       cy="3"
       r="4"
       inkscape:label="connected" />
  </g>
</svg>
