<?xml version="1.0" encoding="UTF-8" standalone="no"?>
<svg
   width="30.48mm"
   height="128.5mm"
   viewBox="0 0 30.480002 128.50002"
   version="1.1"
   id="svg8"
   inkscape:version="1.2.1 (9c6d41e410, 2022-07-14)"
   sodipodi:docname="Depict.svg"
   xmlns:inkscape="http://www.inkscape.org/namespaces/inkscape"
   xmlns:sodipodi="http://sodipodi.sourceforge.net/DTD/sodipodi-0.dtd"
   xmlns="http://www.w3.org/2000/svg"
   xmlns:svg="http://www.w3.org/2000/svg"
   xmlns:rdf="http://www.w3.org/1999/02/22-rdf-syntax-ns#"
   xmlns:cc="http://creativecommons.org/ns#"
   xmlns:dc="http://purl.org/dc/elements/1.1/">
  <defs
     id="defs2" />
  <sodipodi:namedview
     id="base"
     pagecolor="#ffffff"
     bordercolor="#666666"
     borderopacity="1.0"
     inkscape:pageopacity="0.0"
     inkscape:pageshadow="2"
     inkscape:zoom="2.0000001"
     inkscape:cx="-162.49999"
     inkscape:cy="139.99999"
     inkscape:document-units="mm"
     inkscape:current-layer="layer1"
     showgrid="false"
     units="mm"
     inkscape:snap-bbox="true"
     inkscape:snap-page="true"
     inkscape:bbox-nodes="false"
     inkscape:snap-bbox-edge-midpoints="false"
     inkscape:window-width="2560"
     inkscape:window-height="1369"
     inkscape:window-x="-8"
     inkscape:window-y="-8"
     inkscape:window-maximized="1"
     inkscape:snap-bbox-midpoints="true"
     inkscape:snap-nodes="false"
     inkscape:document-rotation="0"
     inkscape:showpageshadow="2"
     inkscape:pagecheckerboard="0"
     inkscape:deskcolor="#d1d1d1" />
  <metadata
     id="metadata5">
    <rdf:RDF>
      <cc:Work
         rdf:about="">
        <dc:format>image/svg+xml</dc:format>
        <dc:type
           rdf:resource="http://purl.org/dc/dcmitype/StillImage" />
      </cc:Work>
    </rdf:RDF>
  </metadata>
  <g
     inkscape:label="Background"
     inkscape:groupmode="layer"
     id="layer1"
     transform="translate(0,-168.49998)"
     style="display:inline">
    <rect
       style="display:inline;opacity:1;vector-effect:none;fill:#e8f1f2;fill-opacity:1;fill-rule:evenodd;stroke:none;stroke-width:0.649358;stroke-linecap:butt;stroke-linejoin:miter;stroke-miterlimit:4;stroke-dasharray:none;stroke-dashoffset:0;stroke-opacity:1;paint-order:normal"
       id="rect420"
       width="30.48"
       height="128.5"
       x="5.9211732e-17"
       y="168.49997" />
    <g
       aria-label="!"
       transform="matrix(1.1167128,-0.15549235,0.12836675,1.3252781,-2.30373,165.39159)"
       id="text912"
       style="font-style:normal;font-weight:normal;font-size:127.426px;line-height:1.25;font-family:sans-serif;display:inline;fill:#338adf;fill-opacity:1;stroke:none;stroke-width:3.18552;stroke-miterlimit:4;stroke-dasharray:none">
      <path
         d="M 17.007808,5.7176488 15.390095,72.852735 H 4.8127414 L 3.070589,5.7176488 Z M 16.385611,98.362823 H 3.6927863 V 85.234461 H 16.385611 Z"
         style="fill:#338adf;fill-opacity:1;stroke-width:3.18552;stroke-miterlimit:4;stroke-dasharray:none"
         id="path1767" />
    </g>
  </g>
  <g
     inkscape:label="Layer 1"
     inkscape:groupmode="layer"
     id="g1684"
     transform="translate(0,-168.49998)"
     style="display:inline;opacity:1">
    <g
       aria-label="Depict"
       id="text384"
       style="font-size:7.05556px;line-height:1.25;word-spacing:0px;stroke-width:0.264583">
      <path
         d="m 8.7769965,175.37225 q 0,0.69936 -0.3066137,1.2678 -0.3031686,0.56844 -0.8095979,0.88194 -0.3514,0.21705 -0.7854823,0.31351 -0.4306372,0.0965 -1.1368823,0.0965 H 4.4430636 v -5.12975 h 1.2815763 q 0.7510313,0 1.1920039,0.11024 0.4444176,0.1068 0.7510313,0.29628 0.5236548,0.32729 0.8164881,0.87161 0.2928333,0.54433 0.2928333,1.29191 z m -0.7131352,-0.0103 q 0,-0.60289 -0.210151,-1.01631 -0.2101509,-0.41341 -0.6270078,-0.65112 -0.3031685,-0.17225 -0.6442332,-0.23771 -0.3410647,-0.0689 -0.8164882,-0.0689 H 5.1251929 v 3.95841 h 0.6407882 q 0.492649,0 0.8578293,-0.0723 0.3686255,-0.0724 0.6752392,-0.26872 0.3824058,-0.2446 0.5718862,-0.64423 0.1929255,-0.39963 0.1929255,-0.99908 z"
         id="path436" />
      <path
         d="m 13.048918,176.07505 h -2.835316 q 0,0.35485 0.106798,0.62012 0.106798,0.26183 0.292834,0.43064 0.179145,0.16536 0.423747,0.24805 0.248047,0.0827 0.544325,0.0827 0.392741,0 0.788927,-0.15503 0.399632,-0.15848 0.568442,-0.31006 h 0.03445 v 0.70624 q -0.327285,0.13781 -0.668349,0.23083 -0.341065,0.093 -0.716581,0.093 -0.957737,0 -1.495172,-0.51676 -0.5374354,-0.52021 -0.5374354,-1.4745 0,-0.94396 0.5133194,-1.49862 0.516765,-0.55466 1.357369,-0.55466 0.778592,0 1.198894,0.45475 0.423747,0.45475 0.423747,1.29191 z m -0.630453,-0.49609 q -0.0034,-0.50988 -0.258383,-0.78893 -0.251492,-0.27905 -0.768256,-0.27905 -0.52021,0 -0.830269,0.30661 -0.306614,0.30662 -0.347955,0.76137 z"
         id="path438" />
      <path
         d="m 17.417301,175.96137 q 0,0.46853 -0.134358,0.85782 -0.134359,0.38586 -0.378961,0.65457 -0.227377,0.25494 -0.537435,0.39619 -0.306614,0.1378 -0.651124,0.1378 -0.299723,0 -0.544325,-0.0654 -0.241157,-0.0655 -0.492649,-0.20326 v 1.6123 H 14.03077 v -5.26755 h 0.647679 v 0.40307 q 0.258382,-0.21704 0.578776,-0.36173 0.323839,-0.14814 0.68902,-0.14814 0.69591,0 1.08176,0.5271 0.389296,0.52365 0.389296,1.45728 z m -0.668348,0.0172 q 0,-0.69591 -0.237712,-1.04042 -0.237712,-0.34451 -0.730361,-0.34451 -0.279053,0 -0.561551,0.12058 -0.282498,0.12058 -0.54088,0.31695 v 2.18075 q 0.275608,0.12402 0.471978,0.16881 0.199816,0.0448 0.451308,0.0448 0.54088,0 0.844049,-0.36518 0.303169,-0.36518 0.303169,-1.08176 z"
         id="path440" />
      <path
         d="m 19.122625,173.43955 h -0.730361 v -0.67179 h 0.730361 z m -0.04134,4.49241 h -0.647679 v -3.84817 h 0.647679 z"
         id="path442" />
      <path
         d="m 23.208511,177.6908 q -0.32384,0.15503 -0.616673,0.24116 -0.289388,0.0861 -0.616672,0.0861 -0.416857,0 -0.764812,-0.12058 -0.347955,-0.12402 -0.596002,-0.37207 -0.251492,-0.24805 -0.389296,-0.62701 -0.137804,-0.37896 -0.137804,-0.88539 0,-0.94396 0.516765,-1.48139 0.520209,-0.53744 1.371149,-0.53744 0.330729,0 0.647678,0.093 0.320394,0.093 0.585667,0.22738 v 0.72002 h -0.03445 q -0.296279,-0.23082 -0.613228,-0.35484 -0.313504,-0.12402 -0.613227,-0.12402 -0.551216,0 -0.87161,0.37207 -0.316949,0.36862 -0.316949,1.0852 0,0.69591 0.310059,1.07143 0.313504,0.37207 0.8785,0.37207 0.19637,0 0.399631,-0.0517 0.203261,-0.0517 0.365181,-0.13436 0.141249,-0.0723 0.265272,-0.15158 0.124024,-0.0827 0.196371,-0.14125 h 0.03445 z"
         id="path444" />
      <path
         d="m 26.036936,177.89751 q -0.18259,0.0482 -0.399631,0.0792 -0.213596,0.031 -0.382406,0.031 -0.589112,0 -0.895726,-0.31695 -0.306613,-0.31694 -0.306613,-1.0163 v -2.04639 h -0.437528 v -0.54432 h 0.437528 v -1.10588 h 0.647678 v 1.10588 h 1.336698 v 0.54432 h -1.336698 v 1.75356 q 0,0.30317 0.01378,0.47542 0.01378,0.16881 0.09646,0.31695 0.07579,0.1378 0.206706,0.20326 0.134359,0.062 0.406522,0.062 0.158474,0 0.330729,-0.0448 0.172255,-0.0482 0.248047,-0.0792 h 0.03445 z"
         id="path446" />
    </g>
    <rect
       style="fill:#000000;fill-rule:evenodd;stroke:#000000;stroke-width:0.334;stroke-linecap:round;stroke-linejoin:bevel;stroke-dasharray:none;stroke-opacity:1;paint-order:stroke fill markers"
       id="rect1413"
       width="25.664581"
       height="109.14062"
       x="2.4077091"
       y="182.52289" />
  </g>
  <g
     inkscape:groupmode="layer"
     id="layer2"
     inkscape:label="components"
     style="display:none">
    <circle
       style="display:inline;fill:#ff00ff;fill-opacity:1;fill-rule:evenodd;stroke:none;stroke-width:1;stroke-linecap:butt;stroke-linejoin:miter;stroke-miterlimit:4;stroke-dasharray:none;stroke-dashoffset:0;stroke-opacity:1;paint-order:normal"
       id="path4954-3-0-2-9-0-0"
       cx="15.24"
       cy="3"
       r="4"
       inkscape:label="connected" />
  </g>
</svg>
