<?xml version="1.0" encoding="UTF-8" standalone="no"?>
<svg
   width="30.48mm"
   height="128.5mm"
   viewBox="0 0 30.480002 128.50002"
   version="1.1"
   id="svg8"
   inkscape:version="1.4.3 (0d15f75, 2025-12-25)"
   sodipodi:docname="Mixt.svg"
   xmlns:inkscape="http://www.inkscape.org/namespaces/inkscape"
   xmlns:sodipodi="http://sodipodi.sourceforge.net/DTD/sodipodi-0.dtd"
   xmlns:xlink="http://www.w3.org/1999/xlink"
   xmlns="http://www.w3.org/2000/svg"
   xmlns:svg="http://www.w3.org/2000/svg"
   xmlns:rdf="http://www.w3.org/1999/02/22-rdf-syntax-ns#"
   xmlns:cc="http://creativecommons.org/ns#"
   xmlns:dc="http://purl.org/dc/elements/1.1/">
  <defs
     id="defs2">
    <linearGradient
       id="linearGradient1"
       inkscape:collect="always">
      <stop
         style="stop-color:#ff0000;stop-opacity:1;"
         offset="0"
         id="stop1" />
      <stop
         style="stop-color:#00ff00;stop-opacity:1;"
         offset="1"
         id="stop2" />
    </linearGradient>
    <linearGradient
       inkscape:collect="always"
       xlink:href="#linearGradient1"
       id="linearGradient2"
       x1="16.24826"
       y1="55.203915"
       x2="3.8301291"
       y2="48.87656"
       gradientUnits="userSpaceOnUse" />
    <linearGradient
       inkscape:collect="always"
       xlink:href="#linearGradient1"
       id="linearGradient5"
       gradientUnits="userSpaceOnUse"
       x1="16.24826"
       y1="55.203915"
       x2="3.8301291"
       y2="48.87656" />
  </defs>
  <sodipodi:namedview
     id="base"
     pagecolor="#ffffff"
     bordercolor="#666666"
     borderopacity="1.0"
     inkscape:pageopacity="0.0"
     inkscape:pageshadow="2"
     inkscape:zoom="2.8284274"
     inkscape:cx="-12.551144"
     inkscape:cy="176.95345"
     inkscape:document-units="mm"
     inkscape:current-layer="layer2"
     showgrid="false"
     units="mm"
     inkscape:snap-bbox="true"
     inkscape:snap-page="true"
     inkscape:bbox-nodes="false"
     inkscape:snap-bbox-edge-midpoints="false"
     inkscape:window-width="2560"
     inkscape:window-height="1369"
     inkscape:window-x="-8"
     inkscape:window-y="-8"
     inkscape:window-maximized="1"
     inkscape:snap-bbox-midpoints="true"
     inkscape:snap-nodes="false"
     inkscape:document-rotation="0"
     inkscape:showpageshadow="2"
     inkscape:pagecheckerboard="0"
     inkscape:deskcolor="#d1d1d1" />
  <metadata
     id="metadata5">
    <rdf:RDF>
      <cc:Work
         rdf:about="">
        <dc:format>image/svg+xml</dc:format>
        <dc:type
           rdf:resource="http://purl.org/dc/dcmitype/StillImage" />
      </cc:Work>
    </rdf:RDF>
  </metadata>
  <g
     inkscape:label="Background"
     inkscape:groupmode="layer"
     id="layer1"
     transform="translate(0,-168.49998)"
     style="display:inline">
    <rect
       style="display:inline;opacity:1;vector-effect:none;fill:#e8f1f2;fill-opacity:1;fill-rule:evenodd;stroke:none;stroke-width:0.649358;stroke-linecap:butt;stroke-linejoin:miter;stroke-miterlimit:4;stroke-dasharray:none;stroke-dashoffset:0;stroke-opacity:1;paint-order:normal"
       id="rect420"
       width="30.48"
       height="128.5"
       x="5.9211732e-17"
       y="168.49997" />
    <g
       aria-label="!"
       transform="matrix(1.1167128,-0.15549235,0.12836675,1.3252781,-2.30373,165.39159)"
       id="text912"
       style="font-style:normal;font-weight:normal;font-size:127.426px;line-height:1.25;font-family:sans-serif;display:inline;fill:url(#linearGradient2);fill-opacity:1;stroke:none;stroke-width:3.18552;stroke-miterlimit:4;stroke-dasharray:none">
      <path
         d="M 17.007808,5.7176488 15.390095,72.852735 H 4.8127414 L 3.070589,5.7176488 Z M 16.385611,98.362823 H 3.6927863 V 85.234461 H 16.385611 Z"
         style="fill:url(#linearGradient5);fill-opacity:1;stroke-width:3.18552;stroke-miterlimit:4;stroke-dasharray:none"
         id="path1767" />
    </g>
  </g>
  <g
     inkscape:label="Layer 1"
     inkscape:groupmode="layer"
     id="g1684"
     transform="translate(0,-168.49998)"
     style="display:inline;opacity:1">
    <g
       aria-label="-"
       id="text1760-3-2"
       style="font-size:10.5833px;line-height:1.25;font-family:sans-serif;word-spacing:0px;display:inline;opacity:1;stroke-width:0.264583"
       transform="translate(64.387058,176.58836)" />
    <rect
       style="display:inline;fill:#000000;fill-opacity:0.88755;stroke-width:0.239885;image-rendering:auto"
       id="rect652-6-3"
       width="17.044075"
       height="9.7154026"
       x="1.8592124"
       y="206.97424"
       ry="2.2658029"
       rx="2.2658029" />
    <rect
       style="display:inline;fill:#000000;fill-opacity:0.88755;stroke-width:0.205078;image-rendering:auto"
       id="rect652-6-3-4"
       width="16"
       height="7.5638828"
       x="2.381"
       y="197.36092"
       ry="2.2658029"
       rx="2.2658029" />
    <rect
       style="display:inline;fill:#000000;fill-opacity:0.88755;stroke-width:0.205077;image-rendering:auto"
       id="rect652-6-3-4-5"
       width="16"
       height="7.5638828"
       x="2.3812499"
       y="185.42212"
       ry="2.2658029"
       rx="2.2658029" />
    <path
       d="M 13.049436,178.34932 H 12.43552 v -3.97805 l -1.283643,2.70681 h -0.365869 l -1.2743408,-2.70681 v 3.97805 H 8.9380588 v -4.61677 H 9.775217 l 1.230933,2.57038 1.190625,-2.57038 h 0.852661 z m 1.820044,-4.04316 h -0.657325 v -0.60462 h 0.657325 z m -0.03721,4.04316 h -0.582911 v -3.46335 h 0.582911 z m 4.151684,0 h -0.734839 l -0.982885,-1.33015 -0.989087,1.33015 h -0.679029 l 1.351856,-1.72703 -1.339453,-1.73632 h 0.734839 l 0.976684,1.30844 0.979785,-1.30844 h 0.682129 l -1.361157,1.70532 z m 2.557984,-0.031 q -0.164331,0.0434 -0.359668,0.0713 -0.192237,0.0279 -0.344165,0.0279 -0.530201,0 -0.806153,-0.28525 Q 19.756,177.84701 19.756,177.2176 v -1.84175 h -0.393774 v -0.48989 H 19.756 v -0.99529 h 0.58291 v 0.99529 h 1.203028 v 0.48989 H 20.33891 v 1.5782 q 0,0.27285 0.0124,0.42788 0.0124,0.15193 0.08682,0.28525 0.06821,0.12402 0.186035,0.18294 0.120923,0.0558 0.365869,0.0558 0.142627,0 0.297657,-0.0403 0.155029,-0.0434 0.223242,-0.0713 h 0.03101 z"
       id="text1"
       style="font-size:6.35px;line-height:1.25;word-spacing:0px;stroke-width:0.264583"
       aria-label="Mixt" />
    <path
       d="m 4.3474943,219.07074 q 0,0.34967 -0.153306,0.63389 -0.151584,0.28422 -0.404798,0.44097 -0.175699,0.10852 -0.39274,0.15676 -0.215318,0.0482 -0.568439,0.0482 h -0.647677 v -2.56487 h 0.640786 q 0.375515,0 0.596001,0.0551 0.222208,0.0534 0.375514,0.14814 0.261827,0.16364 0.408243,0.4358 0.146416,0.27216 0.146416,0.64596 z m -0.356566,-0.005 q 0,-0.30145 -0.105075,-0.50815 -0.105076,-0.20671 -0.313503,-0.32556 -0.151584,-0.0861 -0.322116,-0.11886 -0.170532,-0.0344 -0.408243,-0.0344 h -0.320393 v 1.9792 h 0.320393 q 0.246324,0 0.428913,-0.0362 0.184313,-0.0362 0.337619,-0.13436 0.191202,-0.1223 0.285942,-0.32211 0.09646,-0.19982 0.09646,-0.49954 z m 1.812116,1.28502 h -1.012856 v -0.26183 h 0.335896 v -2.04121 h -0.335896 v -0.26183 h 1.012856 v 0.26183 h -0.335896 v 2.04121 h 0.335896 z m 2.44429,-0.73208 q 0,0.14986 -0.07062,0.29627 -0.0689,0.14642 -0.194648,0.24805 -0.137803,0.11024 -0.322115,0.17225 -0.18259,0.062 -0.440972,0.062 -0.277329,0 -0.499537,-0.0517 -0.220486,-0.0517 -0.449584,-0.15331 v -0.42719 h 0.02412 q 0.194647,0.16192 0.449584,0.24977 0.254936,0.0879 0.478867,0.0879 0.316948,0 0.492647,-0.11885 0.177422,-0.11886 0.177422,-0.31695 0,-0.17053 -0.0844,-0.25149 -0.08268,-0.081 -0.253214,-0.12575 -0.12919,-0.0344 -0.280774,-0.0568 -0.149862,-0.0224 -0.318671,-0.0568 -0.341064,-0.0723 -0.506428,-0.24632 -0.163641,-0.1757 -0.163641,-0.45648 0,-0.32211 0.272161,-0.52709 0.272162,-0.20671 0.690741,-0.20671 0.270439,0 0.496092,0.0517 0.225654,0.0517 0.39963,0.12746 v 0.40308 h -0.02412 q -0.146417,-0.12402 -0.38585,-0.20498 -0.237711,-0.0827 -0.48748,-0.0827 -0.273885,0 -0.440971,0.11368 -0.165365,0.11369 -0.165365,0.29284 0,0.16019 0.08268,0.25149 0.08268,0.0913 0.29111,0.13952 0.110243,0.0241 0.313503,0.0586 0.20326,0.0345 0.344509,0.0706 0.285942,0.0758 0.430636,0.2291 0.144694,0.15331 0.144694,0.42892 z m 2.3771107,-1.52962 H 9.7080509 v 2.2617 H 9.3669873 v -2.2617 h -0.916393 v -0.30317 h 2.1738507 z m 2.466683,2.2617 h -0.442693 l -0.857827,-1.01975 h -0.48059 v 1.01975 h -0.341064 v -2.56487 h 0.718301 q 0.232543,0 0.387572,0.031 0.155029,0.0293 0.279053,0.1068 0.139526,0.0879 0.21704,0.22221 0.07924,0.13264 0.07924,0.33762 0,0.27733 -0.139526,0.46509 -0.139526,0.18603 -0.384127,0.28077 z m -0.797537,-1.84313 q 0,-0.11024 -0.03962,-0.19464 -0.0379,-0.0861 -0.127468,-0.1447 -0.07407,-0.0499 -0.1757,-0.0689 -0.10163,-0.0207 -0.239433,-0.0207 h -0.401353 v 0.96807 h 0.344509 q 0.161919,0 0.282497,-0.0276 0.120578,-0.0293 0.204983,-0.1068 0.07751,-0.0723 0.113688,-0.16536 0.0379,-0.0947 0.0379,-0.23944 z m 2.032601,1.84313 h -1.012856 v -0.26183 h 0.335896 v -2.04121 h -0.335896 v -0.26183 h 1.012856 v 0.26183 h -0.335896 v 2.04121 h 0.335896 z m 2.514914,-0.78893 q 0,0.1912 -0.07235,0.33762 -0.07235,0.14642 -0.194648,0.24116 -0.144693,0.11368 -0.31867,0.16192 -0.172255,0.0482 -0.439249,0.0482 h -0.909503 v -2.56487 h 0.759642 q 0.280774,0 0.4203,0.0207 0.139526,0.0207 0.266995,0.0861 0.141248,0.0741 0.204982,0.1912 0.06373,0.11541 0.06373,0.27733 0,0.18259 -0.09302,0.31178 -0.09302,0.12747 -0.248046,0.20498 v 0.0138 q 0.260104,0.0534 0.409965,0.2291 0.149862,0.17398 0.149862,0.44097 z M 16.267499,218.406 q 0,-0.093 -0.03101,-0.15675 -0.03101,-0.0637 -0.09991,-0.10335 -0.08096,-0.0465 -0.19637,-0.0568 -0.11541,-0.0121 -0.285942,-0.0121 h -0.40652 v 0.74069 h 0.440971 q 0.160196,0 0.254936,-0.0155 0.09474,-0.0172 0.1757,-0.0689 0.08096,-0.0517 0.113688,-0.13264 0.03445,-0.0827 0.03445,-0.19465 z m 0.218763,1.16961 q 0,-0.15503 -0.04651,-0.24632 -0.04651,-0.0913 -0.168809,-0.15503 -0.08268,-0.0431 -0.201538,-0.0551 -0.117133,-0.0138 -0.285942,-0.0138 h -0.535711 v 0.95429 h 0.451306 q 0.223931,0 0.366902,-0.0224 0.142971,-0.0241 0.234266,-0.0861 0.09646,-0.0672 0.141248,-0.15331 0.04479,-0.0861 0.04479,-0.22221 z m 2.769851,-0.25493 q 0,0.27905 -0.06201,0.48748 -0.06029,0.2067 -0.199815,0.3445 -0.132636,0.13092 -0.310058,0.19121 -0.177422,0.0603 -0.41341,0.0603 -0.241156,0 -0.420301,-0.0637 -0.179145,-0.0637 -0.301445,-0.18776 -0.139526,-0.14124 -0.201538,-0.34106 -0.06029,-0.19981 -0.06029,-0.49092 v -1.53479 h 0.341064 v 1.55201 q 0,0.20843 0.02756,0.32901 0.02928,0.12058 0.09646,0.21876 0.07579,0.11197 0.204983,0.16881 0.130913,0.0568 0.313503,0.0568 0.184312,0 0.313503,-0.0551 0.129191,-0.0568 0.206705,-0.17053 0.06718,-0.0982 0.09474,-0.22393 0.02928,-0.12747 0.02928,-0.31523 v -1.56062 h 0.341064 z m 2.480463,-1.23162 h -0.916393 v 2.2617 h -0.341064 v -2.2617 h -0.916393 v -0.30317 h 2.17385 z m 1.248845,2.2617 h -1.012856 v -0.26183 h 0.335896 v -2.04121 h -0.335896 v -0.26183 h 1.012856 v 0.26183 h -0.335896 v 2.04121 h 0.335896 z m 2.492521,-2.27032 q 0.156751,0.17226 0.239434,0.42203 0.0844,0.24977 0.0844,0.56671 0,0.31695 -0.08613,0.56844 -0.08441,0.24977 -0.237711,0.41686 -0.158474,0.17398 -0.375515,0.26183 -0.215318,0.0879 -0.492647,0.0879 -0.27044,0 -0.492648,-0.0896 -0.220485,-0.0896 -0.375514,-0.2601 -0.155029,-0.17053 -0.239434,-0.41858 -0.08268,-0.24805 -0.08268,-0.56672 0,-0.3135 0.08268,-0.56155 0.08268,-0.24976 0.241156,-0.42719 0.151584,-0.16881 0.375515,-0.25838 0.225653,-0.0896 0.490925,-0.0896 0.275607,0 0.49437,0.0913 0.220485,0.0896 0.373792,0.25666 z m -0.03101,0.98874 q 0,-0.49953 -0.223931,-0.76997 -0.22393,-0.27216 -0.611503,-0.27216 -0.391017,0 -0.614948,0.27216 -0.222208,0.27044 -0.222208,0.76997 0,0.50471 0.227376,0.77343 0.227376,0.26699 0.60978,0.26699 0.382405,0 0.608058,-0.26699 0.227376,-0.26872 0.227376,-0.77343 z m 2.852533,1.28158 h -0.422023 l -1.216116,-2.29443 v 2.29443 h -0.318671 v -2.56487 h 0.528821 l 1.109318,2.09461 v -2.09461 h 0.318671 z"
       id="text3"
       style="font-size:3.52777px;line-height:1.25;word-spacing:0px;stroke-width:0.264583"
       aria-label="DISTRIBUTION" />
    <g
       id="text6"
       style="font-size:3.52777px;line-height:1.25;text-align:center;word-spacing:0px;text-anchor:middle;stroke-width:0.264583"
       aria-label="CURRENT&#10;SQUARE"
       transform="translate(0.317)">
      <path
         d="m 4.3103418,229.24568 q -0.09474,0.0413 -0.1722544,0.0775 -0.075792,0.0362 -0.1998151,0.0758 -0.1050752,0.0327 -0.2290983,0.0551 -0.1223007,0.0241 -0.2704394,0.0241 -0.2790522,0 -0.5081505,-0.0775 Q 2.7032083,229.32147 2.534399,229.15439 2.3690348,228.99075 2.2760174,228.73925 2.183,228.48604 2.183,228.15187 q 0,-0.31695 0.089572,-0.56672 0.089572,-0.24977 0.2583816,-0.42202 0.1636417,-0.16709 0.3944626,-0.25494 0.2325434,-0.0879 0.5150406,-0.0879 0.2067053,0 0.411688,0.05 0.2067053,0.05 0.4581967,0.1757 v 0.4048 h -0.025838 q -0.2118729,-0.17742 -0.4203007,-0.25838 -0.2084278,-0.081 -0.4461389,-0.081 -0.1946474,0 -0.3513989,0.0637 -0.155029,0.062 -0.2773296,0.19465 -0.1188556,0.12919 -0.1860348,0.32729 -0.065457,0.19637 -0.065457,0.45475 0,0.27044 0.072347,0.46508 0.074069,0.19465 0.1894798,0.31695 0.1205781,0.12747 0.2807747,0.18948 0.1619191,0.0603 0.3410637,0.0603 0.2463238,0 0.4616418,-0.0844 0.215318,-0.0844 0.4030753,-0.25322 h 0.024116 z m 2.413284,-0.84404 q 0,0.27905 -0.062012,0.48748 -0.060289,0.2067 -0.1998151,0.3445 -0.1326359,0.13092 -0.3100579,0.19121 -0.177422,0.0603 -0.4134106,0.0603 -0.2411561,0 -0.4203007,-0.0637 -0.1791446,-0.0637 -0.3014452,-0.18776 -0.139526,-0.14124 -0.2015376,-0.34106 -0.060289,-0.19981 -0.060289,-0.49092 v -1.53479 h 0.3410637 v 1.55201 q 0,0.20843 0.027561,0.32901 0.029283,0.12058 0.096463,0.21876 0.075792,0.11197 0.2049827,0.16881 0.1309134,0.0568 0.313503,0.0568 0.1843122,0 0.313503,-0.0551 0.1291908,-0.0568 0.2067053,-0.17053 0.067179,-0.0982 0.09474,-0.22393 0.029283,-0.12747 0.029283,-0.31523 v -1.56062 h 0.3410637 z m 2.7732956,1.03008 H 9.0542276 L 8.1964007,228.41197 H 7.715811 v 1.01975 H 7.3747472 v -2.56487 h 0.7183009 q 0.2325434,0 0.3875724,0.031 0.1550289,0.0293 0.2790521,0.1068 0.1395261,0.0879 0.2170405,0.22221 0.079237,0.13264 0.079237,0.33762 0,0.27733 -0.1395261,0.46509 -0.1395261,0.18603 -0.3841273,0.28077 z m -0.7975378,-1.84313 q 0,-0.11024 -0.039619,-0.19464 -0.037896,-0.0861 -0.1274682,-0.1447 -0.074069,-0.0499 -0.1756995,-0.0689 -0.1016301,-0.0207 -0.2394336,-0.0207 H 7.715811 v 0.96807 h 0.3445087 q 0.1619192,0 0.2824973,-0.0276 0.120578,-0.0293 0.2049827,-0.1068 0.077514,-0.0723 0.1136879,-0.16536 0.037896,-0.0947 0.037896,-0.23944 z m 3.2504404,1.84313 H 11.50713 l -0.857826,-1.01975 h -0.48059 v 1.01975 H 9.82765 v -2.56487 h 0.718301 q 0.232543,0 0.387572,0.031 0.155029,0.0293 0.279052,0.1068 0.139526,0.0879 0.217041,0.22221 0.07924,0.13264 0.07924,0.33762 0,0.27733 -0.139526,0.46509 -0.139526,0.18603 -0.384127,0.28077 z m -0.797538,-1.84313 q 0,-0.11024 -0.03962,-0.19464 -0.0379,-0.0861 -0.127468,-0.1447 -0.07407,-0.0499 -0.1757,-0.0689 -0.10163,-0.0207 -0.239434,-0.0207 h -0.401352 v 0.96807 h 0.344509 q 0.161919,0 0.282497,-0.0276 0.120578,-0.0293 0.204982,-0.1068 0.07752,-0.0723 0.113688,-0.16536 0.0379,-0.0947 0.0379,-0.23944 z m 2.818082,1.84313 h -1.689815 v -2.56487 h 1.689815 v 0.30317 h -1.348751 v 0.70279 h 1.348751 v 0.30317 h -1.348751 v 0.95257 h 1.348751 z m 2.49769,0 h -0.422024 l -1.216116,-2.29443 v 2.29443 h -0.31867 v -2.56487 h 0.528821 l 1.109318,2.09461 v -2.09461 h 0.318671 z m 2.511468,-2.2617 h -0.916393 v 2.2617 h -0.341064 v -2.2617 h -0.916393 v -0.30317 h 2.17385 z"
         id="path13" />
      <path
         d="m 5.2663537,233.10935 q 0,0.14986 -0.070624,0.29628 -0.068902,0.14641 -0.1946475,0.24804 -0.1378035,0.11024 -0.3221157,0.17226 -0.1825896,0.062 -0.4409712,0.062 -0.2773296,0 -0.4995378,-0.0517 -0.2204856,-0.0517 -0.449584,-0.1533 v -0.4272 h 0.024116 q 0.1946475,0.16192 0.449584,0.24977 0.2549365,0.0879 0.4788672,0.0879 0.3169481,0 0.4926476,-0.11885 0.177422,-0.11886 0.177422,-0.31695 0,-0.17053 -0.084405,-0.25149 -0.082682,-0.081 -0.253214,-0.12575 -0.1291908,-0.0344 -0.2807746,-0.0568 -0.1498614,-0.0224 -0.3186707,-0.0568 -0.3410637,-0.0723 -0.5064279,-0.24632 -0.1636417,-0.1757 -0.1636417,-0.45647 0,-0.32212 0.272162,-0.5271 0.2721619,-0.20671 0.6907401,-0.20671 0.2704394,0 0.4960927,0.0517 0.2256532,0.0517 0.3996302,0.12747 v 0.40307 h -0.024116 q -0.1464163,-0.12402 -0.3858499,-0.20498 -0.2377111,-0.0827 -0.4874799,-0.0827 -0.2738845,0 -0.4409713,0.11369 -0.1653642,0.11368 -0.1653642,0.29283 0,0.16019 0.082682,0.25149 0.082682,0.0913 0.2911099,0.13953 0.1102428,0.0241 0.313503,0.0586 0.2032602,0.0344 0.3445088,0.0706 0.2859423,0.0758 0.430636,0.22909 0.1446937,0.15331 0.1446937,0.42892 z m 2.8353073,1.36081 q -0.1033526,0.0258 -0.2049827,0.0362 -0.099908,0.0121 -0.2049828,0.0121 -0.2997226,0 -0.4823123,-0.16536 -0.1808671,-0.16365 -0.19637,-0.47026 -0.041341,0.007 -0.080959,0.009 -0.037896,0.003 -0.074069,0.003 -0.2704394,0 -0.4926476,-0.0896 -0.2204856,-0.0896 -0.3755146,-0.26011 -0.1550289,-0.17053 -0.2394336,-0.41858 -0.082682,-0.24804 -0.082682,-0.56671 0,-0.31351 0.082682,-0.56155 0.082682,-0.24977 0.2411562,-0.42719 0.1515838,-0.16881 0.3755145,-0.25839 0.2256533,-0.0896 0.4909251,-0.0896 0.275607,0 0.4943701,0.0913 0.2204856,0.0896 0.373792,0.25666 0.1567515,0.17225 0.2394336,0.42202 0.084405,0.24977 0.084405,0.56672 0,0.47025 -0.1929249,0.79237 -0.1912024,0.32211 -0.5150407,0.4513 0.00689,0.19637 0.093017,0.30489 0.086127,0.10852 0.313503,0.10852 0.070624,0 0.1670868,-0.0224 0.098185,-0.0207 0.139526,-0.0379 h 0.046509 z m -0.4065204,-1.9103 q 0,-0.49954 -0.2239307,-0.76998 -0.2239307,-0.27216 -0.6115031,-0.27216 -0.3910175,0 -0.6149482,0.27216 -0.2222082,0.27044 -0.2222082,0.76998 0,0.5047 0.2273758,0.77342 0.2273759,0.26699 0.6097806,0.26699 0.3824048,0 0.608058,-0.26699 0.2273758,-0.26872 0.2273758,-0.77342 z m 2.8266944,0.25149 q 0,0.27905 -0.06201,0.48748 -0.06029,0.2067 -0.199815,0.34451 -0.132636,0.13091 -0.3100576,0.1912 -0.1774221,0.0603 -0.4134106,0.0603 -0.2411561,0 -0.4203007,-0.0637 -0.1791446,-0.0637 -0.3014452,-0.18775 -0.1395261,-0.14125 -0.2015377,-0.34107 -0.060289,-0.19981 -0.060289,-0.49092 v -1.53479 h 0.3410637 v 1.55201 q 0,0.20843 0.027561,0.32901 0.029283,0.12058 0.096463,0.21876 0.075792,0.11197 0.2049827,0.16881 0.1309134,0.0568 0.313503,0.0568 0.1843122,0 0.313503,-0.0551 0.1291908,-0.0568 0.2067054,-0.17053 0.06718,-0.0982 0.09474,-0.22393 0.02928,-0.12747 0.02928,-0.31522 v -1.56063 h 0.341064 z m 2.656163,1.03008 h -0.363457 l -0.251491,-0.71486 h -1.109319 l -0.251491,0.71486 h -0.346232 l 0.933619,-2.56487 h 0.454752 z m -0.720024,-1.00769 -0.449584,-1.25918 -0.451306,1.25918 z m 3.231493,1.00769 h -0.442694 l -0.857826,-1.01975 h -0.48059 v 1.01975 h -0.341064 v -2.56487 h 0.718301 q 0.232543,0 0.387572,0.031 0.155029,0.0293 0.279052,0.1068 0.139527,0.0878 0.217041,0.2222 0.07924,0.13264 0.07924,0.33762 0,0.27733 -0.139526,0.46509 -0.139526,0.18603 -0.384127,0.28077 z m -0.797538,-1.84312 q 0,-0.11025 -0.03962,-0.19465 -0.0379,-0.0861 -0.127468,-0.14469 -0.07407,-0.05 -0.1757,-0.0689 -0.10163,-0.0207 -0.239433,-0.0207 h -0.401353 v 0.96807 h 0.344509 q 0.161919,0 0.282497,-0.0276 0.120578,-0.0293 0.204983,-0.10679 0.07751,-0.0724 0.113687,-0.16537 0.0379,-0.0947 0.0379,-0.23943 z m 2.818082,1.84312 h -1.689816 v -2.56487 h 1.689816 v 0.30317 h -1.348752 v 0.7028 h 1.348752 v 0.30316 h -1.348752 v 0.95257 h 1.348752 z"
         id="path14" />
    </g>
    <g
       id="text8"
       style="font-size:3.52777px;line-height:1.25;text-align:center;word-spacing:0px;text-anchor:middle;stroke-width:0.264583"
       aria-label="CURRENT&#10;OUTPUT"
       transform="translate(71.249583,32.556253)">
      <path
         d="m -66.622238,210.59598 q -0.09474,0.0413 -0.172255,0.0775 -0.07579,0.0362 -0.199815,0.0758 -0.105075,0.0327 -0.229098,0.0551 -0.122301,0.0241 -0.270439,0.0241 -0.279053,0 -0.508151,-0.0775 -0.227376,-0.0792 -0.396185,-0.24633 -0.165364,-0.16364 -0.258382,-0.41513 -0.09302,-0.25321 -0.09302,-0.58739 0,-0.31695 0.08957,-0.56671 0.08957,-0.24977 0.258382,-0.42203 0.163642,-0.16708 0.394462,-0.25493 0.232544,-0.0879 0.515041,-0.0879 0.206705,0 0.411688,0.0499 0.206705,0.05 0.458197,0.1757 v 0.4048 h -0.02584 q -0.211873,-0.17742 -0.420301,-0.25838 -0.208428,-0.081 -0.446139,-0.081 -0.194647,0 -0.351399,0.0637 -0.155029,0.062 -0.27733,0.19465 -0.118855,0.12919 -0.186034,0.32728 -0.06546,0.19637 -0.06546,0.45475 0,0.27044 0.07235,0.46509 0.07407,0.19465 0.18948,0.31695 0.120578,0.12747 0.280774,0.18948 0.16192,0.0603 0.341064,0.0603 0.246324,0 0.461642,-0.0844 0.215318,-0.0844 0.403075,-0.25321 h 0.02412 z m 2.413284,-0.84405 q 0,0.27905 -0.06201,0.48748 -0.06029,0.20671 -0.199815,0.34451 -0.132636,0.13091 -0.310058,0.1912 -0.177422,0.0603 -0.41341,0.0603 -0.241157,0 -0.420301,-0.0637 -0.179145,-0.0637 -0.301445,-0.18776 -0.139526,-0.14125 -0.201538,-0.34106 -0.06029,-0.19982 -0.06029,-0.49093 v -1.53479 h 0.341064 v 1.55202 q 0,0.20842 0.02756,0.329 0.02928,0.12058 0.09646,0.21877 0.07579,0.11196 0.204983,0.16881 0.130913,0.0568 0.313503,0.0568 0.184312,0 0.313503,-0.0551 0.12919,-0.0568 0.206705,-0.17053 0.06718,-0.0982 0.09474,-0.22393 0.02928,-0.12747 0.02928,-0.31523 v -1.56063 h 0.341064 z m 2.773295,1.03008 h -0.442693 l -0.857827,-1.01974 h -0.48059 v 1.01974 h -0.341064 v -2.56487 h 0.718301 q 0.232544,0 0.387572,0.031 0.155029,0.0293 0.279053,0.1068 0.139526,0.0879 0.21704,0.22221 0.07924,0.13263 0.07924,0.33762 0,0.27732 -0.139526,0.46508 -0.139526,0.18604 -0.384127,0.28078 z m -0.797537,-1.84312 q 0,-0.11024 -0.03962,-0.19465 -0.0379,-0.0861 -0.127468,-0.14469 -0.07407,-0.0499 -0.1757,-0.0689 -0.10163,-0.0207 -0.239433,-0.0207 h -0.401353 v 0.96807 h 0.344509 q 0.161919,0 0.282497,-0.0276 0.120578,-0.0293 0.204983,-0.1068 0.07751,-0.0724 0.113688,-0.16537 0.0379,-0.0947 0.0379,-0.23943 z m 3.25044,1.84312 h -0.442694 l -0.857826,-1.01974 h -0.48059 v 1.01974 h -0.341064 v -2.56487 h 0.718301 q 0.232543,0 0.387572,0.031 0.155029,0.0293 0.279052,0.1068 0.139526,0.0879 0.217041,0.22221 0.07924,0.13263 0.07924,0.33762 0,0.27732 -0.139526,0.46508 -0.139526,0.18604 -0.384127,0.28078 z m -0.797538,-1.84312 q 0,-0.11024 -0.03962,-0.19465 -0.0379,-0.0861 -0.127468,-0.14469 -0.07407,-0.0499 -0.1757,-0.0689 -0.10163,-0.0207 -0.239434,-0.0207 h -0.401352 v 0.96807 h 0.344509 q 0.161919,0 0.282497,-0.0276 0.120578,-0.0293 0.204982,-0.1068 0.07751,-0.0724 0.113688,-0.16537 0.0379,-0.0947 0.0379,-0.23943 z m 2.818082,1.84312 h -1.689815 v -2.56487 h 1.689815 v 0.30317 h -1.348751 v 0.7028 h 1.348751 v 0.30317 h -1.348751 v 0.95257 h 1.348751 z m 2.49769,0 h -0.422024 l -1.216116,-2.29443 v 2.29443 h -0.31867 v -2.56487 h 0.528821 l 1.109318,2.09462 v -2.09462 h 0.318671 z m 2.511468,-2.2617 h -0.916393 v 2.2617 h -0.341064 v -2.2617 h -0.916393 v -0.30317 h 2.17385 z"
         id="path15" />
      <path
         d="m -65.401816,212.92141 q 0.156752,0.17226 0.239434,0.42203 0.0844,0.24976 0.0844,0.56671 0,0.31695 -0.08613,0.56844 -0.0844,0.24977 -0.237711,0.41686 -0.158474,0.17397 -0.375514,0.26182 -0.215318,0.0878 -0.492648,0.0878 -0.270439,0 -0.492648,-0.0896 -0.220485,-0.0896 -0.375514,-0.2601 -0.155029,-0.17053 -0.239434,-0.41858 -0.08268,-0.24805 -0.08268,-0.56672 0,-0.3135 0.08268,-0.56155 0.08268,-0.24977 0.241156,-0.42719 0.151584,-0.16881 0.375515,-0.25838 0.225653,-0.0896 0.490925,-0.0896 0.275607,0 0.49437,0.0913 0.220486,0.0896 0.373792,0.25666 z m -0.03101,0.98874 q 0,-0.49953 -0.22393,-0.76997 -0.223931,-0.27217 -0.611503,-0.27217 -0.391018,0 -0.614949,0.27217 -0.222208,0.27044 -0.222208,0.76997 0,0.50471 0.227376,0.77343 0.227376,0.26699 0.609781,0.26699 0.382404,0 0.608058,-0.26699 0.227375,-0.26872 0.227375,-0.77343 z m 2.826695,0.25149 q 0,0.27906 -0.06201,0.48748 -0.06029,0.20671 -0.199815,0.34451 -0.132636,0.13092 -0.310058,0.19121 -0.177422,0.0603 -0.41341,0.0603 -0.241156,0 -0.420301,-0.0637 -0.179144,-0.0637 -0.301445,-0.18776 -0.139526,-0.14125 -0.201538,-0.34106 -0.06029,-0.19982 -0.06029,-0.49093 v -1.53478 h 0.341064 v 1.55201 q 0,0.20843 0.02756,0.32901 0.02928,0.12057 0.09646,0.21876 0.07579,0.11196 0.204983,0.16881 0.130913,0.0568 0.313503,0.0568 0.184312,0 0.313503,-0.0551 0.129191,-0.0568 0.206705,-0.17053 0.06718,-0.0982 0.09474,-0.22393 0.02928,-0.12747 0.02928,-0.31523 v -1.56062 h 0.341064 z m 2.480463,-1.23161 h -0.916393 v 2.2617 h -0.341064 v -2.2617 h -0.916393 v -0.30317 h 2.17385 z m 2.022267,0.47197 q 0,0.17053 -0.06029,0.31695 -0.05857,0.14469 -0.165364,0.25149 -0.132636,0.13264 -0.313503,0.19982 -0.180867,0.0654 -0.456474,0.0654 h -0.341064 v 0.95602 h -0.341064 v -2.56487 h 0.695908 q 0.230821,0 0.391017,0.0396 0.160197,0.0379 0.28422,0.12057 0.146416,0.0982 0.225653,0.24461 0.08096,0.14641 0.08096,0.37034 z m -0.354844,0.009 q 0,-0.13264 -0.04651,-0.23083 -0.04651,-0.0982 -0.141248,-0.16019 -0.08268,-0.0534 -0.18948,-0.0758 -0.105075,-0.0241 -0.266994,-0.0241 h -0.337619 v 1.02491 h 0.287665 q 0.206705,0 0.335896,-0.0362 0.129191,-0.0379 0.21015,-0.11886 0.08096,-0.0827 0.113688,-0.17397 0.03445,-0.0913 0.03445,-0.20498 z m 2.7354,0.75102 q 0,0.27906 -0.06201,0.48748 -0.06029,0.20671 -0.199815,0.34451 -0.132636,0.13092 -0.310058,0.19121 -0.177422,0.0603 -0.41341,0.0603 -0.241157,0 -0.420301,-0.0637 -0.179145,-0.0637 -0.301445,-0.18776 -0.139526,-0.14125 -0.201538,-0.34106 -0.06029,-0.19982 -0.06029,-0.49093 v -1.53478 h 0.341064 v 1.55201 q 0,0.20843 0.02756,0.32901 0.02928,0.12057 0.09646,0.21876 0.07579,0.11196 0.204983,0.16881 0.130913,0.0568 0.313503,0.0568 0.184312,0 0.313503,-0.0551 0.12919,-0.0568 0.206705,-0.17053 0.06718,-0.0982 0.09474,-0.22393 0.02928,-0.12747 0.02928,-0.31523 v -1.56062 h 0.341064 z m 2.480463,-1.23161 h -0.916394 v 2.2617 h -0.341063 v -2.2617 h -0.916394 v -0.30317 h 2.173851 z"
         id="path16" />
    </g>
    <g
       id="text10"
       style="font-size:3.52777px;line-height:1.25;text-align:center;word-spacing:0px;text-anchor:middle;stroke-width:0.264583"
       aria-label="ALL&#10;SQUARES"
       transform="translate(52.33123,2.5987827)">
      <path
         d="m -42.249456,253.9995 h -0.363457 l -0.251491,-0.71486 h -1.109319 l -0.251491,0.71486 h -0.346231 l 0.933618,-2.56487 h 0.454752 z m -0.720024,-1.00769 -0.449583,-1.25918 -0.451307,1.25918 z m 2.731955,1.00769 h -1.622636 v -2.56487 h 0.341063 v 2.2617 h 1.281573 z m 1.9637,0 h -1.622636 v -2.56487 h 0.341064 v 2.2617 h 1.281572 z"
         id="path17" />
      <path
         d="m -47.868395,257.67713 q 0,0.14986 -0.07062,0.29628 -0.0689,0.14641 -0.194647,0.24804 -0.137804,0.11024 -0.322116,0.17226 -0.18259,0.062 -0.440971,0.062 -0.27733,0 -0.499538,-0.0517 -0.220486,-0.0517 -0.449584,-0.15331 v -0.42719 h 0.02412 q 0.194647,0.16192 0.449584,0.24977 0.254936,0.0879 0.478867,0.0879 0.316948,0 0.492647,-0.11885 0.177422,-0.11886 0.177422,-0.31695 0,-0.17053 -0.0844,-0.25149 -0.08268,-0.081 -0.253214,-0.12575 -0.129191,-0.0344 -0.280775,-0.0568 -0.149861,-0.0224 -0.318671,-0.0568 -0.341063,-0.0723 -0.506427,-0.24632 -0.163642,-0.1757 -0.163642,-0.45647 0,-0.32212 0.272162,-0.5271 0.272162,-0.20671 0.69074,-0.20671 0.270439,0 0.496093,0.0517 0.225653,0.0517 0.39963,0.12747 v 0.40307 h -0.02412 q -0.146416,-0.12402 -0.38585,-0.20498 -0.237711,-0.0827 -0.48748,-0.0827 -0.273884,0 -0.440971,0.11369 -0.165364,0.11368 -0.165364,0.29283 0,0.16019 0.08268,0.25149 0.08268,0.0913 0.29111,0.13953 0.110243,0.0241 0.313503,0.0586 0.20326,0.0344 0.344509,0.0706 0.285942,0.0758 0.430636,0.22909 0.144693,0.15331 0.144693,0.42892 z m 2.835308,1.36081 q -0.103353,0.0258 -0.204983,0.0362 -0.09991,0.0121 -0.204983,0.0121 -0.299722,0 -0.482312,-0.16537 -0.180867,-0.16364 -0.19637,-0.47025 -0.04134,0.007 -0.08096,0.009 -0.0379,0.003 -0.07407,0.003 -0.270439,0 -0.492648,-0.0896 -0.220485,-0.0896 -0.375514,-0.26011 -0.155029,-0.17053 -0.239434,-0.41858 -0.08268,-0.24804 -0.08268,-0.56671 0,-0.31351 0.08268,-0.56155 0.08268,-0.24977 0.241156,-0.42719 0.151584,-0.16881 0.375515,-0.25839 0.225653,-0.0896 0.490925,-0.0896 0.275607,0 0.49437,0.0913 0.220486,0.0896 0.373792,0.25666 0.156752,0.17225 0.239434,0.42202 0.0844,0.24977 0.0844,0.56672 0,0.47025 -0.192924,0.79237 -0.191203,0.32211 -0.515041,0.4513 0.0069,0.19637 0.09302,0.30489 0.08613,0.10852 0.313503,0.10852 0.07062,0 0.167087,-0.0224 0.09819,-0.0207 0.139526,-0.0379 h 0.04651 z m -0.406521,-1.9103 q 0,-0.49954 -0.22393,-0.76998 -0.223931,-0.27216 -0.611503,-0.27216 -0.391018,0 -0.614949,0.27216 -0.222208,0.27044 -0.222208,0.76998 0,0.5047 0.227376,0.77342 0.227376,0.26699 0.609781,0.26699 0.382404,0 0.608058,-0.26699 0.227375,-0.26872 0.227375,-0.77342 z m 2.826695,0.25149 q 0,0.27905 -0.06201,0.48748 -0.06029,0.2067 -0.199815,0.34451 -0.132636,0.13091 -0.310058,0.1912 -0.177422,0.0603 -0.41341,0.0603 -0.241157,0 -0.420301,-0.0637 -0.179145,-0.0637 -0.301445,-0.18775 -0.139526,-0.14125 -0.201538,-0.34107 -0.06029,-0.19981 -0.06029,-0.49092 v -1.53479 h 0.341064 v 1.55201 q 0,0.20843 0.02756,0.32901 0.02928,0.12058 0.09646,0.21876 0.07579,0.11197 0.204983,0.16881 0.130913,0.0568 0.313503,0.0568 0.184312,0 0.313503,-0.0551 0.12919,-0.0568 0.206705,-0.17053 0.06718,-0.0982 0.09474,-0.22393 0.02928,-0.12747 0.02928,-0.31522 v -1.56063 h 0.341064 z m 2.656163,1.03008 h -0.363457 l -0.251492,-0.71486 h -1.109318 l -0.251491,0.71486 h -0.346232 l 0.933619,-2.56487 h 0.454752 z m -0.720024,-1.00769 -0.449584,-1.25918 -0.451306,1.25918 z m 3.231493,1.00769 h -0.442694 l -0.857827,-1.01975 h -0.480589 v 1.01975 h -0.341064 v -2.56487 h 0.718301 q 0.232543,0 0.387572,0.031 0.155029,0.0293 0.279052,0.10679 0.139526,0.0879 0.217041,0.22221 0.07924,0.13264 0.07924,0.33762 0,0.27733 -0.139526,0.46509 -0.139526,0.18603 -0.384128,0.28077 z m -0.797538,-1.84312 q 0,-0.11025 -0.03962,-0.19465 -0.0379,-0.0861 -0.127469,-0.14469 -0.07407,-0.05 -0.175699,-0.0689 -0.10163,-0.0207 -0.239434,-0.0207 h -0.401352 v 0.96807 h 0.344508 q 0.161919,0 0.282498,-0.0276 0.120578,-0.0293 0.204982,-0.1068 0.07751,-0.0723 0.113688,-0.16536 0.0379,-0.0947 0.0379,-0.23943 z m 2.818081,1.84312 h -1.689815 v -2.56487 h 1.689815 v 0.30317 h -1.348752 v 0.7028 h 1.348752 v 0.30316 h -1.348752 v 0.95257 h 1.348752 z m 2.404672,-0.73208 q 0,0.14986 -0.07062,0.29628 -0.0689,0.14641 -0.194648,0.24804 -0.137803,0.11024 -0.322115,0.17226 -0.18259,0.062 -0.440972,0.062 -0.277329,0 -0.499537,-0.0517 -0.220486,-0.0517 -0.449584,-0.15331 v -0.42719 h 0.02412 q 0.194648,0.16192 0.449584,0.24977 0.254937,0.0879 0.478867,0.0879 0.316948,0 0.492648,-0.11885 0.177422,-0.11886 0.177422,-0.31695 0,-0.17053 -0.0844,-0.25149 -0.08268,-0.081 -0.253214,-0.12575 -0.12919,-0.0344 -0.280774,-0.0568 -0.149862,-0.0224 -0.318671,-0.0568 -0.341064,-0.0723 -0.506428,-0.24632 -0.163642,-0.1757 -0.163642,-0.45647 0,-0.32212 0.272162,-0.5271 0.272162,-0.20671 0.690741,-0.20671 0.270439,0 0.496092,0.0517 0.225653,0.0517 0.39963,0.12747 v 0.40307 h -0.02412 q -0.146416,-0.12402 -0.38585,-0.20498 -0.237711,-0.0827 -0.48748,-0.0827 -0.273884,0 -0.440971,0.11369 -0.165364,0.11368 -0.165364,0.29283 0,0.16019 0.08268,0.25149 0.08268,0.0913 0.29111,0.13953 0.110242,0.0241 0.313503,0.0586 0.20326,0.0344 0.344508,0.0706 0.285943,0.0758 0.430636,0.22909 0.144694,0.15331 0.144694,0.42892 z"
         id="path18" />
    </g>
    <g
       id="text11"
       style="font-size:3.52777px;line-height:1.25;text-align:center;word-spacing:0px;text-anchor:middle;stroke-width:0.264583"
       aria-label="ALL&#10;POSITIONS"
       transform="translate(44.587217,0.60277023)">
      <path
         d="m -34.562277,269.90204 h -0.363456 l -0.251492,-0.71486 h -1.109318 l -0.251491,0.71486 h -0.346232 l 0.933619,-2.56487 h 0.454752 z m -0.720023,-1.00769 -0.449584,-1.25918 -0.451306,1.25918 z m 2.731955,1.00769 h -1.622637 v -2.56487 h 0.341064 v 2.2617 h 1.281573 z m 1.9637,0 h -1.622636 v -2.56487 h 0.341063 v 2.2617 h 1.281573 z"
         id="path19" />
      <path
         d="m -41.880505,272.52203 q 0,0.17053 -0.06029,0.31695 -0.05857,0.14469 -0.165364,0.25149 -0.132636,0.13263 -0.313503,0.19981 -0.180867,0.0655 -0.456474,0.0655 H -43.2172 v 0.95601 h -0.341063 v -2.56487 h 0.695907 q 0.230821,0 0.391018,0.0396 0.160196,0.0379 0.28422,0.12058 0.146416,0.0982 0.225653,0.2446 0.08096,0.14642 0.08096,0.37035 z m -0.354844,0.009 q 0,-0.13264 -0.04651,-0.23082 -0.04651,-0.0982 -0.141249,-0.1602 -0.08268,-0.0534 -0.18948,-0.0758 -0.105075,-0.0241 -0.266994,-0.0241 h -0.337619 v 1.02491 h 0.287665 q 0.206705,0 0.335896,-0.0362 0.129191,-0.0379 0.210151,-0.11886 0.08096,-0.0827 0.113687,-0.17398 0.03445,-0.0913 0.03445,-0.20498 z m 2.716452,-0.4892 q 0.156752,0.17225 0.239434,0.42202 0.0844,0.24977 0.0844,0.56672 0,0.31695 -0.08613,0.56844 -0.0844,0.24977 -0.237711,0.41685 -0.158474,0.17398 -0.375514,0.26183 -0.215318,0.0879 -0.492648,0.0879 -0.270439,0 -0.492648,-0.0896 -0.220485,-0.0896 -0.375514,-0.26011 -0.155029,-0.17053 -0.239434,-0.41857 -0.08268,-0.24805 -0.08268,-0.56672 0,-0.3135 0.08268,-0.56155 0.08268,-0.24977 0.241156,-0.42719 0.151584,-0.16881 0.375515,-0.25838 0.225653,-0.0896 0.490925,-0.0896 0.275607,0 0.49437,0.0913 0.220486,0.0896 0.373792,0.25666 z m -0.03101,0.98874 q 0,-0.49954 -0.22393,-0.76998 -0.223931,-0.27216 -0.611503,-0.27216 -0.391018,0 -0.614949,0.27216 -0.222208,0.27044 -0.222208,0.76998 0,0.5047 0.227376,0.77342 0.227376,0.26699 0.609781,0.26699 0.382404,0 0.608058,-0.26699 0.227375,-0.26872 0.227375,-0.77342 z m 2.759515,0.54949 q 0,0.14986 -0.07062,0.29628 -0.0689,0.14641 -0.194647,0.24804 -0.137804,0.11025 -0.322116,0.17226 -0.18259,0.062 -0.440971,0.062 -0.27733,0 -0.499538,-0.0517 -0.220486,-0.0517 -0.449584,-0.1533 v -0.42719 h 0.02412 q 0.194647,0.16192 0.449584,0.24977 0.254936,0.0878 0.478867,0.0878 0.316948,0 0.492647,-0.11885 0.177422,-0.11886 0.177422,-0.31695 0,-0.17053 -0.0844,-0.25149 -0.08268,-0.081 -0.253214,-0.12575 -0.129191,-0.0344 -0.280775,-0.0568 -0.149861,-0.0224 -0.318671,-0.0568 -0.341063,-0.0723 -0.506427,-0.24633 -0.163642,-0.1757 -0.163642,-0.45647 0,-0.32212 0.272162,-0.5271 0.272162,-0.20671 0.69074,-0.20671 0.270439,0 0.496093,0.0517 0.225653,0.0517 0.39963,0.12747 v 0.40307 h -0.02412 q -0.146416,-0.12402 -0.38585,-0.20498 -0.237711,-0.0827 -0.48748,-0.0827 -0.273884,0 -0.440971,0.11369 -0.165364,0.11369 -0.165364,0.29283 0,0.1602 0.08268,0.25149 0.08268,0.0913 0.29111,0.13953 0.110243,0.0241 0.313503,0.0586 0.20326,0.0344 0.344509,0.0706 0.285942,0.0758 0.430636,0.2291 0.144693,0.1533 0.144693,0.42891 z m 1.452105,0.73208 h -1.012855 v -0.26183 h 0.335896 v -2.04121 h -0.335896 v -0.26183 h 1.012855 v 0.26183 h -0.335896 v 2.04121 h 0.335896 z m 2.409839,-2.2617 h -0.916393 v 2.2617 h -0.341064 v -2.2617 h -0.916393 v -0.30317 h 2.17385 z m 1.248844,2.2617 h -1.012856 v -0.26183 h 0.335896 v -2.04121 h -0.335896 v -0.26183 h 1.012856 v 0.26183 H -32.0155 v 2.04121 h 0.335896 z m 2.492521,-2.27031 q 0.156752,0.17225 0.239434,0.42202 0.0844,0.24977 0.0844,0.56672 0,0.31695 -0.08613,0.56844 -0.0844,0.24977 -0.237711,0.41685 -0.158474,0.17398 -0.375514,0.26183 -0.215318,0.0879 -0.492648,0.0879 -0.270439,0 -0.492648,-0.0896 -0.220485,-0.0896 -0.375514,-0.26011 -0.155029,-0.17053 -0.239434,-0.41857 -0.08268,-0.24805 -0.08268,-0.56672 0,-0.3135 0.08268,-0.56155 0.08268,-0.24977 0.241156,-0.42719 0.151584,-0.16881 0.375515,-0.25838 0.225653,-0.0896 0.490925,-0.0896 0.275607,0 0.49437,0.0913 0.220486,0.0896 0.373792,0.25666 z m -0.03101,0.98874 q 0,-0.49954 -0.22393,-0.76998 -0.223931,-0.27216 -0.611503,-0.27216 -0.391018,0 -0.614949,0.27216 -0.222208,0.27044 -0.222208,0.76998 0,0.5047 0.227376,0.77342 0.227376,0.26699 0.609781,0.26699 0.382404,0 0.608058,-0.26699 0.227375,-0.26872 0.227375,-0.77342 z m 2.852533,1.28157 h -0.422023 l -1.216116,-2.29443 v 2.29443 h -0.318671 v -2.56487 h 0.528821 l 1.109319,2.09462 v -2.09462 h 0.31867 z m 2.54592,-0.73208 q 0,0.14986 -0.07062,0.29628 -0.0689,0.14641 -0.194648,0.24804 -0.137803,0.11025 -0.322115,0.17226 -0.18259,0.062 -0.440972,0.062 -0.277329,0 -0.499537,-0.0517 -0.220486,-0.0517 -0.449584,-0.1533 v -0.42719 h 0.02411 q 0.194648,0.16192 0.449584,0.24977 0.254937,0.0878 0.478867,0.0878 0.316948,0 0.492648,-0.11885 0.177422,-0.11886 0.177422,-0.31695 0,-0.17053 -0.08441,-0.25149 -0.08268,-0.081 -0.253214,-0.12575 -0.12919,-0.0344 -0.280774,-0.0568 -0.149862,-0.0224 -0.318671,-0.0568 -0.341064,-0.0723 -0.506428,-0.24633 -0.163642,-0.1757 -0.163642,-0.45647 0,-0.32212 0.272162,-0.5271 0.272162,-0.20671 0.690741,-0.20671 0.270439,0 0.496092,0.0517 0.225653,0.0517 0.39963,0.12747 v 0.40307 h -0.02411 q -0.146416,-0.12402 -0.38585,-0.20498 -0.237711,-0.0827 -0.48748,-0.0827 -0.273885,0 -0.440971,0.11369 -0.165364,0.11369 -0.165364,0.29283 0,0.1602 0.08268,0.25149 0.08268,0.0913 0.29111,0.13953 0.110242,0.0241 0.313503,0.0586 0.20326,0.0344 0.344508,0.0706 0.285943,0.0758 0.430636,0.2291 0.144694,0.1533 0.144694,0.42891 z"
         id="path20" />
    </g>
    <path
       d="m 8.8097448,183.58606 q 0,0.1912 -0.07235,0.33761 -0.07235,0.14642 -0.194647,0.24116 -0.144694,0.11369 -0.318671,0.16192 -0.172254,0.0482 -0.439249,0.0482 h -0.909503 v -2.56487 h 0.759642 q 0.280775,0 0.420301,0.0207 0.139526,0.0207 0.266994,0.0861 0.141249,0.0741 0.204983,0.1912 0.06373,0.11541 0.06373,0.27733 0,0.18259 -0.09302,0.31178 -0.09302,0.12747 -0.248046,0.20499 v 0.0138 q 0.260104,0.0534 0.409966,0.22909 0.149861,0.17398 0.149861,0.44098 z m -0.573607,-1.15583 q 0,-0.093 -0.03101,-0.15675 -0.03101,-0.0637 -0.09991,-0.10336 -0.08096,-0.0465 -0.19637,-0.0568 -0.11541,-0.0121 -0.285942,-0.0121 h -0.40652 v 0.7407 h 0.440971 q 0.160197,0 0.254937,-0.0155 0.09474,-0.0172 0.175699,-0.0689 0.08096,-0.0517 0.113688,-0.13263 0.03445,-0.0827 0.03445,-0.19465 z m 0.218763,1.16961 q 0,-0.15503 -0.04651,-0.24633 -0.04651,-0.0913 -0.168809,-0.15503 -0.08268,-0.0431 -0.201538,-0.0551 -0.117133,-0.0138 -0.285942,-0.0138 h -0.535711 v 0.95429 h 0.451306 q 0.223931,0 0.366902,-0.0224 0.142971,-0.0241 0.234266,-0.0861 0.09646,-0.0672 0.141249,-0.15331 0.04479,-0.0861 0.04479,-0.2222 z m 2.5286942,0.77514 H 9.2937798 v -2.56487 h 1.6898152 v 0.30317 H 9.6348438 v 0.7028 h 1.3487512 v 0.30317 H 9.6348438 v 0.95256 h 1.3487512 z m 2.370221,-2.2617 h -0.916394 v 2.2617 h -0.341063 v -2.2617 h -0.916394 v -0.30317 h 2.173851 z m 3.329678,-0.30317 -0.666625,2.56487 h -0.384127 l -0.539156,-2.12906 -0.527099,2.12906 h -0.375514 l -0.678683,-2.56487 h 0.349677 l 0.539156,2.13251 0.530544,-2.13251 h 0.346231 l 0.535711,2.15318 0.535711,-2.15318 z m 2.192798,2.56487 h -1.689815 v -2.56487 h 1.689815 v 0.30317 H 17.52754 v 0.7028 h 1.348752 v 0.30317 H 17.52754 v 0.95256 h 1.348752 z m 2.230695,0 h -1.689816 v -2.56487 h 1.689816 v 0.30317 h -1.348752 v 0.7028 h 1.348752 v 0.30317 h -1.348752 v 0.95256 h 1.348752 z m 2.497688,0 h -0.422023 l -1.216116,-2.29443 v 2.29443 h -0.318671 v -2.56487 h 0.528821 l 1.109319,2.09462 v -2.09462 h 0.31867 z"
       id="text5"
       style="font-size:3.52777px;line-height:1.25;word-spacing:0px;stroke-width:0.264583"
       aria-label="BETWEEN" />
    <path
       d="m 13.803398,196.53688 h -0.363456 l -0.251492,-0.71485 h -1.109318 l -0.251492,0.71485 h -0.346231 l 0.933619,-2.56487 h 0.454752 z m -0.720023,-1.00769 -0.449584,-1.25918 -0.451307,1.25918 z m 3.066128,1.00769 H 15.72748 l -1.216116,-2.29443 v 2.29443 h -0.318671 v -2.56487 h 0.528821 l 1.109319,2.09462 v -2.09462 h 0.31867 z m 2.849088,-1.27985 q 0,0.34968 -0.153306,0.6339 -0.151584,0.28422 -0.404798,0.44097 -0.1757,0.10852 -0.39274,0.15675 -0.215318,0.0482 -0.56844,0.0482 h -0.647676 v -2.56487 h 0.640786 q 0.375515,0 0.596,0.0551 0.222208,0.0534 0.375515,0.14813 0.261827,0.16365 0.408243,0.43581 0.146416,0.27216 0.146416,0.64595 z m -0.356567,-0.005 q 0,-0.30144 -0.105075,-0.50815 -0.105075,-0.2067 -0.313503,-0.32556 -0.151584,-0.0861 -0.322116,-0.11885 -0.170531,-0.0344 -0.408242,-0.0344 h -0.320394 v 1.9792 h 0.320394 q 0.246323,0 0.428913,-0.0362 0.184312,-0.0362 0.337619,-0.13436 0.191202,-0.1223 0.285942,-0.32212 0.09646,-0.19981 0.09646,-0.49954 z"
       id="text7"
       style="font-size:3.52777px;line-height:1.25;word-spacing:0px;stroke-width:0.264583"
       aria-label="AND" />
  </g>
  <g
     inkscape:groupmode="layer"
     id="layer2"
     inkscape:label="components"
     style="display:none">
    <circle
       style="display:inline;opacity:1;vector-effect:none;fill:#ff0000;fill-opacity:1;fill-rule:evenodd;stroke:none;stroke-width:1.00001;stroke-linecap:butt;stroke-linejoin:miter;stroke-miterlimit:4;stroke-dasharray:none;stroke-dashoffset:0;stroke-opacity:1;paint-order:normal"
       id="path4954-3-0-2-9-7-7"
       cx="23.967339"
       cy="62.16938"
       inkscape:label="curr_square_button"
       r="4" />
    <circle
       style="display:inline;vector-effect:none;fill:#ff0000;fill-opacity:1;fill-rule:evenodd;stroke:none;stroke-width:1.00001;stroke-linecap:butt;stroke-linejoin:miter;stroke-miterlimit:4;stroke-dasharray:none;stroke-dashoffset:0;stroke-opacity:1;paint-order:normal"
       id="path4954-3-0-2-9-7-7-7"
       cx="23.967339"
       cy="75.764313"
       inkscape:label="curr_output_button"
       r="4" />
    <circle
       style="display:inline;vector-effect:none;fill:#ff0000;fill-opacity:1;fill-rule:evenodd;stroke:none;stroke-width:1.00001;stroke-linecap:butt;stroke-linejoin:miter;stroke-miterlimit:4;stroke-dasharray:none;stroke-dashoffset:0;stroke-opacity:1;paint-order:normal"
       id="path4954-3-0-2-9-7-7-1"
       cx="23.967339"
       cy="89.359238"
       inkscape:label="all_squares_button"
       r="4" />
    <circle
       style="display:inline;fill:#ff00ff;fill-opacity:1;fill-rule:evenodd;stroke:none;stroke-width:1;stroke-linecap:butt;stroke-linejoin:miter;stroke-miterlimit:4;stroke-dasharray:none;stroke-dashoffset:0;stroke-opacity:1;paint-order:normal"
       id="path4954-3-0-2-9-0-0"
       cx="26.091143"
       cy="7.559557"
       r="4"
       inkscape:label="connected_right" />
    <circle
       style="display:inline;fill:#ff00ff;fill-opacity:1;fill-rule:evenodd;stroke:none;stroke-width:1;stroke-linecap:butt;stroke-linejoin:miter;stroke-miterlimit:4;stroke-dasharray:none;stroke-dashoffset:0;stroke-opacity:1;paint-order:normal"
       id="path4954-3-0-2-9-0-0-9"
       cx="4.5291662"
       cy="7.559557"
       r="4"
       inkscape:label="connected_left" />
    <circle
       style="display:inline;opacity:1;vector-effect:none;fill:#ff0000;fill-opacity:1;fill-rule:evenodd;stroke:none;stroke-width:1;stroke-linecap:butt;stroke-linejoin:miter;stroke-miterlimit:4;stroke-dasharray:none;stroke-dashoffset:0;stroke-opacity:1;paint-order:normal"
       id="path4954-3-0-2-9-0"
       cx="23.966999"
       cy="20.70417"
       r="4"
       inkscape:label="upper_limit" />
    <circle
       style="display:inline;vector-effect:none;fill:#ff0000;fill-opacity:1;fill-rule:evenodd;stroke:none;stroke-width:1;stroke-linecap:butt;stroke-linejoin:miter;stroke-miterlimit:4;stroke-dasharray:none;stroke-dashoffset:0;stroke-opacity:1;paint-order:normal"
       id="path4954-3-0-2-9-0-8"
       cx="23.966999"
       cy="32.643002"
       r="4"
       inkscape:label="lower_limit" />
    <circle
       style="display:inline;fill:#ff0000;fill-opacity:1;fill-rule:evenodd;stroke:none;stroke-width:1;stroke-linecap:butt;stroke-linejoin:miter;stroke-miterlimit:4;stroke-dasharray:none;stroke-dashoffset:0;stroke-opacity:1;paint-order:normal"
       id="path4954-3-0-2-9-0-9"
       cx="23.966999"
       cy="43.332024"
       r="4"
       inkscape:label="distribution" />
    <circle
       style="display:inline;vector-effect:none;fill:#ff0000;fill-opacity:1;fill-rule:evenodd;stroke:none;stroke-width:1.00001;stroke-linecap:butt;stroke-linejoin:miter;stroke-miterlimit:4;stroke-dasharray:none;stroke-dashoffset:0;stroke-opacity:1;paint-order:normal"
       id="circle6-2"
       cx="23.967339"
       cy="102.95417"
       inkscape:label="all_square_positions_button"
       r="4" />
  </g>
</svg>