<?xml version="1.0" encoding="UTF-8" standalone="no"?>
<svg
   width="30.48mm"
   height="128.5mm"
   viewBox="0 0 30.480002 128.50002"
   version="1.1"
   id="svg8"
   inkscape:version="1.4.4 (dcaf3e7, 2026-05-05)"
   sodipodi:docname="Distribute.svg"
   xmlns:inkscape="http://www.inkscape.org/namespaces/inkscape"
   xmlns:sodipodi="http://sodipodi.sourceforge.net/DTD/sodipodi-0.dtd"
   xmlns="http://www.w3.org/2000/svg"
   xmlns:svg="http://www.w3.org/2000/svg"
   xmlns:rdf="http://www.w3.org/1999/02/22-rdf-syntax-ns#"
   xmlns:cc="http://creativecommons.org/ns#"
   xmlns:dc="http://purl.org/dc/elements/1.1/">
  <defs
     id="defs2" />
  <sodipodi:namedview
     id="base"
     pagecolor="#ffffff"
     bordercolor="#666666"
     borderopacity="1.0"
     inkscape:pageopacity="0.0"
     inkscape:pageshadow="2"
     inkscape:zoom="1.4142137"
     inkscape:cx="-205.4145"
     inkscape:cy="313.60183"
     inkscape:document-units="mm"
     inkscape:current-layer="g1684"
     showgrid="false"
     units="mm"
     inkscape:snap-bbox="true"
     inkscape:snap-page="true"
     inkscape:bbox-nodes="false"
     inkscape:snap-bbox-edge-midpoints="false"
     inkscape:window-width="2560"
     inkscape:window-height="1369"
     inkscape:window-x="-8"
     inkscape:window-y="-8"
     inkscape:window-maximized="1"
     inkscape:snap-bbox-midpoints="true"
     inkscape:snap-nodes="false"
     inkscape:document-rotation="0"
     inkscape:showpageshadow="2"
     inkscape:pagecheckerboard="0"
     inkscape:deskcolor="#d1d1d1" />
  <metadata
     id="metadata5">
    <rdf:RDF>
      <cc:Work
         rdf:about="">
        <dc:format>image/svg+xml</dc:format>
        <dc:type
           rdf:resource="http://purl.org/dc/dcmitype/StillImage" />
      </cc:Work>
    </rdf:RDF>
  </metadata>
  <g
     inkscape:label="Background"
     inkscape:groupmode="layer"
     id="layer1"
     transform="translate(0,-168.49998)"
     style="display:inline">
    <rect
       style="display:inline;opacity:1;vector-effect:none;fill:#e8f1f2;fill-opacity:1;fill-rule:evenodd;stroke:none;stroke-width:0.649358;stroke-linecap:butt;stroke-linejoin:miter;stroke-miterlimit:4;stroke-dasharray:none;stroke-dashoffset:0;stroke-opacity:1;paint-order:normal"
       id="rect420"
       width="30.48"
       height="128.5"
       x="5.9211732e-17"
       y="168.49997" />
    <g
       aria-label="!"
       transform="matrix(1.1167128,-0.15549235,0.12836675,1.3252781,-2.30373,165.39159)"
       id="text912"
       style="font-style:normal;font-weight:normal;font-size:127.426px;line-height:1.25;font-family:sans-serif;display:inline;fill:#f7d31c;fill-opacity:1;stroke:none;stroke-width:3.18552;stroke-miterlimit:4;stroke-dasharray:none">
      <path
         d="M 17.007808,5.7176488 15.390095,72.852735 H 4.8127414 L 3.070589,5.7176488 Z M 16.385611,98.362823 H 3.6927863 V 85.234461 H 16.385611 Z"
         style="fill:#f7d31c;fill-opacity:1;stroke-width:3.18552;stroke-miterlimit:4;stroke-dasharray:none"
         id="path1767" />
    </g>
  </g>
  <g
     inkscape:label="Layer 1"
     inkscape:groupmode="layer"
     id="g1684"
     transform="translate(0,-168.49998)"
     style="display:inline;opacity:1">
    <g
       aria-label="-"
       id="text1760-3-2"
       style="font-size:10.5833px;line-height:1.25;font-family:sans-serif;word-spacing:0px;display:inline;opacity:1;stroke-width:0.264583"
       transform="translate(64.387058,176.58836)" />
    <rect
       style="display:inline;fill:#000000;fill-opacity:0.88755;stroke-width:0.239885;image-rendering:auto"
       id="rect652-6-3"
       width="17.044075"
       height="9.7154026"
       x="1.8592124"
       y="206.97424"
       ry="2.2658029"
       rx="2.2658029" />
    <rect
       style="display:inline;fill:#000000;fill-opacity:0.88755;stroke-width:0.205078;image-rendering:auto"
       id="rect652-6-3-4"
       width="16"
       height="7.5638828"
       x="2.381"
       y="197.36092"
       ry="2.2658029"
       rx="2.2658029" />
    <rect
       style="display:inline;fill:#000000;fill-opacity:0.88755;stroke-width:0.205077;image-rendering:auto"
       id="rect652-6-3-4-5"
       width="16"
       height="7.5638828"
       x="2.3812499"
       y="185.42212"
       ry="2.2658029"
       rx="2.2658029" />
    <path
       d="m 4.3474943,219.07074 q 0,0.34967 -0.153306,0.63389 -0.151584,0.28422 -0.404798,0.44097 -0.175699,0.10852 -0.39274,0.15676 -0.215318,0.0482 -0.568439,0.0482 h -0.647677 v -2.56487 h 0.640786 q 0.375515,0 0.596001,0.0551 0.222208,0.0534 0.375514,0.14814 0.261827,0.16364 0.408243,0.4358 0.146416,0.27216 0.146416,0.64596 z m -0.356566,-0.005 q 0,-0.30145 -0.105075,-0.50815 -0.105076,-0.20671 -0.313503,-0.32556 -0.151584,-0.0861 -0.322116,-0.11886 -0.170532,-0.0344 -0.408243,-0.0344 h -0.320393 v 1.9792 h 0.320393 q 0.246324,0 0.428913,-0.0362 0.184313,-0.0362 0.337619,-0.13436 0.191202,-0.1223 0.285942,-0.32211 0.09646,-0.19982 0.09646,-0.49954 z m 1.812116,1.28502 h -1.012856 v -0.26183 h 0.335896 v -2.04121 h -0.335896 v -0.26183 h 1.012856 v 0.26183 h -0.335896 v 2.04121 h 0.335896 z m 2.44429,-0.73208 q 0,0.14986 -0.07062,0.29627 -0.0689,0.14642 -0.194648,0.24805 -0.137803,0.11024 -0.322115,0.17225 -0.18259,0.062 -0.440972,0.062 -0.277329,0 -0.499537,-0.0517 -0.220486,-0.0517 -0.449584,-0.15331 v -0.42719 h 0.02412 q 0.194647,0.16192 0.449584,0.24977 0.254936,0.0879 0.478867,0.0879 0.316948,0 0.492647,-0.11885 0.177422,-0.11886 0.177422,-0.31695 0,-0.17053 -0.0844,-0.25149 -0.08268,-0.081 -0.253214,-0.12575 -0.12919,-0.0344 -0.280774,-0.0568 -0.149862,-0.0224 -0.318671,-0.0568 -0.341064,-0.0723 -0.506428,-0.24632 -0.163641,-0.1757 -0.163641,-0.45648 0,-0.32211 0.272161,-0.52709 0.272162,-0.20671 0.690741,-0.20671 0.270439,0 0.496092,0.0517 0.225654,0.0517 0.39963,0.12746 v 0.40308 h -0.02412 q -0.146417,-0.12402 -0.38585,-0.20498 -0.237711,-0.0827 -0.48748,-0.0827 -0.273885,0 -0.440971,0.11368 -0.165365,0.11369 -0.165365,0.29284 0,0.16019 0.08268,0.25149 0.08268,0.0913 0.29111,0.13952 0.110243,0.0241 0.313503,0.0586 0.20326,0.0345 0.344509,0.0706 0.285942,0.0758 0.430636,0.2291 0.144694,0.15331 0.144694,0.42892 z m 2.3771107,-1.52962 H 9.7080509 v 2.2617 H 9.3669873 v -2.2617 h -0.916393 v -0.30317 h 2.1738507 z m 2.466683,2.2617 h -0.442693 l -0.857827,-1.01975 h -0.48059 v 1.01975 h -0.341064 v -2.56487 h 0.718301 q 0.232543,0 0.387572,0.031 0.155029,0.0293 0.279053,0.1068 0.139526,0.0879 0.21704,0.22221 0.07924,0.13264 0.07924,0.33762 0,0.27733 -0.139526,0.46509 -0.139526,0.18603 -0.384127,0.28077 z m -0.797537,-1.84313 q 0,-0.11024 -0.03962,-0.19464 -0.0379,-0.0861 -0.127468,-0.1447 -0.07407,-0.0499 -0.1757,-0.0689 -0.10163,-0.0207 -0.239433,-0.0207 h -0.401353 v 0.96807 h 0.344509 q 0.161919,0 0.282497,-0.0276 0.120578,-0.0293 0.204983,-0.1068 0.07751,-0.0723 0.113688,-0.16536 0.0379,-0.0947 0.0379,-0.23944 z m 2.032601,1.84313 h -1.012856 v -0.26183 h 0.335896 v -2.04121 h -0.335896 v -0.26183 h 1.012856 v 0.26183 h -0.335896 v 2.04121 h 0.335896 z m 2.514914,-0.78893 q 0,0.1912 -0.07235,0.33762 -0.07235,0.14642 -0.194648,0.24116 -0.144693,0.11368 -0.31867,0.16192 -0.172255,0.0482 -0.439249,0.0482 h -0.909503 v -2.56487 h 0.759642 q 0.280774,0 0.4203,0.0207 0.139526,0.0207 0.266995,0.0861 0.141248,0.0741 0.204982,0.1912 0.06373,0.11541 0.06373,0.27733 0,0.18259 -0.09302,0.31178 -0.09302,0.12747 -0.248046,0.20498 v 0.0138 q 0.260104,0.0534 0.409965,0.2291 0.149862,0.17398 0.149862,0.44097 z M 16.267499,218.406 q 0,-0.093 -0.03101,-0.15675 -0.03101,-0.0637 -0.09991,-0.10335 -0.08096,-0.0465 -0.19637,-0.0568 -0.11541,-0.0121 -0.285942,-0.0121 h -0.40652 v 0.74069 h 0.440971 q 0.160196,0 0.254936,-0.0155 0.09474,-0.0172 0.1757,-0.0689 0.08096,-0.0517 0.113688,-0.13264 0.03445,-0.0827 0.03445,-0.19465 z m 0.218763,1.16961 q 0,-0.15503 -0.04651,-0.24632 -0.04651,-0.0913 -0.168809,-0.15503 -0.08268,-0.0431 -0.201538,-0.0551 -0.117133,-0.0138 -0.285942,-0.0138 h -0.535711 v 0.95429 h 0.451306 q 0.223931,0 0.366902,-0.0224 0.142971,-0.0241 0.234266,-0.0861 0.09646,-0.0672 0.141248,-0.15331 0.04479,-0.0861 0.04479,-0.22221 z m 2.769851,-0.25493 q 0,0.27905 -0.06201,0.48748 -0.06029,0.2067 -0.199815,0.3445 -0.132636,0.13092 -0.310058,0.19121 -0.177422,0.0603 -0.41341,0.0603 -0.241156,0 -0.420301,-0.0637 -0.179145,-0.0637 -0.301445,-0.18776 -0.139526,-0.14124 -0.201538,-0.34106 -0.06029,-0.19981 -0.06029,-0.49092 v -1.53479 h 0.341064 v 1.55201 q 0,0.20843 0.02756,0.32901 0.02928,0.12058 0.09646,0.21876 0.07579,0.11197 0.204983,0.16881 0.130913,0.0568 0.313503,0.0568 0.184312,0 0.313503,-0.0551 0.129191,-0.0568 0.206705,-0.17053 0.06718,-0.0982 0.09474,-0.22393 0.02928,-0.12747 0.02928,-0.31523 v -1.56062 h 0.341064 z m 2.480463,-1.23162 h -0.916393 v 2.2617 h -0.341064 v -2.2617 h -0.916393 v -0.30317 h 2.17385 z m 1.248845,2.2617 h -1.012856 v -0.26183 h 0.335896 v -2.04121 h -0.335896 v -0.26183 h 1.012856 v 0.26183 h -0.335896 v 2.04121 h 0.335896 z m 2.492521,-2.27032 q 0.156751,0.17226 0.239434,0.42203 0.0844,0.24977 0.0844,0.56671 0,0.31695 -0.08613,0.56844 -0.08441,0.24977 -0.237711,0.41686 -0.158474,0.17398 -0.375515,0.26183 -0.215318,0.0879 -0.492647,0.0879 -0.27044,0 -0.492648,-0.0896 -0.220485,-0.0896 -0.375514,-0.2601 -0.155029,-0.17053 -0.239434,-0.41858 -0.08268,-0.24805 -0.08268,-0.56672 0,-0.3135 0.08268,-0.56155 0.08268,-0.24976 0.241156,-0.42719 0.151584,-0.16881 0.375515,-0.25838 0.225653,-0.0896 0.490925,-0.0896 0.275607,0 0.49437,0.0913 0.220485,0.0896 0.373792,0.25666 z m -0.03101,0.98874 q 0,-0.49953 -0.223931,-0.76997 -0.22393,-0.27216 -0.611503,-0.27216 -0.391017,0 -0.614948,0.27216 -0.222208,0.27044 -0.222208,0.76997 0,0.50471 0.227376,0.77343 0.227376,0.26699 0.60978,0.26699 0.382405,0 0.608058,-0.26699 0.227376,-0.26872 0.227376,-0.77343 z m 2.852533,1.28158 h -0.422023 l -1.216116,-2.29443 v 2.29443 h -0.318671 v -2.56487 h 0.528821 l 1.109318,2.09461 v -2.09461 h 0.318671 z"
       id="text3"
       style="font-size:3.52777px;line-height:1.25;word-spacing:0px;stroke-width:0.264583"
       aria-label="DISTRIBUTION" />
    <path
       d="m 8.8097448,183.58606 q 0,0.1912 -0.07235,0.33761 -0.07235,0.14642 -0.194647,0.24116 -0.144694,0.11369 -0.318671,0.16192 -0.172254,0.0482 -0.439249,0.0482 h -0.909503 v -2.56487 h 0.759642 q 0.280775,0 0.420301,0.0207 0.139526,0.0207 0.266994,0.0861 0.141249,0.0741 0.204983,0.1912 0.06373,0.11541 0.06373,0.27733 0,0.18259 -0.09302,0.31178 -0.09302,0.12747 -0.248046,0.20499 v 0.0138 q 0.260104,0.0534 0.409966,0.22909 0.149861,0.17398 0.149861,0.44098 z m -0.573607,-1.15583 q 0,-0.093 -0.03101,-0.15675 -0.03101,-0.0637 -0.09991,-0.10336 -0.08096,-0.0465 -0.19637,-0.0568 -0.11541,-0.0121 -0.285942,-0.0121 h -0.40652 v 0.7407 h 0.440971 q 0.160197,0 0.254937,-0.0155 0.09474,-0.0172 0.175699,-0.0689 0.08096,-0.0517 0.113688,-0.13263 0.03445,-0.0827 0.03445,-0.19465 z m 0.218763,1.16961 q 0,-0.15503 -0.04651,-0.24633 -0.04651,-0.0913 -0.168809,-0.15503 -0.08268,-0.0431 -0.201538,-0.0551 -0.117133,-0.0138 -0.285942,-0.0138 h -0.535711 v 0.95429 h 0.451306 q 0.223931,0 0.366902,-0.0224 0.142971,-0.0241 0.234266,-0.0861 0.09646,-0.0672 0.141249,-0.15331 0.04479,-0.0861 0.04479,-0.2222 z m 2.5286942,0.77514 H 9.2937798 v -2.56487 h 1.6898152 v 0.30317 H 9.6348438 v 0.7028 h 1.3487512 v 0.30317 H 9.6348438 v 0.95256 h 1.3487512 z m 2.370221,-2.2617 h -0.916394 v 2.2617 h -0.341063 v -2.2617 h -0.916394 v -0.30317 h 2.173851 z m 3.329678,-0.30317 -0.666625,2.56487 h -0.384127 l -0.539156,-2.12906 -0.527099,2.12906 h -0.375514 l -0.678683,-2.56487 h 0.349677 l 0.539156,2.13251 0.530544,-2.13251 h 0.346231 l 0.535711,2.15318 0.535711,-2.15318 z m 2.192798,2.56487 h -1.689815 v -2.56487 h 1.689815 v 0.30317 H 17.52754 v 0.7028 h 1.348752 v 0.30317 H 17.52754 v 0.95256 h 1.348752 z m 2.230695,0 h -1.689816 v -2.56487 h 1.689816 v 0.30317 h -1.348752 v 0.7028 h 1.348752 v 0.30317 h -1.348752 v 0.95256 h 1.348752 z m 2.497688,0 h -0.422023 l -1.216116,-2.29443 v 2.29443 h -0.318671 v -2.56487 h 0.528821 l 1.109319,2.09462 v -2.09462 h 0.31867 z"
       id="text5"
       style="font-size:3.52777px;line-height:1.25;word-spacing:0px;stroke-width:0.264583"
       aria-label="BETWEEN" />
    <path
       d="m 13.803398,196.53688 h -0.363456 l -0.251492,-0.71485 h -1.109318 l -0.251492,0.71485 h -0.346231 l 0.933619,-2.56487 h 0.454752 z m -0.720023,-1.00769 -0.449584,-1.25918 -0.451307,1.25918 z m 3.066128,1.00769 H 15.72748 l -1.216116,-2.29443 v 2.29443 h -0.318671 v -2.56487 h 0.528821 l 1.109319,2.09462 v -2.09462 h 0.31867 z m 2.849088,-1.27985 q 0,0.34968 -0.153306,0.6339 -0.151584,0.28422 -0.404798,0.44097 -0.1757,0.10852 -0.39274,0.15675 -0.215318,0.0482 -0.56844,0.0482 h -0.647676 v -2.56487 h 0.640786 q 0.375515,0 0.596,0.0551 0.222208,0.0534 0.375515,0.14813 0.261827,0.16365 0.408243,0.43581 0.146416,0.27216 0.146416,0.64595 z m -0.356567,-0.005 q 0,-0.30144 -0.105075,-0.50815 -0.105075,-0.2067 -0.313503,-0.32556 -0.151584,-0.0861 -0.322116,-0.11885 -0.170531,-0.0344 -0.408242,-0.0344 h -0.320394 v 1.9792 h 0.320394 q 0.246323,0 0.428913,-0.0362 0.184312,-0.0362 0.337619,-0.13436 0.191202,-0.1223 0.285942,-0.32212 0.09646,-0.19981 0.09646,-0.49954 z"
       id="text7"
       style="font-size:3.52777px;line-height:1.25;word-spacing:0px;stroke-width:0.264583"
       aria-label="AND" />
    <rect
       style="display:inline;fill:#000000;fill-opacity:0.88755;stroke-width:0.220088"
       id="rect652-0"
       width="13"
       height="10.721942"
       x="15.610418"
       y="283.32913"
       ry="4.2203341"
       rx="4.2203341" />
    <path
       d="M 3.5228851,8.8867111 H 2.4128754 V 8.3844162 h 1.0728027 q 0.5705078,0 0.9456787,-0.217041 0.3751709,-0.2201416 0.5581055,-0.6263184 0.1860351,-0.4092773 0.1860351,-0.9735839 0,-0.5581055 -0.1829346,-0.9611817 Q 4.8127289,5.2032151 4.4499603,4.9861741 4.0871918,4.7691331 3.5476898,4.7691331 H 2.3880707 v -0.502295 h 1.1968261 q 0.6728272,0 1.153418,0.2759522 0.4836914,0.2759521 0.74104,0.79375 0.2573487,0.5146972 0.2573487,1.2309326 0,0.7224365 -0.2604493,1.2433349 Q 5.215805,8.3286057 4.7228119,8.6076584 4.2298187,8.8867111 3.5228851,8.8867111 Z M 2.6578217,4.2668381 v 4.619873 H 2.093515 v -4.619873 z m 3.7920167,4.619873 V 5.5690842 H 6.9831391 V 8.8867111 Z M 6.7195893,4.9458665 q -0.1519287,0 -0.2604492,-0.10542 -0.1054199,-0.1054199 -0.1054199,-0.254248 0,-0.1519287 0.1054199,-0.2573486 0.1085205,-0.10542 0.2573487,-0.10542 0.1550293,0 0.2604492,0.10542 0.1085205,0.1054199 0.1085205,0.2573486 0,0.1488281 -0.1085205,0.254248 -0.1054199,0.10542 -0.2573487,0.10542 z m 2.238623,4.0152587 q -0.3534668,0 -0.6387207,-0.1116211 Q 8.0373383,8.737883 7.8606049,8.5115402 7.6838715,8.2820969 7.6528656,7.9379318 l 0.523999,-0.027905 q 0.037207,0.2883545 0.2356446,0.4402832 0.1984375,0.1488281 0.5333007,0.1488281 0.3472657,0 0.5457032,-0.142627 0.201538,-0.1457275 0.201538,-0.3627685 0,-0.1860352 -0.1333252,-0.2976563 Q 9.4264008,7.5813645 9.1969574,7.5286545 L 8.660556,7.4046311 Q 8.2016693,7.29301 7.9660248,7.060466 7.7334809,6.8279221 7.7334809,6.4682541 q 0,-0.2821533 0.1550292,-0.4991943 0.1550293,-0.2201416 0.4278809,-0.344165 0.2728516,-0.1240235 0.6263184,-0.1240235 0.344165,0 0.6108154,0.1240235 0.2666504,0.1240234 0.4247802,0.3503662 0.161231,0.2232422 0.186035,0.5333007 L 9.6496429,6.536467 Q 9.6310394,6.2915207 9.4481049,6.1271897 9.2651703,5.959758 8.9427094,5.959758 q -0.3007569,0 -0.486792,0.1457276 -0.1860352,0.1457275 -0.1860352,0.3565674 0,0.1860351 0.1364258,0.3007568 0.1364258,0.1147217 0.3875732,0.1736328 L 9.3209808,7.060466 q 0.4712891,0.1116211 0.6914302,0.3379639 0.223243,0.2232422 0.223243,0.576709 0,0.3038574 -0.167432,0.5270996 Q 9.903891,8.7223801 9.6124359,8.8433029 9.3240814,8.9611252 8.9582123,8.9611252 Z M 12.359555,5.5690842 V 6.0279709 H 10.582919 V 5.5690842 Z M 11.153427,4.6916184 h 0.533301 v 3.376538 q 0,0.2015381 0.08061,0.2852539 0.08372,0.080615 0.288354,0.080615 0.06821,0 0.148828,-0.0031 0.08372,-0.0031 0.151929,-0.0062 l 0.02481,0.4588867 q -0.08061,0.0062 -0.179834,0.0093 -0.09922,0.0031 -0.186035,0.0031 -0.427881,0 -0.644922,-0.1953369 -0.217041,-0.1953369 -0.217041,-0.576709 z m 1.789038,4.1950927 V 5.5690842 h 0.511597 v 0.5208984 h 0.0186 q 0.08992,-0.2573486 0.294556,-0.4123779 0.207739,-0.1581299 0.517798,-0.1581299 0.06821,0 0.133325,0.0062 0.06511,0.0062 0.102319,0.012402 v 0.5333007 q -0.03101,-0.0093 -0.120923,-0.021704 -0.08992,-0.015503 -0.204638,-0.015503 -0.195337,0 -0.359668,0.089917 -0.164331,0.086816 -0.26355,0.2666504 -0.09612,0.1767334 -0.09612,0.4464843 v 2.0494873 z m 2.136304,0 V 5.5690842 H 15.61207 V 8.8867111 Z M 15.34852,4.9458665 q -0.151929,0 -0.260449,-0.10542 -0.10542,-0.1054199 -0.10542,-0.254248 0,-0.1519287 0.10542,-0.2573486 0.10852,-0.10542 0.257348,-0.10542 0.15503,0 0.26045,0.10542 0.10852,0.1054199 0.10852,0.2573486 0,0.1488281 -0.10852,0.254248 -0.10542,0.10542 -0.257349,0.10542 z m 2.657202,4.0059569 q -0.238745,0 -0.434082,-0.071314 -0.192236,-0.074414 -0.341064,-0.201538 -0.148828,-0.1302246 -0.254248,-0.2976563 h -0.0186 V 8.8867106 H 16.43683 v -4.619873 h 0.533301 V 6.068278 h 0.0155 q 0.09612,-0.1612304 0.241845,-0.2852539 0.145728,-0.127124 0.341065,-0.1984375 0.198437,-0.071313 0.437182,-0.071313 0.427881,0 0.750342,0.2139404 0.322461,0.2139404 0.499195,0.6015137 0.179834,0.3875732 0.179834,0.9022705 0,0.5115966 -0.179834,0.8991699 -0.176734,0.3875732 -0.499195,0.6046142 -0.322461,0.217041 -0.750342,0.217041 z m -0.08061,-0.4805908 q 0.294556,0 0.511597,-0.1457275 0.217041,-0.1488281 0.337964,-0.4247803 0.120923,-0.2790527 0.120923,-0.6728271 0,-0.3937744 -0.120923,-0.6697266 Q 18.653745,6.282219 18.436704,6.1364914 18.219663,5.9907639 17.925107,5.9907639 q -0.306958,0 -0.5302,0.1550293 -0.223242,0.1519287 -0.341064,0.4309814 -0.117823,0.2759522 -0.117823,0.6511231 0,0.3720703 0.117823,0.6542236 0.120922,0.2790527 0.341064,0.434082 0.223242,0.1550293 0.5302,0.1550293 z m 3.364135,0.4743897 q -0.331763,0 -0.604614,-0.142627 Q 20.411776,8.6572678 20.250546,8.3658127 20.092416,8.0743576 20.092416,7.6402756 V 5.5690842 h 0.533301 v 2.0339844 q 0,0.4185791 0.204638,0.6356201 0.20774,0.217041 0.573609,0.217041 0.241846,0 0.437182,-0.096118 0.195337,-0.099219 0.310059,-0.306958 0.117822,-0.2108398 0.117822,-0.5302002 V 5.5690842 h 0.533301 V 8.8867111 H 22.28143 V 8.0836594 h 0.133325 Q 22.253524,8.5332443 21.96517,8.7409836 21.676815,8.9456223 21.289242,8.9456223 Z M 25.040951,5.5690842 V 6.0279709 H 23.264315 V 5.5690842 Z M 23.834823,4.6916184 h 0.533301 v 3.376538 q 0,0.2015381 0.08061,0.2852539 0.08372,0.080615 0.288355,0.080615 0.06821,0 0.148828,-0.0031 0.08372,-0.0031 0.151929,-0.0062 l 0.0248,0.4588867 q -0.08061,0.0062 -0.179834,0.0093 -0.09922,0.0031 -0.186035,0.0031 -0.427881,0 -0.644922,-0.1953369 -0.217041,-0.1953369 -0.217041,-0.576709 z m 3.103688,4.2695068 q -0.486792,0 -0.830957,-0.2201416 Q 25.763389,8.520842 25.577354,8.1332687 25.394419,7.7425949 25.394419,7.2403 q 0,-0.5084961 0.189136,-0.8991699 0.192236,-0.3906738 0.5302,-0.613916 0.337964,-0.2263428 0.781348,-0.2263428 0.325561,0 0.598413,0.1178223 0.272851,0.1178223 0.471289,0.3410644 0.201538,0.2232422 0.310058,0.5426026 0.111622,0.3162597 0.111622,0.7224365 v 0.164331 H 25.695176 V 6.9302414 h 2.396753 l -0.235645,0.1643311 q 0,-0.3379639 -0.117822,-0.5891113 -0.114722,-0.2511475 -0.331763,-0.3875733 -0.21394,-0.1395263 -0.511596,-0.1395263 -0.297657,0 -0.514698,0.1395263 -0.217041,0.1395264 -0.337963,0.3875733 -0.117823,0.2449462 -0.117823,0.5674072 v 0.2449463 q 0,0.3472656 0.120923,0.6108154 0.120923,0.2604492 0.347266,0.4061767 0.226343,0.1457276 0.545703,0.1457276 0.226343,0 0.399975,-0.068213 0.176734,-0.071313 0.291456,-0.1984375 0.117822,-0.1302246 0.170532,-0.3007568 l 0.5302,0.031006 q -0.06511,0.3038574 -0.260449,0.5333008 -0.195337,0.2263428 -0.486792,0.3565674 -0.288355,0.127124 -0.644922,0.1271239 z"
       id="text2"
       style="font-size:6.35px;line-height:1.25;font-family:'Inter 28pt';-inkscape-font-specification:'Inter 28pt';word-spacing:0px;display:inline;stroke-width:0.264583"
       aria-label="Distribute"
       transform="translate(0,168.49998)" />
  </g>
  <g
     inkscape:groupmode="layer"
     id="layer2"
     inkscape:label="components"
     style="display:none">
    <circle
       style="display:inline;opacity:1;vector-effect:none;fill:#ff0000;fill-opacity:1;fill-rule:evenodd;stroke:none;stroke-width:1;stroke-linecap:butt;stroke-linejoin:miter;stroke-miterlimit:4;stroke-dasharray:none;stroke-dashoffset:0;stroke-opacity:1;paint-order:normal"
       id="path4954-3-0-2-9-0"
       cx="23.966999"
       cy="20.70417"
       r="4"
       inkscape:label="upper_limit" />
    <circle
       style="display:inline;vector-effect:none;fill:#ff0000;fill-opacity:1;fill-rule:evenodd;stroke:none;stroke-width:1;stroke-linecap:butt;stroke-linejoin:miter;stroke-miterlimit:4;stroke-dasharray:none;stroke-dashoffset:0;stroke-opacity:1;paint-order:normal"
       id="path4954-3-0-2-9-0-8"
       cx="23.966999"
       cy="32.643002"
       r="4"
       inkscape:label="lower_limit" />
    <circle
       style="display:inline;fill:#ff0000;fill-opacity:1;fill-rule:evenodd;stroke:none;stroke-width:1;stroke-linecap:butt;stroke-linejoin:miter;stroke-miterlimit:4;stroke-dasharray:none;stroke-dashoffset:0;stroke-opacity:1;paint-order:normal"
       id="path4954-3-0-2-9-0-9"
       cx="23.966999"
       cy="43.332024"
       r="4"
       inkscape:label="distribution" />
    <circle
       style="display:inline;fill:#0000ff;fill-opacity:1;fill-rule:evenodd;stroke:none;stroke-width:1;stroke-linecap:butt;stroke-linejoin:miter;stroke-miterlimit:4;stroke-dasharray:none;stroke-dashoffset:0;stroke-opacity:1;paint-order:normal"
       id="circle4958-4-5-6"
       cx="22.256248"
       cy="119.8875"
       r="4"
       inkscape:label="out" />
    <circle
       r="4"
       cy="120.05303"
       cx="7.1910496"
       id="circle4956-3-4-8"
       style="display:inline;vector-effect:none;fill:#00ff00;fill-opacity:1;fill-rule:evenodd;stroke:none;stroke-width:1;stroke-linecap:butt;stroke-linejoin:miter;stroke-miterlimit:4;stroke-dasharray:none;stroke-dashoffset:0;stroke-opacity:1;paint-order:normal"
       inkscape:label="trig" />
  </g>
</svg>
