<?xml version="1.0" encoding="UTF-8" standalone="no"?>
<svg
   width="30.48mm"
   height="128.5mm"
   viewBox="0 0 30.480002 128.50002"
   version="1.1"
   id="svg8"
   inkscape:version="1.4.4 (dcaf3e7, 2026-05-05)"
   sodipodi:docname="Distribute.svg"
   xmlns:inkscape="http://www.inkscape.org/namespaces/inkscape"
   xmlns:sodipodi="http://sodipodi.sourceforge.net/DTD/sodipodi-0.dtd"
   xmlns="http://www.w3.org/2000/svg"
   xmlns:svg="http://www.w3.org/2000/svg"
   xmlns:rdf="http://www.w3.org/1999/02/22-rdf-syntax-ns#"
   xmlns:cc="http://creativecommons.org/ns#"
   xmlns:dc="http://purl.org/dc/elements/1.1/">
  <defs
     id="defs2" />
  <sodipodi:namedview
     id="base"
     pagecolor="#ffffff"
     bordercolor="#666666"
     borderopacity="1.0"
     inkscape:pageopacity="0.0"
     inkscape:pageshadow="2"
     inkscape:zoom="2.0000002"
     inkscape:cx="-70.249993"
     inkscape:cy="246.74998"
     inkscape:document-units="mm"
     inkscape:current-layer="layer2"
     showgrid="false"
     units="mm"
     inkscape:snap-bbox="true"
     inkscape:snap-page="true"
     inkscape:bbox-nodes="false"
     inkscape:snap-bbox-edge-midpoints="false"
     inkscape:window-width="2560"
     inkscape:window-height="1369"
     inkscape:window-x="-8"
     inkscape:window-y="-8"
     inkscape:window-maximized="1"
     inkscape:snap-bbox-midpoints="true"
     inkscape:snap-nodes="false"
     inkscape:document-rotation="0"
     inkscape:showpageshadow="2"
     inkscape:pagecheckerboard="0"
     inkscape:deskcolor="#d1d1d1" />
  <metadata
     id="metadata5">
    <rdf:RDF>
      <cc:Work
         rdf:about="">
        <dc:format>image/svg+xml</dc:format>
        <dc:type
           rdf:resource="http://purl.org/dc/dcmitype/StillImage" />
      </cc:Work>
    </rdf:RDF>
  </metadata>
  <g
     inkscape:label="Background"
     inkscape:groupmode="layer"
     id="layer1"
     transform="translate(0,-168.49998)"
     style="display:inline">
    <rect
       style="display:inline;opacity:1;vector-effect:none;fill:#e8f1f2;fill-opacity:1;fill-rule:evenodd;stroke:none;stroke-width:0.649358;stroke-linecap:butt;stroke-linejoin:miter;stroke-miterlimit:4;stroke-dasharray:none;stroke-dashoffset:0;stroke-opacity:1;paint-order:normal"
       id="rect420"
       width="30.48"
       height="128.5"
       x="5.9211732e-17"
       y="168.49997" />
    <g
       aria-label="!"
       transform="matrix(1.1167128,-0.15549235,0.12836675,1.3252781,-2.30373,165.39159)"
       id="text912"
       style="font-style:normal;font-weight:normal;font-size:127.426px;line-height:1.25;font-family:sans-serif;display:inline;fill:#f7d31c;fill-opacity:1;stroke:none;stroke-width:3.18552;stroke-miterlimit:4;stroke-dasharray:none">
      <path
         d="M 17.007808,5.7176488 15.390095,72.852735 H 4.8127414 L 3.070589,5.7176488 Z M 16.385611,98.362823 H 3.6927863 V 85.234461 H 16.385611 Z"
         style="fill:#f7d31c;fill-opacity:1;stroke-width:3.18552;stroke-miterlimit:4;stroke-dasharray:none"
         id="path1767" />
    </g>
  </g>
  <g
     inkscape:label="Layer 1"
     inkscape:groupmode="layer"
     id="g1684"
     transform="translate(0,-168.49998)"
     style="display:inline;opacity:1">
    <g
       aria-label="-"
       id="text1760-3-2"
       style="font-size:10.5833px;line-height:1.25;font-family:sans-serif;word-spacing:0px;display:inline;opacity:1;stroke-width:0.264583"
       transform="translate(64.387058,176.58836)" />
    <rect
       style="display:inline;fill:#000000;fill-opacity:0.88755;stroke-width:0.373249;image-rendering:auto"
       id="rect652-6-3"
       width="26.48"
       height="15.13936"
       x="2"
       y="206.97424"
       ry="2.2658029"
       rx="2.2658029" />
    <rect
       style="display:inline;fill:#000000;fill-opacity:0.88755;stroke-width:0.205078;image-rendering:auto"
       id="rect652-6-3-4"
       width="16"
       height="7.5638828"
       x="2.381"
       y="197.36092"
       ry="2.2658029"
       rx="2.2658029" />
    <rect
       style="display:inline;fill:#000000;fill-opacity:0.88755;stroke-width:0.205077;image-rendering:auto"
       id="rect652-6-3-4-5"
       width="16"
       height="7.5638828"
       x="2.3812499"
       y="185.42212"
       ry="2.2658029"
       rx="2.2658029" />
    <path
       d="m 8.8097448,183.58606 q 0,0.1912 -0.07235,0.33761 -0.07235,0.14642 -0.194647,0.24116 -0.144694,0.11369 -0.318671,0.16192 -0.172254,0.0482 -0.439249,0.0482 h -0.909503 v -2.56487 h 0.759642 q 0.280775,0 0.420301,0.0207 0.139526,0.0207 0.266994,0.0861 0.141249,0.0741 0.204983,0.1912 0.06373,0.11541 0.06373,0.27733 0,0.18259 -0.09302,0.31178 -0.09302,0.12747 -0.248046,0.20499 v 0.0138 q 0.260104,0.0534 0.409966,0.22909 0.149861,0.17398 0.149861,0.44098 z m -0.573607,-1.15583 q 0,-0.093 -0.03101,-0.15675 -0.03101,-0.0637 -0.09991,-0.10336 -0.08096,-0.0465 -0.19637,-0.0568 -0.11541,-0.0121 -0.285942,-0.0121 h -0.40652 v 0.7407 h 0.440971 q 0.160197,0 0.254937,-0.0155 0.09474,-0.0172 0.175699,-0.0689 0.08096,-0.0517 0.113688,-0.13263 0.03445,-0.0827 0.03445,-0.19465 z m 0.218763,1.16961 q 0,-0.15503 -0.04651,-0.24633 -0.04651,-0.0913 -0.168809,-0.15503 -0.08268,-0.0431 -0.201538,-0.0551 -0.117133,-0.0138 -0.285942,-0.0138 h -0.535711 v 0.95429 h 0.451306 q 0.223931,0 0.366902,-0.0224 0.142971,-0.0241 0.234266,-0.0861 0.09646,-0.0672 0.141249,-0.15331 0.04479,-0.0861 0.04479,-0.2222 z m 2.5286942,0.77514 H 9.2937798 v -2.56487 h 1.6898152 v 0.30317 H 9.6348438 v 0.7028 h 1.3487512 v 0.30317 H 9.6348438 v 0.95256 h 1.3487512 z m 2.370221,-2.2617 h -0.916394 v 2.2617 h -0.341063 v -2.2617 h -0.916394 v -0.30317 h 2.173851 z m 3.329678,-0.30317 -0.666625,2.56487 h -0.384127 l -0.539156,-2.12906 -0.527099,2.12906 h -0.375514 l -0.678683,-2.56487 h 0.349677 l 0.539156,2.13251 0.530544,-2.13251 h 0.346231 l 0.535711,2.15318 0.535711,-2.15318 z m 2.192798,2.56487 h -1.689815 v -2.56487 h 1.689815 v 0.30317 H 17.52754 v 0.7028 h 1.348752 v 0.30317 H 17.52754 v 0.95256 h 1.348752 z m 2.230695,0 h -1.689816 v -2.56487 h 1.689816 v 0.30317 h -1.348752 v 0.7028 h 1.348752 v 0.30317 h -1.348752 v 0.95256 h 1.348752 z m 2.497688,0 h -0.422023 l -1.216116,-2.29443 v 2.29443 h -0.318671 v -2.56487 h 0.528821 l 1.109319,2.09462 v -2.09462 h 0.31867 z"
       id="text5"
       style="font-size:3.52777px;line-height:1.25;word-spacing:0px;stroke-width:0.264583"
       aria-label="BETWEEN" />
    <path
       d="m 13.803398,196.53688 h -0.363456 l -0.251492,-0.71485 h -1.109318 l -0.251492,0.71485 h -0.346231 l 0.933619,-2.56487 h 0.454752 z m -0.720023,-1.00769 -0.449584,-1.25918 -0.451307,1.25918 z m 3.066128,1.00769 H 15.72748 l -1.216116,-2.29443 v 2.29443 h -0.318671 v -2.56487 h 0.528821 l 1.109319,2.09462 v -2.09462 h 0.31867 z m 2.849088,-1.27985 q 0,0.34968 -0.153306,0.6339 -0.151584,0.28422 -0.404798,0.44097 -0.1757,0.10852 -0.39274,0.15675 -0.215318,0.0482 -0.56844,0.0482 h -0.647676 v -2.56487 h 0.640786 q 0.375515,0 0.596,0.0551 0.222208,0.0534 0.375515,0.14813 0.261827,0.16365 0.408243,0.43581 0.146416,0.27216 0.146416,0.64595 z m -0.356567,-0.005 q 0,-0.30144 -0.105075,-0.50815 -0.105075,-0.2067 -0.313503,-0.32556 -0.151584,-0.0861 -0.322116,-0.11885 -0.170531,-0.0344 -0.408242,-0.0344 h -0.320394 v 1.9792 h 0.320394 q 0.246323,0 0.428913,-0.0362 0.184312,-0.0362 0.337619,-0.13436 0.191202,-0.1223 0.285942,-0.32212 0.09646,-0.19981 0.09646,-0.49954 z"
       id="text7"
       style="font-size:3.52777px;line-height:1.25;word-spacing:0px;stroke-width:0.264583"
       aria-label="AND" />
    <rect
       style="display:inline;fill:#000000;fill-opacity:0.88755;stroke-width:0.220088"
       id="rect652-0"
       width="13"
       height="10.721942"
       x="15.610418"
       y="283.32913"
       ry="4.2203341"
       rx="4.2203341" />
    <path
       d="m 6.518566,174.25595 q 0,0.48955 -0.2146295,0.88746 -0.2122179,0.39791 -0.5667183,0.61736 -0.2459799,0.15193 -0.5498374,0.21945 -0.3014459,0.0675 -0.7958172,0.0675 H 3.4848142 v -3.59082 h 0.8971031 q 0.5257217,0 0.8344023,0.0772 0.3110922,0.0748 0.5257217,0.2074 0.3665582,0.22909 0.5715415,0.61012 0.2049832,0.38103 0.2049832,0.90434 z m -0.4991944,-0.007 q 0,-0.42203 -0.1471057,-0.71142 -0.1471056,-0.28938 -0.4389052,-0.45578 -0.2122179,-0.12058 -0.4509631,-0.1664 -0.2387452,-0.0482 -0.5715415,-0.0482 H 3.9623046 v 2.77089 h 0.4485515 q 0.3448542,0 0.6004803,-0.0506 0.2580377,-0.0507 0.4726672,-0.18811 0.267684,-0.17122 0.4003202,-0.45096 0.1350478,-0.27974 0.1350478,-0.69935 z m 1.721859,-1.34566 H 7.2299784 v -0.47025 h 0.5112522 z m -0.028939,3.14468 H 7.2589172 v -2.69372 h 0.4533746 z m 2.8215344,-0.77652 q 0,0.36897 -0.306269,0.6053 -0.303858,0.23634 -0.8319913,0.23634 -0.2990344,0 -0.5498374,-0.0699 -0.2483914,-0.0724 -0.4172011,-0.15675 v -0.50884 h 0.024116 q 0.2146295,0.16157 0.4774903,0.25804 0.2628608,0.0941 0.5040176,0.0941 0.2990343,0 0.4678441,-0.0965 0.1688098,-0.0965 0.1688098,-0.30386 0,-0.15917 -0.09164,-0.24116 -0.09164,-0.082 -0.3520888,-0.13987 -0.096463,-0.0217 -0.2532146,-0.0506 -0.1543403,-0.0289 -0.2821534,-0.0627 -0.3545004,-0.0941 -0.5040176,-0.27492 -0.1471056,-0.18328 -0.1471056,-0.44855 0,-0.1664 0.067524,-0.31351 0.069935,-0.1471 0.2098064,-0.26286 0.1350477,-0.11334 0.3424425,-0.17845 0.2098064,-0.0675 0.4678441,-0.0675 0.2411567,0 0.487137,0.0603 0.248391,0.0579 0.412378,0.14228 v 0.48473 h -0.02412 q -0.173633,-0.12781 -0.4220243,-0.21463 -0.2483915,-0.0892 -0.4871366,-0.0892 -0.2483915,0 -0.4196128,0.0965 -0.1712212,0.0941 -0.1712212,0.28216 0,0.1664 0.1036974,0.2508 0.1012858,0.0844 0.3279731,0.13746 0.1254015,0.0289 0.2797418,0.0579 0.1567519,0.0289 0.2604493,0.0531 0.3159153,0.0724 0.4871363,0.24839 0.171222,0.17846 0.171222,0.47267 z m 2.04742,0.75241 q -0.127813,0.0338 -0.279742,0.0555 -0.149517,0.0217 -0.267684,0.0217 -0.412378,0 -0.627007,-0.22186 -0.21463,-0.22187 -0.21463,-0.71142 v -1.43247 h -0.306269 v -0.38103 h 0.306269 v -0.77411 h 0.453375 v 0.77411 h 0.935688 v 0.38103 h -0.935688 v 1.22749 q 0,0.21222 0.0096,0.3328 0.0096,0.11816 0.06752,0.22186 0.05306,0.0965 0.144694,0.14228 0.09405,0.0434 0.284565,0.0434 0.110932,0 0.231511,-0.0314 0.120578,-0.0338 0.173632,-0.0555 h 0.02412 z m 2.228289,-2.17523 h -0.02412 q -0.101286,-0.0241 -0.197748,-0.0338 -0.09405,-0.012 -0.224276,-0.012 -0.209806,0 -0.405143,0.094 -0.195337,0.0916 -0.376205,0.23874 v 1.91237 h -0.453374 v -2.69372 h 0.453374 v 0.39791 q 0.270096,-0.21704 0.475079,-0.30627 0.207395,-0.0916 0.422024,-0.0916 0.118167,0 0.171222,0.007 0.05305,0.005 0.159163,0.0217 z m 0.913984,-0.94534 h -0.511252 v -0.47025 h 0.511252 z m -0.02894,3.14468 h -0.453374 v -2.69372 h 0.453374 z m 3.267674,-1.36735 q 0,0.33762 -0.09646,0.60771 -0.09405,0.2701 -0.255626,0.45338 -0.171221,0.19051 -0.376204,0.28697 -0.204984,0.0941 -0.450963,0.0941 -0.229099,0 -0.400321,-0.0555 -0.171221,-0.0531 -0.337619,-0.1447 l -0.02894,0.1254 h -0.424436 v -3.75239 h 0.453375 v 1.34083 q 0.190514,-0.15675 0.405143,-0.25563 0.21463,-0.10128 0.482314,-0.10128 0.47749,0 0.752409,0.36655 0.27733,0.36656 0.27733,1.03457 z m -0.467844,0.0121 q 0,-0.48231 -0.159163,-0.7307 -0.159164,-0.2508 -0.513664,-0.2508 -0.197749,0 -0.400321,0.0868 -0.202571,0.0844 -0.376204,0.21946 v 1.5434 q 0.192925,0.0868 0.330385,0.12058 0.139871,0.0338 0.315915,0.0338 0.376205,0 0.588422,-0.24598 0.21463,-0.24839 0.21463,-0.77653 z m 3.407544,1.3553 h -0.453375 v -0.29903 q -0.229099,0.18087 -0.438905,0.27733 -0.209807,0.0965 -0.463021,0.0965 -0.424436,0 -0.66077,-0.25803 -0.236333,-0.26045 -0.236333,-0.76206 v -1.74839 h 0.453374 v 1.53376 q 0,0.20498 0.01929,0.35209 0.01929,0.14469 0.08199,0.24839 0.06511,0.10611 0.16881,0.15434 0.103697,0.0482 0.301446,0.0482 0.176044,0 0.383439,-0.0916 0.209806,-0.0916 0.390674,-0.23392 v -2.01125 h 0.453375 z m 2.290988,-0.0241 q -0.127813,0.0338 -0.279742,0.0555 -0.149517,0.0217 -0.267683,0.0217 -0.412379,0 -0.627008,-0.22186 -0.214629,-0.22187 -0.214629,-0.71142 v -1.43247 h -0.30627 v -0.38103 h 0.30627 v -0.77411 h 0.453374 v 0.77411 h 0.935688 v 0.38103 h -0.935688 v 1.22749 q 0,0.21222 0.0096,0.3328 0.0096,0.11816 0.06752,0.22186 0.05306,0.0965 0.144694,0.14228 0.09405,0.0434 0.284565,0.0434 0.110932,0 0.231511,-0.0314 0.120578,-0.0338 0.173633,-0.0555 h 0.02411 z m 2.802243,-1.27572 h -1.98472 q 0,0.24839 0.07476,0.43408 0.07476,0.18328 0.204983,0.30145 0.125402,0.11575 0.296623,0.17363 0.173633,0.0579 0.381028,0.0579 0.274918,0 0.552248,-0.10852 0.279742,-0.11093 0.397909,-0.21704 h 0.02412 v 0.49437 q -0.229099,0.0965 -0.467844,0.16157 -0.238746,0.0651 -0.501606,0.0651 -0.670416,0 -1.046621,-0.36174 -0.376204,-0.36415 -0.376204,-1.03215 0,-0.66077 0.359323,-1.04903 0.361736,-0.38826 0.950158,-0.38826 0.545014,0 0.839225,0.31832 0.296623,0.31833 0.296623,0.90434 z m -0.441317,-0.34727 q -0.0024,-0.35691 -0.180867,-0.55224 -0.176045,-0.19534 -0.53778,-0.19534 -0.364146,0 -0.581187,0.21463 -0.21463,0.21463 -0.243569,0.53295 z"
       id="text4"
       style="font-size:4.93889px;line-height:1.25;-inkscape-font-specification:sans-serif;word-spacing:0px;stroke-width:0.264583"
       aria-label="Distribute" />
    <path
       d="m 3.8736631,234.00681 q 0,0.41961 -0.1839679,0.76067 -0.1819009,0.34107 -0.4857581,0.52917 -0.2108397,0.13022 -0.4712887,0.1881 -0.2583819,0.0579 -0.6821283,0.0579 H 1.2733072 v -3.07785 h 0.7689447 q 0.4506181,0 0.7152012,0.0662 0.2666502,0.0641 0.4506181,0.17776 0.3141925,0.19637 0.4898922,0.52297 0.1756997,0.32659 0.1756997,0.77515 z m -0.4278805,-0.006 q 0,-0.36173 -0.1260904,-0.60978 -0.1260904,-0.24804 -0.3762041,-0.39067 -0.1819009,-0.10335 -0.3865394,-0.14263 -0.2046385,-0.0413 -0.4898921,-0.0413 H 1.6825842 v 2.37505 h 0.3844724 q 0.2955889,0 0.5146968,-0.0434 0.2211749,-0.0434 0.4051429,-0.16123 0.2294431,-0.14676 0.3431312,-0.38654 0.1157551,-0.23978 0.1157551,-0.59945 z m 2.1745424,1.54203 H 4.4048964 v -0.3142 h 0.4030758 v -2.44946 H 4.4048964 v -0.31419 H 5.620325 v 0.31419 H 5.2172492 v 2.44946 H 5.620325 Z m 2.9331517,-0.87871 q 0,0.17983 -0.084749,0.35553 -0.082682,0.1757 -0.2335773,0.29766 -0.1653644,0.13229 -0.3865394,0.2067 -0.2191079,0.0744 -0.5291662,0.0744 -0.3327959,0 -0.5994461,-0.062 -0.2645831,-0.062 -0.5395015,-0.18397 v -0.51263 h 0.028939 q 0.2335773,0.1943 0.5395015,0.29972 0.3059242,0.10542 0.5746414,0.10542 0.3803382,0 0.5911779,-0.14263 0.2129067,-0.14262 0.2129067,-0.38033 0,-0.20464 -0.1012857,-0.30179 -0.099219,-0.0972 -0.3038572,-0.1509 -0.1550291,-0.0413 -0.33693,-0.0682 -0.1798338,-0.0269 -0.3824053,-0.0682 -0.409277,-0.0868 -0.6077143,-0.29559 -0.1963703,-0.21084 -0.1963703,-0.54777 0,-0.38654 0.3265948,-0.63252 0.3265948,-0.24805 0.8288893,-0.24805 0.3245277,0 0.595312,0.062 0.2707842,0.062 0.4795568,0.15296 v 0.4837 h -0.028939 q -0.1756998,-0.14883 -0.4630205,-0.24598 -0.2852536,-0.0992 -0.5849767,-0.0992 -0.3286618,0 -0.5291662,0.13642 -0.1984374,0.13643 -0.1984374,0.3514 0,0.19224 0.099219,0.30179 0.099219,0.10956 0.3493324,0.16743 0.1322916,0.0289 0.3762041,0.0703 0.2439126,0.0413 0.4134111,0.0848 0.3431312,0.0909 0.5167639,0.27492 0.1736327,0.18397 0.1736327,0.5147 z m 2.8525373,-1.83555 H 10.30634 v 2.71405 H 9.8970627 v -2.71405 H 8.7973894 v -0.3638 h 2.6086246 z"
       id="text6"
       style="font-size:4.23333px;line-height:1.25;-inkscape-font-specification:sans-serif;word-spacing:0px;stroke-width:0.264583"
       aria-label="DIST" />
    <path
       d="m 21.39145,234.5959 q 0,0.22945 -0.08682,0.40515 -0.08682,0.1757 -0.233577,0.28938 -0.173632,0.13643 -0.382405,0.19431 -0.206706,0.0579 -0.527099,0.0579 h -1.091406 v -3.07784 h 0.911572 q 0.33693,0 0.504361,0.0248 0.167432,0.0248 0.320394,0.10336 0.169499,0.0889 0.24598,0.22944 0.07648,0.13849 0.07648,0.3328 0,0.2191 -0.111621,0.37413 -0.111621,0.15296 -0.297656,0.24598 v 0.0165 q 0.312125,0.0641 0.491959,0.27492 0.179834,0.20877 0.179834,0.52916 z m -0.68833,-1.38699 q 0,-0.11162 -0.03721,-0.1881 -0.03721,-0.0765 -0.119889,-0.12403 -0.09715,-0.0558 -0.235644,-0.0682 -0.138493,-0.0145 -0.343131,-0.0145 H 19.47942 v 0.88883 h 0.529167 q 0.192236,0 0.305924,-0.0186 0.113688,-0.0207 0.21084,-0.0827 0.09715,-0.062 0.136425,-0.15916 0.04134,-0.0992 0.04134,-0.23358 z m 0.262516,1.40353 q 0,-0.18604 -0.05581,-0.29559 -0.05581,-0.10955 -0.202572,-0.18603 -0.09922,-0.0517 -0.241845,-0.0661 -0.14056,-0.0165 -0.343131,-0.0165 h -0.642855 v 1.14515 h 0.541569 q 0.268717,0 0.440283,-0.0269 0.171565,-0.0289 0.281119,-0.10335 0.115755,-0.0806 0.169499,-0.18397 0.05374,-0.10335 0.05374,-0.26665 z m 2.091861,0.93017 h -1.215429 v -0.31419 h 0.403076 v -2.44946 h -0.403076 v -0.31419 h 1.215429 v 0.31419 h -0.403076 v 2.44946 h 0.403076 z m 3.123321,0 h -0.436149 l -0.30179,-0.85782 h -1.331184 l -0.30179,0.85782 h -0.415478 l 1.120344,-3.07784 h 0.545703 z m -0.86403,-1.20922 -0.539501,-1.51102 -0.541569,1.51102 z m 3.547068,0.33073 q 0,0.17983 -0.08475,0.35553 -0.08268,0.1757 -0.233577,0.29766 -0.165365,0.13229 -0.38654,0.2067 -0.219108,0.0744 -0.529166,0.0744 -0.332796,0 -0.599446,-0.062 -0.264583,-0.062 -0.539502,-0.18396 v -0.51263 h 0.02894 q 0.233577,0.1943 0.539502,0.29972 0.305924,0.10542 0.574641,0.10542 0.380338,0 0.591178,-0.14263 0.212907,-0.14263 0.212907,-0.38034 0,-0.20464 -0.101286,-0.30179 -0.09922,-0.0971 -0.303857,-0.15089 -0.155029,-0.0413 -0.33693,-0.0682 -0.179834,-0.0269 -0.382406,-0.0682 -0.409277,-0.0868 -0.607714,-0.29559 -0.19637,-0.21084 -0.19637,-0.54777 0,-0.38654 0.326595,-0.63252 0.326594,-0.24804 0.828889,-0.24804 0.324528,0 0.595312,0.062 0.270784,0.062 0.479557,0.15296 v 0.48369 h -0.02894 q -0.1757,-0.14883 -0.46302,-0.24598 -0.285254,-0.0992 -0.584977,-0.0992 -0.328662,0 -0.529166,0.13643 -0.198438,0.13643 -0.198438,0.3514 0,0.19224 0.09922,0.30179 0.09922,0.10955 0.349332,0.16743 0.132292,0.0289 0.376204,0.0703 0.243913,0.0413 0.413412,0.0848 0.343131,0.0909 0.516763,0.27492 0.173633,0.18397 0.173633,0.5147 z"
       id="text8"
       style="font-size:4.23333px;line-height:1.25;-inkscape-font-specification:sans-serif;word-spacing:0px;stroke-width:0.264583"
       aria-label="BIAS" />
  </g>
  <g
     inkscape:groupmode="layer"
     id="layer2"
     inkscape:label="components"
     style="display:none">
    <circle
       style="display:inline;opacity:1;vector-effect:none;fill:#ff0000;fill-opacity:1;fill-rule:evenodd;stroke:none;stroke-width:1;stroke-linecap:butt;stroke-linejoin:miter;stroke-miterlimit:4;stroke-dasharray:none;stroke-dashoffset:0;stroke-opacity:1;paint-order:normal"
       id="path4954-3-0-2-9-0"
       cx="23.966999"
       cy="20.70417"
       r="4"
       inkscape:label="upper_limit" />
    <circle
       style="display:inline;vector-effect:none;fill:#ff0000;fill-opacity:1;fill-rule:evenodd;stroke:none;stroke-width:1;stroke-linecap:butt;stroke-linejoin:miter;stroke-miterlimit:4;stroke-dasharray:none;stroke-dashoffset:0;stroke-opacity:1;paint-order:normal"
       id="path4954-3-0-2-9-0-8"
       cx="23.966999"
       cy="32.643002"
       r="4"
       inkscape:label="lower_limit" />
    <circle
       style="display:inline;fill:#ff0000;fill-opacity:1;fill-rule:evenodd;stroke:none;stroke-width:1;stroke-linecap:butt;stroke-linejoin:miter;stroke-miterlimit:4;stroke-dasharray:none;stroke-dashoffset:0;stroke-opacity:1;paint-order:normal"
       id="path4954-3-0-2-9-0-9"
       cx="5.513"
       cy="58.677853"
       r="4"
       inkscape:label="distribution" />
    <circle
       style="display:inline;fill:#ff0000;fill-opacity:1;fill-rule:evenodd;stroke:none;stroke-width:1;stroke-linecap:butt;stroke-linejoin:miter;stroke-miterlimit:4;stroke-dasharray:none;stroke-dashoffset:0;stroke-opacity:1;paint-order:normal"
       id="path4954-3-0-2-9-0-9-8"
       cx="24.966999"
       cy="58.677853"
       r="4"
       inkscape:label="bias" />
    <circle
       style="display:inline;fill:#ff0000;fill-opacity:1;fill-rule:evenodd;stroke:none;stroke-width:1;stroke-linecap:butt;stroke-linejoin:miter;stroke-miterlimit:4;stroke-dasharray:none;stroke-dashoffset:0;stroke-opacity:1;paint-order:normal"
       id="path4954-3-0-2-9-0-9-8-4"
       cx="15.24"
       cy="58.677853"
       r="4"
       inkscape:label="leftright" />
    <circle
       style="display:inline;fill:#0000ff;fill-opacity:1;fill-rule:evenodd;stroke:none;stroke-width:1;stroke-linecap:butt;stroke-linejoin:miter;stroke-miterlimit:4;stroke-dasharray:none;stroke-dashoffset:0;stroke-opacity:1;paint-order:normal"
       id="circle4958-4-5-6"
       cx="22.256248"
       cy="119.8875"
       r="4"
       inkscape:label="out" />
    <circle
       r="4"
       cy="120.05303"
       cx="7.1910496"
       id="circle4956-3-4-8"
       style="display:inline;vector-effect:none;fill:#00ff00;fill-opacity:1;fill-rule:evenodd;stroke:none;stroke-width:1;stroke-linecap:butt;stroke-linejoin:miter;stroke-miterlimit:4;stroke-dasharray:none;stroke-dashoffset:0;stroke-opacity:1;paint-order:normal"
       inkscape:label="trig" />
  </g>
</svg>
