<?xml version="1.0" encoding="UTF-8" standalone="no"?>
<svg
   xmlns:osb="http://www.openswatchbook.org/uri/2009/osb"
   xmlns:dc="http://purl.org/dc/elements/1.1/"
   xmlns:cc="http://creativecommons.org/ns#"
   xmlns:rdf="http://www.w3.org/1999/02/22-rdf-syntax-ns#"
   xmlns:svg="http://www.w3.org/2000/svg"
   xmlns="http://www.w3.org/2000/svg"
   xmlns:sodipodi="http://sodipodi.sourceforge.net/DTD/sodipodi-0.dtd"
   xmlns:inkscape="http://www.inkscape.org/namespaces/inkscape"
   width="45.720001mm"
   height="128.5mm"
   viewBox="0 0 45.720005 128.50002"
   version="1.1"
   id="svg8"
   inkscape:version="1.0.1 (3bc2e813f5, 2020-09-07)"
   sodipodi:docname="Drifter.svg">
  <defs
     id="defs2">
    <linearGradient
       id="linearGradient2877"
       osb:paint="solid">
      <stop
         style="stop-color:#0000ff;stop-opacity:1;"
         offset="0"
         id="stop2875" />
    </linearGradient>
  </defs>
  <sodipodi:namedview
     id="base"
     pagecolor="#ffffff"
     bordercolor="#666666"
     borderopacity="1.0"
     inkscape:pageopacity="0.0"
     inkscape:pageshadow="2"
     inkscape:zoom="1.4"
     inkscape:cx="58.082586"
     inkscape:cy="237.42708"
     inkscape:document-units="mm"
     inkscape:current-layer="layer1"
     showgrid="false"
     units="mm"
     inkscape:snap-bbox="true"
     inkscape:snap-page="true"
     inkscape:bbox-nodes="false"
     inkscape:snap-bbox-edge-midpoints="false"
     inkscape:window-width="1302"
     inkscape:window-height="1000"
     inkscape:window-x="379"
     inkscape:window-y="40"
     inkscape:window-maximized="0"
     inkscape:snap-bbox-midpoints="true"
     inkscape:snap-nodes="false"
     inkscape:document-rotation="0" />
  <metadata
     id="metadata5">
    <rdf:RDF>
      <cc:Work
         rdf:about="">
        <dc:format>image/svg+xml</dc:format>
        <dc:type
           rdf:resource="http://purl.org/dc/dcmitype/StillImage" />
        <dc:title />
      </cc:Work>
    </rdf:RDF>
  </metadata>
  <g
     inkscape:groupmode="layer"
     id="layer3"
     inkscape:label="Background"
     style="display:inline">
    <rect
       style="display:inline;opacity:1;mix-blend-mode:normal;vector-effect:none;fill:#e8f1f2;fill-opacity:1;fill-rule:evenodd;stroke:none;stroke-width:0.794859;stroke-linecap:butt;stroke-linejoin:miter;stroke-miterlimit:4;stroke-dasharray:none;stroke-dashoffset:0;stroke-opacity:1;paint-order:normal"
       id="rect420"
       width="45.720001"
       height="128.5"
       x="5.9211732e-17"
       y="-1.0517578e-05" />
    <g
       aria-label="!"
       transform="matrix(1.3671122,-0.15549205,0.15715032,1.3252755,1.3824567,-3.1082607)"
       id="text912"
       style="font-style:normal;font-weight:normal;font-size:127.426px;line-height:1.25;font-family:sans-serif;display:inline;fill:#aeaeff;fill-opacity:1;stroke:none;stroke-width:3.18552;stroke-miterlimit:4;stroke-dasharray:none">
      <path
         d="M 17.007808,5.7176488 15.390095,72.852735 H 4.8127414 L 3.070589,5.7176488 Z M 16.385611,98.362823 H 3.6927863 V 85.234461 H 16.385611 Z"
         style="fill:#aeaeff;fill-opacity:1;stroke-width:3.18552;stroke-miterlimit:4;stroke-dasharray:none"
         id="path1767" />
    </g>
  </g>
  <g
     inkscape:label="Layer 1"
     inkscape:groupmode="layer"
     id="layer1"
     transform="translate(0,-168.49998)"
     style="display:inline">
    <g
       aria-label="COUNT"
       id="text1664"
       style="font-size:4.23333px;line-height:1.25;font-family:sans-serif;word-spacing:0px;stroke-width:0.264583"
       transform="translate(0.23120085)">
      <path
         d="m 32.083679,256.20761 q -0.113688,0.0496 -0.206706,0.093 -0.09095,0.0434 -0.239778,0.091 -0.126091,0.0393 -0.274919,0.0661 -0.146761,0.0289 -0.324527,0.0289 -0.334863,0 -0.609782,-0.093 -0.272851,-0.0951 -0.475423,-0.29559 -0.198437,-0.19637 -0.310058,-0.49816 -0.111621,-0.30386 -0.111621,-0.70487 0,-0.38033 0.107487,-0.68006 0.107487,-0.29972 0.310058,-0.50642 0.196371,-0.20051 0.473356,-0.30593 0.279053,-0.10542 0.61805,-0.10542 0.248046,0 0.494026,0.0599 0.248047,0.0599 0.549837,0.21084 v 0.48575 h -0.03101 q -0.254248,-0.2129 -0.504362,-0.31006 -0.250113,-0.0971 -0.535367,-0.0971 -0.233577,0 -0.421679,0.0765 -0.186035,0.0744 -0.332796,0.23358 -0.142627,0.15503 -0.223242,0.39274 -0.07855,0.23565 -0.07855,0.5457 0,0.32453 0.08682,0.55811 0.08888,0.23358 0.227376,0.38034 0.144694,0.15296 0.33693,0.22737 0.194303,0.0724 0.409277,0.0724 0.295589,0 0.553971,-0.10128 0.258382,-0.10129 0.483691,-0.30386 h 0.02894 z"
         style="font-size:4.23333px;stroke-width:0.264583"
         id="path1666" />
      <path
         d="m 34.956886,253.70647 q 0.188102,0.2067 0.287321,0.50643 0.101285,0.29972 0.101285,0.68006 0,0.38034 -0.103352,0.68213 -0.101286,0.29972 -0.285254,0.50022 -0.190169,0.20878 -0.450618,0.3142 -0.258382,0.10542 -0.591178,0.10542 -0.324528,0 -0.591178,-0.10749 -0.264583,-0.10749 -0.450618,-0.31213 -0.186035,-0.20463 -0.287321,-0.50229 -0.09922,-0.29766 -0.09922,-0.68006 0,-0.37621 0.09922,-0.67386 0.09922,-0.29973 0.289388,-0.51263 0.181901,-0.20257 0.450618,-0.31006 0.270784,-0.10749 0.589111,-0.10749 0.330729,0 0.593245,0.10956 0.264583,0.10748 0.448551,0.30799 z m -0.03721,1.18649 q 0,-0.59945 -0.268717,-0.92398 -0.268717,-0.32659 -0.733805,-0.32659 -0.469222,0 -0.737939,0.32659 -0.26665,0.32453 -0.26665,0.92398 0,0.60565 0.272851,0.92811 0.272852,0.32039 0.731738,0.32039 0.458886,0 0.729671,-0.32039 0.272851,-0.32246 0.272851,-0.92811 z"
         style="font-size:4.23333px;stroke-width:0.264583"
         id="path1668" />
      <path
         d="m 38.311717,255.19475 q 0,0.33486 -0.07441,0.58497 -0.07235,0.24805 -0.239778,0.41342 -0.159164,0.15709 -0.37207,0.22944 -0.212907,0.0724 -0.496094,0.0724 -0.289387,0 -0.504361,-0.0765 -0.214974,-0.0765 -0.361735,-0.2253 -0.167431,-0.1695 -0.241845,-0.40928 -0.07235,-0.23978 -0.07235,-0.58911 V 253.353 h 0.409277 v 1.86242 q 0,0.25011 0.03307,0.39481 0.03514,0.14469 0.115756,0.26251 0.09095,0.13436 0.245979,0.20257 0.157096,0.0682 0.376204,0.0682 0.221175,0 0.376204,-0.0661 0.15503,-0.0682 0.248047,-0.20464 0.08062,-0.11782 0.113688,-0.26872 0.03514,-0.15296 0.03514,-0.37827 V 253.353 h 0.409277 z"
         style="font-size:4.23333px;stroke-width:0.264583"
         id="path1670" />
      <path
         d="m 41.441239,256.43085 h -0.506428 l -1.459341,-2.75332 v 2.75332 H 39.093064 V 253.353 h 0.634586 l 1.331184,2.51354 V 253.353 h 0.382405 z"
         style="font-size:4.23333px;stroke-width:0.264583"
         id="path1672" />
      <path
         d="m 44.455006,253.7168 h -1.099673 v 2.71405 h -0.409277 v -2.71405 h -1.099674 v -0.3638 h 2.608624 z"
         style="font-size:4.23333px;stroke-width:0.264583"
         id="path1674" />
    </g>
    <g
       aria-label="IN"
       id="text922"
       style="font-size:4.93889px;line-height:1.25;font-family:sans-serif;word-spacing:0px;stroke-width:0.264583"
       transform="translate(5.8810463)">
      <path
         d="M 6.956603,290.6438 H 5.5386014 v -0.36656 H 6.008857 v -2.85771 H 5.5386014 v -0.36655 H 6.956603 v 0.36655 H 6.4863474 v 2.85771 H 6.956603 Z"
         style="font-size:4.93889px;stroke-width:0.264583"
         id="path928" />
      <path
         d="M 10.508842,290.6438 H 9.9180078 l -1.7025666,-3.21221 v 3.21221 H 7.7693013 v -3.59082 h 0.7403511 l 1.5530496,2.93246 v -2.93246 h 0.44614 z"
         style="font-size:4.93889px;stroke-width:0.264583"
         id="path930" />
    </g>
    <g
       aria-label="Drifter"
       id="text2470"
       style="font-style:normal;font-weight:normal;font-size:7.05556px;line-height:1.25;font-family:sans-serif;fill:#000000;fill-opacity:1;stroke:none;stroke-width:0.264583"
       transform="translate(7.6200004,-1.19996)">
      <path
         d="m 8.4755503,176.3353 q 0,0.69935 -0.3066137,1.26779 -0.3031686,0.56844 -0.8095979,0.88195 -0.3514,0.21704 -0.7854823,0.3135 -0.4306372,0.0965 -1.1368823,0.0965 H 4.1416174 v -5.12975 h 1.2815763 q 0.7510313,0 1.1920039,0.11025 0.4444176,0.10679 0.7510313,0.29628 0.5236548,0.32728 0.8164881,0.87161 0.2928333,0.54432 0.2928333,1.29191 z M 7.7624151,176.325 q 0,-0.60289 -0.210151,-1.0163 -0.2101509,-0.41341 -0.6270078,-0.65113 -0.3031685,-0.17225 -0.6442332,-0.23771 -0.3410647,-0.0689 -0.8164882,-0.0689 H 4.8237467 v 3.95842 h 0.6407882 q 0.492649,0 0.8578293,-0.0724 0.3686255,-0.0724 0.6752392,-0.26872 0.3824058,-0.2446 0.5718862,-0.64423 0.1929255,-0.39963 0.1929255,-0.99908 z"
         style="font-size:7.05556px;stroke-width:0.264583"
         id="path2472" />
      <path
         d="m 11.927538,175.75308 h -0.03445 q -0.144694,-0.0345 -0.282498,-0.0482 -0.134359,-0.0172 -0.320394,-0.0172 -0.299723,0 -0.578776,0.13436 -0.279053,0.13091 -0.537436,0.34106 v 2.7319 H 9.5263051 v -3.84817 h 0.6476779 v 0.56844 q 0.385851,-0.31006 0.678685,-0.43753 0.296278,-0.13091 0.602892,-0.13091 0.16881,0 0.244602,0.0103 0.07579,0.007 0.227376,0.031 z"
         style="font-size:7.05556px;stroke-width:0.264583"
         id="path2474" />
      <path
         d="M 13.233231,174.4026 H 12.50287 v -0.6718 h 0.730361 z m -0.04134,4.4924 h -0.647679 v -3.84817 h 0.647679 z"
         style="font-size:7.05556px;stroke-width:0.264583"
         id="path2476" />
      <path
         d="m 16.54397,174.16144 h -0.03445 q -0.106798,-0.031 -0.279053,-0.062 -0.172255,-0.0345 -0.303169,-0.0345 -0.416857,0 -0.606337,0.18603 -0.186035,0.18259 -0.186035,0.66491 v 0.13091 h 1.167888 v 0.54433 h -1.147218 v 3.30384 h -0.647678 v -3.30384 H 14.07039 v -0.54433 h 0.437528 v -0.12747 q 0,-0.68557 0.341064,-1.05075 0.341065,-0.36863 0.985298,-0.36863 0.217042,0 0.389296,0.0207 0.1757,0.0207 0.320395,0.0482 z"
         style="font-size:7.05556px;stroke-width:0.264583"
         id="path2478" />
      <path
         d="m 18.952092,178.86055 q -0.18259,0.0482 -0.399631,0.0792 -0.213596,0.031 -0.382406,0.031 -0.589112,0 -0.895725,-0.31695 -0.306614,-0.31695 -0.306614,-1.01631 v -2.04638 h -0.437527 v -0.54433 h 0.437527 v -1.10588 h 0.647678 v 1.10588 h 1.336698 v 0.54433 h -1.336698 v 1.75355 q 0,0.30317 0.01378,0.47542 0.01378,0.16881 0.09646,0.31695 0.07579,0.13781 0.206706,0.20326 0.134359,0.062 0.406522,0.062 0.158474,0 0.330729,-0.0448 0.172255,-0.0482 0.248047,-0.0792 h 0.03445 z"
         style="font-size:7.05556px;stroke-width:0.264583"
         id="path2480" />
      <path
         d="m 22.955296,177.0381 h -2.835315 q 0,0.35484 0.106798,0.62011 0.106798,0.26183 0.292833,0.43064 0.179145,0.16537 0.423747,0.24805 0.248047,0.0827 0.544326,0.0827 0.392741,0 0.788927,-0.15503 0.399631,-0.15847 0.568441,-0.31006 h 0.03445 v 0.70625 q -0.327284,0.1378 -0.668349,0.23082 -0.341065,0.093 -0.71658,0.093 -0.957737,0 -1.495173,-0.51677 -0.537435,-0.52021 -0.537435,-1.4745 0,-0.94396 0.51332,-1.49862 0.516764,-0.55466 1.357368,-0.55466 0.778592,0 1.198894,0.45475 0.423747,0.45476 0.423747,1.29192 z m -0.630453,-0.4961 q -0.0034,-0.50987 -0.258382,-0.78892 -0.251492,-0.27906 -0.768257,-0.27906 -0.52021,0 -0.830268,0.30662 -0.306614,0.30661 -0.347955,0.76136 z"
         style="font-size:7.05556px;stroke-width:0.264583"
         id="path2482" />
      <path
         d="m 26.338382,175.75308 h -0.03445 q -0.144694,-0.0345 -0.282498,-0.0482 -0.134359,-0.0172 -0.320394,-0.0172 -0.299724,0 -0.578776,0.13436 -0.279053,0.13091 -0.537436,0.34106 v 2.73196 H 23.93715 v -3.84817 h 0.647678 v 0.56844 q 0.385851,-0.31006 0.678685,-0.43753 0.296278,-0.13091 0.602892,-0.13091 0.168809,0 0.244602,0.0103 0.07579,0.007 0.227376,0.031 z"
         style="font-size:7.05556px;stroke-width:0.264583"
         id="path2484" />
    </g>
    <g
       aria-label="RESET"
       id="text924"
       style="font-style:normal;font-weight:normal;font-size:6.35px;line-height:1.25;font-family:sans-serif;fill:#000000;fill-opacity:1;stroke:none;stroke-width:0.264583"
       transform="matrix(0.76298421,0,0,0.76298421,3.6121204,111.28049)">
      <path
         d="M 9.0202249,211.21129 H 8.2233743 L 6.6792825,209.37574 H 5.8142191 v 1.83555 h -0.613916 v -4.61677 h 1.2929443 q 0.4185791,0 0.6976318,0.0558 0.2790527,0.0527 0.5022949,0.19223 0.2511475,0.15813 0.3906738,0.39998 0.142627,0.23874 0.142627,0.60771 0,0.4992 -0.2511475,0.83716 -0.2511474,0.33486 -0.6914306,0.5054 z m -1.4355713,-3.31763 q 0,-0.19844 -0.071314,-0.35036 -0.068213,-0.15503 -0.2294433,-0.26045 -0.1333252,-0.0899 -0.3162598,-0.12403 -0.1829345,-0.0372 -0.4309814,-0.0372 h -0.722436 v 1.74252 h 0.6201172 q 0.291455,0 0.508496,-0.0496 0.2170411,-0.0527 0.3689698,-0.19224 0.1395263,-0.13023 0.2046386,-0.29766 0.068213,-0.17053 0.068213,-0.43098 z"
         style="font-size:6.35px;stroke-width:0.264583"
         id="path927" />
      <path
         d="M 12.657212,211.21129 H 9.6155372 v -4.61677 h 3.0416748 v 0.5457 h -2.427759 v 1.26504 h 2.427759 v 0.5457 h -2.427759 v 1.71463 h 2.427759 z"
         style="font-size:6.35px;stroke-width:0.264583"
         id="path929" />
      <path
         d="m 16.985629,209.89354 q 0,0.26975 -0.127124,0.5333 -0.124023,0.26355 -0.350366,0.44648 -0.248047,0.19844 -0.579809,0.31006 -0.328662,0.11162 -0.79375,0.11162 -0.499195,0 -0.89917,-0.093 -0.396875,-0.093 -0.809253,-0.27596 v -0.76894 h 0.04341 q 0.350366,0.29145 0.809253,0.44958 0.458887,0.15813 0.861963,0.15813 0.570508,0 0.886767,-0.21394 0.319361,-0.21394 0.319361,-0.5705 0,-0.30696 -0.151929,-0.45269 -0.148828,-0.14573 -0.455786,-0.22634 -0.232544,-0.062 -0.505396,-0.10232 -0.269751,-0.0403 -0.573608,-0.10232 -0.613916,-0.13023 -0.911572,-0.44338 -0.294556,-0.31626 -0.294556,-0.82166 0,-0.57981 0.489893,-0.94878 0.489892,-0.37207 1.243335,-0.37207 0.486792,0 0.892968,0.093 0.406177,0.093 0.719336,0.22944 v 0.72554 h -0.04341 q -0.26355,-0.22324 -0.694531,-0.36897 -0.427881,-0.14883 -0.877466,-0.14883 -0.492993,0 -0.79375,0.20464 -0.297656,0.20464 -0.297656,0.5271 0,0.28835 0.148828,0.45268 0.148828,0.16434 0.523999,0.25115 0.198437,0.0434 0.564307,0.10542 0.365869,0.062 0.620117,0.12713 0.514697,0.13642 0.775146,0.41237 0.260449,0.27596 0.260449,0.77205 z"
         style="font-size:6.35px;stroke-width:0.264583"
         id="path931" />
      <path
         d="m 21.013291,211.21129 h -3.041675 v -4.61677 h 3.041675 v 0.5457 h -2.427759 v 1.26504 h 2.427759 v 0.5457 h -2.427759 v 1.71463 h 2.427759 z"
         style="font-size:6.35px;stroke-width:0.264583"
         id="path933" />
      <path
         d="m 25.279697,207.14022 h -1.649512 v 4.07107 h -0.613916 v -4.07107 h -1.649512 v -0.5457 h 3.91294 z"
         style="font-size:6.35px;stroke-width:0.264583"
         id="path935" />
    </g>
    <rect
       style="fill:#000000;fill-opacity:0.88755;stroke-width:0.244442"
       id="rect652"
       width="16.036171"
       height="10.721942"
       x="19.779062"
       y="275.1405"
       ry="4.2203341" />
    <g
       aria-label="OFST"
       id="text902"
       style="font-style:normal;font-weight:normal;font-size:3.52778px;line-height:1.25;font-family:sans-serif;fill:#000000;fill-opacity:1;stroke:none;stroke-width:0.264583"
       transform="translate(29.490318,28.72619)">
      <path
         d="m 5.1965038,192.68934 q 0.1567519,0.17225 0.2394343,0.42202 0.084405,0.24977 0.084405,0.56672 0,0.31695 -0.086128,0.56844 -0.084405,0.24977 -0.2377117,0.41686 -0.1584745,0.17397 -0.3755157,0.26182 -0.2153186,0.0879 -0.492649,0.0879 -0.2704401,0 -0.4926489,-0.0896 -0.2204863,-0.0896 -0.3755157,-0.2601 -0.1550294,-0.17053 -0.2394343,-0.41858 -0.082682,-0.24805 -0.082682,-0.56672 0,-0.3135 0.082682,-0.56155 0.082682,-0.24977 0.2411569,-0.42719 0.1515843,-0.16881 0.3755156,-0.25839 0.2256539,-0.0896 0.4909264,-0.0896 0.2756079,0 0.4943716,0.0913 0.2204862,0.0896 0.3737931,0.25666 z m -0.031006,0.98874 q 0,-0.49954 -0.2239314,-0.76998 -0.2239313,-0.27216 -0.6115048,-0.27216 -0.3910186,0 -0.6149499,0.27216 -0.2222088,0.27044 -0.2222088,0.76998 0,0.50471 0.2273764,0.77342 0.2273765,0.267 0.6097823,0.267 0.3824058,0 0.6080597,-0.267 0.2273765,-0.26871 0.2273765,-0.77342 z"
         style="font-size:3.52778px;stroke-width:0.264583"
         id="path904" />
      <path
         d="M 7.6993672,192.69795 H 6.4022879 v 0.72347 H 7.516777 v 0.30317 H 6.4022879 v 1.23507 H 6.0612232 v -2.56488 h 1.638144 z"
         style="font-size:3.52778px;stroke-width:0.264583"
         id="path906" />
      <path
         d="m 9.9524611,194.22757 q 0,0.14986 -0.070625,0.29628 -0.068902,0.14642 -0.194648,0.24805 -0.1378039,0.11024 -0.3221166,0.17225 -0.1825902,0.062 -0.4409725,0.062 -0.2773304,0 -0.4995392,-0.0517 -0.2204863,-0.0517 -0.4495853,-0.15331 v -0.42719 h 0.024116 q 0.1946481,0.16192 0.4495853,0.24977 0.2549372,0.0879 0.4788686,0.0879 0.316949,0 0.4926489,-0.11886 0.1774226,-0.11885 0.1774226,-0.31695 0,-0.17053 -0.084405,-0.25149 -0.082682,-0.081 -0.2532147,-0.12574 -0.1291912,-0.0345 -0.2807755,-0.0568 -0.1498617,-0.0224 -0.3186715,-0.0568 -0.3410647,-0.0724 -0.5064294,-0.24633 -0.1636421,-0.1757 -0.1636421,-0.45647 0,-0.32212 0.2721627,-0.5271 0.2721627,-0.20671 0.6907421,-0.20671 0.2704402,0 0.4960941,0.0517 0.2256539,0.0517 0.3996313,0.12747 v 0.40307 h -0.024116 q -0.1464166,-0.12402 -0.3858509,-0.20498 -0.2377118,-0.0827 -0.4874814,-0.0827 -0.2738852,0 -0.4409725,0.11369 -0.1653646,0.11368 -0.1653646,0.29283 0,0.1602 0.082682,0.25149 0.082682,0.0913 0.2911108,0.13953 0.1102431,0.0241 0.3135038,0.0586 0.2032608,0.0345 0.3445098,0.0706 0.2859431,0.0758 0.4306372,0.2291 0.1446941,0.1533 0.1446941,0.42891 z"
         style="font-size:3.52778px;stroke-width:0.264583"
         id="path908" />
      <path
         d="m 12.329579,192.69795 h -0.916396 v 2.26171 h -0.341065 v -2.26171 h -0.916396 v -0.30317 h 2.173857 z"
         style="font-size:3.52778px;stroke-width:0.264583"
         id="path910" />
    </g>
    <g
       aria-label="ENDS"
       id="text948"
       style="font-style:normal;font-weight:normal;font-size:3.52778px;line-height:1.25;font-family:sans-serif;fill:#000000;fill-opacity:1;stroke:none;stroke-width:0.264583"
       transform="translate(14.766912,-29.102875)">
      <path
         d="m 19.421232,269.23065 h -1.68982 v -2.56487 h 1.68982 v 0.30317 h -1.348756 v 0.7028 h 1.348756 v 0.30316 h -1.348756 v 0.95257 h 1.348756 z"
         style="font-size:3.52778px;stroke-width:0.264583"
         id="path969" />
      <path
         d="m 21.918928,269.23065 h -0.422025 l -1.216119,-2.29443 v 2.29443 h -0.318672 v -2.56487 h 0.528823 l 1.109321,2.09462 v -2.09462 h 0.318672 z"
         style="font-size:3.52778px;stroke-width:0.264583"
         id="path971" />
      <path
         d="m 24.768024,267.9508 q 0,0.34968 -0.153307,0.6339 -0.151584,0.28422 -0.404799,0.44097 -0.1757,0.10852 -0.392741,0.15675 -0.215319,0.0482 -0.568441,0.0482 h -0.647679 v -2.56487 h 0.640788 q 0.375516,0 0.596002,0.0551 0.222209,0.0534 0.375516,0.14814 0.261827,0.16364 0.408244,0.4358 0.146417,0.27216 0.146417,0.64596 z m -0.356568,-0.005 q 0,-0.30145 -0.105075,-0.50815 -0.105076,-0.20671 -0.313504,-0.32556 -0.151585,-0.0861 -0.322117,-0.11886 -0.170532,-0.0344 -0.408244,-0.0344 h -0.320394 v 1.97921 h 0.320394 q 0.246324,0 0.428915,-0.0362 0.184312,-0.0362 0.337619,-0.13436 0.191203,-0.1223 0.285943,-0.32212 0.09646,-0.19982 0.09646,-0.49954 z"
         style="font-size:3.52778px;stroke-width:0.264583"
         id="path973" />
      <path
         d="m 27.183037,268.49857 q 0,0.14986 -0.07062,0.29628 -0.0689,0.14641 -0.194648,0.24804 -0.137804,0.11025 -0.322117,0.17226 -0.18259,0.062 -0.440972,0.062 -0.277331,0 -0.49954,-0.0517 -0.220486,-0.0517 -0.449585,-0.1533 v -0.42719 h 0.02412 q 0.194648,0.16191 0.449585,0.24976 0.254937,0.0879 0.478869,0.0879 0.316949,0 0.492649,-0.11885 0.177422,-0.11886 0.177422,-0.31695 0,-0.17053 -0.08441,-0.25149 -0.08268,-0.081 -0.253214,-0.12575 -0.129192,-0.0344 -0.280776,-0.0568 -0.149862,-0.0224 -0.318671,-0.0568 -0.341065,-0.0723 -0.50643,-0.24632 -0.163642,-0.1757 -0.163642,-0.45648 0,-0.32211 0.272163,-0.5271 0.272162,-0.2067 0.690742,-0.2067 0.27044,0 0.496094,0.0517 0.225654,0.0517 0.399631,0.12747 v 0.40308 h -0.02412 q -0.146417,-0.12402 -0.385851,-0.20498 -0.237712,-0.0827 -0.487482,-0.0827 -0.273885,0 -0.440972,0.11369 -0.165365,0.11369 -0.165365,0.29284 0,0.16019 0.08268,0.25149 0.08268,0.0913 0.291111,0.13952 0.110243,0.0241 0.313504,0.0586 0.203261,0.0344 0.34451,0.0706 0.285943,0.0758 0.430637,0.2291 0.144694,0.15331 0.144694,0.42892 z"
         style="font-size:3.52778px;stroke-width:0.264583"
         id="path975" />
    </g>
    <g
       aria-label="DRIFT"
       id="text940"
       style="font-style:normal;font-weight:normal;font-size:6.35px;line-height:1.25;font-family:sans-serif;fill:#000000;fill-opacity:1;stroke:none;stroke-width:0.264583"
       transform="matrix(0.71345593,0,0,0.71345593,4.3669315,92.63512)">
      <path
         d="m 9.6325908,227.42838 q 0,0.62942 -0.2759521,1.14102 -0.2728516,0.51159 -0.7286377,0.79375 -0.3162598,0.19533 -0.7069336,0.28215 -0.3875732,0.0868 -1.0231934,0.0868 H 5.7320537 v -4.61678 h 1.153418 q 0.6759277,0 1.0728027,0.0992 0.3999756,0.0961 0.6759277,0.26665 0.4712891,0.29456 0.7348389,0.78445 0.2635498,0.48989 0.2635498,1.16272 z m -0.6418213,-0.009 q 0,-0.5426 -0.1891357,-0.91467 -0.1891358,-0.37207 -0.5643067,-0.58601 -0.2728515,-0.15503 -0.5798095,-0.21394 -0.306958,-0.062 -0.7348389,-0.062 H 6.3459698 v 3.56258 h 0.5767089 q 0.4433838,0 0.7720459,-0.0651 0.3317627,-0.0651 0.6077149,-0.24184 0.344165,-0.22014 0.5146972,-0.57981 0.1736328,-0.35967 0.1736328,-0.89917 z"
         style="font-size:6.35px;stroke-width:0.264583"
         id="path946" />
      <path
         d="m 14.4447,229.73212 h -0.79685 l -1.544092,-1.83555 h -0.865064 v 1.83555 h -0.613916 v -4.61678 h 1.292945 q 0.418579,0 0.697631,0.0558 0.279053,0.0527 0.502295,0.19224 0.251148,0.15813 0.390674,0.39998 0.142627,0.23874 0.142627,0.60771 0,0.4992 -0.251147,0.83716 -0.251148,0.33486 -0.691431,0.5054 z m -1.435571,-3.31763 q 0,-0.19844 -0.07131,-0.35037 -0.06821,-0.15503 -0.229443,-0.26045 -0.133325,-0.0899 -0.31626,-0.12402 -0.182934,-0.0372 -0.430981,-0.0372 h -0.722437 v 1.74253 h 0.620117 q 0.291456,0 0.508497,-0.0496 0.217041,-0.0527 0.368969,-0.19223 0.139527,-0.13023 0.204639,-0.29766 0.06821,-0.17053 0.06821,-0.43098 z"
         style="font-size:6.35px;stroke-width:0.264583"
         id="path948" />
      <path
         d="m 16.66782,229.73212 h -1.823145 v -0.47129 h 0.604615 v -3.6742 h -0.604615 v -0.47129 h 1.823145 v 0.47129 h -0.604614 v 3.6742 h 0.604614 z"
         style="font-size:6.35px;stroke-width:0.264583"
         id="path951" />
      <path
         d="m 20.661374,225.66105 h -2.334741 v 1.30224 h 2.006079 v 0.54571 h -2.006079 v 2.22312 h -0.613916 v -4.61678 h 2.948657 z"
         style="font-size:6.35px;stroke-width:0.264583"
         id="path953" />
      <path
         d="m 24.747946,225.66105 h -1.649512 v 4.07107 h -0.613916 v -4.07107 h -1.649511 v -0.54571 h 3.912939 z"
         style="font-size:6.35px;stroke-width:0.264583"
         id="path955" />
    </g>
    <g
       aria-label="OUT"
       id="text926"
       style="font-size:4.93889px;line-height:1.25;font-family:sans-serif;word-spacing:0px;stroke-width:0.264583"
       transform="translate(5.8810463)">
      <path
         d="m 19.663698,287.5201 q 0.219453,0.24116 0.335208,0.59084 0.118167,0.34967 0.118167,0.7934 0,0.44373 -0.120578,0.79582 -0.118167,0.34968 -0.332797,0.5836 -0.221864,0.24357 -0.525721,0.36656 -0.301446,0.12299 -0.689708,0.12299 -0.378617,0 -0.689709,-0.12541 -0.30868,-0.1254 -0.525721,-0.36414 -0.217042,-0.23875 -0.335208,-0.58601 -0.115756,-0.34727 -0.115756,-0.79341 0,-0.4389 0.115756,-0.78617 0.115755,-0.34968 0.337619,-0.59807 0.212218,-0.23633 0.525722,-0.36173 0.315915,-0.12541 0.687297,-0.12541 0.38585,0 0.692119,0.12782 0.308681,0.1254 0.52331,0.35932 z m -0.04341,1.38424 q 0,-0.69935 -0.313504,-1.07797 -0.313503,-0.38103 -0.856106,-0.38103 -0.547426,0 -0.860929,0.38103 -0.311093,0.37862 -0.311093,1.07797 0,0.70659 0.318327,1.08279 0.318327,0.3738 0.853695,0.3738 0.535368,0 0.851283,-0.3738 0.318327,-0.3762 0.318327,-1.08279 z"
         style="font-size:4.93889px;stroke-width:0.264583"
         id="path934" />
      <path
         d="m 23.577672,289.25643 q 0,0.39067 -0.08682,0.68247 -0.08441,0.28939 -0.279742,0.48232 -0.185691,0.18328 -0.434082,0.26768 -0.248391,0.0844 -0.578776,0.0844 -0.33762,0 -0.588423,-0.0892 -0.250803,-0.0892 -0.422024,-0.26286 -0.195337,-0.19775 -0.282153,-0.47749 -0.08441,-0.27975 -0.08441,-0.6873 v -2.14871 h 0.47749 v 2.17283 q 0,0.2918 0.03859,0.46061 0.041,0.1688 0.135048,0.30626 0.106109,0.15676 0.286977,0.23634 0.183279,0.0796 0.438905,0.0796 0.258038,0 0.438905,-0.0772 0.180868,-0.0796 0.289388,-0.23875 0.09405,-0.13746 0.132636,-0.3135 0.041,-0.17846 0.041,-0.44132 v -2.18488 h 0.47749 z"
         style="font-size:4.93889px;stroke-width:0.264583"
         id="path936" />
      <path
         d="m 27.050329,287.53216 h -1.282954 v 3.16639 h -0.47749 v -3.16639 h -1.282954 v -0.42444 h 3.043398 z"
         style="font-size:4.93889px;stroke-width:0.264583"
         id="path938" />
    </g>
    <g
       aria-label="STYLE"
       id="text943"
       style="font-size:4.23333px;line-height:1.25;font-family:sans-serif;word-spacing:0px;stroke-width:0.264583"
       transform="translate(15.308036,1.8444579)">
      <path
         d="m 17.975259,269.48606 q 0,0.17984 -0.08475,0.35554 -0.08268,0.1757 -0.233577,0.29765 -0.165364,0.1323 -0.386539,0.20671 -0.219108,0.0744 -0.529166,0.0744 -0.332796,0 -0.599447,-0.062 -0.264583,-0.062 -0.539501,-0.18397 v -0.51263 h 0.02894 q 0.233577,0.19431 0.539501,0.29973 0.305924,0.10542 0.574642,0.10542 0.380338,0 0.591178,-0.14263 0.212906,-0.14263 0.212906,-0.38034 0,-0.20464 -0.101285,-0.30179 -0.09922,-0.0971 -0.303858,-0.15089 -0.155029,-0.0413 -0.33693,-0.0682 -0.179833,-0.0269 -0.382405,-0.0682 -0.409277,-0.0868 -0.607714,-0.29559 -0.196371,-0.21084 -0.196371,-0.54777 0,-0.38654 0.326595,-0.63252 0.326595,-0.24804 0.82889,-0.24804 0.324527,0 0.595312,0.062 0.270784,0.062 0.479556,0.15296 v 0.48369 h -0.02894 q -0.1757,-0.14883 -0.463021,-0.24598 -0.285253,-0.0992 -0.584977,-0.0992 -0.328661,0 -0.529166,0.13643 -0.198437,0.13642 -0.198437,0.3514 0,0.19223 0.09922,0.30179 0.09922,0.10955 0.349332,0.16743 0.132292,0.0289 0.376204,0.0703 0.243913,0.0413 0.413411,0.0848 0.343131,0.0909 0.516764,0.27492 0.173633,0.18397 0.173633,0.51469 z"
         style="font-size:4.23333px;stroke-width:0.264583"
         id="path945" />
      <path
         d="m 20.827795,267.65052 h -1.099673 v 2.71404 h -0.409277 v -2.71404 h -1.099674 v -0.3638 h 2.608624 z"
         style="font-size:4.23333px;stroke-width:0.264583"
         id="path947" />
      <path
         d="m 23.419883,267.28672 -1.083137,1.72806 v 1.34978 h -0.409277 v -1.30638 l -1.087271,-1.77146 h 0.452685 l 0.841292,1.37666 0.849559,-1.37666 z"
         style="font-size:4.23333px;stroke-width:0.264583"
         id="path949" />
      <path
         d="m 25.792863,270.36456 h -1.947167 v -3.07784 h 0.409277 v 2.71404 h 1.53789 z"
         style="font-size:4.23333px;stroke-width:0.264583"
         id="path957" />
      <path
         d="M 28.229921,270.36456 H 26.20214 v -3.07784 h 2.027781 v 0.3638 h -1.618504 v 0.84336 h 1.618504 v 0.3638 h -1.618504 v 1.14308 h 1.618504 z"
         style="font-size:4.23333px;stroke-width:0.264583"
         id="path959" />
    </g>
    <path
       style="fill:#000000;fill-opacity:1;stroke:#000000;stroke-width:0.0949556;stroke-miterlimit:4;stroke-dasharray:none;stroke-opacity:1"
       id="path923"
       sodipodi:type="arc"
       sodipodi:cx="37.224136"
       sodipodi:cy="258.82114"
       sodipodi:rx="0.45252839"
       sodipodi:ry="0.45253617"
       sodipodi:start="0.36229666"
       sodipodi:end="0.35175191"
       sodipodi:arc-type="slice"
       d="m 37.647289,258.98153 a 0.45252839,0.45253617 0 0 1 -0.582423,0.26319 0.45252839,0.45253617 0 0 1 -0.264722,-0.58174 0.45252839,0.45253617 0 0 1 0.581027,-0.26626 0.45252839,0.45253617 0 0 1 0.267786,0.58033 l -0.424821,-0.15591 z" />
    <path
       style="display:inline;fill:#000000;fill-opacity:1;stroke:#000000;stroke-width:0.0949555;stroke-miterlimit:4;stroke-dasharray:none;stroke-opacity:1"
       id="path923-3"
       sodipodi:type="arc"
       sodipodi:cx="41.166359"
       sodipodi:cy="260.85632"
       sodipodi:rx="0.45252839"
       sodipodi:ry="0.45253617"
       sodipodi:start="0.36229666"
       sodipodi:end="0.35175191"
       sodipodi:arc-type="slice"
       d="m 41.589512,261.01671 a 0.45252839,0.45253617 0 0 1 -0.582423,0.26319 0.45252839,0.45253617 0 0 1 -0.264722,-0.58173 0.45252839,0.45253617 0 0 1 0.581027,-0.26626 0.45252839,0.45253617 0 0 1 0.267785,0.58033 l -0.42482,-0.15592 z" />
    <path
       style="display:inline;fill:#000000;fill-opacity:1;stroke:#000000;stroke-width:0.0949555;stroke-miterlimit:4;stroke-dasharray:none;stroke-opacity:1"
       id="path923-3-2"
       sodipodi:type="arc"
       sodipodi:cx="33.282036"
       sodipodi:cy="260.85632"
       sodipodi:rx="0.45252839"
       sodipodi:ry="0.45253617"
       sodipodi:start="0.36229666"
       sodipodi:end="0.35175191"
       sodipodi:arc-type="slice"
       d="m 33.705188,261.01671 a 0.45252839,0.45253617 0 0 1 -0.582422,0.26319 0.45252839,0.45253617 0 0 1 -0.264723,-0.58173 0.45252839,0.45253617 0 0 1 0.581028,-0.26626 0.45252839,0.45253617 0 0 1 0.267785,0.58033 l -0.42482,-0.15592 z" />
    <g
       aria-label="TOTAL DRIFT"
       id="text1700"
       style="font-size:4.23333px;line-height:1.25;font-family:sans-serif;word-spacing:0px;display:inline;stroke-width:0.264583"
       transform="translate(0,168.49998)">
      <path
         d="M 5.0654725,69.101432 H 3.9657989 v 2.714043 H 3.5565219 V 69.101432 H 2.4568484 V 68.73763 h 2.6086241 z"
         style="font-size:4.23333px;stroke-width:0.264583"
         id="path1719" />
      <path
         d="m 7.6699626,69.091096 q 0.188102,0.206706 0.2873207,0.506429 0.1012857,0.299723 0.1012857,0.680061 0,0.380338 -0.1033527,0.682128 -0.1012858,0.299724 -0.2852537,0.500228 -0.1901691,0.208773 -0.4506181,0.314192 -0.258382,0.10542 -0.5911779,0.10542 -0.3245277,0 -0.5911779,-0.107487 -0.2645831,-0.107487 -0.4506181,-0.312125 -0.186035,-0.204639 -0.2873207,-0.502295 -0.099219,-0.297656 -0.099219,-0.680061 0,-0.376204 0.099219,-0.67386 0.099219,-0.299723 0.2893878,-0.51263 0.1819008,-0.202571 0.4506181,-0.310058 0.2707842,-0.107487 0.5891108,-0.107487 0.3307289,0 0.5932449,0.109554 0.2645831,0.107487 0.4485511,0.307991 z m -0.037207,1.18649 q 0,-0.599446 -0.2687172,-0.923974 -0.2687173,-0.326594 -0.7338048,-0.326594 -0.4692216,0 -0.7379388,0.326594 -0.2666501,0.324528 -0.2666501,0.923974 0,0.605647 0.2728513,0.928108 0.2728513,0.320394 0.7317376,0.320394 0.4588864,0 0.7296707,-0.320394 0.2728513,-0.322461 0.2728513,-0.928108 z"
         style="font-size:4.23333px;stroke-width:0.264583"
         id="path1721" />
      <path
         d="M 10.799485,69.101432 H 9.6998111 v 2.714043 H 9.2905341 V 69.101432 H 8.1908605 V 68.73763 h 2.6086245 z"
         style="font-size:4.23333px;stroke-width:0.264583"
         id="path1723" />
      <path
         d="m 13.391572,71.815475 h -0.436149 l -0.30179,-0.857828 h -1.331184 l -0.30179,0.857828 h -0.415478 l 1.120344,-3.077845 h 0.545703 z m -0.864029,-1.209227 -0.539502,-1.511018 -0.541568,1.511018 z"
         style="font-size:4.23333px;stroke-width:0.264583"
         id="path1725" />
      <path
         d="M 15.805893,71.815475 H 13.858727 V 68.73763 h 0.409277 v 2.714044 h 1.537889 z"
         style="font-size:4.23333px;stroke-width:0.264583"
         id="path1727" />
      <path
         d="m 20.303806,70.279653 q 0,0.419612 -0.183968,0.760677 -0.181901,0.341064 -0.485758,0.529166 -0.210839,0.130224 -0.471288,0.188102 -0.258382,0.05788 -0.682129,0.05788 H 17.70345 V 68.73763 h 0.768945 q 0.450618,0 0.715201,0.06615 0.26665,0.06408 0.450618,0.177766 0.314193,0.196371 0.489893,0.522965 0.175699,0.326595 0.175699,0.775146 z m -0.42788,-0.0062 q 0,-0.361735 -0.126091,-0.609781 -0.12609,-0.248047 -0.376204,-0.390674 -0.181901,-0.103353 -0.386539,-0.142627 -0.204639,-0.04134 -0.489892,-0.04134 h -0.384473 v 2.375047 H 18.4972 q 0.295589,0 0.514697,-0.04341 0.221175,-0.04341 0.405142,-0.16123 0.229444,-0.146761 0.343132,-0.38654 0.115755,-0.239778 0.115755,-0.599446 z"
         style="font-size:4.23333px;stroke-width:0.264583"
         id="path1729" />
      <path
         d="M 23.511877,71.815475 H 22.980644 L 21.95125,70.591779 h -0.576708 v 1.223696 H 20.965265 V 68.73763 h 0.861962 q 0.279052,0 0.465087,0.03721 0.186035,0.03514 0.334863,0.128157 0.167432,0.10542 0.260449,0.26665 0.09508,0.159164 0.09508,0.405143 0,0.332796 -0.167432,0.558105 -0.167431,0.223242 -0.460953,0.33693 z M 22.55483,69.603726 q 0,-0.132292 -0.04754,-0.233577 -0.04547,-0.103353 -0.152962,-0.173633 -0.08888,-0.05994 -0.21084,-0.08268 -0.121956,-0.02481 -0.287321,-0.02481 h -0.481623 v 1.161685 h 0.413411 q 0.194303,0 0.338997,-0.03307 0.144694,-0.03514 0.245979,-0.128158 0.09302,-0.08682 0.136426,-0.198437 0.04547,-0.113688 0.04547,-0.287321 z"
         style="font-size:4.23333px;stroke-width:0.264583"
         id="path1731" />
      <path
         d="m 24.993956,71.815475 h -1.215429 v -0.314192 h 0.403076 V 69.051822 H 23.778527 V 68.73763 h 1.215429 v 0.314192 H 24.59088 v 2.449461 h 0.403076 z"
         style="font-size:4.23333px;stroke-width:0.264583"
         id="path1733" />
      <path
         d="M 27.656323,69.101432 H 26.09983 v 0.868163 h 1.337385 v 0.363802 H 26.09983 v 1.482078 H 25.690553 V 68.73763 h 1.96577 z"
         style="font-size:4.23333px;stroke-width:0.264583"
         id="path1735" />
      <path
         d="m 30.380702,69.101432 h -1.099674 v 2.714043 H 28.871751 V 69.101432 H 27.772078 V 68.73763 h 2.608624 z"
         style="font-size:4.23333px;stroke-width:0.264583"
         id="path1737" />
    </g>
    <g
       aria-label="X DRIFT"
       id="text1704"
       style="font-size:4.23333px;line-height:1.25;font-family:sans-serif;word-spacing:0px;display:inline;stroke-width:0.264583"
       transform="translate(0,168.49998)">
      <path
         d="M 9.5651589,53.051617 8.5026923,54.57297 9.5630918,56.129463 H 9.0897361 L 8.2505115,54.862358 7.3906164,56.129463 H 6.9441324 L 8.0169343,54.591574 6.9689371,53.051617 h 0.4712887 l 0.8288892,1.250569 0.8474928,-1.250569 z"
         style="font-size:4.23333px;stroke-width:0.264583"
         id="path1706" />
      <path
         d="m 14.205699,54.593641 q 0,0.419612 -0.183968,0.760676 -0.181901,0.341065 -0.485758,0.529167 -0.21084,0.130224 -0.471289,0.188102 -0.258382,0.05788 -0.682128,0.05788 H 11.605343 V 53.05162 h 0.768945 q 0.450618,0 0.715201,0.06615 0.26665,0.06408 0.450618,0.177767 0.314192,0.19637 0.489892,0.522965 0.1757,0.326595 0.1757,0.775146 z m -0.427881,-0.0062 q 0,-0.361735 -0.12609,-0.609782 -0.126091,-0.248046 -0.376204,-0.390673 -0.181901,-0.103353 -0.38654,-0.142627 -0.204638,-0.04134 -0.489892,-0.04134 H 12.01462 v 2.375047 h 0.384472 q 0.295589,0 0.514697,-0.04341 0.221175,-0.04341 0.405143,-0.161231 0.229443,-0.146761 0.343131,-0.386539 0.115755,-0.239779 0.115755,-0.599445 z"
         style="font-size:4.23333px;stroke-width:0.264583"
         id="path1708" />
      <path
         d="m 17.413769,56.129463 h -0.531233 l -1.029394,-1.223697 h -0.576709 v 1.223697 h -0.409277 v -3.077846 h 0.861963 q 0.279052,0 0.465087,0.03721 0.186035,0.03514 0.334863,0.128158 0.167432,0.10542 0.260449,0.26665 0.09508,0.159163 0.09508,0.405143 0,0.332796 -0.167432,0.558105 -0.167431,0.223242 -0.460953,0.33693 z m -0.957047,-2.211749 q 0,-0.132292 -0.04754,-0.233578 -0.04547,-0.103352 -0.152962,-0.173632 -0.08888,-0.05994 -0.21084,-0.08268 -0.121956,-0.02481 -0.287321,-0.02481 h -0.481624 v 1.161685 h 0.413412 q 0.194303,0 0.338997,-0.03307 0.144694,-0.03514 0.245979,-0.128157 0.09302,-0.08682 0.136426,-0.198438 0.04547,-0.113688 0.04547,-0.28732 z"
         style="font-size:4.23333px;stroke-width:0.264583"
         id="path1710" />
      <path
         d="M 18.895848,56.129463 H 17.68042 v -0.314192 h 0.403075 V 53.36581 H 17.68042 v -0.314193 h 1.215428 v 0.314193 h -0.403076 v 2.449461 h 0.403076 z"
         style="font-size:4.23333px;stroke-width:0.264583"
         id="path1712" />
      <path
         d="m 21.558215,53.415419 h -1.556493 v 0.868164 h 1.337385 v 0.363801 h -1.337385 v 1.482079 h -0.409277 v -3.077846 h 1.96577 z"
         style="font-size:4.23333px;stroke-width:0.264583"
         id="path1714" />
      <path
         d="m 24.282594,53.415419 h -1.099673 v 2.714044 H 22.773644 V 53.415419 H 21.67397 v -0.363802 h 2.608624 z"
         style="font-size:4.23333px;stroke-width:0.264583"
         id="path1716" />
    </g>
    <g
       aria-label="-"
       id="text1760"
       style="font-size:10.5833px;line-height:1.25;font-family:sans-serif;word-spacing:0px;display:inline;stroke-width:0.264583"
       transform="translate(65.136239,176.66553)">
      <path
         d="m -48.334459,40.379236 h -3.224599 v -0.935341 h 3.224599 z"
         style="stroke-width:0.264583"
         id="path1762" />
    </g>
    <g
       aria-label="-"
       id="text1760-0"
       style="font-size:10.5833px;line-height:1.25;font-family:sans-serif;word-spacing:0px;display:inline;stroke-width:0.264583"
       transform="translate(65.317828,192.58842)">
      <path
         d="m -48.334459,40.379236 h -3.224599 v -0.935341 h 3.224599 z"
         style="stroke-width:0.264583"
         id="path1762-6" />
    </g>
    <g
       aria-label="-"
       id="text1760-2"
       style="font-size:10.5833px;line-height:1.25;font-family:sans-serif;word-spacing:0px;display:inline;stroke-width:0.264583"
       transform="translate(65.341661,208.58841)">
      <path
         d="m -48.334459,40.379236 h -3.224599 v -0.935341 h 3.224599 z"
         style="stroke-width:0.264583"
         id="path1762-2" />
    </g>
    <g
       aria-label="-"
       id="text1760-3"
       style="font-size:10.5833px;line-height:1.25;font-family:sans-serif;word-spacing:0px;display:inline;stroke-width:0.264583"
       transform="translate(65.270584,224.58842)">
      <path
         d="m -48.334459,40.379236 h -3.224599 v -0.935341 h 3.224599 z"
         style="stroke-width:0.264583"
         id="path1762-7" />
    </g>
    <rect
       style="display:inline;fill:#000000;stroke:#000000;stroke-width:3.7836"
       id="rect946"
       width="41.216396"
       height="26.216396"
       x="2.2518024"
       y="182.23592" />
  </g>
  <g
     inkscape:groupmode="layer"
     id="layer2"
     inkscape:label="components"
     style="display:none">
    <circle
       style="display:inline;opacity:1;vector-effect:none;fill:#ff0000;fill-opacity:1;fill-rule:evenodd;stroke:none;stroke-width:1;stroke-linecap:butt;stroke-linejoin:miter;stroke-miterlimit:4;stroke-dasharray:none;stroke-dashoffset:0;stroke-opacity:1;paint-order:normal"
       id="path4954"
       cx="37.224136"
       cy="80"
       r="4"
       inkscape:label="count" />
    <circle
       r="4"
       cy="112"
       cx="13.904768"
       id="circle4956"
       style="display:inline;opacity:1;vector-effect:none;fill:#00ff00;fill-opacity:1;fill-rule:evenodd;stroke:none;stroke-width:1;stroke-linecap:butt;stroke-linejoin:miter;stroke-miterlimit:4;stroke-dasharray:none;stroke-dashoffset:0;stroke-opacity:1;paint-order:normal"
       inkscape:label="in" />
    <circle
       style="display:inline;opacity:1;vector-effect:none;fill:#0000ff;fill-opacity:1;fill-rule:evenodd;stroke:none;stroke-width:1;stroke-linecap:butt;stroke-linejoin:miter;stroke-miterlimit:4;stroke-dasharray:none;stroke-dashoffset:0;stroke-opacity:1;paint-order:normal"
       id="circle4958"
       cx="27.797148"
       cy="112"
       r="4"
       inkscape:label="out" />
    <circle
       style="display:inline;opacity:1;vector-effect:none;fill:#ff0000;fill-opacity:1;fill-rule:evenodd;stroke:none;stroke-width:1;stroke-linecap:butt;stroke-linejoin:miter;stroke-miterlimit:4;stroke-dasharray:none;stroke-dashoffset:0;stroke-opacity:1;paint-order:normal"
       id="path4954-3"
       cx="22.62393"
       cy="64"
       r="4"
       inkscape:label="scale_dial" />
    <circle
       r="4"
       cy="80"
       cx="8.0237217"
       id="circle4956-3"
       style="display:inline;opacity:1;vector-effect:none;fill:#00ff00;fill-opacity:1;fill-rule:evenodd;stroke:none;stroke-width:1;stroke-linecap:butt;stroke-linejoin:miter;stroke-miterlimit:4;stroke-dasharray:none;stroke-dashoffset:0;stroke-opacity:1;paint-order:normal"
       inkscape:label="drift_in" />
    <circle
       style="display:inline;opacity:1;vector-effect:none;fill:#ff0000;fill-opacity:1;fill-rule:evenodd;stroke:none;stroke-width:1;stroke-linecap:butt;stroke-linejoin:miter;stroke-miterlimit:4;stroke-dasharray:none;stroke-dashoffset:0;stroke-opacity:1;paint-order:normal"
       id="path4954-3-0-2"
       cx="37.224136"
       cy="64"
       r="4"
       inkscape:label="ends" />
    <circle
       r="4"
       cy="96"
       cx="8.0237217"
       id="circle4956-3-4"
       style="display:inline;opacity:1;vector-effect:none;fill:#00ff00;fill-opacity:1;fill-rule:evenodd;stroke:none;stroke-width:1;stroke-linecap:butt;stroke-linejoin:miter;stroke-miterlimit:4;stroke-dasharray:none;stroke-dashoffset:0;stroke-opacity:1;paint-order:normal"
       inkscape:label="reset_in" />
    <circle
       style="display:inline;opacity:1;vector-effect:none;fill:#ff0000;fill-opacity:1;fill-rule:evenodd;stroke:none;stroke-width:1;stroke-linecap:butt;stroke-linejoin:miter;stroke-miterlimit:4;stroke-dasharray:none;stroke-dashoffset:0;stroke-opacity:1;paint-order:normal"
       id="path4954-3-0-2-9"
       cx="22.62393"
       cy="96"
       r="4"
       inkscape:label="reset_button" />
    <circle
       style="display:inline;opacity:1;vector-effect:none;fill:#ff0000;fill-opacity:1;fill-rule:evenodd;stroke:none;stroke-width:1;stroke-linecap:butt;stroke-linejoin:miter;stroke-miterlimit:4;stroke-dasharray:none;stroke-dashoffset:0;stroke-opacity:1;paint-order:normal"
       id="path4954-0"
       cx="37.224136"
       cy="96"
       r="4"
       inkscape:label="style" />
    <circle
       style="display:inline;opacity:1;vector-effect:none;fill:#ff0000;fill-opacity:1;fill-rule:evenodd;stroke:none;stroke-width:1;stroke-linecap:butt;stroke-linejoin:miter;stroke-miterlimit:4;stroke-dasharray:none;stroke-dashoffset:0;stroke-opacity:1;paint-order:normal"
       id="path4954-3-0-2-9-7"
       cx="22.62393"
       cy="80"
       r="4"
       inkscape:label="drift_button" />
    <circle
       r="4"
       cy="64"
       cx="8.0237217"
       id="circle4956-3-4-2"
       style="display:inline;opacity:1;vector-effect:none;fill:#00ff00;fill-opacity:1;fill-rule:evenodd;stroke:none;stroke-width:1;stroke-linecap:butt;stroke-linejoin:miter;stroke-miterlimit:4;stroke-dasharray:none;stroke-dashoffset:0;stroke-opacity:1;paint-order:normal"
       inkscape:label="scale_in" />
    <circle
       style="display:inline;opacity:1;vector-effect:none;fill:#ff0000;fill-opacity:1;fill-rule:evenodd;stroke:none;stroke-width:1;stroke-linecap:butt;stroke-linejoin:miter;stroke-miterlimit:4;stroke-dasharray:none;stroke-dashoffset:0;stroke-opacity:1;paint-order:normal"
       id="path4954-3-1"
       cx="22.62393"
       cy="48"
       r="4"
       inkscape:label="xdift_knob" />
    <circle
       style="display:inline;opacity:1;vector-effect:none;fill:#ff0000;fill-opacity:1;fill-rule:evenodd;stroke:none;stroke-width:1;stroke-linecap:butt;stroke-linejoin:miter;stroke-miterlimit:4;stroke-dasharray:none;stroke-dashoffset:0;stroke-opacity:1;paint-order:normal"
       id="path4954-3-0-2-5"
       cx="37.223999"
       cy="48"
       r="4"
       inkscape:label="offset" />
    <circle
       r="4"
       cy="48"
       cx="8.0237217"
       id="circle4956-3-4-2-4"
       style="display:inline;opacity:1;vector-effect:none;fill:#00ff00;fill-opacity:1;fill-rule:evenodd;stroke:none;stroke-width:1;stroke-linecap:butt;stroke-linejoin:miter;stroke-miterlimit:4;stroke-dasharray:none;stroke-dashoffset:0;stroke-opacity:1;paint-order:normal"
       inkscape:label="xdrift_in" />
  </g>
</svg>
