<?xml version="1.0" encoding="UTF-8" standalone="no"?>
<svg
   width="45.720001mm"
   height="128.5mm"
   viewBox="0 0 45.720005 128.50002"
   version="1.1"
   id="svg8"
   inkscape:version="1.4.3 (0d15f75, 2025-12-25)"
   sodipodi:docname="Drifter.svg"
   xmlns:inkscape="http://www.inkscape.org/namespaces/inkscape"
   xmlns:sodipodi="http://sodipodi.sourceforge.net/DTD/sodipodi-0.dtd"
   xmlns="http://www.w3.org/2000/svg"
   xmlns:svg="http://www.w3.org/2000/svg"
   xmlns:rdf="http://www.w3.org/1999/02/22-rdf-syntax-ns#"
   xmlns:cc="http://creativecommons.org/ns#"
   xmlns:dc="http://purl.org/dc/elements/1.1/">
  <defs
     id="defs2">
    <linearGradient
       id="linearGradient2877"
       inkscape:swatch="solid">
      <stop
         style="stop-color:#0000ff;stop-opacity:1;"
         offset="0"
         id="stop2875" />
    </linearGradient>
  </defs>
  <sodipodi:namedview
     id="base"
     pagecolor="#ffffff"
     bordercolor="#666666"
     borderopacity="1.0"
     inkscape:pageopacity="0.0"
     inkscape:pageshadow="2"
     inkscape:zoom="1.979899"
     inkscape:cx="83.085046"
     inkscape:cy="220.97087"
     inkscape:document-units="mm"
     inkscape:current-layer="layer2"
     showgrid="false"
     units="mm"
     inkscape:snap-bbox="true"
     inkscape:snap-page="true"
     inkscape:bbox-nodes="false"
     inkscape:snap-bbox-edge-midpoints="false"
     inkscape:window-width="997"
     inkscape:window-height="1371"
     inkscape:window-x="108"
     inkscape:window-y="91"
     inkscape:window-maximized="0"
     inkscape:snap-bbox-midpoints="true"
     inkscape:snap-nodes="false"
     inkscape:document-rotation="0"
     inkscape:showpageshadow="2"
     inkscape:pagecheckerboard="0"
     inkscape:deskcolor="#d1d1d1" />
  <metadata
     id="metadata5">
    <rdf:RDF>
      <cc:Work
         rdf:about="">
        <dc:format>image/svg+xml</dc:format>
        <dc:type
           rdf:resource="http://purl.org/dc/dcmitype/StillImage" />
        <dc:title />
      </cc:Work>
    </rdf:RDF>
  </metadata>
  <g
     inkscape:groupmode="layer"
     id="layer3"
     inkscape:label="Background"
     style="display:inline">
    <rect
       style="display:inline;opacity:1;mix-blend-mode:normal;vector-effect:none;fill:#e8f1f2;fill-opacity:1;fill-rule:evenodd;stroke:none;stroke-width:0.794859;stroke-linecap:butt;stroke-linejoin:miter;stroke-miterlimit:4;stroke-dasharray:none;stroke-dashoffset:0;stroke-opacity:1;paint-order:normal"
       id="rect420"
       width="45.720001"
       height="128.5"
       x="5.9211732e-17"
       y="-1.0517578e-05" />
    <g
       aria-label="!"
       transform="matrix(1.3671122,-0.15549205,0.15715032,1.3252755,1.3824567,-3.1082607)"
       id="text912"
       style="font-style:normal;font-weight:normal;font-size:127.426px;line-height:1.25;font-family:sans-serif;display:inline;fill:#aeaeff;fill-opacity:1;stroke:none;stroke-width:3.18552;stroke-miterlimit:4;stroke-dasharray:none">
      <path
         d="M 17.007808,5.7176488 15.390095,72.852735 H 4.8127414 L 3.070589,5.7176488 Z M 16.385611,98.362823 H 3.6927863 V 85.234461 H 16.385611 Z"
         style="fill:#aeaeff;fill-opacity:1;stroke-width:3.18552;stroke-miterlimit:4;stroke-dasharray:none"
         id="path1767" />
    </g>
  </g>
  <g
     inkscape:label="Layer 1"
     inkscape:groupmode="layer"
     id="layer1"
     transform="translate(0,-168.49998)"
     style="display:inline">
    <g
       aria-label="COUNT"
       id="text1664"
       style="font-size:4.23333px;line-height:1.25;font-family:sans-serif;word-spacing:0px;stroke-width:0.264583"
       transform="matrix(0.99999055,0,0,1,0.23147985,-4)">
      <path
         d="m 32.083679,256.20761 q -0.113688,0.0496 -0.206706,0.093 -0.09095,0.0434 -0.239778,0.091 -0.126091,0.0393 -0.274919,0.0661 -0.146761,0.0289 -0.324527,0.0289 -0.334863,0 -0.609782,-0.093 -0.272851,-0.0951 -0.475423,-0.29559 -0.198437,-0.19637 -0.310058,-0.49816 -0.111621,-0.30386 -0.111621,-0.70487 0,-0.38033 0.107487,-0.68006 0.107487,-0.29972 0.310058,-0.50642 0.196371,-0.20051 0.473356,-0.30593 0.279053,-0.10542 0.61805,-0.10542 0.248046,0 0.494026,0.0599 0.248047,0.0599 0.549837,0.21084 v 0.48575 h -0.03101 q -0.254248,-0.2129 -0.504362,-0.31006 -0.250113,-0.0971 -0.535367,-0.0971 -0.233577,0 -0.421679,0.0765 -0.186035,0.0744 -0.332796,0.23358 -0.142627,0.15503 -0.223242,0.39274 -0.07855,0.23565 -0.07855,0.5457 0,0.32453 0.08682,0.55811 0.08888,0.23358 0.227376,0.38034 0.144694,0.15296 0.33693,0.22737 0.194303,0.0724 0.409277,0.0724 0.295589,0 0.553971,-0.10128 0.258382,-0.10129 0.483691,-0.30386 h 0.02894 z"
         style="font-size:4.23333px;stroke-width:0.264583"
         id="path1666" />
      <path
         d="m 34.956886,253.70647 q 0.188102,0.2067 0.287321,0.50643 0.101285,0.29972 0.101285,0.68006 0,0.38034 -0.103352,0.68213 -0.101286,0.29972 -0.285254,0.50022 -0.190169,0.20878 -0.450618,0.3142 -0.258382,0.10542 -0.591178,0.10542 -0.324528,0 -0.591178,-0.10749 -0.264583,-0.10749 -0.450618,-0.31213 -0.186035,-0.20463 -0.287321,-0.50229 -0.09922,-0.29766 -0.09922,-0.68006 0,-0.37621 0.09922,-0.67386 0.09922,-0.29973 0.289388,-0.51263 0.181901,-0.20257 0.450618,-0.31006 0.270784,-0.10749 0.589111,-0.10749 0.330729,0 0.593245,0.10956 0.264583,0.10748 0.448551,0.30799 z m -0.03721,1.18649 q 0,-0.59945 -0.268717,-0.92398 -0.268717,-0.32659 -0.733805,-0.32659 -0.469222,0 -0.737939,0.32659 -0.26665,0.32453 -0.26665,0.92398 0,0.60565 0.272851,0.92811 0.272852,0.32039 0.731738,0.32039 0.458886,0 0.729671,-0.32039 0.272851,-0.32246 0.272851,-0.92811 z"
         style="font-size:4.23333px;stroke-width:0.264583"
         id="path1668" />
      <path
         d="m 38.311717,255.19475 q 0,0.33486 -0.07441,0.58497 -0.07235,0.24805 -0.239778,0.41342 -0.159164,0.15709 -0.37207,0.22944 -0.212907,0.0724 -0.496094,0.0724 -0.289387,0 -0.504361,-0.0765 -0.214974,-0.0765 -0.361735,-0.2253 -0.167431,-0.1695 -0.241845,-0.40928 -0.07235,-0.23978 -0.07235,-0.58911 V 253.353 h 0.409277 v 1.86242 q 0,0.25011 0.03307,0.39481 0.03514,0.14469 0.115756,0.26251 0.09095,0.13436 0.245979,0.20257 0.157096,0.0682 0.376204,0.0682 0.221175,0 0.376204,-0.0661 0.15503,-0.0682 0.248047,-0.20464 0.08062,-0.11782 0.113688,-0.26872 0.03514,-0.15296 0.03514,-0.37827 V 253.353 h 0.409277 z"
         style="font-size:4.23333px;stroke-width:0.264583"
         id="path1670" />
      <path
         d="m 41.441239,256.43085 h -0.506428 l -1.459341,-2.75332 v 2.75332 H 39.093064 V 253.353 h 0.634586 l 1.331184,2.51354 V 253.353 h 0.382405 z"
         style="font-size:4.23333px;stroke-width:0.264583"
         id="path1672" />
      <path
         d="m 44.455006,253.7168 h -1.099673 v 2.71405 h -0.409277 v -2.71405 h -1.099674 v -0.3638 h 2.608624 z"
         style="font-size:4.23333px;stroke-width:0.264583"
         id="path1674" />
    </g>
    <g
       aria-label="IN"
       id="text922"
       style="font-size:4.93889px;line-height:1.25;font-family:sans-serif;word-spacing:0px;stroke-width:0.264583"
       transform="translate(1.4062786,4.0004659)">
      <path
         d="M 6.956603,290.6438 H 5.5386014 v -0.36656 H 6.008857 v -2.85771 H 5.5386014 v -0.36655 H 6.956603 v 0.36655 H 6.4863474 v 2.85771 H 6.956603 Z"
         style="font-size:4.93889px;stroke-width:0.264583"
         id="path928" />
      <path
         d="M 10.508842,290.6438 H 9.9180078 l -1.7025666,-3.21221 v 3.21221 H 7.7693013 v -3.59082 h 0.7403511 l 1.5530496,2.93246 v -2.93246 h 0.44614 z"
         style="font-size:4.93889px;stroke-width:0.264583"
         id="path930" />
    </g>
    <g
       aria-label="Drifter"
       id="text2470"
       style="font-style:normal;font-weight:normal;font-size:7.05556px;line-height:1.25;font-family:sans-serif;fill:#000000;fill-opacity:1;stroke:none;stroke-width:0.264583"
       transform="translate(7.6200004,-1.19996)">
      <path
         d="m 8.4755503,176.3353 q 0,0.69935 -0.3066137,1.26779 -0.3031686,0.56844 -0.8095979,0.88195 -0.3514,0.21704 -0.7854823,0.3135 -0.4306372,0.0965 -1.1368823,0.0965 H 4.1416174 v -5.12975 h 1.2815763 q 0.7510313,0 1.1920039,0.11025 0.4444176,0.10679 0.7510313,0.29628 0.5236548,0.32728 0.8164881,0.87161 0.2928333,0.54432 0.2928333,1.29191 z M 7.7624151,176.325 q 0,-0.60289 -0.210151,-1.0163 -0.2101509,-0.41341 -0.6270078,-0.65113 -0.3031685,-0.17225 -0.6442332,-0.23771 -0.3410647,-0.0689 -0.8164882,-0.0689 H 4.8237467 v 3.95842 h 0.6407882 q 0.492649,0 0.8578293,-0.0724 0.3686255,-0.0724 0.6752392,-0.26872 0.3824058,-0.2446 0.5718862,-0.64423 0.1929255,-0.39963 0.1929255,-0.99908 z"
         style="font-size:7.05556px;stroke-width:0.264583"
         id="path2472" />
      <path
         d="m 11.927538,175.75308 h -0.03445 q -0.144694,-0.0345 -0.282498,-0.0482 -0.134359,-0.0172 -0.320394,-0.0172 -0.299723,0 -0.578776,0.13436 -0.279053,0.13091 -0.537436,0.34106 v 2.7319 H 9.5263051 v -3.84817 h 0.6476779 v 0.56844 q 0.385851,-0.31006 0.678685,-0.43753 0.296278,-0.13091 0.602892,-0.13091 0.16881,0 0.244602,0.0103 0.07579,0.007 0.227376,0.031 z"
         style="font-size:7.05556px;stroke-width:0.264583"
         id="path2474" />
      <path
         d="M 13.233231,174.4026 H 12.50287 v -0.6718 h 0.730361 z m -0.04134,4.4924 h -0.647679 v -3.84817 h 0.647679 z"
         style="font-size:7.05556px;stroke-width:0.264583"
         id="path2476" />
      <path
         d="m 16.54397,174.16144 h -0.03445 q -0.106798,-0.031 -0.279053,-0.062 -0.172255,-0.0345 -0.303169,-0.0345 -0.416857,0 -0.606337,0.18603 -0.186035,0.18259 -0.186035,0.66491 v 0.13091 h 1.167888 v 0.54433 h -1.147218 v 3.30384 h -0.647678 v -3.30384 H 14.07039 v -0.54433 h 0.437528 v -0.12747 q 0,-0.68557 0.341064,-1.05075 0.341065,-0.36863 0.985298,-0.36863 0.217042,0 0.389296,0.0207 0.1757,0.0207 0.320395,0.0482 z"
         style="font-size:7.05556px;stroke-width:0.264583"
         id="path2478" />
      <path
         d="m 18.952092,178.86055 q -0.18259,0.0482 -0.399631,0.0792 -0.213596,0.031 -0.382406,0.031 -0.589112,0 -0.895725,-0.31695 -0.306614,-0.31695 -0.306614,-1.01631 v -2.04638 h -0.437527 v -0.54433 h 0.437527 v -1.10588 h 0.647678 v 1.10588 h 1.336698 v 0.54433 h -1.336698 v 1.75355 q 0,0.30317 0.01378,0.47542 0.01378,0.16881 0.09646,0.31695 0.07579,0.13781 0.206706,0.20326 0.134359,0.062 0.406522,0.062 0.158474,0 0.330729,-0.0448 0.172255,-0.0482 0.248047,-0.0792 h 0.03445 z"
         style="font-size:7.05556px;stroke-width:0.264583"
         id="path2480" />
      <path
         d="m 22.955296,177.0381 h -2.835315 q 0,0.35484 0.106798,0.62011 0.106798,0.26183 0.292833,0.43064 0.179145,0.16537 0.423747,0.24805 0.248047,0.0827 0.544326,0.0827 0.392741,0 0.788927,-0.15503 0.399631,-0.15847 0.568441,-0.31006 h 0.03445 v 0.70625 q -0.327284,0.1378 -0.668349,0.23082 -0.341065,0.093 -0.71658,0.093 -0.957737,0 -1.495173,-0.51677 -0.537435,-0.52021 -0.537435,-1.4745 0,-0.94396 0.51332,-1.49862 0.516764,-0.55466 1.357368,-0.55466 0.778592,0 1.198894,0.45475 0.423747,0.45476 0.423747,1.29192 z m -0.630453,-0.4961 q -0.0034,-0.50987 -0.258382,-0.78892 -0.251492,-0.27906 -0.768257,-0.27906 -0.52021,0 -0.830268,0.30662 -0.306614,0.30661 -0.347955,0.76136 z"
         style="font-size:7.05556px;stroke-width:0.264583"
         id="path2482" />
      <path
         d="m 26.338382,175.75308 h -0.03445 q -0.144694,-0.0345 -0.282498,-0.0482 -0.134359,-0.0172 -0.320394,-0.0172 -0.299724,0 -0.578776,0.13436 -0.279053,0.13091 -0.537436,0.34106 v 2.73196 H 23.93715 v -3.84817 h 0.647678 v 0.56844 q 0.385851,-0.31006 0.678685,-0.43753 0.296278,-0.13091 0.602892,-0.13091 0.168809,0 0.244602,0.0103 0.07579,0.007 0.227376,0.031 z"
         style="font-size:7.05556px;stroke-width:0.264583"
         id="path2484" />
    </g>
    <rect
       style="fill:#000000;fill-opacity:0.88755;stroke-width:0.307583"
       id="rect652"
       width="25.390604"
       height="10.721942"
       x="16.839098"
       y="279.14099"
       ry="4.2203341"
       rx="4.2203341" />
    <g
       aria-label="OFST"
       id="text902"
       style="font-style:normal;font-weight:normal;font-size:3.52778px;line-height:1.25;font-family:sans-serif;fill:#000000;fill-opacity:1;stroke:none;stroke-width:0.264583"
       transform="translate(29.490318,28.72619)">
      <path
         d="m 5.1965038,192.68934 q 0.1567519,0.17225 0.2394343,0.42202 0.084405,0.24977 0.084405,0.56672 0,0.31695 -0.086128,0.56844 -0.084405,0.24977 -0.2377117,0.41686 -0.1584745,0.17397 -0.3755157,0.26182 -0.2153186,0.0879 -0.492649,0.0879 -0.2704401,0 -0.4926489,-0.0896 -0.2204863,-0.0896 -0.3755157,-0.2601 -0.1550294,-0.17053 -0.2394343,-0.41858 -0.082682,-0.24805 -0.082682,-0.56672 0,-0.3135 0.082682,-0.56155 0.082682,-0.24977 0.2411569,-0.42719 0.1515843,-0.16881 0.3755156,-0.25839 0.2256539,-0.0896 0.4909264,-0.0896 0.2756079,0 0.4943716,0.0913 0.2204862,0.0896 0.3737931,0.25666 z m -0.031006,0.98874 q 0,-0.49954 -0.2239314,-0.76998 -0.2239313,-0.27216 -0.6115048,-0.27216 -0.3910186,0 -0.6149499,0.27216 -0.2222088,0.27044 -0.2222088,0.76998 0,0.50471 0.2273764,0.77342 0.2273765,0.267 0.6097823,0.267 0.3824058,0 0.6080597,-0.267 0.2273765,-0.26871 0.2273765,-0.77342 z"
         style="font-size:3.52778px;stroke-width:0.264583"
         id="path904" />
      <path
         d="M 7.6993672,192.69795 H 6.4022879 v 0.72347 H 7.516777 v 0.30317 H 6.4022879 v 1.23507 H 6.0612232 v -2.56488 h 1.638144 z"
         style="font-size:3.52778px;stroke-width:0.264583"
         id="path906" />
      <path
         d="m 9.9524611,194.22757 q 0,0.14986 -0.070625,0.29628 -0.068902,0.14642 -0.194648,0.24805 -0.1378039,0.11024 -0.3221166,0.17225 -0.1825902,0.062 -0.4409725,0.062 -0.2773304,0 -0.4995392,-0.0517 -0.2204863,-0.0517 -0.4495853,-0.15331 v -0.42719 h 0.024116 q 0.1946481,0.16192 0.4495853,0.24977 0.2549372,0.0879 0.4788686,0.0879 0.316949,0 0.4926489,-0.11886 0.1774226,-0.11885 0.1774226,-0.31695 0,-0.17053 -0.084405,-0.25149 -0.082682,-0.081 -0.2532147,-0.12574 -0.1291912,-0.0345 -0.2807755,-0.0568 -0.1498617,-0.0224 -0.3186715,-0.0568 -0.3410647,-0.0724 -0.5064294,-0.24633 -0.1636421,-0.1757 -0.1636421,-0.45647 0,-0.32212 0.2721627,-0.5271 0.2721627,-0.20671 0.6907421,-0.20671 0.2704402,0 0.4960941,0.0517 0.2256539,0.0517 0.3996313,0.12747 v 0.40307 h -0.024116 q -0.1464166,-0.12402 -0.3858509,-0.20498 -0.2377118,-0.0827 -0.4874814,-0.0827 -0.2738852,0 -0.4409725,0.11369 -0.1653646,0.11368 -0.1653646,0.29283 0,0.1602 0.082682,0.25149 0.082682,0.0913 0.2911108,0.13953 0.1102431,0.0241 0.3135038,0.0586 0.2032608,0.0345 0.3445098,0.0706 0.2859431,0.0758 0.4306372,0.2291 0.1446941,0.1533 0.1446941,0.42891 z"
         style="font-size:3.52778px;stroke-width:0.264583"
         id="path908" />
      <path
         d="m 12.329579,192.69795 h -0.916396 v 2.26171 h -0.341065 v -2.26171 h -0.916396 v -0.30317 h 2.173857 z"
         style="font-size:3.52778px;stroke-width:0.264583"
         id="path910" />
    </g>
    <g
       aria-label="ENDS"
       id="text948"
       style="font-style:normal;font-weight:normal;font-size:3.52778px;line-height:1.25;font-family:sans-serif;fill:#000000;fill-opacity:1;stroke:none;stroke-width:0.264583"
       transform="translate(14.766912,-31.102868)">
      <path
         d="m 19.421232,269.23065 h -1.68982 v -2.56487 h 1.68982 v 0.30317 h -1.348756 v 0.7028 h 1.348756 v 0.30316 h -1.348756 v 0.95257 h 1.348756 z"
         style="font-size:3.52778px;stroke-width:0.264583"
         id="path969" />
      <path
         d="m 21.918928,269.23065 h -0.422025 l -1.216119,-2.29443 v 2.29443 h -0.318672 v -2.56487 h 0.528823 l 1.109321,2.09462 v -2.09462 h 0.318672 z"
         style="font-size:3.52778px;stroke-width:0.264583"
         id="path971" />
      <path
         d="m 24.768024,267.9508 q 0,0.34968 -0.153307,0.6339 -0.151584,0.28422 -0.404799,0.44097 -0.1757,0.10852 -0.392741,0.15675 -0.215319,0.0482 -0.568441,0.0482 h -0.647679 v -2.56487 h 0.640788 q 0.375516,0 0.596002,0.0551 0.222209,0.0534 0.375516,0.14814 0.261827,0.16364 0.408244,0.4358 0.146417,0.27216 0.146417,0.64596 z m -0.356568,-0.005 q 0,-0.30145 -0.105075,-0.50815 -0.105076,-0.20671 -0.313504,-0.32556 -0.151585,-0.0861 -0.322117,-0.11886 -0.170532,-0.0344 -0.408244,-0.0344 h -0.320394 v 1.97921 h 0.320394 q 0.246324,0 0.428915,-0.0362 0.184312,-0.0362 0.337619,-0.13436 0.191203,-0.1223 0.285943,-0.32212 0.09646,-0.19982 0.09646,-0.49954 z"
         style="font-size:3.52778px;stroke-width:0.264583"
         id="path973" />
      <path
         d="m 27.183037,268.49857 q 0,0.14986 -0.07062,0.29628 -0.0689,0.14641 -0.194648,0.24804 -0.137804,0.11025 -0.322117,0.17226 -0.18259,0.062 -0.440972,0.062 -0.277331,0 -0.49954,-0.0517 -0.220486,-0.0517 -0.449585,-0.1533 v -0.42719 h 0.02412 q 0.194648,0.16191 0.449585,0.24976 0.254937,0.0879 0.478869,0.0879 0.316949,0 0.492649,-0.11885 0.177422,-0.11886 0.177422,-0.31695 0,-0.17053 -0.08441,-0.25149 -0.08268,-0.081 -0.253214,-0.12575 -0.129192,-0.0344 -0.280776,-0.0568 -0.149862,-0.0224 -0.318671,-0.0568 -0.341065,-0.0723 -0.50643,-0.24632 -0.163642,-0.1757 -0.163642,-0.45648 0,-0.32211 0.272163,-0.5271 0.272162,-0.2067 0.690742,-0.2067 0.27044,0 0.496094,0.0517 0.225654,0.0517 0.399631,0.12747 v 0.40308 h -0.02412 q -0.146417,-0.12402 -0.385851,-0.20498 -0.237712,-0.0827 -0.487482,-0.0827 -0.273885,0 -0.440972,0.11369 -0.165365,0.11369 -0.165365,0.29284 0,0.16019 0.08268,0.25149 0.08268,0.0913 0.291111,0.13952 0.110243,0.0241 0.313504,0.0586 0.203261,0.0344 0.34451,0.0706 0.285943,0.0758 0.430637,0.2291 0.144694,0.15331 0.144694,0.42892 z"
         style="font-size:3.52778px;stroke-width:0.264583"
         id="path975" />
    </g>
    <g
       aria-label="OUT"
       id="text926"
       style="font-size:4.93889px;line-height:1.25;font-family:sans-serif;word-spacing:0px;stroke-width:0.264583"
       transform="translate(14.903066,4.0004659)">
      <path
         d="m 19.663698,287.5201 q 0.219453,0.24116 0.335208,0.59084 0.118167,0.34967 0.118167,0.7934 0,0.44373 -0.120578,0.79582 -0.118167,0.34968 -0.332797,0.5836 -0.221864,0.24357 -0.525721,0.36656 -0.301446,0.12299 -0.689708,0.12299 -0.378617,0 -0.689709,-0.12541 -0.30868,-0.1254 -0.525721,-0.36414 -0.217042,-0.23875 -0.335208,-0.58601 -0.115756,-0.34727 -0.115756,-0.79341 0,-0.4389 0.115756,-0.78617 0.115755,-0.34968 0.337619,-0.59807 0.212218,-0.23633 0.525722,-0.36173 0.315915,-0.12541 0.687297,-0.12541 0.38585,0 0.692119,0.12782 0.308681,0.1254 0.52331,0.35932 z m -0.04341,1.38424 q 0,-0.69935 -0.313504,-1.07797 -0.313503,-0.38103 -0.856106,-0.38103 -0.547426,0 -0.860929,0.38103 -0.311093,0.37862 -0.311093,1.07797 0,0.70659 0.318327,1.08279 0.318327,0.3738 0.853695,0.3738 0.535368,0 0.851283,-0.3738 0.318327,-0.3762 0.318327,-1.08279 z"
         style="font-size:4.93889px;stroke-width:0.264583"
         id="path934" />
      <path
         d="m 23.577672,289.25643 q 0,0.39067 -0.08682,0.68247 -0.08441,0.28939 -0.279742,0.48232 -0.185691,0.18328 -0.434082,0.26768 -0.248391,0.0844 -0.578776,0.0844 -0.33762,0 -0.588423,-0.0892 -0.250803,-0.0892 -0.422024,-0.26286 -0.195337,-0.19775 -0.282153,-0.47749 -0.08441,-0.27975 -0.08441,-0.6873 v -2.14871 h 0.47749 v 2.17283 q 0,0.2918 0.03859,0.46061 0.041,0.1688 0.135048,0.30626 0.106109,0.15676 0.286977,0.23634 0.183279,0.0796 0.438905,0.0796 0.258038,0 0.438905,-0.0772 0.180868,-0.0796 0.289388,-0.23875 0.09405,-0.13746 0.132636,-0.3135 0.041,-0.17846 0.041,-0.44132 v -2.18488 h 0.47749 z"
         style="font-size:4.93889px;stroke-width:0.264583"
         id="path936" />
      <path
         d="m 27.050329,287.53216 h -1.282954 v 3.16639 h -0.47749 v -3.16639 h -1.282954 v -0.42444 h 3.043398 z"
         style="font-size:4.93889px;stroke-width:0.264583"
         id="path938" />
    </g>
    <g
       aria-label="STYLE"
       id="text943"
       style="font-size:4.23333px;line-height:1.25;font-family:sans-serif;word-spacing:0px;stroke-width:0.264583"
       transform="translate(15.308036,-3.1556878)">
      <path
         d="m 17.975259,269.48606 q 0,0.17984 -0.08475,0.35554 -0.08268,0.1757 -0.233577,0.29765 -0.165364,0.1323 -0.386539,0.20671 -0.219108,0.0744 -0.529166,0.0744 -0.332796,0 -0.599447,-0.062 -0.264583,-0.062 -0.539501,-0.18397 v -0.51263 h 0.02894 q 0.233577,0.19431 0.539501,0.29973 0.305924,0.10542 0.574642,0.10542 0.380338,0 0.591178,-0.14263 0.212906,-0.14263 0.212906,-0.38034 0,-0.20464 -0.101285,-0.30179 -0.09922,-0.0971 -0.303858,-0.15089 -0.155029,-0.0413 -0.33693,-0.0682 -0.179833,-0.0269 -0.382405,-0.0682 -0.409277,-0.0868 -0.607714,-0.29559 -0.196371,-0.21084 -0.196371,-0.54777 0,-0.38654 0.326595,-0.63252 0.326595,-0.24804 0.82889,-0.24804 0.324527,0 0.595312,0.062 0.270784,0.062 0.479556,0.15296 v 0.48369 h -0.02894 q -0.1757,-0.14883 -0.463021,-0.24598 -0.285253,-0.0992 -0.584977,-0.0992 -0.328661,0 -0.529166,0.13643 -0.198437,0.13642 -0.198437,0.3514 0,0.19223 0.09922,0.30179 0.09922,0.10955 0.349332,0.16743 0.132292,0.0289 0.376204,0.0703 0.243913,0.0413 0.413411,0.0848 0.343131,0.0909 0.516764,0.27492 0.173633,0.18397 0.173633,0.51469 z"
         style="font-size:4.23333px;stroke-width:0.264583"
         id="path945" />
      <path
         d="m 20.827795,267.65052 h -1.099673 v 2.71404 h -0.409277 v -2.71404 h -1.099674 v -0.3638 h 2.608624 z"
         style="font-size:4.23333px;stroke-width:0.264583"
         id="path947" />
      <path
         d="m 23.419883,267.28672 -1.083137,1.72806 v 1.34978 h -0.409277 v -1.30638 l -1.087271,-1.77146 h 0.452685 l 0.841292,1.37666 0.849559,-1.37666 z"
         style="font-size:4.23333px;stroke-width:0.264583"
         id="path949" />
      <path
         d="m 25.792863,270.36456 h -1.947167 v -3.07784 h 0.409277 v 2.71404 h 1.53789 z"
         style="font-size:4.23333px;stroke-width:0.264583"
         id="path957" />
      <path
         d="M 28.229921,270.36456 H 26.20214 v -3.07784 h 2.027781 v 0.3638 h -1.618504 v 0.84336 h 1.618504 v 0.3638 h -1.618504 v 1.14308 h 1.618504 z"
         style="font-size:4.23333px;stroke-width:0.264583"
         id="path959" />
    </g>
    <path
       style="fill:#000000;fill-opacity:1;stroke:#000000;stroke-width:0.0949556;stroke-miterlimit:4;stroke-dasharray:none;stroke-opacity:1"
       id="path923"
       sodipodi:type="arc"
       sodipodi:cx="37.224136"
       sodipodi:cy="253.82098"
       sodipodi:rx="0.45252839"
       sodipodi:ry="0.45253617"
       sodipodi:start="0.36229666"
       sodipodi:end="0.35175191"
       sodipodi:arc-type="slice"
       d="m 37.647289,253.98137 a 0.45252839,0.45253617 0 0 1 -0.582423,0.2632 0.45252839,0.45253617 0 0 1 -0.264722,-0.58174 0.45252839,0.45253617 0 0 1 0.581027,-0.26626 0.45252839,0.45253617 0 0 1 0.267786,0.58033 l -0.424821,-0.15592 z" />
    <path
       style="display:inline;fill:#000000;fill-opacity:1;stroke:#000000;stroke-width:0.0949555;stroke-miterlimit:4;stroke-dasharray:none;stroke-opacity:1"
       id="path923-3"
       sodipodi:type="arc"
       sodipodi:cx="41.166359"
       sodipodi:cy="255.85617"
       sodipodi:rx="0.45252839"
       sodipodi:ry="0.45253617"
       sodipodi:start="0.36229666"
       sodipodi:end="0.35175191"
       sodipodi:arc-type="slice"
       d="m 41.589512,256.01656 a 0.45252839,0.45253617 0 0 1 -0.582423,0.26319 0.45252839,0.45253617 0 0 1 -0.264722,-0.58174 0.45252839,0.45253617 0 0 1 0.581027,-0.26625 0.45252839,0.45253617 0 0 1 0.267785,0.58033 l -0.42482,-0.15592 z" />
    <path
       style="display:inline;fill:#000000;fill-opacity:1;stroke:#000000;stroke-width:0.0949555;stroke-miterlimit:4;stroke-dasharray:none;stroke-opacity:1"
       id="path923-3-2"
       sodipodi:type="arc"
       sodipodi:cx="33.282036"
       sodipodi:cy="255.85617"
       sodipodi:rx="0.45252839"
       sodipodi:ry="0.45253617"
       sodipodi:start="0.36229666"
       sodipodi:end="0.35175191"
       sodipodi:arc-type="slice"
       d="m 33.705188,256.01656 a 0.45252839,0.45253617 0 0 1 -0.582422,0.26319 0.45252839,0.45253617 0 0 1 -0.264723,-0.58174 0.45252839,0.45253617 0 0 1 0.581028,-0.26625 0.45252839,0.45253617 0 0 1 0.267785,0.58033 l -0.42482,-0.15592 z" />
    <path
       style="display:inline;fill:#000000;fill-opacity:1;stroke:#000000;stroke-width:0.0949556;stroke-miterlimit:4;stroke-dasharray:none;stroke-opacity:1"
       id="path923-31"
       sodipodi:type="arc"
       sodipodi:cx="37.173901"
       sodipodi:cy="224.82098"
       sodipodi:rx="0.45252839"
       sodipodi:ry="0.45253617"
       sodipodi:start="0.36229666"
       sodipodi:end="0.35175191"
       sodipodi:arc-type="slice"
       d="m 37.597053,224.98137 a 0.45252839,0.45253617 0 0 1 -0.582423,0.2632 0.45252839,0.45253617 0 0 1 -0.264722,-0.58174 0.45252839,0.45253617 0 0 1 0.581027,-0.26626 0.45252839,0.45253617 0 0 1 0.267786,0.58033 l -0.42482,-0.15592 z" />
    <path
       style="display:inline;fill:#000000;fill-opacity:1;stroke:#000000;stroke-width:0.0949555;stroke-miterlimit:4;stroke-dasharray:none;stroke-opacity:1"
       id="path923-3-0"
       sodipodi:type="arc"
       sodipodi:cx="41.116123"
       sodipodi:cy="226.85617"
       sodipodi:rx="0.45252839"
       sodipodi:ry="0.45253617"
       sodipodi:start="0.36229666"
       sodipodi:end="0.35175191"
       sodipodi:arc-type="slice"
       d="m 41.539276,227.01656 a 0.45252839,0.45253617 0 0 1 -0.582423,0.26319 0.45252839,0.45253617 0 0 1 -0.264722,-0.58174 0.45252839,0.45253617 0 0 1 0.581027,-0.26625 0.45252839,0.45253617 0 0 1 0.267786,0.58033 l -0.424821,-0.15592 z" />
    <path
       style="display:inline;fill:#000000;fill-opacity:1;stroke:#000000;stroke-width:0.0949555;stroke-miterlimit:4;stroke-dasharray:none;stroke-opacity:1"
       id="path923-3-2-8"
       sodipodi:type="arc"
       sodipodi:cx="33.2318"
       sodipodi:cy="226.85617"
       sodipodi:rx="0.45252839"
       sodipodi:ry="0.45253617"
       sodipodi:start="0.36229666"
       sodipodi:end="0.35175191"
       sodipodi:arc-type="slice"
       d="m 33.654953,227.01656 a 0.45252839,0.45253617 0 0 1 -0.582423,0.26319 0.45252839,0.45253617 0 0 1 -0.264722,-0.58174 0.45252839,0.45253617 0 0 1 0.581027,-0.26625 0.45252839,0.45253617 0 0 1 0.267785,0.58033 l -0.42482,-0.15592 z" />
    <g
       aria-label="-"
       id="text1760"
       style="font-size:10.5833px;line-height:1.25;font-family:sans-serif;word-spacing:0px;display:inline;stroke-width:0.264583"
       transform="translate(65.136239,176.66553)">
      <path
         d="m -48.334459,40.379236 h -3.224599 v -0.935341 h 3.224599 z"
         style="stroke-width:0.264583"
         id="path1762" />
    </g>
    <g
       aria-label="-"
       id="text1760-0"
       style="font-size:10.5833px;line-height:1.25;font-family:sans-serif;word-spacing:0px;display:inline;stroke-width:0.264583"
       transform="translate(65.317828,188.58839)">
      <path
         d="m -48.334459,40.379236 h -3.224599 v -0.935341 h 3.224599 z"
         style="stroke-width:0.264583"
         id="path1762-6" />
    </g>
    <g
       aria-label="-"
       id="text1760-2"
       style="font-size:10.5833px;line-height:1.25;font-family:sans-serif;word-spacing:0px;display:inline;stroke-width:0.264583"
       transform="translate(65.341661,200.58836)">
      <path
         d="m -48.334459,40.379236 h -3.224599 v -0.935341 h 3.224599 z"
         style="stroke-width:0.264583"
         id="path1762-2" />
    </g>
    <g
       aria-label="-"
       id="text1760-3"
       style="font-size:10.5833px;line-height:1.25;font-family:sans-serif;word-spacing:0px;display:inline;stroke-width:0.264583"
       transform="translate(65.270584,224.58842)">
      <path
         d="m -48.334459,40.379236 h -3.224599 v -0.935341 h 3.224599 z"
         style="stroke-width:0.264583"
         id="path1762-7" />
    </g>
    <rect
       style="display:inline;fill:#000000;stroke:#000000;stroke-width:3.7836"
       id="rect946"
       width="41.216396"
       height="26.216396"
       x="2.2518024"
       y="182.23592" />
    <path
       d="m 19.357366,291.47543 h -1.282957 v 3.1664 h -0.477491 v -3.1664 H 16.313961 V 291.051 h 3.043405 z m 3.453371,3.1664 H 22.190963 L 20.99,293.21418 h -0.672829 v 1.42765 H 19.83968 V 291.051 h 1.005626 q 0.325562,0 0.542603,0.0434 0.217042,0.041 0.390675,0.14952 0.195337,0.12299 0.303858,0.31109 0.110933,0.18569 0.110933,0.47267 0,0.38827 -0.195338,0.65112 -0.195337,0.26046 -0.53778,0.39309 z m -1.116558,-2.58038 q 0,-0.15434 -0.05547,-0.27251 -0.05306,-0.12058 -0.178456,-0.20257 -0.103698,-0.0699 -0.245981,-0.0965 -0.142283,-0.0289 -0.335208,-0.0289 h -0.561897 v 1.35531 h 0.482315 q 0.226688,0 0.395498,-0.0386 0.16881,-0.041 0.286977,-0.14951 0.10852,-0.10129 0.159163,-0.23151 0.05306,-0.13264 0.05306,-0.33521 z m 2.845655,2.58038 H 23.12183 v -0.36656 h 0.470256 v -2.85771 H 23.12183 V 291.051 h 1.418004 v 0.36656 h -0.470256 v 2.85771 h 0.470256 z m 3.807873,-0.26527 q -0.294212,0.13504 -0.64389,0.23633 -0.347266,0.0989 -0.672829,0.0989 -0.419613,0 -0.769291,-0.11575 -0.349678,-0.11576 -0.595659,-0.34727 -0.248391,-0.23392 -0.383439,-0.5836 -0.135049,-0.35209 -0.135049,-0.82234 0,-0.86094 0.501607,-1.35772 0.504019,-0.49919 1.381831,-0.49919 0.30627,0 0.624598,0.0748 0.320739,0.0724 0.689709,0.2484 v 0.56672 h -0.04341 q -0.07476,-0.0579 -0.217042,-0.15193 -0.142282,-0.0941 -0.279742,-0.15676 -0.166398,-0.0747 -0.378617,-0.12299 -0.209807,-0.0506 -0.477491,-0.0506 -0.602893,0 -0.954983,0.38826 -0.349678,0.38586 -0.349678,1.04663 0,0.69694 0.366559,1.0852 0.366559,0.38586 0.998391,0.38586 0.231511,0 0.460611,-0.0458 0.23151,-0.0458 0.405144,-0.11817 v -0.88037 h -0.962218 v -0.41961 h 1.434886 z"
       id="text1"
       style="font-size:4.9389px;line-height:1.25;word-spacing:0px;display:inline;stroke-width:0.264583"
       aria-label="TRIG" />
    <text
       xml:space="preserve"
       style="font-size:3.52778px;line-height:1.25;font-family:sans-serif;word-spacing:0px;stroke-width:0.264583"
       x="-21.247927"
       y="228.50198"
       id="text2"><tspan
         sodipodi:role="line"
         id="tspan1"
         style="font-size:3.52778px;stroke-width:0.264583"
         x="-21.247927"
         y="228.50198" /></text>
    <text
       xml:space="preserve"
       style="font-size:3.175px;line-height:1.25;font-family:sans-serif;word-spacing:0px;stroke-width:0.264583"
       x="-29.266012"
       y="228.36835"
       id="text3"><tspan
         sodipodi:role="line"
         id="tspan2"
         style="font-size:3.175px;stroke-width:0.264583"
         x="-29.266012"
         y="228.36835" /></text>
    <path
       d="m 10.653323,220.50033 -0.79685,1.14102 0.7953,1.16737 h -0.355017 l -0.629419,-0.95033 -0.644922,0.95033 H 8.687552 l 0.804602,-1.15342 -0.785999,-1.15497 h 0.353467 l 0.621667,0.93793 0.635621,-0.93793 z m 3.480408,1.15652 q 0,0.31471 -0.137976,0.57051 -0.136426,0.2558 -0.364319,0.39687 -0.15813,0.0977 -0.353467,0.14108 -0.193787,0.0434 -0.511597,0.0434 h -0.58291 v -2.30839 h 0.576709 q 0.337964,0 0.536402,0.0496 0.199987,0.0481 0.337963,0.13333 0.235645,0.14727 0.36742,0.39222 0.131775,0.24495 0.131775,0.58136 z m -0.320911,-0.005 q 0,-0.2713 -0.09457,-0.45734 -0.09457,-0.18603 -0.282153,-0.293 -0.136426,-0.0775 -0.289905,-0.10697 -0.153479,-0.031 -0.367419,-0.031 h -0.288355 v 1.78129 h 0.288355 q 0.221692,0 0.386023,-0.0326 0.165881,-0.0325 0.303857,-0.12092 0.172083,-0.11007 0.257349,-0.28991 0.08682,-0.17983 0.08682,-0.44958 z m 2.726965,1.15652 H 16.14136 l -0.772046,-0.91778 h -0.432531 v 0.91778 h -0.306958 v -2.30839 h 0.646472 q 0.209289,0 0.348816,0.0279 0.139526,0.0263 0.251147,0.0961 0.125574,0.0791 0.195337,0.19998 0.07131,0.11938 0.07131,0.30386 0,0.2496 -0.125573,0.41858 -0.125574,0.16743 -0.345716,0.2527 z M 15.822,221.14955 q 0,-0.0992 -0.03566,-0.17518 -0.03411,-0.0775 -0.114722,-0.13022 -0.06666,-0.045 -0.158129,-0.062 -0.09147,-0.0186 -0.215491,-0.0186 H 14.93678 v 0.87127 h 0.310058 q 0.145728,0 0.254248,-0.0248 0.108521,-0.0264 0.184485,-0.0961 0.06976,-0.0651 0.102319,-0.14882 0.03411,-0.0853 0.03411,-0.2155 z m 1.829346,1.65882 h -0.911573 v -0.23565 h 0.302307 v -1.83709 h -0.302307 v -0.23565 h 0.911573 v 0.23565 h -0.302308 v 1.83709 h 0.302308 z m 1.996777,-2.03554 h -1.167371 v 0.65113 h 1.00304 v 0.27285 h -1.00304 v 1.11156 h -0.306958 v -2.30839 h 1.474329 z m 2.043286,0 h -0.824756 v 2.03554 h -0.306958 v -2.03554 h -0.824756 v -0.27285 h 1.95647 z"
       id="text4"
       style="font-size:3.175px;line-height:1.25;word-spacing:0px;stroke-width:0.264583"
       aria-label="X DRIFT" />
    <path
       d="m 6.8560885,232.82106 h -0.824756 v 2.03554 h -0.306958 v -2.03554 h -0.824756 v -0.27285 h 1.95647 z m 1.953369,-0.008 q 0.141077,0.15503 0.215491,0.37982 0.07596,0.2248 0.07596,0.51005 0,0.28525 -0.07751,0.5116 -0.07596,0.22479 -0.21394,0.37517 -0.142627,0.15658 -0.337964,0.23564 -0.193787,0.0791 -0.443384,0.0791 -0.243396,0 -0.443384,-0.0806 -0.198437,-0.0806 -0.337963,-0.23409 -0.139527,-0.15348 -0.215491,-0.37672 -0.07441,-0.22325 -0.07441,-0.51005 0,-0.28215 0.07441,-0.5054 0.07441,-0.22479 0.217041,-0.38447 0.136426,-0.15193 0.337964,-0.23254 0.203088,-0.0806 0.441833,-0.0806 0.248047,0 0.444934,0.0822 0.198438,0.0806 0.336414,0.23099 z m -0.02791,0.88987 q 0,-0.44959 -0.201538,-0.69298 -0.201539,-0.24495 -0.550354,-0.24495 -0.351917,0 -0.553455,0.24495 -0.199988,0.24339 -0.199988,0.69298 0,0.45424 0.204639,0.69608 0.204639,0.2403 0.548804,0.2403 0.344165,0 0.547253,-0.2403 0.204639,-0.24184 0.204639,-0.69608 z m 2.3750495,-0.88212 h -0.824756 v 2.03554 h -0.306958 v -2.03554 H 9.2001265 v -0.27285 h 1.9564705 z m 1.944067,2.03554 h -0.327112 l -0.226343,-0.64337 h -0.998388 l -0.226343,0.64337 h -0.311609 l 0.840259,-2.30839 h 0.409277 z m -0.648023,-0.90692 -0.404626,-1.13327 -0.406177,1.13327 z m 2.458765,0.90692 h -1.460375 v -2.30839 h 0.306958 v 2.03554 h 1.153417 z m 3.373438,-1.15187 q 0,0.31471 -0.137976,0.57051 -0.136426,0.2558 -0.364319,0.39687 -0.15813,0.0977 -0.353467,0.14108 -0.193786,0.0434 -0.511596,0.0434 h -0.582911 v -2.30839 h 0.576709 q 0.337964,0 0.536402,0.0496 0.199988,0.0481 0.337964,0.13333 0.235644,0.14727 0.367419,0.39222 0.131775,0.24495 0.131775,0.58136 z m -0.320911,-0.005 q 0,-0.2713 -0.09457,-0.45734 -0.09457,-0.18603 -0.282153,-0.293 -0.136426,-0.0775 -0.289905,-0.10697 -0.153479,-0.031 -0.367419,-0.031 h -0.288355 v 1.78129 h 0.288355 q 0.221692,0 0.386023,-0.0326 0.165881,-0.0326 0.303857,-0.12092 0.172083,-0.11007 0.257349,-0.28991 0.08682,-0.17983 0.08682,-0.44958 z m 2.726965,1.15652 h -0.398425 l -0.772046,-0.91778 h -0.432532 v 0.91778 h -0.306958 v -2.30839 h 0.646472 q 0.20929,0 0.348816,0.0279 0.139526,0.0264 0.251148,0.0961 0.125573,0.0791 0.195336,0.19999 0.07131,0.11938 0.07131,0.30386 0,0.2496 -0.125574,0.41858 -0.125574,0.16743 -0.345715,0.2527 z m -0.717786,-1.65882 q 0,-0.0992 -0.03566,-0.17518 -0.03411,-0.0775 -0.114722,-0.13022 -0.06666,-0.045 -0.15813,-0.062 -0.09147,-0.0186 -0.215491,-0.0186 h -0.361218 v 0.87127 h 0.310059 q 0.145727,0 0.254248,-0.0248 0.10852,-0.0264 0.184484,-0.0961 0.06976,-0.0651 0.10232,-0.14883 0.03411,-0.0853 0.03411,-0.21549 z m 1.829346,1.65882 h -0.911573 v -0.23565 h 0.302307 v -1.83709 h -0.302307 v -0.23565 h 0.911573 v 0.23565 H 21.50015 v 1.83709 h 0.302308 z m 1.996778,-2.03554 h -1.167371 v 0.65113 h 1.00304 v 0.27285 h -1.00304 v 1.11156 h -0.306958 v -2.30839 h 1.474329 z m 2.043285,0 h -0.824756 v 2.03554 h -0.306958 v -2.03554 h -0.824756 v -0.27285 h 1.95647 z"
       id="text5"
       style="font-size:3.175px;line-height:1.25;word-spacing:0px;stroke-width:0.264583"
       aria-label="TOTAL DRIFT" />
    <path
       d="m 12.591199,245.65684 q 0,0.31471 -0.137977,0.57051 -0.136425,0.2558 -0.364318,0.39687 -0.15813,0.0977 -0.353467,0.14108 -0.193787,0.0434 -0.511597,0.0434 h -0.582911 v -2.30839 h 0.57671 q 0.337964,0 0.536401,0.0496 0.199988,0.0481 0.337964,0.13333 0.235645,0.14727 0.36742,0.39222 0.131775,0.24495 0.131775,0.58136 z m -0.320911,-0.005 q 0,-0.2713 -0.09457,-0.45734 -0.09457,-0.18603 -0.282153,-0.293 -0.136426,-0.0775 -0.289905,-0.10697 -0.153479,-0.031 -0.367419,-0.031 h -0.288356 v 1.78129 h 0.288356 q 0.221691,0 0.386022,-0.0326 0.165882,-0.0325 0.303858,-0.12092 0.172082,-0.11007 0.257349,-0.2899 0.08682,-0.17984 0.08682,-0.44959 z m 2.726965,1.15652 h -0.398425 l -0.772046,-0.91777 H 13.39425 v 0.91777 h -0.306958 v -2.30839 h 0.646472 q 0.20929,0 0.348816,0.0279 0.139527,0.0263 0.251148,0.0961 0.125574,0.0791 0.195337,0.19998 0.07131,0.11938 0.07131,0.30386 0,0.2496 -0.125574,0.41858 -0.125573,0.16743 -0.345715,0.2527 z m -0.717785,-1.65881 q 0,-0.0992 -0.03566,-0.17519 -0.03411,-0.0775 -0.114722,-0.13022 -0.06666,-0.045 -0.15813,-0.062 -0.09147,-0.0186 -0.21549,-0.0186 h -0.361219 v 0.87127 h 0.310059 q 0.145727,0 0.254248,-0.0248 0.10852,-0.0264 0.184485,-0.0961 0.06976,-0.0651 0.102319,-0.14882 0.03411,-0.0853 0.03411,-0.21549 z m 1.829345,1.65881 h -0.911572 v -0.23565 h 0.302307 v -1.83709 h -0.302307 v -0.23565 h 0.911572 v 0.23565 h -0.302307 v 1.83709 h 0.302307 z m 1.996777,-2.03554 h -1.16737 v 0.65113 h 1.003039 v 0.27285 H 16.93822 v 1.11156 h -0.306958 v -2.30839 h 1.474328 z m 2.043286,0 H 19.32412 v 2.03554 h -0.306958 v -2.03554 h -0.824755 v -0.27285 h 1.956469 z"
       id="text6"
       style="font-size:3.175px;line-height:1.25;word-spacing:0px;stroke-width:0.264583"
       aria-label="DRIFT" />
    <path
       d="m 9.9101723,257.88164 q 0,0.25115 -0.05581,0.43874 -0.054259,0.18603 -0.1798335,0.31005 -0.119372,0.11783 -0.279052,0.17209 -0.1596811,0.0543 -0.372071,0.0543 -0.217041,0 -0.378271,-0.0574 -0.161231,-0.0574 -0.271301,-0.16899 -0.125574,-0.12712 -0.181385,-0.30695 -0.05426,-0.17984 -0.05426,-0.44184 v -1.38131 h 0.306958 v 1.39682 q 0,0.18758 0.0248,0.2961 0.02636,0.10852 0.08682,0.19689 0.06821,0.10077 0.184485,0.15193 0.117822,0.0512 0.282153,0.0512 0.165882,0 0.282154,-0.0496 0.116272,-0.0512 0.186035,-0.15348 0.06046,-0.0884 0.08527,-0.20154 0.02635,-0.11472 0.02635,-0.2837 v -1.40457 h 0.3069575 z m 2.3471427,0.92708 h -0.379821 l -1.094507,-2.06499 v 2.06499 h -0.286804 v -2.30839 h 0.475939 l 0.998389,1.88516 v -1.88516 h 0.286804 z m 2.564185,-1.15187 q 0,0.31471 -0.137976,0.57051 -0.136426,0.2558 -0.364319,0.39687 -0.15813,0.0977 -0.353467,0.14108 -0.193786,0.0434 -0.511596,0.0434 h -0.582911 v -2.30839 h 0.576709 q 0.337964,0 0.536402,0.0496 0.199988,0.0481 0.337964,0.13333 0.235644,0.14727 0.367419,0.39222 0.131775,0.24495 0.131775,0.58136 z m -0.320911,-0.005 q 0,-0.2713 -0.09457,-0.45734 -0.09457,-0.18603 -0.282153,-0.293 -0.136426,-0.0775 -0.289905,-0.10697 -0.153479,-0.031 -0.367419,-0.031 h -0.288355 v 1.78129 h 0.288355 q 0.221692,0 0.386023,-0.0326 0.165881,-0.0325 0.303857,-0.12092 0.172083,-0.11007 0.257349,-0.28991 0.08682,-0.17983 0.08682,-0.44958 z m 2.726965,1.15652 h -0.398425 l -0.772046,-0.91778 h -0.432532 v 0.91778 h -0.306958 v -2.30839 h 0.646473 q 0.209289,0 0.348816,0.0279 0.139526,0.0263 0.251147,0.0961 0.125574,0.0791 0.195337,0.19999 0.07131,0.11937 0.07131,0.30386 0,0.2496 -0.125573,0.41858 -0.125574,0.16743 -0.345716,0.2527 z m -0.717785,-1.65882 q 0,-0.0992 -0.03566,-0.17518 -0.03411,-0.0775 -0.114722,-0.13022 -0.06666,-0.045 -0.15813,-0.062 -0.09147,-0.0186 -0.21549,-0.0186 h -0.361219 v 0.87127 h 0.310059 q 0.145728,0 0.254248,-0.0248 0.108521,-0.0264 0.184485,-0.0961 0.06976,-0.0651 0.102319,-0.14883 0.03411,-0.0853 0.03411,-0.21549 z m 1.829345,1.65882 h -0.911572 v -0.23565 h 0.302307 v -1.83709 h -0.302307 v -0.23565 h 0.911572 v 0.23565 h -0.302307 v 1.83709 h 0.302307 z m 1.996778,-2.03554 h -1.16737 v 0.65113 h 1.003039 v 0.27285 h -1.003039 v 1.11156 h -0.306958 v -2.30839 h 1.474328 z m 2.043286,0 h -0.824756 v 2.03554 h -0.306958 v -2.03554 h -0.824756 v -0.27285 h 1.95647 z"
       id="text7"
       style="font-size:3.175px;line-height:1.25;word-spacing:0px;stroke-width:0.264583"
       aria-label="UNDRIFT" />
    <path
       d="m 12.213938,270.85026 h -0.398426 l -0.772046,-0.91777 h -0.432531 v 0.91777 h -0.306958 v -2.30838 h 0.646472 q 0.209289,0 0.348816,0.0279 0.139526,0.0264 0.251147,0.0961 0.125574,0.0791 0.195337,0.19999 0.07131,0.11937 0.07131,0.30386 0,0.24959 -0.125574,0.41857 -0.125574,0.16744 -0.345715,0.2527 z m -0.717786,-1.65881 q 0,-0.0992 -0.03566,-0.17518 -0.03411,-0.0775 -0.114721,-0.13023 -0.06666,-0.045 -0.15813,-0.062 -0.09147,-0.0186 -0.215491,-0.0186 h -0.361218 v 0.87126 h 0.310058 q 0.145728,0 0.254248,-0.0248 0.108521,-0.0264 0.184485,-0.0961 0.06976,-0.0651 0.10232,-0.14883 0.03411,-0.0853 0.03411,-0.21549 z m 2.536279,1.65881 h -1.520837 v -2.30838 h 1.520837 v 0.27285 h -1.213879 v 0.63252 h 1.213879 v 0.27285 h -1.213879 v 0.85731 h 1.213879 z m 2.164209,-0.65887 q 0,0.13487 -0.06356,0.26665 -0.06201,0.13177 -0.175183,0.22324 -0.124024,0.0992 -0.289905,0.15503 -0.164331,0.0558 -0.396875,0.0558 -0.249597,0 -0.449585,-0.0465 -0.198437,-0.0465 -0.404626,-0.13797 v -0.38448 h 0.0217 q 0.175183,0.14573 0.404626,0.2248 0.229444,0.0791 0.430982,0.0791 0.285254,0 0.443383,-0.10697 0.159681,-0.10697 0.159681,-0.28525 0,-0.15348 -0.07596,-0.22635 -0.07441,-0.0729 -0.227893,-0.11317 -0.116272,-0.031 -0.252698,-0.0512 -0.134875,-0.0202 -0.286804,-0.0512 -0.306958,-0.0651 -0.455786,-0.22169 -0.147278,-0.15813 -0.147278,-0.41083 0,-0.2899 0.244947,-0.47439 0.244946,-0.18603 0.621667,-0.18603 0.243396,0 0.446484,0.0465 0.203089,0.0465 0.359668,0.11472 v 0.36277 h -0.0217 q -0.131775,-0.11162 -0.347265,-0.18449 -0.213941,-0.0744 -0.438733,-0.0744 -0.246497,0 -0.396875,0.10232 -0.148828,0.10232 -0.148828,0.26355 0,0.14418 0.07441,0.22634 0.07441,0.0822 0.261999,0.12557 0.09922,0.0217 0.282153,0.0527 0.182935,0.031 0.310059,0.0636 0.257349,0.0682 0.387573,0.20619 0.130225,0.13797 0.130225,0.38602 z m 2.01383,0.65887 h -1.520837 v -2.30838 h 1.520837 v 0.27285 h -1.213879 v 0.63252 h 1.213879 v 0.27285 h -1.213879 v 0.85731 h 1.213879 z m 2.133204,-2.03553 h -0.824756 v 2.03553 H 19.21196 v -2.03553 h -0.824756 v -0.27285 h 1.95647 z"
       id="text8"
       style="font-size:3.175px;line-height:1.25;word-spacing:0px;stroke-width:0.264583"
       aria-label="RESET" />
    <g
       aria-label="-"
       id="text1760-2-5"
       style="font-size:10.5833px;line-height:1.25;font-family:sans-serif;word-spacing:0px;display:inline;stroke-width:0.264583"
       transform="translate(65.341942,212.58838)">
      <path
         d="m -48.334459,40.379236 h -3.224599 v -0.935341 h 3.224599 z"
         style="stroke-width:0.264583"
         id="path1762-2-5" />
    </g>
    <path
       d="m 20.513656,275.79606 q 0,0.11473 -0.04341,0.20258 -0.04341,0.0879 -0.116789,0.1447 -0.08682,0.0682 -0.191203,0.0971 -0.103353,0.0289 -0.26355,0.0289 H 19.353 v -1.53893 h 0.455787 q 0.168465,0 0.252181,0.0124 0.08372,0.0124 0.160197,0.0517 0.08475,0.0444 0.12299,0.11472 0.03824,0.0693 0.03824,0.1664 0,0.10956 -0.05581,0.18707 -0.05581,0.0765 -0.148828,0.12299 v 0.008 q 0.156063,0.032 0.24598,0.13746 0.08992,0.10439 0.08992,0.26458 z m -0.344165,-0.69349 q 0,-0.0558 -0.0186,-0.094 -0.0186,-0.0382 -0.05995,-0.062 -0.04858,-0.0279 -0.117822,-0.0341 -0.06925,-0.007 -0.171566,-0.007 h -0.243912 v 0.44442 h 0.264583 q 0.09612,0 0.152963,-0.009 0.05684,-0.0103 0.10542,-0.0413 0.04858,-0.031 0.06821,-0.0796 0.02067,-0.0496 0.02067,-0.11679 z m 0.131258,0.70177 q 0,-0.093 -0.02791,-0.14779 -0.02791,-0.0548 -0.101286,-0.093 -0.04961,-0.0258 -0.120923,-0.0331 -0.07028,-0.008 -0.171566,-0.008 h -0.321423 v 0.57257 h 0.270785 q 0.134359,0 0.220142,-0.0134 0.08578,-0.0145 0.14056,-0.0517 0.05788,-0.0403 0.08475,-0.092 0.02687,-0.0517 0.02687,-0.13333 z m 1.045932,0.46508 h -0.607715 v -0.1571 h 0.201538 v -1.22473 h -0.201538 v -0.1571 h 0.607715 v 0.1571 h -0.201538 v 1.22473 h 0.201538 z m 1.561665,0 h -0.218075 l -0.150896,-0.4289 h -0.665593 l -0.150895,0.4289 h -0.20774 l 0.560173,-1.53892 h 0.272852 z m -0.432016,-0.6046 -0.269751,-0.75552 -0.270785,0.75552 z m 1.773538,0.16536 q 0,0.0899 -0.04237,0.17777 -0.04134,0.0879 -0.116789,0.14883 -0.08268,0.0661 -0.19327,0.10335 -0.109554,0.0372 -0.264584,0.0372 -0.166398,0 -0.299723,-0.031 -0.132292,-0.031 -0.269752,-0.092 V 275.918 h 0.01447 q 0.116788,0.0971 0.269751,0.14986 0.152962,0.0527 0.287321,0.0527 0.19017,0 0.29559,-0.0713 0.106454,-0.0713 0.106454,-0.19017 0,-0.10232 -0.05064,-0.1509 -0.04961,-0.0486 -0.151929,-0.0754 -0.07751,-0.0207 -0.168466,-0.0341 -0.08992,-0.0134 -0.191203,-0.0341 -0.204639,-0.0434 -0.303858,-0.14779 -0.09819,-0.10542 -0.09819,-0.27389 0,-0.19327 0.163298,-0.31626 0.163297,-0.12402 0.414445,-0.12402 0.162265,0 0.297657,0.031 0.135392,0.031 0.239779,0.0765 v 0.24185 h -0.01447 q -0.08785,-0.0744 -0.231511,-0.123 -0.142627,-0.0496 -0.292489,-0.0496 -0.164332,0 -0.264584,0.0682 -0.09922,0.0682 -0.09922,0.1757 0,0.0961 0.04961,0.1509 0.04961,0.0548 0.174666,0.0837 0.06615,0.0145 0.188103,0.0351 0.121956,0.0207 0.206706,0.0424 0.171566,0.0455 0.258382,0.13745 0.08682,0.092 0.08682,0.25735 z"
       id="text11"
       style="font-size:2.11667px;line-height:1.25;word-spacing:0px;stroke-width:0.264583"
       aria-label="BIAS" />
    <path
       d="m 32.904749,276.26944 h -0.218075 l -0.150895,-0.42892 h -0.665594 l -0.150895,0.42892 h -0.20774 l 0.560173,-1.53893 h 0.272852 z m -0.432016,-0.60462 -0.269751,-0.75551 -0.270785,0.75551 z m 1.639179,-0.75241 h -0.549838 v 1.35703 h -0.204639 v -1.35703 h -0.549838 v -0.1819 h 1.304315 z m 1.231968,0 h -0.549838 v 1.35703 h -0.204639 v -1.35703 h -0.549838 v -0.1819 h 1.304315 z m 1.380797,1.35703 h -0.253215 l -0.729673,-1.37666 v 1.37666 h -0.191203 v -1.53893 h 0.317294 l 0.665593,1.25678 v -1.25678 h 0.191204 z"
       id="text12"
       style="font-size:2.11667px;line-height:1.25;word-spacing:0px;stroke-width:0.264583"
       aria-label="ATTN" />
  </g>
  <g
     inkscape:groupmode="layer"
     id="layer2"
     inkscape:label="components"
     style="display:none">
    <ellipse
       style="display:inline;opacity:1;vector-effect:none;fill:#ff0000;fill-opacity:1;fill-rule:evenodd;stroke:none;stroke-width:0.999995;stroke-linecap:butt;stroke-linejoin:miter;stroke-miterlimit:4;stroke-dasharray:none;stroke-dashoffset:0;stroke-opacity:1;paint-order:normal"
       id="path4954"
       cx="37.224068"
       cy="76"
       inkscape:label="count"
       rx="3.9999621"
       ry="4" />
    <circle
       r="4"
       cy="116.00047"
       cx="9.4300003"
       id="circle4956"
       style="display:inline;opacity:1;vector-effect:none;fill:#00ff00;fill-opacity:1;fill-rule:evenodd;stroke:none;stroke-width:1;stroke-linecap:butt;stroke-linejoin:miter;stroke-miterlimit:4;stroke-dasharray:none;stroke-dashoffset:0;stroke-opacity:1;paint-order:normal"
       inkscape:label="in" />
    <circle
       style="display:inline;opacity:1;vector-effect:none;fill:#0000ff;fill-opacity:1;fill-rule:evenodd;stroke:none;stroke-width:1;stroke-linecap:butt;stroke-linejoin:miter;stroke-miterlimit:4;stroke-dasharray:none;stroke-dashoffset:0;stroke-opacity:1;paint-order:normal"
       id="circle4958"
       cx="36.290001"
       cy="116.00047"
       r="4"
       inkscape:label="out" />
    <circle
       style="display:inline;vector-effect:none;fill:#0000ff;fill-opacity:1;fill-rule:evenodd;stroke:none;stroke-width:1;stroke-linecap:butt;stroke-linejoin:miter;stroke-miterlimit:4;stroke-dasharray:none;stroke-dashoffset:0;stroke-opacity:1;paint-order:normal"
       id="circle4958-9"
       cx="22.860001"
       cy="116.00047"
       r="4"
       inkscape:label="trig_out" />
    <circle
       style="display:inline;opacity:1;vector-effect:none;fill:#ff0000;fill-opacity:1;fill-rule:evenodd;stroke:none;stroke-width:1;stroke-linecap:butt;stroke-linejoin:miter;stroke-miterlimit:4;stroke-dasharray:none;stroke-dashoffset:0;stroke-opacity:1;paint-order:normal"
       id="path4954-3"
       cx="22.62393"
       cy="60"
       r="4"
       inkscape:label="scale_dial" />
    <circle
       r="4"
       cy="72"
       cx="8.0237217"
       id="circle4956-3"
       style="display:inline;opacity:1;vector-effect:none;fill:#00ff00;fill-opacity:1;fill-rule:evenodd;stroke:none;stroke-width:1;stroke-linecap:butt;stroke-linejoin:miter;stroke-miterlimit:4;stroke-dasharray:none;stroke-dashoffset:0;stroke-opacity:1;paint-order:normal"
       inkscape:label="drift_in" />
    <circle
       style="display:inline;opacity:1;vector-effect:none;fill:#ff0000;fill-opacity:1;fill-rule:evenodd;stroke:none;stroke-width:1;stroke-linecap:butt;stroke-linejoin:miter;stroke-miterlimit:4;stroke-dasharray:none;stroke-dashoffset:0;stroke-opacity:1;paint-order:normal"
       id="path4954-3-0-2"
       cx="37.224136"
       cy="62.000008"
       r="4"
       inkscape:label="ends" />
    <circle
       r="4"
       cy="96"
       cx="8.0237217"
       id="circle4956-3-4"
       style="display:inline;opacity:1;vector-effect:none;fill:#00ff00;fill-opacity:1;fill-rule:evenodd;stroke:none;stroke-width:1;stroke-linecap:butt;stroke-linejoin:miter;stroke-miterlimit:4;stroke-dasharray:none;stroke-dashoffset:0;stroke-opacity:1;paint-order:normal"
       inkscape:label="reset_in" />
    <circle
       style="display:inline;opacity:1;vector-effect:none;fill:#ff0000;fill-opacity:1;fill-rule:evenodd;stroke:none;stroke-width:1;stroke-linecap:butt;stroke-linejoin:miter;stroke-miterlimit:4;stroke-dasharray:none;stroke-dashoffset:0;stroke-opacity:1;paint-order:normal"
       id="path4954-3-0-2-9"
       cx="22.62393"
       cy="96"
       r="4"
       inkscape:label="reset_button" />
    <circle
       style="display:inline;opacity:1;vector-effect:none;fill:#ff0000;fill-opacity:1;fill-rule:evenodd;stroke:none;stroke-width:1;stroke-linecap:butt;stroke-linejoin:miter;stroke-miterlimit:4;stroke-dasharray:none;stroke-dashoffset:0;stroke-opacity:1;paint-order:normal"
       id="path4954-0"
       cx="37.224136"
       cy="90.999855"
       r="4"
       inkscape:label="style" />
    <circle
       style="display:inline;opacity:1;vector-effect:none;fill:#ff0000;fill-opacity:1;fill-rule:evenodd;stroke:none;stroke-width:1;stroke-linecap:butt;stroke-linejoin:miter;stroke-miterlimit:4;stroke-dasharray:none;stroke-dashoffset:0;stroke-opacity:1;paint-order:normal"
       id="path4954-3-0-2-9-7"
       cx="22.62393"
       cy="72"
       r="4"
       inkscape:label="drift_button" />
    <circle
       r="4"
       cy="84"
       cx="8.0240002"
       id="circle4956-3-7"
       style="display:inline;vector-effect:none;fill:#00ff00;fill-opacity:1;fill-rule:evenodd;stroke:none;stroke-width:1;stroke-linecap:butt;stroke-linejoin:miter;stroke-miterlimit:4;stroke-dasharray:none;stroke-dashoffset:0;stroke-opacity:1;paint-order:normal"
       inkscape:label="undrift_in" />
    <circle
       style="display:inline;vector-effect:none;fill:#ff0000;fill-opacity:1;fill-rule:evenodd;stroke:none;stroke-width:1;stroke-linecap:butt;stroke-linejoin:miter;stroke-miterlimit:4;stroke-dasharray:none;stroke-dashoffset:0;stroke-opacity:1;paint-order:normal"
       id="path4954-3-0-2-9-7-1"
       cx="22.62421"
       cy="84"
       r="4"
       inkscape:label="drift_button" />
    <circle
       r="4"
       cy="60"
       cx="8.0237217"
       id="circle4956-3-4-2"
       style="display:inline;opacity:1;vector-effect:none;fill:#00ff00;fill-opacity:1;fill-rule:evenodd;stroke:none;stroke-width:1;stroke-linecap:butt;stroke-linejoin:miter;stroke-miterlimit:4;stroke-dasharray:none;stroke-dashoffset:0;stroke-opacity:1;paint-order:normal"
       inkscape:label="scale_in" />
    <circle
       style="display:inline;opacity:1;vector-effect:none;fill:#ff0000;fill-opacity:1;fill-rule:evenodd;stroke:none;stroke-width:1;stroke-linecap:butt;stroke-linejoin:miter;stroke-miterlimit:4;stroke-dasharray:none;stroke-dashoffset:0;stroke-opacity:1;paint-order:normal"
       id="path4954-3-1"
       cx="22.62393"
       cy="48"
       r="4"
       inkscape:label="xdift_knob" />
    <circle
       style="display:inline;opacity:1;vector-effect:none;fill:#ff0000;fill-opacity:1;fill-rule:evenodd;stroke:none;stroke-width:1;stroke-linecap:butt;stroke-linejoin:miter;stroke-miterlimit:4;stroke-dasharray:none;stroke-dashoffset:0;stroke-opacity:1;paint-order:normal"
       id="path4954-3-0-2-5"
       cx="37.223999"
       cy="48"
       r="4"
       inkscape:label="offset" />
    <circle
       style="display:inline;vector-effect:none;fill:#ff0000;fill-opacity:1;fill-rule:evenodd;stroke:none;stroke-width:1;stroke-linecap:butt;stroke-linejoin:miter;stroke-miterlimit:4;stroke-dasharray:none;stroke-dashoffset:0;stroke-opacity:1;paint-order:normal"
       id="path4954-3-0-2-5-9"
       cx="40.392296"
       cy="107"
       r="4"
       inkscape:label="attenuverter" />
    <circle
       style="display:inline;vector-effect:none;fill:#ff0000;fill-opacity:1;fill-rule:evenodd;stroke:none;stroke-width:1;stroke-linecap:butt;stroke-linejoin:miter;stroke-miterlimit:4;stroke-dasharray:none;stroke-dashoffset:0;stroke-opacity:1;paint-order:normal"
       id="path4954-3-0-2-5-9-8"
       cx="27.999571"
       cy="107"
       r="4"
       inkscape:label="bias" />
    <circle
       r="4"
       cy="48"
       cx="8.0237217"
       id="circle4956-3-4-2-4"
       style="display:inline;opacity:1;vector-effect:none;fill:#00ff00;fill-opacity:1;fill-rule:evenodd;stroke:none;stroke-width:1;stroke-linecap:butt;stroke-linejoin:miter;stroke-miterlimit:4;stroke-dasharray:none;stroke-dashoffset:0;stroke-opacity:1;paint-order:normal"
       inkscape:label="xdrift_in" />
  </g>
</svg>
