<?xml version="1.0" encoding="UTF-8" standalone="no"?>
<svg
   width="30.48mm"
   height="128.5mm"
   viewBox="0 0 30.480002 128.50002"
   version="1.1"
   id="svg8"
   inkscape:version="1.2.1 (9c6d41e410, 2022-07-14)"
   sodipodi:docname="Embellish.svg"
   xmlns:inkscape="http://www.inkscape.org/namespaces/inkscape"
   xmlns:sodipodi="http://sodipodi.sourceforge.net/DTD/sodipodi-0.dtd"
   xmlns="http://www.w3.org/2000/svg"
   xmlns:svg="http://www.w3.org/2000/svg"
   xmlns:rdf="http://www.w3.org/1999/02/22-rdf-syntax-ns#"
   xmlns:cc="http://creativecommons.org/ns#"
   xmlns:dc="http://purl.org/dc/elements/1.1/">
  <defs
     id="defs2" />
  <sodipodi:namedview
     id="base"
     pagecolor="#ffffff"
     bordercolor="#666666"
     borderopacity="1.0"
     inkscape:pageopacity="0.0"
     inkscape:pageshadow="2"
     inkscape:zoom="2.0000001"
     inkscape:cx="60.749997"
     inkscape:cy="205.49999"
     inkscape:document-units="mm"
     inkscape:current-layer="layer2"
     showgrid="false"
     units="mm"
     inkscape:snap-bbox="true"
     inkscape:snap-page="true"
     inkscape:bbox-nodes="false"
     inkscape:snap-bbox-edge-midpoints="false"
     inkscape:window-width="1269"
     inkscape:window-height="1201"
     inkscape:window-x="1121"
     inkscape:window-y="159"
     inkscape:window-maximized="0"
     inkscape:snap-bbox-midpoints="true"
     inkscape:snap-nodes="false"
     inkscape:document-rotation="0"
     inkscape:showpageshadow="2"
     inkscape:pagecheckerboard="0"
     inkscape:deskcolor="#d1d1d1" />
  <metadata
     id="metadata5">
    <rdf:RDF>
      <cc:Work
         rdf:about="">
        <dc:format>image/svg+xml</dc:format>
        <dc:type
           rdf:resource="http://purl.org/dc/dcmitype/StillImage" />
      </cc:Work>
    </rdf:RDF>
  </metadata>
  <g
     inkscape:label="Background"
     inkscape:groupmode="layer"
     id="layer1"
     transform="translate(0,-168.49998)"
     style="display:inline">
    <rect
       style="display:inline;opacity:1;vector-effect:none;fill:#e8f1f2;fill-opacity:1;fill-rule:evenodd;stroke:none;stroke-width:0.649358;stroke-linecap:butt;stroke-linejoin:miter;stroke-miterlimit:4;stroke-dasharray:none;stroke-dashoffset:0;stroke-opacity:1;paint-order:normal"
       id="rect420"
       width="30.48"
       height="128.5"
       x="5.9211732e-17"
       y="168.49997" />
    <g
       aria-label="!"
       transform="matrix(1.1167128,-0.15549235,0.12836675,1.3252781,-2.30373,165.39159)"
       id="text912"
       style="font-style:normal;font-weight:normal;font-size:127.426px;line-height:1.25;font-family:sans-serif;display:inline;fill:#388fe4;fill-opacity:1;stroke:none;stroke-width:3.18552;stroke-miterlimit:4;stroke-dasharray:none">
      <path
         d="M 17.007808,5.7176488 15.390095,72.852735 H 4.8127414 L 3.070589,5.7176488 Z M 16.385611,98.362823 H 3.6927863 V 85.234461 H 16.385611 Z"
         style="display:inline;fill:#388fe4;fill-opacity:1;stroke-width:3.18552;stroke-miterlimit:4;stroke-dasharray:none"
         id="path1767" />
    </g>
  </g>
  <g
     inkscape:label="Layer 1"
     inkscape:groupmode="layer"
     id="g1684"
     transform="translate(0,-168.49998)"
     style="display:inline;opacity:1">
    <g
       aria-label="Embellish"
       id="text417"
       style="font-size:5.64444px;line-height:1.25;word-spacing:0px;stroke-width:0.264583">
      <path
         d="M 4.9143674,178.16104 H 2.2106585 v -4.10379 h 2.7037089 v 0.48507 H 2.7563612 v 1.12447 h 2.1580062 v 0.48507 H 2.7563612 v 1.52411 h 2.1580062 z"
         id="path534" />
      <path
         d="M 10.230835,178.16104 H 9.7126926 v -1.75286 q 0,-0.19844 -0.019293,-0.3831 -0.016536,-0.18465 -0.074414,-0.2949 -0.06339,-0.11851 -0.1819009,-0.17914 -0.1185112,-0.0606 -0.3417532,-0.0606 -0.2177299,0 -0.4354598,0.11024 -0.2177298,0.10749 -0.4354597,0.27561 0.00827,0.0634 0.01378,0.14882 0.00551,0.0827 0.00551,0.16537 v 1.97059 H 7.7255631 v -1.75286 q 0,-0.20395 -0.019293,-0.38585 -0.016536,-0.18466 -0.074414,-0.2949 -0.06339,-0.11851 -0.1819009,-0.17639 -0.1185112,-0.0606 -0.3417532,-0.0606 -0.2122177,0 -0.4271915,0.10473 -0.2122177,0.10473 -0.4244355,0.26734 v 2.29856 H 5.7384335 v -3.07853 h 0.5181419 v 0.34175 q 0.2425346,-0.20119 0.4823131,-0.31419 0.2425345,-0.113 0.5153858,-0.113 0.3141925,0 0.5319224,0.13229 0.2204859,0.13229 0.3279728,0.36656 0.3141925,-0.26459 0.5732635,-0.38034 0.259071,-0.11851 0.5539709,-0.11851 0.5071177,0 0.7468962,0.30868 0.2425349,0.30592 0.2425349,0.85714 z"
         id="path536" />
      <path
         d="m 13.937754,176.59835 q 0,0.38585 -0.110243,0.69453 -0.107487,0.30868 -0.292144,0.51814 -0.195681,0.21773 -0.429947,0.32797 -0.234267,0.10749 -0.515386,0.10749 -0.261827,0 -0.457509,-0.0634 -0.195681,-0.0606 -0.38585,-0.16536 l -0.03307,0.14331 h -0.485069 v -4.28845 h 0.518142 v 1.53238 q 0.21773,-0.17915 0.46302,-0.29215 0.245291,-0.11575 0.551215,-0.11575 0.545703,0 0.859895,0.41892 0.316949,0.41892 0.316949,1.18236 z m -0.534678,0.0138 q 0,-0.55122 -0.181901,-0.83509 -0.181901,-0.28663 -0.587044,-0.28663 -0.225998,0 -0.457509,0.0992 -0.23151,0.0965 -0.429947,0.25081 v 1.76388 q 0.220486,0.0992 0.377582,0.13781 0.159852,0.0386 0.361046,0.0386 0.429947,0 0.672482,-0.28112 0.245291,-0.28387 0.245291,-0.88745 z"
         id="path538" />
      <path
         d="m 17.322214,176.67552 h -2.268249 q 0,0.28387 0.08544,0.49609 0.08544,0.20946 0.234266,0.34451 0.143316,0.13229 0.338997,0.19844 0.198438,0.0661 0.43546,0.0661 0.314192,0 0.631141,-0.12402 0.319705,-0.12678 0.454752,-0.24805 h 0.02756 v 0.565 q -0.261827,0.11024 -0.534678,0.18466 -0.272852,0.0744 -0.573264,0.0744 -0.766188,0 -1.196136,-0.41341 -0.429948,-0.41617 -0.429948,-1.1796 0,-0.75517 0.410655,-1.19889 0.413412,-0.44373 1.085894,-0.44373 0.622872,0 0.959114,0.3638 0.338997,0.3638 0.338997,1.03353 z m -0.504362,-0.39688 q -0.0028,-0.4079 -0.206705,-0.63114 -0.201194,-0.22324 -0.614605,-0.22324 -0.416167,0 -0.664214,0.24529 -0.245291,0.24529 -0.278363,0.60909 z"
         id="path540" />
      <path
         d="m 18.631349,178.16104 h -0.518142 v -4.28845 h 0.518142 z"
         id="path542" />
      <path
         d="m 20.180263,178.16104 h -0.518142 v -4.28845 h 0.518142 z"
         id="path544" />
      <path
         d="m 21.76225,174.56712 h -0.584288 v -0.53743 h 0.584288 z m -0.03307,3.59392 h -0.518142 v -3.07853 h 0.518142 z"
         id="path546" />
      <path
         d="m 24.953784,177.27359 q 0,0.42167 -0.350022,0.69177 -0.347265,0.2701 -0.950845,0.2701 -0.341753,0 -0.628385,-0.0799 -0.283876,-0.0827 -0.476801,-0.17915 v -0.58153 h 0.02756 q 0.24529,0.18466 0.545702,0.2949 0.300413,0.10749 0.57602,0.10749 0.341753,0 0.534678,-0.11024 0.192926,-0.11025 0.192926,-0.34727 0,-0.1819 -0.104731,-0.27561 -0.104731,-0.0937 -0.402387,-0.15985 -0.110243,-0.0248 -0.289388,-0.0579 -0.176389,-0.0331 -0.322461,-0.0717 -0.405142,-0.10749 -0.576019,-0.3142 -0.168121,-0.20946 -0.168121,-0.51263 0,-0.19017 0.07717,-0.35829 0.07993,-0.16812 0.239779,-0.30041 0.15434,-0.12953 0.391363,-0.20395 0.239778,-0.0772 0.534678,-0.0772 0.275607,0 0.556727,0.0689 0.283876,0.0661 0.471289,0.16261 v 0.55397 h -0.02756 q -0.198437,-0.14607 -0.482313,-0.24529 -0.283876,-0.10197 -0.556727,-0.10197 -0.283876,0 -0.479557,0.11024 -0.195681,0.10749 -0.195681,0.32246 0,0.19017 0.118511,0.28663 0.115755,0.0965 0.374826,0.1571 0.143316,0.0331 0.319705,0.0661 0.179144,0.0331 0.297656,0.0606 0.361045,0.0827 0.556727,0.28387 0.195681,0.20395 0.195681,0.5402 z"
         id="path548" />
      <path
         d="m 28.269341,178.16104 h -0.518142 v -1.75286 q 0,-0.21222 -0.02481,-0.39688 -0.0248,-0.18741 -0.09095,-0.29214 -0.0689,-0.11576 -0.198437,-0.17088 -0.129536,-0.0579 -0.336241,-0.0579 -0.212218,0 -0.443728,0.10473 -0.231511,0.10473 -0.443728,0.26734 v 2.29856 h -0.518142 v -4.28845 h 0.518142 v 1.55167 q 0.242534,-0.20119 0.501605,-0.31419 0.259071,-0.113 0.531922,-0.113 0.49885,0 0.760677,0.30041 0.261827,0.30041 0.261827,0.86541 z"
         id="path550" />
    </g>
    <g
       aria-label="-"
       id="text1760-3"
       style="font-size:10.5833px;line-height:1.25;font-family:sans-serif;word-spacing:0px;display:inline;stroke-width:0.264583"
       transform="translate(64.387058,191.65497)">
      <path
         d="m -48.334459,40.379236 h -3.224599 v -0.935341 h 3.224599 z"
         style="stroke-width:0.264583"
         id="path1762-7" />
    </g>
    <g
       aria-label="-"
       id="text1760-3-2"
       style="font-size:10.5833px;line-height:1.25;font-family:sans-serif;word-spacing:0px;display:inline;opacity:1;stroke-width:0.264583"
       transform="translate(64.387058,176.58836)" />
    <g
       aria-label="L"
       id="text1685"
       style="font-size:7.05556px;line-height:1.25;word-spacing:0px;stroke-width:0.264583"
       transform="translate(1.0583333,-0.52916667)">
      <path
         d="m 9.6463625,292.45724 h -3.245282 v -5.12975 h 0.6821293 v 4.52342 h 2.5631527 z"
         id="path1691" />
    </g>
    <g
       aria-label="R"
       id="text1689"
       style="font-size:7.05556px;line-height:1.25;word-spacing:0px;stroke-width:0.264583"
       transform="translate(1.0583333,-0.52916667)">
      <path
         d="m 23.093342,292.45724 h -0.88539 l -1.715659,-2.03949 h -0.961182 v 2.03949 h -0.68213 v -5.12975 h 1.436606 q 0.465088,0 0.775147,0.062 0.310059,0.0586 0.558106,0.21359 0.279053,0.1757 0.434082,0.44442 0.158475,0.26527 0.158475,0.67524 0,0.55466 -0.279053,0.93018 -0.279053,0.37207 -0.768257,0.56155 z m -1.595081,-3.68625 q 0,-0.22049 -0.07924,-0.3893 -0.07579,-0.17225 -0.254937,-0.28938 -0.148139,-0.0999 -0.3514,-0.13781 -0.203261,-0.0413 -0.478869,-0.0413 h -0.802707 v 1.93615 h 0.689019 q 0.323839,0 0.564996,-0.0551 0.241157,-0.0586 0.409967,-0.21359 0.155029,-0.1447 0.227376,-0.33073 0.07579,-0.18948 0.07579,-0.47887 z"
         id="path1694" />
    </g>
    <g
       aria-label="POSITION"
       id="text2811"
       style="font-size:3.52778px;line-height:1.25;word-spacing:0px;display:inline;stroke-width:0.264583"
       transform="translate(0,168.49998)">
      <path
         d="m 8.3213823,54.434225 q 0,0.170532 -0.060289,0.316949 -0.058567,0.144694 -0.1653647,0.251492 -0.1326363,0.132636 -0.3135039,0.199816 -0.1808676,0.06546 -0.4564754,0.06546 H 6.9846844 v 0.956014 H 6.6436197 v -2.564875 h 0.6959097 q 0.2308216,0 0.3910186,0.03962 0.1601971,0.0379 0.2842206,0.120578 0.1464166,0.09819 0.2256539,0.244602 0.08096,0.146417 0.08096,0.370348 z m -0.3548451,0.0086 q 0,-0.132637 -0.046509,-0.230822 -0.046509,-0.09819 -0.141249,-0.160197 -0.082682,-0.0534 -0.1894804,-0.07579 -0.1050755,-0.02412 -0.266995,-0.02412 H 6.9846844 v 1.024917 H 7.27235 q 0.2067059,0 0.3358971,-0.03617 0.1291911,-0.0379 0.2101509,-0.118856 0.08096,-0.08268 0.1136883,-0.173977 0.034451,-0.0913 0.034451,-0.204983 z"
         id="path2860" />
      <path
         d="m 10.682997,53.953634 q 0.156752,0.172255 0.239434,0.422024 0.08441,0.24977 0.08441,0.566719 0,0.316949 -0.08613,0.568441 -0.08441,0.24977 -0.237712,0.416857 -0.158475,0.173977 -0.375516,0.261827 -0.215318,0.08785 -0.4926487,0.08785 -0.2704402,0 -0.492649,-0.08957 Q 9.101697,56.098207 8.9466676,55.927675 8.7916382,55.757143 8.7072333,55.509095 8.624551,55.261048 8.624551,54.942377 q 0,-0.313504 0.082682,-0.561551 0.082682,-0.24977 0.2411569,-0.427192 0.1515843,-0.16881 0.3755156,-0.258382 0.2256539,-0.08957 0.4909265,-0.08957 0.275608,0 0.494372,0.09129 0.220486,0.08957 0.373793,0.25666 z m -0.03101,0.988743 q 0,-0.499539 -0.223931,-0.769979 -0.223932,-0.272163 -0.6115052,-0.272163 -0.3910186,0 -0.6149499,0.272163 -0.2222088,0.27044 -0.2222088,0.769979 0,0.504707 0.2273764,0.773424 0.2273765,0.266995 0.6097823,0.266995 0.3824062,0 0.6080602,-0.266995 0.227376,-0.268717 0.227376,-0.773424 z"
         id="path2862" />
      <path
         d="m 13.411514,55.49187 q 0,0.149862 -0.07062,0.296278 -0.0689,0.146417 -0.194648,0.248047 -0.137804,0.110244 -0.322117,0.172255 -0.18259,0.06201 -0.440972,0.06201 -0.277331,0 -0.49954,-0.05168 -0.220486,-0.05168 -0.449585,-0.153307 v -0.427192 h 0.02412 q 0.194648,0.161919 0.449585,0.249769 0.254937,0.08785 0.478869,0.08785 0.316949,0 0.492649,-0.118856 0.177422,-0.118856 0.177422,-0.316949 0,-0.170532 -0.08441,-0.251492 -0.08268,-0.08096 -0.253214,-0.125746 -0.129192,-0.03445 -0.280776,-0.05684 -0.149862,-0.02239 -0.318671,-0.05684 -0.341065,-0.07235 -0.50643,-0.246325 -0.163642,-0.1757 -0.163642,-0.456475 0,-0.322117 0.272163,-0.5271 0.272162,-0.206706 0.690742,-0.206706 0.27044,0 0.496094,0.05168 0.225654,0.05168 0.399631,0.127468 v 0.403077 h -0.02412 q -0.146417,-0.124024 -0.385851,-0.204984 -0.237712,-0.08268 -0.487482,-0.08268 -0.273885,0 -0.440972,0.113688 -0.165365,0.113688 -0.165365,0.292834 0,0.160197 0.08268,0.251492 0.08268,0.09129 0.291111,0.139526 0.110243,0.02412 0.313504,0.05857 0.203261,0.03445 0.34451,0.07062 0.285943,0.07579 0.430637,0.229099 0.144694,0.153307 0.144694,0.428915 z"
         id="path2864" />
      <path
         d="m 14.863623,56.223953 h -1.012859 v -0.261827 h 0.335897 v -2.041221 h -0.335897 v -0.261827 h 1.012859 v 0.261827 h -0.335897 v 2.041221 h 0.335897 z"
         id="path2866" />
      <path
         d="m 17.273468,53.962247 h -0.916396 v 2.261706 h -0.341064 v -2.261706 h -0.916396 v -0.303169 h 2.173856 z"
         id="path2868" />
      <path
         d="m 18.522316,56.223953 h -1.012858 v -0.261827 h 0.335897 v -2.041221 h -0.335897 v -0.261827 h 1.012858 v 0.261827 h -0.335897 v 2.041221 h 0.335897 z"
         id="path2870" />
      <path
         d="m 21.014845,53.953634 q 0.156752,0.172255 0.239434,0.422024 0.08441,0.24977 0.08441,0.566719 0,0.316949 -0.08613,0.568441 -0.08441,0.24977 -0.237712,0.416857 -0.158474,0.173977 -0.375516,0.261827 -0.215318,0.08785 -0.492649,0.08785 -0.27044,0 -0.492649,-0.08957 -0.220486,-0.08957 -0.375515,-0.260105 -0.15503,-0.170532 -0.239435,-0.41858 -0.08268,-0.248047 -0.08268,-0.566718 0,-0.313504 0.08268,-0.561551 0.08268,-0.24977 0.241157,-0.427192 0.151585,-0.16881 0.375516,-0.258382 0.225654,-0.08957 0.490926,-0.08957 0.275608,0 0.494372,0.09129 0.220486,0.08957 0.373793,0.25666 z m -0.03101,0.988743 q 0,-0.499539 -0.223931,-0.769979 -0.223932,-0.272163 -0.611505,-0.272163 -0.391019,0 -0.61495,0.272163 -0.222209,0.27044 -0.222209,0.769979 0,0.504707 0.227377,0.773424 0.227376,0.266995 0.609782,0.266995 0.382406,0 0.60806,-0.266995 0.227376,-0.268717 0.227376,-0.773424 z"
         id="path2872" />
      <path
         d="m 23.83638,56.223953 h -0.422025 l -1.216119,-2.294435 v 2.294435 h -0.318672 v -2.564875 h 0.528823 l 1.109321,2.094619 v -2.094619 h 0.318672 z"
         id="path2874" />
    </g>
    <g
       aria-label="RECORD"
       id="text1074"
       style="font-size:4.93889px;line-height:1.25;word-spacing:0px;stroke-width:0.264583"
       transform="translate(0,-16.933338)">
      <path
         d="M 8.0306188,257.26767 H 7.410846 L 6.2098854,255.84002 H 5.5370581 v 1.42765 H 5.0595678 v -3.59082 h 1.0056236 q 0.3255616,0 0.5426026,0.0434 0.2170411,0.041 0.3906739,0.14952 0.195337,0.12299 0.3038575,0.31109 0.1109321,0.18569 0.1109321,0.47267 0,0.38826 -0.1953369,0.65112 -0.195337,0.26045 -0.5377796,0.39309 z m -1.1165557,-2.58038 q 0,-0.15434 -0.055466,-0.2725 -0.053055,-0.12058 -0.178456,-0.20258 -0.1036974,-0.0699 -0.2459798,-0.0965 -0.1422825,-0.0289 -0.3352079,-0.0289 H 5.5370581 v 1.3553 h 0.4823135 q 0.2266873,0 0.395497,-0.0386 0.1688097,-0.041 0.2869766,-0.14952 0.1085205,-0.10128 0.1591634,-0.23151 0.053055,-0.13264 0.053055,-0.33521 z"
         id="path359" />
      <path
         d="M 10.859387,257.26767 H 8.4936398 v -3.59082 h 2.3657472 v 0.42443 H 8.9711301 v 0.98392 h 1.8882569 v 0.42444 H 8.9711301 v 1.33359 h 1.8882569 z"
         id="path361" />
      <path
         d="m 14.389922,257.00722 q -0.132636,0.0579 -0.241157,0.10852 -0.106109,0.0506 -0.279742,0.10611 -0.147105,0.0458 -0.320738,0.0772 -0.171221,0.0338 -0.378616,0.0338 -0.390674,0 -0.711413,-0.10852 -0.318326,-0.11093 -0.55466,-0.34485 -0.231511,-0.2291 -0.361735,-0.58119 -0.130225,-0.3545 -0.130225,-0.82234 0,-0.44373 0.125402,-0.79341 0.125401,-0.34968 0.361735,-0.59083 0.229099,-0.23393 0.552249,-0.35692 0.325561,-0.12299 0.721058,-0.12299 0.289388,0 0.576365,0.0699 0.289388,0.0699 0.641477,0.24598 v 0.56672 h -0.03617 q -0.296622,-0.24839 -0.588422,-0.36174 -0.2918,-0.11334 -0.624596,-0.11334 -0.272507,0 -0.49196,0.0892 -0.217041,0.0868 -0.388262,0.2725 -0.166398,0.18087 -0.260449,0.4582 -0.09164,0.27492 -0.09164,0.63666 0,0.37861 0.101286,0.65112 0.103697,0.27251 0.265272,0.44373 0.16881,0.17845 0.393086,0.26527 0.226687,0.0844 0.47749,0.0844 0.344854,0 0.6463,-0.11816 0.301446,-0.11817 0.564307,-0.3545 h 0.03376 z"
         id="path363" />
      <path
         d="m 17.742001,254.08922 q 0.219452,0.24116 0.335208,0.59084 0.118167,0.34968 0.118167,0.7934 0,0.44373 -0.120579,0.79582 -0.118167,0.34968 -0.332796,0.5836 -0.221864,0.24357 -0.525722,0.36656 -0.301446,0.12299 -0.689708,0.12299 -0.378616,0 -0.689708,-0.1254 -0.308681,-0.1254 -0.525722,-0.36415 -0.217041,-0.23875 -0.335208,-0.58601 -0.115755,-0.34727 -0.115755,-0.79341 0,-0.4389 0.115755,-0.78617 0.115755,-0.34967 0.33762,-0.59807 0.212217,-0.23633 0.525721,-0.36173 0.315916,-0.1254 0.687297,-0.1254 0.385851,0 0.69212,0.12781 0.30868,0.1254 0.52331,0.35932 z m -0.04341,1.38424 q 0,-0.69935 -0.313504,-1.07797 -0.313504,-0.38102 -0.856107,-0.38102 -0.547425,0 -0.860929,0.38102 -0.311092,0.37862 -0.311092,1.07797 0,0.70659 0.318327,1.0828 0.318327,0.37379 0.853694,0.37379 0.535368,0 0.851284,-0.37379 0.318327,-0.37621 0.318327,-1.0828 z"
         id="path365" />
      <path
         d="m 21.923658,257.26767 h -0.619772 l -1.200961,-1.42765 h -0.672827 v 1.42765 h -0.477491 v -3.59082 h 1.005624 q 0.325562,0 0.542603,0.0434 0.217041,0.041 0.390674,0.14952 0.195337,0.12299 0.303857,0.31109 0.110932,0.18569 0.110932,0.47267 0,0.38826 -0.195337,0.65112 -0.195337,0.26045 -0.537779,0.39309 z m -1.116555,-2.58038 q 0,-0.15434 -0.05547,-0.2725 -0.05306,-0.12058 -0.178456,-0.20258 -0.103698,-0.0699 -0.24598,-0.0965 -0.142283,-0.0289 -0.335208,-0.0289 h -0.561895 v 1.3553 h 0.482313 q 0.226688,0 0.395497,-0.0386 0.16881,-0.041 0.286977,-0.14952 0.10852,-0.10128 0.159163,-0.23151 0.05306,-0.13264 0.05306,-0.33521 z"
         id="path367" />
      <path
         d="m 25.420432,255.47588 q 0,0.48954 -0.21463,0.88745 -0.212218,0.39791 -0.566718,0.61736 -0.24598,0.15193 -0.549837,0.21946 -0.301446,0.0675 -0.795818,0.0675 H 22.38668 v -3.59082 h 0.897103 q 0.525722,0 0.834402,0.0772 0.311093,0.0747 0.525722,0.20739 0.366558,0.2291 0.571541,0.61013 0.204984,0.38102 0.204984,0.90434 z m -0.499195,-0.007 q 0,-0.42202 -0.147105,-0.71141 -0.147106,-0.28939 -0.438906,-0.45579 -0.212218,-0.12058 -0.450963,-0.1664 -0.238745,-0.0482 -0.571541,-0.0482 H 22.86417 v 2.77089 h 0.448552 q 0.344854,0 0.60048,-0.0506 0.258038,-0.0506 0.472667,-0.1881 0.267684,-0.17122 0.400321,-0.45097 0.135047,-0.27974 0.135047,-0.69935 z"
         id="path369" />
    </g>
    <rect
       style="display:inline;opacity:1;fill:#000000;fill-opacity:0.88755;stroke-width:0.175583;image-rendering:auto"
       id="rect652-7"
       width="10.616776"
       height="8.3559361"
       x="9.931612"
       y="246.60742"
       ry="1.9487509" />
    <rect
       style="display:inline;fill:#000000;fill-opacity:0.88755;stroke-width:0.261958;image-rendering:auto"
       id="rect652-7-8"
       width="22.390734"
       height="8.8189564"
       x="4.0446329"
       y="263.43683"
       ry="2.0567355" />
    <text
       xml:space="preserve"
       style="font-size:4.23333px;line-height:1.25;font-family:sans-serif;word-spacing:0px;stroke-width:0.264583"
       x="1.9259081"
       y="245.89062"
       id="text1702"><tspan
         sodipodi:role="line"
         id="tspan1700"
         style="font-size:4.23333px;stroke-width:0.264583"
         x="1.9259081"
         y="245.89062">CURR</tspan></text>
    <text
       xml:space="preserve"
       style="font-size:4.23333px;line-height:1.25;font-family:sans-serif;word-spacing:0px;stroke-width:0.264583"
       x="16.497019"
       y="245.89474"
       id="text1706"><tspan
         sodipodi:role="line"
         id="tspan1704"
         style="font-size:4.23333px;stroke-width:0.264583"
         x="16.497019"
         y="245.89474">POS</tspan></text>
    <g
       aria-label="IN"
       id="text2006"
       style="font-size:4.23333px;line-height:1.25;word-spacing:0px;stroke-width:0.264583"
       transform="translate(87.042332,84.402079)">
      <path
         d="m -73.246173,202.10207 h -1.215429 v -0.3142 h 0.403076 v -2.44946 h -0.403076 v -0.31419 h 1.215429 v 0.31419 h -0.403076 v 2.44946 h 0.403076 z"
         id="path2008" />
      <path
         d="m -70.201397,202.10207 h -0.506429 l -1.459343,-2.75332 v 2.75332 h -0.382405 v -3.07785 h 0.634586 l 1.331185,2.51354 v -2.51354 h 0.382406 z"
         id="path2010" />
    </g>
    <g
       aria-label="OUT"
       id="text2062"
       style="display:inline;font-size:4.23333px;line-height:1.25;word-spacing:0px;stroke-width:0.264583"
       transform="translate(0,168.49998)">
      <path
         d="m 12.780204,104.69643 q 0.188102,0.2067 0.28732,0.50643 0.101286,0.29972 0.101286,0.68006 0,0.38034 -0.103353,0.68213 -0.101285,0.29972 -0.285253,0.50022 -0.190169,0.20878 -0.450618,0.3142 -0.258382,0.10542 -0.591178,0.10542 -0.324528,0 -0.591178,-0.10749 -0.264583,-0.10749 -0.450618,-0.31213 -0.186035,-0.20464 -0.287321,-0.50229 -0.09922,-0.29766 -0.09922,-0.68006 0,-0.37621 0.09922,-0.67386 0.09922,-0.29973 0.289388,-0.51263 0.181901,-0.20257 0.450618,-0.31006 0.270784,-0.10749 0.589111,-0.10749 0.330729,0 0.593245,0.10956 0.264583,0.10748 0.448551,0.30799 z m -0.03721,1.18649 q 0,-0.59945 -0.268717,-0.92398 -0.268718,-0.32659 -0.733805,-0.32659 -0.469222,0 -0.737939,0.32659 -0.26665,0.32453 -0.26665,0.92398 0,0.60564 0.272851,0.92811 0.272851,0.32039 0.731738,0.32039 0.458886,0 0.72967,-0.32039 0.272852,-0.32247 0.272852,-0.92811 z"
         id="path2640" />
      <path
         d="m 16.135035,106.18471 q 0,0.33486 -0.07441,0.58497 -0.07235,0.24805 -0.239779,0.41342 -0.159163,0.15709 -0.37207,0.22944 -0.212906,0.0723 -0.496093,0.0723 -0.289388,0 -0.504361,-0.0765 -0.214974,-0.0765 -0.361735,-0.2253 -0.167432,-0.1695 -0.241846,-0.40928 -0.07235,-0.23978 -0.07235,-0.58911 v -1.84175 h 0.409277 v 1.86242 q 0,0.25011 0.03307,0.39481 0.03514,0.14469 0.115755,0.26251 0.09095,0.13436 0.24598,0.20257 0.157096,0.0682 0.376204,0.0682 0.221175,0 0.376204,-0.0661 0.155029,-0.0682 0.248047,-0.20464 0.08061,-0.11782 0.113688,-0.26872 0.03514,-0.15296 0.03514,-0.37827 v -1.87275 h 0.409277 z"
         id="path2642" />
      <path
         d="m 19.111595,104.70676 h -1.099674 v 2.71405 h -0.409277 v -2.71405 h -1.099673 v -0.3638 h 2.608624 z"
         id="path2644" />
    </g>
    <g
       aria-label="BOUNCE"
       id="text2152"
       style="font-size:3.175px;line-height:1.25;word-spacing:0px;display:inline;stroke-width:0.264583"
       transform="translate(18.487678,-4.899034)">
      <path
         d="m -15.279168,193.98369 q 0,0.17208 -0.06511,0.30386 -0.06511,0.13177 -0.175183,0.21704 -0.130224,0.10232 -0.286804,0.14573 -0.155029,0.0434 -0.395325,0.0434 h -0.818554 v -2.30839 h 0.683679 q 0.252698,0 0.378271,0.0186 0.125574,0.0186 0.240296,0.0775 0.127124,0.0667 0.184485,0.17208 0.05736,0.10387 0.05736,0.2496 0,0.16433 -0.08371,0.2806 -0.08372,0.11472 -0.223243,0.18449 v 0.0124 q 0.234095,0.0481 0.36897,0.20619 0.134876,0.15658 0.134876,0.39687 z m -0.516248,-1.04025 q 0,-0.0837 -0.02791,-0.14107 -0.02791,-0.0574 -0.08992,-0.093 -0.07286,-0.0419 -0.176734,-0.0512 -0.103869,-0.0108 -0.257348,-0.0108 h -0.365869 v 0.66662 h 0.396875 q 0.144177,0 0.229443,-0.014 0.08527,-0.0155 0.15813,-0.062 0.07286,-0.0465 0.102319,-0.11937 0.03101,-0.0744 0.03101,-0.17519 z m 0.196887,1.05265 q 0,-0.13952 -0.04186,-0.22169 -0.04186,-0.0822 -0.151928,-0.13952 -0.07441,-0.0388 -0.181385,-0.0496 -0.10542,-0.0124 -0.257348,-0.0124 h -0.482141 v 0.85887 h 0.406176 q 0.201539,0 0.330213,-0.0202 0.128674,-0.0217 0.21084,-0.0775 0.08682,-0.0605 0.127124,-0.13798 0.04031,-0.0775 0.04031,-0.19999 z"
         id="path2154" />
      <path
         d="m -13.122711,192.65044 q 0.141077,0.15503 0.215491,0.37982 0.07596,0.22479 0.07596,0.51005 0,0.28525 -0.07752,0.51159 -0.07596,0.2248 -0.21394,0.37518 -0.142627,0.15657 -0.337964,0.23564 -0.193786,0.0791 -0.443384,0.0791 -0.243396,0 -0.443383,-0.0806 -0.198438,-0.0806 -0.337964,-0.23409 -0.139527,-0.15348 -0.215491,-0.37673 -0.07441,-0.22324 -0.07441,-0.51004 0,-0.28216 0.07441,-0.5054 0.07441,-0.22479 0.217041,-0.38447 0.136426,-0.15193 0.337964,-0.23254 0.203088,-0.0806 0.441833,-0.0806 0.248047,0 0.444934,0.0822 0.198438,0.0806 0.336414,0.23099 z m -0.0279,0.88987 q 0,-0.44959 -0.201538,-0.69298 -0.201538,-0.24495 -0.550354,-0.24495 -0.351917,0 -0.553455,0.24495 -0.199988,0.24339 -0.199988,0.69298 0,0.45423 0.204639,0.69608 0.204639,0.24029 0.548804,0.24029 0.344165,0 0.547253,-0.24029 0.204639,-0.24185 0.204639,-0.69608 z"
         id="path2156" />
      <path
         d="m -10.606585,193.76665 q 0,0.25115 -0.05581,0.43873 -0.05426,0.18604 -0.179834,0.31006 -0.119373,0.11782 -0.279053,0.17208 -0.15968,0.0543 -0.37207,0.0543 -0.217041,0 -0.378271,-0.0574 -0.161231,-0.0574 -0.271302,-0.16898 -0.125573,-0.12712 -0.181384,-0.30696 -0.05426,-0.17983 -0.05426,-0.44183 v -1.38131 h 0.306958 v 1.39681 q 0,0.18759 0.0248,0.29611 0.02636,0.10852 0.08682,0.19689 0.06821,0.10077 0.184485,0.15193 0.117822,0.0512 0.282153,0.0512 0.165881,0 0.282153,-0.0496 0.116272,-0.0512 0.186035,-0.15348 0.06046,-0.0884 0.08527,-0.20154 0.02635,-0.11472 0.02635,-0.28371 v -1.40456 h 0.306958 z"
         id="path2158" />
      <path
         d="m -8.2594418,194.69373 h -0.3798218 l -1.0945068,-2.06499 v 2.06499 h -0.2868046 v -2.30839 h 0.4759404 l 0.9983886,1.88516 v -1.88516 h 0.2868042 z"
         id="path2160" />
      <path
         d="m -5.862689,194.52629 q -0.085266,0.0372 -0.1550293,0.0698 -0.068213,0.0326 -0.179834,0.0682 -0.094568,0.0295 -0.206189,0.0496 -0.1100708,0.0217 -0.243396,0.0217 -0.2511474,0 -0.4573364,-0.0698 -0.2046387,-0.0713 -0.3565674,-0.22169 -0.1488281,-0.14728 -0.2325439,-0.37362 -0.083716,-0.2279 -0.083716,-0.52865 0,-0.28526 0.080615,-0.51005 0.080615,-0.22479 0.2325439,-0.37982 0.1472779,-0.15038 0.3550171,-0.22944 0.2092896,-0.0791 0.4635376,-0.0791 0.1860352,0 0.37052,0.045 0.1860352,0.045 0.412378,0.15813 v 0.36432 h -0.023254 q -0.1906861,-0.15968 -0.3782715,-0.23255 -0.1875855,-0.0729 -0.4015259,-0.0729 -0.1751831,0 -0.3162598,0.0574 -0.1395263,0.0558 -0.2495971,0.17518 -0.1069702,0.11628 -0.1674317,0.29456 -0.058911,0.17673 -0.058911,0.40928 0,0.24339 0.065112,0.41858 0.066663,0.17518 0.1705322,0.28525 0.1085205,0.11472 0.2526978,0.17053 0.1457275,0.0543 0.306958,0.0543 0.2216919,0 0.4154785,-0.076 0.1937866,-0.076 0.3627685,-0.22789 h 0.021704 z"
         id="path2162" />
      <path
         d="M -3.9077696,194.69373 H -5.428607 v -2.30839 h 1.5208374 v 0.27285 H -5.121649 v 0.63252 h 1.2138794 v 0.27285 H -5.121649 v 0.85731 h 1.2138794 z"
         id="path2164" />
    </g>
  </g>
  <g
     inkscape:groupmode="layer"
     id="layer2"
     inkscape:label="components"
     style="display:none">
    <circle
       style="display:inline;opacity:1;vector-effect:none;fill:#00ff00;fill-opacity:1;fill-rule:evenodd;stroke:none;stroke-width:1;stroke-linecap:butt;stroke-linejoin:miter;stroke-miterlimit:4;stroke-dasharray:none;stroke-dashoffset:0;stroke-opacity:1;paint-order:normal"
       id="circle4958"
       cx="22.029495"
       cy="112"
       r="4"
       inkscape:label="right_out" />
    <circle
       style="display:inline;opacity:1;vector-effect:none;fill:#00ff00;fill-opacity:1;fill-rule:evenodd;stroke:none;stroke-width:1;stroke-linecap:butt;stroke-linejoin:miter;stroke-miterlimit:4;stroke-dasharray:none;stroke-dashoffset:0;stroke-opacity:1;paint-order:normal"
       id="circle4958-4"
       cx="9.0820541"
       cy="112"
       r="4"
       inkscape:label="left_out" />
    <circle
       style="display:inline;vector-effect:none;fill:#0000ff;fill-opacity:1;fill-rule:evenodd;stroke:none;stroke-width:1;stroke-linecap:butt;stroke-linejoin:miter;stroke-miterlimit:4;stroke-dasharray:none;stroke-dashoffset:0;stroke-opacity:1;paint-order:normal"
       id="circle4958-2"
       cx="21.819553"
       cy="99.412498"
       r="4"
       inkscape:label="right_out" />
    <circle
       style="display:inline;vector-effect:none;fill:#0000ff;fill-opacity:1;fill-rule:evenodd;stroke:none;stroke-width:1;stroke-linecap:butt;stroke-linejoin:miter;stroke-miterlimit:4;stroke-dasharray:none;stroke-dashoffset:0;stroke-opacity:1;paint-order:normal"
       id="circle4958-4-1"
       cx="8.8721132"
       cy="99.412498"
       r="4"
       inkscape:label="left_out" />
    <circle
       r="4"
       cy="63.06665"
       cx="8.0237217"
       id="circle4956-3-5"
       style="display:inline;opacity:1;vector-effect:none;fill:#00ff00;fill-opacity:1;fill-rule:evenodd;stroke:none;stroke-width:1;stroke-linecap:butt;stroke-linejoin:miter;stroke-miterlimit:4;stroke-dasharray:none;stroke-dashoffset:0;stroke-opacity:1;paint-order:normal"
       inkscape:label="play_trigger" />
    <circle
       style="display:inline;opacity:1;vector-effect:none;fill:#ff0000;fill-opacity:1;fill-rule:evenodd;stroke:none;stroke-width:1;stroke-linecap:butt;stroke-linejoin:miter;stroke-miterlimit:4;stroke-dasharray:none;stroke-dashoffset:0;stroke-opacity:1;paint-order:normal"
       id="path4954-3-0-2-9-0"
       cx="6"
       cy="35"
       r="4"
       inkscape:label="position" />
    <circle
       style="display:inline;opacity:1;vector-effect:none;fill:#ff0000;fill-opacity:1;fill-rule:evenodd;stroke:none;stroke-width:1;stroke-linecap:butt;stroke-linejoin:miter;stroke-miterlimit:4;stroke-dasharray:none;stroke-dashoffset:0;stroke-opacity:1;paint-order:normal"
       id="path4954-3-0-2-9-7-7"
       cx="20.971161"
       cy="63.06665"
       r="4"
       inkscape:label="play_button" />
    <circle
       style="display:inline;opacity:1;vector-effect:none;fill:#ff0000;fill-opacity:1;fill-rule:evenodd;stroke:none;stroke-width:1;stroke-linecap:butt;stroke-linejoin:miter;stroke-miterlimit:4;stroke-dasharray:none;stroke-dashoffset:0;stroke-opacity:1;paint-order:normal"
       id="path4954-3"
       cx="8.0237217"
       cy="14"
       r="4"
       inkscape:label="loop" />
    <circle
       style="display:inline;fill:#ff00ff;fill-opacity:1;fill-rule:evenodd;stroke:none;stroke-width:1;stroke-linecap:butt;stroke-linejoin:miter;stroke-miterlimit:4;stroke-dasharray:none;stroke-dashoffset:0;stroke-opacity:1;paint-order:normal"
       id="path4954-3-0-2-9-0-0"
       cx="15.24"
       cy="3"
       r="4"
       inkscape:label="connected" />
    <circle
       style="display:inline;opacity:1;fill:#0000ff;fill-opacity:1;fill-rule:evenodd;stroke:none;stroke-width:1;stroke-linecap:butt;stroke-linejoin:miter;stroke-miterlimit:4;stroke-dasharray:none;stroke-dashoffset:0;stroke-opacity:1;paint-order:normal"
       id="circle4958-1"
       cx="15.24"
       cy="82.285408"
       r="4"
       inkscape:label="now_position" />
  </g>
</svg>
