<?xml version="1.0" encoding="UTF-8" standalone="no"?>
<svg
   width="325.12mm"
   height="128.5mm"
   viewBox="0 0 325.12002 128.50002"
   version="1.1"
   id="svg8"
   inkscape:version="1.2.1 (9c6d41e410, 2022-07-14)"
   sodipodi:docname="Fermata.svg"
   xmlns:inkscape="http://www.inkscape.org/namespaces/inkscape"
   xmlns:sodipodi="http://sodipodi.sourceforge.net/DTD/sodipodi-0.dtd"
   xmlns="http://www.w3.org/2000/svg"
   xmlns:svg="http://www.w3.org/2000/svg"
   xmlns:rdf="http://www.w3.org/1999/02/22-rdf-syntax-ns#"
   xmlns:cc="http://creativecommons.org/ns#"
   xmlns:dc="http://purl.org/dc/elements/1.1/">
  <defs
     id="defs2">
    <linearGradient
       id="linearGradient2877"
       inkscape:swatch="solid">
      <stop
         style="stop-color:#0000ff;stop-opacity:1;"
         offset="0"
         id="stop2875" />
    </linearGradient>
  </defs>
  <sodipodi:namedview
     id="base"
     pagecolor="#ffffff"
     bordercolor="#666666"
     borderopacity="1.0"
     inkscape:pageopacity="0.0"
     inkscape:pageshadow="2"
     inkscape:zoom="0.9899495"
     inkscape:cx="351.53308"
     inkscape:cy="179.80715"
     inkscape:document-units="mm"
     inkscape:current-layer="layer3"
     showgrid="false"
     units="mm"
     inkscape:snap-bbox="true"
     inkscape:snap-page="true"
     inkscape:bbox-nodes="false"
     inkscape:snap-bbox-edge-midpoints="false"
     inkscape:window-width="1526"
     inkscape:window-height="981"
     inkscape:window-x="69"
     inkscape:window-y="230"
     inkscape:window-maximized="0"
     inkscape:snap-bbox-midpoints="true"
     inkscape:snap-nodes="false"
     inkscape:document-rotation="0"
     inkscape:showpageshadow="2"
     inkscape:pagecheckerboard="0"
     inkscape:deskcolor="#d1d1d1">
    <inkscape:grid
       type="xygrid"
       id="grid869" />
  </sodipodi:namedview>
  <metadata
     id="metadata5">
    <rdf:RDF>
      <cc:Work
         rdf:about="">
        <dc:format>image/svg+xml</dc:format>
        <dc:type
           rdf:resource="http://purl.org/dc/dcmitype/StillImage" />
      </cc:Work>
    </rdf:RDF>
  </metadata>
  <g
     inkscape:groupmode="layer"
     id="layer3"
     inkscape:label="Background"
     style="display:inline">
    <rect
       style="display:inline;opacity:1;mix-blend-mode:normal;vector-effect:none;fill:#e8f1f2;fill-opacity:1;fill-rule:evenodd;stroke:none;stroke-width:2.11962;stroke-linecap:butt;stroke-linejoin:miter;stroke-miterlimit:4;stroke-dasharray:none;stroke-dashoffset:0;stroke-opacity:1;paint-order:normal"
       id="rect420"
       width="325.12"
       height="128.5"
       x="5.9211732e-17"
       y="-1.0517578e-05" />
    <g
       aria-label="!"
       transform="matrix(1.3671122,-0.15549205,0.15715032,1.3252755,-0.09637002,-3.1082607)"
       id="text912"
       style="font-style:normal;font-weight:normal;font-size:127.426px;line-height:1.25;font-family:sans-serif;display:inline;fill:#ffc864;fill-opacity:1;stroke:none;stroke-width:3.18579;stroke-miterlimit:4;stroke-dasharray:none">
      <path
         d="M 17.007808,5.7176488 15.390095,72.852735 H 4.8127414 L 3.070589,5.7176488 Z M 16.385611,98.362823 H 3.6927863 V 85.234461 H 16.385611 Z"
         style="fill:#ffc864;fill-opacity:1;stroke-width:3.18579;stroke-miterlimit:4;stroke-dasharray:none"
         id="path1767" />
    </g>
    <g
       aria-label="!"
       transform="matrix(1.3671122,-0.15549205,0.15715032,1.3252755,39.90363,-8.2049867)"
       id="text912-7"
       style="font-style:normal;font-weight:normal;font-size:127.426px;line-height:1.25;font-family:sans-serif;display:inline;opacity:0.875;fill:#ffc864;fill-opacity:1;stroke:none;stroke-width:3.18579;stroke-miterlimit:4;stroke-dasharray:none">
      <path
         d="M 16.571616,9.5122572 14.953903,76.647343 H 4.376549 L 2.6343966,9.5122572 Z M 15.949419,102.15743 H 3.2565939 V 89.029069 H 15.949419 Z"
         style="fill:#ffc864;fill-opacity:1;stroke-width:3.18579;stroke-miterlimit:4;stroke-dasharray:none"
         id="path1767-1" />
    </g>
    <g
       aria-label="!"
       transform="matrix(1.3671122,-0.15549205,0.15715032,1.3252755,79.90363,-8.2049867)"
       id="text912-7-2"
       style="font-style:normal;font-weight:normal;font-size:127.426px;line-height:1.25;font-family:sans-serif;display:inline;opacity:0.75;fill:#ffc864;fill-opacity:1;stroke:none;stroke-width:3.18579;stroke-miterlimit:4;stroke-dasharray:none">
      <path
         d="M 16.571616,9.5122572 14.953903,76.647343 H 4.376549 L 2.6343966,9.5122572 Z M 15.949419,102.15743 H 3.2565939 V 89.029069 H 15.949419 Z"
         style="fill:#ffc864;fill-opacity:1;stroke-width:3.18579;stroke-miterlimit:4;stroke-dasharray:none"
         id="path1767-1-3" />
    </g>
    <g
       aria-label="!"
       transform="matrix(1.3671122,-0.15549205,0.15715032,1.3252755,119.90363,-8.2049867)"
       id="text912-7-4"
       style="font-style:normal;font-weight:normal;font-size:127.426px;line-height:1.25;font-family:sans-serif;display:inline;opacity:0.625;fill:#ffc864;fill-opacity:1;stroke:none;stroke-width:3.18579;stroke-miterlimit:4;stroke-dasharray:none">
      <path
         d="M 16.571616,9.5122572 14.953903,76.647343 H 4.376549 L 2.6343966,9.5122572 Z M 15.949419,102.15743 H 3.2565939 V 89.029069 H 15.949419 Z"
         style="fill:#ffc864;fill-opacity:1;stroke-width:3.18579;stroke-miterlimit:4;stroke-dasharray:none"
         id="path1767-1-0" />
    </g>
    <g
       aria-label="!"
       transform="matrix(1.3671122,-0.15549205,0.15715032,1.3252755,159.90363,-8.2049867)"
       id="text912-7-42"
       style="font-style:normal;font-weight:normal;font-size:127.426px;line-height:1.25;font-family:sans-serif;display:inline;opacity:0.5;fill:#ffc864;fill-opacity:1;stroke:none;stroke-width:3.18579;stroke-miterlimit:4;stroke-dasharray:none">
      <path
         d="M 16.571616,9.5122572 14.953903,76.647343 H 4.376549 L 2.6343966,9.5122572 Z M 15.949419,102.15743 H 3.2565939 V 89.029069 H 15.949419 Z"
         style="fill:#ffc864;fill-opacity:1;stroke-width:3.18579;stroke-miterlimit:4;stroke-dasharray:none"
         id="path1767-1-4" />
    </g>
    <g
       aria-label="!"
       transform="matrix(1.3671122,-0.15549205,0.15715032,1.3252755,199.90363,-8.2049867)"
       id="text912-7-8"
       style="font-style:normal;font-weight:normal;font-size:127.426px;line-height:1.25;font-family:sans-serif;display:inline;opacity:0.375;fill:#ffc864;fill-opacity:1;stroke:none;stroke-width:3.18579;stroke-miterlimit:4;stroke-dasharray:none">
      <path
         d="M 16.571616,9.5122572 14.953903,76.647343 H 4.376549 L 2.6343966,9.5122572 Z M 15.949419,102.15743 H 3.2565939 V 89.029069 H 15.949419 Z"
         style="fill:#ffc864;fill-opacity:1;stroke-width:3.18579;stroke-miterlimit:4;stroke-dasharray:none"
         id="path1767-1-9" />
    </g>
    <g
       aria-label="!"
       transform="matrix(1.3671122,-0.15549205,0.15715032,1.3252755,239.90363,-8.2049867)"
       id="text912-7-1"
       style="font-style:normal;font-weight:normal;font-size:127.426px;line-height:1.25;font-family:sans-serif;display:inline;opacity:0.25;fill:#ffc864;fill-opacity:1;stroke:none;stroke-width:3.18579;stroke-miterlimit:4;stroke-dasharray:none">
      <path
         d="M 16.571616,9.5122572 14.953903,76.647343 H 4.376549 L 2.6343966,9.5122572 Z M 15.949419,102.15743 H 3.2565939 V 89.029069 H 15.949419 Z"
         style="fill:#ffc864;fill-opacity:1;stroke-width:3.18579;stroke-miterlimit:4;stroke-dasharray:none"
         id="path1767-1-48" />
    </g>
    <g
       aria-label="!"
       transform="matrix(1.3671122,-0.15549205,0.15715032,1.3252755,279.90363,-8.2049867)"
       id="text912-7-6"
       style="font-style:normal;font-weight:normal;font-size:127.426px;line-height:1.25;font-family:sans-serif;display:inline;opacity:0.125;fill:#ffc864;fill-opacity:1;stroke:none;stroke-width:3.18579;stroke-miterlimit:4;stroke-dasharray:none">
      <path
         d="M 16.571616,9.5122572 14.953903,76.647343 H 4.376549 L 2.6343966,9.5122572 Z M 15.949419,102.15743 H 3.2565939 V 89.029069 H 15.949419 Z"
         style="fill:#ffc864;fill-opacity:1;stroke-width:3.18579;stroke-miterlimit:4;stroke-dasharray:none"
         id="path1767-1-8" />
    </g>
  </g>
  <g
     inkscape:label="Layer 1"
     inkscape:groupmode="layer"
     id="layer1"
     transform="translate(0,-168.49998)"
     style="display:inline">
    <g
       aria-label="Fermata"
       id="text389"
       style="font-size:4.23333px;line-height:1.25;word-spacing:0px;stroke-width:0.264583"
       transform="translate(1.0583333,-0.03257)">
      <path
         d="m 12.936328,170.39635 h -1.556493 v 0.86817 h 1.337385 v 0.3638 h -1.337385 v 1.48208 h -0.409277 v -3.07785 h 1.96577 z"
         id="path441" />
      <path
         d="m 15.201821,171.99625 h -1.701187 q 0,0.21291 0.06408,0.37207 0.06408,0.1571 0.1757,0.25839 0.107487,0.0992 0.254248,0.14882 0.148828,0.0496 0.326594,0.0496 0.235645,0 0.473356,-0.093 0.239778,-0.0951 0.341064,-0.18604 h 0.02067 v 0.42375 q -0.196371,0.0827 -0.401009,0.13849 -0.204639,0.0558 -0.429948,0.0558 -0.574641,0 -0.897102,-0.31006 -0.32246,-0.31212 -0.32246,-0.8847 0,-0.56637 0.307991,-0.89917 0.310058,-0.33279 0.81442,-0.33279 0.467154,0 0.719335,0.27285 0.254248,0.27285 0.254248,0.77514 z M 14.82355,171.6986 q -0.0021,-0.30593 -0.155029,-0.47336 -0.150895,-0.16743 -0.460954,-0.16743 -0.312125,0 -0.49816,0.18397 -0.183968,0.18397 -0.208773,0.45682 z"
         id="path443" />
      <path
         d="m 17.231669,171.22524 h -0.02067 q -0.08682,-0.0207 -0.169499,-0.0289 -0.08061,-0.0103 -0.192236,-0.0103 -0.179834,0 -0.347265,0.0806 -0.167432,0.0786 -0.322461,0.20464 v 1.63918 h -0.388606 v -2.3089 h 0.388606 v 0.34106 q 0.23151,-0.18603 0.40721,-0.26252 0.177767,-0.0785 0.361735,-0.0785 0.101286,0 0.146761,0.006 0.04547,0.004 0.136425,0.0186 z"
         id="path445" />
      <path
         d="m 20.966839,173.1104 h -0.388607 v -1.31465 q 0,-0.14883 -0.01447,-0.28732 -0.0124,-0.13849 -0.05581,-0.22118 -0.04754,-0.0889 -0.136425,-0.13435 -0.08888,-0.0455 -0.256315,-0.0455 -0.163298,0 -0.326595,0.0827 -0.163298,0.0806 -0.326595,0.20671 0.0062,0.0475 0.01033,0.11162 0.0041,0.062 0.0041,0.12402 v 1.47795 h -0.388606 v -1.31465 q 0,-0.15296 -0.01447,-0.28939 -0.0124,-0.13849 -0.05581,-0.22117 -0.04754,-0.0889 -0.136426,-0.13229 -0.08888,-0.0455 -0.256314,-0.0455 -0.159164,0 -0.320394,0.0786 -0.159163,0.0786 -0.318327,0.2005 v 1.72393 h -0.388606 v -2.3089 h 0.388606 v 0.25631 q 0.181901,-0.15089 0.361735,-0.23564 0.181901,-0.0848 0.38654,-0.0848 0.235644,0 0.398941,0.0992 0.165365,0.0992 0.24598,0.27491 0.235644,-0.19843 0.429947,-0.28525 0.194304,-0.0889 0.415479,-0.0889 0.380338,0 0.560172,0.23151 0.181901,0.22944 0.181901,0.64285 z"
         id="path447" />
      <path
         d="m 23.509317,173.1104 h -0.386539 v -0.24598 q -0.05168,0.0351 -0.14056,0.0992 -0.08682,0.062 -0.169499,0.0992 -0.09715,0.0475 -0.223242,0.0785 -0.12609,0.0331 -0.295589,0.0331 -0.312125,0 -0.529166,-0.20671 -0.217041,-0.20671 -0.217041,-0.5271 0,-0.26251 0.111621,-0.42375 0.113688,-0.16329 0.322461,-0.25631 0.21084,-0.093 0.506428,-0.12609 0.295589,-0.0331 0.634587,-0.0496 v -0.0599 q 0,-0.1323 -0.04754,-0.21911 -0.04547,-0.0868 -0.132291,-0.13643 -0.08268,-0.0475 -0.198438,-0.0641 -0.115755,-0.0165 -0.241845,-0.0165 -0.152962,0 -0.341064,0.0413 -0.188102,0.0393 -0.388607,0.11575 h -0.02067 v -0.3948 q 0.113688,-0.031 0.328662,-0.0682 0.214973,-0.0372 0.423746,-0.0372 0.243912,0 0.423746,0.0413 0.181901,0.0393 0.314193,0.13642 0.130224,0.0951 0.198437,0.24598 0.06821,0.1509 0.06821,0.37414 z m -0.386539,-0.56844 v -0.64286 q -0.177767,0.0103 -0.419613,0.031 -0.239778,0.0207 -0.380338,0.0599 -0.167431,0.0476 -0.270784,0.14883 -0.103353,0.0992 -0.103353,0.27492 0,0.19844 0.119889,0.29972 0.119889,0.0992 0.365869,0.0992 0.204639,0 0.374137,-0.0785 0.169499,-0.0806 0.314193,-0.19223 z"
         id="path449" />
      <path
         d="m 25.456483,173.08973 q -0.109553,0.0289 -0.239778,0.0475 -0.128157,0.0186 -0.229443,0.0186 -0.353467,0 -0.537435,-0.19017 -0.183968,-0.19017 -0.183968,-0.60978 v -1.22783 h -0.262516 v -0.32659 h 0.262516 v -0.66353 h 0.388607 v 0.66353 h 0.802017 v 0.32659 h -0.802017 v 1.05213 q 0,0.1819 0.0083,0.28526 0.0083,0.10128 0.05788,0.19017 0.04547,0.0827 0.124023,0.12195 0.08061,0.0372 0.243913,0.0372 0.09508,0 0.198437,-0.0269 0.103353,-0.0289 0.148828,-0.0476 h 0.02067 z"
         id="path451" />
      <path
         d="M 27.719909,173.1104 H 27.33337 v -0.24598 q -0.05168,0.0351 -0.14056,0.0992 -0.08682,0.062 -0.169499,0.0992 -0.09715,0.0475 -0.223242,0.0785 -0.12609,0.0331 -0.295588,0.0331 -0.312126,0 -0.529167,-0.20671 -0.217041,-0.20671 -0.217041,-0.5271 0,-0.26251 0.111621,-0.42375 0.113689,-0.16329 0.322461,-0.25631 0.21084,-0.093 0.506429,-0.12609 0.295589,-0.0331 0.634586,-0.0496 v -0.0599 q 0,-0.1323 -0.04754,-0.21911 -0.04548,-0.0868 -0.132292,-0.13643 -0.08268,-0.0475 -0.198437,-0.0641 -0.115755,-0.0165 -0.241846,-0.0165 -0.152962,0 -0.341064,0.0413 -0.188102,0.0393 -0.388606,0.11575 h -0.02067 v -0.3948 q 0.113688,-0.031 0.328662,-0.0682 0.214974,-0.0372 0.423746,-0.0372 0.243913,0 0.423747,0.0413 0.1819,0.0393 0.314192,0.13642 0.130225,0.0951 0.198437,0.24598 0.06821,0.1509 0.06821,0.37414 z m -0.386539,-0.56844 v -0.64286 q -0.177767,0.0103 -0.419612,0.031 -0.239779,0.0207 -0.380339,0.0599 -0.167431,0.0476 -0.270784,0.14883 -0.103353,0.0992 -0.103353,0.27492 0,0.19844 0.119889,0.29972 0.11989,0.0992 0.365869,0.0992 0.204639,0 0.374137,-0.0785 0.169499,-0.0806 0.314193,-0.19223 z"
         id="path453" />
    </g>
  </g>
  <g
     inkscape:groupmode="layer"
     id="layer2"
     inkscape:label="components"
     style="display:none" />
</svg>
