<?xml version="1.0" encoding="UTF-8" standalone="no"?>
<svg
   width="30.48mm"
   height="128.5mm"
   viewBox="0 0 30.480002 128.50002"
   version="1.1"
   id="svg8"
   inkscape:version="1.2.1 (9c6d41e410, 2022-07-14)"
   sodipodi:docname="Fixation-dark.svg"
   xmlns:inkscape="http://www.inkscape.org/namespaces/inkscape"
   xmlns:sodipodi="http://sodipodi.sourceforge.net/DTD/sodipodi-0.dtd"
   xmlns="http://www.w3.org/2000/svg"
   xmlns:svg="http://www.w3.org/2000/svg"
   xmlns:rdf="http://www.w3.org/1999/02/22-rdf-syntax-ns#"
   xmlns:cc="http://creativecommons.org/ns#"
   xmlns:dc="http://purl.org/dc/elements/1.1/">
  <defs
     id="defs2" />
  <sodipodi:namedview
     id="base"
     pagecolor="#ffffff"
     bordercolor="#666666"
     borderopacity="1.0"
     inkscape:pageopacity="0.0"
     inkscape:pageshadow="2"
     inkscape:zoom="11.313709"
     inkscape:cx="84.455062"
     inkscape:cy="193.61467"
     inkscape:document-units="mm"
     inkscape:current-layer="layer1"
     showgrid="false"
     units="mm"
     inkscape:snap-bbox="true"
     inkscape:snap-page="true"
     inkscape:bbox-nodes="false"
     inkscape:snap-bbox-edge-midpoints="false"
     inkscape:window-width="1269"
     inkscape:window-height="1184"
     inkscape:window-x="134"
     inkscape:window-y="130"
     inkscape:window-maximized="0"
     inkscape:snap-bbox-midpoints="true"
     inkscape:snap-nodes="false"
     inkscape:document-rotation="0"
     inkscape:showpageshadow="2"
     inkscape:pagecheckerboard="0"
     inkscape:deskcolor="#d1d1d1" />
  <metadata
     id="metadata5">
    <rdf:RDF>
      <cc:Work
         rdf:about="">
        <dc:format>image/svg+xml</dc:format>
        <dc:type
           rdf:resource="http://purl.org/dc/dcmitype/StillImage" />
      </cc:Work>
    </rdf:RDF>
  </metadata>
  <g
     inkscape:label="Background"
     inkscape:groupmode="layer"
     id="layer1"
     transform="translate(0,-168.49998)"
     style="display:inline">
    <rect
       style="display:inline;opacity:1;vector-effect:none;fill:#201e1e;fill-opacity:1;fill-rule:evenodd;stroke:none;stroke-width:0.649358;stroke-linecap:butt;stroke-linejoin:miter;stroke-miterlimit:4;stroke-dasharray:none;stroke-dashoffset:0;stroke-opacity:1;paint-order:normal"
       id="rect420"
       width="30.48"
       height="128.5"
       x="5.9211732e-17"
       y="168.49997" />
    <g
       aria-label="!"
       transform="matrix(1.1167128,-0.15549235,0.12836675,1.3252781,-2.30373,165.39159)"
       id="text912"
       style="font-style:normal;font-weight:normal;font-size:127.426px;line-height:1.25;font-family:sans-serif;display:inline;fill:#5767df;fill-opacity:1;stroke:none;stroke-width:3.18552;stroke-miterlimit:4;stroke-dasharray:none">
      <path
         d="M 17.007808,5.7176488 15.390095,72.852735 H 4.8127414 L 3.070589,5.7176488 Z M 16.385611,98.362823 H 3.6927863 V 85.234461 H 16.385611 Z"
         style="fill:#5767df;fill-opacity:0.286111;stroke-width:3.18552;stroke-miterlimit:4;stroke-dasharray:none"
         id="path1767" />
    </g>
  </g>
  <g
     inkscape:label="Layer 1"
     inkscape:groupmode="layer"
     id="g1684"
     transform="translate(0,-168.49998)"
     style="display:inline;opacity:1">
    <rect
       style="display:inline;fill:#ededed;fill-opacity:1;stroke-width:0.290513;image-rendering:auto"
       id="rect652"
       width="22.650755"
       height="10.721942"
       x="3.9146223"
       y="275.13901"
       ry="2.5005453" />
    <rect
       style="display:inline;fill:#ededed;fill-opacity:1;stroke-width:0.185713;image-rendering:auto"
       id="rect652-6"
       width="10.215339"
       height="9.7154026"
       x="16.482512"
       y="234.15109"
       ry="2.2658029" />
    <g
       aria-label="-"
       id="text1760-3-2"
       style="font-size:10.5833px;line-height:1.25;font-family:sans-serif;word-spacing:0px;display:inline;opacity:1;stroke-width:0.264583"
       transform="translate(64.387058,176.58836)" />
    <g
       aria-label="L"
       id="text1685"
       style="font-size:7.05556px;line-height:1.25;word-spacing:0px;fill:#ededed;fill-opacity:1;stroke-width:0.264583"
       transform="translate(0.5509195,-0.52916667)">
      <path
         d="m 9.6463625,292.45724 h -3.245282 v -5.12975 h 0.6821293 v 4.52342 h 2.5631527 z"
         id="path1691"
         style="fill:#ededed;fill-opacity:1" />
    </g>
    <g
       aria-label="R"
       id="text1689"
       style="font-size:7.05556px;line-height:1.25;word-spacing:0px;fill:#ededed;fill-opacity:1;stroke-width:0.265;stroke-dasharray:none"
       transform="translate(0.619019,-0.52916667)">
      <path
         d="m 23.093342,292.45724 h -0.88539 l -1.715659,-2.03949 h -0.961182 v 2.03949 h -0.68213 v -5.12975 h 1.436606 q 0.465088,0 0.775147,0.062 0.310059,0.0586 0.558106,0.21359 0.279053,0.1757 0.434082,0.44442 0.158475,0.26527 0.158475,0.67524 0,0.55466 -0.279053,0.93018 -0.279053,0.37207 -0.768257,0.56155 z m -1.595081,-3.68625 q 0,-0.22049 -0.07924,-0.3893 -0.07579,-0.17225 -0.254937,-0.28938 -0.148139,-0.0999 -0.3514,-0.13781 -0.203261,-0.0413 -0.478869,-0.0413 h -0.802707 v 1.93615 h 0.689019 q 0.323839,0 0.564996,-0.0551 0.241157,-0.0586 0.409967,-0.21359 0.155029,-0.1447 0.227376,-0.33073 0.07579,-0.18948 0.07579,-0.47887 z"
         id="path1694"
         style="fill:#ededed;fill-opacity:1;stroke-width:0.265;stroke-dasharray:none" />
    </g>
    <g
       aria-label="SPEED"
       id="text1878"
       style="font-size:3.52778px;line-height:1.25;word-spacing:0px;fill:#ededed;fill-opacity:1;stroke-width:0.264583"
       transform="translate(-5.7125607,65.08837)">
      <path
         d="m 17.289558,207.19081 q 0,0.14987 -0.07062,0.29628 -0.0689,0.14642 -0.194648,0.24805 -0.137804,0.11024 -0.322116,0.17225 -0.182591,0.062 -0.440973,0.062 -0.27733,0 -0.499539,-0.0517 -0.220486,-0.0517 -0.449585,-0.15331 v -0.42719 h 0.02412 q 0.194648,0.16192 0.449586,0.24977 0.254937,0.0879 0.478868,0.0879 0.316949,0 0.492649,-0.11886 0.177423,-0.11885 0.177423,-0.31694 0,-0.17054 -0.08441,-0.2515 -0.08268,-0.081 -0.253215,-0.12574 -0.129191,-0.0344 -0.280775,-0.0568 -0.149862,-0.0224 -0.318672,-0.0568 -0.341064,-0.0724 -0.506429,-0.24633 -0.163642,-0.1757 -0.163642,-0.45647 0,-0.32212 0.272162,-0.5271 0.272163,-0.20671 0.690742,-0.20671 0.270441,0 0.496095,0.0517 0.225653,0.0517 0.399631,0.12747 v 0.40307 h -0.02412 q -0.146416,-0.12402 -0.385851,-0.20498 -0.237711,-0.0827 -0.487481,-0.0827 -0.273885,0 -0.440973,0.11369 -0.165364,0.11369 -0.165364,0.29283 0,0.1602 0.08268,0.25149 0.08268,0.0913 0.291111,0.13953 0.110243,0.0241 0.313504,0.0586 0.20326,0.0345 0.34451,0.0706 0.285943,0.0758 0.430637,0.2291 0.144694,0.15331 0.144694,0.42891 z"
         id="path1893"
         style="fill:#ededed;fill-opacity:1" />
      <path
         d="m 19.515091,206.13317 q 0,0.17053 -0.06029,0.31695 -0.05857,0.14469 -0.165365,0.25149 -0.132636,0.13264 -0.313504,0.19982 -0.180867,0.0654 -0.456475,0.0654 h -0.341065 v 0.95602 h -0.341065 v -2.56488 h 0.69591 q 0.230822,0 0.391019,0.0396 0.160197,0.0379 0.28422,0.12058 0.146417,0.0982 0.225654,0.2446 0.08096,0.14642 0.08096,0.37035 z m -0.354845,0.009 q 0,-0.13263 -0.04651,-0.23082 -0.04651,-0.0982 -0.141249,-0.1602 -0.08268,-0.0534 -0.18948,-0.0758 -0.105076,-0.0241 -0.266995,-0.0241 h -0.33762 v 1.02491 h 0.287666 q 0.206706,0 0.335897,-0.0362 0.129191,-0.0379 0.210151,-0.11886 0.08096,-0.0827 0.113688,-0.17397 0.03445,-0.0913 0.03445,-0.20499 z"
         id="path1895"
         style="fill:#ededed;fill-opacity:1" />
      <path
         d="m 21.654497,207.9229 h -1.68982 v -2.56488 h 1.68982 v 0.30317 h -1.348756 v 0.7028 h 1.348756 v 0.30317 h -1.348756 v 0.95257 h 1.348756 z"
         id="path1897"
         style="fill:#ededed;fill-opacity:1" />
      <path
         d="m 23.885197,207.9229 h -1.68982 v -2.56488 h 1.68982 v 0.30317 h -1.348755 v 0.7028 h 1.348755 v 0.30317 h -1.348755 v 0.95257 h 1.348755 z"
         id="path1899"
         style="fill:#ededed;fill-opacity:1" />
      <path
         d="m 26.593044,206.64304 q 0,0.34968 -0.153307,0.6339 -0.151584,0.28422 -0.404799,0.44097 -0.1757,0.10852 -0.392741,0.15676 -0.215319,0.0482 -0.568441,0.0482 h -0.647678 v -2.56488 h 0.640788 q 0.375515,0 0.596002,0.0551 0.222208,0.0534 0.375515,0.14814 0.261828,0.16364 0.408244,0.43581 0.146417,0.27216 0.146417,0.64595 z m -0.356568,-0.005 q 0,-0.30145 -0.105075,-0.50816 -0.105076,-0.2067 -0.313504,-0.32556 -0.151584,-0.0861 -0.322117,-0.11885 -0.170532,-0.0344 -0.408244,-0.0344 h -0.320394 v 1.9792 h 0.320394 q 0.246325,0 0.428915,-0.0362 0.184313,-0.0362 0.33762,-0.13436 0.191202,-0.1223 0.285943,-0.32211 0.09646,-0.19982 0.09646,-0.49954 z"
         id="path1901"
         style="fill:#ededed;fill-opacity:1" />
    </g>
    <g
       aria-label="POSITION"
       id="text551"
       style="font-size:4.23333px;line-height:1.25;word-spacing:0px;display:inline;fill:#ededed;fill-opacity:1;stroke-width:0.264583"
       transform="translate(2.0108338,8.9956406)">
      <path
         d="m 4.3976714,191.2351 q 0,0.20463 -0.072347,0.38033 -0.07028,0.17364 -0.1984373,0.30179 -0.1591633,0.15917 -0.3762041,0.23978 -0.2170409,0.0785 -0.5477698,0.0785 h -0.409277 v 1.14722 h -0.409277 v -3.07785 h 0.8350905 q 0.2769854,0 0.4692216,0.0475 0.1922362,0.0455 0.3410642,0.1447 0.1756997,0.11782 0.2707842,0.29352 0.097152,0.1757 0.097152,0.44442 z m -0.4258134,0.0103 q 0,-0.15916 -0.055811,-0.27698 -0.05581,-0.11783 -0.1694986,-0.19224 -0.099219,-0.0641 -0.2273761,-0.0909 -0.1260904,-0.0289 -0.3203936,-0.0289 H 2.7936363 v 1.2299 h 0.3451983 q 0.2480467,0 0.4030758,-0.0434 0.1550292,-0.0455 0.2521808,-0.14263 0.097152,-0.0992 0.1364257,-0.20877 0.041341,-0.10955 0.041341,-0.24598 z"
         id="path553"
         style="fill:#ededed;fill-opacity:1" />
      <path
         d="m 7.2316045,190.65839 q 0.1881021,0.2067 0.2873207,0.50643 0.1012858,0.29972 0.1012858,0.68006 0,0.38034 -0.1033528,0.68213 -0.1012857,0.29972 -0.2852537,0.50022 -0.1901691,0.20878 -0.4506181,0.3142 -0.2583819,0.10542 -0.5911779,0.10542 -0.3245277,0 -0.5911779,-0.10749 -0.2645831,-0.10749 -0.4506181,-0.31213 -0.186035,-0.20464 -0.2873207,-0.50229 -0.099219,-0.29766 -0.099219,-0.68006 0,-0.37621 0.099219,-0.67386 0.099219,-0.29973 0.2893878,-0.51263 0.1819009,-0.20257 0.4506181,-0.31006 0.2707843,-0.10749 0.5891108,-0.10749 0.3307289,0 0.593245,0.10956 0.2645831,0.10748 0.448551,0.30799 z m -0.037207,1.18649 q 0,-0.59945 -0.2687172,-0.92398 -0.2687172,-0.32659 -0.7338047,-0.32659 -0.4692216,0 -0.7379389,0.32659 -0.2666501,0.32453 -0.2666501,0.92398 0,0.60564 0.2728513,0.92811 0.2728513,0.32039 0.7317377,0.32039 0.4588863,0 0.7296706,-0.32039 0.2728513,-0.32247 0.2728513,-0.92811 z"
         id="path555"
         style="fill:#ededed;fill-opacity:1" />
      <path
         d="m 10.50582,192.50427 q 0,0.17983 -0.08475,0.35553 -0.08268,0.1757 -0.233577,0.29766 -0.165365,0.13229 -0.3865397,0.2067 -0.2191079,0.0744 -0.5291663,0.0744 -0.3327959,0 -0.5994461,-0.062 -0.2645831,-0.062 -0.5395015,-0.18397 v -0.51263 h 0.028939 q 0.2335773,0.1943 0.5395015,0.29972 0.3059242,0.10542 0.5746415,0.10542 0.3803382,0 0.5911778,-0.14263 0.2129068,-0.14262 0.2129068,-0.38033 0,-0.20464 -0.1012858,-0.30179 -0.099219,-0.0972 -0.3038571,-0.1509 -0.1550292,-0.0413 -0.3369301,-0.0682 -0.1798338,-0.0269 -0.3824053,-0.0682 -0.409277,-0.0868 -0.6077143,-0.29558 -0.1963703,-0.21084 -0.1963703,-0.54777 0,-0.38654 0.3265948,-0.63252 0.3265948,-0.24805 0.8288893,-0.24805 0.3245277,0 0.595312,0.062 0.2707838,0.062 0.4795568,0.15296 v 0.4837 h -0.02894 q -0.1757,-0.14883 -0.4630201,-0.24598 -0.2852537,-0.0992 -0.5849768,-0.0992 -0.3286618,0 -0.5291662,0.13642 -0.1984373,0.13643 -0.1984373,0.3514 0,0.19224 0.099219,0.30179 0.099219,0.10956 0.3493324,0.16743 0.1322916,0.0289 0.3762041,0.0703 0.2439126,0.0413 0.4134112,0.0848 0.3431317,0.0909 0.5167647,0.27492 0.173632,0.18397 0.173632,0.5147 z"
         id="path557"
         style="fill:#ededed;fill-opacity:1" />
      <path
         d="M 12.248348,193.38277 H 11.03292 v -0.3142 h 0.403075 v -2.44946 H 11.03292 v -0.31419 h 1.215428 v 0.31419 h -0.403076 v 2.44946 h 0.403076 z"
         id="path559"
         style="fill:#ededed;fill-opacity:1" />
      <path
         d="m 15.140159,190.66872 h -1.099673 v 2.71405 h -0.409277 v -2.71405 h -1.099674 v -0.3638 h 2.608624 z"
         id="path561"
         style="fill:#ededed;fill-opacity:1" />
      <path
         d="m 16.638774,193.38277 h -1.215429 v -0.3142 h 0.403076 v -2.44946 h -0.403076 v -0.31419 h 1.215429 v 0.31419 h -0.403076 v 2.44946 h 0.403076 z"
         id="path563"
         style="fill:#ededed;fill-opacity:1" />
      <path
         d="m 19.629804,190.65839 q 0.188102,0.2067 0.28732,0.50643 0.101286,0.29972 0.101286,0.68006 0,0.38034 -0.103353,0.68213 -0.101285,0.29972 -0.285253,0.50022 -0.19017,0.20878 -0.450619,0.3142 -0.258381,0.10542 -0.591177,0.10542 -0.324528,0 -0.591178,-0.10749 -0.264583,-0.10749 -0.450618,-0.31213 -0.186035,-0.20464 -0.287321,-0.50229 -0.09922,-0.29766 -0.09922,-0.68006 0,-0.37621 0.09922,-0.67386 0.09922,-0.29973 0.289388,-0.51263 0.181901,-0.20257 0.450618,-0.31006 0.270784,-0.10749 0.589111,-0.10749 0.330728,0 0.593245,0.10956 0.264583,0.10748 0.448551,0.30799 z m -0.03721,1.18649 q 0,-0.59945 -0.268718,-0.92398 -0.268717,-0.32659 -0.733804,-0.32659 -0.469222,0 -0.737939,0.32659 -0.26665,0.32453 -0.26665,0.92398 0,0.60564 0.272851,0.92811 0.272851,0.32039 0.731738,0.32039 0.458886,0 0.72967,-0.32039 0.272852,-0.32247 0.272852,-0.92811 z"
         id="path565"
         style="fill:#ededed;fill-opacity:1" />
      <path
         d="m 23.01564,193.38277 h -0.506428 l -1.459342,-2.75332 v 2.75332 h -0.382405 v -3.07785 h 0.634586 l 1.331184,2.51354 v -2.51354 h 0.382405 z"
         id="path567"
         style="fill:#ededed;fill-opacity:1" />
    </g>
    <g
       aria-label="Fixation"
       id="text626"
       style="font-size:4.9389px;line-height:1.25;word-spacing:0px;display:inline;fill:#ededed;fill-opacity:1;stroke-width:0.264583"
       transform="translate(2.5399968)">
      <path
         d="M 5.6943822,174.66324 H 3.8784683 v 1.01286 h 1.5602873 v 0.42444 H 3.8784683 v 1.7291 H 3.400977 v -3.59084 h 2.2934052 z"
         id="path631"
         style="fill:#ededed;fill-opacity:1" />
      <path
         d="M 6.6903616,174.68495 H 6.1791083 v -0.47026 h 0.5112533 z m -0.028939,3.14469 H 6.2080472 v -2.69373 h 0.4533756 z"
         id="path633"
         style="fill:#ededed;fill-opacity:1" />
      <path
         d="M 9.890518,177.82964 H 9.3189753 l -0.7644684,-1.03457 -0.7692915,1.03457 H 7.257081 l 1.0514455,-1.34325 -1.0417992,-1.35048 H 7.83827 l 0.7596452,1.01768 0.7620569,-1.01768 H 9.890518 l -1.0586803,1.32636 z"
         id="path635"
         style="fill:#ededed;fill-opacity:1" />
      <path
         d="m 12.574598,177.82964 h -0.450964 v -0.28698 q -0.06029,0.041 -0.163987,0.11575 -0.101286,0.0724 -0.197749,0.11576 -0.113344,0.0555 -0.26045,0.0916 -0.147105,0.0386 -0.344854,0.0386 -0.364148,0 -0.617363,-0.24115 -0.253215,-0.24116 -0.253215,-0.61495 0,-0.30627 0.130225,-0.49438 0.132636,-0.19051 0.376205,-0.29903 0.245981,-0.10852 0.590835,-0.14711 0.344855,-0.0386 0.740353,-0.0579 v -0.0699 q 0,-0.15434 -0.05547,-0.25563 -0.05306,-0.10128 -0.154341,-0.15916 -0.09646,-0.0555 -0.231511,-0.0748 -0.135048,-0.0193 -0.282154,-0.0193 -0.178456,0 -0.397909,0.0482 -0.219453,0.0458 -0.453376,0.13505 h -0.02411 v -0.46061 q 0.132636,-0.0362 0.38344,-0.0796 0.250803,-0.0434 0.494372,-0.0434 0.284566,0 0.494372,0.0482 0.212219,0.0458 0.366559,0.15916 0.151929,0.11093 0.231511,0.28698 0.07958,0.17604 0.07958,0.43649 z m -0.450964,-0.66319 v -0.75 q -0.207395,0.0121 -0.489549,0.0362 -0.279742,0.0241 -0.443729,0.0699 -0.195338,0.0555 -0.315916,0.17364 -0.120579,0.11575 -0.120579,0.32074 0,0.23151 0.139871,0.34967 0.139871,0.11576 0.426849,0.11576 0.238745,0 0.436494,-0.0916 0.197749,-0.094 0.366559,-0.22428 z"
         id="path637"
         style="fill:#ededed;fill-opacity:1" />
      <path
         d="m 14.846299,177.80552 q -0.127813,0.0338 -0.279742,0.0555 -0.149518,0.0217 -0.267685,0.0217 -0.412379,0 -0.627009,-0.22186 -0.21463,-0.22187 -0.21463,-0.71142 v -1.43247 h -0.306269 v -0.38103 h 0.306269 v -0.77412 h 0.453376 v 0.77412 h 0.93569 v 0.38103 h -0.93569 v 1.22749 q 0,0.21222 0.0096,0.3328 0.0096,0.11816 0.06752,0.22186 0.05306,0.0965 0.144695,0.14228 0.09405,0.0434 0.284565,0.0434 0.110932,0 0.231511,-0.0314 0.120579,-0.0338 0.173633,-0.0555 h 0.02412 z"
         id="path639"
         style="fill:#ededed;fill-opacity:1" />
      <path
         d="m 15.880864,174.68495 h -0.511253 v -0.47026 h 0.511253 z m -0.02894,3.14469 H 15.39855 v -2.69373 h 0.453375 z"
         id="path641"
         style="fill:#ededed;fill-opacity:1" />
      <path
         d="m 19.044846,176.48398 q 0,0.65836 -0.33762,1.03939 -0.33762,0.38102 -0.90434,0.38102 -0.571542,0 -0.909162,-0.38102 -0.335209,-0.38103 -0.335209,-1.03939 0,-0.65836 0.335209,-1.03939 0.33762,-0.38344 0.909162,-0.38344 0.56672,0 0.90434,0.38344 0.33762,0.38103 0.33762,1.03939 z m -0.467845,0 q 0,-0.52331 -0.204984,-0.77653 -0.204983,-0.25562 -0.569131,-0.25562 -0.36897,0 -0.573954,0.25562 -0.202572,0.25322 -0.202572,0.77653 0,0.50643 0.204984,0.76929 0.204983,0.26045 0.571542,0.26045 0.361736,0 0.56672,-0.25804 0.207395,-0.26045 0.207395,-0.7717 z"
         id="path643"
         style="fill:#ededed;fill-opacity:1" />
      <path
         d="m 21.999023,177.82964 h -0.453376 v -1.53376 q 0,-0.1857 -0.0217,-0.34727 -0.0217,-0.16399 -0.07958,-0.25563 -0.06029,-0.10128 -0.173633,-0.14951 -0.113344,-0.0507 -0.294212,-0.0507 -0.185691,0 -0.388263,0.0916 -0.202572,0.0916 -0.388263,0.23392 v 2.01126 h -0.453375 v -2.69373 h 0.453375 v 0.29903 q 0.212219,-0.17604 0.438906,-0.27491 0.226688,-0.0989 0.465434,-0.0989 0.436494,0 0.665594,0.26286 0.229099,0.26286 0.229099,0.75724 z"
         id="path645"
         style="fill:#ededed;fill-opacity:1" />
    </g>
    <g
       aria-label="CLOCK"
       transform="translate(2.1166667,168.49998)"
       id="text347"
       style="font-size:3.52778px;line-height:1.25;word-spacing:0px;display:inline;fill:#ededed;fill-opacity:1;stroke-width:0.264583">
      <path
         d="m 4.7575958,16.839033 q -0.09474,0.04134 -0.1722548,0.07751 -0.075792,0.03617 -0.1998157,0.07579 -0.1050755,0.03273 -0.229099,0.05512 -0.122301,0.02412 -0.2704402,0.02412 -0.2790529,0 -0.5081519,-0.07752 Q 3.1504578,16.914825 2.981648,16.747738 2.8162833,16.584096 2.7232657,16.332604 2.630248,16.079389 2.630248,15.745214 q 0,-0.316949 0.089573,-0.566718 0.089573,-0.24977 0.2583823,-0.422025 0.1636421,-0.167087 0.3944637,-0.254937 0.2325441,-0.08785 0.5150421,-0.08785 0.2067058,0 0.4116892,0.04995 0.2067058,0.04995 0.4581979,0.1757 v 0.404799 h -0.025838 q -0.2118735,-0.177422 -0.4203019,-0.258382 -0.2084284,-0.08096 -0.4461402,-0.08096 -0.194648,0 -0.3513999,0.06373 -0.1550294,0.06201 -0.2773304,0.194648 -0.1188559,0.129191 -0.1860353,0.327285 -0.065457,0.19637 -0.065457,0.454752 0,0.270441 0.072347,0.465089 0.07407,0.194648 0.1894804,0.316949 0.1205784,0.127468 0.2807755,0.18948 0.1619196,0.06029 0.3410646,0.06029 0.2463245,0 0.4616431,-0.08441 0.2153186,-0.08441 0.4030765,-0.253214 h 0.024116 z"
         id="path412"
         style="fill:#ededed;fill-opacity:1" />
      <path
         d="M 6.8625506,17.025068 H 5.2399096 V 14.460193 H 5.5809743 V 16.7219 h 1.2815763 z"
         id="path414"
         style="fill:#ededed;fill-opacity:1" />
      <path
         d="m 9.0811938,14.754749 q 0.156752,0.172255 0.2394343,0.422024 0.084405,0.24977 0.084405,0.566719 0,0.316949 -0.086127,0.568441 -0.084405,0.24977 -0.2377118,0.416857 -0.1584745,0.173977 -0.3755156,0.261827 -0.2153186,0.08785 -0.492649,0.08785 -0.2704402,0 -0.492649,-0.08957 Q 7.499894,16.899322 7.3448646,16.72879 7.1898352,16.558258 7.1054303,16.310211 q -0.082682,-0.248048 -0.082682,-0.566719 0,-0.313504 0.082682,-0.561551 0.082682,-0.24977 0.2411568,-0.427192 0.1515843,-0.16881 0.3755157,-0.258382 0.2256539,-0.08957 0.4909264,-0.08957 0.2756078,0 0.4943715,0.0913 0.2204863,0.08957 0.3737931,0.25666 z m -0.031006,0.988743 q 0,-0.499539 -0.2239313,-0.769979 -0.2239314,-0.272163 -0.6115049,-0.272163 -0.3910185,0 -0.6149499,0.272163 -0.2222088,0.27044 -0.2222088,0.769979 0,0.504707 0.2273764,0.773424 0.2273765,0.266995 0.6097823,0.266995 0.3824059,0 0.6080598,-0.266995 0.2273764,-0.268717 0.2273764,-0.773424 z"
         id="path416"
         style="fill:#ededed;fill-opacity:1" />
      <path
         d="m 11.926844,16.839033 q -0.09474,0.04134 -0.172254,0.07751 -0.07579,0.03617 -0.199816,0.07579 -0.105076,0.03273 -0.229099,0.05512 -0.122301,0.02412 -0.27044,0.02412 -0.279053,0 -0.508152,-0.07752 -0.227377,-0.07924 -0.396186,-0.246324 -0.1653651,-0.163642 -0.2583828,-0.415134 -0.093018,-0.253215 -0.093018,-0.58739 0,-0.316949 0.089573,-0.566718 0.089573,-0.24977 0.2583818,-0.422025 0.163643,-0.167087 0.394464,-0.254937 0.232544,-0.08785 0.515042,-0.08785 0.206706,0 0.411689,0.04995 0.206706,0.04995 0.458198,0.1757 v 0.404799 h -0.02584 q -0.211873,-0.177422 -0.420302,-0.258382 -0.208428,-0.08096 -0.44614,-0.08096 -0.194648,0 -0.3514,0.06373 -0.155029,0.06201 -0.27733,0.194648 -0.118856,0.129191 -0.186035,0.327285 -0.06546,0.19637 -0.06546,0.454752 0,0.270441 0.07235,0.465089 0.07407,0.194648 0.18948,0.316949 0.120579,0.127468 0.280776,0.18948 0.161919,0.06029 0.341064,0.06029 0.246325,0 0.461643,-0.08441 0.215319,-0.08441 0.403077,-0.253214 h 0.02411 z"
         id="path418"
         style="fill:#ededed;fill-opacity:1" />
      <path
         d="m 14.471049,17.025068 h -0.442695 l -1.014582,-1.14205 -0.254937,0.272163 v 0.869887 H 12.41777 v -2.564875 h 0.341065 v 1.33842 l 1.245403,-1.33842 h 0.413412 l -1.145495,1.205784 z"
         id="path420"
         style="fill:#ededed;fill-opacity:1" />
    </g>
    <g
       aria-label="PLAY"
       id="text507"
       style="font-size:4.23333px;line-height:1.25;word-spacing:0px;fill:#ededed;fill-opacity:1;stroke-width:0.264583"
       transform="translate(97.850038,37.807494)">
      <path
         d="m -85.504948,220.79511 q 0,0.20464 -0.07235,0.38034 -0.07028,0.17363 -0.198437,0.30179 -0.159163,0.15916 -0.376204,0.23978 -0.217041,0.0785 -0.54777,0.0785 h -0.409277 v 1.14722 h -0.409277 v -3.07785 h 0.83509 q 0.276986,0 0.469222,0.0476 0.192236,0.0455 0.341064,0.14469 0.1757,0.11782 0.270784,0.29352 0.09715,0.1757 0.09715,0.44442 z m -0.425813,0.0103 q 0,-0.15916 -0.05581,-0.27698 -0.05581,-0.11782 -0.169498,-0.19224 -0.09922,-0.0641 -0.227377,-0.0909 -0.12609,-0.0289 -0.320393,-0.0289 h -0.405143 v 1.2299 h 0.345198 q 0.248047,0 0.403076,-0.0434 0.155029,-0.0455 0.252181,-0.14262 0.09715,-0.0992 0.136426,-0.20878 0.04134,-0.10955 0.04134,-0.24598 z"
         id="path513"
         style="fill:#ededed;fill-opacity:1" />
      <path
         d="m -83.01828,222.94278 h -1.947167 v -3.07785 h 0.409277 v 2.71405 h 1.53789 z"
         id="path515"
         style="fill:#ededed;fill-opacity:1" />
      <path
         d="m -80.18228,222.94278 h -0.436149 l -0.30179,-0.85783 h -1.331183 l -0.301791,0.85783 h -0.415478 l 1.120344,-3.07785 h 0.545703 z m -0.864029,-1.20923 -0.539502,-1.51102 -0.541568,1.51102 z"
         id="path517"
         style="fill:#ededed;fill-opacity:1" />
      <path
         d="m -77.701813,219.86493 -1.083137,1.72806 v 1.34979 h -0.409277 v -1.30638 l -1.087272,-1.77147 h 0.452686 l 0.841291,1.37666 0.84956,-1.37666 z"
         id="path519"
         style="fill:#ededed;fill-opacity:1" />
    </g>
    <g
       aria-label="LENGTH"
       id="text354"
       style="font-size:4.23333px;line-height:1.25;word-spacing:0px;display:inline;fill:#ededed;fill-opacity:1;stroke-width:0.264583"
       transform="translate(2.5399998,173.79168)">
      <path
         d="M 6.4244193,43.030396 H 4.4772529 V 39.95255 h 0.409277 v 2.714044 h 1.5378894 z"
         id="path492"
         style="fill:#ededed;fill-opacity:1" />
      <path
         d="M 8.8614778,43.030396 H 6.8336963 V 39.95255 h 2.0277815 v 0.363802 H 7.2429733 v 0.843358 h 1.6185045 v 0.363802 H 7.2429733 v 1.143082 h 1.6185045 z"
         id="path494"
         style="fill:#ededed;fill-opacity:1" />
      <path
         d="M 11.858708,43.030396 H 11.35228 L 9.8929386,40.277078 v 2.753318 H 9.5105333 V 39.95255 h 0.6345857 l 1.331184,2.513539 V 39.95255 h 0.382405 z"
         id="path496"
         style="fill:#ededed;fill-opacity:1" />
      <path
         d="m 15.244545,42.803019 q -0.252181,0.115756 -0.551904,0.202572 -0.297656,0.08475 -0.576708,0.08475 -0.359668,0 -0.659391,-0.09922 -0.299723,-0.09922 -0.510563,-0.297656 -0.212906,-0.200504 -0.328661,-0.500227 -0.115755,-0.30179 -0.115755,-0.704866 0,-0.737939 0.429947,-1.163752 0.432015,-0.427881 1.184423,-0.427881 0.262516,0 0.535367,0.06408 0.274919,0.06201 0.591178,0.212907 v 0.485758 h -0.03721 q -0.06408,-0.04961 -0.186035,-0.130225 -0.121956,-0.08062 -0.239778,-0.134358 -0.142627,-0.06408 -0.324528,-0.10542 -0.179834,-0.04341 -0.409277,-0.04341 -0.516764,0 -0.818554,0.332796 -0.299723,0.330729 -0.299723,0.897102 0,0.597379 0.314192,0.930175 0.314193,0.330729 0.855761,0.330729 0.198438,0 0.394808,-0.03927 0.198437,-0.03927 0.347265,-0.101286 v -0.754475 h -0.824755 v -0.359668 h 1.229898 z"
         id="path498"
         style="fill:#ededed;fill-opacity:1" />
      <path
         d="m 18.15496,40.316352 h -1.099673 v 2.714044 H 16.64601 V 40.316352 H 15.546336 V 39.95255 h 2.608624 z"
         id="path500"
         style="fill:#ededed;fill-opacity:1" />
      <path
         d="M 20.922747,43.030396 H 20.51347 v -1.506884 h -1.535822 v 1.506884 H 18.568371 V 39.95255 h 0.409277 v 1.20716 h 1.535822 v -1.20716 h 0.409277 z"
         id="path502"
         style="fill:#ededed;fill-opacity:1" />
    </g>
    <g
       aria-label="COUNT"
       id="text582"
       style="font-size:3.52777px;line-height:1.25;word-spacing:0px;fill:#ededed;fill-opacity:1;stroke-width:0.264583"
       transform="translate(71.875871,8.069824)">
      <path
         d="m -67.39227,224.14102 q -0.09474,0.0413 -0.172255,0.0775 -0.07579,0.0362 -0.199815,0.0758 -0.105075,0.0327 -0.229098,0.0551 -0.122301,0.0241 -0.27044,0.0241 -0.279052,0 -0.50815,-0.0775 -0.227376,-0.0792 -0.396185,-0.24632 -0.165364,-0.16364 -0.258382,-0.41514 -0.09302,-0.25321 -0.09302,-0.58738 0,-0.31695 0.08957,-0.56672 0.08957,-0.24977 0.258382,-0.42202 0.163641,-0.16709 0.394462,-0.25494 0.232544,-0.0879 0.515041,-0.0879 0.206705,0 0.411688,0.0499 0.206705,0.05 0.458197,0.1757 v 0.4048 h -0.02584 q -0.211872,-0.17742 -0.4203,-0.25838 -0.208428,-0.081 -0.446139,-0.081 -0.194648,0 -0.351399,0.0637 -0.155029,0.062 -0.27733,0.19465 -0.118855,0.12919 -0.186034,0.32729 -0.06546,0.19637 -0.06546,0.45475 0,0.27044 0.07235,0.46508 0.07407,0.19465 0.18948,0.31695 0.120578,0.12747 0.280774,0.18948 0.161919,0.0603 0.341064,0.0603 0.246324,0 0.461642,-0.0844 0.215318,-0.0844 0.403075,-0.25322 h 0.02412 z"
         id="path607"
         style="fill:#ededed;fill-opacity:1" />
      <path
         d="m -64.997934,222.05674 q 0.156751,0.17226 0.239433,0.42203 0.0844,0.24977 0.0844,0.56671 0,0.31695 -0.08613,0.56844 -0.08441,0.24977 -0.237711,0.41686 -0.158474,0.17398 -0.375515,0.26183 -0.215318,0.0879 -0.492648,0.0879 -0.270439,0 -0.492647,-0.0896 -0.220486,-0.0896 -0.375515,-0.2601 -0.155029,-0.17053 -0.239433,-0.41858 -0.08268,-0.24805 -0.08268,-0.56672 0,-0.3135 0.08268,-0.56155 0.08268,-0.24976 0.241156,-0.42719 0.151584,-0.16881 0.375514,-0.25838 0.225654,-0.0896 0.490925,-0.0896 0.275607,0 0.494371,0.0913 0.220485,0.0896 0.373792,0.25666 z m -0.03101,0.98874 q 0,-0.49953 -0.223931,-0.76997 -0.223931,-0.27216 -0.611503,-0.27216 -0.391018,0 -0.614948,0.27216 -0.222208,0.27044 -0.222208,0.76997 0,0.50471 0.227375,0.77343 0.227376,0.26699 0.609781,0.26699 0.382405,0 0.608058,-0.26699 0.227376,-0.26872 0.227376,-0.77343 z"
         id="path609"
         style="fill:#ededed;fill-opacity:1" />
      <path
         d="m -62.202245,223.29698 q 0,0.27905 -0.06201,0.48748 -0.06029,0.2067 -0.199815,0.3445 -0.132636,0.13092 -0.310058,0.19121 -0.177422,0.0603 -0.413411,0.0603 -0.241156,0 -0.4203,-0.0637 -0.179145,-0.0637 -0.301445,-0.18776 -0.139527,-0.14124 -0.201538,-0.34106 -0.06029,-0.19981 -0.06029,-0.49092 v -1.53479 h 0.341064 v 1.55201 q 0,0.20843 0.02756,0.32901 0.02928,0.12058 0.09646,0.21876 0.07579,0.11197 0.204982,0.16881 0.130914,0.0568 0.313503,0.0568 0.184313,0 0.313503,-0.0551 0.129191,-0.0568 0.206706,-0.17053 0.06718,-0.0982 0.09474,-0.22393 0.02928,-0.12747 0.02928,-0.31523 v -1.56062 h 0.341064 z"
         id="path611"
         style="fill:#ededed;fill-opacity:1" />
      <path
         d="m -59.594314,224.32706 h -0.422023 l -1.216116,-2.29443 v 2.29443 h -0.318671 v -2.56487 h 0.528821 l 1.109318,2.09461 v -2.09461 h 0.318671 z"
         id="path613"
         style="fill:#ededed;fill-opacity:1" />
      <path
         d="m -57.082844,222.06536 h -0.916394 v 2.2617 h -0.341063 v -2.2617 h -0.916394 v -0.30317 h 2.173851 z"
         id="path615"
         style="fill:#ededed;fill-opacity:1" />
    </g>
    <g
       aria-label="STYLE"
       id="text586"
       style="font-size:3.52777px;line-height:1.25;word-spacing:0px;fill:#ededed;fill-opacity:1;stroke-width:0.264583"
       transform="translate(67.030132,21.695839)">
      <path
         d="m -48.723984,209.96894 q 0,0.14986 -0.07062,0.29628 -0.0689,0.14641 -0.194648,0.24804 -0.137803,0.11024 -0.322115,0.17226 -0.18259,0.062 -0.440972,0.062 -0.277329,0 -0.499537,-0.0517 -0.220486,-0.0517 -0.449584,-0.1533 v -0.4272 h 0.02412 q 0.194648,0.16192 0.449584,0.24977 0.254937,0.0879 0.478867,0.0879 0.316948,0 0.492648,-0.11885 0.177422,-0.11886 0.177422,-0.31695 0,-0.17053 -0.0844,-0.25149 -0.08268,-0.081 -0.253214,-0.12575 -0.12919,-0.0344 -0.280774,-0.0568 -0.149862,-0.0224 -0.318671,-0.0568 -0.341064,-0.0723 -0.506428,-0.24632 -0.163642,-0.1757 -0.163642,-0.45647 0,-0.32212 0.272162,-0.5271 0.272162,-0.20671 0.690741,-0.20671 0.270439,0 0.496092,0.0517 0.225653,0.0517 0.39963,0.12747 v 0.40307 h -0.02412 q -0.146416,-0.12402 -0.38585,-0.20498 -0.237711,-0.0827 -0.48748,-0.0827 -0.273884,0 -0.440971,0.11369 -0.165364,0.11368 -0.165364,0.29283 0,0.16019 0.08268,0.25149 0.08268,0.0913 0.29111,0.13953 0.110242,0.0241 0.313503,0.0586 0.20326,0.0345 0.344508,0.0706 0.285943,0.0758 0.430636,0.22909 0.144694,0.15331 0.144694,0.42892 z"
         id="path596"
         style="fill:#ededed;fill-opacity:1" />
      <path
         d="m -46.346873,208.43932 h -0.916394 v 2.2617 h -0.341063 v -2.2617 h -0.916394 v -0.30317 h 2.173851 z"
         id="path598"
         style="fill:#ededed;fill-opacity:1" />
      <path
         d="m -44.186803,208.13615 -0.902613,1.44005 v 1.12482 h -0.341064 v -1.08865 l -0.906058,-1.47622 h 0.377237 l 0.701076,1.14722 0.707965,-1.14722 z"
         id="path600"
         style="fill:#ededed;fill-opacity:1" />
      <path
         d="m -42.209323,210.70102 h -1.622636 v -2.56487 h 0.341064 v 2.2617 h 1.281572 z"
         id="path602"
         style="fill:#ededed;fill-opacity:1" />
      <path
         d="m -40.178443,210.70102 h -1.689816 v -2.56487 h 1.689816 v 0.30317 h -1.348752 v 0.7028 h 1.348752 v 0.30316 h -1.348752 v 0.95257 h 1.348752 z"
         id="path604"
         style="fill:#ededed;fill-opacity:1" />
    </g>
    <g
       aria-label="TRIG"
       id="text620"
       style="font-size:3.52777px;line-height:1.25;word-spacing:0px;display:inline;fill:#ededed;fill-opacity:1;stroke-width:0.264583"
       transform="translate(110.55805,195.22298)">
      <path
         d="m -91.091767,49.861213 h -0.916393 v 2.2617 h -0.341064 v -2.2617 h -0.916393 v -0.303168 h 2.17385 z"
         id="path622"
         style="fill:#ededed;fill-opacity:1" />
      <path
         d="m -88.625084,52.122913 h -0.442694 l -0.857827,-1.019746 h -0.480589 v 1.019746 h -0.341064 v -2.564868 h 0.718301 q 0.232543,0 0.387572,0.03101 0.155029,0.02928 0.279052,0.106798 0.139526,0.08785 0.217041,0.222208 0.07924,0.132636 0.07924,0.337619 0,0.277329 -0.139526,0.465087 -0.139526,0.186034 -0.384127,0.280774 z m -0.797538,-1.843122 q 0,-0.110242 -0.03962,-0.194647 -0.0379,-0.08613 -0.127468,-0.144694 -0.07407,-0.04995 -0.1757,-0.0689 -0.10163,-0.02067 -0.239434,-0.02067 h -0.401352 v 0.96807 h 0.344508 q 0.16192,0 0.282498,-0.02756 0.120578,-0.02928 0.204982,-0.106798 0.07752,-0.07235 0.113688,-0.165364 0.0379,-0.09474 0.0379,-0.239434 z"
         id="path624"
         style="fill:#ededed;fill-opacity:1" />
      <path
         d="m -87.39002,52.122913 h -1.012856 v -0.261826 h 0.335896 v -2.041215 h -0.335896 v -0.261827 h 1.012856 v 0.261827 h -0.335896 v 2.041215 h 0.335896 z"
         id="path626"
         style="fill:#ededed;fill-opacity:1" />
      <path
         d="m -84.670123,51.933434 q -0.21015,0.09646 -0.459919,0.168809 -0.248046,0.07062 -0.48059,0.07062 -0.299723,0 -0.549491,-0.08268 -0.249769,-0.08268 -0.425469,-0.248046 -0.177422,-0.167087 -0.273884,-0.416856 -0.09646,-0.251491 -0.09646,-0.587387 0,-0.614949 0.358289,-0.969793 0.360012,-0.356566 0.987018,-0.356566 0.218763,0 0.446139,0.0534 0.229098,0.05168 0.492648,0.177422 v 0.404797 h -0.03101 q -0.0534,-0.04134 -0.155029,-0.10852 -0.10163,-0.06718 -0.199815,-0.111965 -0.118856,-0.0534 -0.27044,-0.08785 -0.149861,-0.03617 -0.341063,-0.03617 -0.430636,0 -0.682128,0.277329 -0.249769,0.275607 -0.249769,0.747584 0,0.497816 0.261827,0.775145 0.261827,0.275607 0.713133,0.275607 0.165364,0 0.329006,-0.03273 0.165364,-0.03273 0.289388,-0.08441 v -0.628728 h -0.687296 v -0.299723 h 1.024914 z"
         id="path628"
         style="fill:#ededed;fill-opacity:1" />
    </g>
    <path
       style="display:inline;fill:#ededed;fill-opacity:1;stroke:#ededed;stroke-width:0.0949555;stroke-miterlimit:4;stroke-dasharray:none;stroke-opacity:1"
       id="path923-3-2-8"
       sodipodi:type="arc"
       sodipodi:cx="16.497002"
       sodipodi:cy="221.98499"
       sodipodi:rx="0.45252839"
       sodipodi:ry="0.45253617"
       sodipodi:start="0.36229666"
       sodipodi:end="0.35175191"
       sodipodi:arc-type="slice"
       d="m 16.920154,222.14537 a 0.45252839,0.45253617 0 0 1 -0.582423,0.2632 0.45252839,0.45253617 0 0 1 -0.264722,-0.58174 0.45252839,0.45253617 0 0 1 0.581027,-0.26626 0.45252839,0.45253617 0 0 1 0.267786,0.58033 l -0.42482,-0.15591 z" />
    <path
       style="display:inline;fill:#ededed;fill-opacity:1;stroke:#ededed;stroke-width:0.0949555;stroke-miterlimit:4;stroke-dasharray:none;stroke-opacity:1"
       id="path923-3-2-8-0"
       sodipodi:type="arc"
       sodipodi:cx="19.561001"
       sodipodi:cy="219.05899"
       sodipodi:rx="0.45252839"
       sodipodi:ry="0.45253617"
       sodipodi:start="0.36229666"
       sodipodi:end="0.35175191"
       sodipodi:arc-type="slice"
       d="m 19.984153,219.21938 a 0.45252839,0.45253617 0 0 1 -0.582422,0.26319 0.45252839,0.45253617 0 0 1 -0.264723,-0.58174 0.45252839,0.45253617 0 0 1 0.581028,-0.26625 0.45252839,0.45253617 0 0 1 0.267785,0.58033 l -0.42482,-0.15592 z" />
    <path
       style="display:inline;fill:#ededed;fill-opacity:1;stroke:#ededed;stroke-width:0.0949555;stroke-miterlimit:4;stroke-dasharray:none;stroke-opacity:1"
       id="path923-3-2-8-0-8"
       sodipodi:type="arc"
       sodipodi:cx="23.619001"
       sodipodi:cy="219.05899"
       sodipodi:rx="0.45252839"
       sodipodi:ry="0.45253617"
       sodipodi:start="0.36229666"
       sodipodi:end="0.35175191"
       sodipodi:arc-type="slice"
       d="m 24.042154,219.21938 a 0.45252839,0.45253617 0 0 1 -0.582423,0.26319 0.45252839,0.45253617 0 0 1 -0.264722,-0.58174 0.45252839,0.45253617 0 0 1 0.581027,-0.26625 0.45252839,0.45253617 0 0 1 0.267786,0.58033 l -0.424821,-0.15592 z" />
    <path
       style="display:inline;fill:#ededed;fill-opacity:1;stroke:#ededed;stroke-width:0.0949555;stroke-miterlimit:4;stroke-dasharray:none;stroke-opacity:1"
       id="path923-3-2-8-1"
       sodipodi:type="arc"
       sodipodi:cx="26.498001"
       sodipodi:cy="221.98499"
       sodipodi:rx="0.45252839"
       sodipodi:ry="0.45253617"
       sodipodi:start="0.36229666"
       sodipodi:end="0.35175191"
       sodipodi:arc-type="slice"
       d="m 26.921154,222.14537 a 0.45252839,0.45253617 0 0 1 -0.582423,0.2632 0.45252839,0.45253617 0 0 1 -0.264722,-0.58174 0.45252839,0.45253617 0 0 1 0.581027,-0.26626 0.45252839,0.45253617 0 0 1 0.267785,0.58033 l -0.42482,-0.15591 z" />
    <g
       aria-label="-"
       id="text1760-3"
       style="font-size:10.5833px;line-height:1.25;font-family:sans-serif;word-spacing:0px;display:inline;fill:#ededed;fill-opacity:1;stroke-width:0.264583"
       transform="translate(65.186758,212.94792)">
      <path
         d="m -48.334459,40.379236 h -3.224599 v -0.935341 h 3.224599 z"
         style="fill:#ededed;fill-opacity:1;stroke-width:0.264583"
         id="path1762-7" />
    </g>
  </g>
  <g
     inkscape:groupmode="layer"
     id="layer2"
     inkscape:label="components"
     style="display:none">
    <circle
       style="display:inline;opacity:1;vector-effect:none;fill:#ff0000;fill-opacity:1;fill-rule:evenodd;stroke:none;stroke-width:1;stroke-linecap:butt;stroke-linejoin:miter;stroke-miterlimit:4;stroke-dasharray:none;stroke-dashoffset:0;stroke-opacity:1;paint-order:normal"
       id="path4954"
       cx="21.590181"
       cy="97.086998"
       r="4"
       inkscape:label="speed_knob" />
    <circle
       style="display:inline;opacity:1;vector-effect:none;fill:#0000ff;fill-opacity:1;fill-rule:evenodd;stroke:none;stroke-width:1;stroke-linecap:butt;stroke-linejoin:miter;stroke-miterlimit:4;stroke-dasharray:none;stroke-dashoffset:0;stroke-opacity:1;paint-order:normal"
       id="circle4958"
       cx="21.590181"
       cy="112"
       r="4"
       inkscape:label="right_out" />
    <circle
       style="display:inline;vector-effect:none;fill:#0000ff;fill-opacity:1;fill-rule:evenodd;stroke:none;stroke-width:1;stroke-linecap:butt;stroke-linejoin:miter;stroke-miterlimit:4;stroke-dasharray:none;stroke-dashoffset:0;stroke-opacity:1;paint-order:normal"
       id="circle4958-0"
       cx="21.590181"
       cy="70.508827"
       r="4"
       inkscape:label="trig_out" />
    <circle
       style="display:inline;opacity:1;vector-effect:none;fill:#0000ff;fill-opacity:1;fill-rule:evenodd;stroke:none;stroke-width:1;stroke-linecap:butt;stroke-linejoin:miter;stroke-miterlimit:4;stroke-dasharray:none;stroke-dashoffset:0;stroke-opacity:1;paint-order:normal"
       id="circle4958-4"
       cx="8.5746412"
       cy="112"
       r="4"
       inkscape:label="left_out" />
    <circle
       r="4"
       cy="84.359505"
       cx="8.5746412"
       id="circle4956-3-5"
       style="display:inline;opacity:1;vector-effect:none;fill:#00ff00;fill-opacity:1;fill-rule:evenodd;stroke:none;stroke-width:1;stroke-linecap:butt;stroke-linejoin:miter;stroke-miterlimit:4;stroke-dasharray:none;stroke-dashoffset:0;stroke-opacity:1;paint-order:normal"
       inkscape:label="play_trigger" />
    <circle
       r="4"
       cy="97.086998"
       cx="8.5746412"
       id="circle4956-3-5-8"
       style="display:inline;vector-effect:none;fill:#00ff00;fill-opacity:1;fill-rule:evenodd;stroke:none;stroke-width:1;stroke-linecap:butt;stroke-linejoin:miter;stroke-miterlimit:4;stroke-dasharray:none;stroke-dashoffset:0;stroke-opacity:1;paint-order:normal"
       inkscape:label="speed_input" />
    <circle
       style="display:inline;opacity:1;vector-effect:none;fill:#ff0000;fill-opacity:1;fill-rule:evenodd;stroke:none;stroke-width:1;stroke-linecap:butt;stroke-linejoin:miter;stroke-miterlimit:4;stroke-dasharray:none;stroke-dashoffset:0;stroke-opacity:1;paint-order:normal"
       id="path4954-3-0-2-9-7-7"
       cx="21.590181"
       cy="84.359505"
       r="4"
       inkscape:label="play_button" />
    <circle
       style="display:inline;fill:#ff00ff;fill-opacity:1;fill-rule:evenodd;stroke:none;stroke-width:1;stroke-linecap:butt;stroke-linejoin:miter;stroke-miterlimit:4;stroke-dasharray:none;stroke-dashoffset:0;stroke-opacity:1;paint-order:normal"
       id="path4954-3-0-2-9-0-0"
       cx="15.24"
       cy="3"
       r="4"
       inkscape:label="connected" />
    <circle
       style="display:inline;opacity:1;fill:#00ff00;fill-opacity:1;fill-rule:evenodd;stroke:none;stroke-width:1;stroke-linecap:butt;stroke-linejoin:miter;stroke-miterlimit:4;stroke-dasharray:none;stroke-dashoffset:0;stroke-opacity:1;paint-order:normal"
       id="path4954-3-0-2-9-0-3"
       cx="24.236017"
       cy="25.737"
       r="4"
       inkscape:label="position_input" />
    <circle
       style="display:inline;fill:#00ff00;fill-opacity:1;fill-rule:evenodd;stroke:none;stroke-width:1;stroke-linecap:butt;stroke-linejoin:miter;stroke-miterlimit:4;stroke-dasharray:none;stroke-dashoffset:0;stroke-opacity:1;paint-order:normal"
       id="path4954-3-0-2-9-0-3-9"
       cx="21.16647"
       cy="15.742631"
       r="4"
       inkscape:label="clock" />
    <circle
       style="display:inline;opacity:1;vector-effect:none;fill:#ff0000;fill-opacity:1;fill-rule:evenodd;stroke:none;stroke-width:1;stroke-linecap:butt;stroke-linejoin:miter;stroke-miterlimit:4;stroke-dasharray:none;stroke-dashoffset:0;stroke-opacity:1;paint-order:normal"
       id="path4954-3-0-2-9-0"
       cx="6.0349998"
       cy="25.737137"
       r="4"
       inkscape:label="position_knob" />
    <circle
       style="display:inline;opacity:1;vector-effect:none;fill:#ff0000;fill-opacity:1;fill-rule:evenodd;stroke:none;stroke-width:1;stroke-linecap:butt;stroke-linejoin:miter;stroke-miterlimit:4;stroke-dasharray:none;stroke-dashoffset:0;stroke-opacity:1;paint-order:normal"
       id="path4954-3-0-2-9-0-1"
       cx="15.24"
       cy="25.737"
       r="4"
       inkscape:label="position_attn" />
    <circle
       style="display:inline;fill:#00ff00;fill-opacity:1;fill-rule:evenodd;stroke:none;stroke-width:1;stroke-linecap:butt;stroke-linejoin:miter;stroke-miterlimit:4;stroke-dasharray:none;stroke-dashoffset:0;stroke-opacity:1;paint-order:normal"
       id="path4954-3-0-2-9-0-3-5"
       cx="24.236017"
       cy="40.188"
       r="4"
       inkscape:label="length_input" />
    <circle
       style="display:inline;fill:#ff0000;fill-opacity:1;fill-rule:evenodd;stroke:none;stroke-width:1;stroke-linecap:butt;stroke-linejoin:miter;stroke-miterlimit:4;stroke-dasharray:none;stroke-dashoffset:0;stroke-opacity:1;paint-order:normal"
       id="path4954-3-0-2-9-0-9"
       cx="6.0349998"
       cy="40.188137"
       r="4"
       inkscape:label="length_knob" />
    <circle
       style="display:inline;fill:#ff0000;fill-opacity:1;fill-rule:evenodd;stroke:none;stroke-width:1;stroke-linecap:butt;stroke-linejoin:miter;stroke-miterlimit:4;stroke-dasharray:none;stroke-dashoffset:0;stroke-opacity:1;paint-order:normal"
       id="path4954-3-0-2-9-0-9-5"
       cx="8.5746412"
       cy="56.27916"
       r="4"
       inkscape:label="count_knob" />
    <circle
       style="display:inline;fill:#ff0000;fill-opacity:1;fill-rule:evenodd;stroke:none;stroke-width:1;stroke-linecap:butt;stroke-linejoin:miter;stroke-miterlimit:4;stroke-dasharray:none;stroke-dashoffset:0;stroke-opacity:1;paint-order:normal"
       id="path4954-3-0-2-9-0-9-57"
       cx="21.590181"
       cy="56.27916"
       r="4"
       inkscape:label="style_knob" />
    <circle
       style="display:inline;vector-effect:none;fill:#ff0000;fill-opacity:1;fill-rule:evenodd;stroke:none;stroke-width:1;stroke-linecap:butt;stroke-linejoin:miter;stroke-miterlimit:4;stroke-dasharray:none;stroke-dashoffset:0;stroke-opacity:1;paint-order:normal"
       id="path4954-3-0-2-9-0-1-8"
       cx="15.24"
       cy="40.188"
       r="4"
       inkscape:label="length_attn" />
  </g>
</svg>
