<?xml version="1.0" encoding="UTF-8" standalone="no"?>
<svg
   width="30.48mm"
   height="128.5mm"
   viewBox="0 0 30.480002 128.50002"
   version="1.1"
   id="svg8"
   inkscape:version="1.2.1 (9c6d41e410, 2022-07-14)"
   sodipodi:docname="Fuse-dark.svg"
   xmlns:inkscape="http://www.inkscape.org/namespaces/inkscape"
   xmlns:sodipodi="http://sodipodi.sourceforge.net/DTD/sodipodi-0.dtd"
   xmlns="http://www.w3.org/2000/svg"
   xmlns:svg="http://www.w3.org/2000/svg"
   xmlns:rdf="http://www.w3.org/1999/02/22-rdf-syntax-ns#"
   xmlns:cc="http://creativecommons.org/ns#"
   xmlns:dc="http://purl.org/dc/elements/1.1/">
  <defs
     id="defs2" />
  <sodipodi:namedview
     id="base"
     pagecolor="#ffffff"
     bordercolor="#666666"
     borderopacity="1.0"
     inkscape:pageopacity="0.0"
     inkscape:pageshadow="2"
     inkscape:zoom="2.0000002"
     inkscape:cx="57.249994"
     inkscape:cy="132.24999"
     inkscape:document-units="mm"
     inkscape:current-layer="g1684"
     showgrid="false"
     units="mm"
     inkscape:snap-bbox="true"
     inkscape:snap-page="true"
     inkscape:bbox-nodes="false"
     inkscape:snap-bbox-edge-midpoints="false"
     inkscape:window-width="781"
     inkscape:window-height="838"
     inkscape:window-x="41"
     inkscape:window-y="25"
     inkscape:window-maximized="0"
     inkscape:snap-bbox-midpoints="true"
     inkscape:snap-nodes="false"
     inkscape:document-rotation="0"
     inkscape:showpageshadow="2"
     inkscape:pagecheckerboard="0"
     inkscape:deskcolor="#d1d1d1" />
  <metadata
     id="metadata5">
    <rdf:RDF>
      <cc:Work
         rdf:about="">
        <dc:format>image/svg+xml</dc:format>
        <dc:type
           rdf:resource="http://purl.org/dc/dcmitype/StillImage" />
        <dc:title />
      </cc:Work>
    </rdf:RDF>
  </metadata>
  <g
     inkscape:label="Background"
     inkscape:groupmode="layer"
     id="layer1"
     transform="translate(0,-168.49998)"
     style="display:inline">
    <rect
       style="display:inline;opacity:1;vector-effect:none;fill:#201e1e;fill-opacity:1;fill-rule:evenodd;stroke:none;stroke-width:0.649358;stroke-linecap:butt;stroke-linejoin:miter;stroke-miterlimit:4;stroke-dasharray:none;stroke-dashoffset:0;stroke-opacity:1;paint-order:normal"
       id="rect420"
       width="30.48"
       height="128.5"
       x="5.9211732e-17"
       y="168.49997" />
    <g
       aria-label="!"
       transform="matrix(1.1167128,-0.15549235,0.12836675,1.3252781,-2.30373,165.39159)"
       id="text912"
       style="font-style:normal;font-weight:normal;font-size:127.426px;line-height:1.25;font-family:sans-serif;display:inline;fill:#99ffa4;fill-opacity:0.28531075;stroke:none;stroke-width:3.18552;stroke-miterlimit:4;stroke-dasharray:none">
      <path
         d="M 17.007808,5.7176488 15.390095,72.852735 H 4.8127414 L 3.070589,5.7176488 Z M 16.385611,98.362823 H 3.6927863 V 85.234461 H 16.385611 Z"
         style="fill:#99ffa4;fill-opacity:0.28531075;stroke-width:3.18552;stroke-miterlimit:4;stroke-dasharray:none"
         id="path1767" />
    </g>
  </g>
  <g
     inkscape:label="Layer 1"
     inkscape:groupmode="layer"
     id="g1684"
     transform="translate(0,-168.49998)"
     style="display:inline;opacity:1">
    <g
       aria-label="STYLE"
       id="text929"
       style="font-size:3.88056px;line-height:1.25;font-family:sans-serif;word-spacing:0px;stroke-width:0.264583;fill:#ededed;fill-opacity:1;stroke:none"
       transform="translate(0,-16.000046)">
      <path
         d="m 4.4112765,223.38949 q 0,0.16484 -0.077687,0.3259 -0.075792,0.16106 -0.2141129,0.27285 -0.1515844,0.12127 -0.3543285,0.18949 -0.2008493,0.0682 -0.48507,0.0682 -0.3050635,0 -0.5494933,-0.0568 -0.242535,-0.0568 -0.494544,-0.16863 v -0.46992 h 0.026527 q 0.2141129,0.17812 0.494544,0.27475 0.2804311,0.0966 0.5267557,0.0966 0.348644,0 0.5419141,-0.13074 0.1951649,-0.13075 0.1951649,-0.34865 0,-0.18758 -0.092846,-0.27664 -0.090951,-0.0891 -0.2785362,-0.13832 -0.1421104,-0.0379 -0.3088532,-0.0625 -0.164848,-0.0246 -0.3505389,-0.0625 -0.3751713,-0.0796 -0.5570725,-0.27096 -0.1800065,-0.19327 -0.1800065,-0.50212 0,-0.35433 0.2993792,-0.57981 0.2993791,-0.22738 0.7598166,-0.22738 0.2974844,0 0.5457038,0.0568 0.2482194,0.0568 0.4395946,0.14021 v 0.44339 H 4.271061 q -0.1610584,-0.13643 -0.4244363,-0.22548 -0.261483,-0.091 -0.5362297,-0.091 -0.3012739,0 -0.48507,0.12505 -0.1819012,0.12506 -0.1819012,0.32212 0,0.17622 0.090951,0.27664 0.090951,0.10043 0.320222,0.15348 0.1212675,0.0265 0.3448544,0.0644 0.223587,0.0379 0.378961,0.0777 0.3145375,0.0834 0.4737011,0.25201 0.1591636,0.16864 0.1591636,0.47181 z"
         style="font-size:3.88056px;stroke-width:0.264583;fill:#ededed;fill-opacity:1;stroke:none"
         id="path935" />
      <path
         d="m 7.0261068,221.7069 h -1.008036 v 2.48788 H 5.6428994 v -2.48788 h -1.008036 v -0.33349 h 2.3912434 z"
         style="font-size:3.88056px;stroke-width:0.264583;fill:#ededed;fill-opacity:1;stroke:none"
         id="path937" />
      <path
         d="m 9.4021921,221.37341 -0.9928776,1.58406 v 1.23731 H 8.0341431 v -1.19752 l -0.9966672,-1.62385 h 0.4149622 l 0.7711855,1.26194 0.7787647,-1.26194 z"
         style="font-size:3.88056px;stroke-width:0.264583;fill:#ededed;fill-opacity:1;stroke:none"
         id="path939" />
      <path
         d="M 11.577428,224.19478 H 9.7925216 v -2.82137 h 0.3751714 v 2.48788 h 1.409735 z"
         style="font-size:3.88056px;stroke-width:0.264583;fill:#ededed;fill-opacity:1;stroke:none"
         id="path941" />
      <path
         d="m 13.811402,224.19478 h -1.858803 v -2.82137 h 1.858803 v 0.33349 H 12.32777 v 0.77308 h 1.483632 v 0.33349 H 12.32777 v 1.04782 h 1.483632 z"
         style="font-size:3.88056px;stroke-width:0.264583;fill:#ededed;fill-opacity:1;stroke:none"
         id="path943" />
    </g>
    <g
       aria-label="Fuse"
       id="g1618"
       style="font-style:normal;font-variant:normal;font-weight:normal;font-stretch:normal;font-size:10.5833px;line-height:1.25;font-family:'Microsoft Tai Le';-inkscape-font-specification:'Microsoft Tai Le';fill:#f9f9f9;fill-opacity:1;stroke:none;stroke-width:0.264583;stroke-opacity:1"
       transform="translate(-0.16851688,-0.48764)">
      <path
         d="m 9.2771276,175.7731 h -2.893871 v 2.56314 h 2.6768307 v 0.78031 H 6.3832566 v 3.28144 H 5.5150953 v -7.41037 h 3.7620323 z"
         style="font-style:normal;font-variant:normal;font-weight:normal;font-stretch:normal;font-family:'Microsoft Tai Le';-inkscape-font-specification:'Microsoft Tai Le';stroke-width:0.264583;fill:#f9f9f9;fill-opacity:1;stroke:none;stroke-opacity:1"
         id="path1610" />
      <path
         d="m 14.847829,182.39799 h -0.84749 v -0.83715 h -0.02067 q -0.527098,0.96118 -1.63297,0.96118 -1.891351,0 -1.891351,-2.25309 v -3.16258 h 0.842323 v 3.02822 q 0,1.67432 1.281571,1.67432 0.620115,0 1.018023,-0.45476 0.403075,-0.45991 0.403075,-1.19889 v -3.04889 h 0.84749 z"
         style="font-style:normal;font-variant:normal;font-weight:normal;font-stretch:normal;font-family:'Microsoft Tai Le';-inkscape-font-specification:'Microsoft Tai Le';stroke-width:0.264583;fill:#f9f9f9;fill-opacity:1;stroke:none;stroke-opacity:1"
         id="path1612" />
      <path
         d="m 16.237921,182.20679 v -0.9095 q 0.692462,0.5116 1.52445,0.5116 1.116207,0 1.116207,-0.74414 0,-0.21188 -0.09819,-0.35657 -0.09302,-0.14986 -0.258381,-0.26355 -0.160197,-0.11369 -0.382405,-0.20154 -0.21704,-0.093 -0.470254,-0.1912 -0.351398,-0.13952 -0.620115,-0.27905 -0.263549,-0.14469 -0.444416,-0.32039 -0.175699,-0.18087 -0.268716,-0.40824 -0.08785,-0.22738 -0.08785,-0.53227 0,-0.37207 0.170532,-0.65629 0.170531,-0.28939 0.454751,-0.48059 0.284219,-0.19637 0.645953,-0.29455 0.366902,-0.0982 0.754474,-0.0982 0.687294,0 1.229895,0.23771 v 0.85783 q -0.583942,-0.38241 -1.343583,-0.38241 -0.237711,0 -0.428913,0.0568 -0.191202,0.0517 -0.330728,0.14986 -0.134358,0.0982 -0.211873,0.23771 -0.07235,0.13436 -0.07235,0.29972 0,0.20671 0.07235,0.34623 0.07752,0.13953 0.222208,0.24805 0.144694,0.10852 0.351399,0.19637 0.206705,0.0879 0.470254,0.1912 0.351398,0.13436 0.63045,0.27905 0.279052,0.13953 0.475422,0.3204 0.19637,0.1757 0.299722,0.40824 0.10852,0.23254 0.10852,0.55294 0,0.39273 -0.175699,0.68212 -0.170532,0.28939 -0.459919,0.48059 -0.289387,0.1912 -0.666624,0.28422 -0.377236,0.093 -0.790646,0.093 -0.816485,0 -1.41593,-0.31523 z"
         style="font-style:normal;font-variant:normal;font-weight:normal;font-stretch:normal;font-family:'Microsoft Tai Le';-inkscape-font-specification:'Microsoft Tai Le';stroke-width:0.264583;fill:#f9f9f9;fill-opacity:1;stroke:none;stroke-opacity:1"
         id="path1614" />
      <path
         d="m 25.301938,179.96404 h -3.736194 q 0.02067,0.88367 0.475421,1.36426 0.454751,0.48059 1.250566,0.48059 0.893999,0 1.643305,-0.58911 v 0.79581 q -0.697629,0.50643 -1.844842,0.50643 -1.121375,0 -1.762161,-0.7183 -0.640786,-0.72347 -0.640786,-2.03088 0,-1.23506 0.69763,-2.01021 0.702797,-0.78031 1.74149,-0.78031 1.038693,0 1.607132,0.67179 0.568439,0.6718 0.568439,1.86552 z m -0.868161,-0.7183 q -0.0052,-0.7338 -0.356567,-1.14204 -0.346231,-0.40825 -0.966346,-0.40825 -0.599445,0 -1.018022,0.42892 -0.418578,0.42891 -0.516763,1.12137 z"
         style="font-style:normal;font-variant:normal;font-weight:normal;font-stretch:normal;font-family:'Microsoft Tai Le';-inkscape-font-specification:'Microsoft Tai Le';stroke-width:0.264583;fill:#f9f9f9;fill-opacity:1;stroke:none;stroke-opacity:1"
         id="path1616" />
    </g>
    <g
       aria-label="RESET"
       id="text924-7"
       style="font-style:normal;font-weight:normal;font-size:6.35px;line-height:1.25;font-family:sans-serif;display:inline;fill:#ededed;fill-opacity:1;stroke:none;stroke-width:0.264583"
       transform="matrix(0.86174079,0,0,0.86174079,2.1070701,75.260191)">
      <path
         d="M 9.0202249,211.21129 H 8.2233743 L 6.6792825,209.37574 H 5.8142191 v 1.83555 h -0.613916 v -4.61677 h 1.2929443 q 0.4185791,0 0.6976318,0.0558 0.2790527,0.0527 0.5022949,0.19223 0.2511475,0.15813 0.3906738,0.39998 0.142627,0.23874 0.142627,0.60771 0,0.4992 -0.2511475,0.83716 -0.2511474,0.33486 -0.6914306,0.5054 z m -1.4355713,-3.31763 q 0,-0.19844 -0.071314,-0.35036 -0.068213,-0.15503 -0.2294433,-0.26045 -0.1333252,-0.0899 -0.3162598,-0.12403 -0.1829345,-0.0372 -0.4309814,-0.0372 h -0.722436 v 1.74252 h 0.6201172 q 0.291455,0 0.508496,-0.0496 0.2170411,-0.0527 0.3689698,-0.19224 0.1395263,-0.13023 0.2046386,-0.29766 0.068213,-0.17053 0.068213,-0.43098 z"
         style="font-size:6.35px;stroke-width:0.264583;fill:#ededed;fill-opacity:1"
         id="path927-5" />
      <path
         d="M 12.657212,211.21129 H 9.6155372 v -4.61677 h 3.0416748 v 0.5457 h -2.427759 v 1.26504 h 2.427759 v 0.5457 h -2.427759 v 1.71463 h 2.427759 z"
         style="font-size:6.35px;stroke-width:0.264583;fill:#ededed;fill-opacity:1"
         id="path929-4" />
      <path
         d="m 16.985629,209.89354 q 0,0.26975 -0.127124,0.5333 -0.124023,0.26355 -0.350366,0.44648 -0.248047,0.19844 -0.579809,0.31006 -0.328662,0.11162 -0.79375,0.11162 -0.499195,0 -0.89917,-0.093 -0.396875,-0.093 -0.809253,-0.27596 v -0.76894 h 0.04341 q 0.350366,0.29145 0.809253,0.44958 0.458887,0.15813 0.861963,0.15813 0.570508,0 0.886767,-0.21394 0.319361,-0.21394 0.319361,-0.5705 0,-0.30696 -0.151929,-0.45269 -0.148828,-0.14573 -0.455786,-0.22634 -0.232544,-0.062 -0.505396,-0.10232 -0.269751,-0.0403 -0.573608,-0.10232 -0.613916,-0.13023 -0.911572,-0.44338 -0.294556,-0.31626 -0.294556,-0.82166 0,-0.57981 0.489893,-0.94878 0.489892,-0.37207 1.243335,-0.37207 0.486792,0 0.892968,0.093 0.406177,0.093 0.719336,0.22944 v 0.72554 h -0.04341 q -0.26355,-0.22324 -0.694531,-0.36897 -0.427881,-0.14883 -0.877466,-0.14883 -0.492993,0 -0.79375,0.20464 -0.297656,0.20464 -0.297656,0.5271 0,0.28835 0.148828,0.45268 0.148828,0.16434 0.523999,0.25115 0.198437,0.0434 0.564307,0.10542 0.365869,0.062 0.620117,0.12713 0.514697,0.13642 0.775146,0.41237 0.260449,0.27596 0.260449,0.77205 z"
         style="font-size:6.35px;stroke-width:0.264583;fill:#ededed;fill-opacity:1"
         id="path931-3" />
      <path
         d="m 21.013291,211.21129 h -3.041675 v -4.61677 h 3.041675 v 0.5457 h -2.427759 v 1.26504 h 2.427759 v 0.5457 h -2.427759 v 1.71463 h 2.427759 z"
         style="font-size:6.35px;stroke-width:0.264583;fill:#ededed;fill-opacity:1"
         id="path933-2" />
      <path
         d="m 25.279697,207.14022 h -1.649512 v 4.07107 h -0.613916 v -4.07107 h -1.649512 v -0.5457 h 3.91294 z"
         style="font-size:6.35px;stroke-width:0.264583;fill:#ededed;fill-opacity:1"
         id="path935-6" />
    </g>
    <g
       aria-label="TRIGGER"
       id="text1674"
       style="font-size:4.93889px;line-height:1.25;font-family:sans-serif;word-spacing:0px;stroke-width:0.264583;fill:#ededed;fill-opacity:1"
       transform="translate(-7.8881837e-8,-22.462176)">
      <path
         d="M 6.8875357,244.14163 H 5.6045819 v 3.16638 H 5.1270915 v -3.16638 H 3.8441377 v -0.42444 h 3.043398 z"
         style="font-size:4.93889px;stroke-width:0.264583;fill:#ededed;fill-opacity:1"
         id="path1676" />
      <path
         d="M 10.3409,247.30801 H 9.7211275 L 8.5201669,245.88037 H 7.8473396 v 1.42764 H 7.3698493 v -3.59082 h 1.0056236 q 0.3255616,0 0.5426026,0.0434 0.2170411,0.041 0.390674,0.14952 0.1953369,0.12299 0.3038574,0.31109 0.1109321,0.18569 0.1109321,0.47266 0,0.38827 -0.1953369,0.65113 -0.195337,0.26045 -0.5377795,0.39308 z m -1.1165554,-2.58037 q 0,-0.15434 -0.055466,-0.27251 -0.053054,-0.12058 -0.1784559,-0.20257 -0.1036974,-0.0699 -0.2459799,-0.0965 -0.1422825,-0.0289 -0.3352079,-0.0289 H 7.8473396 v 1.3553 h 0.4823135 q 0.2266873,0 0.395497,-0.0386 0.1688098,-0.041 0.2869766,-0.14951 0.1085205,-0.10129 0.1591634,-0.23152 0.053055,-0.13263 0.053055,-0.3352 z"
         style="font-size:4.93889px;stroke-width:0.264583;fill:#ededed;fill-opacity:1"
         id="path1678" />
      <path
         d="m 12.069994,247.30801 h -1.418001 v -0.36655 h 0.470255 v -2.85771 h -0.470255 v -0.36656 h 1.418001 v 0.36656 h -0.470255 v 2.85771 h 0.470255 z"
         style="font-size:4.93889px;stroke-width:0.264583;fill:#ededed;fill-opacity:1"
         id="path1680" />
      <path
         d="m 15.877859,247.04274 q -0.294211,0.13505 -0.643889,0.23634 -0.347265,0.0989 -0.672827,0.0989 -0.419613,0 -0.76929,-0.11576 -0.349677,-0.11575 -0.595657,-0.34726 -0.248392,-0.23392 -0.383439,-0.5836 -0.135048,-0.35209 -0.135048,-0.82235 0,-0.86092 0.501606,-1.35771 0.504018,-0.49919 1.381828,-0.49919 0.306269,0 0.624596,0.0748 0.320738,0.0723 0.689708,0.24839 v 0.56672 h -0.04341 q -0.07476,-0.0579 -0.217041,-0.15193 -0.142282,-0.094 -0.279742,-0.15675 -0.166398,-0.0748 -0.378616,-0.12299 -0.209806,-0.0506 -0.47749,-0.0506 -0.602892,0 -0.954981,0.38827 -0.349677,0.38585 -0.349677,1.04662 0,0.69694 0.366558,1.0852 0.366558,0.38585 0.998389,0.38585 0.23151,0 0.460609,-0.0458 0.231511,-0.0458 0.405144,-0.11817 v -0.88022 h -0.962216 v -0.41961 h 1.434883 z"
         style="font-size:4.93889px;stroke-width:0.264583;fill:#ededed;fill-opacity:1"
         id="path1682" />
      <path
         d="m 19.707429,247.04274 q -0.294212,0.13505 -0.643889,0.23634 -0.347266,0.0989 -0.672827,0.0989 -0.419613,0 -0.76929,-0.11576 -0.349677,-0.11575 -0.595657,-0.34726 -0.248392,-0.23392 -0.383439,-0.5836 -0.135048,-0.35209 -0.135048,-0.82235 0,-0.86092 0.501606,-1.35771 0.504017,-0.49919 1.381828,-0.49919 0.306269,0 0.624596,0.0748 0.320738,0.0723 0.689708,0.24839 v 0.56672 h -0.04341 q -0.07476,-0.0579 -0.217041,-0.15193 -0.142283,-0.094 -0.279742,-0.15675 -0.166398,-0.0748 -0.378616,-0.12299 -0.209806,-0.0506 -0.47749,-0.0506 -0.602892,0 -0.954981,0.38827 -0.349677,0.38585 -0.349677,1.04662 0,0.69694 0.366558,1.0852 0.366558,0.38585 0.998389,0.38585 0.23151,0 0.460609,-0.0458 0.231511,-0.0458 0.405143,-0.11817 v -0.88022 h -0.962215 v -0.41961 h 1.434883 z"
         style="font-size:4.93889px;stroke-width:0.264583;fill:#ededed;fill-opacity:1"
         id="path1684" />
      <path
         d="m 22.907578,247.30801 h -2.365747 v -3.59082 h 2.365747 v 0.42444 h -1.888257 v 0.98392 h 1.888257 v 0.42443 h -1.888257 v 1.3336 h 1.888257 z"
         style="font-size:4.93889px;stroke-width:0.264583;fill:#ededed;fill-opacity:1"
         id="path1686" />
      <path
         d="m 26.635862,247.30801 h -0.619773 l -1.20096,-1.42764 h -0.672828 v 1.42764 h -0.47749 v -3.59082 h 1.005624 q 0.325561,0 0.542602,0.0434 0.217041,0.041 0.390674,0.14952 0.195337,0.12299 0.303858,0.31109 0.110932,0.18569 0.110932,0.47266 0,0.38827 -0.195337,0.65113 -0.195337,0.26045 -0.53778,0.39308 z m -1.116556,-2.58037 q 0,-0.15434 -0.05547,-0.27251 -0.05305,-0.12058 -0.178456,-0.20257 -0.103697,-0.0699 -0.24598,-0.0965 -0.142282,-0.0289 -0.335207,-0.0289 h -0.561896 v 1.3553 h 0.482314 q 0.226687,0 0.395497,-0.0386 0.16881,-0.041 0.286976,-0.14951 0.108521,-0.10129 0.159164,-0.23152 0.05305,-0.13263 0.05305,-0.3352 z"
         style="font-size:4.93889px;stroke-width:0.264583;fill:#ededed;fill-opacity:1"
         id="path1688" />
    </g>
    <rect
       style="display:inline;fill:#ededed;fill-opacity:1;stroke-width:0.244442"
       id="rect652"
       width="16.036171"
       height="10.721942"
       x="12.953075"
       y="275.13901"
       ry="4.2203341" />
    <g
       aria-label="IN"
       id="text922"
       style="font-size:4.93889px;line-height:1.25;font-family:sans-serif;word-spacing:0px;display:inline;stroke-width:0.264583;fill:#ededed;fill-opacity:1"
       transform="translate(0,0.17124981)">
      <path
         d="M 6.956603,290.6438 H 5.5386014 v -0.36656 H 6.008857 v -2.85771 H 5.5386014 v -0.36655 H 6.956603 v 0.36655 H 6.4863474 v 2.85771 H 6.956603 Z"
         style="font-size:4.93889px;stroke-width:0.264583;fill:#ededed;fill-opacity:1"
         id="path928" />
      <path
         d="M 10.508842,290.6438 H 9.9180078 l -1.7025666,-3.21221 v 3.21221 H 7.7693013 v -3.59082 h 0.7403511 l 1.5530496,2.93246 v -2.93246 h 0.44614 z"
         style="font-size:4.93889px;stroke-width:0.264583;fill:#ededed;fill-opacity:1"
         id="path930" />
    </g>
    <g
       aria-label="OUT"
       id="text926"
       style="font-size:4.93889px;line-height:1.25;font-family:sans-serif;word-spacing:0px;display:inline;stroke-width:0.264583;fill:#ededed;fill-opacity:1"
       transform="translate(-0.94494111,0.17124981)">
      <path
         d="m 19.663698,287.5201 q 0.219453,0.24116 0.335208,0.59084 0.118167,0.34967 0.118167,0.7934 0,0.44373 -0.120578,0.79582 -0.118167,0.34968 -0.332797,0.5836 -0.221864,0.24357 -0.525721,0.36656 -0.301446,0.12299 -0.689708,0.12299 -0.378617,0 -0.689709,-0.12541 -0.30868,-0.1254 -0.525721,-0.36414 -0.217042,-0.23875 -0.335208,-0.58601 -0.115756,-0.34727 -0.115756,-0.79341 0,-0.4389 0.115756,-0.78617 0.115755,-0.34968 0.337619,-0.59807 0.212218,-0.23633 0.525722,-0.36173 0.315915,-0.12541 0.687297,-0.12541 0.38585,0 0.692119,0.12782 0.308681,0.1254 0.52331,0.35932 z m -0.04341,1.38424 q 0,-0.69935 -0.313504,-1.07797 -0.313503,-0.38103 -0.856106,-0.38103 -0.547426,0 -0.860929,0.38103 -0.311093,0.37862 -0.311093,1.07797 0,0.70659 0.318327,1.08279 0.318327,0.3738 0.853695,0.3738 0.535368,0 0.851283,-0.3738 0.318327,-0.3762 0.318327,-1.08279 z"
         style="font-size:4.93889px;stroke-width:0.264583;fill:#ededed;fill-opacity:1"
         id="path934" />
      <path
         d="m 23.577672,289.25643 q 0,0.39067 -0.08682,0.68247 -0.08441,0.28939 -0.279742,0.48232 -0.185691,0.18328 -0.434082,0.26768 -0.248391,0.0844 -0.578776,0.0844 -0.33762,0 -0.588423,-0.0892 -0.250803,-0.0892 -0.422024,-0.26286 -0.195337,-0.19775 -0.282153,-0.47749 -0.08441,-0.27975 -0.08441,-0.6873 v -2.14871 h 0.47749 v 2.17283 q 0,0.2918 0.03859,0.46061 0.041,0.1688 0.135048,0.30626 0.106109,0.15676 0.286977,0.23634 0.183279,0.0796 0.438905,0.0796 0.258038,0 0.438905,-0.0772 0.180868,-0.0796 0.289388,-0.23875 0.09405,-0.13746 0.132636,-0.3135 0.041,-0.17846 0.041,-0.44132 v -2.18488 h 0.47749 z"
         style="font-size:4.93889px;stroke-width:0.264583;fill:#ededed;fill-opacity:1"
         id="path936" />
      <path
         d="m 27.050329,287.53216 h -1.282954 v 3.16639 h -0.47749 v -3.16639 h -1.282954 v -0.42444 h 3.043398 z"
         style="font-size:4.93889px;stroke-width:0.264583;fill:#ededed;fill-opacity:1"
         id="path938" />
    </g>
    <rect
       style="display:inline;opacity:1;fill:#ededed;fill-opacity:1;stroke-width:0.244442"
       id="rect652-0"
       width="16.036171"
       height="10.721942"
       x="12.953075"
       y="259.13901"
       ry="4.2203341" />
    <g
       aria-label="-"
       id="text1760-3"
       style="font-size:10.5833px;line-height:1.25;font-family:sans-serif;word-spacing:0px;display:inline;stroke-width:0.264583;fill:#ededed;fill-opacity:1"
       transform="translate(64.387058,208.58841)">
      <path
         d="m -48.334459,40.379236 h -3.224599 v -0.935341 h 3.224599 z"
         style="stroke-width:0.264583;fill:#ededed;fill-opacity:1"
         id="path1762-7" />
    </g>
    <g
       aria-label="-"
       id="text1760-3-2"
       style="font-size:10.5833px;line-height:1.25;font-family:sans-serif;word-spacing:0px;display:inline;opacity:1;fill:#ededed;fill-opacity:1;stroke-width:0.264583"
       transform="translate(64.387058,176.58836)">
      <path
         d="m -48.334459,40.379236 h -3.224599 v -0.935341 h 3.224599 z"
         style="fill:#ededed;fill-opacity:1;stroke-width:0.264583"
         id="path1762-7-2" />
    </g>
    <g
       aria-label="-"
       id="text1760-3-2-8"
       style="font-size:10.5833px;line-height:1.25;font-family:sans-serif;word-spacing:0px;display:inline;fill:#f3fff5;fill-opacity:1;stroke-width:0.264583"
       transform="translate(64.387058,192.58808)">
      <path
         d="m -48.334459,40.379236 h -3.224599 v -0.935341 h 3.224599 z"
         style="fill:#f3fff5;fill-opacity:1;stroke-width:0.264583"
         id="path1762-7-2-2" />
    </g>
    <path
       style="display:inline;fill:#ededed;fill-opacity:1;stroke:#ededed;stroke-width:0.0949555;stroke-miterlimit:4;stroke-dasharray:none;stroke-opacity:1"
       id="path923"
       sodipodi:type="arc"
       sodipodi:cx="6.5240011"
       sodipodi:cy="194.87401"
       sodipodi:rx="0.45252839"
       sodipodi:ry="0.45253617"
       sodipodi:start="0.36229666"
       sodipodi:end="0.35175191"
       sodipodi:arc-type="slice"
       d="m 6.9471538,195.0344 a 0.45252839,0.45253617 0 0 1 -0.582423,0.26319 0.45252839,0.45253617 0 0 1 -0.2647221,-0.58174 0.45252839,0.45253617 0 0 1 0.5810273,-0.26626 0.45252839,0.45253617 0 0 1 0.2677854,0.58034 l -0.4248203,-0.15592 z" />
    <path
       style="display:inline;fill:#ededed;fill-opacity:1;stroke:#ededed;stroke-width:0.0949555;stroke-miterlimit:4;stroke-dasharray:none;stroke-opacity:1"
       id="path923-3"
       sodipodi:type="arc"
       sodipodi:cx="12.166001"
       sodipodi:cy="196.90919"
       sodipodi:rx="0.45252839"
       sodipodi:ry="0.45253617"
       sodipodi:start="0.36229666"
       sodipodi:end="0.35175191"
       sodipodi:arc-type="slice"
       d="m 12.589154,197.06958 a 0.45252839,0.45253617 0 0 1 -0.582423,0.2632 0.45252839,0.45253617 0 0 1 -0.264722,-0.58174 0.45252839,0.45253617 0 0 1 0.581027,-0.26626 0.45252839,0.45253617 0 0 1 0.267786,0.58033 l -0.424821,-0.15592 z" />
    <path
       style="display:inline;fill:#ededed;fill-opacity:1;stroke:#ededed;stroke-width:0.0949555;stroke-miterlimit:4;stroke-dasharray:none;stroke-opacity:1"
       id="path923-3-2"
       sodipodi:type="arc"
       sodipodi:cx="3.8820012"
       sodipodi:cy="196.90919"
       sodipodi:rx="0.45252839"
       sodipodi:ry="0.45253617"
       sodipodi:start="0.36229666"
       sodipodi:end="0.35175191"
       sodipodi:arc-type="slice"
       d="m 4.3051538,197.06958 a 0.45252839,0.45253617 0 0 1 -0.5824229,0.2632 0.45252839,0.45253617 0 0 1 -0.2647221,-0.58174 0.45252839,0.45253617 0 0 1 0.5810272,-0.26626 0.45252839,0.45253617 0 0 1 0.2677855,0.58033 l -0.4248203,-0.15592 z" />
    <path
       style="display:inline;opacity:1;fill:#ededed;fill-opacity:1;stroke:#ededed;stroke-width:0.0949555;stroke-miterlimit:4;stroke-dasharray:none;stroke-opacity:1"
       id="path923-6"
       sodipodi:type="arc"
       sodipodi:cx="9.5240011"
       sodipodi:cy="194.87401"
       sodipodi:rx="0.45252839"
       sodipodi:ry="0.45253617"
       sodipodi:start="0.36229666"
       sodipodi:end="0.35175191"
       sodipodi:arc-type="slice"
       d="m 9.9471538,195.0344 a 0.45252839,0.45253617 0 0 1 -0.582423,0.26319 0.45252839,0.45253617 0 0 1 -0.2647221,-0.58174 0.45252839,0.45253617 0 0 1 0.5810273,-0.26626 0.45252839,0.45253617 0 0 1 0.2677854,0.58034 l -0.4248203,-0.15592 z" />
    <rect
       style="fill:#000000;fill-opacity:1;stroke:#000000;stroke-width:0.971354;stroke-linejoin:miter;stroke-miterlimit:4;stroke-dasharray:none"
       id="rect899"
       width="27.028631"
       height="3.028646"
       x="1.7256824"
       y="186.48566" />
    <g
       aria-label="LIMIT"
       id="text933"
       style="font-size:3.88056px;line-height:1.25;font-family:sans-serif;word-spacing:0px;fill:#ededed;fill-opacity:1;stroke-width:0.264583"
       transform="translate(0,-16.000046)">
      <path
         d="m 17.401349,224.19478 h -1.784906 v -2.82137 h 0.375171 v 2.48788 h 1.409735 z"
         style="font-size:3.88056px;fill:#ededed;fill-opacity:1;stroke-width:0.264583"
         id="path946" />
      <path
         d="m 18.771293,224.19478 h -1.114145 v -0.28801 h 0.369487 v -2.24535 h -0.369487 v -0.28801 h 1.114145 v 0.28801 h -0.369487 v 2.24535 h 0.369487 z"
         style="font-size:3.88056px;fill:#ededed;fill-opacity:1;stroke-width:0.264583"
         id="path948" />
      <path
         d="m 21.922353,224.19478 h -0.375171 v -2.43104 l -0.78445,1.65417 h -0.223587 l -0.778764,-1.65417 v 2.43104 h -0.350539 v -2.82137 h 0.511597 l 0.752238,1.5708 0.727605,-1.5708 h 0.521071 z"
         style="font-size:3.88056px;fill:#ededed;fill-opacity:1;stroke-width:0.264583"
         id="path950" />
      <path
         d="m 23.675047,224.19478 h -1.114145 v -0.28801 h 0.369487 v -2.24535 h -0.369487 v -0.28801 h 1.114145 v 0.28801 H 23.30556 v 2.24535 h 0.369487 z"
         style="font-size:3.88056px;fill:#ededed;fill-opacity:1;stroke-width:0.264583"
         id="path952" />
      <path
         d="m 26.325879,221.7069 h -1.008036 v 2.48788 h -0.375172 v -2.48788 h -1.008036 v -0.33349 h 2.391244 z"
         style="font-size:3.88056px;fill:#ededed;fill-opacity:1;stroke-width:0.264583"
         id="path954" />
    </g>
    <g
       aria-label="BLOWN"
       id="text1002"
       style="font-size:3.52778px;line-height:1.25;font-family:sans-serif;word-spacing:0px;display:inline;fill:#ededed;fill-opacity:1;stroke-width:0.264583"
       transform="translate(0,168.49998)">
      <path
         d="m 16.620863,103.99419 q 0,0.1912 -0.07235,0.33762 -0.07235,0.14642 -0.194648,0.24116 -0.144694,0.11369 -0.318671,0.16192 -0.172255,0.0482 -0.43925,0.0482 h -0.909506 v -2.56488 h 0.759644 q 0.280776,0 0.420302,0.0207 0.139527,0.0207 0.266995,0.0861 0.141249,0.0741 0.204983,0.1912 0.06374,0.11542 0.06374,0.27734 0,0.18259 -0.09302,0.31178 -0.09302,0.12747 -0.248047,0.20498 v 0.0138 q 0.260105,0.0534 0.409967,0.2291 0.149861,0.17398 0.149861,0.44097 z m -0.573608,-1.15583 q 0,-0.093 -0.03101,-0.15675 -0.03101,-0.0637 -0.09991,-0.10335 -0.08096,-0.0465 -0.196371,-0.0568 -0.11541,-0.0121 -0.285943,-0.0121 H 15.0275 v 0.7407 h 0.440972 q 0.160197,0 0.254938,-0.0155 0.09474,-0.0172 0.1757,-0.0689 0.08096,-0.0517 0.113688,-0.13264 0.03445,-0.0827 0.03445,-0.19465 z m 0.218763,1.16961 q 0,-0.15503 -0.04651,-0.24632 -0.04651,-0.0913 -0.16881,-0.15503 -0.08268,-0.0431 -0.201538,-0.0551 -0.117134,-0.0138 -0.285944,-0.0138 h -0.535712 v 0.95429 h 0.451308 q 0.223931,0 0.366902,-0.0224 0.142972,-0.0241 0.234267,-0.0861 0.09646,-0.0672 0.141249,-0.15331 0.04479,-0.0861 0.04479,-0.22221 z"
         style="font-size:3.52778px;fill:#ededed;fill-opacity:1;stroke-width:0.264583"
         id="path1004" />
      <path
         d="M 18.727541,104.78312 H 17.1049 v -2.56488 h 0.341064 v 2.26171 h 1.281577 z"
         style="font-size:3.52778px;fill:#ededed;fill-opacity:1;stroke-width:0.264583"
         id="path1006" />
      <path
         d="m 20.946184,102.5128 q 0.156752,0.17225 0.239434,0.42202 0.0844,0.24977 0.0844,0.56672 0,0.31695 -0.08613,0.56844 -0.08441,0.24977 -0.237712,0.41686 -0.158475,0.17398 -0.375516,0.26183 -0.215318,0.0878 -0.492649,0.0878 -0.27044,0 -0.492649,-0.0896 -0.220486,-0.0896 -0.375515,-0.26011 -0.15503,-0.17053 -0.239435,-0.41858 -0.08268,-0.24805 -0.08268,-0.56672 0,-0.3135 0.08268,-0.56155 0.08268,-0.24977 0.241157,-0.42719 0.151584,-0.16881 0.375516,-0.25838 0.225654,-0.0896 0.490926,-0.0896 0.275608,0 0.494372,0.0913 0.220486,0.0896 0.373793,0.25666 z m -0.03101,0.98874 q 0,-0.49954 -0.223931,-0.76998 -0.223932,-0.27216 -0.611505,-0.27216 -0.391019,0 -0.61495,0.27216 -0.222209,0.27044 -0.222209,0.76998 0,0.50471 0.227376,0.77343 0.227377,0.26699 0.609783,0.26699 0.382406,0 0.608059,-0.26699 0.227377,-0.26872 0.227377,-0.77343 z"
         style="font-size:3.52778px;fill:#ededed;fill-opacity:1;stroke-width:0.264583"
         id="path1008" />
      <path
         d="m 24.79608,102.21824 -0.666626,2.56488 h -0.384128 l -0.539158,-2.12907 -0.5271,2.12907 h -0.375516 l -0.678684,-2.56488 h 0.349677 l 0.539158,2.13252 0.530545,-2.13252 h 0.346233 l 0.535712,2.15319 0.535713,-2.15319 z"
         style="font-size:3.52778px;fill:#ededed;fill-opacity:1;stroke-width:0.264583"
         id="path1010" />
      <path
         d="m 27.25588,104.78312 h -0.422025 l -1.216119,-2.29444 v 2.29444 h -0.318672 v -2.56488 h 0.528823 l 1.109321,2.09462 v -2.09462 h 0.318672 z"
         style="font-size:3.52778px;fill:#ededed;fill-opacity:1;stroke-width:0.264583"
         id="path1012" />
    </g>
    <g
       aria-label="SLEW"
       id="text998"
       style="font-size:3.52778px;line-height:1.25;font-family:sans-serif;word-spacing:0px;display:inline;fill:#ededed;fill-opacity:1;stroke-width:0.264583"
       transform="translate(0,168.49998)">
      <path
         d="m 5.1487879,104.05104 q 0,0.14986 -0.070625,0.29627 -0.068902,0.14642 -0.1946481,0.24805 -0.1378039,0.11024 -0.3221166,0.17226 -0.1825902,0.062 -0.4409725,0.062 -0.2773304,0 -0.4995392,-0.0517 -0.2204862,-0.0517 -0.4495852,-0.15331 v -0.42719 h 0.024116 q 0.194648,0.16192 0.4495852,0.24977 0.2549372,0.0879 0.4788686,0.0879 0.316949,0 0.492649,-0.11885 0.1774225,-0.11886 0.1774225,-0.31695 0,-0.17054 -0.084405,-0.25149 -0.082682,-0.081 -0.2532147,-0.12575 -0.1291911,-0.0345 -0.2807754,-0.0568 -0.1498618,-0.0224 -0.3186716,-0.0568 -0.3410647,-0.0724 -0.5064293,-0.24632 -0.1636422,-0.1757 -0.1636422,-0.45648 0,-0.32212 0.2721627,-0.5271 0.2721628,-0.2067 0.6907421,-0.2067 0.2704402,0 0.4960941,0.0517 0.2256539,0.0517 0.3996313,0.12747 v 0.40308 h -0.024116 q -0.1464166,-0.12403 -0.3858509,-0.20499 -0.2377117,-0.0827 -0.4874813,-0.0827 -0.2738853,0 -0.4409725,0.11369 -0.1653647,0.11369 -0.1653647,0.29283 0,0.1602 0.082682,0.25149 0.082682,0.0913 0.2911108,0.13953 0.1102431,0.0241 0.3135039,0.0586 0.2032607,0.0344 0.3445097,0.0706 0.2859432,0.0758 0.4306373,0.2291 0.1446941,0.15331 0.1446941,0.42892 z"
         style="font-size:3.52778px;fill:#ededed;fill-opacity:1;stroke-width:0.264583"
         id="path1015" />
      <path
         d="m 7.3191994,104.78312 h -1.622641 v -2.56488 h 0.3410647 v 2.26171 h 1.2815763 z"
         style="font-size:3.52778px;fill:#ededed;fill-opacity:1;stroke-width:0.264583"
         id="path1017" />
      <path
         d="M 9.3500846,104.78312 H 7.6602642 v -2.56488 h 1.6898204 v 0.30317 H 8.0013289 v 0.7028 h 1.3487557 v 0.30317 H 8.0013289 v 0.95257 h 1.3487557 z"
         style="font-size:3.52778px;fill:#ededed;fill-opacity:1;stroke-width:0.264583"
         id="path1019" />
      <path
         d="m 12.876142,102.21824 -0.666627,2.56488 h -0.384128 l -0.539158,-2.12907 -0.5271,2.12907 h -0.375515 l -0.6786846,-2.56488 h 0.3496776 l 0.539158,2.13252 0.530545,-2.13252 h 0.346232 l 0.535713,2.15319 0.535712,-2.15319 z"
         style="font-size:3.52778px;fill:#ededed;fill-opacity:1;stroke-width:0.264583"
         id="path1021" />
    </g>
    <g
       aria-label="UNTRIGGER"
       id="text585"
       style="font-size:4.58611px;line-height:1.25;word-spacing:0px;display:inline;fill:#ededed;fill-opacity:1;stroke-width:0.264583"
       transform="translate(0,168.49998)">
      <path
         d="m 4.0232884,70.745685 q 0,0.362768 -0.080615,0.633725 -0.078376,0.268717 -0.2597602,0.447862 -0.172427,0.170188 -0.4030761,0.248564 -0.2306491,0.07838 -0.5374348,0.07838 -0.3135036,0 -0.546392,-0.08285 Q 1.9631217,71.988503 1.8041306,71.827272 1.6227464,71.643649 1.5421311,71.383889 1.4637552,71.124128 1.4637552,70.745685 v -1.995227 h 0.4433837 v 2.01762 q 0,0.270957 0.035829,0.427708 0.038068,0.156752 0.1254015,0.284393 0.09853,0.145555 0.266478,0.219452 0.1701877,0.0739 0.4075547,0.0739 0.2396064,0 0.4075548,-0.07166 0.1679483,-0.0739 0.2687173,-0.221692 0.087333,-0.127641 0.1231622,-0.291111 0.038068,-0.165709 0.038068,-0.409794 v -2.028816 h 0.4433837 z"
         id="path637"
         style="fill:#ededed;fill-opacity:1" />
      <path
         d="M 7.4136061,72.084793 H 6.8649748 L 5.2840208,69.10203 v 2.982763 H 4.8697482 v -3.334335 h 0.6874686 l 1.4421167,2.723003 v -2.723003 h 0.4142726 z"
         id="path639"
         style="fill:#ededed;fill-opacity:1" />
      <path
         d="M 10.678523,69.144577 H 9.4872087 v 2.940216 H 9.043825 V 69.144577 H 7.8525113 v -0.394119 h 2.8260117 z"
         id="path641"
         style="fill:#ededed;fill-opacity:1" />
      <path
         d="m 13.885217,72.084793 h -0.575503 l -1.115177,-1.325672 h -0.624768 v 1.325672 h -0.443384 v -3.334335 h 0.933793 q 0.302307,0 0.503845,0.04031 0.201538,0.03807 0.362769,0.138837 0.181384,0.114205 0.282153,0.288871 0.103008,0.172427 0.103008,0.438905 0,0.36053 -0.181384,0.604614 -0.181384,0.241846 -0.499366,0.365008 z M 12.848416,69.68873 q 0,-0.143316 -0.0515,-0.253043 -0.04927,-0.111965 -0.165709,-0.188102 -0.09629,-0.06494 -0.22841,-0.08957 -0.13212,-0.02687 -0.311264,-0.02687 h -0.52176 v 1.258493 h 0.447862 q 0.210496,0 0.367247,-0.03583 0.156752,-0.03807 0.266478,-0.138837 0.100769,-0.09405 0.147795,-0.214974 0.04927,-0.123162 0.04927,-0.311264 z"
         id="path643"
         style="fill:#ededed;fill-opacity:1" />
      <path
         d="m 15.490803,72.084793 h -1.316715 v -0.340375 h 0.436665 v -2.653584 h -0.436665 v -0.340376 h 1.316715 v 0.340376 h -0.436666 v 2.653584 h 0.436666 z"
         id="path645"
         style="fill:#ededed;fill-opacity:1" />
      <path
         d="m 19.026676,71.838469 q -0.273196,0.125401 -0.597897,0.219452 -0.322461,0.09181 -0.624768,0.09181 -0.38964,0 -0.71434,-0.107487 -0.3247,-0.107487 -0.55311,-0.322461 -0.230649,-0.217213 -0.35605,-0.541913 -0.125402,-0.32694 -0.125402,-0.763605 0,-0.799435 0.465777,-1.260733 0.468016,-0.463537 1.283125,-0.463537 0.284393,0 0.579982,0.06942 0.297829,0.06718 0.640443,0.230649 v 0.526239 h -0.04031 q -0.06942,-0.05374 -0.201538,-0.141077 -0.13212,-0.08733 -0.259761,-0.145555 -0.154512,-0.06942 -0.351571,-0.114205 -0.194821,-0.04703 -0.443384,-0.04703 -0.559828,0 -0.886768,0.36053 -0.3247,0.358289 -0.3247,0.971861 0,0.647161 0.340376,1.00769 0.340375,0.35829 0.927075,0.35829 0.214974,0 0.427708,-0.04255 0.214974,-0.04255 0.376204,-0.109726 v -0.817349 h -0.893485 v -0.38964 h 1.332391 z"
         id="path647"
         style="fill:#ededed;fill-opacity:1" />
      <path
         d="m 22.582703,71.838469 q -0.273196,0.125401 -0.597896,0.219452 -0.322461,0.09181 -0.624768,0.09181 -0.38964,0 -0.714341,-0.107487 -0.3247,-0.107487 -0.55311,-0.322461 -0.230649,-0.217213 -0.35605,-0.541913 -0.125402,-0.32694 -0.125402,-0.763605 0,-0.799435 0.465777,-1.260733 0.468016,-0.463537 1.283126,-0.463537 0.284392,0 0.579982,0.06942 0.297828,0.06718 0.640443,0.230649 v 0.526239 h -0.04031 q -0.06942,-0.05374 -0.201538,-0.141077 -0.132119,-0.08733 -0.25976,-0.145555 -0.154513,-0.06942 -0.351572,-0.114205 -0.19482,-0.04703 -0.443384,-0.04703 -0.559828,0 -0.886767,0.36053 -0.3247,0.358289 -0.3247,0.971861 0,0.647161 0.340375,1.00769 0.340375,0.35829 0.927075,0.35829 0.214974,0 0.427709,-0.04255 0.214973,-0.04255 0.376204,-0.109726 v -0.817349 h -0.893485 v -0.38964 h 1.33239 z"
         id="path649"
         style="fill:#ededed;fill-opacity:1" />
      <path
         d="m 25.554269,72.084793 h -2.196765 v -3.334335 h 2.196765 v 0.394119 h -1.753381 v 0.913639 h 1.753381 v 0.394119 h -1.753381 v 1.238339 h 1.753381 z"
         id="path651"
         style="fill:#ededed;fill-opacity:1" />
      <path
         d="m 29.016244,72.084793 h -0.575503 l -1.115177,-1.325672 h -0.624768 v 1.325672 h -0.443384 v -3.334335 h 0.933793 q 0.302307,0 0.503846,0.04031 0.201538,0.03807 0.362768,0.138837 0.181384,0.114205 0.282153,0.288871 0.103009,0.172427 0.103009,0.438905 0,0.36053 -0.181385,0.604614 -0.181384,0.241846 -0.499366,0.365008 z M 27.979443,69.68873 q 0,-0.143316 -0.0515,-0.253043 -0.04926,-0.111965 -0.165709,-0.188102 -0.09629,-0.06494 -0.22841,-0.08957 -0.132119,-0.02687 -0.311264,-0.02687 H 26.7008 v 1.258493 h 0.447862 q 0.210496,0 0.367248,-0.03583 0.156751,-0.03807 0.266478,-0.138837 0.100769,-0.09405 0.147794,-0.214974 0.04926,-0.123162 0.04926,-0.311264 z"
         id="path653"
         style="fill:#ededed;fill-opacity:1" />
    </g>
  </g>
  <g
     inkscape:groupmode="layer"
     id="layer2"
     inkscape:label="components"
     style="display:none">
    <circle
       style="display:inline;opacity:1;vector-effect:none;fill:#ff0000;fill-opacity:1;fill-rule:evenodd;stroke:none;stroke-width:1;stroke-linecap:butt;stroke-linejoin:miter;stroke-miterlimit:4;stroke-dasharray:none;stroke-dashoffset:0;stroke-opacity:1;paint-order:normal"
       id="path4954"
       cx="20.971161"
       cy="31.999954"
       r="4"
       inkscape:label="count" />
    <circle
       r="4"
       cy="112"
       cx="8.0237217"
       id="circle4956"
       style="display:inline;opacity:1;vector-effect:none;fill:#00ff00;fill-opacity:1;fill-rule:evenodd;stroke:none;stroke-width:1;stroke-linecap:butt;stroke-linejoin:miter;stroke-miterlimit:4;stroke-dasharray:none;stroke-dashoffset:0;stroke-opacity:1;paint-order:normal"
       inkscape:label="main" />
    <circle
       style="display:inline;opacity:1;vector-effect:none;fill:#0000ff;fill-opacity:1;fill-rule:evenodd;stroke:none;stroke-width:1;stroke-linecap:butt;stroke-linejoin:miter;stroke-miterlimit:4;stroke-dasharray:none;stroke-dashoffset:0;stroke-opacity:1;paint-order:normal"
       id="circle4958"
       cx="20.971161"
       cy="112"
       r="4"
       inkscape:label="main" />
    <circle
       style="display:inline;opacity:1;vector-effect:none;fill:#0000ff;fill-opacity:1;fill-rule:evenodd;stroke:none;stroke-width:1;stroke-linecap:butt;stroke-linejoin:miter;stroke-miterlimit:4;stroke-dasharray:none;stroke-dashoffset:0;stroke-opacity:1;paint-order:normal"
       id="circle4958-4"
       cx="20.971161"
       cy="96"
       r="4"
       inkscape:label="blown" />
    <circle
       r="4"
       cy="80"
       cx="8.0237217"
       id="circle4956-3-5"
       style="display:inline;opacity:1;vector-effect:none;fill:#00ff00;fill-opacity:1;fill-rule:evenodd;stroke:none;stroke-width:1;stroke-linecap:butt;stroke-linejoin:miter;stroke-miterlimit:4;stroke-dasharray:none;stroke-dashoffset:0;stroke-opacity:1;paint-order:normal"
       inkscape:label="trigger" />
    <circle
       r="4"
       cy="47.999954"
       cx="8.0237217"
       id="circle4956-3-4-8"
       style="display:inline;opacity:1;vector-effect:none;fill:#00ff00;fill-opacity:1;fill-rule:evenodd;stroke:none;stroke-width:1;stroke-linecap:butt;stroke-linejoin:miter;stroke-miterlimit:4;stroke-dasharray:none;stroke-dashoffset:0;stroke-opacity:1;paint-order:normal"
       inkscape:label="trigger" />
    <circle
       style="display:inline;opacity:1;vector-effect:none;fill:#ff0000;fill-opacity:1;fill-rule:evenodd;stroke:none;stroke-width:1;stroke-linecap:butt;stroke-linejoin:miter;stroke-miterlimit:4;stroke-dasharray:none;stroke-dashoffset:0;stroke-opacity:1;paint-order:normal"
       id="path4954-3-0-2-9-0"
       cx="20.971161"
       cy="47.999954"
       r="4"
       inkscape:label="reset" />
    <circle
       r="4"
       cy="64"
       cx="8.0240002"
       id="circle4956-3-4-8-0"
       style="display:inline;vector-effect:none;fill:#00ff00;fill-opacity:1;fill-rule:evenodd;stroke:none;stroke-width:1;stroke-linecap:butt;stroke-linejoin:miter;stroke-miterlimit:4;stroke-dasharray:none;stroke-dashoffset:0;stroke-opacity:1;paint-order:normal"
       inkscape:label="trigger" />
    <circle
       style="display:inline;vector-effect:none;fill:#ff0000;fill-opacity:1;fill-rule:evenodd;stroke:none;stroke-width:1;stroke-linecap:butt;stroke-linejoin:miter;stroke-miterlimit:4;stroke-dasharray:none;stroke-dashoffset:0;stroke-opacity:1;paint-order:normal"
       id="path4954-3-0-2-9-0-5"
       cx="20.971439"
       cy="64"
       r="4"
       inkscape:label="reset" />
    <circle
       style="display:inline;opacity:1;vector-effect:none;fill:#ff0000;fill-opacity:1;fill-rule:evenodd;stroke:none;stroke-width:1;stroke-linecap:butt;stroke-linejoin:miter;stroke-miterlimit:4;stroke-dasharray:none;stroke-dashoffset:0;stroke-opacity:1;paint-order:normal"
       id="path4954-3-0-2-9-7-7"
       cx="20.971161"
       cy="80"
       r="4"
       inkscape:label="trigger" />
    <circle
       style="display:inline;opacity:1;vector-effect:none;fill:#ff0000;fill-opacity:1;fill-rule:evenodd;stroke:none;stroke-width:1;stroke-linecap:butt;stroke-linejoin:miter;stroke-miterlimit:4;stroke-dasharray:none;stroke-dashoffset:0;stroke-opacity:1;paint-order:normal"
       id="path4954-3"
       cx="8.0237217"
       cy="31.999954"
       r="4"
       inkscape:label="action" />
    <circle
       style="display:inline;opacity:1;vector-effect:none;fill:#ff0000;fill-opacity:1;fill-rule:evenodd;stroke:none;stroke-width:1;stroke-linecap:butt;stroke-linejoin:miter;stroke-miterlimit:4;stroke-dasharray:none;stroke-dashoffset:0;stroke-opacity:1;paint-order:normal"
       id="path4954-33"
       cx="8.0237217"
       cy="96"
       r="4"
       inkscape:label="count" />
  </g>
</svg>
