<?xml version="1.0" encoding="UTF-8" standalone="no"?>
<svg
   width="20.32mm"
   height="128.5mm"
   viewBox="0 0 20.320001 128.50002"
   version="1.1"
   id="svg8"
   inkscape:version="1.2.1 (9c6d41e410, 2022-07-14)"
   sodipodi:docname="MemoryCV.svg"
   xmlns:inkscape="http://www.inkscape.org/namespaces/inkscape"
   xmlns:sodipodi="http://sodipodi.sourceforge.net/DTD/sodipodi-0.dtd"
   xmlns="http://www.w3.org/2000/svg"
   xmlns:svg="http://www.w3.org/2000/svg"
   xmlns:rdf="http://www.w3.org/1999/02/22-rdf-syntax-ns#"
   xmlns:cc="http://creativecommons.org/ns#"
   xmlns:dc="http://purl.org/dc/elements/1.1/">
  <defs
     id="defs2" />
  <sodipodi:namedview
     id="base"
     pagecolor="#ffffff"
     bordercolor="#666666"
     borderopacity="1.0"
     inkscape:pageopacity="0.0"
     inkscape:pageshadow="2"
     inkscape:zoom="2.8284272"
     inkscape:cx="-44.724503"
     inkscape:cy="151.32085"
     inkscape:document-units="mm"
     inkscape:current-layer="layer1"
     showgrid="false"
     units="mm"
     inkscape:snap-bbox="true"
     inkscape:snap-page="true"
     inkscape:bbox-nodes="false"
     inkscape:snap-bbox-edge-midpoints="false"
     inkscape:window-width="2560"
     inkscape:window-height="1369"
     inkscape:window-x="-8"
     inkscape:window-y="-8"
     inkscape:window-maximized="1"
     inkscape:snap-bbox-midpoints="true"
     inkscape:snap-nodes="false"
     inkscape:document-rotation="0"
     inkscape:showpageshadow="2"
     inkscape:pagecheckerboard="0"
     inkscape:deskcolor="#d1d1d1" />
  <metadata
     id="metadata5">
    <rdf:RDF>
      <cc:Work
         rdf:about="">
        <dc:format>image/svg+xml</dc:format>
        <dc:type
           rdf:resource="http://purl.org/dc/dcmitype/StillImage" />
      </cc:Work>
    </rdf:RDF>
  </metadata>
  <g
     inkscape:label="Background"
     inkscape:groupmode="layer"
     id="layer1"
     transform="translate(0,-168.49998)"
     style="display:inline">
    <rect
       style="display:inline;opacity:1;fill:#e8f1f2;fill-opacity:1;fill-rule:evenodd;stroke:none;stroke-width:0.530199;stroke-linecap:butt;stroke-linejoin:miter;stroke-miterlimit:4;stroke-dasharray:none;stroke-dashoffset:0;stroke-opacity:1;paint-order:normal"
       id="rect420"
       width="20.32"
       height="128.5"
       x="5.9211732e-17"
       y="168.49997" />
    <g
       aria-label="!"
       transform="matrix(1.1167128,-0.15549235,0.12836675,1.3252781,-7.3837299,165.39159)"
       id="text912"
       style="font-style:normal;font-weight:normal;font-size:127.426px;line-height:1.25;font-family:sans-serif;display:inline;fill:#bd8adf;fill-opacity:1;stroke:none;stroke-width:3.18552;stroke-miterlimit:4;stroke-dasharray:none">
      <path
         d="M 17.007808,5.7176488 15.390095,72.852735 H 4.8127414 L 3.070589,5.7176488 Z M 16.385611,98.362823 H 3.6927863 V 85.234461 H 16.385611 Z"
         style="fill:#bd8adf;fill-opacity:1;stroke-width:3.18552;stroke-miterlimit:4;stroke-dasharray:none"
         id="path1767" />
    </g>
  </g>
  <g
     inkscape:label="Layer 1"
     inkscape:groupmode="layer"
     id="g1684"
     transform="translate(0,-168.49998)"
     style="display:inline;opacity:1">
    <g
       aria-label="LENGTH"
       id="text428"
       style="font-size:4.23333px;line-height:1.25;word-spacing:0px;stroke-width:0.264583"
       transform="translate(0,0.52916667)">
      <path
         d="M 3.8844191,209.28531 H 1.9372527 v -3.07785 h 0.409277 v 2.71405 h 1.5378894 z"
         id="path480" />
      <path
         d="M 6.3214776,209.28531 H 4.2936961 v -3.07785 h 2.0277815 v 0.3638 H 4.7029731 v 0.84336 h 1.6185045 v 0.36381 H 4.7029731 v 1.14308 h 1.6185045 z"
         id="path482" />
      <path
         d="M 9.3187082,209.28531 H 8.8122796 l -1.4593412,-2.75332 v 2.75332 H 6.9705331 v -3.07785 h 0.6345861 l 1.3311837,2.51354 v -2.51354 h 0.3824053 z"
         id="path484" />
      <path
         d="m 12.704545,209.05793 q -0.252181,0.11576 -0.551904,0.20257 -0.297656,0.0847 -0.576708,0.0847 -0.359668,0 -0.659391,-0.0992 -0.299723,-0.0992 -0.510563,-0.29765 -0.212906,-0.20051 -0.328662,-0.50023 -0.1157546,-0.30179 -0.1157546,-0.70486 0,-0.73794 0.4299476,-1.16376 0.432015,-0.42788 1.184423,-0.42788 0.262516,0 0.535367,0.0641 0.274919,0.062 0.591178,0.21291 v 0.48576 h -0.03721 q -0.06408,-0.0496 -0.186035,-0.13023 -0.121956,-0.0806 -0.239778,-0.13436 -0.142627,-0.0641 -0.324528,-0.10542 -0.179834,-0.0434 -0.409277,-0.0434 -0.516764,0 -0.818554,0.33279 -0.299723,0.33073 -0.299723,0.8971 0,0.59738 0.314192,0.93018 0.314193,0.33073 0.855761,0.33073 0.198438,0 0.394808,-0.0393 0.198437,-0.0393 0.347265,-0.10128 v -0.75448 h -0.824755 v -0.35967 h 1.229898 z"
         id="path486" />
      <path
         d="m 15.61496,206.57126 h -1.099673 v 2.71405 H 14.10601 v -2.71405 h -1.099674 v -0.3638 h 2.608624 z"
         id="path488" />
      <path
         d="M 18.382747,209.28531 H 17.97347 v -1.50688 h -1.535822 v 1.50688 h -0.409277 v -3.07785 h 0.409277 v 1.20716 h 1.535822 v -1.20716 h 0.409277 z"
         id="path490" />
    </g>
    <g
       aria-label="Memory"
       id="text1086"
       style="font-size:7.05556px;line-height:1.25;word-spacing:0px;stroke-width:0.264583"
       transform="matrix(0.60006271,0,0,0.60006271,0.64592316,70.231979)">
      <path
         d="M 6.1832607,176.83435 H 5.5011313 v -4.42006 l -1.4262704,3.00757 H 3.6683393 l -1.4159351,-3.00757 v 4.42006 H 1.6150611 v -5.12975 h 0.9301764 l 1.3677038,2.85599 1.3229175,-2.85599 h 0.9474019 z"
         id="path314" />
      <path
         d="M 10.730789,174.97744 H 7.8954741 q 0,0.35485 0.106798,0.62012 0.106798,0.26183 0.2928333,0.43064 0.1791451,0.16536 0.423747,0.24804 0.2480471,0.0827 0.5443255,0.0827 0.3927411,0 0.7889271,-0.15503 0.399632,-0.15848 0.568441,-0.31006 h 0.03445 v 0.70624 q -0.327284,0.13781 -0.6683486,0.23083 -0.3410647,0.093 -0.7165803,0.093 -0.9577372,0 -1.4951724,-0.51676 -0.5374353,-0.52021 -0.5374353,-1.4745 0,-0.94396 0.5133196,-1.49862 0.5167646,-0.55466 1.3573685,-0.55466 0.7785921,0 1.1988935,0.45475 0.423747,0.45475 0.423747,1.29191 z m -0.630452,-0.49609 q -0.0034,-0.50988 -0.2583827,-0.78893 -0.2514921,-0.27905 -0.7682568,-0.27905 -0.5202098,0 -0.8302685,0.30661 -0.3066137,0.30662 -0.3479549,0.76137 z"
         id="path316" />
      <path
         d="m 17.328152,176.83435 h -0.647679 v -2.19108 q 0,-0.24805 -0.02412,-0.47887 -0.02067,-0.23082 -0.09302,-0.36863 -0.07924,-0.14813 -0.227377,-0.22393 -0.148139,-0.0758 -0.427192,-0.0758 -0.272162,0 -0.544325,0.1378 -0.272163,0.13436 -0.544326,0.34451 0.01034,0.0792 0.01723,0.18604 0.0069,0.10335 0.0069,0.20671 v 2.46324 h -0.647678 v -2.19108 q 0,-0.25494 -0.02412,-0.48232 -0.02067,-0.23082 -0.09302,-0.36862 -0.07924,-0.14814 -0.227376,-0.22049 -0.148139,-0.0758 -0.427192,-0.0758 -0.265273,0 -0.53399,0.13091 -0.265273,0.13092 -0.530545,0.33418 v 2.87321 h -0.647679 v -3.84817 h 0.647679 v 0.42719 q 0.303168,-0.25149 0.602892,-0.39274 0.303168,-0.14125 0.644233,-0.14125 0.392741,0 0.664904,0.16536 0.275608,0.16537 0.409967,0.4582 0.392741,-0.33073 0.71658,-0.47542 0.323839,-0.14814 0.692464,-0.14814 0.633898,0 0.933622,0.38585 0.303169,0.38241 0.303169,1.07142 z"
         id="path318" />
      <path
         d="m 21.85501,174.91199 q 0,0.94051 -0.482314,1.48483 -0.482313,0.54433 -1.291911,0.54433 -0.816489,0 -1.298802,-0.54433 -0.478869,-0.54432 -0.478869,-1.48483 0,-0.94052 0.478869,-1.48484 0.482313,-0.54777 1.298802,-0.54777 0.809598,0 1.291911,0.54777 0.482314,0.54432 0.482314,1.48484 z m -0.668349,0 q 0,-0.74759 -0.292833,-1.10933 -0.292834,-0.36518 -0.813043,-0.36518 -0.5271,0 -0.819934,0.36518 -0.289388,0.36174 -0.289388,1.10933 0,0.72347 0.292833,1.09898 0.292834,0.37207 0.816489,0.37207 0.516764,0 0.809598,-0.36862 0.296278,-0.37207 0.296278,-1.10243 z"
         id="path320" />
      <path
         d="m 25.258767,173.69242 h -0.03445 q -0.144694,-0.0344 -0.282498,-0.0482 -0.134359,-0.0172 -0.320394,-0.0172 -0.299723,0 -0.578776,0.13436 -0.279053,0.13092 -0.537436,0.34107 v 2.73196 h -0.647678 v -3.84817 h 0.647678 v 0.56844 q 0.385851,-0.31006 0.678685,-0.43753 0.296278,-0.13091 0.602892,-0.13091 0.16881,0 0.244602,0.0103 0.07579,0.007 0.227376,0.031 z"
         id="path322" />
      <path
         d="m 29.196513,172.98618 -2.246203,5.26755 h -0.692465 l 0.71658,-1.60541 -1.533068,-3.66214 h 0.7028 l 1.181668,2.85254 1.192004,-2.85254 z"
         id="path324" />
    </g>
    <g
       aria-label="WIPE"
       id="text494"
       style="font-size:4.23333px;line-height:1.25;word-spacing:0px;stroke-width:0.264583"
       transform="translate(-4.280578,-3.1750001)">
      <path
         d="m 12.860314,191.61454 -0.799951,3.07784 H 11.59941 l -0.646988,-2.55488 -0.632519,2.55488 H 9.8692845 l -0.8144198,-3.07784 h 0.4196122 l 0.6469881,2.55901 0.636653,-2.55901 h 0.415479 l 0.642854,2.58382 0.642854,-2.58382 z"
         id="path496" />
      <path
         d="M 14.549099,194.69238 H 13.33367 v -0.31419 h 0.403076 v -2.44946 H 13.33367 v -0.31419 h 1.215429 v 0.31419 h -0.403076 v 2.44946 h 0.403076 z"
         id="path498" />
      <path
         d="m 17.259008,192.54471 q 0,0.20464 -0.07235,0.38034 -0.07028,0.17363 -0.198437,0.30179 -0.159163,0.15916 -0.376204,0.23978 -0.217041,0.0786 -0.54777,0.0786 H 15.65497 v 1.14721 h -0.409277 v -3.07784 h 0.83509 q 0.276986,0 0.469222,0.0475 0.192236,0.0455 0.341064,0.14469 0.1757,0.11783 0.270785,0.29353 0.09715,0.17569 0.09715,0.44441 z m -0.425813,0.0103 q 0,-0.15917 -0.05581,-0.27699 -0.05581,-0.11782 -0.169498,-0.19223 -0.09922,-0.0641 -0.227376,-0.0909 -0.126091,-0.0289 -0.320394,-0.0289 h -0.405143 v 1.22989 h 0.345198 q 0.248047,0 0.403076,-0.0434 0.155029,-0.0455 0.252181,-0.14263 0.09715,-0.0992 0.136426,-0.20877 0.04134,-0.10956 0.04134,-0.24598 z"
         id="path500" />
      <path
         d="M 19.826291,194.69238 H 17.79851 v -3.07784 h 2.027781 v 0.3638 h -1.618504 v 0.84336 h 1.618504 v 0.3638 h -1.618504 v 1.14308 h 1.618504 z"
         id="path502" />
    </g>
    <g
       aria-label="RESET"
       id="text401"
       style="font-size:4.23333px;line-height:1.25;word-spacing:0px;display:inline;stroke-width:0.264583"
       transform="translate(1.1825768,173.8962)">
      <path
         d="M 4.8309095,49.994888 H 4.2996762 L 3.2702826,48.771191 H 2.6935741 v 1.223697 h -0.409277 v -3.077845 h 0.8619621 q 0.2790525,0 0.4650875,0.03721 0.186035,0.03514 0.334863,0.128157 0.1674315,0.10542 0.260449,0.26665 0.095085,0.159163 0.095085,0.405143 0,0.332796 -0.1674315,0.558105 -0.1674315,0.223242 -0.4609534,0.33693 z M 3.8738628,47.783139 q 0,-0.132292 -0.047542,-0.233577 Q 3.7808453,47.446209 3.6733584,47.375929 3.584475,47.315984 3.4625187,47.293247 3.3405625,47.268442 3.175198,47.268442 H 2.6935741 v 1.161685 h 0.4134111 q 0.1943032,0 0.3389971,-0.03307 0.1446939,-0.03514 0.2459796,-0.128157 0.093018,-0.08682 0.1364257,-0.198437 0.045475,-0.113688 0.045475,-0.287321 z"
         id="path407" />
      <path
         d="M 7.2555657,49.994888 H 5.2277842 v -3.077845 h 2.0277815 v 0.363801 H 5.6370612 v 0.843359 h 1.6185045 v 0.363802 H 5.6370612 v 1.143082 h 1.6185045 z"
         id="path409" />
      <path
         d="m 10.141175,49.11639 q 0,0.179834 -0.08475,0.355533 -0.082682,0.1757 -0.2335772,0.297656 -0.1653645,0.132292 -0.3865394,0.206706 -0.2191079,0.07441 -0.5291662,0.07441 -0.332796,0 -0.5994462,-0.06201 -0.2645831,-0.06201 -0.5395015,-0.183968 v -0.51263 h 0.028939 q 0.2335773,0.194304 0.5395015,0.299723 0.3059242,0.10542 0.5746415,0.10542 0.3803382,0 0.5911779,-0.142627 0.2129067,-0.142626 0.2129067,-0.380338 0,-0.204638 -0.1012857,-0.30179 Q 9.5148575,48.775326 9.310219,48.721582 9.1551898,48.680241 8.9732889,48.653369 8.7934551,48.626498 8.5908837,48.585156 8.1816067,48.49834 7.9831693,48.289567 7.786799,48.078728 7.786799,47.741798 q 0,-0.38654 0.3265948,-0.632519 0.3265948,-0.248047 0.8288893,-0.248047 0.3245277,0 0.595312,0.06201 0.2707843,0.06201 0.4795569,0.152962 v 0.483691 H 9.988213 q -0.1756997,-0.148828 -0.4630204,-0.24598 -0.2852537,-0.09922 -0.5849768,-0.09922 -0.3286618,0 -0.5291662,0.136425 -0.1984373,0.136426 -0.1984373,0.3514 0,0.192236 0.099219,0.30179 0.099219,0.109554 0.3493323,0.167431 0.1322916,0.02894 0.3762042,0.07028 0.2439125,0.04134 0.4134111,0.08475 0.3431312,0.09095 0.5167639,0.274919 0.1736322,0.183968 0.1736322,0.514697 z"
         id="path411" />
      <path
         d="m 12.826281,49.994888 h -2.027782 v -3.077845 h 2.027782 v 0.363801 h -1.618505 v 0.843359 h 1.618505 v 0.363802 h -1.618505 v 1.143082 h 1.618505 z"
         id="path413" />
      <path
         d="m 15.670549,47.280844 h -1.099673 v 2.714044 h -0.409277 v -2.714044 h -1.099674 v -0.363801 h 2.608624 z"
         id="path415" />
    </g>
    <g
       aria-label="FILE I/O"
       id="text329"
       style="font-size:2.90978px;line-height:1.25;word-spacing:0px;stroke-width:0.218233"
       transform="translate(-2.1166667,5.2916669)">
      <path
         d="M 5.6262558,284.21791 H 4.5564001 v 0.59673 h 0.9192518 v 0.25006 H 4.5564001 v 1.0187 H 4.2750835 v -2.11555 h 1.3511723 z"
         id="path1299" />
      <path
         d="M 6.6932698,286.0834 H 5.8578447 v -0.21596 h 0.2770542 v -1.68363 H 5.8578447 v -0.21596 h 0.8354251 v 0.21596 H 6.4162156 v 1.68363 h 0.2770542 z"
         id="path1301" />
      <path
         d="M 8.5104616,286.0834 H 7.1720764 v -2.11555 h 0.2813167 v 1.8655 h 1.0570685 z"
         id="path1303" />
      <path
         d="M 10.185574,286.0834 H 8.7917781 v -2.11555 h 1.3937959 v 0.25006 H 9.0730947 v 0.57968 h 1.1124793 v 0.25006 H 9.0730947 v 0.7857 h 1.1124793 z"
         id="path1305" />
      <path
         d="m 12.400587,286.0834 h -0.835425 v -0.21596 h 0.277055 v -1.68363 h -0.277055 v -0.21596 h 0.835425 v 0.21596 h -0.277054 v 1.68363 h 0.277054 z"
         id="path1307" />
      <path
         d="m 13.817116,283.87265 -1.018708,2.64268 h -0.245796 l 1.014444,-2.64268 z"
         id="path1309" />
      <path
         d="m 15.777807,284.2108 q 0.129292,0.14208 0.19749,0.3481 0.06962,0.20601 0.06962,0.46744 0,0.26142 -0.07104,0.46886 -0.06962,0.20601 -0.19607,0.34383 -0.130712,0.1435 -0.309732,0.21596 -0.177599,0.0725 -0.406346,0.0725 -0.223064,0 -0.406347,-0.0739 -0.181861,-0.0739 -0.309732,-0.21454 -0.127871,-0.14066 -0.19749,-0.34525 -0.0682,-0.2046 -0.0682,-0.46744 0,-0.25859 0.0682,-0.46318 0.0682,-0.20602 0.198911,-0.35236 0.125029,-0.13924 0.309732,-0.21312 0.186124,-0.0739 0.404926,-0.0739 0.227326,0 0.407767,0.0753 0.181861,0.0739 0.308311,0.2117 z m -0.02557,0.81554 q 0,-0.41203 -0.184703,-0.6351 -0.184703,-0.22448 -0.504381,-0.22448 -0.322519,0 -0.507222,0.22448 -0.183282,0.22307 -0.183282,0.6351 0,0.41629 0.187544,0.63793 0.187545,0.22022 0.50296,0.22022 0.315416,0 0.50154,-0.22022 0.187544,-0.22164 0.187544,-0.63793 z"
         id="path1311" />
    </g>
    <g
       aria-label="T"
       id="text1225-8"
       style="font-size:14.1111px;line-height:1.25;word-spacing:0px;display:inline;stroke-width:0.264583;fill:#000000;fill-opacity:1"
       transform="translate(21.913642,-21.945844)">
      <path
         d="m -12.187768,265.85345 h -3.665579 v 9.04682 h -1.364257 v -9.04682 h -3.665579 v -1.21267 h 8.695415 z"
         id="path1227-8"
         style="fill:#000000;fill-opacity:1" />
    </g>
    <g
       aria-label="LOAD"
       id="text647"
       style="font-size:4.23333px;line-height:1.25;word-spacing:0px;display:inline;stroke-width:0.264583"
       transform="translate(21.762209,202.89571)">
      <path
         d="m -15.225757,54.068623 h -1.947166 v -3.077846 h 0.409277 v 2.714044 h 1.537889 z"
         id="path699" />
      <path
         d="m -12.563389,51.344243 q 0.188102,0.206706 0.28732,0.506429 0.101286,0.299723 0.101286,0.680061 0,0.380338 -0.103353,0.682129 -0.101285,0.299723 -0.285253,0.500227 -0.190169,0.208773 -0.450618,0.314192 -0.258382,0.10542 -0.591178,0.10542 -0.324528,0 -0.591178,-0.107487 -0.264583,-0.107486 -0.450618,-0.312125 -0.186035,-0.204638 -0.287321,-0.502294 -0.09922,-0.297656 -0.09922,-0.680062 0,-0.376204 0.09922,-0.67386 0.09922,-0.299723 0.289388,-0.51263 0.181901,-0.202571 0.450618,-0.310058 0.270784,-0.107487 0.589111,-0.107487 0.330729,0 0.593245,0.109554 0.264583,0.107487 0.448551,0.307991 z m -0.03721,1.18649 q 0,-0.599446 -0.268718,-0.923974 -0.268717,-0.326594 -0.733804,-0.326594 -0.469222,0 -0.737939,0.326594 -0.26665,0.324528 -0.26665,0.923974 0,0.605648 0.272851,0.928108 0.272851,0.320394 0.731738,0.320394 0.458886,0 0.72967,-0.320394 0.272852,-0.32246 0.272852,-0.928108 z"
         id="path701" />
      <path
         d="m -9.0990041,54.068623 h -0.4361487 l -0.3017901,-0.857828 h -1.3311841 l -0.30179,0.857828 h -0.415478 l 1.120344,-3.077846 h 0.545703 z m -0.8640292,-1.209228 -0.5395017,-1.511018 -0.541568,1.511018 z"
         id="path703" />
      <path
         d="m -6.0314944,52.5328 q 0,0.419613 -0.1839679,0.760677 -0.1819009,0.341064 -0.4857581,0.529166 -0.2108397,0.130224 -0.4712887,0.188102 -0.2583819,0.05788 -0.6821283,0.05788 h -0.7772129 v -3.077846 h 0.7689447 q 0.4506181,0 0.7152012,0.06615 0.2666502,0.06408 0.4506181,0.177766 0.3141925,0.196371 0.4898922,0.522965 0.1756997,0.326595 0.1756997,0.775146 z m -0.4278805,-0.0062 q 0,-0.361735 -0.1260904,-0.609781 -0.1260904,-0.248047 -0.3762041,-0.390674 -0.1819009,-0.103353 -0.3865394,-0.142627 -0.2046385,-0.04134 -0.4898921,-0.04134 h -0.3844724 v 2.375047 h 0.3844724 q 0.2955889,0 0.5146968,-0.04341 0.2211749,-0.04341 0.4051429,-0.16123 0.2294431,-0.146761 0.3431312,-0.38654 0.1157551,-0.239778 0.1157551,-0.599445 z"
         id="path705" />
    </g>
    <rect
       style="display:inline;fill:#000000;fill-opacity:1;stroke-width:0.238931"
       id="rect652"
       width="12.668575"
       height="12.967006"
       x="6.4715457"
       y="274.55304"
       ry="5.1040287" />
    <g
       aria-label="T"
       id="text1225-8-2"
       style="font-size:14.1111px;line-height:1.25;word-spacing:0px;display:inline;fill:#e8f1f2;fill-opacity:1;stroke-width:0.264583"
       transform="translate(29.341309,11.266017)">
      <path
         d="m -12.187768,265.85345 h -3.665579 v 9.04682 h -1.364257 v -9.04682 h -3.665579 v -1.21267 h 8.695415 z"
         id="path1227-8-9"
         style="fill:#e8f1f2;fill-opacity:1" />
    </g>
    <rect
       style="display:inline;fill:#000000;fill-opacity:1;stroke-width:0.187101"
       id="rect652-5"
       width="10.287325"
       height="9.7920055"
       x="9.742363"
       y="74.428696"
       ry="3.854296"
       transform="translate(0,168.49998)" />
    <rect
       style="display:inline;fill:#000000;fill-opacity:1;stroke-width:0.187101"
       id="rect652-5-0"
       width="10.287325"
       height="9.7920055"
       x="9.742363"
       y="90.898773"
       ry="3.854296"
       transform="translate(0,168.49998)" />
    <g
       aria-label="SAVE"
       id="text2727"
       style="display:inline;font-size:4.23333px;line-height:1.25;word-spacing:0px;stroke-width:0.264583"
       transform="translate(23.719363,172.73331)">
      <path
         d="m -16.526621,99.775203 q 0,0.179834 -0.08475,0.355537 -0.08268,0.1757 -0.233577,0.29765 -0.165365,0.13229 -0.38654,0.20671 -0.219108,0.0744 -0.529166,0.0744 -0.332796,0 -0.599446,-0.062 -0.264583,-0.062 -0.539502,-0.18397 v -0.512627 h 0.02894 q 0.233577,0.194307 0.539502,0.299727 0.305924,0.10542 0.574641,0.10542 0.380338,0 0.591178,-0.14263 0.212907,-0.14263 0.212907,-0.380339 0,-0.204639 -0.101286,-0.30179 -0.09922,-0.09715 -0.303857,-0.150895 -0.155029,-0.04134 -0.33693,-0.06821 -0.179834,-0.02687 -0.382406,-0.06821 -0.409277,-0.08682 -0.607714,-0.295589 -0.19637,-0.21084 -0.19637,-0.54777 0,-0.386539 0.326595,-0.632519 0.326594,-0.248046 0.828889,-0.248046 0.324528,0 0.595312,0.06201 0.270784,0.06201 0.479557,0.152962 v 0.483691 h -0.02894 q -0.1757,-0.148828 -0.46302,-0.245979 -0.285254,-0.09922 -0.584977,-0.09922 -0.328662,0 -0.529166,0.136426 -0.198438,0.136425 -0.198438,0.351399 0,0.192236 0.09922,0.30179 0.09922,0.109554 0.349332,0.167432 0.132292,0.02894 0.376204,0.07028 0.243913,0.04134 0.413412,0.08475 0.343131,0.09095 0.516763,0.274918 0.173633,0.183968 0.173633,0.514697 z"
         id="path2733" />
      <path
         d="m -13.483915,100.6537 h -0.436149 l -0.30179,-0.857826 h -1.331184 l -0.30179,0.857826 h -0.415478 l 1.120344,-3.077844 h 0.545703 z m -0.864029,-1.209226 -0.539502,-1.511017 -0.541568,1.511017 z"
         id="path2735" />
      <path
         d="m -10.714061,97.575856 -1.120344,3.077844 h -0.545702 l -1.120344,-3.077844 h 0.438215 l 0.965315,2.707844 0.965315,-2.707844 z"
         id="path2737" />
      <path
         d="m -8.2191248,100.6537 h -2.0277812 v -3.077844 h 2.0277812 v 0.363802 h -1.6185045 v 0.843359 h 1.6185045 v 0.363801 h -1.6185045 v 1.143082 h 1.6185045 z"
         id="path2739" />
    </g>
    <g
       aria-label="T"
       id="text1225-8-8"
       style="display:inline;font-size:14.1111px;line-height:1.25;word-spacing:0px;stroke-width:0.264583"
       transform="translate(21.913642,-5.4758092)">
      <path
         d="m -12.187768,265.85345 h -3.665579 v 9.04682 h -1.364257 v -9.04682 h -3.665579 v -1.21267 h 8.695415 z"
         id="path1227-8-6" />
    </g>
    <g
       aria-label="LOG"
       transform="rotate(-90,84.24999,84.249989)"
       id="text2563"
       style="font-size:4.23333px;line-height:1.25;word-spacing:0px;display:inline;stroke-width:0.264583">
      <path
         d="m -114.69664,4.7178516 h -1.94716 V 1.6400059 h 0.40928 v 2.714044 h 1.53788 z"
         id="path364" />
      <path
         d="m -112.03427,1.9934724 q 0.1881,0.2067056 0.28732,0.5064286 0.10129,0.2997231 0.10129,0.6800613 0,0.3803382 -0.10335,0.6821283 -0.10129,0.2997231 -0.28526,0.5002275 -0.19017,0.2087726 -0.45062,0.3141924 -0.25838,0.1054199 -0.59117,0.1054199 -0.32453,0 -0.59118,-0.1074869 -0.26458,-0.1074869 -0.45062,-0.3121254 -0.18603,-0.2046385 -0.28732,-0.5022945 -0.0992,-0.297656 -0.0992,-0.6800613 0,-0.3762041 0.0992,-0.6738601 0.0992,-0.2997231 0.28939,-0.5126298 0.1819,-0.2025714 0.45062,-0.3100583 0.27078,-0.1074869 0.58911,-0.1074869 0.33072,0 0.59324,0.1095539 0.26458,0.1074869 0.44855,0.3079913 z m -0.0372,1.1864899 q 0,-0.5994461 -0.26872,-0.9239738 -0.26872,-0.3265948 -0.73381,-0.3265948 -0.46922,0 -0.73794,0.3265948 -0.26665,0.3245277 -0.26665,0.9239738 0,0.6056473 0.27286,0.928108 0.27285,0.3203936 0.73173,0.3203936 0.45889,0 0.72967,-0.3203936 0.27286,-0.3224607 0.27286,-0.928108 z"
         id="path366" />
      <path
         d="m -108.42932,4.4904755 q -0.25218,0.1157551 -0.55191,0.2025715 -0.29765,0.084749 -0.57671,0.084749 -0.35966,0 -0.65939,-0.099219 -0.29972,-0.099219 -0.51056,-0.297656 -0.21291,-0.2005044 -0.32866,-0.5002275 -0.11576,-0.3017901 -0.11576,-0.7048659 0,-0.7379388 0.42995,-1.1637523 0.43202,-0.4278805 1.18442,-0.4278805 0.26252,0 0.53537,0.064079 0.27492,0.062012 0.59118,0.2129068 v 0.485758 h -0.0372 q -0.0641,-0.049609 -0.18603,-0.1302245 -0.12196,-0.080615 -0.23978,-0.1343586 -0.14263,-0.064079 -0.32453,-0.1054198 -0.17983,-0.043408 -0.40928,-0.043408 -0.51676,0 -0.81855,0.332796 -0.29972,0.3307288 -0.29972,0.8971021 0,0.597379 0.31419,0.930175 0.31419,0.3307289 0.85576,0.3307289 0.19844,0 0.39481,-0.039274 0.19844,-0.039274 0.34726,-0.1012857 V 3.5292947 h -0.82475 V 3.169627 h 1.2299 z"
         id="path368" />
    </g>
    <g
       aria-label="CV"
       id="text4026"
       style="font-size:5.64444px;line-height:1.25;word-spacing:0px;stroke-width:0.264583"
       transform="translate(-0.03641635)">
      <path
         d="m 9.8946262,180.64372 q -0.1515841,0.0661 -0.2756074,0.12402 -0.1212673,0.0579 -0.3197047,0.12127 -0.1681205,0.0524 -0.3665578,0.0882 -0.1956813,0.0386 -0.4327037,0.0386 -0.446484,0 -0.8130419,-0.12402 -0.3638018,-0.12678 -0.6338971,-0.39412 -0.2645832,-0.26183 -0.4134112,-0.66422 -0.148828,-0.40514 -0.148828,-0.93982 0,-0.50712 0.1433159,-0.90675 0.1433158,-0.39963 0.4134111,-0.67523 0.2618271,-0.26734 0.631141,-0.4079 0.3720701,-0.14056 0.8240663,-0.14056 0.3307289,0 0.6587017,0.0799 0.3307289,0.0799 0.7331158,0.28112 v 0.64768 h -0.041341 q -0.3389972,-0.28388 -0.6724822,-0.41341 -0.3334849,-0.12954 -0.7138232,-0.12954 -0.3114364,0 -0.5622392,0.10198 -0.2480466,0.0992 -0.4437279,0.31143 -0.1901692,0.20671 -0.297656,0.52366 -0.1047309,0.31419 -0.1047309,0.7276 0,0.43271 0.1157551,0.74414 0.1185112,0.31144 0.3031682,0.50712 0.1929252,0.20395 0.4492401,0.30317 0.259071,0.0965 0.5457027,0.0965 0.3941187,0 0.738628,-0.13505 0.3445092,-0.13504 0.6449213,-0.40514 h 0.038585 z"
         id="path4028" />
      <path
         d="m 13.901958,176.83758 -1.493792,4.1038 h -0.727604 l -1.493792,-4.1038 h 0.584288 l 1.287086,3.61046 1.287087,-3.61046 z"
         id="path4030" />
    </g>
  </g>
  <g
     inkscape:groupmode="layer"
     id="layer2"
     inkscape:label="components"
     style="display:none">
    <circle
       r="4"
       cy="14.816657"
       cx="5.3781667"
       id="circle4956-3-5-3"
       style="display:inline;opacity:1;vector-effect:none;fill:#00ff00;fill-opacity:1;fill-rule:evenodd;stroke:none;stroke-width:1;stroke-linecap:butt;stroke-linejoin:miter;stroke-miterlimit:4;stroke-dasharray:none;stroke-dashoffset:0;stroke-opacity:1;paint-order:normal"
       inkscape:label="wipe_trigger" />
    <circle
       r="4"
       cy="79.324699"
       cx="5.3781667"
       id="circle4956-3-5-3-9"
       style="display:inline;fill:#00ff00;fill-opacity:1;fill-rule:evenodd;stroke:none;stroke-width:1;stroke-linecap:butt;stroke-linejoin:miter;stroke-miterlimit:4;stroke-dasharray:none;stroke-dashoffset:0;stroke-opacity:1;paint-order:normal"
       inkscape:label="tipsy_load" />
    <circle
       style="display:inline;opacity:1;vector-effect:none;fill:#ff0000;fill-opacity:1;fill-rule:evenodd;stroke:none;stroke-width:1;stroke-linecap:butt;stroke-linejoin:miter;stroke-miterlimit:4;stroke-dasharray:none;stroke-dashoffset:0;stroke-opacity:1;paint-order:normal"
       id="path4954-3-0-2-9-7-7-1"
       cx="14.886025"
       cy="14.816657"
       r="4"
       inkscape:label="wipe_button" />
    <circle
       style="display:inline;vector-effect:none;fill:#ff0000;fill-opacity:1;fill-rule:evenodd;stroke:none;stroke-width:1;stroke-linecap:butt;stroke-linejoin:miter;stroke-miterlimit:4;stroke-dasharray:none;stroke-dashoffset:0;stroke-opacity:1;paint-order:normal"
       id="path4954-3-0-2-9-7-7-1-1"
       cx="10.16"
       cy="46.959259"
       r="4"
       inkscape:label="reset_button" />
    <circle
       style="display:inline;vector-effect:none;fill:#ff00ff;fill-opacity:1;fill-rule:evenodd;stroke:none;stroke-width:1;stroke-linecap:butt;stroke-linejoin:miter;stroke-miterlimit:4;stroke-dasharray:none;stroke-dashoffset:0;stroke-opacity:1;paint-order:normal"
       id="path4954-3-0-2-9-7-7-1-1-1"
       cx="17.039164"
       cy="121.98569"
       r="4"
       inkscape:label="fileio_light" />
    <circle
       style="display:inline;opacity:1;vector-effect:none;fill:#ff0000;fill-opacity:1;fill-rule:evenodd;stroke:none;stroke-width:1;stroke-linecap:butt;stroke-linejoin:miter;stroke-miterlimit:4;stroke-dasharray:none;stroke-dashoffset:0;stroke-opacity:1;paint-order:normal"
       id="path4954"
       cx="10.16"
       cy="32.836842"
       r="4"
       inkscape:label="seconds" />
    <circle
       style="display:inline;vector-effect:none;fill:#0000ff;fill-opacity:1;fill-rule:evenodd;stroke:none;stroke-width:1;stroke-linecap:butt;stroke-linejoin:miter;stroke-miterlimit:4;stroke-dasharray:none;stroke-dashoffset:0;stroke-opacity:1;paint-order:normal"
       id="circle4958"
       cx="12.805833"
       cy="112.53656"
       r="4"
       inkscape:label="tipsy_logging" />
    <circle
       style="display:inline;vector-effect:none;fill:#0000ff;fill-opacity:1;fill-rule:evenodd;stroke:none;stroke-width:1;stroke-linecap:butt;stroke-linejoin:miter;stroke-miterlimit:4;stroke-dasharray:none;stroke-dashoffset:0;stroke-opacity:1;paint-order:normal"
       id="circle4958-6"
       cx="14.886025"
       cy="79.324699"
       r="4"
       inkscape:label="load_trigger" />
    <circle
       r="4"
       cy="95.794785"
       cx="5.3781667"
       id="circle4956-3-5-3-9-5"
       style="display:inline;vector-effect:none;fill:#00ff00;fill-opacity:1;fill-rule:evenodd;stroke:none;stroke-width:1;stroke-linecap:butt;stroke-linejoin:miter;stroke-miterlimit:4;stroke-dasharray:none;stroke-dashoffset:0;stroke-opacity:1;paint-order:normal"
       inkscape:label="tipsy_save" />
    <circle
       style="display:inline;vector-effect:none;fill:#0000ff;fill-opacity:1;fill-rule:evenodd;stroke:none;stroke-width:1;stroke-linecap:butt;stroke-linejoin:miter;stroke-miterlimit:4;stroke-dasharray:none;stroke-dashoffset:0;stroke-opacity:1;paint-order:normal"
       id="circle4958-6-9"
       cx="14.886025"
       cy="95.794785"
       r="4"
       inkscape:label="save_trigger" />
  </g>
</svg>
