<?xml version="1.0" encoding="UTF-8" standalone="no"?>
<svg
   width="30.48mm"
   height="128.5mm"
   viewBox="0 0 30.480002 128.50002"
   version="1.1"
   id="svg8"
   inkscape:version="1.2.1 (9c6d41e410, 2022-07-14)"
   sodipodi:docname="Memory.svg"
   xmlns:inkscape="http://www.inkscape.org/namespaces/inkscape"
   xmlns:sodipodi="http://sodipodi.sourceforge.net/DTD/sodipodi-0.dtd"
   xmlns="http://www.w3.org/2000/svg"
   xmlns:svg="http://www.w3.org/2000/svg"
   xmlns:rdf="http://www.w3.org/1999/02/22-rdf-syntax-ns#"
   xmlns:cc="http://creativecommons.org/ns#"
   xmlns:dc="http://purl.org/dc/elements/1.1/">
  <defs
     id="defs2" />
  <sodipodi:namedview
     id="base"
     pagecolor="#ffffff"
     bordercolor="#666666"
     borderopacity="1.0"
     inkscape:pageopacity="0.0"
     inkscape:pageshadow="2"
     inkscape:zoom="1.4142136"
     inkscape:cx="-117.73328"
     inkscape:cy="202.23253"
     inkscape:document-units="mm"
     inkscape:current-layer="layer2"
     showgrid="false"
     units="mm"
     inkscape:snap-bbox="true"
     inkscape:snap-page="true"
     inkscape:bbox-nodes="false"
     inkscape:snap-bbox-edge-midpoints="false"
     inkscape:window-width="2544"
     inkscape:window-height="1353"
     inkscape:window-x="234"
     inkscape:window-y="234"
     inkscape:window-maximized="0"
     inkscape:snap-bbox-midpoints="true"
     inkscape:snap-nodes="false"
     inkscape:document-rotation="0"
     inkscape:showpageshadow="2"
     inkscape:pagecheckerboard="0"
     inkscape:deskcolor="#d1d1d1" />
  <metadata
     id="metadata5">
    <rdf:RDF>
      <cc:Work
         rdf:about="">
        <dc:format>image/svg+xml</dc:format>
        <dc:type
           rdf:resource="http://purl.org/dc/dcmitype/StillImage" />
      </cc:Work>
    </rdf:RDF>
  </metadata>
  <g
     inkscape:label="Background"
     inkscape:groupmode="layer"
     id="layer1"
     transform="translate(0,-168.49998)"
     style="display:inline">
    <rect
       style="display:inline;opacity:1;fill:#e8f1f2;fill-opacity:1;fill-rule:evenodd;stroke:none;stroke-width:0.649358;stroke-linecap:butt;stroke-linejoin:miter;stroke-miterlimit:4;stroke-dasharray:none;stroke-dashoffset:0;stroke-opacity:1;paint-order:normal"
       id="rect420"
       width="30.48"
       height="128.5"
       x="5.9211732e-17"
       y="168.49997" />
    <g
       aria-label="!"
       transform="matrix(1.1167128,-0.15549235,0.12836675,1.3252781,-2.30373,165.39159)"
       id="text912"
       style="font-style:normal;font-weight:normal;font-size:127.426px;line-height:1.25;font-family:sans-serif;display:inline;fill:#338adf;fill-opacity:1;stroke:none;stroke-width:3.18552;stroke-miterlimit:4;stroke-dasharray:none">
      <path
         d="M 17.007808,5.7176488 15.390095,72.852735 H 4.8127414 L 3.070589,5.7176488 Z M 16.385611,98.362823 H 3.6927863 V 85.234461 H 16.385611 Z"
         style="fill:#338adf;fill-opacity:1;stroke-width:3.18552;stroke-miterlimit:4;stroke-dasharray:none"
         id="path1767" />
    </g>
  </g>
  <g
     inkscape:label="Layer 1"
     inkscape:groupmode="layer"
     id="g1684"
     transform="translate(0,-168.49998)"
     style="display:inline;opacity:1">
    <g
       aria-label="Memory"
       id="text1086"
       style="font-size:7.05556px;line-height:1.25;word-spacing:0px;stroke-width:0.264583"
       transform="translate(0,1.0583333)">
      <path
         d="M 6.1832607,176.83435 H 5.5011313 v -4.42006 l -1.4262704,3.00757 H 3.6683393 l -1.4159351,-3.00757 v 4.42006 H 1.6150611 v -5.12975 h 0.9301764 l 1.3677038,2.85599 1.3229175,-2.85599 h 0.9474019 z"
         id="path314" />
      <path
         d="M 10.730789,174.97744 H 7.8954741 q 0,0.35485 0.106798,0.62012 0.106798,0.26183 0.2928333,0.43064 0.1791451,0.16536 0.423747,0.24804 0.2480471,0.0827 0.5443255,0.0827 0.3927411,0 0.7889271,-0.15503 0.399632,-0.15848 0.568441,-0.31006 h 0.03445 v 0.70624 q -0.327284,0.13781 -0.6683486,0.23083 -0.3410647,0.093 -0.7165803,0.093 -0.9577372,0 -1.4951724,-0.51676 -0.5374353,-0.52021 -0.5374353,-1.4745 0,-0.94396 0.5133196,-1.49862 0.5167646,-0.55466 1.3573685,-0.55466 0.7785921,0 1.1988935,0.45475 0.423747,0.45475 0.423747,1.29191 z m -0.630452,-0.49609 q -0.0034,-0.50988 -0.2583827,-0.78893 -0.2514921,-0.27905 -0.7682568,-0.27905 -0.5202098,0 -0.8302685,0.30661 -0.3066137,0.30662 -0.3479549,0.76137 z"
         id="path316" />
      <path
         d="m 17.328152,176.83435 h -0.647679 v -2.19108 q 0,-0.24805 -0.02412,-0.47887 -0.02067,-0.23082 -0.09302,-0.36863 -0.07924,-0.14813 -0.227377,-0.22393 -0.148139,-0.0758 -0.427192,-0.0758 -0.272162,0 -0.544325,0.1378 -0.272163,0.13436 -0.544326,0.34451 0.01034,0.0792 0.01723,0.18604 0.0069,0.10335 0.0069,0.20671 v 2.46324 h -0.647678 v -2.19108 q 0,-0.25494 -0.02412,-0.48232 -0.02067,-0.23082 -0.09302,-0.36862 -0.07924,-0.14814 -0.227376,-0.22049 -0.148139,-0.0758 -0.427192,-0.0758 -0.265273,0 -0.53399,0.13091 -0.265273,0.13092 -0.530545,0.33418 v 2.87321 h -0.647679 v -3.84817 h 0.647679 v 0.42719 q 0.303168,-0.25149 0.602892,-0.39274 0.303168,-0.14125 0.644233,-0.14125 0.392741,0 0.664904,0.16536 0.275608,0.16537 0.409967,0.4582 0.392741,-0.33073 0.71658,-0.47542 0.323839,-0.14814 0.692464,-0.14814 0.633898,0 0.933622,0.38585 0.303169,0.38241 0.303169,1.07142 z"
         id="path318" />
      <path
         d="m 21.85501,174.91199 q 0,0.94051 -0.482314,1.48483 -0.482313,0.54433 -1.291911,0.54433 -0.816489,0 -1.298802,-0.54433 -0.478869,-0.54432 -0.478869,-1.48483 0,-0.94052 0.478869,-1.48484 0.482313,-0.54777 1.298802,-0.54777 0.809598,0 1.291911,0.54777 0.482314,0.54432 0.482314,1.48484 z m -0.668349,0 q 0,-0.74759 -0.292833,-1.10933 -0.292834,-0.36518 -0.813043,-0.36518 -0.5271,0 -0.819934,0.36518 -0.289388,0.36174 -0.289388,1.10933 0,0.72347 0.292833,1.09898 0.292834,0.37207 0.816489,0.37207 0.516764,0 0.809598,-0.36862 0.296278,-0.37207 0.296278,-1.10243 z"
         id="path320" />
      <path
         d="m 25.258767,173.69242 h -0.03445 q -0.144694,-0.0344 -0.282498,-0.0482 -0.134359,-0.0172 -0.320394,-0.0172 -0.299723,0 -0.578776,0.13436 -0.279053,0.13092 -0.537436,0.34107 v 2.73196 h -0.647678 v -3.84817 h 0.647678 v 0.56844 q 0.385851,-0.31006 0.678685,-0.43753 0.296278,-0.13091 0.602892,-0.13091 0.16881,0 0.244602,0.0103 0.07579,0.007 0.227376,0.031 z"
         id="path322" />
      <path
         d="m 29.196513,172.98618 -2.246203,5.26755 h -0.692465 l 0.71658,-1.60541 -1.533068,-3.66214 h 0.7028 l 1.181668,2.85254 1.192004,-2.85254 z"
         id="path324" />
    </g>
    <g
       aria-label="-"
       id="text1760-3"
       style="font-size:10.5833px;line-height:1.25;font-family:sans-serif;word-spacing:0px;display:inline;stroke-width:0.264583"
       transform="translate(64.387336,147.50611)">
      <path
         d="m -48.334459,40.379236 h -3.224599 v -0.935341 h 3.224599 z"
         style="stroke-width:0.264583"
         id="path1762-7" />
    </g>
    <g
       aria-label="WIPE"
       id="text494"
       style="font-size:4.23333px;line-height:1.25;word-spacing:0px;stroke-width:0.264583">
      <path
         d="m 12.860314,191.61454 -0.799951,3.07784 H 11.59941 l -0.646988,-2.55488 -0.632519,2.55488 H 9.8692845 l -0.8144198,-3.07784 h 0.4196122 l 0.6469881,2.55901 0.636653,-2.55901 h 0.415479 l 0.642854,2.58382 0.642854,-2.58382 z"
         id="path496" />
      <path
         d="M 14.549099,194.69238 H 13.33367 v -0.31419 h 0.403076 v -2.44946 H 13.33367 v -0.31419 h 1.215429 v 0.31419 h -0.403076 v 2.44946 h 0.403076 z"
         id="path498" />
      <path
         d="m 17.259008,192.54471 q 0,0.20464 -0.07235,0.38034 -0.07028,0.17363 -0.198437,0.30179 -0.159163,0.15916 -0.376204,0.23978 -0.217041,0.0786 -0.54777,0.0786 H 15.65497 v 1.14721 h -0.409277 v -3.07784 h 0.83509 q 0.276986,0 0.469222,0.0475 0.192236,0.0455 0.341064,0.14469 0.1757,0.11783 0.270785,0.29353 0.09715,0.17569 0.09715,0.44441 z m -0.425813,0.0103 q 0,-0.15917 -0.05581,-0.27699 -0.05581,-0.11782 -0.169498,-0.19223 -0.09922,-0.0641 -0.227376,-0.0909 -0.126091,-0.0289 -0.320394,-0.0289 h -0.405143 v 1.22989 h 0.345198 q 0.248047,0 0.403076,-0.0434 0.155029,-0.0455 0.252181,-0.14263 0.09715,-0.0992 0.136426,-0.20877 0.04134,-0.10956 0.04134,-0.24598 z"
         id="path500" />
      <path
         d="M 19.826291,194.69238 H 17.79851 v -3.07784 h 2.027781 v 0.3638 h -1.618504 v 0.84336 h 1.618504 v 0.3638 h -1.618504 v 1.14308 h 1.618504 z"
         id="path502" />
    </g>
    <g
       aria-label="SECONDS"
       id="text582"
       style="font-size:4.23333px;line-height:1.25;word-spacing:0px;stroke-width:0.264583"
       transform="translate(62.570978,0.85989553)">
      <path
         d="m -56.08753,207.30899 q 0,0.17983 -0.08475,0.35553 -0.08268,0.1757 -0.233578,0.29766 -0.165364,0.13229 -0.386539,0.2067 -0.219108,0.0744 -0.529166,0.0744 -0.332796,0 -0.599446,-0.062 -0.264584,-0.062 -0.539502,-0.18396 v -0.51263 h 0.02894 q 0.233577,0.1943 0.539501,0.29972 0.305925,0.10542 0.574642,0.10542 0.380338,0 0.591178,-0.14263 0.212906,-0.14262 0.212906,-0.38034 0,-0.20463 -0.101285,-0.30179 -0.09922,-0.0971 -0.303858,-0.15089 -0.155029,-0.0413 -0.33693,-0.0682 -0.179833,-0.0269 -0.382405,-0.0682 -0.409277,-0.0868 -0.607714,-0.29559 -0.19637,-0.21084 -0.19637,-0.54777 0,-0.38654 0.326594,-0.63251 0.326595,-0.24805 0.82889,-0.24805 0.324527,0 0.595312,0.062 0.270784,0.062 0.479556,0.15296 v 0.48369 h -0.02894 q -0.1757,-0.14882 -0.463021,-0.24598 -0.285253,-0.0992 -0.584976,-0.0992 -0.328662,0 -0.529167,0.13642 -0.198437,0.13643 -0.198437,0.3514 0,0.19224 0.09922,0.30179 0.09922,0.10955 0.349332,0.16743 0.132292,0.0289 0.376204,0.0703 0.243913,0.0413 0.413411,0.0848 0.343131,0.0909 0.516764,0.27492 0.173633,0.18397 0.173633,0.5147 z"
         id="path584" />
      <path
         d="m -53.402425,208.18748 h -2.027782 v -3.07784 h 2.027782 v 0.3638 h -1.618505 v 0.84336 h 1.618505 v 0.3638 h -1.618505 v 1.14308 h 1.618505 z"
         id="path586" />
      <path
         d="m -50.376255,207.96424 q -0.113689,0.0496 -0.206706,0.093 -0.09095,0.0434 -0.239778,0.0909 -0.126091,0.0393 -0.274919,0.0661 -0.146761,0.0289 -0.324528,0.0289 -0.334863,0 -0.609781,-0.093 -0.272851,-0.0951 -0.475423,-0.29559 -0.198437,-0.19637 -0.310058,-0.49816 -0.111621,-0.30386 -0.111621,-0.70487 0,-0.38034 0.107487,-0.68006 0.107487,-0.29972 0.310058,-0.50643 0.19637,-0.2005 0.473356,-0.30592 0.279052,-0.10542 0.618049,-0.10542 0.248047,0 0.494027,0.0599 0.248046,0.06 0.549837,0.21084 v 0.48576 h -0.03101 q -0.254248,-0.21291 -0.504362,-0.31006 -0.250114,-0.0971 -0.535367,-0.0971 -0.233578,0 -0.42168,0.0765 -0.186035,0.0744 -0.332796,0.23358 -0.142626,0.15503 -0.223242,0.39274 -0.07855,0.23564 -0.07855,0.5457 0,0.32453 0.08682,0.55811 0.08888,0.23357 0.227376,0.38034 0.144694,0.15296 0.33693,0.22737 0.194303,0.0724 0.409277,0.0724 0.295589,0 0.553971,-0.10129 0.258382,-0.10128 0.483691,-0.30385 h 0.02894 z"
         id="path588" />
      <path
         d="m -47.503049,205.46311 q 0.188102,0.2067 0.287321,0.50642 0.101285,0.29973 0.101285,0.68007 0,0.38033 -0.103352,0.68212 -0.101286,0.29973 -0.285254,0.50023 -0.190169,0.20877 -0.450618,0.31419 -0.258382,0.10542 -0.591178,0.10542 -0.324528,0 -0.591178,-0.10748 -0.264583,-0.10749 -0.450618,-0.31213 -0.186035,-0.20464 -0.287321,-0.50229 -0.09922,-0.29766 -0.09922,-0.68006 0,-0.37621 0.09922,-0.67386 0.09922,-0.29973 0.289388,-0.51263 0.181901,-0.20258 0.450618,-0.31006 0.270784,-0.10749 0.589111,-0.10749 0.330729,0 0.593245,0.10955 0.264583,0.10749 0.448551,0.308 z m -0.03721,1.18649 q 0,-0.59945 -0.268717,-0.92398 -0.268717,-0.32659 -0.733805,-0.32659 -0.469222,0 -0.737939,0.32659 -0.26665,0.32453 -0.26665,0.92398 0,0.60564 0.272851,0.9281 0.272852,0.3204 0.731738,0.3204 0.458886,0 0.729671,-0.3204 0.272851,-0.32246 0.272851,-0.9281 z"
         id="path590" />
      <path
         d="m -44.117211,208.18748 h -0.506429 l -1.459341,-2.75331 v 2.75331 h -0.382405 v -3.07784 h 0.634586 l 1.331183,2.51354 v -2.51354 h 0.382406 z"
         id="path592" />
      <path
         d="m -40.698302,206.65166 q 0,0.41961 -0.183968,0.76068 -0.1819,0.34106 -0.485758,0.52917 -0.210839,0.13022 -0.471288,0.1881 -0.258382,0.0579 -0.682129,0.0579 h -0.777212 v -3.07784 h 0.768944 q 0.450618,0 0.715201,0.0661 0.266651,0.0641 0.450619,0.17777 0.314192,0.19637 0.489892,0.52297 0.175699,0.32659 0.175699,0.77514 z m -0.42788,-0.006 q 0,-0.36173 -0.12609,-0.60978 -0.126091,-0.24805 -0.376205,-0.39067 -0.1819,-0.10336 -0.386539,-0.14263 -0.204638,-0.0413 -0.489892,-0.0413 h -0.384472 v 2.37505 h 0.384472 q 0.295589,0 0.514697,-0.0434 0.221175,-0.0434 0.405143,-0.16123 0.229443,-0.14676 0.343131,-0.38654 0.115755,-0.23978 0.115755,-0.59945 z"
         id="path594" />
      <path
         d="m -37.800289,207.30899 q 0,0.17983 -0.08475,0.35553 -0.08268,0.1757 -0.233578,0.29766 -0.165364,0.13229 -0.386539,0.2067 -0.219108,0.0744 -0.529166,0.0744 -0.332796,0 -0.599446,-0.062 -0.264584,-0.062 -0.539502,-0.18396 v -0.51263 h 0.02894 q 0.233577,0.1943 0.539501,0.29972 0.305925,0.10542 0.574642,0.10542 0.380338,0 0.591178,-0.14263 0.212906,-0.14262 0.212906,-0.38034 0,-0.20463 -0.101285,-0.30179 -0.09922,-0.0971 -0.303858,-0.15089 -0.155029,-0.0413 -0.33693,-0.0682 -0.179833,-0.0269 -0.382405,-0.0682 -0.409277,-0.0868 -0.607714,-0.29559 -0.19637,-0.21084 -0.19637,-0.54777 0,-0.38654 0.326594,-0.63251 0.326595,-0.24805 0.82889,-0.24805 0.324527,0 0.595312,0.062 0.270784,0.062 0.479556,0.15296 v 0.48369 h -0.02894 q -0.1757,-0.14882 -0.463021,-0.24598 -0.285253,-0.0992 -0.584976,-0.0992 -0.328662,0 -0.529167,0.13642 -0.198437,0.13643 -0.198437,0.3514 0,0.19224 0.09922,0.30179 0.09922,0.10955 0.349332,0.16743 0.132292,0.0289 0.376204,0.0703 0.243913,0.0413 0.413411,0.0848 0.343131,0.0909 0.516764,0.27492 0.173633,0.18397 0.173633,0.5147 z"
         id="path596" />
    </g>
  </g>
  <g
     inkscape:groupmode="layer"
     id="layer2"
     inkscape:label="components"
     style="display:none">
    <circle
       r="4"
       cy="187.41768"
       cx="8.0240002"
       id="circle4956-3-5-3"
       style="display:inline;opacity:1;vector-effect:none;fill:#00ff00;fill-opacity:1;fill-rule:evenodd;stroke:none;stroke-width:1;stroke-linecap:butt;stroke-linejoin:miter;stroke-miterlimit:4;stroke-dasharray:none;stroke-dashoffset:0;stroke-opacity:1;paint-order:normal"
       inkscape:label="play_trigger"
       transform="translate(0,-168.49998)" />
    <circle
       style="display:inline;opacity:1;vector-effect:none;fill:#ff0000;fill-opacity:1;fill-rule:evenodd;stroke:none;stroke-width:1;stroke-linecap:butt;stroke-linejoin:miter;stroke-miterlimit:4;stroke-dasharray:none;stroke-dashoffset:0;stroke-opacity:1;paint-order:normal"
       id="path4954-3-0-2-9-7-7-1"
       cx="20.971441"
       cy="187.41768"
       r="4"
       inkscape:label="play_button"
       transform="translate(0,-168.49998)" />
    <circle
       style="display:inline;opacity:1;vector-effect:none;fill:#ff0000;fill-opacity:1;fill-rule:evenodd;stroke:none;stroke-width:1;stroke-linecap:butt;stroke-linejoin:miter;stroke-miterlimit:4;stroke-dasharray:none;stroke-dashoffset:0;stroke-opacity:1;paint-order:normal"
       id="path4954"
       cx="14.440578"
       cy="201.33682"
       r="4"
       inkscape:label="seconds"
       transform="translate(0,-168.49998)" />
  </g>
</svg>
