<?xml version="1.0" encoding="UTF-8" standalone="no"?>
<svg
   width="30.48mm"
   height="128.5mm"
   viewBox="0 0 30.480002 128.50002"
   version="1.1"
   id="svg8"
   inkscape:version="1.2.1 (9c6d41e410, 2022-07-14)"
   sodipodi:docname="Memory.svg"
   xmlns:inkscape="http://www.inkscape.org/namespaces/inkscape"
   xmlns:sodipodi="http://sodipodi.sourceforge.net/DTD/sodipodi-0.dtd"
   xmlns="http://www.w3.org/2000/svg"
   xmlns:svg="http://www.w3.org/2000/svg"
   xmlns:rdf="http://www.w3.org/1999/02/22-rdf-syntax-ns#"
   xmlns:cc="http://creativecommons.org/ns#"
   xmlns:dc="http://purl.org/dc/elements/1.1/">
  <defs
     id="defs2" />
  <sodipodi:namedview
     id="base"
     pagecolor="#ffffff"
     bordercolor="#666666"
     borderopacity="1.0"
     inkscape:pageopacity="0.0"
     inkscape:pageshadow="2"
     inkscape:zoom="1.4142136"
     inkscape:cx="-405.52573"
     inkscape:cy="236.88077"
     inkscape:document-units="mm"
     inkscape:current-layer="g1684"
     showgrid="false"
     units="mm"
     inkscape:snap-bbox="true"
     inkscape:snap-page="true"
     inkscape:bbox-nodes="false"
     inkscape:snap-bbox-edge-midpoints="false"
     inkscape:window-width="2560"
     inkscape:window-height="1369"
     inkscape:window-x="-8"
     inkscape:window-y="-8"
     inkscape:window-maximized="1"
     inkscape:snap-bbox-midpoints="true"
     inkscape:snap-nodes="false"
     inkscape:document-rotation="0"
     inkscape:showpageshadow="2"
     inkscape:pagecheckerboard="0"
     inkscape:deskcolor="#d1d1d1" />
  <metadata
     id="metadata5">
    <rdf:RDF>
      <cc:Work
         rdf:about="">
        <dc:format>image/svg+xml</dc:format>
        <dc:type
           rdf:resource="http://purl.org/dc/dcmitype/StillImage" />
      </cc:Work>
    </rdf:RDF>
  </metadata>
  <g
     inkscape:label="Background"
     inkscape:groupmode="layer"
     id="layer1"
     transform="translate(0,-168.49998)"
     style="display:inline">
    <rect
       style="display:inline;opacity:1;fill:#e8f1f2;fill-opacity:1;fill-rule:evenodd;stroke:none;stroke-width:0.649358;stroke-linecap:butt;stroke-linejoin:miter;stroke-miterlimit:4;stroke-dasharray:none;stroke-dashoffset:0;stroke-opacity:1;paint-order:normal"
       id="rect420"
       width="30.48"
       height="128.5"
       x="5.9211732e-17"
       y="168.49997" />
    <g
       aria-label="!"
       transform="matrix(1.1167128,-0.15549235,0.12836675,1.3252781,-2.30373,165.39159)"
       id="text912"
       style="font-style:normal;font-weight:normal;font-size:127.426px;line-height:1.25;font-family:sans-serif;display:inline;fill:#338adf;fill-opacity:1;stroke:none;stroke-width:3.18552;stroke-miterlimit:4;stroke-dasharray:none">
      <path
         d="M 17.007808,5.7176488 15.390095,72.852735 H 4.8127414 L 3.070589,5.7176488 Z M 16.385611,98.362823 H 3.6927863 V 85.234461 H 16.385611 Z"
         style="fill:#338adf;fill-opacity:1;stroke-width:3.18552;stroke-miterlimit:4;stroke-dasharray:none"
         id="path1767" />
    </g>
  </g>
  <g
     inkscape:label="Layer 1"
     inkscape:groupmode="layer"
     id="g1684"
     transform="translate(0,-168.49998)"
     style="display:inline;opacity:1">
    <g
       aria-label="Memory"
       id="text1086"
       style="font-size:7.05556px;line-height:1.25;word-spacing:0px;stroke-width:0.264583"
       transform="translate(0,1.0583333)">
      <path
         d="M 6.1832607,176.83435 H 5.5011313 v -4.42006 l -1.4262704,3.00757 H 3.6683393 l -1.4159351,-3.00757 v 4.42006 H 1.6150611 v -5.12975 h 0.9301764 l 1.3677038,2.85599 1.3229175,-2.85599 h 0.9474019 z"
         id="path314" />
      <path
         d="M 10.730789,174.97744 H 7.8954741 q 0,0.35485 0.106798,0.62012 0.106798,0.26183 0.2928333,0.43064 0.1791451,0.16536 0.423747,0.24804 0.2480471,0.0827 0.5443255,0.0827 0.3927411,0 0.7889271,-0.15503 0.399632,-0.15848 0.568441,-0.31006 h 0.03445 v 0.70624 q -0.327284,0.13781 -0.6683486,0.23083 -0.3410647,0.093 -0.7165803,0.093 -0.9577372,0 -1.4951724,-0.51676 -0.5374353,-0.52021 -0.5374353,-1.4745 0,-0.94396 0.5133196,-1.49862 0.5167646,-0.55466 1.3573685,-0.55466 0.7785921,0 1.1988935,0.45475 0.423747,0.45475 0.423747,1.29191 z m -0.630452,-0.49609 q -0.0034,-0.50988 -0.2583827,-0.78893 -0.2514921,-0.27905 -0.7682568,-0.27905 -0.5202098,0 -0.8302685,0.30661 -0.3066137,0.30662 -0.3479549,0.76137 z"
         id="path316" />
      <path
         d="m 17.328152,176.83435 h -0.647679 v -2.19108 q 0,-0.24805 -0.02412,-0.47887 -0.02067,-0.23082 -0.09302,-0.36863 -0.07924,-0.14813 -0.227377,-0.22393 -0.148139,-0.0758 -0.427192,-0.0758 -0.272162,0 -0.544325,0.1378 -0.272163,0.13436 -0.544326,0.34451 0.01034,0.0792 0.01723,0.18604 0.0069,0.10335 0.0069,0.20671 v 2.46324 h -0.647678 v -2.19108 q 0,-0.25494 -0.02412,-0.48232 -0.02067,-0.23082 -0.09302,-0.36862 -0.07924,-0.14814 -0.227376,-0.22049 -0.148139,-0.0758 -0.427192,-0.0758 -0.265273,0 -0.53399,0.13091 -0.265273,0.13092 -0.530545,0.33418 v 2.87321 h -0.647679 v -3.84817 h 0.647679 v 0.42719 q 0.303168,-0.25149 0.602892,-0.39274 0.303168,-0.14125 0.644233,-0.14125 0.392741,0 0.664904,0.16536 0.275608,0.16537 0.409967,0.4582 0.392741,-0.33073 0.71658,-0.47542 0.323839,-0.14814 0.692464,-0.14814 0.633898,0 0.933622,0.38585 0.303169,0.38241 0.303169,1.07142 z"
         id="path318" />
      <path
         d="m 21.85501,174.91199 q 0,0.94051 -0.482314,1.48483 -0.482313,0.54433 -1.291911,0.54433 -0.816489,0 -1.298802,-0.54433 -0.478869,-0.54432 -0.478869,-1.48483 0,-0.94052 0.478869,-1.48484 0.482313,-0.54777 1.298802,-0.54777 0.809598,0 1.291911,0.54777 0.482314,0.54432 0.482314,1.48484 z m -0.668349,0 q 0,-0.74759 -0.292833,-1.10933 -0.292834,-0.36518 -0.813043,-0.36518 -0.5271,0 -0.819934,0.36518 -0.289388,0.36174 -0.289388,1.10933 0,0.72347 0.292833,1.09898 0.292834,0.37207 0.816489,0.37207 0.516764,0 0.809598,-0.36862 0.296278,-0.37207 0.296278,-1.10243 z"
         id="path320" />
      <path
         d="m 25.258767,173.69242 h -0.03445 q -0.144694,-0.0344 -0.282498,-0.0482 -0.134359,-0.0172 -0.320394,-0.0172 -0.299723,0 -0.578776,0.13436 -0.279053,0.13092 -0.537436,0.34107 v 2.73196 h -0.647678 v -3.84817 h 0.647678 v 0.56844 q 0.385851,-0.31006 0.678685,-0.43753 0.296278,-0.13091 0.602892,-0.13091 0.16881,0 0.244602,0.0103 0.07579,0.007 0.227376,0.031 z"
         id="path322" />
      <path
         d="m 29.196513,172.98618 -2.246203,5.26755 h -0.692465 l 0.71658,-1.60541 -1.533068,-3.66214 h 0.7028 l 1.181668,2.85254 1.192004,-2.85254 z"
         id="path324" />
    </g>
    <g
       aria-label="-"
       id="text1760-3"
       style="font-size:10.5833px;line-height:1.25;font-family:sans-serif;word-spacing:0px;display:inline;stroke-width:0.264583"
       transform="translate(64.387336,147.50611)">
      <path
         d="m -48.334459,40.379236 h -3.224599 v -0.935341 h 3.224599 z"
         style="stroke-width:0.264583"
         id="path1762-7" />
    </g>
    <g
       aria-label="WIPE"
       id="text494"
       style="font-size:4.23333px;line-height:1.25;word-spacing:0px;stroke-width:0.264583">
      <path
         d="m 12.860314,191.61454 -0.799951,3.07784 H 11.59941 l -0.646988,-2.55488 -0.632519,2.55488 H 9.8692845 l -0.8144198,-3.07784 h 0.4196122 l 0.6469881,2.55901 0.636653,-2.55901 h 0.415479 l 0.642854,2.58382 0.642854,-2.58382 z"
         id="path496" />
      <path
         d="M 14.549099,194.69238 H 13.33367 v -0.31419 h 0.403076 v -2.44946 H 13.33367 v -0.31419 h 1.215429 v 0.31419 h -0.403076 v 2.44946 h 0.403076 z"
         id="path498" />
      <path
         d="m 17.259008,192.54471 q 0,0.20464 -0.07235,0.38034 -0.07028,0.17363 -0.198437,0.30179 -0.159163,0.15916 -0.376204,0.23978 -0.217041,0.0786 -0.54777,0.0786 h -0.409277 v 1.14721 h -0.409277 v -3.07784 h 0.83509 q 0.276986,0 0.469222,0.0475 0.192236,0.0455 0.341064,0.14469 0.1757,0.11783 0.270785,0.29353 0.09715,0.17569 0.09715,0.44441 z m -0.425813,0.0103 q 0,-0.15917 -0.05581,-0.27699 -0.05581,-0.11782 -0.169498,-0.19223 -0.09922,-0.0641 -0.227376,-0.0909 -0.126091,-0.0289 -0.320394,-0.0289 h -0.405143 v 1.22989 h 0.345198 q 0.248047,0 0.403076,-0.0434 0.155029,-0.0455 0.252181,-0.14263 0.09715,-0.0992 0.136426,-0.20877 0.04134,-0.10956 0.04134,-0.24598 z"
         id="path500" />
      <path
         d="M 19.826291,194.69238 H 17.79851 v -3.07784 h 2.027781 v 0.3638 h -1.618504 v 0.84336 h 1.618504 v 0.3638 h -1.618504 v 1.14308 h 1.618504 z"
         id="path502" />
    </g>
  </g>
  <g
     inkscape:groupmode="layer"
     id="layer2"
     inkscape:label="components"
     style="display:none">
    <circle
       r="4"
       cy="187.41768"
       cx="8.0240002"
       id="circle4956-3-5-3"
       style="display:inline;opacity:1;vector-effect:none;fill:#00ff00;fill-opacity:1;fill-rule:evenodd;stroke:none;stroke-width:1;stroke-linecap:butt;stroke-linejoin:miter;stroke-miterlimit:4;stroke-dasharray:none;stroke-dashoffset:0;stroke-opacity:1;paint-order:normal"
       inkscape:label="play_trigger"
       transform="translate(0,-168.49998)" />
    <circle
       style="display:inline;opacity:1;vector-effect:none;fill:#ff0000;fill-opacity:1;fill-rule:evenodd;stroke:none;stroke-width:1;stroke-linecap:butt;stroke-linejoin:miter;stroke-miterlimit:4;stroke-dasharray:none;stroke-dashoffset:0;stroke-opacity:1;paint-order:normal"
       id="path4954-3-0-2-9-7-7-1"
       cx="20.971441"
       cy="187.41768"
       r="4"
       inkscape:label="play_button"
       transform="translate(0,-168.49998)" />
  </g>
</svg>
