<?xml version="1.0" encoding="UTF-8" standalone="no"?>
<svg
   width="30.48mm"
   height="128.5mm"
   viewBox="0 0 30.480002 128.50002"
   version="1.1"
   id="svg8"
   inkscape:version="1.2.1 (9c6d41e410, 2022-07-14)"
   sodipodi:docname="Recall.svg"
   xmlns:inkscape="http://www.inkscape.org/namespaces/inkscape"
   xmlns:sodipodi="http://sodipodi.sourceforge.net/DTD/sodipodi-0.dtd"
   xmlns="http://www.w3.org/2000/svg"
   xmlns:svg="http://www.w3.org/2000/svg"
   xmlns:rdf="http://www.w3.org/1999/02/22-rdf-syntax-ns#"
   xmlns:cc="http://creativecommons.org/ns#"
   xmlns:dc="http://purl.org/dc/elements/1.1/">
  <defs
     id="defs2" />
  <sodipodi:namedview
     id="base"
     pagecolor="#ffffff"
     bordercolor="#666666"
     borderopacity="1.0"
     inkscape:pageopacity="0.0"
     inkscape:pageshadow="2"
     inkscape:zoom="2.0000001"
     inkscape:cx="-363.49998"
     inkscape:cy="207.99999"
     inkscape:document-units="mm"
     inkscape:current-layer="g1684"
     showgrid="false"
     units="mm"
     inkscape:snap-bbox="true"
     inkscape:snap-page="true"
     inkscape:bbox-nodes="false"
     inkscape:snap-bbox-edge-midpoints="false"
     inkscape:window-width="2560"
     inkscape:window-height="1369"
     inkscape:window-x="-8"
     inkscape:window-y="-8"
     inkscape:window-maximized="1"
     inkscape:snap-bbox-midpoints="true"
     inkscape:snap-nodes="false"
     inkscape:document-rotation="0"
     inkscape:showpageshadow="2"
     inkscape:pagecheckerboard="0"
     inkscape:deskcolor="#d1d1d1" />
  <metadata
     id="metadata5">
    <rdf:RDF>
      <cc:Work
         rdf:about="">
        <dc:format>image/svg+xml</dc:format>
        <dc:type
           rdf:resource="http://purl.org/dc/dcmitype/StillImage" />
      </cc:Work>
    </rdf:RDF>
  </metadata>
  <g
     inkscape:label="Background"
     inkscape:groupmode="layer"
     id="layer1"
     transform="translate(0,-168.49998)"
     style="display:inline">
    <rect
       style="display:inline;opacity:1;vector-effect:none;fill:#e8f1f2;fill-opacity:1;fill-rule:evenodd;stroke:none;stroke-width:0.649358;stroke-linecap:butt;stroke-linejoin:miter;stroke-miterlimit:4;stroke-dasharray:none;stroke-dashoffset:0;stroke-opacity:1;paint-order:normal"
       id="rect420"
       width="30.48"
       height="128.5"
       x="5.9211732e-17"
       y="168.49997" />
    <g
       aria-label="!"
       transform="matrix(1.1167128,-0.15549235,0.12836675,1.3252781,-2.30373,165.39159)"
       id="text912"
       style="font-style:normal;font-weight:normal;font-size:127.426px;line-height:1.25;font-family:sans-serif;display:inline;fill:#99ffa4;fill-opacity:1;stroke:none;stroke-width:3.18552;stroke-miterlimit:4;stroke-dasharray:none">
      <path
         d="M 17.007808,5.7176488 15.390095,72.852735 H 4.8127414 L 3.070589,5.7176488 Z M 16.385611,98.362823 H 3.6927863 V 85.234461 H 16.385611 Z"
         style="fill:#00cfff;fill-opacity:1;stroke-width:3.18552;stroke-miterlimit:4;stroke-dasharray:none"
         id="path1767" />
    </g>
  </g>
  <g
     inkscape:label="Layer 1"
     inkscape:groupmode="layer"
     id="g1684"
     transform="translate(0,-168.49998)"
     style="display:inline;opacity:1">
    <g
       aria-label="Recall"
       id="text532"
       style="font-size:7.05556px;line-height:1.25;word-spacing:0px;stroke-width:0.264583"
       transform="translate(0,1.0583333)">
      <path
         d="M 9.6958826,177.62811 H 8.8104925 l -1.7156587,-2.0395 H 6.1336516 v 2.0395 H 5.4515222 v -5.12975 H 6.888128 q 0.4650881,0 0.7751469,0.062 0.3100588,0.0586 0.5581059,0.2136 0.2790529,0.1757 0.4340823,0.44442 0.1584745,0.26527 0.1584745,0.67524 0,0.55466 -0.2790529,0.93017 -0.279053,0.37207 -0.7682568,0.56155 z m -1.5950802,-3.68625 q 0,-0.22049 -0.079237,-0.3893 -0.075792,-0.17225 -0.2549372,-0.28939 -0.1481392,-0.0999 -0.3514,-0.1378 -0.2032608,-0.0413 -0.4788686,-0.0413 h -0.802708 v 1.93614 h 0.6890195 q 0.3238392,0 0.564996,-0.0551 0.2411569,-0.0586 0.4099667,-0.21359 0.1550294,-0.1447 0.2273764,-0.33073 0.075792,-0.18948 0.075792,-0.47887 z"
         id="path588" />
      <path
         d="m 13.354576,175.77121 h -2.835315 q 0,0.35484 0.106798,0.62011 0.106798,0.26183 0.292833,0.43064 0.179145,0.16536 0.423747,0.24805 0.248047,0.0827 0.544326,0.0827 0.392741,0 0.788927,-0.15503 0.399632,-0.15847 0.568441,-0.31006 h 0.03445 v 0.70625 q -0.327284,0.1378 -0.668349,0.23082 -0.341064,0.093 -0.71658,0.093 -0.957737,0 -1.495172,-0.51677 -0.5374356,-0.52021 -0.5374356,-1.4745 0,-0.94396 0.5133196,-1.49862 0.516765,-0.55466 1.357368,-0.55466 0.778593,0 1.198894,0.45475 0.423747,0.45476 0.423747,1.29192 z m -0.630452,-0.4961 q -0.0034,-0.50987 -0.258383,-0.78893 -0.251492,-0.27905 -0.768257,-0.27905 -0.520209,0 -0.830268,0.30661 -0.306614,0.30662 -0.347955,0.76137 z"
         id="path590" />
      <path
         d="m 17.18208,177.38696 q -0.323839,0.15503 -0.616673,0.24115 -0.289388,0.0861 -0.616672,0.0861 -0.416857,0 -0.764812,-0.12058 -0.347955,-0.12402 -0.596002,-0.37207 -0.251492,-0.24805 -0.389296,-0.62701 -0.137804,-0.37896 -0.137804,-0.88539 0,-0.94395 0.516765,-1.48139 0.52021,-0.53743 1.371149,-0.53743 0.330729,0 0.647678,0.093 0.320394,0.093 0.585667,0.22738 v 0.72003 h -0.03445 q -0.296278,-0.23083 -0.613227,-0.35485 -0.313504,-0.12402 -0.613228,-0.12402 -0.551215,0 -0.87161,0.37207 -0.316948,0.36862 -0.316948,1.0852 0,0.69591 0.310058,1.07143 0.313504,0.37207 0.8785,0.37207 0.196371,0 0.399632,-0.0517 0.20326,-0.0517 0.36518,-0.13436 0.141249,-0.0723 0.265272,-0.15158 0.124024,-0.0827 0.196371,-0.14125 h 0.03445 z"
         id="path592" />
      <path
         d="M 21.002694,177.62811 H 20.35846 v -0.40996 q -0.08613,0.0586 -0.234266,0.16536 -0.144694,0.10335 -0.282498,0.16537 -0.16192,0.0792 -0.372071,0.13091 -0.210151,0.0551 -0.492649,0.0551 -0.52021,0 -0.881945,-0.34451 -0.361735,-0.34451 -0.361735,-0.8785 0,-0.43753 0.186035,-0.70624 0.189481,-0.27217 0.537435,-0.4272 0.3514,-0.15503 0.844049,-0.21015 0.492649,-0.0551 1.057645,-0.0827 v -0.0999 q 0,-0.22048 -0.07924,-0.36518 -0.07579,-0.14469 -0.220486,-0.22737 -0.137804,-0.0792 -0.33073,-0.1068 -0.192925,-0.0276 -0.403076,-0.0276 -0.254937,0 -0.568441,0.0689 -0.313504,0.0655 -0.647678,0.19292 h -0.03445 v -0.65801 q 0.18948,-0.0517 0.54777,-0.11369 0.35829,-0.062 0.706245,-0.062 0.406522,0 0.706245,0.0689 0.303169,0.0655 0.523655,0.22738 0.217041,0.15847 0.330729,0.40997 0.113689,0.25149 0.113689,0.62356 z m -0.644234,-0.9474 v -1.07142 q -0.296278,0.0172 -0.699354,0.0517 -0.399632,0.0345 -0.633898,0.0999 -0.279053,0.0792 -0.451308,0.24805 -0.172255,0.16536 -0.172255,0.45819 0,0.33073 0.199816,0.49954 0.199815,0.16537 0.609782,0.16537 0.341064,0 0.623562,-0.13091 0.282498,-0.13436 0.523655,-0.3204 z"
         id="path594" />
      <path
         d="M 22.904388,177.62811 H 22.25671 v -5.36057 h 0.647678 z"
         id="path596" />
      <path
         d="m 24.840532,177.62811 h -0.647679 v -5.36057 h 0.647679 z"
         id="path598" />
    </g>
    <rect
       style="display:inline;fill:#000000;fill-opacity:0.88755;stroke-width:0.311;image-rendering:auto"
       id="rect652"
       width="25.958046"
       height="10.721942"
       x="1.7082843"
       y="275.13901"
       ry="2.5005453" />
    <rect
       style="display:inline;fill:#000000;fill-opacity:0.88755;stroke-width:0.175583;image-rendering:auto"
       id="rect652-7"
       width="10.616776"
       height="8.3559361"
       x="15.662773"
       y="218.32201"
       ry="1.9487509" />
    <g
       aria-label="-"
       id="text1760-3"
       style="font-size:10.5833px;line-height:1.25;font-family:sans-serif;word-spacing:0px;display:inline;stroke-width:0.264583"
       transform="translate(64.387058,208.58841)">
      <path
         d="m -48.334459,40.379236 h -3.224599 v -0.935341 h 3.224599 z"
         style="stroke-width:0.264583"
         id="path1762-7" />
    </g>
    <g
       aria-label="-"
       id="text1760-3-2"
       style="font-size:10.5833px;line-height:1.25;font-family:sans-serif;word-spacing:0px;display:inline;opacity:1;stroke-width:0.264583"
       transform="translate(64.387058,176.58836)" />
    <path
       style="display:inline;fill:#000000;fill-opacity:1;stroke:#000000;stroke-width:0.0949555;stroke-miterlimit:4;stroke-dasharray:none;stroke-opacity:1"
       id="path923"
       sodipodi:type="arc"
       sodipodi:cx="8.0237198"
       sodipodi:cy="194.87401"
       sodipodi:rx="0.45252839"
       sodipodi:ry="0.45253617"
       sodipodi:start="0.36229666"
       sodipodi:end="0.35175191"
       sodipodi:arc-type="slice"
       d="m 8.4468724,195.0344 a 0.45252839,0.45253617 0 0 1 -0.5824229,0.26319 0.45252839,0.45253617 0 0 1 -0.2647221,-0.58174 0.45252839,0.45253617 0 0 1 0.5810272,-0.26626 0.45252839,0.45253617 0 0 1 0.2677855,0.58034 l -0.4248203,-0.15592 z" />
    <path
       style="display:inline;fill:#000000;fill-opacity:1;stroke:#000000;stroke-width:0.0949555;stroke-miterlimit:4;stroke-dasharray:none;stroke-opacity:1"
       id="path923-3"
       sodipodi:type="arc"
       sodipodi:cx="12.166001"
       sodipodi:cy="196.90919"
       sodipodi:rx="0.45252839"
       sodipodi:ry="0.45253617"
       sodipodi:start="0.36229666"
       sodipodi:end="0.35175191"
       sodipodi:arc-type="slice"
       d="m 12.589154,197.06958 a 0.45252839,0.45253617 0 0 1 -0.582423,0.2632 0.45252839,0.45253617 0 0 1 -0.264722,-0.58174 0.45252839,0.45253617 0 0 1 0.581027,-0.26626 0.45252839,0.45253617 0 0 1 0.267786,0.58033 l -0.424821,-0.15592 z" />
    <path
       style="display:inline;fill:#000000;fill-opacity:1;stroke:#000000;stroke-width:0.0949555;stroke-miterlimit:4;stroke-dasharray:none;stroke-opacity:1"
       id="path923-3-2"
       sodipodi:type="arc"
       sodipodi:cx="3.8820012"
       sodipodi:cy="196.90919"
       sodipodi:rx="0.45252839"
       sodipodi:ry="0.45253617"
       sodipodi:start="0.36229666"
       sodipodi:end="0.35175191"
       sodipodi:arc-type="slice"
       d="m 4.3051538,197.06958 a 0.45252839,0.45253617 0 0 1 -0.5824229,0.2632 0.45252839,0.45253617 0 0 1 -0.2647221,-0.58174 0.45252839,0.45253617 0 0 1 0.5810272,-0.26626 0.45252839,0.45253617 0 0 1 0.2677855,0.58033 l -0.4248203,-0.15592 z" />
    <g
       aria-label="L"
       id="text1685"
       style="font-size:7.05556px;line-height:1.25;word-spacing:0px;stroke-width:0.264583"
       transform="translate(0,-0.52916667)">
      <path
         d="m 9.6463625,292.45724 h -3.245282 v -5.12975 h 0.6821293 v 4.52342 h 2.5631527 z"
         id="path1691" />
    </g>
    <g
       aria-label="R"
       id="text1689"
       style="font-size:7.05556px;line-height:1.25;word-spacing:0px;stroke-width:0.264583"
       transform="translate(0,-0.52916667)">
      <path
         d="m 23.093342,292.45724 h -0.88539 l -1.715659,-2.03949 h -0.961182 v 2.03949 h -0.68213 v -5.12975 h 1.436606 q 0.465088,0 0.775147,0.062 0.310059,0.0586 0.558106,0.21359 0.279053,0.1757 0.434082,0.44442 0.158475,0.26527 0.158475,0.67524 0,0.55466 -0.279053,0.93018 -0.279053,0.37207 -0.768257,0.56155 z m -1.595081,-3.68625 q 0,-0.22049 -0.07924,-0.3893 -0.07579,-0.17225 -0.254937,-0.28938 -0.148139,-0.0999 -0.3514,-0.13781 -0.203261,-0.0413 -0.478869,-0.0413 h -0.802707 v 1.93615 h 0.689019 q 0.323839,0 0.564996,-0.0551 0.241157,-0.0586 0.409967,-0.21359 0.155029,-0.1447 0.227376,-0.33073 0.07579,-0.18948 0.07579,-0.47887 z"
         id="path1694" />
    </g>
    <g
       aria-label="SPEED"
       id="text1878"
       style="font-size:3.52778px;line-height:1.25;word-spacing:0px;stroke-width:0.264583"
       transform="translate(0.01860039)">
      <path
         d="m 17.289558,207.19081 q 0,0.14987 -0.07062,0.29628 -0.0689,0.14642 -0.194648,0.24805 -0.137804,0.11024 -0.322116,0.17225 -0.182591,0.062 -0.440973,0.062 -0.27733,0 -0.499539,-0.0517 -0.220486,-0.0517 -0.449585,-0.15331 v -0.42719 h 0.02412 q 0.194648,0.16192 0.449586,0.24977 0.254937,0.0879 0.478868,0.0879 0.316949,0 0.492649,-0.11886 0.177423,-0.11885 0.177423,-0.31694 0,-0.17054 -0.08441,-0.2515 -0.08268,-0.081 -0.253215,-0.12574 -0.129191,-0.0344 -0.280775,-0.0568 -0.149862,-0.0224 -0.318672,-0.0568 -0.341064,-0.0724 -0.506429,-0.24633 -0.163642,-0.1757 -0.163642,-0.45647 0,-0.32212 0.272162,-0.5271 0.272163,-0.20671 0.690742,-0.20671 0.270441,0 0.496095,0.0517 0.225653,0.0517 0.399631,0.12747 v 0.40307 h -0.02412 q -0.146416,-0.12402 -0.385851,-0.20498 -0.237711,-0.0827 -0.487481,-0.0827 -0.273885,0 -0.440973,0.11369 -0.165364,0.11369 -0.165364,0.29283 0,0.1602 0.08268,0.25149 0.08268,0.0913 0.291111,0.13953 0.110243,0.0241 0.313504,0.0586 0.20326,0.0345 0.34451,0.0706 0.285943,0.0758 0.430637,0.2291 0.144694,0.15331 0.144694,0.42891 z"
         id="path1893" />
      <path
         d="m 19.515091,206.13317 q 0,0.17053 -0.06029,0.31695 -0.05857,0.14469 -0.165365,0.25149 -0.132636,0.13264 -0.313504,0.19982 -0.180867,0.0654 -0.456475,0.0654 h -0.341065 v 0.95602 h -0.341065 v -2.56488 h 0.69591 q 0.230822,0 0.391019,0.0396 0.160197,0.0379 0.28422,0.12058 0.146417,0.0982 0.225654,0.2446 0.08096,0.14642 0.08096,0.37035 z m -0.354845,0.009 q 0,-0.13263 -0.04651,-0.23082 -0.04651,-0.0982 -0.141249,-0.1602 -0.08268,-0.0534 -0.18948,-0.0758 -0.105076,-0.0241 -0.266995,-0.0241 h -0.33762 v 1.02491 h 0.287666 q 0.206706,0 0.335897,-0.0362 0.129191,-0.0379 0.210151,-0.11886 0.08096,-0.0827 0.113688,-0.17397 0.03445,-0.0913 0.03445,-0.20499 z"
         id="path1895" />
      <path
         d="m 21.654497,207.9229 h -1.68982 v -2.56488 h 1.68982 v 0.30317 h -1.348756 v 0.7028 h 1.348756 v 0.30317 h -1.348756 v 0.95257 h 1.348756 z"
         id="path1897" />
      <path
         d="m 23.885197,207.9229 h -1.68982 v -2.56488 h 1.68982 v 0.30317 h -1.348755 v 0.7028 h 1.348755 v 0.30317 h -1.348755 v 0.95257 h 1.348755 z"
         id="path1899" />
      <path
         d="m 26.593044,206.64304 q 0,0.34968 -0.153307,0.6339 -0.151584,0.28422 -0.404799,0.44097 -0.1757,0.10852 -0.392741,0.15676 -0.215319,0.0482 -0.568441,0.0482 h -0.647678 v -2.56488 h 0.640788 q 0.375515,0 0.596002,0.0551 0.222208,0.0534 0.375515,0.14814 0.261828,0.16364 0.408244,0.43581 0.146417,0.27216 0.146417,0.64595 z m -0.356568,-0.005 q 0,-0.30145 -0.105075,-0.50816 -0.105076,-0.2067 -0.313504,-0.32556 -0.151584,-0.0861 -0.322117,-0.11885 -0.170532,-0.0344 -0.408244,-0.0344 h -0.320394 v 1.9792 h 0.320394 q 0.246325,0 0.428915,-0.0362 0.184313,-0.0362 0.33762,-0.13436 0.191202,-0.1223 0.285943,-0.32211 0.09646,-0.19982 0.09646,-0.49954 z"
         id="path1901" />
    </g>
    <g
       aria-label="LOOP"
       id="text1882"
       style="font-size:3.52778px;line-height:1.25;word-spacing:0px;stroke-width:0.264583"
       transform="translate(-0.26978401,-0.0902)">
      <path
         d="m 5.3358894,208.01311 h -1.622641 v -2.56488 h 0.3410647 v 2.26171 h 1.2815763 z"
         id="path1884" />
      <path
         d="m 7.5545324,205.74279 q 0.156752,0.17225 0.2394343,0.42202 0.084405,0.24977 0.084405,0.56672 0,0.31695 -0.086127,0.56844 -0.084405,0.24977 -0.2377118,0.41686 -0.1584745,0.17398 -0.3755156,0.26183 -0.2153186,0.0879 -0.492649,0.0879 -0.2704402,0 -0.492649,-0.0896 -0.2204862,-0.0896 -0.3755156,-0.2601 -0.1550294,-0.17053 -0.2394343,-0.41858 -0.082682,-0.24805 -0.082682,-0.56672 0,-0.3135 0.082682,-0.56155 0.082682,-0.24977 0.2411568,-0.42719 0.1515843,-0.16881 0.3755157,-0.25838 0.2256539,-0.0896 0.4909264,-0.0896 0.2756078,0 0.4943715,0.0913 0.2204863,0.0896 0.3737931,0.25666 z m -0.031006,0.98874 q 0,-0.49954 -0.2239313,-0.76998 -0.2239314,-0.27216 -0.6115049,-0.27216 -0.3910185,0 -0.6149499,0.27216 -0.2222088,0.27044 -0.2222088,0.76998 0,0.50471 0.2273765,0.77343 0.2273764,0.26699 0.6097822,0.26699 0.3824059,0 0.6080598,-0.26699 0.2273764,-0.26872 0.2273764,-0.77343 z"
         id="path1886" />
      <path
         d="m 10.331281,205.74279 q 0.156752,0.17225 0.239434,0.42202 0.08441,0.24977 0.08441,0.56672 0,0.31695 -0.08613,0.56844 -0.08441,0.24977 -0.237712,0.41686 -0.158475,0.17398 -0.3755158,0.26183 -0.2153186,0.0879 -0.492649,0.0879 -0.2704402,0 -0.492649,-0.0896 -0.2204862,-0.0896 -0.3755156,-0.2601 -0.1550294,-0.17053 -0.2394343,-0.41858 -0.082682,-0.24805 -0.082682,-0.56672 0,-0.3135 0.082682,-0.56155 0.082682,-0.24977 0.2411568,-0.42719 0.1515843,-0.16881 0.3755157,-0.25838 0.2256539,-0.0896 0.4909264,-0.0896 0.2756078,0 0.4943715,0.0913 0.2204863,0.0896 0.3737933,0.25666 z m -0.03101,0.98874 q 0,-0.49954 -0.223931,-0.76998 -0.2239317,-0.27216 -0.6115052,-0.27216 -0.3910186,0 -0.61495,0.27216 -0.2222088,0.27044 -0.2222088,0.76998 0,0.50471 0.2273765,0.77343 0.2273764,0.26699 0.6097823,0.26699 0.3824058,0 0.6080602,-0.26699 0.227376,-0.26872 0.227376,-0.77343 z"
         id="path1888" />
      <path
         d="m 12.873763,206.22338 q 0,0.17053 -0.06029,0.31695 -0.05857,0.14469 -0.165365,0.25149 -0.132636,0.13264 -0.313504,0.19982 -0.180868,0.0654 -0.456475,0.0654 h -0.341065 v 0.95602 H 11.196 v -2.56488 h 0.69591 q 0.230822,0 0.391019,0.0396 0.160197,0.0379 0.28422,0.12058 0.146417,0.0982 0.225654,0.2446 0.08096,0.14642 0.08096,0.37035 z m -0.354845,0.009 q 0,-0.13263 -0.04651,-0.23082 -0.04651,-0.0982 -0.141249,-0.1602 -0.08268,-0.0534 -0.18948,-0.0758 -0.105076,-0.0241 -0.266995,-0.0241 h -0.33762 v 1.02491 h 0.287666 q 0.206705,0 0.335897,-0.0362 0.129191,-0.0379 0.210151,-0.11886 0.08096,-0.0827 0.113688,-0.17397 0.03445,-0.0913 0.03445,-0.20499 z"
         id="path1890" />
    </g>
    <g
       aria-label="PLAY"
       id="text1699"
       style="font-size:7.05556px;line-height:1.25;word-spacing:0px;display:inline;stroke-width:0.264583"
       transform="translate(0.81434419,168.49998)">
      <path
         d="m 9.6007962,86.908047 q 0,0.341064 -0.1205784,0.633898 -0.1171333,0.289388 -0.3307294,0.502984 -0.2652725,0.265272 -0.6270077,0.399631 -0.3617353,0.130914 -0.9129509,0.130914 H 6.9274004 v 1.912029 H 6.2452711 v -5.12975 h 1.3918194 q 0.4616431,0 0.7820372,0.07924 0.3203941,0.07579 0.5684411,0.241157 0.2928334,0.19637 0.4513078,0.489204 0.1619196,0.292833 0.1619196,0.740696 z m -0.7096901,0.01723 q 0,-0.265273 -0.093018,-0.461643 Q 8.7050708,86.267258 8.5155905,86.143235 8.3502258,86.036437 8.1366297,85.991651 7.9264788,85.943419 7.6026396,85.943419 H 6.9274004 v 2.049833 h 0.5753313 q 0.4134118,0 0.6717941,-0.07235 0.2583823,-0.07579 0.4203019,-0.237711 0.1619196,-0.165365 0.2273765,-0.347955 0.068902,-0.182591 0.068902,-0.409967 z"
         id="path1701" />
      <path
         d="m 13.745249,90.487503 h -3.245282 v -5.12975 h 0.682129 v 4.523413 h 2.563153 z"
         id="path1703" />
      <path
         d="M 18.471923,90.487503 H 17.745007 L 17.242023,89.057788 H 15.02338 l -0.502984,1.429715 h -0.692465 l 1.867243,-5.12975 h 0.909506 z m -1.440051,-2.015382 -0.899171,-2.518367 -0.902615,2.518367 z"
         id="path1705" />
      <path
         d="m 22.60604,85.357753 -1.805231,2.880101 v 2.249649 H 20.11868 v -2.177302 l -1.812122,-2.952448 h 0.754477 l 1.402154,2.294435 1.415936,-2.294435 z"
         id="path1707" />
    </g>
    <g
       aria-label="POSITION"
       transform="translate(0,168.49998)"
       id="text943"
       style="font-size:3.52778px;line-height:1.25;word-spacing:0px;display:inline;stroke-width:0.264583">
      <path
         d="m 7.6349294,47.788763 q 0,0.170532 -0.060289,0.316949 -0.058567,0.144694 -0.1653647,0.251492 -0.1326362,0.132636 -0.3135039,0.199816 -0.1808676,0.06546 -0.4564754,0.06546 H 6.2982315 v 0.956014 H 5.9571668 v -2.564875 h 0.6959098 q 0.2308215,0 0.3910186,0.03962 0.160197,0.0379 0.2842205,0.120578 0.1464167,0.09819 0.2256539,0.244602 0.08096,0.146417 0.08096,0.370348 z m -0.354845,0.0086 q 0,-0.132637 -0.046509,-0.230822 -0.046509,-0.09818 -0.141249,-0.160197 -0.082682,-0.0534 -0.1894803,-0.07579 -0.1050755,-0.02412 -0.2669951,-0.02412 H 6.2982315 v 1.024917 h 0.2876657 q 0.2067058,0 0.335897,-0.03617 0.1291912,-0.0379 0.210151,-0.118856 0.08096,-0.08268 0.1136882,-0.173977 0.034451,-0.09129 0.034451,-0.204983 z"
         id="path1151" />
      <path
         d="m 9.996544,47.308172 q 0.156752,0.172255 0.239434,0.422024 0.08441,0.24977 0.08441,0.566719 0,0.316949 -0.08613,0.568441 -0.08441,0.24977 -0.237712,0.416857 -0.1584745,0.173977 -0.3755156,0.261827 -0.2153186,0.08785 -0.492649,0.08785 -0.2704402,0 -0.492649,-0.08957 -0.2204862,-0.08957 -0.3755156,-0.260105 -0.1550294,-0.170533 -0.2394343,-0.41858 -0.082682,-0.248047 -0.082682,-0.566718 0,-0.313504 0.082682,-0.561551 0.082682,-0.24977 0.2411568,-0.427192 0.1515843,-0.16881 0.3755157,-0.258383 0.2256539,-0.08957 0.4909264,-0.08957 0.2756078,0 0.4943715,0.0913 0.2204863,0.08957 0.3737931,0.25666 z m -0.031006,0.988743 q 0,-0.499539 -0.2239313,-0.769979 -0.2239314,-0.272163 -0.6115049,-0.272163 -0.3910185,0 -0.6149499,0.272163 -0.2222088,0.27044 -0.2222088,0.769979 0,0.504707 0.2273764,0.773424 0.2273765,0.266995 0.6097823,0.266995 0.3824059,0 0.6080598,-0.266995 0.2273764,-0.268717 0.2273764,-0.773424 z"
         id="path1153" />
      <path
         d="m 12.725061,48.846408 q 0,0.149862 -0.07062,0.296278 -0.0689,0.146417 -0.194648,0.248047 -0.137804,0.110244 -0.322117,0.172255 -0.18259,0.06201 -0.440972,0.06201 -0.277331,0 -0.49954,-0.05168 -0.220486,-0.05168 -0.449585,-0.153307 v -0.427192 h 0.02412 q 0.194648,0.161919 0.449585,0.249769 0.254937,0.08785 0.478869,0.08785 0.316949,0 0.492649,-0.118856 0.177422,-0.118856 0.177422,-0.316949 0,-0.170532 -0.0844,-0.251492 -0.08268,-0.08096 -0.253214,-0.125746 -0.129191,-0.03445 -0.280776,-0.05684 -0.149862,-0.02239 -0.318671,-0.05684 -0.341065,-0.07235 -0.50643,-0.246325 -0.163642,-0.1757 -0.163642,-0.456475 0,-0.322117 0.272163,-0.5271 0.272163,-0.206706 0.690742,-0.206706 0.27044,0 0.496094,0.05168 0.225654,0.05168 0.399631,0.127468 v 0.403077 h -0.02412 q -0.146417,-0.124024 -0.385851,-0.204984 -0.237712,-0.08268 -0.487482,-0.08268 -0.273885,0 -0.440972,0.113688 -0.165365,0.113688 -0.165365,0.292834 0,0.160197 0.08268,0.251492 0.08268,0.0913 0.29111,0.139526 0.110243,0.02412 0.313504,0.05857 0.203261,0.03445 0.34451,0.07062 0.285943,0.07579 0.430637,0.229099 0.144694,0.153307 0.144694,0.428915 z"
         id="path1155" />
      <path
         d="m 14.17717,49.578491 h -1.012858 v -0.261827 h 0.335897 v -2.041221 h -0.335897 v -0.261827 h 1.012858 v 0.261827 h -0.335897 v 2.041221 h 0.335897 z"
         id="path1157" />
      <path
         d="M 16.587016,47.316785 H 15.67062 v 2.261706 h -0.341065 v -2.261706 h -0.916396 v -0.303169 h 2.173857 z"
         id="path1159" />
      <path
         d="m 17.835864,49.578491 h -1.012859 v -0.261827 h 0.335897 v -2.041221 h -0.335897 v -0.261827 h 1.012859 v 0.261827 h -0.335897 v 2.041221 h 0.335897 z"
         id="path1161" />
      <path
         d="m 20.328392,47.308172 q 0.156752,0.172255 0.239434,0.422024 0.08441,0.24977 0.08441,0.566719 0,0.316949 -0.08613,0.568441 -0.08441,0.24977 -0.237712,0.416857 -0.158474,0.173977 -0.375515,0.261827 -0.215319,0.08785 -0.492649,0.08785 -0.270441,0 -0.492649,-0.08957 -0.220487,-0.08957 -0.375516,-0.260105 -0.155029,-0.170533 -0.239434,-0.41858 -0.08268,-0.248047 -0.08268,-0.566718 0,-0.313504 0.08268,-0.561551 0.08268,-0.24977 0.241156,-0.427192 0.151585,-0.16881 0.375516,-0.258383 0.225654,-0.08957 0.490927,-0.08957 0.275607,0 0.494371,0.0913 0.220486,0.08957 0.373793,0.25666 z m -0.03101,0.988743 q 0,-0.499539 -0.223931,-0.769979 -0.223931,-0.272163 -0.611505,-0.272163 -0.391019,0 -0.61495,0.272163 -0.222209,0.27044 -0.222209,0.769979 0,0.504707 0.227377,0.773424 0.227376,0.266995 0.609782,0.266995 0.382406,0 0.60806,-0.266995 0.227376,-0.268717 0.227376,-0.773424 z"
         id="path1163" />
      <path
         d="m 23.149927,49.578491 h -0.422024 l -1.21612,-2.294435 v 2.294435 h -0.318671 v -2.564875 h 0.528822 l 1.109322,2.094619 v -2.094619 h 0.318671 z"
         id="path1165" />
    </g>
    <g
       aria-label="START"
       transform="translate(0,177.49587)"
       id="text997"
       style="font-size:4.23333px;line-height:1.25;word-spacing:0px;display:inline;stroke-width:0.264583">
      <path
         d="m 3.7469839,60.691097 q 0,0.179834 -0.084749,0.355533 -0.082682,0.1757 -0.2335773,0.297656 -0.1653645,0.132292 -0.3865394,0.206706 -0.2191079,0.07441 -0.5291662,0.07441 -0.332796,0 -0.5994461,-0.06201 -0.2645831,-0.06201 -0.5395015,-0.183968 v -0.51263 h 0.028939 q 0.2335773,0.194304 0.5395015,0.299724 0.3059243,0.105419 0.5746415,0.105419 0.3803382,0 0.5911779,-0.142626 0.2129067,-0.142627 0.2129067,-0.380339 0,-0.204638 -0.1012857,-0.30179 -0.099219,-0.09715 -0.3038572,-0.150895 -0.1550292,-0.04134 -0.33693,-0.06821 -0.1798339,-0.02687 -0.3824053,-0.06821 -0.409277,-0.08682 -0.6077144,-0.295588 -0.1963702,-0.21084 -0.1963702,-0.54777 0,-0.38654 0.3265947,-0.632519 0.3265948,-0.248047 0.8288893,-0.248047 0.3245277,0 0.595312,0.06201 0.2707843,0.06201 0.4795569,0.152962 v 0.483691 H 3.5940221 Q 3.4183224,58.985778 3.1310017,58.888626 2.845748,58.789406 2.546025,58.789406 q -0.3286619,0 -0.5291663,0.136425 -0.1984373,0.136426 -0.1984373,0.3514 0,0.192236 0.099219,0.30179 0.099219,0.109554 0.3493324,0.167431 0.1322915,0.02894 0.3762041,0.07028 0.2439125,0.04134 0.4134111,0.08475 0.3431312,0.09095 0.5167639,0.274918 0.1736326,0.183968 0.173632,0.514697 z"
         id="path1170" />
      <path
         d="M 6.5995206,58.855551 H 5.499847 v 2.714044 H 5.09057 V 58.855551 H 3.9908965 V 58.49175 h 2.6086241 z"
         id="path1172" />
      <path
         d="M 9.1916081,61.569595 H 8.7554594 L 8.4536693,60.711767 H 7.1224855 L 6.8206954,61.569595 H 6.4052173 L 7.5255614,58.49175 H 8.071264 Z M 8.3275789,60.360368 7.7880774,58.84935 7.2465089,60.360368 Z"
         id="path1174" />
      <path
         d="m 12.205375,61.569595 h -0.531233 l -1.029394,-1.223697 h -0.576709 v 1.223697 H 9.6587624 V 58.49175 h 0.8619626 q 0.279052,0 0.465087,0.03721 0.186035,0.03514 0.334863,0.128157 0.167432,0.10542 0.260449,0.26665 0.09508,0.159164 0.09508,0.405143 0,0.332796 -0.167432,0.558105 -0.167431,0.223242 -0.460953,0.33693 z m -0.957047,-2.211749 q 0,-0.132292 -0.04754,-0.233577 -0.04548,-0.103353 -0.152962,-0.173633 -0.08888,-0.05995 -0.21084,-0.08268 -0.121956,-0.02481 -0.287321,-0.02481 h -0.481624 v 1.161685 h 0.413412 q 0.194303,0 0.338997,-0.03307 0.144694,-0.03514 0.245979,-0.128157 0.09302,-0.08682 0.136426,-0.198437 0.04548,-0.113688 0.04548,-0.287321 z"
         id="path1176" />
      <path
         d="m 14.673439,58.855551 h -1.099673 v 2.714044 H 13.164489 V 58.855551 H 12.064815 V 58.49175 h 2.608624 z"
         id="path1178" />
    </g>
    <g
       aria-label="NOW"
       transform="translate(0,177.49587)"
       id="text1005"
       style="font-size:4.23333px;line-height:1.25;word-spacing:0px;display:inline;stroke-width:0.264583">
      <path
         d="m 18.278821,61.569595 h -0.506429 l -1.459341,-2.753318 v 2.753318 H 15.930646 V 58.49175 h 0.634586 l 1.331184,2.513539 V 58.49175 h 0.382405 z"
         id="path1513" />
      <path
         d="m 21.391807,58.845216 q 0.188102,0.206706 0.287321,0.506429 0.101285,0.299723 0.101285,0.680061 0,0.380338 -0.103353,0.682128 -0.101285,0.299723 -0.285253,0.500228 -0.190169,0.208772 -0.450618,0.314192 -0.258382,0.10542 -0.591178,0.10542 -0.324528,0 -0.591178,-0.107487 -0.264583,-0.107487 -0.450618,-0.312125 -0.186035,-0.204639 -0.287321,-0.502295 -0.09922,-0.297656 -0.09922,-0.680061 0,-0.376204 0.09922,-0.67386 0.09922,-0.299723 0.289388,-0.51263 0.181901,-0.202571 0.450618,-0.310058 0.270784,-0.107487 0.589111,-0.107487 0.330729,0 0.593245,0.109554 0.264583,0.107487 0.448551,0.307991 z m -0.03721,1.18649 q 0,-0.599446 -0.268717,-0.923974 -0.268718,-0.326595 -0.733805,-0.326595 -0.469222,0 -0.737939,0.326595 -0.26665,0.324528 -0.26665,0.923974 0,0.605647 0.272851,0.928108 0.272852,0.320394 0.731738,0.320394 0.458886,0 0.72967,-0.320394 0.272852,-0.322461 0.272852,-0.928108 z"
         id="path1515" />
      <path
         d="m 26.011676,58.49175 -0.799951,3.077845 h -0.460953 l -0.646988,-2.55488 -0.632519,2.55488 H 23.020646 L 22.206227,58.49175 h 0.419612 l 0.646988,2.559014 0.636653,-2.559014 h 0.415479 l 0.642854,2.583819 0.642854,-2.583819 z"
         id="path1517" />
    </g>
  </g>
  <g
     inkscape:groupmode="layer"
     id="layer2"
     inkscape:label="components"
     style="display:none">
    <circle
       style="display:inline;opacity:1;vector-effect:none;fill:#ff0000;fill-opacity:1;fill-rule:evenodd;stroke:none;stroke-width:1;stroke-linecap:butt;stroke-linejoin:miter;stroke-miterlimit:4;stroke-dasharray:none;stroke-dashoffset:0;stroke-opacity:1;paint-order:normal"
       id="path4954"
       cx="20.971161"
       cy="31.999954"
       r="4"
       inkscape:label="speed" />
    <circle
       style="display:inline;opacity:1;vector-effect:none;fill:#0000ff;fill-opacity:1;fill-rule:evenodd;stroke:none;stroke-width:1;stroke-linecap:butt;stroke-linejoin:miter;stroke-miterlimit:4;stroke-dasharray:none;stroke-dashoffset:0;stroke-opacity:1;paint-order:normal"
       id="circle4958"
       cx="20.971161"
       cy="112"
       r="4"
       inkscape:label="right_out" />
    <circle
       style="display:inline;vector-effect:none;fill:#0000ff;fill-opacity:1;fill-rule:evenodd;stroke:none;stroke-width:1;stroke-linecap:butt;stroke-linejoin:miter;stroke-miterlimit:4;stroke-dasharray:none;stroke-dashoffset:0;stroke-opacity:1;paint-order:normal"
       id="circle4958-1"
       cx="20.971161"
       cy="54"
       r="4"
       inkscape:label="now_position" />
    <circle
       style="display:inline;opacity:1;vector-effect:none;fill:#0000ff;fill-opacity:1;fill-rule:evenodd;stroke:none;stroke-width:1;stroke-linecap:butt;stroke-linejoin:miter;stroke-miterlimit:4;stroke-dasharray:none;stroke-dashoffset:0;stroke-opacity:1;paint-order:normal"
       id="circle4958-4"
       cx="8.0237217"
       cy="112"
       r="4"
       inkscape:label="left_out" />
    <circle
       r="4"
       cy="80"
       cx="8.0237217"
       id="circle4956-3-5"
       style="display:inline;opacity:1;vector-effect:none;fill:#00ff00;fill-opacity:1;fill-rule:evenodd;stroke:none;stroke-width:1;stroke-linecap:butt;stroke-linejoin:miter;stroke-miterlimit:4;stroke-dasharray:none;stroke-dashoffset:0;stroke-opacity:1;paint-order:normal"
       inkscape:label="play_trigger" />
    <circle
       style="display:inline;vector-effect:none;fill:#ff0000;fill-opacity:1;fill-rule:evenodd;stroke:none;stroke-width:1;stroke-linecap:butt;stroke-linejoin:miter;stroke-miterlimit:4;stroke-dasharray:none;stroke-dashoffset:0;stroke-opacity:1;paint-order:normal"
       id="path4954-3-0-2-9-0-5"
       cx="8.0237217"
       cy="54"
       r="4"
       inkscape:label="position" />
    <circle
       style="display:inline;opacity:1;vector-effect:none;fill:#ff0000;fill-opacity:1;fill-rule:evenodd;stroke:none;stroke-width:1;stroke-linecap:butt;stroke-linejoin:miter;stroke-miterlimit:4;stroke-dasharray:none;stroke-dashoffset:0;stroke-opacity:1;paint-order:normal"
       id="path4954-3-0-2-9-7-7"
       cx="20.971161"
       cy="80"
       r="4"
       inkscape:label="play_button" />
    <circle
       style="display:inline;opacity:1;vector-effect:none;fill:#ff0000;fill-opacity:1;fill-rule:evenodd;stroke:none;stroke-width:1;stroke-linecap:butt;stroke-linejoin:miter;stroke-miterlimit:4;stroke-dasharray:none;stroke-dashoffset:0;stroke-opacity:1;paint-order:normal"
       id="path4954-3"
       cx="8.0237217"
       cy="31.999954"
       r="4"
       inkscape:label="loop" />
    <circle
       style="display:inline;fill:#ff00ff;fill-opacity:1;fill-rule:evenodd;stroke:none;stroke-width:1;stroke-linecap:butt;stroke-linejoin:miter;stroke-miterlimit:4;stroke-dasharray:none;stroke-dashoffset:0;stroke-opacity:1;paint-order:normal"
       id="path4954-3-0-2-9-0-0"
       cx="3.3935137"
       cy="7.5595684"
       r="4"
       inkscape:label="connected" />
  </g>
</svg>
