<?xml version="1.0" encoding="UTF-8" standalone="no"?>
<svg
   width="30.48mm"
   height="128.5mm"
   viewBox="0 0 30.480002 128.50002"
   version="1.1"
   id="svg8"
   inkscape:version="1.2.1 (9c6d41e410, 2022-07-14)"
   sodipodi:docname="Remember.svg"
   xmlns:inkscape="http://www.inkscape.org/namespaces/inkscape"
   xmlns:sodipodi="http://sodipodi.sourceforge.net/DTD/sodipodi-0.dtd"
   xmlns="http://www.w3.org/2000/svg"
   xmlns:svg="http://www.w3.org/2000/svg"
   xmlns:rdf="http://www.w3.org/1999/02/22-rdf-syntax-ns#"
   xmlns:cc="http://creativecommons.org/ns#"
   xmlns:dc="http://purl.org/dc/elements/1.1/">
  <defs
     id="defs2" />
  <sodipodi:namedview
     id="base"
     pagecolor="#ffffff"
     bordercolor="#666666"
     borderopacity="1.0"
     inkscape:pageopacity="0.0"
     inkscape:pageshadow="2"
     inkscape:zoom="2.0000001"
     inkscape:cx="-225.24999"
     inkscape:cy="234.49999"
     inkscape:document-units="mm"
     inkscape:current-layer="g1684"
     showgrid="false"
     units="mm"
     inkscape:snap-bbox="true"
     inkscape:snap-page="true"
     inkscape:bbox-nodes="false"
     inkscape:snap-bbox-edge-midpoints="false"
     inkscape:window-width="2560"
     inkscape:window-height="1369"
     inkscape:window-x="-8"
     inkscape:window-y="-8"
     inkscape:window-maximized="1"
     inkscape:snap-bbox-midpoints="true"
     inkscape:snap-nodes="false"
     inkscape:document-rotation="0"
     inkscape:showpageshadow="2"
     inkscape:pagecheckerboard="0"
     inkscape:deskcolor="#d1d1d1" />
  <metadata
     id="metadata5">
    <rdf:RDF>
      <cc:Work
         rdf:about="">
        <dc:format>image/svg+xml</dc:format>
        <dc:type
           rdf:resource="http://purl.org/dc/dcmitype/StillImage" />
      </cc:Work>
    </rdf:RDF>
  </metadata>
  <g
     inkscape:label="Background"
     inkscape:groupmode="layer"
     id="layer1"
     transform="translate(0,-168.49998)"
     style="display:inline">
    <rect
       style="display:inline;opacity:1;vector-effect:none;fill:#e8f1f2;fill-opacity:1;fill-rule:evenodd;stroke:none;stroke-width:0.649358;stroke-linecap:butt;stroke-linejoin:miter;stroke-miterlimit:4;stroke-dasharray:none;stroke-dashoffset:0;stroke-opacity:1;paint-order:normal"
       id="rect420"
       width="30.48"
       height="128.5"
       x="5.9211732e-17"
       y="168.49997" />
    <g
       aria-label="!"
       transform="matrix(1.1167128,-0.15549235,0.12836675,1.3252781,-2.30373,165.39159)"
       id="text912"
       style="font-style:normal;font-weight:normal;font-size:127.426px;line-height:1.25;font-family:sans-serif;display:inline;fill:#99ffa4;fill-opacity:1;stroke:none;stroke-width:3.18552;stroke-miterlimit:4;stroke-dasharray:none">
      <path
         d="M 17.007808,5.7176488 15.390095,72.852735 H 4.8127414 L 3.070589,5.7176488 Z M 16.385611,98.362823 H 3.6927863 V 85.234461 H 16.385611 Z"
         style="fill:#509de5;fill-opacity:1;stroke-width:3.18552;stroke-miterlimit:4;stroke-dasharray:none"
         id="path1767" />
    </g>
  </g>
  <g
     inkscape:label="Layer 1"
     inkscape:groupmode="layer"
     id="g1684"
     transform="translate(0,-168.49998)"
     style="display:inline;opacity:1">
    <g
       aria-label="-"
       id="text1760-3"
       style="font-size:10.5833px;line-height:1.25;font-family:sans-serif;word-spacing:0px;display:inline;stroke-width:0.264583"
       transform="translate(64.387058,191.65497)">
      <path
         d="m -48.334459,40.379236 h -3.224599 v -0.935341 h 3.224599 z"
         style="stroke-width:0.264583"
         id="path1762-7" />
    </g>
    <g
       aria-label="-"
       id="text1760-3-2"
       style="font-size:10.5833px;line-height:1.25;font-family:sans-serif;word-spacing:0px;display:inline;opacity:1;stroke-width:0.264583"
       transform="translate(64.387058,176.58836)" />
    <path
       style="display:inline;fill:#000000;fill-opacity:1;stroke:#000000;stroke-width:0.0949555;stroke-miterlimit:4;stroke-dasharray:none;stroke-opacity:1"
       id="path923"
       sodipodi:type="arc"
       sodipodi:cx="8.0237198"
       sodipodi:cy="194.87401"
       sodipodi:rx="0.45252839"
       sodipodi:ry="0.45253617"
       sodipodi:start="0.36229666"
       sodipodi:end="0.35175191"
       sodipodi:arc-type="slice"
       d="m 8.4468724,195.0344 a 0.45252839,0.45253617 0 0 1 -0.5824229,0.26319 0.45252839,0.45253617 0 0 1 -0.2647221,-0.58174 0.45252839,0.45253617 0 0 1 0.5810272,-0.26626 0.45252839,0.45253617 0 0 1 0.2677855,0.58034 l -0.4248203,-0.15592 z" />
    <path
       style="display:inline;fill:#000000;fill-opacity:1;stroke:#000000;stroke-width:0.0949555;stroke-miterlimit:4;stroke-dasharray:none;stroke-opacity:1"
       id="path923-3"
       sodipodi:type="arc"
       sodipodi:cx="12.166001"
       sodipodi:cy="196.90919"
       sodipodi:rx="0.45252839"
       sodipodi:ry="0.45253617"
       sodipodi:start="0.36229666"
       sodipodi:end="0.35175191"
       sodipodi:arc-type="slice"
       d="m 12.589154,197.06958 a 0.45252839,0.45253617 0 0 1 -0.582423,0.2632 0.45252839,0.45253617 0 0 1 -0.264722,-0.58174 0.45252839,0.45253617 0 0 1 0.581027,-0.26626 0.45252839,0.45253617 0 0 1 0.267786,0.58033 l -0.424821,-0.15592 z" />
    <path
       style="display:inline;fill:#000000;fill-opacity:1;stroke:#000000;stroke-width:0.0949555;stroke-miterlimit:4;stroke-dasharray:none;stroke-opacity:1"
       id="path923-3-2"
       sodipodi:type="arc"
       sodipodi:cx="3.8820012"
       sodipodi:cy="196.90919"
       sodipodi:rx="0.45252839"
       sodipodi:ry="0.45253617"
       sodipodi:start="0.36229666"
       sodipodi:end="0.35175191"
       sodipodi:arc-type="slice"
       d="m 4.3051538,197.06958 a 0.45252839,0.45253617 0 0 1 -0.5824229,0.2632 0.45252839,0.45253617 0 0 1 -0.2647221,-0.58174 0.45252839,0.45253617 0 0 1 0.5810272,-0.26626 0.45252839,0.45253617 0 0 1 0.2677855,0.58033 l -0.4248203,-0.15592 z" />
    <g
       aria-label="L"
       id="text1685"
       style="font-size:7.05556px;line-height:1.25;word-spacing:0px;stroke-width:0.264583"
       transform="translate(0,-0.52916667)">
      <path
         d="m 9.6463625,292.45724 h -3.245282 v -5.12975 h 0.6821293 v 4.52342 h 2.5631527 z"
         id="path1691" />
    </g>
    <g
       aria-label="R"
       id="text1689"
       style="font-size:7.05556px;line-height:1.25;word-spacing:0px;stroke-width:0.264583"
       transform="translate(0,-0.52916667)">
      <path
         d="m 23.093342,292.45724 h -0.88539 l -1.715659,-2.03949 h -0.961182 v 2.03949 h -0.68213 v -5.12975 h 1.436606 q 0.465088,0 0.775147,0.062 0.310059,0.0586 0.558106,0.21359 0.279053,0.1757 0.434082,0.44442 0.158475,0.26527 0.158475,0.67524 0,0.55466 -0.279053,0.93018 -0.279053,0.37207 -0.768257,0.56155 z m -1.595081,-3.68625 q 0,-0.22049 -0.07924,-0.3893 -0.07579,-0.17225 -0.254937,-0.28938 -0.148139,-0.0999 -0.3514,-0.13781 -0.203261,-0.0413 -0.478869,-0.0413 h -0.802707 v 1.93615 h 0.689019 q 0.323839,0 0.564996,-0.0551 0.241157,-0.0586 0.409967,-0.21359 0.155029,-0.1447 0.227376,-0.33073 0.07579,-0.18948 0.07579,-0.47887 z"
         id="path1694" />
    </g>
    <g
       aria-label="LOOP"
       id="text1882"
       style="font-size:3.52778px;line-height:1.25;word-spacing:0px;stroke-width:0.264583"
       transform="translate(-0.26978401,-0.0902)">
      <path
         d="m 5.3358894,208.01311 h -1.622641 v -2.56488 h 0.3410647 v 2.26171 h 1.2815763 z"
         id="path1884" />
      <path
         d="m 7.5545324,205.74279 q 0.156752,0.17225 0.2394343,0.42202 0.084405,0.24977 0.084405,0.56672 0,0.31695 -0.086127,0.56844 -0.084405,0.24977 -0.2377118,0.41686 -0.1584745,0.17398 -0.3755156,0.26183 -0.2153186,0.0879 -0.492649,0.0879 -0.2704402,0 -0.492649,-0.0896 -0.2204862,-0.0896 -0.3755156,-0.2601 -0.1550294,-0.17053 -0.2394343,-0.41858 -0.082682,-0.24805 -0.082682,-0.56672 0,-0.3135 0.082682,-0.56155 0.082682,-0.24977 0.2411568,-0.42719 0.1515843,-0.16881 0.3755157,-0.25838 0.2256539,-0.0896 0.4909264,-0.0896 0.2756078,0 0.4943715,0.0913 0.2204863,0.0896 0.3737931,0.25666 z m -0.031006,0.98874 q 0,-0.49954 -0.2239313,-0.76998 -0.2239314,-0.27216 -0.6115049,-0.27216 -0.3910185,0 -0.6149499,0.27216 -0.2222088,0.27044 -0.2222088,0.76998 0,0.50471 0.2273765,0.77343 0.2273764,0.26699 0.6097822,0.26699 0.3824059,0 0.6080598,-0.26699 0.2273764,-0.26872 0.2273764,-0.77343 z"
         id="path1886" />
      <path
         d="m 10.331281,205.74279 q 0.156752,0.17225 0.239434,0.42202 0.08441,0.24977 0.08441,0.56672 0,0.31695 -0.08613,0.56844 -0.08441,0.24977 -0.237712,0.41686 -0.158475,0.17398 -0.3755158,0.26183 -0.2153186,0.0879 -0.492649,0.0879 -0.2704402,0 -0.492649,-0.0896 -0.2204862,-0.0896 -0.3755156,-0.2601 -0.1550294,-0.17053 -0.2394343,-0.41858 -0.082682,-0.24805 -0.082682,-0.56672 0,-0.3135 0.082682,-0.56155 0.082682,-0.24977 0.2411568,-0.42719 0.1515843,-0.16881 0.3755157,-0.25838 0.2256539,-0.0896 0.4909264,-0.0896 0.2756078,0 0.4943715,0.0913 0.2204863,0.0896 0.3737933,0.25666 z m -0.03101,0.98874 q 0,-0.49954 -0.223931,-0.76998 -0.2239317,-0.27216 -0.6115052,-0.27216 -0.3910186,0 -0.61495,0.27216 -0.2222088,0.27044 -0.2222088,0.76998 0,0.50471 0.2273765,0.77343 0.2273764,0.26699 0.6097823,0.26699 0.3824058,0 0.6080602,-0.26699 0.227376,-0.26872 0.227376,-0.77343 z"
         id="path1888" />
      <path
         d="m 12.873763,206.22338 q 0,0.17053 -0.06029,0.31695 -0.05857,0.14469 -0.165365,0.25149 -0.132636,0.13264 -0.313504,0.19982 -0.180868,0.0654 -0.456475,0.0654 h -0.341065 v 0.95602 H 11.196 v -2.56488 h 0.69591 q 0.230822,0 0.391019,0.0396 0.160197,0.0379 0.28422,0.12058 0.146417,0.0982 0.225654,0.2446 0.08096,0.14642 0.08096,0.37035 z m -0.354845,0.009 q 0,-0.13263 -0.04651,-0.23082 -0.04651,-0.0982 -0.141249,-0.1602 -0.08268,-0.0534 -0.18948,-0.0758 -0.105076,-0.0241 -0.266995,-0.0241 h -0.33762 v 1.02491 h 0.287666 q 0.206705,0 0.335897,-0.0362 0.129191,-0.0379 0.210151,-0.11886 0.08096,-0.0827 0.113688,-0.17397 0.03445,-0.0913 0.03445,-0.20499 z"
         id="path1890" />
    </g>
    <g
       aria-label="POSITION"
       id="text2811"
       style="font-size:3.52778px;line-height:1.25;word-spacing:0px;display:inline;stroke-width:0.264583"
       transform="translate(0,168.49998)">
      <path
         d="m 8.3213823,54.434225 q 0,0.170532 -0.060289,0.316949 -0.058567,0.144694 -0.1653647,0.251492 -0.1326363,0.132636 -0.3135039,0.199816 -0.1808676,0.06546 -0.4564754,0.06546 H 6.9846844 v 0.956014 H 6.6436197 v -2.564875 h 0.6959097 q 0.2308216,0 0.3910186,0.03962 0.1601971,0.0379 0.2842206,0.120578 0.1464166,0.09819 0.2256539,0.244602 0.08096,0.146417 0.08096,0.370348 z m -0.3548451,0.0086 q 0,-0.132637 -0.046509,-0.230822 -0.046509,-0.09819 -0.141249,-0.160197 -0.082682,-0.0534 -0.1894804,-0.07579 -0.1050755,-0.02412 -0.266995,-0.02412 H 6.9846844 v 1.024917 H 7.27235 q 0.2067059,0 0.3358971,-0.03617 0.1291911,-0.0379 0.2101509,-0.118856 0.08096,-0.08268 0.1136883,-0.173977 0.034451,-0.0913 0.034451,-0.204983 z"
         id="path2860" />
      <path
         d="m 10.682997,53.953634 q 0.156752,0.172255 0.239434,0.422024 0.08441,0.24977 0.08441,0.566719 0,0.316949 -0.08613,0.568441 -0.08441,0.24977 -0.237712,0.416857 -0.158475,0.173977 -0.375516,0.261827 -0.215318,0.08785 -0.4926487,0.08785 -0.2704402,0 -0.492649,-0.08957 Q 9.101697,56.098207 8.9466676,55.927675 8.7916382,55.757143 8.7072333,55.509095 8.624551,55.261048 8.624551,54.942377 q 0,-0.313504 0.082682,-0.561551 0.082682,-0.24977 0.2411569,-0.427192 0.1515843,-0.16881 0.3755156,-0.258382 0.2256539,-0.08957 0.4909265,-0.08957 0.275608,0 0.494372,0.09129 0.220486,0.08957 0.373793,0.25666 z m -0.03101,0.988743 q 0,-0.499539 -0.223931,-0.769979 -0.223932,-0.272163 -0.6115052,-0.272163 -0.3910186,0 -0.6149499,0.272163 -0.2222088,0.27044 -0.2222088,0.769979 0,0.504707 0.2273764,0.773424 0.2273765,0.266995 0.6097823,0.266995 0.3824062,0 0.6080602,-0.266995 0.227376,-0.268717 0.227376,-0.773424 z"
         id="path2862" />
      <path
         d="m 13.411514,55.49187 q 0,0.149862 -0.07062,0.296278 -0.0689,0.146417 -0.194648,0.248047 -0.137804,0.110244 -0.322117,0.172255 -0.18259,0.06201 -0.440972,0.06201 -0.277331,0 -0.49954,-0.05168 -0.220486,-0.05168 -0.449585,-0.153307 v -0.427192 h 0.02412 q 0.194648,0.161919 0.449585,0.249769 0.254937,0.08785 0.478869,0.08785 0.316949,0 0.492649,-0.118856 0.177422,-0.118856 0.177422,-0.316949 0,-0.170532 -0.08441,-0.251492 -0.08268,-0.08096 -0.253214,-0.125746 -0.129192,-0.03445 -0.280776,-0.05684 -0.149862,-0.02239 -0.318671,-0.05684 -0.341065,-0.07235 -0.50643,-0.246325 -0.163642,-0.1757 -0.163642,-0.456475 0,-0.322117 0.272163,-0.5271 0.272162,-0.206706 0.690742,-0.206706 0.27044,0 0.496094,0.05168 0.225654,0.05168 0.399631,0.127468 v 0.403077 h -0.02412 q -0.146417,-0.124024 -0.385851,-0.204984 -0.237712,-0.08268 -0.487482,-0.08268 -0.273885,0 -0.440972,0.113688 -0.165365,0.113688 -0.165365,0.292834 0,0.160197 0.08268,0.251492 0.08268,0.09129 0.291111,0.139526 0.110243,0.02412 0.313504,0.05857 0.203261,0.03445 0.34451,0.07062 0.285943,0.07579 0.430637,0.229099 0.144694,0.153307 0.144694,0.428915 z"
         id="path2864" />
      <path
         d="m 14.863623,56.223953 h -1.012859 v -0.261827 h 0.335897 v -2.041221 h -0.335897 v -0.261827 h 1.012859 v 0.261827 h -0.335897 v 2.041221 h 0.335897 z"
         id="path2866" />
      <path
         d="m 17.273468,53.962247 h -0.916396 v 2.261706 h -0.341064 v -2.261706 h -0.916396 v -0.303169 h 2.173856 z"
         id="path2868" />
      <path
         d="m 18.522316,56.223953 h -1.012858 v -0.261827 h 0.335897 v -2.041221 h -0.335897 v -0.261827 h 1.012858 v 0.261827 h -0.335897 v 2.041221 h 0.335897 z"
         id="path2870" />
      <path
         d="m 21.014845,53.953634 q 0.156752,0.172255 0.239434,0.422024 0.08441,0.24977 0.08441,0.566719 0,0.316949 -0.08613,0.568441 -0.08441,0.24977 -0.237712,0.416857 -0.158474,0.173977 -0.375516,0.261827 -0.215318,0.08785 -0.492649,0.08785 -0.27044,0 -0.492649,-0.08957 -0.220486,-0.08957 -0.375515,-0.260105 -0.15503,-0.170532 -0.239435,-0.41858 -0.08268,-0.248047 -0.08268,-0.566718 0,-0.313504 0.08268,-0.561551 0.08268,-0.24977 0.241157,-0.427192 0.151585,-0.16881 0.375516,-0.258382 0.225654,-0.08957 0.490926,-0.08957 0.275608,0 0.494372,0.09129 0.220486,0.08957 0.373793,0.25666 z m -0.03101,0.988743 q 0,-0.499539 -0.223931,-0.769979 -0.223932,-0.272163 -0.611505,-0.272163 -0.391019,0 -0.61495,0.272163 -0.222209,0.27044 -0.222209,0.769979 0,0.504707 0.227377,0.773424 0.227376,0.266995 0.609782,0.266995 0.382406,0 0.60806,-0.266995 0.227376,-0.268717 0.227376,-0.773424 z"
         id="path2872" />
      <path
         d="m 23.83638,56.223953 h -0.422025 l -1.216119,-2.294435 v 2.294435 h -0.318672 v -2.564875 h 0.528823 l 1.109321,2.094619 v -2.094619 h 0.318672 z"
         id="path2874" />
    </g>
    <g
       aria-label="Remember"
       id="text1020"
       style="font-size:4.23333px;line-height:1.25;word-spacing:0px;stroke-width:0.264583">
      <path
         d="M 6.4426109,177.63568 H 5.9113776 l -1.0293937,-1.2237 H 4.3052754 v 1.2237 h -0.409277 v -3.07784 h 0.8619622 q 0.2790525,0 0.4650875,0.0372 0.186035,0.0351 0.334863,0.12816 0.1674315,0.10542 0.260449,0.26665 0.095085,0.15916 0.095085,0.40514 0,0.3328 -0.1674315,0.55811 -0.1674315,0.22324 -0.4609534,0.33693 z m -0.9570467,-2.21175 q 0,-0.13229 -0.047542,-0.23358 -0.045475,-0.10335 -0.1529621,-0.17363 -0.088883,-0.0599 -0.2108397,-0.0827 -0.1219563,-0.0248 -0.2873207,-0.0248 h -0.481624 v 1.16169 h 0.4134112 q 0.1943032,0 0.3389971,-0.0331 0.1446939,-0.0351 0.2459796,-0.12816 0.093018,-0.0868 0.1364256,-0.19844 0.045475,-0.11369 0.045475,-0.28732 z"
         id="path342" />
      <path
         d="M 8.6378239,176.52154 H 6.9366372 q 0,0.2129 0.064079,0.37207 0.064079,0.15709 0.1756998,0.25838 0.1074869,0.0992 0.2542478,0.14883 0.148828,0.0496 0.3265948,0.0496 0.2356443,0 0.4733557,-0.093 0.2397784,-0.0951 0.3410642,-0.18604 h 0.020671 v 0.42375 q -0.1963703,0.0827 -0.4010088,0.13849 -0.2046385,0.0558 -0.4299475,0.0558 -0.5746415,0 -0.8971021,-0.31005 -0.3224607,-0.31213 -0.3224607,-0.8847 0,-0.56638 0.3079913,-0.89917 0.3100583,-0.3328 0.8144199,-0.3328 0.4671545,0 0.7193353,0.27285 0.2542478,0.27285 0.2542478,0.77515 z m -0.3782711,-0.29766 q -0.00207,-0.30592 -0.1550292,-0.47335 -0.150895,-0.16744 -0.4609534,-0.16744 -0.3121254,0 -0.4981604,0.18397 -0.1839679,0.18397 -0.2087726,0.45682 z"
         id="path344" />
      <path
         d="m 12.596235,177.63568 h -0.388606 v -1.31465 q 0,-0.14882 -0.01447,-0.28732 -0.0124,-0.13849 -0.05581,-0.22117 -0.04754,-0.0889 -0.136426,-0.13436 -0.08888,-0.0455 -0.256314,-0.0455 -0.163298,0 -0.326595,0.0827 -0.163298,0.0806 -0.326595,0.2067 0.0062,0.0475 0.01033,0.11162 0.0041,0.062 0.0041,0.12403 v 1.47794 h -0.388606 v -1.31465 q 0,-0.15296 -0.01447,-0.28938 -0.0124,-0.1385 -0.05581,-0.22118 -0.04754,-0.0889 -0.136426,-0.13229 -0.08888,-0.0455 -0.256314,-0.0455 -0.159164,0 -0.3203941,0.0786 -0.1591633,0.0786 -0.3183265,0.20051 v 1.72392 H 9.2269349 v -2.3089 h 0.3886065 v 0.25631 q 0.1819008,-0.15089 0.3617347,-0.23564 0.1819009,-0.0848 0.3865389,-0.0848 0.235645,0 0.398942,0.0992 0.165365,0.0992 0.24598,0.27492 0.235644,-0.19844 0.429947,-0.28526 0.194304,-0.0889 0.415479,-0.0889 0.380338,0 0.560172,0.23151 0.1819,0.22944 0.1819,0.64286 z"
         id="path346" />
      <path
         d="M 15.277207,176.52154 H 13.57602 q 0,0.2129 0.06408,0.37207 0.06408,0.15709 0.175699,0.25838 0.107487,0.0992 0.254248,0.14883 0.148828,0.0496 0.326595,0.0496 0.235644,0 0.473356,-0.093 0.239778,-0.0951 0.341064,-0.18604 h 0.02067 v 0.42375 q -0.19637,0.0827 -0.401008,0.13849 -0.204639,0.0558 -0.429948,0.0558 -0.574641,0 -0.897102,-0.31005 -0.322461,-0.31213 -0.322461,-0.8847 0,-0.56638 0.307991,-0.89917 0.310059,-0.3328 0.81442,-0.3328 0.467155,0 0.719336,0.27285 0.254248,0.27285 0.254248,0.77515 z m -0.378272,-0.29766 q -0.0021,-0.30592 -0.155029,-0.47335 -0.150895,-0.16744 -0.460953,-0.16744 -0.312126,0 -0.498161,0.18397 -0.183968,0.18397 -0.208772,0.45682 z"
         id="path348" />
      <path
         d="m 19.235618,177.63568 h -0.388607 v -1.31465 q 0,-0.14882 -0.01447,-0.28732 -0.0124,-0.13849 -0.05581,-0.22117 -0.04754,-0.0889 -0.136425,-0.13436 -0.08888,-0.0455 -0.256315,-0.0455 -0.163297,0 -0.326595,0.0827 -0.163297,0.0806 -0.326595,0.2067 0.0062,0.0475 0.01034,0.11162 0.0041,0.062 0.0041,0.12403 v 1.47794 h -0.388607 v -1.31465 q 0,-0.15296 -0.01447,-0.28938 -0.0124,-0.1385 -0.05581,-0.22118 -0.04754,-0.0889 -0.136425,-0.13229 -0.08888,-0.0455 -0.256315,-0.0455 -0.159163,0 -0.320394,0.0786 -0.159163,0.0786 -0.318326,0.20051 v 1.72392 h -0.388607 v -2.3089 h 0.388607 v 0.25631 q 0.181901,-0.15089 0.361734,-0.23564 0.181901,-0.0848 0.38654,-0.0848 0.235644,0 0.398942,0.0992 0.165364,0.0992 0.245979,0.27492 0.235644,-0.19844 0.429948,-0.28526 0.194303,-0.0889 0.415478,-0.0889 0.380338,0 0.560172,0.23151 0.181901,0.22944 0.181901,0.64286 z"
         id="path350" />
      <path
         d="m 22.015807,176.46366 q 0,0.28939 -0.08268,0.5209 -0.08061,0.23151 -0.219107,0.38861 -0.146761,0.16329 -0.322461,0.24597 -0.1757,0.0806 -0.38654,0.0806 -0.19637,0 -0.343131,-0.0475 -0.146761,-0.0455 -0.289388,-0.12403 l -0.0248,0.10749 h -0.363802 v -3.21634 h 0.388606 v 1.14929 q 0.163298,-0.13436 0.347266,-0.21911 0.183968,-0.0868 0.413411,-0.0868 0.409277,0 0.644921,0.31419 0.237712,0.3142 0.237712,0.88677 z m -0.401009,0.0103 q 0,-0.41342 -0.136426,-0.62632 -0.136425,-0.21498 -0.440283,-0.21498 -0.169498,0 -0.343131,0.0744 -0.173633,0.0724 -0.322461,0.1881 v 1.32292 q 0.165365,0.0744 0.283187,0.10335 0.119889,0.0289 0.270784,0.0289 0.322461,0 0.504362,-0.21084 0.183968,-0.21291 0.183968,-0.66559 z"
         id="path352" />
      <path
         d="m 24.554152,176.52154 h -1.701187 q 0,0.2129 0.06408,0.37207 0.06408,0.15709 0.175699,0.25838 0.107487,0.0992 0.254248,0.14883 0.148828,0.0496 0.326595,0.0496 0.235644,0 0.473356,-0.093 0.239778,-0.0951 0.341064,-0.18604 h 0.02067 v 0.42375 q -0.19637,0.0827 -0.401008,0.13849 -0.204639,0.0558 -0.429948,0.0558 -0.574641,0 -0.897102,-0.31005 -0.322461,-0.31213 -0.322461,-0.8847 0,-0.56638 0.307992,-0.89917 0.310058,-0.3328 0.814419,-0.3328 0.467155,0 0.719336,0.27285 0.254248,0.27285 0.254248,0.77515 z m -0.378272,-0.29766 q -0.0021,-0.30592 -0.155029,-0.47335 -0.150895,-0.16744 -0.460953,-0.16744 -0.312125,0 -0.49816,0.18397 -0.183968,0.18397 -0.208773,0.45682 z"
         id="path354" />
      <path
         d="m 26.584001,175.75053 h -0.02067 q -0.08682,-0.0207 -0.169499,-0.0289 -0.08061,-0.0103 -0.192236,-0.0103 -0.179834,0 -0.347266,0.0806 -0.167431,0.0786 -0.32246,0.20464 v 1.63917 h -0.388607 v -2.3089 h 0.388607 v 0.34106 q 0.23151,-0.18603 0.40721,-0.26251 0.177767,-0.0785 0.361734,-0.0785 0.101286,0 0.146761,0.006 0.04548,0.004 0.136426,0.0186 z"
         id="path356" />
    </g>
    <g
       aria-label="RECORD"
       id="text1074"
       style="font-size:4.93889px;line-height:1.25;word-spacing:0px;stroke-width:0.264583"
       transform="translate(0,-16.933338)">
      <path
         d="M 8.0306188,257.26767 H 7.410846 L 6.2098854,255.84002 H 5.5370581 v 1.42765 H 5.0595678 v -3.59082 h 1.0056236 q 0.3255616,0 0.5426026,0.0434 0.2170411,0.041 0.3906739,0.14952 0.195337,0.12299 0.3038575,0.31109 0.1109321,0.18569 0.1109321,0.47267 0,0.38826 -0.1953369,0.65112 -0.195337,0.26045 -0.5377796,0.39309 z m -1.1165557,-2.58038 q 0,-0.15434 -0.055466,-0.2725 -0.053055,-0.12058 -0.178456,-0.20258 -0.1036974,-0.0699 -0.2459798,-0.0965 -0.1422825,-0.0289 -0.3352079,-0.0289 H 5.5370581 v 1.3553 h 0.4823135 q 0.2266873,0 0.395497,-0.0386 0.1688097,-0.041 0.2869766,-0.14952 0.1085205,-0.10128 0.1591634,-0.23151 0.053055,-0.13264 0.053055,-0.33521 z"
         id="path359" />
      <path
         d="M 10.859387,257.26767 H 8.4936398 v -3.59082 h 2.3657472 v 0.42443 H 8.9711301 v 0.98392 h 1.8882569 v 0.42444 H 8.9711301 v 1.33359 h 1.8882569 z"
         id="path361" />
      <path
         d="m 14.389922,257.00722 q -0.132636,0.0579 -0.241157,0.10852 -0.106109,0.0506 -0.279742,0.10611 -0.147105,0.0458 -0.320738,0.0772 -0.171221,0.0338 -0.378616,0.0338 -0.390674,0 -0.711413,-0.10852 -0.318326,-0.11093 -0.55466,-0.34485 -0.231511,-0.2291 -0.361735,-0.58119 -0.130225,-0.3545 -0.130225,-0.82234 0,-0.44373 0.125402,-0.79341 0.125401,-0.34968 0.361735,-0.59083 0.229099,-0.23393 0.552249,-0.35692 0.325561,-0.12299 0.721058,-0.12299 0.289388,0 0.576365,0.0699 0.289388,0.0699 0.641477,0.24598 v 0.56672 h -0.03617 q -0.296622,-0.24839 -0.588422,-0.36174 -0.2918,-0.11334 -0.624596,-0.11334 -0.272507,0 -0.49196,0.0892 -0.217041,0.0868 -0.388262,0.2725 -0.166398,0.18087 -0.260449,0.4582 -0.09164,0.27492 -0.09164,0.63666 0,0.37861 0.101286,0.65112 0.103697,0.27251 0.265272,0.44373 0.16881,0.17845 0.393086,0.26527 0.226687,0.0844 0.47749,0.0844 0.344854,0 0.6463,-0.11816 0.301446,-0.11817 0.564307,-0.3545 h 0.03376 z"
         id="path363" />
      <path
         d="m 17.742001,254.08922 q 0.219452,0.24116 0.335208,0.59084 0.118167,0.34968 0.118167,0.7934 0,0.44373 -0.120579,0.79582 -0.118167,0.34968 -0.332796,0.5836 -0.221864,0.24357 -0.525722,0.36656 -0.301446,0.12299 -0.689708,0.12299 -0.378616,0 -0.689708,-0.1254 -0.308681,-0.1254 -0.525722,-0.36415 -0.217041,-0.23875 -0.335208,-0.58601 -0.115755,-0.34727 -0.115755,-0.79341 0,-0.4389 0.115755,-0.78617 0.115755,-0.34967 0.33762,-0.59807 0.212217,-0.23633 0.525721,-0.36173 0.315916,-0.1254 0.687297,-0.1254 0.385851,0 0.69212,0.12781 0.30868,0.1254 0.52331,0.35932 z m -0.04341,1.38424 q 0,-0.69935 -0.313504,-1.07797 -0.313504,-0.38102 -0.856107,-0.38102 -0.547425,0 -0.860929,0.38102 -0.311092,0.37862 -0.311092,1.07797 0,0.70659 0.318327,1.0828 0.318327,0.37379 0.853694,0.37379 0.535368,0 0.851284,-0.37379 0.318327,-0.37621 0.318327,-1.0828 z"
         id="path365" />
      <path
         d="m 21.923658,257.26767 h -0.619772 l -1.200961,-1.42765 h -0.672827 v 1.42765 h -0.477491 v -3.59082 h 1.005624 q 0.325562,0 0.542603,0.0434 0.217041,0.041 0.390674,0.14952 0.195337,0.12299 0.303857,0.31109 0.110932,0.18569 0.110932,0.47267 0,0.38826 -0.195337,0.65112 -0.195337,0.26045 -0.537779,0.39309 z m -1.116555,-2.58038 q 0,-0.15434 -0.05547,-0.2725 -0.05306,-0.12058 -0.178456,-0.20258 -0.103698,-0.0699 -0.24598,-0.0965 -0.142283,-0.0289 -0.335208,-0.0289 h -0.561895 v 1.3553 h 0.482313 q 0.226688,0 0.395497,-0.0386 0.16881,-0.041 0.286977,-0.14952 0.10852,-0.10128 0.159163,-0.23151 0.05306,-0.13264 0.05306,-0.33521 z"
         id="path367" />
      <path
         d="m 25.420432,255.47588 q 0,0.48954 -0.21463,0.88745 -0.212218,0.39791 -0.566718,0.61736 -0.24598,0.15193 -0.549837,0.21946 -0.301446,0.0675 -0.795818,0.0675 H 22.38668 v -3.59082 h 0.897103 q 0.525722,0 0.834402,0.0772 0.311093,0.0747 0.525722,0.20739 0.366558,0.2291 0.571541,0.61013 0.204984,0.38102 0.204984,0.90434 z m -0.499195,-0.007 q 0,-0.42202 -0.147105,-0.71141 -0.147106,-0.28939 -0.438906,-0.45579 -0.212218,-0.12058 -0.450963,-0.1664 -0.238745,-0.0482 -0.571541,-0.0482 H 22.86417 v 2.77089 h 0.448552 q 0.344854,0 0.60048,-0.0506 0.258038,-0.0506 0.472667,-0.1881 0.267684,-0.17122 0.400321,-0.45097 0.135047,-0.27974 0.135047,-0.69935 z"
         id="path369" />
    </g>
    <rect
       style="display:inline;opacity:1;fill:#000000;fill-opacity:0.88755;stroke-width:0.175583;image-rendering:auto"
       id="rect652-7"
       width="10.616776"
       height="8.3559361"
       x="9.931612"
       y="246.60742"
       ry="1.9487509" />
    <rect
       style="display:inline;fill:#000000;fill-opacity:0.88755;stroke-width:0.261958;image-rendering:auto"
       id="rect652-7-8"
       width="22.390734"
       height="8.8189564"
       x="3.0259678"
       y="263.43683"
       ry="2.0567355" />
    <text
       xml:space="preserve"
       style="font-size:4.23333px;line-height:1.25;font-family:sans-serif;word-spacing:0px;stroke-width:0.264583"
       x="1.9259081"
       y="245.89062"
       id="text1702"><tspan
         sodipodi:role="line"
         id="tspan1700"
         style="font-size:4.23333px;stroke-width:0.264583"
         x="1.9259081"
         y="245.89062">CURR</tspan></text>
    <text
       xml:space="preserve"
       style="font-size:4.23333px;line-height:1.25;font-family:sans-serif;word-spacing:0px;stroke-width:0.264583"
       x="16.497019"
       y="245.89474"
       id="text1706"><tspan
         sodipodi:role="line"
         id="tspan1704"
         style="font-size:4.23333px;stroke-width:0.264583"
         x="16.497019"
         y="245.89474">POS</tspan></text>
    <g
       aria-label="IN"
       id="text2006"
       style="font-size:4.23333px;line-height:1.25;word-spacing:0px;stroke-width:0.264583"
       transform="translate(87.042332,84.402079)">
      <path
         d="m -73.246173,202.10207 h -1.215429 v -0.3142 h 0.403076 v -2.44946 h -0.403076 v -0.31419 h 1.215429 v 0.31419 h -0.403076 v 2.44946 h 0.403076 z"
         id="path2008" />
      <path
         d="m -70.201397,202.10207 h -0.506429 l -1.459343,-2.75332 v 2.75332 h -0.382405 v -3.07785 h 0.634586 l 1.331185,2.51354 v -2.51354 h 0.382406 z"
         id="path2010" />
    </g>
    <g
       aria-label="OUT"
       id="text2062"
       style="display:inline;font-size:4.23333px;line-height:1.25;word-spacing:0px;stroke-width:0.264583"
       transform="translate(0,168.49998)">
      <path
         d="m 12.780204,104.69643 q 0.188102,0.2067 0.28732,0.50643 0.101286,0.29972 0.101286,0.68006 0,0.38034 -0.103353,0.68213 -0.101285,0.29972 -0.285253,0.50022 -0.190169,0.20878 -0.450618,0.3142 -0.258382,0.10542 -0.591178,0.10542 -0.324528,0 -0.591178,-0.10749 -0.264583,-0.10749 -0.450618,-0.31213 -0.186035,-0.20464 -0.287321,-0.50229 -0.09922,-0.29766 -0.09922,-0.68006 0,-0.37621 0.09922,-0.67386 0.09922,-0.29973 0.289388,-0.51263 0.181901,-0.20257 0.450618,-0.31006 0.270784,-0.10749 0.589111,-0.10749 0.330729,0 0.593245,0.10956 0.264583,0.10748 0.448551,0.30799 z m -0.03721,1.18649 q 0,-0.59945 -0.268717,-0.92398 -0.268718,-0.32659 -0.733805,-0.32659 -0.469222,0 -0.737939,0.32659 -0.26665,0.32453 -0.26665,0.92398 0,0.60564 0.272851,0.92811 0.272851,0.32039 0.731738,0.32039 0.458886,0 0.72967,-0.32039 0.272852,-0.32247 0.272852,-0.92811 z"
         id="path2640" />
      <path
         d="m 16.135035,106.18471 q 0,0.33486 -0.07441,0.58497 -0.07235,0.24805 -0.239779,0.41342 -0.159163,0.15709 -0.37207,0.22944 -0.212906,0.0723 -0.496093,0.0723 -0.289388,0 -0.504361,-0.0765 -0.214974,-0.0765 -0.361735,-0.2253 -0.167432,-0.1695 -0.241846,-0.40928 -0.07235,-0.23978 -0.07235,-0.58911 v -1.84175 h 0.409277 v 1.86242 q 0,0.25011 0.03307,0.39481 0.03514,0.14469 0.115755,0.26251 0.09095,0.13436 0.24598,0.20257 0.157096,0.0682 0.376204,0.0682 0.221175,0 0.376204,-0.0661 0.155029,-0.0682 0.248047,-0.20464 0.08061,-0.11782 0.113688,-0.26872 0.03514,-0.15296 0.03514,-0.37827 v -1.87275 h 0.409277 z"
         id="path2642" />
      <path
         d="m 19.111595,104.70676 h -1.099674 v 2.71405 h -0.409277 v -2.71405 h -1.099673 v -0.3638 h 2.608624 z"
         id="path2644" />
    </g>
  </g>
  <g
     inkscape:groupmode="layer"
     id="layer2"
     inkscape:label="components"
     style="display:none">
    <circle
       style="display:inline;opacity:1;vector-effect:none;fill:#00ff00;fill-opacity:1;fill-rule:evenodd;stroke:none;stroke-width:1;stroke-linecap:butt;stroke-linejoin:miter;stroke-miterlimit:4;stroke-dasharray:none;stroke-dashoffset:0;stroke-opacity:1;paint-order:normal"
       id="circle4958"
       cx="20.971161"
       cy="112"
       r="4"
       inkscape:label="right_out" />
    <circle
       style="display:inline;opacity:1;vector-effect:none;fill:#00ff00;fill-opacity:1;fill-rule:evenodd;stroke:none;stroke-width:1;stroke-linecap:butt;stroke-linejoin:miter;stroke-miterlimit:4;stroke-dasharray:none;stroke-dashoffset:0;stroke-opacity:1;paint-order:normal"
       id="circle4958-4"
       cx="8.0237217"
       cy="112"
       r="4"
       inkscape:label="left_out" />
    <circle
       style="display:inline;vector-effect:none;fill:#0000ff;fill-opacity:1;fill-rule:evenodd;stroke:none;stroke-width:1;stroke-linecap:butt;stroke-linejoin:miter;stroke-miterlimit:4;stroke-dasharray:none;stroke-dashoffset:0;stroke-opacity:1;paint-order:normal"
       id="circle4958-2"
       cx="20.761219"
       cy="99.412498"
       r="4"
       inkscape:label="right_out" />
    <circle
       style="display:inline;vector-effect:none;fill:#0000ff;fill-opacity:1;fill-rule:evenodd;stroke:none;stroke-width:1;stroke-linecap:butt;stroke-linejoin:miter;stroke-miterlimit:4;stroke-dasharray:none;stroke-dashoffset:0;stroke-opacity:1;paint-order:normal"
       id="circle4958-4-1"
       cx="7.8137803"
       cy="99.412498"
       r="4"
       inkscape:label="left_out" />
    <circle
       r="4"
       cy="63.06665"
       cx="8.0237217"
       id="circle4956-3-5"
       style="display:inline;opacity:1;vector-effect:none;fill:#00ff00;fill-opacity:1;fill-rule:evenodd;stroke:none;stroke-width:1;stroke-linecap:butt;stroke-linejoin:miter;stroke-miterlimit:4;stroke-dasharray:none;stroke-dashoffset:0;stroke-opacity:1;paint-order:normal"
       inkscape:label="play_trigger" />
    <circle
       style="display:inline;opacity:1;vector-effect:none;fill:#ff0000;fill-opacity:1;fill-rule:evenodd;stroke:none;stroke-width:1;stroke-linecap:butt;stroke-linejoin:miter;stroke-miterlimit:4;stroke-dasharray:none;stroke-dashoffset:0;stroke-opacity:1;paint-order:normal"
       id="path4954-3-0-2-9-0"
       cx="15.24"
       cy="47.999954"
       r="4"
       inkscape:label="position" />
    <circle
       style="display:inline;opacity:1;vector-effect:none;fill:#ff0000;fill-opacity:1;fill-rule:evenodd;stroke:none;stroke-width:1;stroke-linecap:butt;stroke-linejoin:miter;stroke-miterlimit:4;stroke-dasharray:none;stroke-dashoffset:0;stroke-opacity:1;paint-order:normal"
       id="path4954-3-0-2-9-7-7"
       cx="20.971161"
       cy="63.06665"
       r="4"
       inkscape:label="play_button" />
    <circle
       style="display:inline;opacity:1;vector-effect:none;fill:#ff0000;fill-opacity:1;fill-rule:evenodd;stroke:none;stroke-width:1;stroke-linecap:butt;stroke-linejoin:miter;stroke-miterlimit:4;stroke-dasharray:none;stroke-dashoffset:0;stroke-opacity:1;paint-order:normal"
       id="path4954-3"
       cx="8.0237217"
       cy="31.999954"
       r="4"
       inkscape:label="loop" />
    <circle
       style="display:inline;fill:#ff00ff;fill-opacity:1;fill-rule:evenodd;stroke:none;stroke-width:1;stroke-linecap:butt;stroke-linejoin:miter;stroke-miterlimit:4;stroke-dasharray:none;stroke-dashoffset:0;stroke-opacity:1;paint-order:normal"
       id="path4954-3-0-2-9-0-0"
       cx="3.3935137"
       cy="7.5595684"
       r="4"
       inkscape:label="connected" />
    <circle
       style="display:inline;opacity:1;fill:#0000ff;fill-opacity:1;fill-rule:evenodd;stroke:none;stroke-width:1;stroke-linecap:butt;stroke-linejoin:miter;stroke-miterlimit:4;stroke-dasharray:none;stroke-dashoffset:0;stroke-opacity:1;paint-order:normal"
       id="circle4958-1"
       cx="15.24"
       cy="82.285408"
       r="4"
       inkscape:label="now_position" />
  </g>
</svg>
