<?xml version="1.0" encoding="UTF-8" standalone="no"?>
<svg
   width="25.4mm"
   height="128.5mm"
   viewBox="0 0 25.400002 128.50002"
   version="1.1"
   id="svg8"
   inkscape:version="1.2.1 (9c6d41e410, 2022-07-14)"
   sodipodi:docname="Ruminate.svg"
   xmlns:inkscape="http://www.inkscape.org/namespaces/inkscape"
   xmlns:sodipodi="http://sodipodi.sourceforge.net/DTD/sodipodi-0.dtd"
   xmlns="http://www.w3.org/2000/svg"
   xmlns:svg="http://www.w3.org/2000/svg"
   xmlns:rdf="http://www.w3.org/1999/02/22-rdf-syntax-ns#"
   xmlns:cc="http://creativecommons.org/ns#"
   xmlns:dc="http://purl.org/dc/elements/1.1/">
  <defs
     id="defs2" />
  <sodipodi:namedview
     id="base"
     pagecolor="#ffffff"
     bordercolor="#666666"
     borderopacity="1.0"
     inkscape:pageopacity="0.0"
     inkscape:pageshadow="2"
     inkscape:zoom="1.4142136"
     inkscape:cx="-278.95362"
     inkscape:cy="101.11627"
     inkscape:document-units="mm"
     inkscape:current-layer="layer1"
     showgrid="false"
     units="mm"
     inkscape:snap-bbox="true"
     inkscape:snap-page="true"
     inkscape:bbox-nodes="false"
     inkscape:snap-bbox-edge-midpoints="false"
     inkscape:window-width="2560"
     inkscape:window-height="1369"
     inkscape:window-x="-8"
     inkscape:window-y="-8"
     inkscape:window-maximized="1"
     inkscape:snap-bbox-midpoints="true"
     inkscape:snap-nodes="false"
     inkscape:document-rotation="0"
     inkscape:showpageshadow="2"
     inkscape:pagecheckerboard="0"
     inkscape:deskcolor="#d1d1d1" />
  <metadata
     id="metadata5">
    <rdf:RDF>
      <cc:Work
         rdf:about="">
        <dc:format>image/svg+xml</dc:format>
        <dc:type
           rdf:resource="http://purl.org/dc/dcmitype/StillImage" />
      </cc:Work>
    </rdf:RDF>
  </metadata>
  <g
     inkscape:label="Background"
     inkscape:groupmode="layer"
     id="layer1"
     transform="translate(0,-168.49998)"
     style="display:inline">
    <rect
       style="display:inline;opacity:1;vector-effect:none;fill:#e8f1f2;fill-opacity:1;fill-rule:evenodd;stroke:none;stroke-width:0.59278;stroke-linecap:butt;stroke-linejoin:miter;stroke-miterlimit:4;stroke-dasharray:none;stroke-dashoffset:0;stroke-opacity:1;paint-order:normal"
       id="rect420"
       width="25.4"
       height="128.5"
       x="5.9211732e-17"
       y="168.49997" />
    <g
       aria-label="!"
       transform="matrix(1.1167128,-0.15549235,0.12836675,1.3252781,-4.8437299,165.39159)"
       id="text912"
       style="font-style:normal;font-weight:normal;font-size:127.426px;line-height:1.25;font-family:sans-serif;display:inline;fill:#6f76df;fill-opacity:1;stroke:none;stroke-width:3.18552;stroke-miterlimit:4;stroke-dasharray:none">
      <path
         d="M 17.007808,5.7176488 15.390095,72.852735 H 4.8127414 L 3.070589,5.7176488 Z M 16.385611,98.362823 H 3.6927863 V 85.234461 H 16.385611 Z"
         style="fill:#6f76df;fill-opacity:1;stroke-width:3.18552;stroke-miterlimit:4;stroke-dasharray:none"
         id="path1767" />
    </g>
  </g>
  <g
     inkscape:label="Layer 1"
     inkscape:groupmode="layer"
     id="g1684"
     transform="translate(0,-168.49998)"
     style="display:inline;opacity:1">
    <rect
       style="display:inline;fill:#000000;fill-opacity:0.88755;stroke-width:0.290513;image-rendering:auto"
       id="rect652"
       width="22.650755"
       height="10.721942"
       x="1.3746226"
       y="275.13901"
       ry="2.5005453" />
    <g
       aria-label="-"
       id="text1760-3"
       style="font-size:10.5833px;line-height:1.25;font-family:sans-serif;word-spacing:0px;display:inline;stroke-width:0.264583"
       transform="translate(62.646758,208.58841)">
      <path
         d="m -48.334459,40.379236 h -3.224599 v -0.935341 h 3.224599 z"
         style="stroke-width:0.264583"
         id="path1762-7" />
    </g>
    <g
       aria-label="-"
       id="text1760-3-2"
       style="font-size:10.5833px;line-height:1.25;font-family:sans-serif;word-spacing:0px;display:inline;opacity:1;stroke-width:0.264583"
       transform="translate(64.387058,176.58836)" />
    <g
       aria-label="L"
       id="text1685"
       style="font-size:7.05556px;line-height:1.25;word-spacing:0px;stroke-width:0.264583"
       transform="translate(-1.9887217,-0.52916667)">
      <path
         d="m 9.6463625,292.45724 h -3.245282 v -5.12975 h 0.6821293 v 4.52342 h 2.5631527 z"
         id="path1691" />
    </g>
    <g
       aria-label="R"
       id="text1689"
       style="font-size:7.05556px;line-height:1.25;word-spacing:0px;stroke-width:0.264583"
       transform="translate(-1.9213606,-0.52916667)">
      <path
         d="m 23.093342,292.45724 h -0.88539 l -1.715659,-2.03949 h -0.961182 v 2.03949 h -0.68213 v -5.12975 h 1.436606 q 0.465088,0 0.775147,0.062 0.310059,0.0586 0.558106,0.21359 0.279053,0.1757 0.434082,0.44442 0.158475,0.26527 0.158475,0.67524 0,0.55466 -0.279053,0.93018 -0.279053,0.37207 -0.768257,0.56155 z m -1.595081,-3.68625 q 0,-0.22049 -0.07924,-0.3893 -0.07579,-0.17225 -0.254937,-0.28938 -0.148139,-0.0999 -0.3514,-0.13781 -0.203261,-0.0413 -0.478869,-0.0413 h -0.802707 v 1.93615 h 0.689019 q 0.323839,0 0.564996,-0.0551 0.241157,-0.0586 0.409967,-0.21359 0.155029,-0.1447 0.227376,-0.33073 0.07579,-0.18948 0.07579,-0.47887 z"
         id="path1694" />
    </g>
    <g
       aria-label="SPEED"
       id="text1878"
       style="font-size:3.52778px;line-height:1.25;word-spacing:0px;stroke-width:0.264583"
       transform="translate(-8.2525607,65.087497)">
      <path
         d="m 17.289558,207.19081 q 0,0.14987 -0.07062,0.29628 -0.0689,0.14642 -0.194648,0.24805 -0.137804,0.11024 -0.322116,0.17225 -0.182591,0.062 -0.440973,0.062 -0.27733,0 -0.499539,-0.0517 -0.220486,-0.0517 -0.449585,-0.15331 v -0.42719 h 0.02412 q 0.194648,0.16192 0.449586,0.24977 0.254937,0.0879 0.478868,0.0879 0.316949,0 0.492649,-0.11886 0.177423,-0.11885 0.177423,-0.31694 0,-0.17054 -0.08441,-0.2515 -0.08268,-0.081 -0.253215,-0.12574 -0.129191,-0.0344 -0.280775,-0.0568 -0.149862,-0.0224 -0.318672,-0.0568 -0.341064,-0.0724 -0.506429,-0.24633 -0.163642,-0.1757 -0.163642,-0.45647 0,-0.32212 0.272162,-0.5271 0.272163,-0.20671 0.690742,-0.20671 0.270441,0 0.496095,0.0517 0.225653,0.0517 0.399631,0.12747 v 0.40307 h -0.02412 q -0.146416,-0.12402 -0.385851,-0.20498 -0.237711,-0.0827 -0.487481,-0.0827 -0.273885,0 -0.440973,0.11369 -0.165364,0.11369 -0.165364,0.29283 0,0.1602 0.08268,0.25149 0.08268,0.0913 0.291111,0.13953 0.110243,0.0241 0.313504,0.0586 0.20326,0.0345 0.34451,0.0706 0.285943,0.0758 0.430637,0.2291 0.144694,0.15331 0.144694,0.42891 z"
         id="path1893" />
      <path
         d="m 19.515091,206.13317 q 0,0.17053 -0.06029,0.31695 -0.05857,0.14469 -0.165365,0.25149 -0.132636,0.13264 -0.313504,0.19982 -0.180867,0.0654 -0.456475,0.0654 h -0.341065 v 0.95602 h -0.341065 v -2.56488 h 0.69591 q 0.230822,0 0.391019,0.0396 0.160197,0.0379 0.28422,0.12058 0.146417,0.0982 0.225654,0.2446 0.08096,0.14642 0.08096,0.37035 z m -0.354845,0.009 q 0,-0.13263 -0.04651,-0.23082 -0.04651,-0.0982 -0.141249,-0.1602 -0.08268,-0.0534 -0.18948,-0.0758 -0.105076,-0.0241 -0.266995,-0.0241 h -0.33762 v 1.02491 h 0.287666 q 0.206706,0 0.335897,-0.0362 0.129191,-0.0379 0.210151,-0.11886 0.08096,-0.0827 0.113688,-0.17397 0.03445,-0.0913 0.03445,-0.20499 z"
         id="path1895" />
      <path
         d="m 21.654497,207.9229 h -1.68982 v -2.56488 h 1.68982 v 0.30317 h -1.348756 v 0.7028 h 1.348756 v 0.30317 h -1.348756 v 0.95257 h 1.348756 z"
         id="path1897" />
      <path
         d="m 23.885197,207.9229 h -1.68982 v -2.56488 h 1.68982 v 0.30317 h -1.348755 v 0.7028 h 1.348755 v 0.30317 h -1.348755 v 0.95257 h 1.348755 z"
         id="path1899" />
      <path
         d="m 26.593044,206.64304 q 0,0.34968 -0.153307,0.6339 -0.151584,0.28422 -0.404799,0.44097 -0.1757,0.10852 -0.392741,0.15676 -0.215319,0.0482 -0.568441,0.0482 h -0.647678 v -2.56488 h 0.640788 q 0.375515,0 0.596002,0.0551 0.222208,0.0534 0.375515,0.14814 0.261828,0.16364 0.408244,0.43581 0.146417,0.27216 0.146417,0.64595 z m -0.356568,-0.005 q 0,-0.30145 -0.105075,-0.50816 -0.105076,-0.2067 -0.313504,-0.32556 -0.151584,-0.0861 -0.322117,-0.11885 -0.170532,-0.0344 -0.408244,-0.0344 h -0.320394 v 1.9792 h 0.320394 q 0.246325,0 0.428915,-0.0362 0.184313,-0.0362 0.33762,-0.13436 0.191202,-0.1223 0.285943,-0.32211 0.09646,-0.19982 0.09646,-0.49954 z"
         id="path1901" />
    </g>
    <g
       aria-label="PLAY"
       id="text1699"
       style="font-size:7.05556px;line-height:1.25;word-spacing:0px;display:inline;stroke-width:0.264583"
       transform="translate(-1.7256557,168.49998)">
      <path
         d="m 9.6007962,86.908047 q 0,0.341064 -0.1205784,0.633898 -0.1171333,0.289388 -0.3307294,0.502984 -0.2652725,0.265272 -0.6270077,0.399631 -0.3617353,0.130914 -0.9129509,0.130914 H 6.9274004 v 1.912029 H 6.2452711 v -5.12975 h 1.3918194 q 0.4616431,0 0.7820372,0.07924 0.3203941,0.07579 0.5684411,0.241157 0.2928334,0.19637 0.4513078,0.489204 0.1619196,0.292833 0.1619196,0.740696 z m -0.7096901,0.01723 q 0,-0.265273 -0.093018,-0.461643 Q 8.7050708,86.267258 8.5155905,86.143235 8.3502258,86.036437 8.1366297,85.991651 7.9264788,85.943419 7.6026396,85.943419 H 6.9274004 v 2.049833 h 0.5753313 q 0.4134118,0 0.6717941,-0.07235 0.2583823,-0.07579 0.4203019,-0.237711 0.1619196,-0.165365 0.2273765,-0.347955 0.068902,-0.182591 0.068902,-0.409967 z"
         id="path1701" />
      <path
         d="m 13.745249,90.487503 h -3.245282 v -5.12975 h 0.682129 v 4.523413 h 2.563153 z"
         id="path1703" />
      <path
         d="M 18.471923,90.487503 H 17.745007 L 17.242023,89.057788 H 15.02338 l -0.502984,1.429715 h -0.692465 l 1.867243,-5.12975 h 0.909506 z m -1.440051,-2.015382 -0.899171,-2.518367 -0.902615,2.518367 z"
         id="path1705" />
      <path
         d="m 22.60604,85.357753 -1.805231,2.880101 v 2.249649 H 20.11868 v -2.177302 l -1.812122,-2.952448 h 0.754477 l 1.402154,2.294435 1.415936,-2.294435 z"
         id="path1707" />
    </g>
    <g
       aria-label="BOUNCE"
       id="text2152-6"
       style="font-size:3.175px;line-height:1.25;word-spacing:0px;display:inline;stroke-width:0.264583"
       transform="matrix(0.80743332,0,0,0.80743332,14.799631,31.014395)">
      <path
         d="m -15.279168,193.98369 q 0,0.17208 -0.06511,0.30386 -0.06511,0.13177 -0.175183,0.21704 -0.130224,0.10232 -0.286804,0.14573 -0.155029,0.0434 -0.395325,0.0434 h -0.818554 v -2.30839 h 0.683679 q 0.252698,0 0.378271,0.0186 0.125574,0.0186 0.240296,0.0775 0.127124,0.0667 0.184485,0.17208 0.05736,0.10387 0.05736,0.2496 0,0.16433 -0.08371,0.2806 -0.08372,0.11472 -0.223243,0.18449 v 0.0124 q 0.234095,0.0481 0.36897,0.20619 0.134876,0.15658 0.134876,0.39687 z m -0.516248,-1.04025 q 0,-0.0837 -0.02791,-0.14107 -0.02791,-0.0574 -0.08992,-0.093 -0.07286,-0.0419 -0.176734,-0.0512 -0.103869,-0.0108 -0.257348,-0.0108 h -0.365869 v 0.66662 h 0.396875 q 0.144177,0 0.229443,-0.014 0.08527,-0.0155 0.15813,-0.062 0.07286,-0.0465 0.102319,-0.11937 0.03101,-0.0744 0.03101,-0.17519 z m 0.196887,1.05265 q 0,-0.13952 -0.04186,-0.22169 -0.04186,-0.0822 -0.151928,-0.13952 -0.07441,-0.0388 -0.181385,-0.0496 -0.10542,-0.0124 -0.257348,-0.0124 h -0.482141 v 0.85887 h 0.406176 q 0.201539,0 0.330213,-0.0202 0.128674,-0.0217 0.21084,-0.0775 0.08682,-0.0605 0.127124,-0.13798 0.04031,-0.0775 0.04031,-0.19999 z"
         id="path2154-5" />
      <path
         d="m -13.122711,192.65044 q 0.141077,0.15503 0.215491,0.37982 0.07596,0.22479 0.07596,0.51005 0,0.28525 -0.07752,0.51159 -0.07596,0.2248 -0.21394,0.37518 -0.142627,0.15657 -0.337964,0.23564 -0.193786,0.0791 -0.443384,0.0791 -0.243396,0 -0.443383,-0.0806 -0.198438,-0.0806 -0.337964,-0.23409 -0.139527,-0.15348 -0.215491,-0.37673 -0.07441,-0.22324 -0.07441,-0.51004 0,-0.28216 0.07441,-0.5054 0.07441,-0.22479 0.217041,-0.38447 0.136426,-0.15193 0.337964,-0.23254 0.203088,-0.0806 0.441833,-0.0806 0.248047,0 0.444934,0.0822 0.198438,0.0806 0.336414,0.23099 z m -0.0279,0.88987 q 0,-0.44959 -0.201538,-0.69298 -0.201538,-0.24495 -0.550354,-0.24495 -0.351917,0 -0.553455,0.24495 -0.199988,0.24339 -0.199988,0.69298 0,0.45423 0.204639,0.69608 0.204639,0.24029 0.548804,0.24029 0.344165,0 0.547253,-0.24029 0.204639,-0.24185 0.204639,-0.69608 z"
         id="path2156-5" />
      <path
         d="m -10.606585,193.76665 q 0,0.25115 -0.05581,0.43873 -0.05426,0.18604 -0.179834,0.31006 -0.119373,0.11782 -0.279053,0.17208 -0.15968,0.0543 -0.37207,0.0543 -0.217041,0 -0.378271,-0.0574 -0.161231,-0.0574 -0.271302,-0.16898 -0.125573,-0.12712 -0.181384,-0.30696 -0.05426,-0.17983 -0.05426,-0.44183 v -1.38131 h 0.306958 v 1.39681 q 0,0.18759 0.0248,0.29611 0.02636,0.10852 0.08682,0.19689 0.06821,0.10077 0.184485,0.15193 0.117822,0.0512 0.282153,0.0512 0.165881,0 0.282153,-0.0496 0.116272,-0.0512 0.186035,-0.15348 0.06046,-0.0884 0.08527,-0.20154 0.02635,-0.11472 0.02635,-0.28371 v -1.40456 h 0.306958 z"
         id="path2158-1" />
      <path
         d="m -8.2594418,194.69373 h -0.3798218 l -1.0945068,-2.06499 v 2.06499 h -0.2868046 v -2.30839 h 0.4759404 l 0.9983886,1.88516 v -1.88516 h 0.2868042 z"
         id="path2160-1" />
      <path
         d="m -5.862689,194.52629 q -0.085266,0.0372 -0.1550293,0.0698 -0.068213,0.0326 -0.179834,0.0682 -0.094568,0.0295 -0.206189,0.0496 -0.1100708,0.0217 -0.243396,0.0217 -0.2511474,0 -0.4573364,-0.0698 -0.2046387,-0.0713 -0.3565674,-0.22169 -0.1488281,-0.14728 -0.2325439,-0.37362 -0.083716,-0.2279 -0.083716,-0.52865 0,-0.28526 0.080615,-0.51005 0.080615,-0.22479 0.2325439,-0.37982 0.1472779,-0.15038 0.3550171,-0.22944 0.2092896,-0.0791 0.4635376,-0.0791 0.1860352,0 0.37052,0.045 0.1860352,0.045 0.412378,0.15813 v 0.36432 h -0.023254 q -0.1906861,-0.15968 -0.3782715,-0.23255 -0.1875855,-0.0729 -0.4015259,-0.0729 -0.1751831,0 -0.3162598,0.0574 -0.1395263,0.0558 -0.2495971,0.17518 -0.1069702,0.11628 -0.1674317,0.29456 -0.058911,0.17673 -0.058911,0.40928 0,0.24339 0.065112,0.41858 0.066663,0.17518 0.1705322,0.28525 0.1085205,0.11472 0.2526978,0.17053 0.1457275,0.0543 0.306958,0.0543 0.2216919,0 0.4154785,-0.076 0.1937866,-0.076 0.3627685,-0.22789 h 0.021704 z"
         id="path2162-2" />
      <path
         d="M -3.9077696,194.69373 H -5.428607 v -2.30839 h 1.5208374 v 0.27285 H -5.121649 v 0.63252 h 1.2138794 v 0.27285 H -5.121649 v 0.85731 h 1.2138794 z"
         id="path2164-3" />
    </g>
    <rect
       style="display:inline;fill:#000000;fill-opacity:0.88755;stroke-width:0.175583;image-rendering:auto"
       id="rect652-7"
       width="10.616776"
       height="8.3559361"
       x="7.3917437"
       y="229.32079"
       ry="1.9487509" />
    <g
       aria-label="CURRENT"
       id="text730"
       style="font-size:3.175px;line-height:1.25;word-spacing:0px;display:inline;stroke-width:0.264583"
       transform="translate(1.32e-4,-9.0001235)">
      <path
         d="m 7.0561585,236.82779 q -0.085266,0.0372 -0.1550293,0.0698 -0.068213,0.0326 -0.179834,0.0682 -0.094568,0.0294 -0.2061889,0.0496 -0.1100708,0.0217 -0.243396,0.0217 -0.2511475,0 -0.4573364,-0.0698 -0.2046387,-0.0713 -0.3565674,-0.22169 -0.1488281,-0.14728 -0.232544,-0.37362 -0.083716,-0.2279 -0.083716,-0.52865 0,-0.28526 0.080615,-0.51005 0.080615,-0.22479 0.2325439,-0.37982 0.1472778,-0.15038 0.3550171,-0.22945 0.2092895,-0.0791 0.4635376,-0.0791 0.1860351,0 0.37052,0.045 0.1860351,0.045 0.4123779,0.15813 v 0.36432 H 7.032904 q -0.190686,-0.15968 -0.3782715,-0.23255 -0.1875854,-0.0729 -0.4015258,-0.0729 -0.1751831,0 -0.3162598,0.0574 -0.1395264,0.0558 -0.2495972,0.17518 -0.1069702,0.11628 -0.1674316,0.29456 -0.058911,0.17673 -0.058911,0.40928 0,0.24339 0.065112,0.41858 0.066663,0.17518 0.1705322,0.28525 0.1085205,0.11472 0.2526977,0.17053 0.1457276,0.0543 0.3069581,0.0543 0.2216918,0 0.4154785,-0.076 0.1937866,-0.076 0.3627685,-0.2279 h 0.021704 z"
         id="path414" />
      <path
         d="m 9.228119,236.06815 q 0,0.25115 -0.055811,0.43873 -0.05426,0.18604 -0.179834,0.31006 -0.1193725,0.11782 -0.2790527,0.17208 -0.1596802,0.0543 -0.3720703,0.0543 -0.217041,0 -0.3782715,-0.0574 -0.1612304,-0.0574 -0.2713012,-0.16898 -0.1255738,-0.12712 -0.1813843,-0.30696 -0.05426,-0.17983 -0.05426,-0.44183 v -1.38131 h 0.306958 v 1.39681 q 0,0.18759 0.024805,0.29611 0.026355,0.10852 0.086816,0.19688 0.068213,0.10077 0.1844849,0.15193 0.1178222,0.0512 0.2821533,0.0512 0.1658813,0 0.2821533,-0.0496 0.116272,-0.0512 0.1860352,-0.15348 0.060461,-0.0884 0.085266,-0.20153 0.026355,-0.11472 0.026355,-0.28371 v -1.40456 h 0.306958 z"
         id="path416" />
      <path
         d="m 11.72409,236.99522 h -0.398425 l -0.772046,-0.91777 h -0.432532 v 0.91777 H 9.8141293 v -2.30838 h 0.6464727 q 0.209289,0 0.348815,0.0279 0.139527,0.0264 0.251148,0.0961 0.125574,0.0791 0.195337,0.19999 0.07131,0.11937 0.07131,0.30386 0,0.24959 -0.125573,0.41858 -0.125574,0.16743 -0.345716,0.25269 z m -0.717785,-1.65881 q 0,-0.0992 -0.03566,-0.17518 -0.03411,-0.0775 -0.114722,-0.13023 -0.06666,-0.045 -0.15813,-0.062 -0.09147,-0.0186 -0.21549,-0.0186 h -0.361219 v 0.87126 h 0.310059 q 0.145727,0 0.254248,-0.0248 0.10852,-0.0264 0.184485,-0.0961 0.06976,-0.0651 0.102319,-0.14883 0.03411,-0.0853 0.03411,-0.21549 z"
         id="path418" />
      <path
         d="m 13.931708,236.99522 h -0.398426 l -0.772046,-0.91777 h -0.432531 v 0.91777 h -0.306958 v -2.30838 h 0.646472 q 0.209289,0 0.348816,0.0279 0.139526,0.0264 0.251147,0.0961 0.125574,0.0791 0.195337,0.19999 0.07131,0.11937 0.07131,0.30386 0,0.24959 -0.125574,0.41858 -0.125574,0.16743 -0.345716,0.25269 z m -0.717786,-1.65881 q 0,-0.0992 -0.03566,-0.17518 -0.03411,-0.0775 -0.114722,-0.13023 -0.06666,-0.045 -0.158129,-0.062 -0.09147,-0.0186 -0.215491,-0.0186 h -0.361218 v 0.87126 h 0.310058 q 0.145728,0 0.254248,-0.0248 0.108521,-0.0264 0.184485,-0.0961 0.06976,-0.0651 0.102319,-0.14883 0.03411,-0.0853 0.03411,-0.21549 z"
         id="path420" />
      <path
         d="m 15.750201,236.99522 h -1.520837 v -2.30838 h 1.520837 v 0.27285 h -1.213879 v 0.63252 h 1.213879 v 0.27285 h -1.213879 v 0.85731 h 1.213879 z"
         id="path422" />
      <path
         d="m 17.998126,236.99522 h -0.379822 l -1.094506,-2.06499 v 2.06499 h -0.286805 v -2.30838 h 0.47594 l 0.998389,1.88515 v -1.88515 h 0.286804 z"
         id="path424" />
      <path
         d="m 20.258453,234.95969 h -0.824756 v 2.03553 h -0.306958 v -2.03553 h -0.824756 v -0.27285 h 1.95647 z"
         id="path426" />
    </g>
    <g
       aria-label="POSITION"
       id="text551"
       style="font-size:4.23333px;line-height:1.25;word-spacing:0px;display:inline;stroke-width:0.264583"
       transform="translate(1.32e-4,1.05814)">
      <path
         d="m 4.3976714,191.2351 q 0,0.20463 -0.072347,0.38033 -0.07028,0.17364 -0.1984373,0.30179 -0.1591633,0.15917 -0.3762041,0.23978 -0.2170409,0.0785 -0.5477698,0.0785 h -0.409277 v 1.14722 h -0.409277 v -3.07785 h 0.8350905 q 0.2769854,0 0.4692216,0.0475 0.1922362,0.0455 0.3410642,0.1447 0.1756997,0.11782 0.2707842,0.29352 0.097152,0.1757 0.097152,0.44442 z m -0.4258134,0.0103 q 0,-0.15916 -0.055811,-0.27698 -0.05581,-0.11783 -0.1694986,-0.19224 -0.099219,-0.0641 -0.2273761,-0.0909 -0.1260904,-0.0289 -0.3203936,-0.0289 H 2.7936363 v 1.2299 h 0.3451983 q 0.2480467,0 0.4030758,-0.0434 0.1550292,-0.0455 0.2521808,-0.14263 0.097152,-0.0992 0.1364257,-0.20877 0.041341,-0.10955 0.041341,-0.24598 z"
         id="path553" />
      <path
         d="m 7.2316045,190.65839 q 0.1881021,0.2067 0.2873207,0.50643 0.1012858,0.29972 0.1012858,0.68006 0,0.38034 -0.1033528,0.68213 -0.1012857,0.29972 -0.2852537,0.50022 -0.1901691,0.20878 -0.4506181,0.3142 -0.2583819,0.10542 -0.5911779,0.10542 -0.3245277,0 -0.5911779,-0.10749 -0.2645831,-0.10749 -0.4506181,-0.31213 -0.186035,-0.20464 -0.2873207,-0.50229 -0.099219,-0.29766 -0.099219,-0.68006 0,-0.37621 0.099219,-0.67386 0.099219,-0.29973 0.2893878,-0.51263 0.1819009,-0.20257 0.4506181,-0.31006 0.2707843,-0.10749 0.5891108,-0.10749 0.3307289,0 0.593245,0.10956 0.2645831,0.10748 0.448551,0.30799 z m -0.037207,1.18649 q 0,-0.59945 -0.2687172,-0.92398 -0.2687172,-0.32659 -0.7338047,-0.32659 -0.4692216,0 -0.7379389,0.32659 -0.2666501,0.32453 -0.2666501,0.92398 0,0.60564 0.2728513,0.92811 0.2728513,0.32039 0.7317377,0.32039 0.4588863,0 0.7296706,-0.32039 0.2728513,-0.32247 0.2728513,-0.92811 z"
         id="path555" />
      <path
         d="m 10.50582,192.50427 q 0,0.17983 -0.08475,0.35553 -0.08268,0.1757 -0.233577,0.29766 -0.165365,0.13229 -0.3865397,0.2067 -0.2191079,0.0744 -0.5291663,0.0744 -0.3327959,0 -0.5994461,-0.062 -0.2645831,-0.062 -0.5395015,-0.18397 v -0.51263 h 0.028939 q 0.2335773,0.1943 0.5395015,0.29972 0.3059242,0.10542 0.5746415,0.10542 0.3803382,0 0.5911778,-0.14263 0.2129068,-0.14262 0.2129068,-0.38033 0,-0.20464 -0.1012858,-0.30179 -0.099219,-0.0972 -0.3038571,-0.1509 -0.1550292,-0.0413 -0.3369301,-0.0682 -0.1798338,-0.0269 -0.3824053,-0.0682 -0.409277,-0.0868 -0.6077143,-0.29558 -0.1963703,-0.21084 -0.1963703,-0.54777 0,-0.38654 0.3265948,-0.63252 0.3265948,-0.24805 0.8288893,-0.24805 0.3245277,0 0.595312,0.062 0.2707838,0.062 0.4795568,0.15296 v 0.4837 h -0.02894 q -0.1757,-0.14883 -0.4630201,-0.24598 -0.2852537,-0.0992 -0.5849768,-0.0992 -0.3286618,0 -0.5291662,0.13642 -0.1984373,0.13643 -0.1984373,0.3514 0,0.19224 0.099219,0.30179 0.099219,0.10956 0.3493324,0.16743 0.1322916,0.0289 0.3762041,0.0703 0.2439126,0.0413 0.4134112,0.0848 0.3431317,0.0909 0.5167647,0.27492 0.173632,0.18397 0.173632,0.5147 z"
         id="path557" />
      <path
         d="M 12.248348,193.38277 H 11.03292 v -0.3142 h 0.403075 v -2.44946 H 11.03292 v -0.31419 h 1.215428 v 0.31419 h -0.403076 v 2.44946 h 0.403076 z"
         id="path559" />
      <path
         d="m 15.140159,190.66872 h -1.099673 v 2.71405 h -0.409277 v -2.71405 h -1.099674 v -0.3638 h 2.608624 z"
         id="path561" />
      <path
         d="m 16.638774,193.38277 h -1.215429 v -0.3142 h 0.403076 v -2.44946 h -0.403076 v -0.31419 h 1.215429 v 0.31419 h -0.403076 v 2.44946 h 0.403076 z"
         id="path563" />
      <path
         d="m 19.629804,190.65839 q 0.188102,0.2067 0.28732,0.50643 0.101286,0.29972 0.101286,0.68006 0,0.38034 -0.103353,0.68213 -0.101285,0.29972 -0.285253,0.50022 -0.19017,0.20878 -0.450619,0.3142 -0.258381,0.10542 -0.591177,0.10542 -0.324528,0 -0.591178,-0.10749 -0.264583,-0.10749 -0.450618,-0.31213 -0.186035,-0.20464 -0.287321,-0.50229 -0.09922,-0.29766 -0.09922,-0.68006 0,-0.37621 0.09922,-0.67386 0.09922,-0.29973 0.289388,-0.51263 0.181901,-0.20257 0.450618,-0.31006 0.270784,-0.10749 0.589111,-0.10749 0.330728,0 0.593245,0.10956 0.264583,0.10748 0.448551,0.30799 z m -0.03721,1.18649 q 0,-0.59945 -0.268718,-0.92398 -0.268717,-0.32659 -0.733804,-0.32659 -0.469222,0 -0.737939,0.32659 -0.26665,0.32453 -0.26665,0.92398 0,0.60564 0.272851,0.92811 0.272851,0.32039 0.731738,0.32039 0.458886,0 0.72967,-0.32039 0.272852,-0.32247 0.272852,-0.92811 z"
         id="path565" />
      <path
         d="m 23.01564,193.38277 h -0.506428 l -1.459342,-2.75332 v 2.75332 h -0.382405 v -3.07785 h 0.634586 l 1.331184,2.51354 v -2.51354 h 0.382405 z"
         id="path567" />
    </g>
    <g
       aria-label="ADJUST"
       id="text572"
       style="font-size:2.82222px;line-height:1.25;word-spacing:0px;display:inline;stroke-width:0.264583"
       transform="translate(43.802567,146.45543)">
      <path
         d="m -41.136972,51.636471 h -0.290766 l -0.201194,-0.571886 h -0.887456 l -0.201193,0.571886 h -0.276986 l 0.746897,-2.051898 h 0.363801 z m -0.57602,-0.806152 -0.359668,-1.007345 -0.361045,1.007345 z"
         id="path624" />
      <path
         d="m -39.091965,50.612589 q 0,0.279742 -0.122646,0.507118 -0.121267,0.227376 -0.323838,0.352777 -0.14056,0.08682 -0.314193,0.125402 -0.172254,0.03858 -0.454752,0.03858 h -0.518142 v -2.051898 h 0.51263 q 0.300412,0 0.476801,0.0441 0.177766,0.04272 0.300412,0.118511 0.209461,0.130913 0.326595,0.348643 0.117133,0.21773 0.117133,0.516764 z m -0.285254,-0.0041 q 0,-0.241156 -0.08406,-0.406521 -0.08406,-0.165364 -0.250803,-0.260449 -0.121267,-0.0689 -0.257693,-0.09508 -0.136426,-0.02756 -0.326595,-0.02756 h -0.256315 v 1.583364 h 0.256315 q 0.19706,0 0.343131,-0.02894 0.14745,-0.02894 0.270096,-0.107487 0.152962,-0.09784 0.228754,-0.257693 0.07717,-0.159852 0.07717,-0.399631 z"
         id="path626" />
      <path
         d="m -37.898585,51.10317 q 0,0.270096 -0.165365,0.416168 -0.163986,0.146072 -0.440972,0.146072 -0.06614,0 -0.176388,-0.0124 -0.110243,-0.01102 -0.184657,-0.02756 v -0.25494 h 0.01516 q 0.0565,0.01929 0.139182,0.03996 0.08268,0.02067 0.169498,0.02067 0.12678,0 0.201194,-0.02894 0.07579,-0.02894 0.111621,-0.08268 0.03721,-0.05512 0.04685,-0.135047 0.01102,-0.07993 0.01102,-0.184657 v -1.197515 h -0.434081 v -0.21773 h 0.706933 z"
         id="path628" />
      <path
         d="m -35.823261,50.812405 q 0,0.223242 -0.04961,0.389984 -0.04823,0.165365 -0.159853,0.275608 -0.106109,0.10473 -0.248046,0.152962 -0.141938,0.04823 -0.330729,0.04823 -0.192926,0 -0.336241,-0.05099 -0.143316,-0.05099 -0.241157,-0.150206 -0.111621,-0.113 -0.16123,-0.272852 -0.04823,-0.159852 -0.04823,-0.39274 v -1.227832 h 0.272852 v 1.241612 q 0,0.166742 0.02205,0.263205 0.02343,0.09646 0.07717,0.175011 0.06063,0.08957 0.163987,0.135047 0.104731,0.04548 0.250803,0.04548 0.14745,0 0.250802,-0.0441 0.103353,-0.04548 0.165365,-0.136425 0.05374,-0.07855 0.07579,-0.179145 0.02343,-0.101975 0.02343,-0.252181 v -1.248502 h 0.272851 z"
         id="path630" />
      <path
         d="m -33.811327,51.050805 q 0,0.119889 -0.0565,0.237022 -0.05512,0.117134 -0.155719,0.198438 -0.110243,0.08819 -0.257693,0.137803 -0.146071,0.04961 -0.352777,0.04961 -0.221864,0 -0.399631,-0.04134 -0.176389,-0.04134 -0.359668,-0.122646 v -0.341753 h 0.01929 q 0.155718,0.129536 0.359668,0.199816 0.203949,0.07028 0.383094,0.07028 0.253559,0 0.394119,-0.09508 0.141937,-0.09508 0.141937,-0.253559 0,-0.136426 -0.06752,-0.201193 -0.06615,-0.06477 -0.202572,-0.100597 -0.103353,-0.02756 -0.22462,-0.04547 -0.119889,-0.01792 -0.254937,-0.04548 -0.272851,-0.05788 -0.405143,-0.197059 -0.130913,-0.14056 -0.130913,-0.36518 0,-0.257693 0.21773,-0.421679 0.21773,-0.165365 0.552593,-0.165365 0.216351,0 0.396874,0.04134 0.180523,0.04134 0.319705,0.101974 v 0.322461 h -0.01929 q -0.117133,-0.09922 -0.30868,-0.163986 -0.190169,-0.06615 -0.389984,-0.06615 -0.219108,0 -0.352778,0.09095 -0.132292,0.09095 -0.132292,0.234267 0,0.128157 0.06615,0.201193 0.06615,0.07304 0.232889,0.111621 0.08819,0.01929 0.250802,0.04685 0.162609,0.02756 0.275608,0.0565 0.228754,0.06063 0.344509,0.183279 0.115755,0.122645 0.115755,0.343131 z"
         id="path632" />
      <path
         d="m -31.909636,49.827108 h -0.733116 v 1.809363 h -0.272851 v -1.809363 h -0.733116 v -0.242535 h 1.739083 z"
         id="path634" />
    </g>
    <g
       aria-label="SET"
       id="text661"
       style="font-size:2.82223px;line-height:1.25;word-spacing:0px;display:inline;stroke-width:0.264583"
       transform="translate(1.32e-4,169.55813)">
      <path
         d="m 17.997534,27.950869 q 0,0.11989 -0.0565,0.237024 -0.05512,0.117133 -0.155719,0.198438 -0.110243,0.08819 -0.257694,0.137804 -0.146072,0.04961 -0.352779,0.04961 -0.221864,0 -0.399632,-0.04134 -0.176389,-0.04134 -0.359669,-0.122646 v -0.341754 h 0.01929 q 0.155719,0.129536 0.359669,0.199816 0.20395,0.07028 0.383095,0.07028 0.25356,0 0.39412,-0.09509 0.141939,-0.09508 0.141939,-0.25356 0,-0.136426 -0.06752,-0.201194 -0.06615,-0.06477 -0.202572,-0.100597 -0.103354,-0.02756 -0.224621,-0.04547 -0.11989,-0.01792 -0.254938,-0.04548 -0.272852,-0.05788 -0.405144,-0.19706 -0.130914,-0.14056 -0.130914,-0.365181 0,-0.257694 0.21773,-0.421681 0.217731,-0.165365 0.552595,-0.165365 0.216353,0 0.396876,0.04134 0.180524,0.04134 0.319706,0.101975 V 26.9132 h -0.01929 q -0.117133,-0.09922 -0.308681,-0.163987 -0.19017,-0.06615 -0.389986,-0.06615 -0.219109,0 -0.352779,0.09095 -0.132292,0.09095 -0.132292,0.234268 0,0.128157 0.06615,0.201194 0.06615,0.07304 0.232889,0.111621 0.08819,0.01929 0.250804,0.04685 0.162609,0.02756 0.275608,0.0565 0.228755,0.06063 0.344511,0.18328 0.115755,0.122646 0.115755,0.343132 z"
         id="path663" />
      <path
         d="m 19.787611,28.536537 h -1.351859 v -2.051904 h 1.351859 v 0.242535 h -1.079007 v 0.562241 h 1.079007 v 0.242536 h -1.079007 v 0.762057 h 1.079007 z"
         id="path665" />
      <path
         d="m 21.683797,26.727168 h -0.733118 v 1.809369 h -0.272853 v -1.809369 h -0.733118 v -0.242535 h 1.739089 z"
         id="path667" />
    </g>
    <g
       aria-label="INITIAL"
       id="text1248"
       style="font-size:2.82223px;line-height:1.25;word-spacing:0px;display:inline;stroke-width:0.264583"
       transform="translate(37.706355,174.32063)">
      <path
         d="m -23.210295,40.745834 h -0.810289 v -0.209462 h 0.268719 v -1.63298 h -0.268719 V 38.69393 h 0.810289 v 0.209462 h -0.268718 v 1.63298 h 0.268718 z"
         id="path1250" />
      <path
         d="m -21.180439,40.745834 h -0.33762 l -0.972898,-1.835552 v 1.835552 h -0.254938 V 38.69393 h 0.423059 l 0.887459,1.675699 V 38.69393 h 0.254938 z"
         id="path1252" />
      <path
         d="m -19.911262,40.745834 h -0.810289 v -0.209462 h 0.268718 v -1.63298 h -0.268718 V 38.69393 h 0.810289 v 0.209462 h -0.268718 v 1.63298 h 0.268718 z"
         id="path1254" />
      <path
         d="M -17.983381,38.936465 H -18.7165 v 1.809369 h -0.272852 V 38.936465 H -19.72247 V 38.69393 h 1.739089 z"
         id="path1256" />
      <path
         d="m -16.984301,40.745834 h -0.810289 v -0.209462 h 0.268719 v -1.63298 H -17.79459 V 38.69393 h 0.810289 v 0.209462 h -0.268718 v 1.63298 h 0.268718 z"
         id="path1258" />
      <path
         d="m -14.902079,40.745834 h -0.290767 l -0.201194,-0.571887 h -0.887459 l -0.201194,0.571887 h -0.276987 l 0.746899,-2.051904 h 0.363803 z m -0.576022,-0.806154 -0.359669,-1.007349 -0.361047,1.007349 z"
         id="path1260" />
      <path
         d="m -13.292526,40.745834 h -1.298116 V 38.69393 h 0.272853 v 1.809369 h 1.025263 z"
         id="path1262" />
    </g>
    <g
       aria-label="Ruminate"
       id="text420"
       style="display:inline;font-size:4.23333px;line-height:1.25;word-spacing:0px;stroke-width:0.264583"
       transform="translate(39.878571,-2.3356363)">
      <path
         d="m -34.457709,179.91238 h -0.531233 l -1.029394,-1.22369 h -0.576708 v 1.22369 h -0.409277 v -3.07784 h 0.861962 q 0.279053,0 0.465088,0.0372 0.186035,0.0351 0.334863,0.12815 0.167431,0.10542 0.260449,0.26665 0.09508,0.15917 0.09508,0.40515 0,0.33279 -0.167431,0.5581 -0.167432,0.22324 -0.460954,0.33693 z m -0.957046,-2.21175 q 0,-0.13229 -0.04754,-0.23357 -0.04548,-0.10336 -0.152962,-0.17364 -0.08888,-0.0599 -0.210839,-0.0827 -0.121957,-0.0248 -0.287321,-0.0248 h -0.481624 v 1.16168 h 0.413411 q 0.194303,0 0.338997,-0.0331 0.144694,-0.0351 0.24598,-0.12816 0.09302,-0.0868 0.136425,-0.19843 0.04548,-0.11369 0.04548,-0.28733 z"
         id="path627" />
      <path
         d="m -32.219087,179.91238 h -0.388607 v -0.25631 q -0.19637,0.15503 -0.376204,0.23771 -0.179834,0.0827 -0.396875,0.0827 -0.363801,0 -0.566373,-0.22117 -0.202571,-0.22324 -0.202571,-0.65319 v -1.49862 h 0.388606 v 1.31465 q 0,0.1757 0.01654,0.30179 0.01654,0.12402 0.07028,0.21291 0.05581,0.0909 0.144694,0.13229 0.08888,0.0413 0.258382,0.0413 0.150895,0 0.328662,-0.0786 0.179834,-0.0785 0.334863,-0.2005 v -1.72393 h 0.388607 z"
         id="path629" />
      <path
         d="m -28.084976,179.91238 h -0.388607 v -1.31464 q 0,-0.14883 -0.01447,-0.28732 -0.0124,-0.1385 -0.05581,-0.22118 -0.04754,-0.0889 -0.136425,-0.13436 -0.08888,-0.0455 -0.256315,-0.0455 -0.163298,0 -0.326595,0.0827 -0.163298,0.0806 -0.326595,0.2067 0.0062,0.0476 0.01034,0.11163 0.0041,0.062 0.0041,0.12402 v 1.47794 h -0.388606 v -1.31464 q 0,-0.15297 -0.01447,-0.28939 -0.0124,-0.13849 -0.05581,-0.22118 -0.04754,-0.0889 -0.136426,-0.13229 -0.08888,-0.0455 -0.256314,-0.0455 -0.159164,0 -0.320394,0.0785 -0.159163,0.0785 -0.318327,0.2005 v 1.72392 h -0.388606 v -2.3089 h 0.388606 v 0.25632 q 0.181901,-0.1509 0.361735,-0.23565 0.181901,-0.0847 0.38654,-0.0847 0.235644,0 0.398941,0.0992 0.165365,0.0992 0.24598,0.27492 0.235644,-0.19844 0.429947,-0.28525 0.194304,-0.0889 0.415479,-0.0889 0.380338,0 0.560172,0.23151 0.181901,0.22945 0.181901,0.64286 z"
         id="path631" />
      <path
         d="m -26.919157,177.21694 h -0.438216 v -0.40307 h 0.438216 z m -0.02481,2.69544 h -0.388606 v -2.3089 h 0.388606 z"
         id="path633" />
      <path
         d="m -24.244387,179.91238 h -0.388607 v -1.31464 q 0,-0.15917 -0.0186,-0.29766 -0.0186,-0.14056 -0.06821,-0.21911 -0.05168,-0.0868 -0.148828,-0.12815 -0.09715,-0.0434 -0.252181,-0.0434 -0.159163,0 -0.332796,0.0785 -0.173633,0.0785 -0.332796,0.2005 v 1.72392 h -0.388606 v -2.3089 h 0.388606 v 0.25632 q 0.181901,-0.1509 0.376204,-0.23565 0.194303,-0.0847 0.398942,-0.0847 0.374137,0 0.570507,0.22531 0.196371,0.22531 0.196371,0.64906 z"
         id="path635" />
      <path
         d="m -21.701909,179.91238 h -0.386539 v -0.24598 q -0.05168,0.0351 -0.14056,0.0992 -0.08682,0.062 -0.169498,0.0992 -0.09715,0.0475 -0.223242,0.0786 -0.126091,0.0331 -0.295589,0.0331 -0.312126,0 -0.529166,-0.2067 -0.217041,-0.20671 -0.217041,-0.5271 0,-0.26252 0.111621,-0.42375 0.113688,-0.1633 0.32246,-0.25631 0.21084,-0.093 0.506429,-0.12609 0.295589,-0.0331 0.634586,-0.0496 v -0.0599 q 0,-0.13229 -0.04754,-0.21911 -0.04547,-0.0868 -0.132292,-0.13642 -0.08268,-0.0475 -0.198437,-0.0641 -0.115755,-0.0165 -0.241846,-0.0165 -0.152962,0 -0.341064,0.0413 -0.188102,0.0393 -0.388606,0.11576 h -0.02067 v -0.39481 q 0.113688,-0.031 0.328662,-0.0682 0.214974,-0.0372 0.423746,-0.0372 0.243913,0 0.423747,0.0413 0.181901,0.0393 0.314192,0.13643 0.130225,0.0951 0.198438,0.24598 0.06821,0.15089 0.06821,0.37414 z m -0.386539,-0.56844 v -0.64285 q -0.177767,0.0103 -0.419612,0.031 -0.239779,0.0207 -0.380338,0.0599 -0.167432,0.0475 -0.270785,0.14883 -0.103353,0.0992 -0.103353,0.27492 0,0.19843 0.11989,0.29972 0.119889,0.0992 0.365869,0.0992 0.204638,0 0.374137,-0.0786 0.169498,-0.0806 0.314192,-0.19224 z"
         id="path637" />
      <path
         d="m -19.754743,179.89171 q -0.109554,0.0289 -0.239778,0.0476 -0.128158,0.0186 -0.229444,0.0186 -0.353466,0 -0.537434,-0.19017 -0.183968,-0.19017 -0.183968,-0.60978 v -1.22783 h -0.262516 v -0.3266 h 0.262516 v -0.66352 h 0.388606 v 0.66352 h 0.802018 v 0.3266 h -0.802018 v 1.05213 q 0,0.1819 0.0083,0.28525 0.0083,0.10129 0.05788,0.19017 0.04547,0.0827 0.124024,0.12196 0.08061,0.0372 0.243912,0.0372 0.09509,0 0.198437,-0.0269 0.103353,-0.0289 0.148828,-0.0475 h 0.02067 z"
         id="path639" />
      <path
         d="m -17.352825,178.79824 h -1.701186 q 0,0.21291 0.06408,0.37207 0.06408,0.1571 0.1757,0.25838 0.107487,0.0992 0.254248,0.14883 0.148828,0.0496 0.326595,0.0496 0.235644,0 0.473355,-0.093 0.239779,-0.0951 0.341065,-0.18603 h 0.02067 v 0.42374 q -0.19637,0.0827 -0.401009,0.1385 -0.204638,0.0558 -0.429947,0.0558 -0.574642,0 -0.897102,-0.31006 -0.322461,-0.31213 -0.322461,-0.8847 0,-0.56637 0.307991,-0.89917 0.310059,-0.3328 0.81442,-0.3328 0.467155,0 0.719336,0.27286 0.254247,0.27285 0.254247,0.77514 z m -0.378271,-0.29765 q -0.0021,-0.30593 -0.155029,-0.47336 -0.150895,-0.16743 -0.460953,-0.16743 -0.312126,0 -0.498161,0.18397 -0.183968,0.18396 -0.208772,0.45682 z"
         id="path641" />
    </g>
  </g>
  <g
     inkscape:groupmode="layer"
     id="layer2"
     inkscape:label="components"
     style="display:none">
    <circle
       style="display:inline;opacity:1;vector-effect:none;fill:#ff0000;fill-opacity:1;fill-rule:evenodd;stroke:none;stroke-width:1;stroke-linecap:butt;stroke-linejoin:miter;stroke-miterlimit:4;stroke-dasharray:none;stroke-dashoffset:0;stroke-opacity:1;paint-order:normal"
       id="path4954"
       cx="19.049801"
       cy="97.087448"
       r="4"
       inkscape:label="speed" />
    <circle
       style="display:inline;opacity:1;vector-effect:none;fill:#0000ff;fill-opacity:1;fill-rule:evenodd;stroke:none;stroke-width:1;stroke-linecap:butt;stroke-linejoin:miter;stroke-miterlimit:4;stroke-dasharray:none;stroke-dashoffset:0;stroke-opacity:1;paint-order:normal"
       id="circle4958"
       cx="19.049801"
       cy="112"
       r="4"
       inkscape:label="right_out" />
    <circle
       style="display:inline;opacity:1;vector-effect:none;fill:#0000ff;fill-opacity:1;fill-rule:evenodd;stroke:none;stroke-width:1;stroke-linecap:butt;stroke-linejoin:miter;stroke-miterlimit:4;stroke-dasharray:none;stroke-dashoffset:0;stroke-opacity:1;paint-order:normal"
       id="circle4958-4"
       cx="6.0349998"
       cy="112"
       r="4"
       inkscape:label="left_out" />
    <circle
       r="4"
       cy="80"
       cx="6.0349998"
       id="circle4956-3-5"
       style="display:inline;opacity:1;vector-effect:none;fill:#00ff00;fill-opacity:1;fill-rule:evenodd;stroke:none;stroke-width:1;stroke-linecap:butt;stroke-linejoin:miter;stroke-miterlimit:4;stroke-dasharray:none;stroke-dashoffset:0;stroke-opacity:1;paint-order:normal"
       inkscape:label="play_trigger" />
    <circle
       r="4"
       cy="97.087448"
       cx="6.0349998"
       id="circle4956-3-5-8"
       style="display:inline;vector-effect:none;fill:#00ff00;fill-opacity:1;fill-rule:evenodd;stroke:none;stroke-width:1;stroke-linecap:butt;stroke-linejoin:miter;stroke-miterlimit:4;stroke-dasharray:none;stroke-dashoffset:0;stroke-opacity:1;paint-order:normal"
       inkscape:label="speed" />
    <circle
       style="display:inline;opacity:1;vector-effect:none;fill:#ff0000;fill-opacity:1;fill-rule:evenodd;stroke:none;stroke-width:1;stroke-linecap:butt;stroke-linejoin:miter;stroke-miterlimit:4;stroke-dasharray:none;stroke-dashoffset:0;stroke-opacity:1;paint-order:normal"
       id="path4954-3-0-2-9-7-7"
       cx="19.049801"
       cy="80"
       r="4"
       inkscape:label="play_button" />
    <circle
       style="display:inline;opacity:1;vector-effect:none;fill:#ff0000;fill-opacity:1;fill-rule:evenodd;stroke:none;stroke-width:1;stroke-linecap:butt;stroke-linejoin:miter;stroke-miterlimit:4;stroke-dasharray:none;stroke-dashoffset:0;stroke-opacity:1;paint-order:normal"
       id="path4954-3"
       cx="6.0349998"
       cy="14"
       r="4"
       inkscape:label="loop" />
    <circle
       style="display:inline;fill:#ff00ff;fill-opacity:1;fill-rule:evenodd;stroke:none;stroke-width:1;stroke-linecap:butt;stroke-linejoin:miter;stroke-miterlimit:4;stroke-dasharray:none;stroke-dashoffset:0;stroke-opacity:1;paint-order:normal"
       id="path4954-3-0-2-9-0-0"
       cx="12.7"
       cy="3"
       r="4"
       inkscape:label="connected" />
    <circle
       style="display:inline;opacity:1;fill:#00ff00;fill-opacity:1;fill-rule:evenodd;stroke:none;stroke-width:1;stroke-linecap:butt;stroke-linejoin:miter;stroke-miterlimit:4;stroke-dasharray:none;stroke-dashoffset:0;stroke-opacity:1;paint-order:normal"
       id="path4954-3-0-2-9-0-3"
       cx="19.049801"
       cy="202.89561"
       r="4"
       inkscape:label="abs_position"
       transform="translate(0,-168.49998)" />
    <circle
       style="display:inline;opacity:1;vector-effect:none;fill:#ff0000;fill-opacity:1;fill-rule:evenodd;stroke:none;stroke-width:1;stroke-linecap:butt;stroke-linejoin:miter;stroke-miterlimit:4;stroke-dasharray:none;stroke-dashoffset:0;stroke-opacity:1;paint-order:normal"
       id="path4954-3-0-2-9-0"
       cx="6.4827566"
       cy="211.49979"
       r="4"
       inkscape:label="adjust"
       transform="translate(0,-168.49998)" />
    <circle
       style="display:inline;opacity:1;vector-effect:none;fill:#ff0000;fill-opacity:1;fill-rule:evenodd;stroke:none;stroke-width:1;stroke-linecap:butt;stroke-linejoin:miter;stroke-miterlimit:4;stroke-dasharray:none;stroke-dashoffset:0;stroke-opacity:1;paint-order:normal"
       id="path4954-3-0-2-9-0-1"
       cx="19.049801"
       cy="219.29979"
       r="4"
       inkscape:label="init_position"
       transform="translate(0,-168.49998)" />
    <circle
       style="display:inline;opacity:1;fill:#0000ff;fill-opacity:1;fill-rule:evenodd;stroke:none;stroke-width:1;stroke-linecap:butt;stroke-linejoin:miter;stroke-miterlimit:4;stroke-dasharray:none;stroke-dashoffset:0;stroke-opacity:1;paint-order:normal"
       id="circle4958-1"
       cx="12.700131"
       cy="233.49977"
       r="4"
       inkscape:label="now_position"
       transform="translate(0,-168.49998)" />
  </g>
</svg>
