<?xml version="1.0" encoding="UTF-8" standalone="no"?>
<svg
   width="325.12mm"
   height="128.5mm"
   viewBox="0 0 325.12002 128.50002"
   version="1.1"
   id="svg8"
   inkscape:version="1.2.1 (9c6d41e410, 2022-07-14)"
   sodipodi:docname="TTY.svg"
   xmlns:inkscape="http://www.inkscape.org/namespaces/inkscape"
   xmlns:sodipodi="http://sodipodi.sourceforge.net/DTD/sodipodi-0.dtd"
   xmlns="http://www.w3.org/2000/svg"
   xmlns:svg="http://www.w3.org/2000/svg"
   xmlns:rdf="http://www.w3.org/1999/02/22-rdf-syntax-ns#"
   xmlns:cc="http://creativecommons.org/ns#"
   xmlns:dc="http://purl.org/dc/elements/1.1/">
  <defs
     id="defs2">
    <linearGradient
       id="linearGradient2877"
       inkscape:swatch="solid">
      <stop
         style="stop-color:#0000ff;stop-opacity:1;"
         offset="0"
         id="stop2875" />
    </linearGradient>
  </defs>
  <sodipodi:namedview
     id="base"
     pagecolor="#ffffff"
     bordercolor="#666666"
     borderopacity="1.0"
     inkscape:pageopacity="0.0"
     inkscape:pageshadow="2"
     inkscape:zoom="1.979899"
     inkscape:cx="171.72593"
     inkscape:cy="259.6092"
     inkscape:document-units="mm"
     inkscape:current-layer="layer1"
     showgrid="false"
     units="mm"
     inkscape:snap-bbox="true"
     inkscape:snap-page="true"
     inkscape:bbox-nodes="false"
     inkscape:snap-bbox-edge-midpoints="false"
     inkscape:window-width="1473"
     inkscape:window-height="1173"
     inkscape:window-x="646"
     inkscape:window-y="144"
     inkscape:window-maximized="0"
     inkscape:snap-bbox-midpoints="true"
     inkscape:snap-nodes="false"
     inkscape:document-rotation="0"
     inkscape:showpageshadow="2"
     inkscape:pagecheckerboard="0"
     inkscape:deskcolor="#d1d1d1">
    <inkscape:grid
       type="xygrid"
       id="grid869" />
  </sodipodi:namedview>
  <metadata
     id="metadata5">
    <rdf:RDF>
      <cc:Work
         rdf:about="">
        <dc:format>image/svg+xml</dc:format>
        <dc:type
           rdf:resource="http://purl.org/dc/dcmitype/StillImage" />
      </cc:Work>
    </rdf:RDF>
  </metadata>
  <g
     inkscape:groupmode="layer"
     id="layer3"
     inkscape:label="Background"
     style="display:inline">
    <rect
       style="display:inline;opacity:1;mix-blend-mode:normal;vector-effect:none;fill:#e8f1f2;fill-opacity:1;fill-rule:evenodd;stroke:none;stroke-width:2.11962;stroke-linecap:butt;stroke-linejoin:miter;stroke-miterlimit:4;stroke-dasharray:none;stroke-dashoffset:0;stroke-opacity:1;paint-order:normal"
       id="rect420"
       width="325.12"
       height="128.5"
       x="5.9211732e-17"
       y="-1.0517578e-05" />
    <g
       aria-label="!"
       transform="matrix(1.3671122,-0.15549205,0.15715032,1.3252755,-0.09637002,-3.1082607)"
       id="text912"
       style="font-style:normal;font-weight:normal;font-size:127.426px;line-height:1.25;font-family:sans-serif;display:inline;fill:#b9b9b9;fill-opacity:1;stroke:none;stroke-width:3.18579;stroke-miterlimit:4;stroke-dasharray:none">
      <path
         d="M 17.007808,5.7176488 15.390095,72.852735 H 4.8127414 L 3.070589,5.7176488 Z M 16.385611,98.362823 H 3.6927863 V 85.234461 H 16.385611 Z"
         style="fill:#b9b9b9;fill-opacity:1;stroke-width:3.18579;stroke-miterlimit:4;stroke-dasharray:none"
         id="path1767" />
    </g>
    <g
       aria-label="!"
       transform="matrix(1.3671122,-0.15549205,0.15715032,1.3252755,39.90363,-8.2049867)"
       id="text912-7"
       style="font-style:normal;font-weight:normal;font-size:127.426px;line-height:1.25;font-family:sans-serif;display:inline;opacity:0.875;fill:#b9b9b9;fill-opacity:1;stroke:none;stroke-width:3.18579;stroke-miterlimit:4;stroke-dasharray:none">
      <path
         d="M 16.571616,9.5122572 14.953903,76.647343 H 4.376549 L 2.6343966,9.5122572 Z M 15.949419,102.15743 H 3.2565939 V 89.029069 H 15.949419 Z"
         style="fill:#b9b9b9;fill-opacity:1;stroke-width:3.18579;stroke-miterlimit:4;stroke-dasharray:none"
         id="path1767-1" />
    </g>
    <g
       aria-label="!"
       transform="matrix(1.3671122,-0.15549205,0.15715032,1.3252755,79.90363,-8.2049867)"
       id="text912-7-2"
       style="font-style:normal;font-weight:normal;font-size:127.426px;line-height:1.25;font-family:sans-serif;display:inline;opacity:0.75;fill:#b9b9b9;fill-opacity:1;stroke:none;stroke-width:3.18579;stroke-miterlimit:4;stroke-dasharray:none">
      <path
         d="M 16.571616,9.5122572 14.953903,76.647343 H 4.376549 L 2.6343966,9.5122572 Z M 15.949419,102.15743 H 3.2565939 V 89.029069 H 15.949419 Z"
         style="fill:#b9b9b9;fill-opacity:1;stroke-width:3.18579;stroke-miterlimit:4;stroke-dasharray:none"
         id="path1767-1-3" />
    </g>
    <g
       aria-label="!"
       transform="matrix(1.3671122,-0.15549205,0.15715032,1.3252755,119.90363,-8.2049867)"
       id="text912-7-4"
       style="font-style:normal;font-weight:normal;font-size:127.426px;line-height:1.25;font-family:sans-serif;display:inline;opacity:0.625;fill:#b9b9b9;fill-opacity:1;stroke:none;stroke-width:3.18579;stroke-miterlimit:4;stroke-dasharray:none">
      <path
         d="M 16.571616,9.5122572 14.953903,76.647343 H 4.376549 L 2.6343966,9.5122572 Z M 15.949419,102.15743 H 3.2565939 V 89.029069 H 15.949419 Z"
         style="fill:#b9b9b9;fill-opacity:1;stroke-width:3.18579;stroke-miterlimit:4;stroke-dasharray:none"
         id="path1767-1-0" />
    </g>
    <g
       aria-label="!"
       transform="matrix(1.3671122,-0.15549205,0.15715032,1.3252755,159.90363,-8.2049867)"
       id="text912-7-42"
       style="font-style:normal;font-weight:normal;font-size:127.426px;line-height:1.25;font-family:sans-serif;display:inline;opacity:0.5;fill:#b9b9b9;fill-opacity:1;stroke:none;stroke-width:3.18579;stroke-miterlimit:4;stroke-dasharray:none">
      <path
         d="M 16.571616,9.5122572 14.953903,76.647343 H 4.376549 L 2.6343966,9.5122572 Z M 15.949419,102.15743 H 3.2565939 V 89.029069 H 15.949419 Z"
         style="fill:#b9b9b9;fill-opacity:1;stroke-width:3.18579;stroke-miterlimit:4;stroke-dasharray:none"
         id="path1767-1-4" />
    </g>
    <g
       aria-label="!"
       transform="matrix(1.3671122,-0.15549205,0.15715032,1.3252755,199.90363,-8.2049867)"
       id="text912-7-8"
       style="font-style:normal;font-weight:normal;font-size:127.426px;line-height:1.25;font-family:sans-serif;display:inline;opacity:0.375;fill:#b9b9b9;fill-opacity:1;stroke:none;stroke-width:3.18579;stroke-miterlimit:4;stroke-dasharray:none">
      <path
         d="M 16.571616,9.5122572 14.953903,76.647343 H 4.376549 L 2.6343966,9.5122572 Z M 15.949419,102.15743 H 3.2565939 V 89.029069 H 15.949419 Z"
         style="fill:#b9b9b9;fill-opacity:1;stroke-width:3.18579;stroke-miterlimit:4;stroke-dasharray:none"
         id="path1767-1-9" />
    </g>
    <g
       aria-label="!"
       transform="matrix(1.3671122,-0.15549205,0.15715032,1.3252755,239.90363,-8.2049867)"
       id="text912-7-1"
       style="font-style:normal;font-weight:normal;font-size:127.426px;line-height:1.25;font-family:sans-serif;display:inline;opacity:0.25;fill:#b9b9b9;fill-opacity:1;stroke:none;stroke-width:3.18579;stroke-miterlimit:4;stroke-dasharray:none">
      <path
         d="M 16.571616,9.5122572 14.953903,76.647343 H 4.376549 L 2.6343966,9.5122572 Z M 15.949419,102.15743 H 3.2565939 V 89.029069 H 15.949419 Z"
         style="fill:#b9b9b9;fill-opacity:1;stroke-width:3.18579;stroke-miterlimit:4;stroke-dasharray:none"
         id="path1767-1-48" />
    </g>
    <g
       aria-label="!"
       transform="matrix(1.3671122,-0.15549205,0.15715032,1.3252755,279.90363,-8.2049867)"
       id="text912-7-6"
       style="font-style:normal;font-weight:normal;font-size:127.426px;line-height:1.25;font-family:sans-serif;display:inline;opacity:0.125;fill:#b9b9b9;fill-opacity:1;stroke:none;stroke-width:3.18579;stroke-miterlimit:4;stroke-dasharray:none">
      <path
         d="M 16.571616,9.5122572 14.953903,76.647343 H 4.376549 L 2.6343966,9.5122572 Z M 15.949419,102.15743 H 3.2565939 V 89.029069 H 15.949419 Z"
         style="fill:#b9b9b9;fill-opacity:1;stroke-width:3.18579;stroke-miterlimit:4;stroke-dasharray:none"
         id="path1767-1-8" />
    </g>
  </g>
  <g
     inkscape:label="Layer 1"
     inkscape:groupmode="layer"
     id="layer1"
     transform="translate(0,-168.49998)"
     style="display:inline">
    <g
       aria-label="T"
       id="text697"
       style="display:inline;font-size:4.23333px;line-height:1.25;word-spacing:0px;stroke-width:0.264583"
       transform="translate(0,168.49998)">
      <path
         d="m 14.987344,1.6799289 h -1.099673 v 2.714044 H 13.478394 V 1.6799289 H 12.37872 V 1.3161272 h 2.608624 z"
         id="path707" />
    </g>
    <g
       aria-label="TY"
       id="text701"
       style="display:inline;font-size:4.23333px;line-height:1.25;word-spacing:0px;stroke-width:0.264583"
       transform="translate(0,168.49998)">
      <path
         d="m 17.869413,1.6799289 h -1.099674 v 2.714044 H 16.360462 V 1.6799289 H 15.260789 V 1.3161272 h 2.608624 z"
         id="path710" />
      <path
         d="M 20.461501,1.3161272 19.378364,3.0441856 V 4.3939729 H 18.969087 V 3.0875938 L 17.881815,1.3161272 h 0.452686 l 0.841291,1.376659 0.84956,-1.376659 z"
         id="path712" />
    </g>
    <g
       aria-label="V1"
       id="text2150"
       style="font-size:4.23333px;line-height:1.25;word-spacing:0px;display:inline;stroke-width:0.264583"
       transform="translate(23.44949,141.29954)">
      <path
         d="m -14.265115,36.21077 -1.120344,3.077846 h -0.545703 l -1.120344,-3.077846 h 0.438216 l 0.965315,2.707843 0.965315,-2.707843 z"
         id="path2152" />
      <path
         d="m -11.970683,39.288616 h -1.666047 v -0.314192 h 0.640787 v -2.062922 h -0.640787 v -0.281119 q 0.130224,0 0.279052,-0.02067 0.148828,-0.02274 0.225309,-0.06408 0.09509,-0.05168 0.148828,-0.130224 0.05581,-0.08061 0.06408,-0.214974 h 0.320394 v 2.773989 h 0.628385 z"
         id="path2154" />
    </g>
    <g
       aria-label="CLEAR "
       id="text2159"
       style="font-size:4.23333px;line-height:1.25;word-spacing:0px;display:inline;stroke-width:0.264583"
       transform="translate(24.348645,193.40505)">
      <path
         d="m -19.660115,42.005342 q -0.113688,0.04961 -0.206705,0.09302 -0.09095,0.04341 -0.239779,0.09095 -0.12609,0.03927 -0.274918,0.06615 -0.146761,0.02894 -0.324528,0.02894 -0.334863,0 -0.609781,-0.09302 -0.272852,-0.09508 -0.475423,-0.295589 -0.198437,-0.19637 -0.310058,-0.49816 -0.111621,-0.303857 -0.111621,-0.704866 0,-0.380338 0.107487,-0.680061 0.107486,-0.299723 0.310058,-0.506429 0.19637,-0.200504 0.473356,-0.305924 0.279052,-0.10542 0.618049,-0.10542 0.248047,0 0.494026,0.05994 0.248047,0.05994 0.549837,0.210839 v 0.485758 h -0.03101 q -0.254247,-0.212906 -0.504361,-0.310058 -0.250114,-0.09715 -0.535368,-0.09715 -0.233577,0 -0.421679,0.07648 -0.186035,0.07441 -0.332796,0.233577 -0.142627,0.155029 -0.223242,0.39274 -0.07855,0.235645 -0.07855,0.545703 0,0.324528 0.08682,0.558105 0.08888,0.233577 0.227377,0.380338 0.144693,0.152962 0.33693,0.227376 0.194303,0.07235 0.409277,0.07235 0.295589,0 0.55397,-0.101285 0.258382,-0.101286 0.483691,-0.303858 h 0.02894 z"
         id="path2163" />
      <path
         d="m -17.134173,42.228584 h -1.947166 v -3.077845 h 0.409277 v 2.714044 h 1.537889 z"
         id="path2165" />
      <path
         d="m -14.697114,42.228584 h -2.027782 v -3.077845 h 2.027782 v 0.363801 h -1.618505 v 0.843359 h 1.618505 v 0.363802 h -1.618505 v 1.143082 h 1.618505 z"
         id="path2167" />
      <path
         d="m -11.621335,42.228584 h -0.436149 l -0.30179,-0.857828 h -1.331184 l -0.30179,0.857828 h -0.415478 l 1.120344,-3.077845 h 0.545703 z m -0.86403,-1.209227 -0.539501,-1.511018 -0.541569,1.511018 z"
         id="path2169" />
      <path
         d="m -8.6075691,42.228584 h -0.5312332 l -1.0293937,-1.223697 h -0.576709 v 1.223697 h -0.409277 v -3.077845 h 0.861963 q 0.279052,0 0.4650872,0.03721 0.186035,0.03514 0.334863,0.128157 0.1674315,0.10542 0.260449,0.26665 0.095085,0.159163 0.095085,0.405143 0,0.332796 -0.1674315,0.558105 -0.1674315,0.223242 -0.4609534,0.33693 z m -0.9570467,-2.211749 q 0,-0.132292 -0.047542,-0.233577 -0.045475,-0.103353 -0.1529621,-0.173633 -0.088883,-0.05994 -0.2108396,-0.08268 -0.1219565,-0.02481 -0.2873215,-0.02481 h -0.481624 v 1.161685 h 0.413412 q 0.194303,0 0.338997,-0.03307 0.1446939,-0.03514 0.2459796,-0.128157 0.093018,-0.08682 0.1364257,-0.198437 0.045475,-0.113688 0.045475,-0.287321 z"
         id="path2171" />
    </g>
    <g
       aria-label="+"
       id="text337"
       style="font-size:16.9333px;line-height:1.25;word-spacing:0px;display:inline;stroke-width:0.264583"
       transform="translate(1.0385742e-7,-13.974751)">
      <path
         d="M 14.130834,269.13615 H 9.6246581 v 4.50618 H 8.2521348 v -4.50618 H 3.7459587 v -1.32291 h 4.5061761 v -4.50618 h 1.3725233 v 4.50618 h 4.5061759 z"
         id="path445" />
    </g>
    <g
       aria-label="PAUSE"
       id="text521"
       style="font-size:4.23333px;line-height:1.25;word-spacing:0px;stroke-width:0.264583"
       transform="translate(25.666065,-0.80684)">
      <path
         d="m -21.385777,222.29279 q 0,0.20464 -0.07235,0.38034 -0.07028,0.17363 -0.198437,0.30179 -0.159163,0.15916 -0.376204,0.23978 -0.217041,0.0785 -0.54777,0.0785 h -0.409277 v 1.14722 h -0.409277 v -3.07785 h 0.835091 q 0.276985,0 0.469221,0.0476 0.192236,0.0455 0.341064,0.14469 0.1757,0.11782 0.270785,0.29352 0.09715,0.1757 0.09715,0.44442 z m -0.425813,0.0103 q 0,-0.15916 -0.05581,-0.27698 -0.05581,-0.11782 -0.169498,-0.19224 -0.09922,-0.0641 -0.227376,-0.0909 -0.126091,-0.0289 -0.320394,-0.0289 h -0.405143 v 1.2299 h 0.345198 q 0.248047,0 0.403076,-0.0434 0.155029,-0.0455 0.252181,-0.14262 0.09715,-0.0992 0.136426,-0.20878 0.04134,-0.10955 0.04134,-0.24598 z"
         id="path527" />
      <path
         d="m -18.522905,224.44046 h -0.436149 l -0.30179,-0.85783 h -1.331184 l -0.30179,0.85783 h -0.415478 l 1.120344,-3.07785 h 0.545703 z m -0.864029,-1.20923 -0.539502,-1.51101 -0.541568,1.51101 z"
         id="path529" />
      <path
         d="m -15.759252,223.20436 q 0,0.33486 -0.07441,0.58498 -0.07235,0.24804 -0.239778,0.41341 -0.159163,0.1571 -0.37207,0.22944 -0.212907,0.0724 -0.496093,0.0724 -0.289388,0 -0.504362,-0.0765 -0.214974,-0.0765 -0.361735,-0.22531 -0.167431,-0.1695 -0.241845,-0.40928 -0.07235,-0.23978 -0.07235,-0.58911 v -1.84175 h 0.409277 v 1.86242 q 0,0.25012 0.03307,0.39481 0.03514,0.14469 0.115755,0.26252 0.09095,0.13435 0.24598,0.20257 0.157096,0.0682 0.376204,0.0682 0.221175,0 0.376204,-0.0662 0.155029,-0.0682 0.248046,-0.20463 0.08062,-0.11783 0.113689,-0.26872 0.03514,-0.15296 0.03514,-0.37827 v -1.87276 h 0.409277 z"
         id="path531" />
      <path
         d="m -12.74135,223.56196 q 0,0.17984 -0.08475,0.35554 -0.08268,0.17569 -0.233577,0.29765 -0.165364,0.13229 -0.386539,0.20671 -0.219108,0.0744 -0.529166,0.0744 -0.332796,0 -0.599447,-0.062 -0.264583,-0.062 -0.539501,-0.18397 v -0.51263 h 0.02894 q 0.233577,0.1943 0.539501,0.29972 0.305924,0.10542 0.574642,0.10542 0.380338,0 0.591178,-0.14262 0.212906,-0.14263 0.212906,-0.38034 0,-0.20464 -0.101285,-0.30179 -0.09922,-0.0971 -0.303858,-0.1509 -0.155029,-0.0413 -0.33693,-0.0682 -0.179833,-0.0269 -0.382405,-0.0682 -0.409277,-0.0868 -0.607714,-0.29559 -0.196371,-0.21084 -0.196371,-0.54777 0,-0.38654 0.326595,-0.63252 0.326595,-0.24805 0.82889,-0.24805 0.324527,0 0.595312,0.062 0.270784,0.062 0.479556,0.15296 v 0.48369 h -0.02894 q -0.1757,-0.14883 -0.463021,-0.24598 -0.285253,-0.0992 -0.584977,-0.0992 -0.328661,0 -0.529166,0.13643 -0.198437,0.13642 -0.198437,0.3514 0,0.19223 0.09922,0.30179 0.09922,0.10955 0.349332,0.16743 0.132292,0.0289 0.376204,0.0703 0.243913,0.0413 0.413411,0.0847 0.343131,0.091 0.516764,0.27491 0.173633,0.18397 0.173633,0.5147 z"
         id="path533" />
      <path
         d="m -10.056246,224.44046 h -2.027781 v -3.07785 h 2.027781 v 0.36381 h -1.618504 v 0.84335 h 1.618504 v 0.36381 h -1.618504 v 1.14308 h 1.618504 z"
         id="path535" />
    </g>
    <g
       aria-label="RATE"
       id="text618"
       style="display:inline;font-size:4.23333px;line-height:1.25;word-spacing:0px;stroke-width:0.264583"
       transform="translate(23.955868,175.31592)">
      <path
         d="m -17.639677,33.261906 h -0.531234 l -1.029393,-1.223697 h -0.576709 v 1.223697 H -20.18629 V 30.18406 h 0.861962 q 0.279053,0 0.465088,0.03721 0.186035,0.03514 0.334863,0.128157 0.167431,0.10542 0.260449,0.266651 0.09508,0.159163 0.09508,0.405142 0,0.332796 -0.167431,0.558105 -0.167432,0.223242 -0.460953,0.336931 z m -0.957047,-2.21175 q 0,-0.132291 -0.04754,-0.233577 -0.04548,-0.103353 -0.152962,-0.173633 -0.08888,-0.05994 -0.21084,-0.08268 -0.121956,-0.02481 -0.287321,-0.02481 h -0.481624 v 1.161686 h 0.413411 q 0.194304,0 0.338997,-0.03307 0.144694,-0.03514 0.24598,-0.128158 0.09302,-0.08682 0.136426,-0.198437 0.04548,-0.113688 0.04548,-0.287321 z"
         id="path624" />
      <path
         d="m -14.816079,33.261906 h -0.436149 l -0.30179,-0.857828 h -1.331184 l -0.30179,0.857828 h -0.415478 l 1.120344,-3.077846 h 0.545702 z m -0.86403,-1.209228 -0.539501,-1.511017 -0.541569,1.511017 z"
         id="path626" />
      <path
         d="m -12.401759,30.547862 h -1.099673 v 2.714044 h -0.409277 v -2.714044 h -1.099674 V 30.18406 h 2.608624 z"
         id="path628" />
      <path
         d="M -9.9605656,33.261906 H -11.988347 V 30.18406 h 2.0277814 v 0.363802 H -11.57907 v 0.843358 h 1.6185044 v 0.363802 H -11.57907 v 1.143082 h 1.6185044 z"
         id="path630" />
    </g>
    <g
       aria-label="V2"
       id="text448"
       style="display:inline;font-size:4.23333px;line-height:1.25;word-spacing:0px;stroke-width:0.264583"
       transform="translate(11.926035,207.43803)">
      <path
         d="m -2.8295086,-16.873976 -1.1203441,3.077846 h -0.5457027 l -1.1203441,-3.077846 h 0.4382158 l 0.9653149,2.707843 0.965315,-2.707843 z"
         id="path450" />
      <path
         d="M -0.35937724,-13.79613 H -2.4429692 v -0.432015 q 0.2170408,-0.186035 0.4340816,-0.37207 0.2191079,-0.186035 0.40721,-0.370003 0.3968746,-0.384472 0.5436356,-0.609781 0.14676093,-0.227376 0.14676093,-0.489892 0,-0.239779 -0.15916323,-0.374137 -0.1570963,-0.136426 -0.4402829,-0.136426 -0.188102,0 -0.4072099,0.06615 -0.2191079,0.06615 -0.4278805,0.202571 h -0.020671 v -0.434081 q 0.146761,-0.07235 0.3906735,-0.132292 0.2459796,-0.05994 0.4754228,-0.05994 0.4733557,0 0.74207294,0.229444 0.26871722,0.227376 0.26871722,0.618049 0,0.1757 -0.0454752,0.328662 -0.0434082,0.150895 -0.1302245,0.287321 -0.0806152,0.128157 -0.19016911,0.25218 -0.10748689,0.124024 -0.26251605,0.274919 -0.221175,0.217041 -0.4568193,0.421679 -0.2356443,0.202572 -0.4402828,0.376204 h 1.65571148 z"
         id="path452" />
    </g>
    <g
       aria-label="+"
       id="text337-5"
       style="display:inline;font-size:16.9333px;line-height:1.25;word-spacing:0px;stroke-width:0.264583"
       transform="translate(1.0385742e-7,1.8972102)">
      <path
         d="M 14.130834,269.13615 H 9.6246581 v 4.50618 H 8.2521348 v -4.50618 H 3.7459587 v -1.32291 h 4.5061761 v -4.50618 h 1.3725233 v 4.50618 h 4.5061759 z"
         id="path445-7" />
    </g>
    <g
       aria-label="+"
       id="text337-3"
       style="display:inline;font-size:16.9333px;line-height:1.25;word-spacing:0px;stroke-width:0.264583"
       transform="translate(1.0385742e-7,18.6037)">
      <path
         d="M 14.130834,269.13615 H 9.6246581 v 4.50618 H 8.2521348 v -4.50618 H 3.7459587 v -1.32291 h 4.5061761 v -4.50618 h 1.3725233 v 4.50618 h 4.5061759 z"
         id="path445-3" />
    </g>
    <g
       aria-label="TEXT1"
       id="text772"
       style="font-size:4.23333px;line-height:1.25;word-spacing:0px;display:inline;stroke-width:0.264583"
       transform="translate(-2.1147446,103.44536)">
      <path
         d="M 7.1443383,142.42881 H 6.0446647 v 2.71404 h -0.409277 v -2.71404 H 4.5357141 v -0.3638 h 2.6086242 z"
         id="path782" />
      <path
         d="M 9.585531,145.14285 H 7.5577495 v -3.07784 H 9.585531 v 0.3638 H 7.9670265 v 0.84336 H 9.585531 v 0.3638 H 7.9670265 v 1.14308 H 9.585531 Z"
         id="path784" />
      <path
         d="m 12.582762,142.06501 -1.062467,1.52135 1.0604,1.55649 h -0.473356 l -0.839225,-1.2671 -0.859895,1.2671 H 9.9617354 l 1.0728016,-1.53789 -1.047997,-1.53995 h 0.471289 l 0.828889,1.25057 0.847493,-1.25057 z"
         id="path786" />
      <path
         d="m 15.329878,142.42881 h -1.099673 v 2.71404 h -0.409277 v -2.71404 h -1.099674 v -0.3638 h 2.608624 z"
         id="path788" />
      <path
         d="M 17.570567,145.14285 H 15.90452 v -0.31419 h 0.640787 v -2.06292 H 15.90452 v -0.28112 q 0.130225,0 0.279053,-0.0207 0.148828,-0.0227 0.225309,-0.0641 0.09508,-0.0517 0.148828,-0.13022 0.05581,-0.0806 0.06408,-0.21498 h 0.320393 v 2.77399 h 0.628385 z"
         id="path790" />
    </g>
    <g
       aria-label="TEXT2"
       id="text776"
       style="font-size:4.23333px;line-height:1.25;word-spacing:0px;display:inline;stroke-width:0.264583"
       transform="translate(-2.7695612,107.84276)">
      <path
         d="M 7.7113024,153.9571 H 6.6116289 v 2.71404 H 6.2023519 V 153.9571 H 5.1026783 v -0.3638 h 2.6086241 z"
         id="path793" />
      <path
         d="M 10.152495,156.67114 H 8.1247136 v -3.07784 h 2.0277814 v 0.3638 H 8.5339906 v 0.84336 h 1.6185044 v 0.3638 H 8.5339906 v 1.14308 h 1.6185044 z"
         id="path795" />
      <path
         d="m 13.149726,153.5933 -1.062467,1.52135 1.0604,1.55649 h -0.473356 l -0.839224,-1.2671 -0.859895,1.2671 H 10.5287 l 1.072801,-1.53789 -1.047997,-1.53995 h 0.471289 l 0.828889,1.25057 0.847493,-1.25057 z"
         id="path797" />
      <path
         d="m 15.896843,153.9571 h -1.099674 v 2.71404 h -0.409277 v -2.71404 h -1.099674 v -0.3638 h 2.608625 z"
         id="path799" />
      <path
         d="m 18.313231,156.67114 h -2.083592 v -0.43201 q 0.217041,-0.18604 0.434082,-0.37207 0.219107,-0.18604 0.40721,-0.37 0.396874,-0.38448 0.543635,-0.60979 0.146761,-0.22737 0.146761,-0.48989 0,-0.23978 -0.159163,-0.37414 -0.157096,-0.13642 -0.440283,-0.13642 -0.188102,0 -0.40721,0.0661 -0.219108,0.0662 -0.42788,0.20258 h -0.02067 v -0.43409 q 0.146761,-0.0723 0.390673,-0.13229 0.24598,-0.0599 0.475423,-0.0599 0.473356,0 0.742073,0.22944 0.268717,0.22738 0.268717,0.61805 0,0.1757 -0.04547,0.32866 -0.04341,0.1509 -0.130224,0.28732 -0.08062,0.12816 -0.190169,0.25218 -0.107487,0.12403 -0.262516,0.27492 -0.221175,0.21704 -0.45682,0.42168 -0.235644,0.20257 -0.440283,0.37621 h 1.655712 z"
         id="path801" />
    </g>
    <g
       aria-label="TEXT3"
       id="text780"
       style="font-size:4.23333px;line-height:1.25;word-spacing:0px;display:inline;stroke-width:0.264583"
       transform="translate(-2.7478547,110.75358)">
      <path
         d="M 7.7113024,167.75321 H 6.6116289 v 2.71404 h -0.409277 v -2.71404 H 5.1026783 v -0.3638 h 2.6086241 z"
         id="path804" />
      <path
         d="M 10.152495,170.46725 H 8.1247136 v -3.07784 h 2.0277814 v 0.3638 H 8.5339906 v 0.84336 h 1.6185044 v 0.3638 H 8.5339906 v 1.14308 h 1.6185044 z"
         id="path806" />
      <path
         d="m 13.149726,167.38941 -1.062467,1.52135 1.0604,1.55649 h -0.473356 l -0.839224,-1.2671 -0.859895,1.2671 H 10.5287 l 1.072801,-1.53788 -1.047997,-1.53996 h 0.471289 l 0.828889,1.25057 0.847493,-1.25057 z"
         id="path808" />
      <path
         d="m 15.896843,167.75321 h -1.099674 v 2.71404 h -0.409277 v -2.71404 h -1.099674 v -0.3638 h 2.608625 z"
         id="path810" />
      <path
         d="m 18.042447,168.98518 q 0.09922,0.0889 0.163297,0.22324 0.06408,0.13436 0.06408,0.34726 0,0.21084 -0.07648,0.38654 -0.07648,0.1757 -0.214974,0.30593 -0.155029,0.14469 -0.365869,0.21497 -0.208773,0.0682 -0.458886,0.0682 -0.256315,0 -0.504362,-0.062 -0.248046,-0.0599 -0.40721,-0.13229 v -0.43201 h 0.03101 q 0.1757,0.11575 0.413411,0.19223 0.237712,0.0765 0.458887,0.0765 0.130224,0 0.276985,-0.0434 0.146761,-0.0434 0.237711,-0.12815 0.09509,-0.091 0.14056,-0.20051 0.04754,-0.10955 0.04754,-0.27698 0,-0.16537 -0.05374,-0.27285 -0.05168,-0.10956 -0.144694,-0.17157 -0.09302,-0.0641 -0.225309,-0.0868 -0.132292,-0.0248 -0.285254,-0.0248 h -0.186035 v -0.34313 h 0.144694 q 0.314193,0 0.500228,-0.13023 0.188102,-0.13229 0.188102,-0.38447 0,-0.11162 -0.04754,-0.1943 -0.04754,-0.0847 -0.132291,-0.13849 -0.08888,-0.0538 -0.190169,-0.0744 -0.101286,-0.0207 -0.229443,-0.0207 -0.196371,0 -0.417546,0.0703 -0.221175,0.0703 -0.417545,0.19844 h -0.02067 v -0.43202 q 0.146761,-0.0723 0.390673,-0.13229 0.24598,-0.062 0.475423,-0.062 0.225309,0 0.396875,0.0413 0.171565,0.0413 0.310058,0.13229 0.148828,0.0992 0.225309,0.23978 0.07648,0.14056 0.07648,0.32866 0,0.25632 -0.181901,0.44855 -0.179834,0.19017 -0.425813,0.23978 v 0.0289 q 0.09922,0.0165 0.227376,0.0703 0.128157,0.0517 0.217041,0.13023 z"
         id="path812" />
    </g>
  </g>
  <g
     inkscape:groupmode="layer"
     id="layer2"
     inkscape:label="components"
     style="display:none">
    <circle
       r="4"
       cy="16"
       cx="8.9383965"
       id="circle4956-3-4-8"
       style="display:inline;vector-effect:none;fill:#00ff00;fill-opacity:1;fill-rule:evenodd;stroke:none;stroke-width:1;stroke-linecap:butt;stroke-linejoin:miter;stroke-miterlimit:4;stroke-dasharray:none;stroke-dashoffset:0;stroke-opacity:1;paint-order:normal"
       inkscape:label="v1" />
    <circle
       r="4"
       cy="29"
       cx="8.9383965"
       id="circle4956-3-4-8-3"
       style="display:inline;vector-effect:none;fill:#00ff00;fill-opacity:1;fill-rule:evenodd;stroke:none;stroke-width:1;stroke-linecap:butt;stroke-linejoin:miter;stroke-miterlimit:4;stroke-dasharray:none;stroke-dashoffset:0;stroke-opacity:1;paint-order:normal"
       inkscape:label="v2" />
    <circle
       r="4"
       cy="86.000046"
       cx="8.9383965"
       id="circle4956-3-4-8-6"
       style="display:inline;fill:#00ff00;fill-opacity:1;fill-rule:evenodd;stroke:none;stroke-width:1;stroke-linecap:butt;stroke-linejoin:miter;stroke-miterlimit:4;stroke-dasharray:none;stroke-dashoffset:0;stroke-opacity:1;paint-order:normal"
       inkscape:label="text3" />
    <circle
       r="4"
       cy="101.87206"
       cx="8.9383965"
       id="circle4956-3-4-8-6-1"
       style="display:inline;fill:#00ff00;fill-opacity:1;fill-rule:evenodd;stroke:none;stroke-width:1;stroke-linecap:butt;stroke-linejoin:miter;stroke-miterlimit:4;stroke-dasharray:none;stroke-dashoffset:0;stroke-opacity:1;paint-order:normal"
       inkscape:label="text2" />
    <circle
       r="4"
       cy="118.57868"
       cx="8.9383965"
       id="circle4956-3-4-8-6-8"
       style="display:inline;fill:#00ff00;fill-opacity:1;fill-rule:evenodd;stroke:none;stroke-width:1;stroke-linecap:butt;stroke-linejoin:miter;stroke-miterlimit:4;stroke-dasharray:none;stroke-dashoffset:0;stroke-opacity:1;paint-order:normal"
       inkscape:label="text1" />
    <circle
       style="display:inline;vector-effect:none;fill:#ff0000;fill-opacity:1;fill-rule:evenodd;stroke:none;stroke-width:1;stroke-linecap:butt;stroke-linejoin:miter;stroke-miterlimit:4;stroke-dasharray:none;stroke-dashoffset:0;stroke-opacity:1;paint-order:normal"
       id="path4954-3-0-2-9-0"
       cx="8.9383965"
       cy="71.000023"
       r="4"
       inkscape:label="clear" />
    <circle
       style="display:inline;vector-effect:none;fill:#ff0000;fill-opacity:1;fill-rule:evenodd;stroke:none;stroke-width:1;stroke-linecap:butt;stroke-linejoin:miter;stroke-miterlimit:4;stroke-dasharray:none;stroke-dashoffset:0;stroke-opacity:1;paint-order:normal"
       id="path4954-3-0-2-9-0-2"
       cx="8.9383965"
       cy="59"
       r="4"
       inkscape:label="pause" />
    <circle
       style="display:inline;fill:#ff0000;fill-opacity:1;fill-rule:evenodd;stroke:none;stroke-width:1;stroke-linecap:butt;stroke-linejoin:miter;stroke-miterlimit:4;stroke-dasharray:none;stroke-dashoffset:0;stroke-opacity:1;paint-order:normal"
       id="path4954-3-0-2-9-0-2-6"
       cx="8.9379997"
       cy="46"
       r="4"
       inkscape:label="sample" />
  </g>
</svg>
