<?xml version="1.0" encoding="UTF-8" standalone="no"?>
<svg
   width="325.12mm"
   height="128.5mm"
   viewBox="0 0 325.12002 128.50002"
   version="1.1"
   id="svg8"
   inkscape:version="1.2.1 (9c6d41e410, 2022-07-14)"
   sodipodi:docname="TTY.svg"
   xmlns:inkscape="http://www.inkscape.org/namespaces/inkscape"
   xmlns:sodipodi="http://sodipodi.sourceforge.net/DTD/sodipodi-0.dtd"
   xmlns="http://www.w3.org/2000/svg"
   xmlns:svg="http://www.w3.org/2000/svg"
   xmlns:rdf="http://www.w3.org/1999/02/22-rdf-syntax-ns#"
   xmlns:cc="http://creativecommons.org/ns#"
   xmlns:dc="http://purl.org/dc/elements/1.1/">
  <defs
     id="defs2">
    <linearGradient
       id="linearGradient2877"
       inkscape:swatch="solid">
      <stop
         style="stop-color:#0000ff;stop-opacity:1;"
         offset="0"
         id="stop2875" />
    </linearGradient>
  </defs>
  <sodipodi:namedview
     id="base"
     pagecolor="#ffffff"
     bordercolor="#666666"
     borderopacity="1.0"
     inkscape:pageopacity="0.0"
     inkscape:pageshadow="2"
     inkscape:zoom="0.9899495"
     inkscape:cx="376.7869"
     inkscape:cy="226.27417"
     inkscape:document-units="mm"
     inkscape:current-layer="layer2"
     showgrid="false"
     units="mm"
     inkscape:snap-bbox="true"
     inkscape:snap-page="true"
     inkscape:bbox-nodes="false"
     inkscape:snap-bbox-edge-midpoints="false"
     inkscape:window-width="1784"
     inkscape:window-height="1199"
     inkscape:window-x="672"
     inkscape:window-y="102"
     inkscape:window-maximized="0"
     inkscape:snap-bbox-midpoints="true"
     inkscape:snap-nodes="false"
     inkscape:document-rotation="0"
     inkscape:showpageshadow="2"
     inkscape:pagecheckerboard="0"
     inkscape:deskcolor="#d1d1d1">
    <inkscape:grid
       type="xygrid"
       id="grid869" />
  </sodipodi:namedview>
  <metadata
     id="metadata5">
    <rdf:RDF>
      <cc:Work
         rdf:about="">
        <dc:format>image/svg+xml</dc:format>
        <dc:type
           rdf:resource="http://purl.org/dc/dcmitype/StillImage" />
      </cc:Work>
    </rdf:RDF>
  </metadata>
  <g
     inkscape:groupmode="layer"
     id="layer3"
     inkscape:label="Background"
     style="display:inline">
    <rect
       style="display:inline;opacity:1;mix-blend-mode:normal;vector-effect:none;fill:#e8f1f2;fill-opacity:1;fill-rule:evenodd;stroke:none;stroke-width:2.11962;stroke-linecap:butt;stroke-linejoin:miter;stroke-miterlimit:4;stroke-dasharray:none;stroke-dashoffset:0;stroke-opacity:1;paint-order:normal"
       id="rect420"
       width="325.12"
       height="128.5"
       x="5.9211732e-17"
       y="-1.0517578e-05" />
    <g
       aria-label="!"
       transform="matrix(1.3671122,-0.15549205,0.15715032,1.3252755,-0.09637002,-3.1082607)"
       id="text912"
       style="font-style:normal;font-weight:normal;font-size:127.426px;line-height:1.25;font-family:sans-serif;display:inline;fill:#b9b9b9;fill-opacity:1;stroke:none;stroke-width:3.18579;stroke-miterlimit:4;stroke-dasharray:none">
      <path
         d="M 17.007808,5.7176488 15.390095,72.852735 H 4.8127414 L 3.070589,5.7176488 Z M 16.385611,98.362823 H 3.6927863 V 85.234461 H 16.385611 Z"
         style="fill:#b9b9b9;fill-opacity:1;stroke-width:3.18579;stroke-miterlimit:4;stroke-dasharray:none"
         id="path1767" />
    </g>
    <g
       aria-label="!"
       transform="matrix(1.3671122,-0.15549205,0.15715032,1.3252755,39.90363,-8.2049867)"
       id="text912-7"
       style="font-style:normal;font-weight:normal;font-size:127.426px;line-height:1.25;font-family:sans-serif;display:inline;opacity:0.875;fill:#b9b9b9;fill-opacity:1;stroke:none;stroke-width:3.18579;stroke-miterlimit:4;stroke-dasharray:none">
      <path
         d="M 16.571616,9.5122572 14.953903,76.647343 H 4.376549 L 2.6343966,9.5122572 Z M 15.949419,102.15743 H 3.2565939 V 89.029069 H 15.949419 Z"
         style="fill:#b9b9b9;fill-opacity:1;stroke-width:3.18579;stroke-miterlimit:4;stroke-dasharray:none"
         id="path1767-1" />
    </g>
    <g
       aria-label="!"
       transform="matrix(1.3671122,-0.15549205,0.15715032,1.3252755,79.90363,-8.2049867)"
       id="text912-7-2"
       style="font-style:normal;font-weight:normal;font-size:127.426px;line-height:1.25;font-family:sans-serif;display:inline;opacity:0.75;fill:#b9b9b9;fill-opacity:1;stroke:none;stroke-width:3.18579;stroke-miterlimit:4;stroke-dasharray:none">
      <path
         d="M 16.571616,9.5122572 14.953903,76.647343 H 4.376549 L 2.6343966,9.5122572 Z M 15.949419,102.15743 H 3.2565939 V 89.029069 H 15.949419 Z"
         style="fill:#b9b9b9;fill-opacity:1;stroke-width:3.18579;stroke-miterlimit:4;stroke-dasharray:none"
         id="path1767-1-3" />
    </g>
    <g
       aria-label="!"
       transform="matrix(1.3671122,-0.15549205,0.15715032,1.3252755,119.90363,-8.2049867)"
       id="text912-7-4"
       style="font-style:normal;font-weight:normal;font-size:127.426px;line-height:1.25;font-family:sans-serif;display:inline;opacity:0.625;fill:#b9b9b9;fill-opacity:1;stroke:none;stroke-width:3.18579;stroke-miterlimit:4;stroke-dasharray:none">
      <path
         d="M 16.571616,9.5122572 14.953903,76.647343 H 4.376549 L 2.6343966,9.5122572 Z M 15.949419,102.15743 H 3.2565939 V 89.029069 H 15.949419 Z"
         style="fill:#b9b9b9;fill-opacity:1;stroke-width:3.18579;stroke-miterlimit:4;stroke-dasharray:none"
         id="path1767-1-0" />
    </g>
    <g
       aria-label="!"
       transform="matrix(1.3671122,-0.15549205,0.15715032,1.3252755,159.90363,-8.2049867)"
       id="text912-7-42"
       style="font-style:normal;font-weight:normal;font-size:127.426px;line-height:1.25;font-family:sans-serif;display:inline;opacity:0.5;fill:#b9b9b9;fill-opacity:1;stroke:none;stroke-width:3.18579;stroke-miterlimit:4;stroke-dasharray:none">
      <path
         d="M 16.571616,9.5122572 14.953903,76.647343 H 4.376549 L 2.6343966,9.5122572 Z M 15.949419,102.15743 H 3.2565939 V 89.029069 H 15.949419 Z"
         style="fill:#b9b9b9;fill-opacity:1;stroke-width:3.18579;stroke-miterlimit:4;stroke-dasharray:none"
         id="path1767-1-4" />
    </g>
    <g
       aria-label="!"
       transform="matrix(1.3671122,-0.15549205,0.15715032,1.3252755,199.90363,-8.2049867)"
       id="text912-7-8"
       style="font-style:normal;font-weight:normal;font-size:127.426px;line-height:1.25;font-family:sans-serif;display:inline;opacity:0.375;fill:#b9b9b9;fill-opacity:1;stroke:none;stroke-width:3.18579;stroke-miterlimit:4;stroke-dasharray:none">
      <path
         d="M 16.571616,9.5122572 14.953903,76.647343 H 4.376549 L 2.6343966,9.5122572 Z M 15.949419,102.15743 H 3.2565939 V 89.029069 H 15.949419 Z"
         style="fill:#b9b9b9;fill-opacity:1;stroke-width:3.18579;stroke-miterlimit:4;stroke-dasharray:none"
         id="path1767-1-9" />
    </g>
    <g
       aria-label="!"
       transform="matrix(1.3671122,-0.15549205,0.15715032,1.3252755,239.90363,-8.2049867)"
       id="text912-7-1"
       style="font-style:normal;font-weight:normal;font-size:127.426px;line-height:1.25;font-family:sans-serif;display:inline;opacity:0.25;fill:#b9b9b9;fill-opacity:1;stroke:none;stroke-width:3.18579;stroke-miterlimit:4;stroke-dasharray:none">
      <path
         d="M 16.571616,9.5122572 14.953903,76.647343 H 4.376549 L 2.6343966,9.5122572 Z M 15.949419,102.15743 H 3.2565939 V 89.029069 H 15.949419 Z"
         style="fill:#b9b9b9;fill-opacity:1;stroke-width:3.18579;stroke-miterlimit:4;stroke-dasharray:none"
         id="path1767-1-48" />
    </g>
    <g
       aria-label="!"
       transform="matrix(1.3671122,-0.15549205,0.15715032,1.3252755,279.90363,-8.2049867)"
       id="text912-7-6"
       style="font-style:normal;font-weight:normal;font-size:127.426px;line-height:1.25;font-family:sans-serif;display:inline;opacity:0.125;fill:#b9b9b9;fill-opacity:1;stroke:none;stroke-width:3.18579;stroke-miterlimit:4;stroke-dasharray:none">
      <path
         d="M 16.571616,9.5122572 14.953903,76.647343 H 4.376549 L 2.6343966,9.5122572 Z M 15.949419,102.15743 H 3.2565939 V 89.029069 H 15.949419 Z"
         style="fill:#b9b9b9;fill-opacity:1;stroke-width:3.18579;stroke-miterlimit:4;stroke-dasharray:none"
         id="path1767-1-8" />
    </g>
  </g>
  <g
     inkscape:label="Layer 1"
     inkscape:groupmode="layer"
     id="layer1"
     transform="translate(0,-168.49998)"
     style="display:inline">
    <g
       aria-label="T"
       id="text697"
       style="display:inline;font-size:4.23333px;line-height:1.25;word-spacing:0px;stroke-width:0.264583"
       transform="translate(0,168.49998)">
      <path
         d="m 14.987344,1.6799289 h -1.099673 v 2.714044 H 13.478394 V 1.6799289 H 12.37872 V 1.3161272 h 2.608624 z"
         id="path707" />
    </g>
    <g
       aria-label="TY"
       id="text701"
       style="display:inline;font-size:4.23333px;line-height:1.25;word-spacing:0px;stroke-width:0.264583"
       transform="translate(0,168.49998)">
      <path
         d="m 17.869413,1.6799289 h -1.099674 v 2.714044 H 16.360462 V 1.6799289 H 15.260789 V 1.3161272 h 2.608624 z"
         id="path710" />
      <path
         d="M 20.461501,1.3161272 19.378364,3.0441856 V 4.3939729 H 18.969087 V 3.0875938 L 17.881815,1.3161272 h 0.452686 l 0.841291,1.376659 0.84956,-1.376659 z"
         id="path712" />
    </g>
    <g
       aria-label="V1"
       id="text2150"
       style="display:inline;font-size:4.23333px;line-height:1.25;word-spacing:0px;stroke-width:0.264583"
       transform="translate(23.44949,182.66526)">
      <path
         d="m -14.265115,36.21077 -1.120344,3.077846 h -0.545703 l -1.120344,-3.077846 h 0.438216 l 0.965315,2.707843 0.965315,-2.707843 z"
         id="path2152" />
      <path
         d="m -11.970683,39.288616 h -1.666047 v -0.314192 h 0.640787 v -2.062922 h -0.640787 v -0.281119 q 0.130224,0 0.279052,-0.02067 0.148828,-0.02274 0.225309,-0.06408 0.09509,-0.05168 0.148828,-0.130224 0.05581,-0.08061 0.06408,-0.214974 h 0.320394 v 2.773989 h 0.628385 z"
         id="path2154" />
    </g>
    <g
       aria-label="CLEAR
"
       id="text2159"
       style="display:inline;font-size:4.23333px;line-height:1.25;word-spacing:0px;stroke-width:0.264583"
       transform="translate(24.348645,200.30505)">
      <path
         d="m -19.660115,42.005342 q -0.113688,0.04961 -0.206705,0.09302 -0.09095,0.04341 -0.239779,0.09095 -0.12609,0.03927 -0.274918,0.06615 -0.146761,0.02894 -0.324528,0.02894 -0.334863,0 -0.609781,-0.09302 -0.272852,-0.09508 -0.475423,-0.295589 -0.198437,-0.19637 -0.310058,-0.49816 -0.111621,-0.303857 -0.111621,-0.704866 0,-0.380338 0.107487,-0.680061 0.107486,-0.299723 0.310058,-0.506429 0.19637,-0.200504 0.473356,-0.305924 0.279052,-0.10542 0.618049,-0.10542 0.248047,0 0.494026,0.05994 0.248047,0.05994 0.549837,0.210839 v 0.485758 h -0.03101 q -0.254247,-0.212906 -0.504361,-0.310058 -0.250114,-0.09715 -0.535368,-0.09715 -0.233577,0 -0.421679,0.07648 -0.186035,0.07441 -0.332796,0.233577 -0.142627,0.155029 -0.223242,0.39274 -0.07855,0.235645 -0.07855,0.545703 0,0.324528 0.08682,0.558105 0.08888,0.233577 0.227377,0.380338 0.144693,0.152962 0.33693,0.227376 0.194303,0.07235 0.409277,0.07235 0.295589,0 0.55397,-0.101285 0.258382,-0.101286 0.483691,-0.303858 h 0.02894 z"
         id="path2163" />
      <path
         d="m -17.134173,42.228584 h -1.947166 v -3.077845 h 0.409277 v 2.714044 h 1.537889 z"
         id="path2165" />
      <path
         d="m -14.697114,42.228584 h -2.027782 v -3.077845 h 2.027782 v 0.363801 h -1.618505 v 0.843359 h 1.618505 v 0.363802 h -1.618505 v 1.143082 h 1.618505 z"
         id="path2167" />
      <path
         d="m -11.621335,42.228584 h -0.436149 l -0.30179,-0.857828 h -1.331184 l -0.30179,0.857828 h -0.415478 l 1.120344,-3.077845 h 0.545703 z m -0.86403,-1.209227 -0.539501,-1.511018 -0.541569,1.511018 z"
         id="path2169" />
      <path
         d="m -8.6075691,42.228584 h -0.5312332 l -1.0293937,-1.223697 h -0.576709 v 1.223697 h -0.409277 v -3.077845 h 0.861963 q 0.279052,0 0.4650872,0.03721 0.186035,0.03514 0.334863,0.128157 0.1674315,0.10542 0.260449,0.26665 0.095085,0.159163 0.095085,0.405143 0,0.332796 -0.1674315,0.558105 -0.1674315,0.223242 -0.4609534,0.33693 z m -0.9570467,-2.211749 q 0,-0.132292 -0.047542,-0.233577 -0.045475,-0.103353 -0.1529621,-0.173633 -0.088883,-0.05994 -0.2108396,-0.08268 -0.1219565,-0.02481 -0.2873215,-0.02481 h -0.481624 v 1.161685 h 0.413412 q 0.194303,0 0.338997,-0.03307 0.1446939,-0.03514 0.2459796,-0.128157 0.093018,-0.08682 0.1364257,-0.198437 0.045475,-0.113688 0.045475,-0.287321 z"
         id="path2171" />
    </g>
  </g>
  <g
     inkscape:groupmode="layer"
     id="layer2"
     inkscape:label="components"
     style="display:none">
    <circle
       r="4"
       cy="59.921772"
       cx="8.9383965"
       id="circle4956-3-4-8"
       style="display:inline;vector-effect:none;fill:#00ff00;fill-opacity:1;fill-rule:evenodd;stroke:none;stroke-width:1;stroke-linecap:butt;stroke-linejoin:miter;stroke-miterlimit:4;stroke-dasharray:none;stroke-dashoffset:0;stroke-opacity:1;paint-order:normal"
       inkscape:label="trigger" />
    <circle
       style="display:inline;vector-effect:none;fill:#ff0000;fill-opacity:1;fill-rule:evenodd;stroke:none;stroke-width:1;stroke-linecap:butt;stroke-linejoin:miter;stroke-miterlimit:4;stroke-dasharray:none;stroke-dashoffset:0;stroke-opacity:1;paint-order:normal"
       id="path4954-3-0-2-9-0"
       cx="8.9383965"
       cy="81.303329"
       r="4"
       inkscape:label="clear" />
  </g>
</svg>
