<?xml version="1.0" encoding="UTF-8" standalone="no"?>
<svg
   width="187.96001mm"
   height="128.5mm"
   viewBox="0 0 187.96002 128.50002"
   version="1.1"
   id="svg8"
   inkscape:version="1.2.1 (9c6d41e410, 2022-07-14)"
   sodipodi:docname="Venn.svg"
   xmlns:inkscape="http://www.inkscape.org/namespaces/inkscape"
   xmlns:sodipodi="http://sodipodi.sourceforge.net/DTD/sodipodi-0.dtd"
   xmlns="http://www.w3.org/2000/svg"
   xmlns:svg="http://www.w3.org/2000/svg"
   xmlns:rdf="http://www.w3.org/1999/02/22-rdf-syntax-ns#"
   xmlns:cc="http://creativecommons.org/ns#"
   xmlns:dc="http://purl.org/dc/elements/1.1/">
  <defs
     id="defs2" />
  <sodipodi:namedview
     id="base"
     pagecolor="#ffffff"
     bordercolor="#666666"
     borderopacity="1.0"
     inkscape:pageopacity="0.0"
     inkscape:pageshadow="2"
     inkscape:zoom="1.4142137"
     inkscape:cx="342.5932"
     inkscape:cy="127.27921"
     inkscape:document-units="mm"
     inkscape:current-layer="g1684"
     showgrid="false"
     units="mm"
     inkscape:snap-bbox="true"
     inkscape:snap-page="true"
     inkscape:bbox-nodes="false"
     inkscape:snap-bbox-edge-midpoints="false"
     inkscape:window-width="2560"
     inkscape:window-height="1417"
     inkscape:window-x="-8"
     inkscape:window-y="-8"
     inkscape:window-maximized="1"
     inkscape:snap-bbox-midpoints="true"
     inkscape:snap-nodes="false"
     inkscape:document-rotation="0"
     inkscape:showpageshadow="2"
     inkscape:pagecheckerboard="0"
     inkscape:deskcolor="#d1d1d1" />
  <metadata
     id="metadata5">
    <rdf:RDF>
      <cc:Work
         rdf:about="">
        <dc:format>image/svg+xml</dc:format>
        <dc:type
           rdf:resource="http://purl.org/dc/dcmitype/StillImage" />
      </cc:Work>
    </rdf:RDF>
  </metadata>
  <g
     inkscape:label="Background"
     inkscape:groupmode="layer"
     id="layer1"
     transform="translate(0,-168.49998)"
     style="display:inline">
    <rect
       style="display:inline;opacity:1;fill:#e8f1f2;fill-opacity:1;fill-rule:evenodd;stroke:none;stroke-width:1.61254;stroke-linecap:butt;stroke-linejoin:miter;stroke-miterlimit:4;stroke-dasharray:none;stroke-dashoffset:0;stroke-opacity:1;paint-order:normal"
       id="rect420"
       width="187.96001"
       height="128.5"
       x="-2.7815501e-08"
       y="168.49997" />
    <g
       aria-label="!"
       transform="matrix(1.1167128,-0.15549235,0.12836675,1.3252781,-2.30373,165.39159)"
       id="text912"
       style="font-style:normal;font-weight:normal;font-size:127.426px;line-height:1.25;font-family:sans-serif;display:inline;fill:#ee7021;fill-opacity:1;stroke:none;stroke-width:3.18552;stroke-miterlimit:4;stroke-dasharray:none">
      <path
         d="M 17.007808,5.7176488 15.390095,72.852735 H 4.8127414 L 3.070589,5.7176488 Z M 16.385611,98.362823 H 3.6927863 V 85.234461 H 16.385611 Z"
         style="fill:#ee7021;fill-opacity:1;stroke-width:3.18552;stroke-miterlimit:4;stroke-dasharray:none"
         id="path1767" />
    </g>
    <g
       aria-label="!"
       transform="matrix(1.1167128,-0.15549235,0.12836675,1.3252781,154.8323,165.39159)"
       id="text912-2"
       style="font-style:normal;font-weight:normal;font-size:127.426px;line-height:1.25;font-family:sans-serif;display:inline;fill:#ee7021;fill-opacity:1;stroke:none;stroke-width:3.18552;stroke-miterlimit:4;stroke-dasharray:none">
      <path
         d="M 17.007808,5.7176488 15.390095,72.852735 H 4.8127414 L 3.070589,5.7176488 Z M 16.385611,98.362823 H 3.6927863 V 85.234461 H 16.385611 Z"
         style="fill:#ee7021;fill-opacity:1;stroke-width:3.18552;stroke-miterlimit:4;stroke-dasharray:none"
         id="path1767-6" />
    </g>
    <rect
       style="fill:#171717;fill-opacity:1;fill-rule:evenodd;stroke-width:0;stroke-dasharray:none"
       id="rect432"
       width="125"
       height="125"
       x="31"
       y="169.93539" />
  </g>
  <g
     inkscape:label="Layer 1"
     inkscape:groupmode="layer"
     id="g1684"
     transform="translate(0,-168.49998)"
     style="display:inline;opacity:1">
    <rect
       style="display:inline;fill:#000000;fill-opacity:0.88755;stroke-width:0.220088"
       id="rect652"
       width="13"
       height="10.721942"
       x="171.66974"
       y="193.38277"
       ry="4.2203341"
       rx="4.2203341" />
    <rect
       style="display:inline;opacity:1;fill:#000000;fill-opacity:0.88755;stroke-width:0.220088"
       id="rect652-0"
       width="13"
       height="10.721942"
       x="171.66974"
       y="175.00153"
       ry="4.2203341"
       rx="4.2203341" />
    <g
       aria-label="Y"
       id="text773"
       style="font-size:7.05556px;line-height:1.25;word-spacing:0px;display:inline;stroke-width:0.264583"
       transform="translate(0.4750464,-1.1431625)">
      <path
         d="m 22.708695,221.84315 -1.805231,2.8801 v 2.24965 h -0.68213 v -2.1773 l -1.812121,-2.95245 h 0.754476 l 1.402155,2.29443 1.415935,-2.29443 z"
         id="path778" />
    </g>
    <g
       aria-label="Y"
       id="text773-8"
       style="font-size:7.05556px;line-height:1.25;word-spacing:0px;display:inline;stroke-width:0.264583"
       transform="translate(157.61079,0.44820216)">
      <path
         d="m 22.708695,221.84315 -1.805231,2.8801 v 2.24965 h -0.68213 v -2.1773 l -1.812121,-2.95245 h 0.754476 l 1.402155,2.29443 1.415935,-2.29443 z"
         id="path778-7" />
    </g>
    <g
       aria-label="X"
       id="text719"
       style="font-size:7.05556px;line-height:1.25;word-spacing:0px;display:inline;stroke-width:0.264583"
       transform="translate(1.6035819,-1.5400325)">
      <path
         d="m 10.02661,222.24002 -1.7707799,2.53559 1.7673349,2.59416 H 9.2342378 l -1.3987097,-2.11185 -1.4331606,2.11185 H 5.6582264 l 1.7880057,-2.56316 -1.7466646,-2.56659 h 0.7854823 l 1.3814842,2.08428 1.4124901,-2.08428 z"
         id="path775" />
    </g>
    <g
       aria-label="X"
       id="text719-2"
       style="font-size:7.05556px;line-height:1.25;word-spacing:0px;display:inline;stroke-width:0.264583"
       transform="translate(158.73977,0.05133216)">
      <path
         d="m 10.02661,222.24002 -1.7707799,2.53559 1.7673349,2.59416 H 9.2342378 l -1.3987097,-2.11185 -1.4331606,2.11185 H 5.6582264 l 1.7880057,-2.56316 -1.7466646,-2.56659 h 0.7854823 l 1.3814842,2.08428 1.4124901,-2.08428 z"
         id="path775-5" />
    </g>
    <g
       aria-label="Venn"
       id="text783"
       style="font-size:8.46667px;line-height:1.25;word-spacing:0px;display:inline;opacity:1;stroke-width:0.264583"
       transform="translate(2.2071977)">
      <path
         d="m 8.4584027,172.92761 -2.240691,6.1557 H 5.126305 l -2.240691,-6.1557 h 0.8764326 l 1.9306323,5.4157 1.9306323,-5.4157 z"
         id="path785" />
      <path
         d="M 12.782688,176.85502 H 9.3803105 q 0,0.42582 0.1281576,0.74415 0.1281576,0.31419 0.3513999,0.51676 0.214974,0.19844 0.508496,0.29766 0.297657,0.0992 0.653191,0.0992 0.471289,0 0.946712,-0.18603 0.479558,-0.19017 0.682129,-0.37207 h 0.04134 v 0.84749 q -0.392741,0.16537 -0.802019,0.27699 -0.409277,0.11162 -0.859896,0.11162 -1.1492844,0 -1.7942066,-0.62012 -0.6449221,-0.62425 -0.6449221,-1.7694 0,-1.13275 0.6159833,-1.79834 0.6201175,-0.66559 1.6288414,-0.66559 0.934311,0 1.438673,0.5457 0.508496,0.5457 0.508496,1.55029 z m -0.756543,-0.59531 q -0.0041,-0.61185 -0.310059,-0.94671 -0.30179,-0.33486 -0.921908,-0.33486 -0.624251,0 -0.9963218,0.36793 -0.3679363,0.36794 -0.4175457,0.91364 z"
         id="path787" />
      <path
         d="m 17.822176,179.08331 h -0.777214 v -2.62929 q 0,-0.31833 -0.03721,-0.59532 -0.03721,-0.28112 -0.136426,-0.43821 -0.103353,-0.17364 -0.297657,-0.25632 -0.194303,-0.0868 -0.504362,-0.0868 -0.318327,0 -0.665592,0.1571 -0.347266,0.1571 -0.665593,0.40101 v 3.44785 h -0.777214 v -4.6178 h 0.777214 v 0.51263 q 0.363802,-0.30179 0.752409,-0.47129 0.388607,-0.1695 0.797884,-0.1695 0.748275,0 1.141017,0.45062 0.392741,0.45061 0.392741,1.29811 z"
         id="path789" />
      <path
         d="m 23.17999,179.08331 h -0.777213 v -2.62929 q 0,-0.31833 -0.03721,-0.59532 -0.03721,-0.28112 -0.136425,-0.43821 -0.103353,-0.17364 -0.297657,-0.25632 -0.194303,-0.0868 -0.504362,-0.0868 -0.318327,0 -0.665593,0.1571 -0.347265,0.1571 -0.665592,0.40101 v 3.44785 h -0.777214 v -4.6178 h 0.777214 v 0.51263 q 0.363802,-0.30179 0.752409,-0.47129 0.388607,-0.1695 0.797884,-0.1695 0.748275,0 1.141016,0.45062 0.392741,0.45061 0.392741,1.29811 z"
         id="path791" />
    </g>
    <g
       aria-label="ADJUST"
       id="text1071"
       style="font-size:4.23333px;line-height:1.25;word-spacing:0px;display:inline;stroke-width:0.264583"
       transform="rotate(-91.12375,102.72151,113.67935)">
      <path
         d="m 14.084926,26.089689 h -0.436148 l -0.301791,-0.857828 h -1.331183 l -0.30179,0.857828 h -0.415479 l 1.120345,-3.077845 h 0.545702 z m -0.864029,-1.209227 -0.539501,-1.511018 -0.541569,1.511018 z"
         id="path1100" />
      <path
         d="m 17.152437,24.553867 q 0,0.419612 -0.183968,0.760676 -0.181901,0.341065 -0.485758,0.529167 -0.21084,0.130224 -0.471289,0.188102 -0.258382,0.05788 -0.682128,0.05788 h -0.777213 v -3.077845 h 0.768945 q 0.450618,0 0.715201,0.06614 0.26665,0.06408 0.450618,0.177767 0.314192,0.19637 0.489892,0.522965 0.1757,0.326595 0.1757,0.775146 z m -0.427881,-0.0062 q 0,-0.361735 -0.12609,-0.609782 -0.126091,-0.248046 -0.376204,-0.390673 -0.181901,-0.103353 -0.38654,-0.142627 -0.204638,-0.04134 -0.489892,-0.04134 h -0.384472 v 2.375047 h 0.384472 q 0.295589,0 0.514697,-0.04341 0.221175,-0.04341 0.405143,-0.161231 0.229443,-0.146761 0.343131,-0.386539 0.115755,-0.239779 0.115755,-0.599446 z"
         id="path1102" />
      <path
         d="m 18.942507,25.289739 q 0,0.405143 -0.248047,0.624251 -0.24598,0.219107 -0.661458,0.219107 -0.09922,0 -0.264583,-0.0186 -0.165364,-0.01654 -0.276985,-0.04134 v -0.382405 h 0.02274 q 0.08475,0.02894 0.208773,0.05994 0.124023,0.03101 0.254248,0.03101 0.190169,0 0.30179,-0.04341 0.113688,-0.04341 0.167431,-0.124024 0.05581,-0.08268 0.07028,-0.202571 0.01654,-0.119889 0.01654,-0.276985 V 23.33844 h -0.651123 v -0.326594 h 1.0604 z"
         id="path1104" />
      <path
         d="m 22.055492,24.85359 q 0,0.334863 -0.07441,0.584977 -0.07235,0.248046 -0.239778,0.413411 -0.159163,0.157096 -0.37207,0.229443 -0.212907,0.07235 -0.496093,0.07235 -0.289388,0 -0.504362,-0.07648 -0.214974,-0.07648 -0.361735,-0.225309 -0.167431,-0.169499 -0.241845,-0.409277 -0.07235,-0.239779 -0.07235,-0.589111 v -1.841746 h 0.409277 v 1.862417 q 0,0.250113 0.03307,0.394807 0.03514,0.144694 0.115755,0.262516 0.09095,0.134359 0.24598,0.202572 0.157096,0.06821 0.376204,0.06821 0.221175,0 0.376204,-0.06615 0.155029,-0.06821 0.248046,-0.204639 0.08062,-0.117822 0.113689,-0.268717 0.03514,-0.152962 0.03514,-0.378271 v -1.872752 h 0.409277 z"
         id="path1106" />
      <path
         d="m 25.073394,25.211191 q 0,0.179833 -0.08475,0.355533 -0.08268,0.1757 -0.233577,0.297656 -0.165364,0.132292 -0.386539,0.206706 -0.219108,0.07441 -0.529166,0.07441 -0.332796,0 -0.599447,-0.06201 -0.264583,-0.06201 -0.539501,-0.183968 v -0.51263 h 0.02894 q 0.233577,0.194304 0.539501,0.299723 0.305924,0.10542 0.574642,0.10542 0.380338,0 0.591178,-0.142627 0.212906,-0.142626 0.212906,-0.380338 0,-0.204638 -0.101285,-0.30179 -0.09922,-0.09715 -0.303858,-0.150895 -0.155029,-0.04134 -0.33693,-0.06821 -0.179833,-0.02687 -0.382405,-0.06821 -0.409277,-0.08682 -0.607714,-0.295589 -0.196371,-0.210839 -0.196371,-0.547769 0,-0.38654 0.326595,-0.632519 0.326595,-0.248047 0.82889,-0.248047 0.324527,0 0.595312,0.06201 0.270784,0.06201 0.479556,0.152962 V 23.6547 h -0.02894 q -0.1757,-0.148828 -0.463021,-0.24598 -0.285253,-0.09922 -0.584977,-0.09922 -0.328661,0 -0.529166,0.136425 -0.198437,0.136426 -0.198437,0.3514 0,0.192236 0.09922,0.30179 0.09922,0.109554 0.349332,0.167431 0.132292,0.02894 0.376204,0.07028 0.243913,0.04134 0.413411,0.08475 0.343131,0.09095 0.516764,0.274919 0.173633,0.183968 0.173633,0.514697 z"
         id="path1108" />
      <path
         d="m 27.92593,23.375645 h -1.099674 v 2.714044 h -0.409277 v -2.714044 h -1.099673 v -0.363801 h 2.608624 z"
         id="path1110" />
    </g>
    <g
       aria-label="DISTANCE"
       transform="translate(0,168.49998)"
       id="text1763"
       style="font-size:4.23333px;line-height:1.25;word-spacing:0px;display:inline;stroke-width:0.264583">
      <path
         d="m 164.2842,20.540641 q 0,0.419613 -0.18397,0.760677 -0.1819,0.341064 -0.48576,0.529166 -0.21084,0.130225 -0.47129,0.188102 -0.25838,0.05788 -0.68212,0.05788 h -0.77722 V 18.99862 h 0.76895 q 0.45062,0 0.7152,0.06615 0.26665,0.06408 0.45062,0.177767 0.31419,0.19637 0.48989,0.522965 0.1757,0.326594 0.1757,0.775145 z m -0.42788,-0.0062 q 0,-0.361734 -0.12609,-0.609781 -0.12609,-0.248047 -0.37621,-0.390674 -0.1819,-0.103352 -0.38654,-0.142626 -0.20463,-0.04134 -0.48989,-0.04134 h -0.38447 v 2.375047 h 0.38447 q 0.29559,0 0.5147,-0.04341 0.22117,-0.04341 0.40514,-0.16123 0.22944,-0.146761 0.34313,-0.38654 0.11576,-0.239778 0.11576,-0.599446 z"
         id="path1817" />
      <path
         d="m 166.03086,22.076464 h -1.21543 v -0.314193 h 0.40308 V 19.31281 h -0.40308 v -0.314192 h 1.21543 v 0.314192 h -0.40308 v 2.449461 h 0.40308 z"
         id="path1819" />
      <path
         d="m 168.96401,21.197965 q 0,0.179834 -0.0848,0.355534 -0.0827,0.175699 -0.23357,0.297656 -0.16537,0.132291 -0.38654,0.206705 -0.21911,0.07441 -0.52917,0.07441 -0.3328,0 -0.59945,-0.06201 -0.26458,-0.06201 -0.5395,-0.183968 v -0.51263 h 0.0289 q 0.23358,0.194303 0.5395,0.299723 0.30593,0.10542 0.57464,0.10542 0.38034,0 0.59118,-0.142627 0.21291,-0.142627 0.21291,-0.380338 0,-0.204639 -0.10129,-0.30179 -0.0992,-0.09715 -0.30385,-0.150896 -0.15503,-0.04134 -0.33693,-0.06821 -0.17984,-0.02687 -0.38241,-0.06821 -0.40928,-0.08682 -0.60771,-0.295589 -0.19637,-0.21084 -0.19637,-0.54777 0,-0.386539 0.32659,-0.632519 0.3266,-0.248047 0.82889,-0.248047 0.32453,0 0.59531,0.06201 0.27079,0.06201 0.47956,0.152962 v 0.483691 h -0.0289 q -0.1757,-0.148828 -0.46302,-0.245979 -0.28525,-0.09922 -0.58498,-0.09922 -0.32866,0 -0.52916,0.136426 -0.19844,0.136425 -0.19844,0.351399 0,0.192236 0.0992,0.30179 0.0992,0.109554 0.34933,0.167432 0.13229,0.02894 0.3762,0.07028 0.24392,0.04134 0.41342,0.08475 0.34313,0.09095 0.51676,0.274918 0.17363,0.183968 0.17363,0.514697 z"
         id="path1821" />
      <path
         d="m 171.81655,19.36242 h -1.09967 v 2.714044 H 170.3076 V 19.36242 h -1.09968 v -0.363802 h 2.60863 z"
         id="path1823" />
      <path
         d="m 174.40864,22.076464 h -0.43615 l -0.30179,-0.857828 h -1.33119 l -0.30179,0.857828 h -0.41547 l 1.12034,-3.077846 h 0.5457 z m -0.86403,-1.209228 -0.5395,-1.511017 -0.54157,1.511017 z"
         id="path1825" />
      <path
         d="m 177.22397,22.076464 h -0.50643 l -1.45934,-2.753318 v 2.753318 h -0.38241 v -3.077846 h 0.63459 l 1.33118,2.51354 v -2.51354 h 0.38241 z"
         id="path1827" />
      <path
         d="m 180.41963,21.853222 q -0.11368,0.04961 -0.2067,0.09302 -0.0909,0.04341 -0.23978,0.09095 -0.12609,0.03927 -0.27492,0.06615 -0.14676,0.02894 -0.32453,0.02894 -0.33486,0 -0.60978,-0.09302 -0.27285,-0.09509 -0.47542,-0.295589 -0.19844,-0.196371 -0.31006,-0.498161 -0.11162,-0.303857 -0.11162,-0.704866 0,-0.380338 0.10749,-0.680061 0.10748,-0.299723 0.31006,-0.506428 0.19637,-0.200505 0.47335,-0.305925 0.27905,-0.10542 0.61805,-0.10542 0.24805,0 0.49403,0.05995 0.24804,0.05994 0.54983,0.21084 v 0.485758 h -0.031 q -0.25425,-0.212907 -0.50436,-0.310059 -0.25012,-0.09715 -0.53537,-0.09715 -0.23358,0 -0.42168,0.07648 -0.18604,0.07441 -0.3328,0.233577 -0.14262,0.155029 -0.22324,0.392741 -0.0786,0.235644 -0.0786,0.545702 0,0.324528 0.0868,0.558105 0.0889,0.233578 0.22738,0.380339 0.14469,0.152962 0.33693,0.227376 0.1943,0.07235 0.40927,0.07235 0.29559,0 0.55397,-0.101286 0.25839,-0.101286 0.48369,-0.303857 h 0.0289 z"
         id="path1829" />
      <path
         d="m 183.02619,22.076464 h -2.02778 v -3.077846 h 2.02778 v 0.363802 h -1.6185 v 0.843358 h 1.6185 v 0.363802 h -1.6185 v 1.143082 h 1.6185 z"
         id="path1831" />
    </g>
    <g
       aria-label="WITHIN"
       id="text1836"
       style="font-size:4.23333px;line-height:1.25;word-spacing:0px;stroke-width:0.264583"
       transform="translate(258.33254,-39.133629)">
      <path
         d="m -85.994029,244.74773 -0.79995,3.07785 h -0.460953 l -0.646989,-2.55488 -0.632519,2.55488 h -0.450618 l -0.81442,-3.07785 h 0.419612 l 0.646989,2.55902 0.636653,-2.55902 h 0.415478 l 0.642854,2.58382 0.642855,-2.58382 z"
         id="path1842" />
      <path
         d="m -84.305244,247.82558 h -1.215429 v -0.3142 h 0.403076 v -2.44946 h -0.403076 v -0.31419 h 1.215429 v 0.31419 h -0.403076 v 2.44946 h 0.403076 z"
         id="path1844" />
      <path
         d="m -81.413433,245.11153 h -1.099674 v 2.71405 h -0.409277 v -2.71405 h -1.099674 v -0.3638 h 2.608625 z"
         id="path1846" />
      <path
         d="m -78.645646,247.82558 h -0.409277 v -1.50689 h -1.535822 v 1.50689 h -0.409277 v -3.07785 h 0.409277 v 1.20716 h 1.535822 v -1.20716 h 0.409277 z"
         id="path1848" />
      <path
         d="m -76.73362,247.82558 h -1.215428 v -0.3142 h 0.403075 v -2.44946 h -0.403075 v -0.31419 h 1.215428 v 0.31419 h -0.403076 v 2.44946 h 0.403076 z"
         id="path1850" />
      <path
         d="m -73.688847,247.82558 h -0.506428 l -1.459341,-2.75332 v 2.75332 h -0.382406 v -3.07785 h 0.634586 l 1.331184,2.51354 v -2.51354 h 0.382405 z"
         id="path1852" />
    </g>
    <rect
       style="display:inline;fill:#000000;fill-opacity:0.88755;stroke-width:0.311252"
       id="rect652-0-4"
       width="26"
       height="10.721942"
       x="159.37602"
       y="210.38174"
       ry="2.5666873"
       rx="2.5666873" />
    <rect
       style="display:inline;fill:#000000;fill-opacity:0.88755;stroke-width:0.311252"
       id="rect652-0-4-5"
       width="26"
       height="10.721942"
       x="2.2399998"
       y="208.49998"
       ry="2.5666873"
       rx="2.5666873" />
    <path
       style="fill:none;stroke:#000000;stroke-width:0.4;stroke-linecap:butt;stroke-linejoin:miter;stroke-dasharray:none;stroke-opacity:1"
       d="m 165.45948,175.45145 2.22011,-2.21998"
       id="path402" />
    <path
       style="fill:none;stroke:#000000;stroke-width:0.375118;stroke-linecap:butt;stroke-linejoin:miter;stroke-dasharray:none;stroke-opacity:1"
       d="m 162.62939,186.51915 c 0.0459,-1.21983 0.23159,-2.26078 2.3061,-2.30544"
       id="path406"
       sodipodi:nodetypes="cc" />
    <path
       style="display:inline;fill:none;stroke:#000000;stroke-width:0.4;stroke-linecap:butt;stroke-linejoin:miter;stroke-dasharray:none;stroke-opacity:1"
       d="m 168.30355,185.87621 c 1.32734,0.0244 2.40874,-0.10465 2.45909,-2.45667"
       id="path406-7"
       sodipodi:nodetypes="cc" />
    <rect
       style="fill:#ffffff;fill-opacity:1;fill-rule:evenodd;stroke:#000000;stroke-width:0.043502;stroke-dasharray:none;stroke-opacity:1"
       id="rect972"
       width="1.6344086"
       height="1.6344086"
       x="49.998543"
       y="309.45743"
       rx="2.5666873"
       ry="2.5666873" />
    <rect
       style="display:inline;fill:#ffffff;fill-opacity:1;fill-rule:evenodd;stroke:#000000;stroke-width:0.043502;stroke-dasharray:none;stroke-opacity:1"
       id="rect972-7"
       width="1.6344086"
       height="1.6344086"
       x="51.934597"
       y="309.45743"
       rx="2.5666873"
       ry="2.5666873" />
    <rect
       style="display:inline;fill:#ffffff;fill-opacity:1;fill-rule:evenodd;stroke:#000000;stroke-width:0.043502;stroke-dasharray:none;stroke-opacity:1"
       id="rect972-9"
       width="1.6344086"
       height="1.6344086"
       x="53.870647"
       y="309.45743"
       rx="2.5666873"
       ry="2.5666873" />
    <rect
       style="display:inline;fill:#ffffff;fill-opacity:1;fill-rule:evenodd;stroke:#000000;stroke-width:0.043502;stroke-dasharray:none;stroke-opacity:1"
       id="rect972-4"
       width="1.6344086"
       height="1.6344086"
       x="55.806702"
       y="309.45743"
       rx="2.5666873"
       ry="2.5666873" />
    <rect
       style="display:inline;fill:#ffffff;fill-opacity:1;fill-rule:evenodd;stroke:#000000;stroke-width:0.043502;stroke-dasharray:none;stroke-opacity:1"
       id="rect972-2"
       width="1.6344086"
       height="1.6344086"
       x="49.998543"
       y="311.41684"
       rx="2.5666873"
       ry="2.5666873" />
    <rect
       style="display:inline;fill:#ffffff;fill-opacity:1;fill-rule:evenodd;stroke:#000000;stroke-width:0.043502;stroke-dasharray:none;stroke-opacity:1"
       id="rect972-7-1"
       width="1.6344086"
       height="1.6344086"
       x="51.934597"
       y="311.41684"
       rx="2.5666873"
       ry="2.5666873" />
    <rect
       style="display:inline;fill:#ffffff;fill-opacity:1;fill-rule:evenodd;stroke:#000000;stroke-width:0.043502;stroke-dasharray:none;stroke-opacity:1"
       id="rect972-9-8"
       width="1.6344086"
       height="1.6344086"
       x="53.870647"
       y="311.41684"
       rx="2.5666873"
       ry="2.5666873" />
    <rect
       style="display:inline;fill:#ffffff;fill-opacity:1;fill-rule:evenodd;stroke:#000000;stroke-width:0.043502;stroke-dasharray:none;stroke-opacity:1"
       id="rect972-4-71"
       width="1.6344086"
       height="1.6344086"
       x="55.806702"
       y="311.41684"
       rx="2.5666873"
       ry="2.5666873" />
    <rect
       style="display:inline;fill:#ffffff;fill-opacity:1;fill-rule:evenodd;stroke:#000000;stroke-width:0.043502;stroke-dasharray:none;stroke-opacity:1"
       id="rect972-0"
       width="1.6344086"
       height="1.6344086"
       x="49.998543"
       y="313.3374"
       rx="2.5666873"
       ry="2.5666873" />
    <rect
       style="display:inline;fill:#ffffff;fill-opacity:1;fill-rule:evenodd;stroke:#000000;stroke-width:0.043502;stroke-dasharray:none;stroke-opacity:1"
       id="rect972-7-12"
       width="1.6344086"
       height="1.6344086"
       x="51.934597"
       y="313.3374"
       rx="2.5666873"
       ry="2.5666873" />
    <rect
       style="display:inline;fill:#ffffff;fill-opacity:1;fill-rule:evenodd;stroke:#000000;stroke-width:0.043502;stroke-dasharray:none;stroke-opacity:1"
       id="rect972-9-4"
       width="1.6344086"
       height="1.6344086"
       x="53.870647"
       y="313.3374"
       rx="2.5666873"
       ry="2.5666873" />
    <rect
       style="display:inline;fill:#ffffff;fill-opacity:1;fill-rule:evenodd;stroke:#000000;stroke-width:0.185958;stroke-dasharray:none;stroke-opacity:1"
       id="rect972-99"
       width="6.9866014"
       height="6.9866014"
       x="32.392815"
       y="186.78233"
       rx="2.5666876"
       ry="2.5666876" />
    <rect
       style="display:inline;fill:#ffffff;fill-opacity:1;fill-rule:evenodd;stroke:#000000;stroke-width:0.185958;stroke-dasharray:none;stroke-opacity:1"
       id="rect972-7-6"
       width="6.9866014"
       height="6.9866014"
       x="40.668835"
       y="186.78233"
       rx="2.5666876"
       ry="2.5666876" />
    <rect
       style="display:inline;fill:#ffffff;fill-opacity:1;fill-rule:evenodd;stroke:#000000;stroke-width:0.185958;stroke-dasharray:none;stroke-opacity:1"
       id="rect972-9-78"
       width="6.9866014"
       height="6.9866014"
       x="48.944904"
       y="186.78233"
       rx="2.5666876"
       ry="2.5666876" />
    <rect
       style="display:inline;fill:#ffffff;fill-opacity:1;fill-rule:evenodd;stroke:#000000;stroke-width:0.185958;stroke-dasharray:none;stroke-opacity:1"
       id="rect972-1"
       width="6.9866085"
       height="6.9866014"
       x="32.392815"
       y="179.05815"
       rx="2.5666876"
       ry="2.5666876" />
    <rect
       style="display:inline;fill:#ffffff;fill-opacity:1;fill-rule:evenodd;stroke:#000000;stroke-width:0.185958;stroke-dasharray:none;stroke-opacity:1"
       id="rect972-7-2"
       width="6.9866085"
       height="6.9866014"
       x="40.668861"
       y="179.05815"
       rx="2.5666876"
       ry="2.5666876" />
    <rect
       style="display:inline;fill:#ffffff;fill-opacity:1;fill-rule:evenodd;stroke:#000000;stroke-width:0.185958;stroke-dasharray:none;stroke-opacity:1"
       id="rect972-9-7"
       width="6.9866085"
       height="6.9866014"
       x="48.944904"
       y="179.05815"
       rx="2.5666876"
       ry="2.5666876" />
    <rect
       style="display:inline;fill:#ffffff;fill-opacity:1;fill-rule:evenodd;stroke:#000000;stroke-width:0.185958;stroke-dasharray:none;stroke-opacity:1"
       id="rect972-4-7"
       width="6.9866085"
       height="6.9866014"
       x="57.220921"
       y="179.05815"
       rx="2.5666876"
       ry="2.5666876" />
    <g
       aria-label="A"
       id="text1122"
       style="font-size:8.46667px;line-height:1.25;word-spacing:0px;fill:#bdbcbd;stroke:#bdbcbd;stroke-width:0.264583"
       transform="matrix(0.55173598,0,0,0.55173536,86.546966,3.4553497)">
      <path
         d="m -89.034431,327.68198 h -0.872298 l -0.603581,-1.71566 h -2.662371 l -0.603581,1.71566 h -0.830957 l 2.240691,-6.1557 h 1.091406 z m -1.72806,-2.41846 -1.079005,-3.02204 -1.083138,3.02204 z"
         id="path3160" />
    </g>
    <g
       aria-label="S"
       id="text3088"
       style="font-size:8.46667px;line-height:1.25;word-spacing:0px;fill:#bdbcbd;stroke:#bdbcbd;stroke-width:0.264583"
       transform="matrix(0.55173598,0,0,0.55173536,86.546966,3.4553497)">
      <path
         d="m -74.447843,325.92498 q 0,0.35967 -0.169499,0.71106 -0.165364,0.3514 -0.467155,0.59532 -0.330729,0.26458 -0.773079,0.41341 -0.438217,0.14883 -1.058334,0.14883 -0.665593,0 -1.198894,-0.12403 -0.529167,-0.12402 -1.079004,-0.36793 v -1.02526 h 0.05788 q 0.467155,0.3886 1.079005,0.59944 0.611849,0.21084 1.149284,0.21084 0.760677,0 1.182357,-0.28525 0.425814,-0.28525 0.425814,-0.76068 0,-0.40928 -0.202571,-0.60358 -0.198438,-0.1943 -0.607716,-0.30179 -0.310058,-0.0827 -0.673861,-0.13643 -0.359668,-0.0537 -0.764811,-0.13642 -0.818555,-0.17363 -1.21543,-0.59118 -0.392741,-0.42168 -0.392741,-1.09554 0,-0.77308 0.65319,-1.26504 0.653191,-0.49609 1.657781,-0.49609 0.649056,0 1.190625,0.12402 0.541569,0.12402 0.959115,0.30592 v 0.96739 h -0.05788 q -0.3514,-0.29766 -0.926042,-0.49196 -0.570509,-0.19844 -1.169955,-0.19844 -0.657325,0 -1.058334,0.27285 -0.396875,0.27285 -0.396875,0.7028 0,0.38447 0.198437,0.60358 0.198438,0.21911 0.698666,0.33487 0.264583,0.0579 0.752409,0.14056 0.487826,0.0827 0.826823,0.16949 0.686264,0.18191 1.033529,0.54984 0.347266,0.36794 0.347266,1.0294 z"
         id="path3163" />
    </g>
    <g
       aria-label="D"
       id="text3092"
       style="font-size:8.46667px;line-height:1.25;word-spacing:0px;fill:#bdbcbd;stroke:#bdbcbd;stroke-width:0.264583"
       transform="matrix(0.55173598,0,0,0.55173536,86.546966,3.4553497)">
      <path
         d="m -59.220467,324.61033 q 0,0.83922 -0.367937,1.52135 -0.363802,0.68213 -0.971517,1.05834 -0.42168,0.26045 -0.942578,0.3762 -0.516765,0.11576 -1.364259,0.11576 h -1.554427 v -6.1557 h 1.537891 q 0.901237,0 1.430404,0.13229 0.533301,0.12816 0.901237,0.35553 0.628386,0.39274 0.979786,1.04593 0.3514,0.65319 0.3514,1.5503 z m -0.855762,-0.0124 q 0,-0.72347 -0.252181,-1.21957 -0.252182,-0.49609 -0.75241,-0.78135 -0.363802,-0.2067 -0.773079,-0.28525 -0.409278,-0.0827 -0.979786,-0.0827 h -0.768945 v 4.7501 h 0.768945 q 0.591179,0 1.029395,-0.0868 0.442351,-0.0868 0.810287,-0.32246 0.458887,-0.29352 0.686263,-0.77308 0.231511,-0.47956 0.231511,-1.19889 z"
         id="path3166" />
    </g>
    <g
       aria-label="F"
       id="text3146"
       style="font-size:8.46667px;line-height:1.25;word-spacing:0px;fill:#bdbcbd;stroke:#bdbcbd;stroke-width:0.264583"
       transform="matrix(0.55173598,0,0,0.55173536,86.546966,3.4553497)">
      <path
         d="m -44.855058,322.25388 h -3.11299 v 1.73633 h 2.674773 v 0.7276 h -2.674773 v 2.96417 h -0.818555 v -6.1557 h 3.931545 z"
         id="path3169" />
    </g>
    <g
       aria-label="←"
       id="text3150"
       style="font-size:8.46667px;line-height:1.25;word-spacing:0px;stroke-width:0.264583"
       transform="matrix(0.55173598,0,0,0.55173536,87.434266,12.260226)">
      <path
         d="m -95.626293,307.15943 h 0.314193 q -0.243913,0.48782 -0.367937,0.68626 -0.119889,0.19431 -0.438216,0.59118 h 6.593915 v 0.41755 h -6.593915 q 0.429948,0.44648 0.818555,1.27744 h -0.322461 q -0.533301,-0.59531 -0.917774,-0.90124 -0.384473,-0.31006 -0.79375,-0.5085 v -0.18603 q 0.359668,-0.15296 0.760677,-0.46716 0.40101,-0.31419 0.946713,-0.9095 z"
         id="path3175" />
    </g>
    <g
       aria-label="→"
       id="text3154"
       style="font-size:8.46667px;line-height:1.25;word-spacing:0px;stroke-width:0.264583"
       transform="matrix(0.55173598,0,0,0.55173536,95.831636,12.544095)">
      <path
         d="m -76.451729,306.64493 q 0.549838,0.59945 0.950847,0.91364 0.401009,0.31006 0.756543,0.46302 v 0.18604 q -0.409277,0.19844 -0.79375,0.50849 -0.384473,0.30593 -0.917774,0.90124 h -0.318327 q 0.388607,-0.83096 0.814421,-1.27744 h -6.593915 v -0.41755 h 6.593915 q -0.314193,-0.401 -0.438216,-0.59531 -0.124024,-0.1943 -0.367937,-0.68213 z"
         id="path3178" />
    </g>
    <g
       aria-label="↓"
       id="text3158"
       style="font-size:8.46667px;line-height:1.25;word-spacing:0px;stroke-width:0.264583"
       transform="matrix(0.55173598,0,0,0.55173536,102.52734,9.4619507)">
      <path
         d="m -107.27086,315.66457 v -0.3142 q 0.49196,0.24392 0.68626,0.36794 0.19431,0.12402 0.59118,0.43821 v -6.09368 h 0.41755 v 6.09368 q 0.44648,-0.42581 1.27744,-0.81442 v 0.31833 q -0.59531,0.5333 -0.90537,0.91777 -0.30593,0.38448 -0.50023,0.79376 h -0.19017 q -0.15296,-0.35554 -0.46716,-0.75655 -0.31005,-0.40101 -0.9095,-0.95084 z"
         id="path3172" />
    </g>
    <g
       aria-label="NEW"
       id="text3187"
       style="font-size:4.23333px;line-height:1.25;word-spacing:0px;stroke-width:0.264583"
       transform="matrix(0.55173598,0,0,0.55173536,93.704416,-6.7006723)">
      <path
         d="m -62.158175,344.55042 h -0.506429 l -1.459341,-2.75332 v 2.75332 h -0.382406 v -3.07785 h 0.634587 l 1.331183,2.51354 v -2.51354 h 0.382406 z"
         id="path3189" />
      <path
         d="m -59.31184,344.55042 h -2.027781 v -3.07785 h 2.027781 v 0.3638 h -1.618504 v 0.84336 h 1.618504 v 0.3638 h -1.618504 v 1.14308 h 1.618504 z"
         id="path3191" />
      <path
         d="m -55.080577,341.47257 -0.799951,3.07785 h -0.460953 l -0.646989,-2.55489 -0.632519,2.55489 h -0.450618 l -0.81442,-3.07785 h 0.419613 l 0.646988,2.55901 0.636653,-2.55901 h 0.415478 l 0.642855,2.58382 0.642854,-2.58382 z"
         id="path3193" />
    </g>
    <rect
       style="display:inline;fill:#ffffff;fill-opacity:1;fill-rule:evenodd;stroke:#000000;stroke-width:0.185958;stroke-dasharray:none;stroke-opacity:1"
       id="rect972-6"
       width="6.9866014"
       height="6.9866014"
       x="32.392815"
       y="171.33389"
       rx="2.5666876"
       ry="2.5666876" />
    <rect
       style="display:inline;fill:#ffffff;fill-opacity:1;fill-rule:evenodd;stroke:#000000;stroke-width:0.185958;stroke-dasharray:none;stroke-opacity:1"
       id="rect972-7-4"
       width="6.9866014"
       height="6.9866014"
       x="40.668835"
       y="171.33389"
       rx="2.5666876"
       ry="2.5666876" />
    <rect
       style="display:inline;fill:#ffffff;fill-opacity:1;fill-rule:evenodd;stroke:#000000;stroke-width:0.185958;stroke-dasharray:none;stroke-opacity:1"
       id="rect972-9-3"
       width="6.9866014"
       height="6.9866014"
       x="48.944904"
       y="171.33389"
       rx="2.5666876"
       ry="2.5666876" />
    <rect
       style="display:inline;fill:#ffffff;fill-opacity:1;fill-rule:evenodd;stroke:#000000;stroke-width:0.185958;stroke-dasharray:none;stroke-opacity:1"
       id="rect972-4-9"
       width="6.9866014"
       height="6.9866014"
       x="57.220913"
       y="171.33389"
       rx="2.5666876"
       ry="2.5666876" />
    <g
       aria-label="Q"
       id="text3330"
       style="font-size:8.46667px;line-height:1.25;word-spacing:0px;fill:#bcbcbc;stroke:#bdbcbd;stroke-width:0.264583"
       transform="matrix(0.55173537,0,0,0.55173537,-18.880498,32.884359)">
      <path
         d="m 102.18325,261.10383 q -0.24804,0.062 -0.49195,0.0868 -0.23978,0.0289 -0.49196,0.0289 -0.71934,0 -1.15756,-0.39688 -0.434079,-0.39274 -0.471286,-1.12861 -0.09922,0.0165 -0.194304,0.0207 -0.09095,0.008 -0.177767,0.008 -0.649056,0 -1.182357,-0.21498 -0.529167,-0.21497 -0.901238,-0.62425 -0.37207,-0.40928 -0.574642,-1.00459 -0.198437,-0.59531 -0.198437,-1.36012 0,-0.75241 0.198437,-1.34773 0.198438,-0.59944 0.578777,-1.02526 0.363802,-0.40514 0.901237,-0.62011 0.541569,-0.21498 1.178223,-0.21498 0.661459,0 1.186487,0.21911 0.52917,0.21497 0.89711,0.61598 0.3762,0.41342 0.57464,1.01286 0.20257,0.59945 0.20257,1.36013 0,1.12861 -0.46302,1.90169 -0.45889,0.77308 -1.2361,1.08314 0.0165,0.47129 0.22324,0.73174 0.20671,0.26045 0.75241,0.26045 0.1695,0 0.40101,-0.0538 0.23565,-0.0496 0.33486,-0.0909 h 0.11162 z m -0.97565,-4.58473 q 0,-1.1989 -0.53743,-1.84795 -0.53744,-0.65319 -1.467613,-0.65319 -0.938444,0 -1.475879,0.65319 -0.533301,0.64905 -0.533301,1.84795 0,1.21129 0.545703,1.85621 0.545703,0.64079 1.463477,0.64079 0.917773,0 1.459343,-0.64079 0.5457,-0.64492 0.5457,-1.85621 z"
         id="path6786" />
    </g>
    <g
       aria-label="W"
       id="text3334"
       style="font-size:8.46667px;line-height:1.25;word-spacing:0px;fill:#bcbcbc;stroke:#bdbcbd;stroke-width:0.264583"
       transform="matrix(0.55173537,0,0,0.55173537,-18.880498,32.884359)">
      <path
         d="m 118.06796,254.1875 -1.5999,6.1557 h -0.92191 l -1.29398,-5.10977 -1.26504,5.10977 h -0.90124 l -1.62884,-6.1557 h 0.83923 l 1.29398,5.11804 1.2733,-5.11804 h 0.83096 l 1.28571,5.16765 1.28571,-5.16765 z"
         id="path6789" />
    </g>
    <g
       aria-label="E"
       id="text3338"
       style="font-size:8.46667px;line-height:1.25;word-spacing:0px;fill:#bcbcbc;stroke:#bdbcbd;stroke-width:0.264583"
       transform="matrix(0.55173537,0,0,0.55173537,-18.880498,32.884359)">
      <path
         d="m 131.29027,260.71136 h -4.05556 v -6.15569 h 4.05556 v 0.7276 h -3.23701 v 1.68672 h 3.23701 v 0.7276 h -3.23701 v 2.28617 h 3.23701 z"
         id="path6792" />
    </g>
    <g
       aria-label="R"
       id="text3342"
       style="font-size:8.46667px;line-height:1.25;word-spacing:0px;fill:#bcbcbc;stroke:#bdbcbd;stroke-width:0.264583"
       transform="matrix(0.55173537,0,0,0.55173537,-18.880498,32.884359)">
      <path
         d="m 146.80905,260.3432 h -1.06247 l -2.05879,-2.4474 h -1.15342 v 2.4474 h -0.81855 v -6.1557 h 1.72392 q 0.55811,0 0.93018,0.0744 0.37207,0.0703 0.66973,0.25631 0.33486,0.21084 0.52089,0.5333 0.19017,0.31833 0.19017,0.81029 0,0.66559 -0.33486,1.11621 -0.33486,0.44648 -0.92191,0.67386 z m -1.9141,-4.4235 q 0,-0.26459 -0.0951,-0.46716 -0.0909,-0.2067 -0.30593,-0.34726 -0.17777,-0.11989 -0.42168,-0.16537 -0.24391,-0.0496 -0.57464,-0.0496 h -0.96325 v 2.32337 h 0.82682 q 0.38861,0 0.678,-0.0661 0.28939,-0.0703 0.49196,-0.25632 0.18603,-0.17363 0.27285,-0.39687 0.0909,-0.22738 0.0909,-0.57464 z"
         id="path6795" />
    </g>
    <g
       aria-label="↑"
       id="text3346"
       style="font-size:8.46667px;line-height:1.25;word-spacing:0px;stroke-width:0.264583"
       transform="matrix(0.55173537,0,0,0.55173537,64.306226,-9.8732013)">
      <path
         d="m -37.996642,332.81448 q 0.599447,-0.54984 0.909506,-0.95085 0.314192,-0.40101 0.467155,-0.75654 h 0.190169 q 0.194303,0.40928 0.500228,0.79375 0.310059,0.38447 0.905372,0.91777 v 0.31833 q -0.830958,-0.38861 -1.277442,-0.81442 v 6.09369 H -36.7192 v -6.09369 q -0.396875,0.31419 -0.595313,0.43821 -0.194303,0.12403 -0.682129,0.36794 z"
         id="path3348" />
    </g>
    <path
       id="path3403-1"
       style="display:inline;fill:#bcbcbc;fill-opacity:0;fill-rule:evenodd;stroke:#000000;stroke-width:0.225709;stroke-linecap:round;stroke-linejoin:round;paint-order:stroke fill markers"
       d="m 55.38389,174.82657 a 1.12855,1.12855 0 0 1 -1.128547,1.12856 1.12855,1.12855 0 0 1 -1.128552,-1.12856 1.12855,1.12855 0 0 1 1.128552,-1.12854 1.12855,1.12855 0 0 1 1.128547,1.12854 z" />
    <path
       id="path3403-7-1"
       style="display:inline;fill:#bcbcbc;fill-opacity:0;fill-rule:evenodd;stroke:#000000;stroke-width:0.125394;stroke-linecap:round;stroke-linejoin:round;paint-order:stroke fill markers"
       d="m 50.774293,174.82658 a 0.626972,0.626972 0 0 1 -0.626969,0.62697 0.626972,0.626972 0 0 1 -0.626965,-0.62697 0.626972,0.626972 0 0 1 0.626965,-0.62695 0.626972,0.626972 0 0 1 0.626969,0.62695 z" />
    <g
       aria-label="SOLO"
       id="text6651"
       style="font-size:4.23333px;line-height:1.25;word-spacing:0px;stroke-width:0.264583"
       transform="matrix(0.55173537,0,0,0.55173537,26.625624,-25.754822)">
      <path
         d="m 58.477045,364.20689 q 0,0.17983 -0.08475,0.35553 -0.08268,0.1757 -0.233578,0.29766 -0.165364,0.13229 -0.386539,0.2067 -0.219108,0.0744 -0.529166,0.0744 -0.332796,0 -0.599446,-0.062 -0.264583,-0.062 -0.539502,-0.18397 v -0.51263 h 0.02894 q 0.233577,0.1943 0.539501,0.29972 0.305925,0.10542 0.574642,0.10542 0.380338,0 0.591178,-0.14262 0.212907,-0.14263 0.212907,-0.38034 0,-0.20464 -0.101286,-0.30179 -0.09922,-0.0971 -0.303857,-0.1509 -0.15503,-0.0413 -0.33693,-0.0682 -0.179834,-0.0269 -0.382406,-0.0682 -0.409277,-0.0868 -0.607714,-0.29559 -0.19637,-0.21084 -0.19637,-0.54777 0,-0.38654 0.326594,-0.63252 0.326595,-0.24805 0.82889,-0.24805 0.324527,0 0.595312,0.062 0.270784,0.062 0.479557,0.15297 v 0.48369 h -0.02894 q -0.1757,-0.14883 -0.463021,-0.24598 -0.285253,-0.0992 -0.584976,-0.0992 -0.328662,0 -0.529167,0.13642 -0.198437,0.13643 -0.198437,0.3514 0,0.19224 0.09922,0.30179 0.09922,0.10956 0.349332,0.16744 0.132292,0.0289 0.376204,0.0703 0.243913,0.0413 0.413411,0.0847 0.343132,0.091 0.516764,0.27492 0.173633,0.18397 0.173633,0.5147 z"
         id="path6653" />
      <path
         d="m 61.4288,362.36101 q 0.188102,0.2067 0.287321,0.50643 0.101286,0.29972 0.101286,0.68006 0,0.38034 -0.103353,0.68213 -0.101286,0.29972 -0.285254,0.50022 -0.190169,0.20878 -0.450618,0.3142 -0.258382,0.10542 -0.591178,0.10542 -0.324527,0 -0.591178,-0.10749 -0.264583,-0.10749 -0.450618,-0.31213 -0.186035,-0.20463 -0.28732,-0.50229 -0.09922,-0.29766 -0.09922,-0.68006 0,-0.37621 0.09922,-0.67386 0.09922,-0.29972 0.289387,-0.51263 0.181901,-0.20257 0.450618,-0.31006 0.270785,-0.10749 0.589111,-0.10749 0.330729,0 0.593245,0.10956 0.264583,0.10748 0.448551,0.30799 z m -0.03721,1.18649 q 0,-0.59945 -0.268717,-0.92397 -0.268717,-0.3266 -0.733805,-0.3266 -0.469221,0 -0.737938,0.3266 -0.266651,0.32452 -0.266651,0.92397 0,0.60565 0.272852,0.92811 0.272851,0.32039 0.731737,0.32039 0.458887,0 0.729671,-0.32039 0.272851,-0.32246 0.272851,-0.92811 z"
         id="path6655" />
      <path
         d="m 64.413628,365.08539 h -1.947166 v -3.07785 h 0.409277 v 2.71405 h 1.537889 z"
         id="path6657" />
      <path
         d="m 67.075995,362.36101 q 0.188102,0.2067 0.287321,0.50643 0.101286,0.29972 0.101286,0.68006 0,0.38034 -0.103353,0.68213 -0.101286,0.29972 -0.285254,0.50022 -0.190169,0.20878 -0.450618,0.3142 -0.258382,0.10542 -0.591178,0.10542 -0.324527,0 -0.591177,-0.10749 -0.264584,-0.10749 -0.450619,-0.31213 -0.186035,-0.20463 -0.28732,-0.50229 -0.09922,-0.29766 -0.09922,-0.68006 0,-0.37621 0.09922,-0.67386 0.09922,-0.29972 0.289387,-0.51263 0.181901,-0.20257 0.450619,-0.31006 0.270784,-0.10749 0.58911,-0.10749 0.330729,0 0.593245,0.10956 0.264583,0.10748 0.448551,0.30799 z m -0.03721,1.18649 q 0,-0.59945 -0.268717,-0.92397 -0.268717,-0.3266 -0.733805,-0.3266 -0.469221,0 -0.737938,0.3266 -0.266651,0.32452 -0.266651,0.92397 0,0.60565 0.272852,0.92811 0.272851,0.32039 0.731737,0.32039 0.458887,0 0.729671,-0.32039 0.272851,-0.32246 0.272851,-0.92811 z"
         id="path6659" />
    </g>
    <g
       aria-label="→"
       id="text3154-1"
       style="font-size:8.46667px;line-height:1.25;word-spacing:0px;display:inline;opacity:1;stroke-width:0.264583"
       transform="matrix(0.24797436,0,0,0.36073713,71.453445,63.672354)">
      <path
         d="m -76.451729,306.64493 q 0.549838,0.59945 0.950847,0.91364 0.401009,0.31006 0.756543,0.46302 v 0.18604 q -0.409277,0.19844 -0.79375,0.50849 -0.384473,0.30593 -0.917774,0.90124 h -0.318327 q 0.388607,-0.83096 0.814421,-1.27744 h -6.593915 v -0.41755 h 6.593915 q -0.314193,-0.401 -0.438216,-0.59531 -0.124024,-0.1943 -0.367937,-0.68213 z"
         id="path3178-2" />
    </g>
    <path
       id="path3403-1-2"
       style="display:inline;fill:#bcbcbc;fill-opacity:0;fill-rule:evenodd;stroke:#000000;stroke-width:0.225709;stroke-linecap:round;stroke-linejoin:round;paint-order:stroke fill markers"
       d="m 32.991793,174.82658 a 1.12855,1.12855 0 0 1 1.128545,-1.12855 1.12855,1.12855 0 0 1 1.128555,1.12855 1.12855,1.12855 0 0 1 -1.128555,1.12855 1.12855,1.12855 0 0 1 -1.128545,-1.12855 z" />
    <path
       id="path3403-7-1-5"
       style="display:inline;fill:#bcbcbc;fill-opacity:0;fill-rule:evenodd;stroke:#000000;stroke-width:0.125394;stroke-linecap:round;stroke-linejoin:round;paint-order:stroke fill markers"
       d="m 37.601393,174.82658 a 0.626972,0.626972 0 0 1 0.626974,-0.62695 0.626972,0.626972 0 0 1 0.626967,0.62695 0.626972,0.626972 0 0 1 -0.626967,0.62697 0.626972,0.626972 0 0 1 -0.626974,-0.62697 z" />
    <g
       aria-label="→"
       id="text3154-1-5"
       style="font-size:8.46667px;line-height:1.25;word-spacing:0px;display:inline;stroke-width:0.264583"
       transform="matrix(0.24797436,0,0,0.36073713,55.928058,63.672354)">
      <path
         d="m -76.451729,306.64493 q 0.549838,0.59945 0.950847,0.91364 0.401009,0.31006 0.756543,0.46302 v 0.18604 q -0.409277,0.19844 -0.79375,0.50849 -0.384473,0.30593 -0.917774,0.90124 h -0.318327 q 0.388607,-0.83096 0.814421,-1.27744 h -6.593915 v -0.41755 h 6.593915 q -0.314193,-0.401 -0.438216,-0.59531 -0.124024,-0.1943 -0.367937,-0.68213 z"
         id="path3178-2-5" />
    </g>
    <g
       aria-label="Z"
       id="text7257"
       style="font-size:8.46667px;line-height:1.25;word-spacing:0px;fill:#bcbcbc;stroke:#bcbcbc;stroke-width:0.264583"
       transform="matrix(0.55173537,0,0,0.55173537,-13.943549,18.548383)">
      <path
         d="m 92.716389,314.32648 h -4.803843 v -0.76068 l 3.774448,-4.66742 h -3.633888 v -0.7276 h 4.572332 v 0.74 l -3.811655,4.68809 h 3.902606 z"
         id="path7341" />
    </g>
    <g
       aria-label="X"
       id="text7261"
       style="font-size:8.46667px;line-height:1.25;word-spacing:0px;fill:#bcbcbc;stroke:#bcbcbc;stroke-width:0.264583"
       transform="matrix(0.55173537,0,0,0.55173537,-13.943549,18.548383)">
      <path
         d="m 107.9355,308.17078 -2.12493,3.04271 2.1208,3.11299 h -0.94671 l -1.67846,-2.53422 -1.71979,2.53422 h -0.89297 l 2.14561,-3.07579 -2.096,-3.07991 h 0.94258 l 1.65778,2.50114 1.69499,-2.50114 z"
         id="path7344" />
    </g>
    <g
       aria-label="C"
       id="text7265"
       style="font-size:8.46667px;line-height:1.25;word-spacing:0px;fill:#bcbcbc;stroke:#bcbcbc;stroke-width:0.264583"
       transform="matrix(0.55173537,0,0,0.55173537,-13.943549,18.548383)">
      <path
         d="m 122.86727,313.87999 q -0.22737,0.0992 -0.41341,0.18604 -0.1819,0.0868 -0.47956,0.1819 -0.25218,0.0786 -0.54983,0.13229 -0.29353,0.0579 -0.64906,0.0579 -0.66973,0 -1.21956,-0.18604 -0.54571,-0.19017 -0.95085,-0.59118 -0.39688,-0.39274 -0.62012,-0.99632 -0.22324,-0.60771 -0.22324,-1.40973 0,-0.76068 0.21497,-1.36013 0.21498,-0.59944 0.62012,-1.01285 0.39274,-0.40101 0.94671,-0.61185 0.55811,-0.21084 1.2361,-0.21084 0.4961,0 0.98806,0.11989 0.49609,0.11989 1.09967,0.42168 v 0.97151 h -0.062 q -0.50849,-0.42581 -1.00872,-0.62011 -0.50023,-0.19431 -1.07074,-0.19431 -0.46715,0 -0.84336,0.15296 -0.37207,0.14883 -0.66559,0.46716 -0.28526,0.31006 -0.44649,0.78548 -0.15709,0.47129 -0.15709,1.09141 0,0.64905 0.17363,1.11621 0.17777,0.46716 0.45475,0.76068 0.28939,0.30592 0.67386,0.45475 0.38861,0.14469 0.81856,0.14469 0.59118,0 1.10794,-0.20257 0.51677,-0.20257 0.96739,-0.60771 h 0.0579 z"
         id="path7347" />
    </g>
    <g
       aria-label="PREV"
       id="text7306"
       style="font-size:4.23333px;line-height:1.25;word-spacing:0px;stroke-width:0.264583"
       transform="matrix(0.55173537,0,0,0.55173537,-49.844843,8.7654077)">
      <path
         d="m 152.09764,328.3711 q 0,0.20464 -0.0724,0.38034 -0.0703,0.17363 -0.19844,0.30179 -0.15916,0.15916 -0.3762,0.23977 -0.21704,0.0786 -0.54777,0.0786 h -0.40928 v 1.14722 h -0.40928 v -3.07785 h 0.8351 q 0.27698,0 0.46922,0.0475 0.19223,0.0455 0.34106,0.1447 0.1757,0.11782 0.27079,0.29352 0.0971,0.1757 0.0971,0.44442 z m -0.42582,0.0103 q 0,-0.15916 -0.0558,-0.27698 -0.0558,-0.11782 -0.1695,-0.19224 -0.0992,-0.0641 -0.22737,-0.091 -0.12609,-0.0289 -0.3204,-0.0289 h -0.40514 v 1.2299 h 0.3452 q 0.24805,0 0.40308,-0.0434 0.15503,-0.0455 0.25218,-0.14262 0.0971,-0.0992 0.13642,-0.20878 0.0413,-0.10955 0.0413,-0.24598 z"
         id="path7316" />
      <path
         d="m 155.18375,330.51877 h -0.53123 l -1.0294,-1.2237 h -0.5767 v 1.2237 h -0.40928 v -3.07785 h 0.86196 q 0.27905,0 0.46509,0.0372 0.18603,0.0351 0.33486,0.12816 0.16743,0.10542 0.26045,0.26665 0.0951,0.15916 0.0951,0.40514 0,0.3328 -0.16743,0.55811 -0.16743,0.22324 -0.46095,0.33693 z m -0.95705,-2.21175 q 0,-0.13229 -0.0475,-0.23358 -0.0455,-0.10335 -0.15296,-0.17363 -0.0889,-0.06 -0.21084,-0.0827 -0.12196,-0.0248 -0.28732,-0.0248 h -0.48162 v 1.16169 h 0.41341 q 0.1943,0 0.33899,-0.0331 0.1447,-0.0351 0.24598,-0.12815 0.093,-0.0868 0.13643,-0.19844 0.0455,-0.11369 0.0455,-0.28732 z"
         id="path7318" />
      <path
         d="m 157.60841,330.51877 h -2.02778 v -3.07785 h 2.02778 v 0.3638 h -1.61851 v 0.84336 h 1.61851 v 0.3638 h -1.61851 v 1.14309 h 1.61851 z"
         id="path7320" />
      <path
         d="m 160.68419,327.44092 -1.12035,3.07785 h -0.5457 l -1.12035,-3.07785 h 0.43822 l 0.96532,2.70785 0.96531,-2.70785 z"
         id="path7322" />
    </g>
    <g
       aria-label="CUT"
       id="text7310"
       style="font-size:4.23333px;line-height:1.25;word-spacing:0px;stroke-width:0.264583"
       transform="matrix(0.55173537,0,0,0.55173537,-56.871646,13.304998)">
      <path
         d="m 181.46019,322.06362 q -0.11369,0.0496 -0.20671,0.093 -0.0909,0.0434 -0.23978,0.091 -0.12609,0.0393 -0.27491,0.0661 -0.14677,0.0289 -0.32453,0.0289 -0.33487,0 -0.60978,-0.093 -0.27286,-0.0951 -0.47543,-0.29559 -0.19843,-0.19637 -0.31006,-0.49816 -0.11162,-0.30386 -0.11162,-0.70487 0,-0.38034 0.10749,-0.68006 0.10749,-0.29972 0.31006,-0.50643 0.19637,-0.2005 0.47335,-0.30592 0.27906,-0.10542 0.61805,-0.10542 0.24805,0 0.49403,0.0599 0.24805,0.06 0.54984,0.21084 v 0.48576 h -0.031 q -0.25425,-0.21291 -0.50436,-0.31006 -0.25011,-0.0971 -0.53537,-0.0971 -0.23357,0 -0.42168,0.0765 -0.18603,0.0744 -0.33279,0.23358 -0.14263,0.15503 -0.22324,0.39274 -0.0786,0.23564 -0.0786,0.5457 0,0.32453 0.0868,0.55811 0.0889,0.23358 0.22738,0.38034 0.14469,0.15296 0.33693,0.22737 0.1943,0.0724 0.40928,0.0724 0.29559,0 0.55397,-0.10129 0.25838,-0.10128 0.48369,-0.30385 h 0.0289 z"
         id="path7325" />
      <path
         d="m 184.35613,321.05077 q 0,0.33486 -0.0744,0.58497 -0.0724,0.24805 -0.23978,0.41341 -0.15916,0.1571 -0.37207,0.22945 -0.21291,0.0723 -0.49609,0.0723 -0.28939,0 -0.50437,-0.0765 -0.21497,-0.0765 -0.36173,-0.22531 -0.16743,-0.16949 -0.24185,-0.40927 -0.0723,-0.23978 -0.0723,-0.58911 v -1.84175 h 0.40927 v 1.86242 q 0,0.25011 0.0331,0.3948 0.0351,0.1447 0.11575,0.26252 0.0909,0.13436 0.24598,0.20257 0.1571,0.0682 0.37621,0.0682 0.22117,0 0.3762,-0.0661 0.15503,-0.0682 0.24805,-0.20464 0.0806,-0.11782 0.11369,-0.26872 0.0351,-0.15296 0.0351,-0.37827 v -1.87275 h 0.40927 z"
         id="path7327" />
      <path
         d="m 187.33269,319.57282 h -1.09967 v 2.71405 h -0.40928 v -2.71405 h -1.09967 v -0.3638 h 2.60862 z"
         id="path7329" />
    </g>
    <g
       aria-label="NEXT"
       id="text7314"
       style="font-size:4.23333px;line-height:1.25;word-spacing:0px;stroke-width:0.264583"
       transform="matrix(0.55173537,0,0,0.55173537,-63.527589,9.7976497)">
      <path
         d="m 207.0624,328.64789 h -0.50643 l -1.45934,-2.75332 v 2.75332 h -0.38241 v -3.07785 h 0.63459 l 1.33118,2.51354 v -2.51354 h 0.38241 z"
         id="path7332" />
      <path
         d="m 209.90873,328.64789 h -2.02778 v -3.07785 h 2.02778 v 0.3638 h -1.6185 v 0.84336 h 1.6185 v 0.3638 h -1.6185 v 1.14309 h 1.6185 z"
         id="path7334" />
      <path
         d="m 212.90596,325.57004 -1.06246,1.52136 1.0604,1.55649 h -0.47336 l -0.83922,-1.26711 -0.8599,1.26711 h -0.44648 l 1.0728,-1.53789 -1.048,-1.53996 h 0.47129 l 0.82889,1.25057 0.84749,-1.25057 z"
         id="path7336" />
      <path
         d="m 215.65308,325.93384 h -1.09967 v 2.71405 h -0.40928 v -2.71405 h -1.09967 v -0.3638 h 2.60862 z"
         id="path7338" />
    </g>
    <g
       aria-label="OFST"
       id="text902"
       style="font-style:normal;font-weight:normal;font-size:3.52778px;line-height:1.25;font-family:sans-serif;display:inline;fill:#000000;fill-opacity:1;stroke:none;stroke-width:0.264583"
       transform="translate(158.84837,58.629059)">
      <path
         d="m 5.1965038,192.68934 q 0.1567519,0.17225 0.2394343,0.42202 0.084405,0.24977 0.084405,0.56672 0,0.31695 -0.086128,0.56844 -0.084405,0.24977 -0.2377117,0.41686 -0.1584745,0.17397 -0.3755157,0.26182 -0.2153186,0.0879 -0.492649,0.0879 -0.2704401,0 -0.4926489,-0.0896 -0.2204863,-0.0896 -0.3755157,-0.2601 -0.1550294,-0.17053 -0.2394343,-0.41858 -0.082682,-0.24805 -0.082682,-0.56672 0,-0.3135 0.082682,-0.56155 0.082682,-0.24977 0.2411569,-0.42719 0.1515843,-0.16881 0.3755156,-0.25839 0.2256539,-0.0896 0.4909264,-0.0896 0.2756079,0 0.4943716,0.0913 0.2204862,0.0896 0.3737931,0.25666 z m -0.031006,0.98874 q 0,-0.49954 -0.2239314,-0.76998 -0.2239313,-0.27216 -0.6115048,-0.27216 -0.3910186,0 -0.6149499,0.27216 -0.2222088,0.27044 -0.2222088,0.76998 0,0.50471 0.2273764,0.77342 0.2273765,0.267 0.6097823,0.267 0.3824058,0 0.6080597,-0.267 0.2273765,-0.26871 0.2273765,-0.77342 z"
         style="font-size:3.52778px;stroke-width:0.264583"
         id="path904" />
      <path
         d="M 7.6993672,192.69795 H 6.4022879 v 0.72347 H 7.516777 v 0.30317 H 6.4022879 v 1.23507 H 6.0612232 v -2.56488 h 1.638144 z"
         style="font-size:3.52778px;stroke-width:0.264583"
         id="path906" />
      <path
         d="m 9.9524611,194.22757 q 0,0.14986 -0.070625,0.29628 -0.068902,0.14642 -0.194648,0.24805 -0.1378039,0.11024 -0.3221166,0.17225 -0.1825902,0.062 -0.4409725,0.062 -0.2773304,0 -0.4995392,-0.0517 -0.2204863,-0.0517 -0.4495853,-0.15331 v -0.42719 h 0.024116 q 0.1946481,0.16192 0.4495853,0.24977 0.2549372,0.0879 0.4788686,0.0879 0.316949,0 0.4926489,-0.11886 0.1774226,-0.11885 0.1774226,-0.31695 0,-0.17053 -0.084405,-0.25149 -0.082682,-0.081 -0.2532147,-0.12574 -0.1291912,-0.0345 -0.2807755,-0.0568 -0.1498617,-0.0224 -0.3186715,-0.0568 -0.3410647,-0.0724 -0.5064294,-0.24633 -0.1636421,-0.1757 -0.1636421,-0.45647 0,-0.32212 0.2721627,-0.5271 0.2721627,-0.20671 0.6907421,-0.20671 0.2704402,0 0.4960941,0.0517 0.2256539,0.0517 0.3996313,0.12747 v 0.40307 h -0.024116 q -0.1464166,-0.12402 -0.3858509,-0.20498 -0.2377118,-0.0827 -0.4874814,-0.0827 -0.2738852,0 -0.4409725,0.11369 -0.1653646,0.11368 -0.1653646,0.29283 0,0.1602 0.082682,0.25149 0.082682,0.0913 0.2911108,0.13953 0.1102431,0.0241 0.3135038,0.0586 0.2032608,0.0345 0.3445098,0.0706 0.2859431,0.0758 0.4306372,0.2291 0.1446941,0.1533 0.1446941,0.42891 z"
         style="font-size:3.52778px;stroke-width:0.264583"
         id="path908" />
      <path
         d="m 12.329579,192.69795 h -0.916396 v 2.26171 h -0.341065 v -2.26171 h -0.916396 v -0.30317 h 2.173857 z"
         style="font-size:3.52778px;stroke-width:0.264583"
         id="path910" />
    </g>
    <g
       aria-label="INV"
       id="text873-2"
       style="font-size:3.52778px;line-height:1.25;word-spacing:0px;display:inline;stroke-width:0.264583"
       transform="translate(-1.4444745,0.52916667)">
      <path
         d="m 163.2664,204.49014 h -1.01286 v -0.26182 h 0.33589 v -2.04122 h -0.33589 v -0.26183 h 1.01286 v 0.26183 h -0.3359 v 2.04122 h 0.3359 z"
         id="path974" />
      <path
         d="m 165.80371,204.49014 h -0.42202 l -1.21612,-2.29443 v 2.29443 h -0.31868 v -2.56487 h 0.52883 l 1.10932,2.09462 v -2.09462 h 0.31867 z"
         id="path976" />
      <path
         d="m 168.50811,201.92527 -0.93362,2.56487 h -0.45475 l -0.93362,-2.56487 h 0.36518 l 0.80443,2.25654 0.80443,-2.25654 z"
         id="path978" />
    </g>
    <g
       aria-label="INV"
       id="text873-2-9"
       style="display:inline;font-size:3.52778px;line-height:1.25;word-spacing:0px;stroke-width:0.264583"
       transform="translate(1.2013588,36.422459)">
      <path
         d="m 163.2664,204.49014 h -1.01286 v -0.26182 h 0.33589 v -2.04122 h -0.33589 v -0.26183 h 1.01286 v 0.26183 h -0.3359 v 2.04122 h 0.3359 z"
         id="path974-9" />
      <path
         d="m 165.80371,204.49014 h -0.42202 l -1.21612,-2.29443 v 2.29443 h -0.31868 v -2.56487 h 0.52883 l 1.10932,2.09462 v -2.09462 h 0.31867 z"
         id="path976-8" />
      <path
         d="m 168.50811,201.92527 -0.93362,2.56487 h -0.45475 l -0.93362,-2.56487 h 0.36518 l 0.80443,2.25654 0.80443,-2.25654 z"
         id="path978-4" />
    </g>
    <g
       aria-label="OFST"
       id="text902-0"
       style="font-style:normal;font-weight:normal;font-size:3.52778px;line-height:1.25;font-family:sans-serif;display:inline;fill:#000000;fill-opacity:1;stroke:none;stroke-width:0.264583"
       transform="translate(170.43592,58.629059)">
      <path
         d="m 5.1965038,192.68934 q 0.1567519,0.17225 0.2394343,0.42202 0.084405,0.24977 0.084405,0.56672 0,0.31695 -0.086128,0.56844 -0.084405,0.24977 -0.2377117,0.41686 -0.1584745,0.17397 -0.3755157,0.26182 -0.2153186,0.0879 -0.492649,0.0879 -0.2704401,0 -0.4926489,-0.0896 -0.2204863,-0.0896 -0.3755157,-0.2601 -0.1550294,-0.17053 -0.2394343,-0.41858 -0.082682,-0.24805 -0.082682,-0.56672 0,-0.3135 0.082682,-0.56155 0.082682,-0.24977 0.2411569,-0.42719 0.1515843,-0.16881 0.3755156,-0.25839 0.2256539,-0.0896 0.4909264,-0.0896 0.2756079,0 0.4943716,0.0913 0.2204862,0.0896 0.3737931,0.25666 z m -0.031006,0.98874 q 0,-0.49954 -0.2239314,-0.76998 -0.2239313,-0.27216 -0.6115048,-0.27216 -0.3910186,0 -0.6149499,0.27216 -0.2222088,0.27044 -0.2222088,0.76998 0,0.50471 0.2273764,0.77342 0.2273765,0.267 0.6097823,0.267 0.3824058,0 0.6080597,-0.267 0.2273765,-0.26871 0.2273765,-0.77342 z"
         style="font-size:3.52778px;stroke-width:0.264583"
         id="path904-8" />
      <path
         d="M 7.6993672,192.69795 H 6.4022879 v 0.72347 H 7.516777 v 0.30317 H 6.4022879 v 1.23507 H 6.0612232 v -2.56488 h 1.638144 z"
         style="font-size:3.52778px;stroke-width:0.264583"
         id="path906-9" />
      <path
         d="m 9.9524611,194.22757 q 0,0.14986 -0.070625,0.29628 -0.068902,0.14642 -0.194648,0.24805 -0.1378039,0.11024 -0.3221166,0.17225 -0.1825902,0.062 -0.4409725,0.062 -0.2773304,0 -0.4995392,-0.0517 -0.2204863,-0.0517 -0.4495853,-0.15331 v -0.42719 h 0.024116 q 0.1946481,0.16192 0.4495853,0.24977 0.2549372,0.0879 0.4788686,0.0879 0.316949,0 0.4926489,-0.11886 0.1774226,-0.11885 0.1774226,-0.31695 0,-0.17053 -0.084405,-0.25149 -0.082682,-0.081 -0.2532147,-0.12574 -0.1291912,-0.0345 -0.2807755,-0.0568 -0.1498617,-0.0224 -0.3186715,-0.0568 -0.3410647,-0.0724 -0.5064294,-0.24633 -0.1636421,-0.1757 -0.1636421,-0.45647 0,-0.32212 0.2721627,-0.5271 0.2721627,-0.20671 0.6907421,-0.20671 0.2704402,0 0.4960941,0.0517 0.2256539,0.0517 0.3996313,0.12747 v 0.40307 h -0.024116 q -0.1464166,-0.12402 -0.3858509,-0.20498 -0.2377118,-0.0827 -0.4874814,-0.0827 -0.2738852,0 -0.4409725,0.11369 -0.1653646,0.11368 -0.1653646,0.29283 0,0.1602 0.082682,0.25149 0.082682,0.0913 0.2911108,0.13953 0.1102431,0.0241 0.3135038,0.0586 0.2032608,0.0345 0.3445098,0.0706 0.2859431,0.0758 0.4306372,0.2291 0.1446941,0.1533 0.1446941,0.42891 z"
         style="font-size:3.52778px;stroke-width:0.264583"
         id="path908-8" />
      <path
         d="m 12.329579,192.69795 h -0.916396 v 2.26171 h -0.341065 v -2.26171 h -0.916396 v -0.30317 h 2.173857 z"
         style="font-size:3.52778px;stroke-width:0.264583"
         id="path910-0" />
    </g>
    <g
       aria-label="INV"
       id="text873-2-9-5"
       style="display:inline;font-size:3.52778px;line-height:1.25;word-spacing:0px;stroke-width:0.264583"
       transform="translate(12.788914,36.422459)">
      <path
         d="m 163.2664,204.49014 h -1.01286 v -0.26182 h 0.33589 v -2.04122 h -0.33589 v -0.26183 h 1.01286 v 0.26183 h -0.3359 v 2.04122 h 0.3359 z"
         id="path974-9-0" />
      <path
         d="m 165.80371,204.49014 h -0.42202 l -1.21612,-2.29443 v 2.29443 h -0.31868 v -2.56487 h 0.52883 l 1.10932,2.09462 v -2.09462 h 0.31867 z"
         id="path976-8-5" />
      <path
         d="m 168.50811,201.92527 -0.93362,2.56487 h -0.45475 l -0.93362,-2.56487 h 0.36518 l 0.80443,2.25654 0.80443,-2.25654 z"
         id="path978-4-9" />
    </g>
  </g>
  <g
     inkscape:groupmode="layer"
     id="layer2"
     inkscape:label="components"
     style="display:none">
    <circle
       style="display:inline;vector-effect:none;fill:#0000ff;fill-opacity:1;fill-rule:evenodd;stroke:none;stroke-width:1;stroke-linecap:butt;stroke-linejoin:miter;stroke-miterlimit:4;stroke-dasharray:none;stroke-dashoffset:0;stroke-opacity:1;paint-order:normal"
       id="circle4958-4-5"
       cx="178.16974"
       cy="11.90625"
       r="4"
       inkscape:label="distance" />
    <circle
       style="display:inline;vector-effect:none;fill:#0000ff;fill-opacity:1;fill-rule:evenodd;stroke:none;stroke-width:1;stroke-linecap:butt;stroke-linejoin:miter;stroke-miterlimit:4;stroke-dasharray:none;stroke-dashoffset:0;stroke-opacity:1;paint-order:normal"
       id="circle4958-4-5-7"
       cx="178.16974"
       cy="30.162498"
       r="4"
       inkscape:label="within_gate" />
    <circle
       style="display:inline;vector-effect:none;fill:#0000ff;fill-opacity:1;fill-rule:evenodd;stroke:none;stroke-width:1;stroke-linecap:butt;stroke-linejoin:miter;stroke-miterlimit:4;stroke-dasharray:none;stroke-dashoffset:0;stroke-opacity:1;paint-order:normal"
       id="circle4958-4-5-0"
       cx="178.16974"
       cy="47.28648"
       r="4"
       inkscape:label="y_distance" />
    <circle
       style="display:inline;vector-effect:none;fill:#0000ff;fill-opacity:1;fill-rule:evenodd;stroke:none;stroke-width:1;stroke-linecap:butt;stroke-linejoin:miter;stroke-miterlimit:4;stroke-dasharray:none;stroke-dashoffset:0;stroke-opacity:1;paint-order:normal"
       id="circle4958-4-5-0-9"
       cx="166.58218"
       cy="47.28648"
       r="4"
       inkscape:label="x_distance" />
    <circle
       style="display:inline;vector-effect:none;fill:#0000ff;fill-opacity:1;fill-rule:evenodd;stroke:none;stroke-width:1;stroke-linecap:butt;stroke-linejoin:miter;stroke-miterlimit:4;stroke-dasharray:none;stroke-dashoffset:0;stroke-opacity:1;paint-order:normal"
       id="circle4958-4-5-0-9-8"
       cx="9.4460001"
       cy="45.200008"
       r="4"
       inkscape:label="x_position" />
    <circle
       style="display:inline;vector-effect:none;fill:#0000ff;fill-opacity:1;fill-rule:evenodd;stroke:none;stroke-width:1;stroke-linecap:butt;stroke-linejoin:miter;stroke-miterlimit:4;stroke-dasharray:none;stroke-dashoffset:0;stroke-opacity:1;paint-order:normal"
       id="circle4958-4-5-0-9-8-9"
       cx="21.034"
       cy="45.200008"
       r="4"
       inkscape:label="y_position" />
    <circle
       r="4"
       cy="16"
       cx="9.4460001"
       id="circle4956-3-4-8"
       style="display:inline;opacity:1;vector-effect:none;fill:#00ff00;fill-opacity:1;fill-rule:evenodd;stroke:none;stroke-width:1;stroke-linecap:butt;stroke-linejoin:miter;stroke-miterlimit:4;stroke-dasharray:none;stroke-dashoffset:0;stroke-opacity:1;paint-order:normal"
       inkscape:label="x_position" />
    <circle
       style="display:inline;fill:#00ff00;fill-opacity:1;fill-rule:evenodd;stroke:none;stroke-width:1;stroke-linecap:butt;stroke-linejoin:miter;stroke-miterlimit:4;stroke-dasharray:none;stroke-dashoffset:0;stroke-opacity:1;paint-order:normal"
       id="path4954-3-0-2-9-0-3"
       cx="9.4460001"
       cy="34"
       r="4"
       inkscape:label="x_position_input" />
    <circle
       style="display:inline;vector-effect:none;fill:#ff0000;fill-opacity:1;fill-rule:evenodd;stroke:none;stroke-width:1;stroke-linecap:butt;stroke-linejoin:miter;stroke-miterlimit:4;stroke-dasharray:none;stroke-dashoffset:0;stroke-opacity:1;paint-order:normal"
       id="path4954-3-0-2-9-0-1"
       cx="9.4460001"
       cy="25"
       r="4"
       inkscape:label="x_position_attn" />
    <circle
       style="display:inline;fill:#ff0000;fill-opacity:1;fill-rule:evenodd;stroke:none;stroke-width:1;stroke-linecap:butt;stroke-linejoin:miter;stroke-miterlimit:4;stroke-dasharray:none;stroke-dashoffset:0;stroke-opacity:1;paint-order:normal"
       id="path4954-3-0-2-9-0-1-9"
       cx="166.58218"
       cy="11.90625"
       r="4"
       inkscape:label="exp_lin_log" />
    <circle
       r="4"
       cy="16"
       cx="21.034"
       id="circle4956-3-4-8-7"
       style="display:inline;vector-effect:none;fill:#00ff00;fill-opacity:1;fill-rule:evenodd;stroke:none;stroke-width:1;stroke-linecap:butt;stroke-linejoin:miter;stroke-miterlimit:4;stroke-dasharray:none;stroke-dashoffset:0;stroke-opacity:1;paint-order:normal"
       inkscape:label="y_position" />
    <circle
       style="display:inline;fill:#00ff00;fill-opacity:1;fill-rule:evenodd;stroke:none;stroke-width:1;stroke-linecap:butt;stroke-linejoin:miter;stroke-miterlimit:4;stroke-dasharray:none;stroke-dashoffset:0;stroke-opacity:1;paint-order:normal"
       id="path4954-3-0-2-9-0-3-4"
       cx="21.034"
       cy="34"
       r="4"
       inkscape:label="y_position_input" />
    <circle
       style="display:inline;vector-effect:none;fill:#ff0000;fill-opacity:1;fill-rule:evenodd;stroke:none;stroke-width:1;stroke-linecap:butt;stroke-linejoin:miter;stroke-miterlimit:4;stroke-dasharray:none;stroke-dashoffset:0;stroke-opacity:1;paint-order:normal"
       id="path4954-3-0-2-9-0-1-1"
       cx="21.034"
       cy="25"
       r="4"
       inkscape:label="y_position_attn" />
    <circle
       style="display:inline;fill:#ff0000;fill-opacity:1;fill-rule:evenodd;stroke:none;stroke-width:1;stroke-linecap:butt;stroke-linejoin:miter;stroke-miterlimit:4;stroke-dasharray:none;stroke-dashoffset:0;stroke-opacity:1;paint-order:normal"
       id="path4954-3-0-2-9-0-1-1-1"
       cx="163.93639"
       cy="28.779554"
       r="4"
       inkscape:label="inv_within" />
    <circle
       style="display:inline;fill:#ff0000;fill-opacity:1;fill-rule:evenodd;stroke:none;stroke-width:1;stroke-linecap:butt;stroke-linejoin:miter;stroke-miterlimit:4;stroke-dasharray:none;stroke-dashoffset:0;stroke-opacity:1;paint-order:normal"
       id="path4954-3-0-2-9-0-1-1-1-2"
       cx="166.58218"
       cy="64.672821"
       r="4"
       inkscape:label="inv_x" />
    <circle
       style="display:inline;fill:#ff0000;fill-opacity:1;fill-rule:evenodd;stroke:none;stroke-width:1;stroke-linecap:butt;stroke-linejoin:miter;stroke-miterlimit:4;stroke-dasharray:none;stroke-dashoffset:0;stroke-opacity:1;paint-order:normal"
       id="path4954-3-0-2-9-0-1-1-1-2-1"
       cx="166.58218"
       cy="77.655197"
       r="4"
       inkscape:label="ofst_x" />
    <circle
       style="display:inline;fill:#ff0000;fill-opacity:1;fill-rule:evenodd;stroke:none;stroke-width:1;stroke-linecap:butt;stroke-linejoin:miter;stroke-miterlimit:4;stroke-dasharray:none;stroke-dashoffset:0;stroke-opacity:1;paint-order:normal"
       id="path4954-3-0-2-9-0-1-1-1-2-1-6"
       cx="178.16974"
       cy="77.655197"
       r="4"
       inkscape:label="ofst_y" />
    <circle
       style="display:inline;fill:#ff0000;fill-opacity:1;fill-rule:evenodd;stroke:none;stroke-width:1;stroke-linecap:butt;stroke-linejoin:miter;stroke-miterlimit:4;stroke-dasharray:none;stroke-dashoffset:0;stroke-opacity:1;paint-order:normal"
       id="path4954-3-0-2-9-0-1-1-1-2-0"
       cx="178.16974"
       cy="64.672821"
       r="4"
       inkscape:label="inv_y" />
  </g>
</svg>
