<?xml version="1.0" encoding="UTF-8" standalone="no"?>
<svg
   width="187.96001mm"
   height="128.5mm"
   viewBox="0 0 187.96002 128.50002"
   version="1.1"
   id="svg8"
   inkscape:version="1.2.1 (9c6d41e410, 2022-07-14)"
   sodipodi:docname="Venn.svg"
   xmlns:inkscape="http://www.inkscape.org/namespaces/inkscape"
   xmlns:sodipodi="http://sodipodi.sourceforge.net/DTD/sodipodi-0.dtd"
   xmlns="http://www.w3.org/2000/svg"
   xmlns:svg="http://www.w3.org/2000/svg"
   xmlns:rdf="http://www.w3.org/1999/02/22-rdf-syntax-ns#"
   xmlns:cc="http://creativecommons.org/ns#"
   xmlns:dc="http://purl.org/dc/elements/1.1/">
  <defs
     id="defs2" />
  <sodipodi:namedview
     id="base"
     pagecolor="#ffffff"
     bordercolor="#666666"
     borderopacity="1.0"
     inkscape:pageopacity="0.0"
     inkscape:pageshadow="2"
     inkscape:zoom="2.8284273"
     inkscape:cx="580.88819"
     inkscape:cy="139.12325"
     inkscape:document-units="mm"
     inkscape:current-layer="g1684"
     showgrid="false"
     units="mm"
     inkscape:snap-bbox="true"
     inkscape:snap-page="true"
     inkscape:bbox-nodes="false"
     inkscape:snap-bbox-edge-midpoints="false"
     inkscape:window-width="1269"
     inkscape:window-height="1008"
     inkscape:window-x="-2"
     inkscape:window-y="340"
     inkscape:window-maximized="0"
     inkscape:snap-bbox-midpoints="true"
     inkscape:snap-nodes="false"
     inkscape:document-rotation="0"
     inkscape:showpageshadow="2"
     inkscape:pagecheckerboard="0"
     inkscape:deskcolor="#d1d1d1" />
  <metadata
     id="metadata5">
    <rdf:RDF>
      <cc:Work
         rdf:about="">
        <dc:format>image/svg+xml</dc:format>
        <dc:type
           rdf:resource="http://purl.org/dc/dcmitype/StillImage" />
      </cc:Work>
    </rdf:RDF>
  </metadata>
  <g
     inkscape:label="Background"
     inkscape:groupmode="layer"
     id="layer1"
     transform="translate(0,-168.49998)"
     style="display:inline">
    <rect
       style="display:inline;opacity:1;vector-effect:none;fill:#e8f1f2;fill-opacity:1;fill-rule:evenodd;stroke:none;stroke-width:1.61254;stroke-linecap:butt;stroke-linejoin:miter;stroke-miterlimit:4;stroke-dasharray:none;stroke-dashoffset:0;stroke-opacity:1;paint-order:normal"
       id="rect420"
       width="187.96001"
       height="128.5"
       x="-2.7815501e-08"
       y="168.49997" />
    <g
       aria-label="!"
       transform="matrix(1.1167128,-0.15549235,0.12836675,1.3252781,-2.30373,165.39159)"
       id="text912"
       style="font-style:normal;font-weight:normal;font-size:127.426px;line-height:1.25;font-family:sans-serif;display:inline;fill:#ee7021;fill-opacity:1;stroke:none;stroke-width:3.18552;stroke-miterlimit:4;stroke-dasharray:none">
      <path
         d="M 17.007808,5.7176488 15.390095,72.852735 H 4.8127414 L 3.070589,5.7176488 Z M 16.385611,98.362823 H 3.6927863 V 85.234461 H 16.385611 Z"
         style="fill:#ee7021;fill-opacity:1;stroke-width:3.18552;stroke-miterlimit:4;stroke-dasharray:none"
         id="path1767" />
    </g>
    <g
       aria-label="!"
       transform="matrix(1.1167128,-0.15549235,0.12836675,1.3252781,154.8323,165.39159)"
       id="text912-2"
       style="font-style:normal;font-weight:normal;font-size:127.426px;line-height:1.25;font-family:sans-serif;display:inline;fill:#ee7021;fill-opacity:1;stroke:none;stroke-width:3.18552;stroke-miterlimit:4;stroke-dasharray:none">
      <path
         d="M 17.007808,5.7176488 15.390095,72.852735 H 4.8127414 L 3.070589,5.7176488 Z M 16.385611,98.362823 H 3.6927863 V 85.234461 H 16.385611 Z"
         style="fill:#ee7021;fill-opacity:1;stroke-width:3.18552;stroke-miterlimit:4;stroke-dasharray:none"
         id="path1767-6" />
    </g>
  </g>
  <g
     inkscape:label="Layer 1"
     inkscape:groupmode="layer"
     id="g1684"
     transform="translate(0,-168.49998)"
     style="display:inline;opacity:1">
    <rect
       style="display:inline;fill:#000000;fill-opacity:0.88755;stroke-width:0.220088"
       id="rect652"
       width="13"
       height="10.721942"
       x="171.66974"
       y="193.38277"
       ry="4.2203341"
       rx="4.2203341" />
    <rect
       style="display:inline;opacity:1;fill:#000000;fill-opacity:0.88755;stroke-width:0.220088"
       id="rect652-0"
       width="13"
       height="10.721942"
       x="171.66974"
       y="175.00153"
       ry="4.2203341"
       rx="4.2203341" />
    <g
       aria-label="Y"
       id="text773"
       style="font-size:7.05556px;line-height:1.25;word-spacing:0px;display:inline;stroke-width:0.264583"
       transform="translate(0.4750464,-1.1431625)">
      <path
         d="m 22.708695,221.84315 -1.805231,2.8801 v 2.24965 h -0.68213 v -2.1773 l -1.812121,-2.95245 h 0.754476 l 1.402155,2.29443 1.415935,-2.29443 z"
         id="path778" />
    </g>
    <g
       aria-label="Y"
       id="text773-8"
       style="font-size:7.05556px;line-height:1.25;word-spacing:0px;display:inline;stroke-width:0.264583"
       transform="translate(157.61079,0.44820216)">
      <path
         d="m 22.708695,221.84315 -1.805231,2.8801 v 2.24965 h -0.68213 v -2.1773 l -1.812121,-2.95245 h 0.754476 l 1.402155,2.29443 1.415935,-2.29443 z"
         id="path778-7" />
    </g>
    <g
       aria-label="X"
       id="text719"
       style="font-size:7.05556px;line-height:1.25;word-spacing:0px;display:inline;stroke-width:0.264583"
       transform="translate(1.6035819,-1.5400325)">
      <path
         d="m 10.02661,222.24002 -1.7707799,2.53559 1.7673349,2.59416 H 9.2342378 l -1.3987097,-2.11185 -1.4331606,2.11185 H 5.6582264 l 1.7880057,-2.56316 -1.7466646,-2.56659 h 0.7854823 l 1.3814842,2.08428 1.4124901,-2.08428 z"
         id="path775" />
    </g>
    <g
       aria-label="X"
       id="text719-2"
       style="font-size:7.05556px;line-height:1.25;word-spacing:0px;display:inline;stroke-width:0.264583"
       transform="translate(158.73977,0.05133216)">
      <path
         d="m 10.02661,222.24002 -1.7707799,2.53559 1.7673349,2.59416 H 9.2342378 l -1.3987097,-2.11185 -1.4331606,2.11185 H 5.6582264 l 1.7880057,-2.56316 -1.7466646,-2.56659 h 0.7854823 l 1.3814842,2.08428 1.4124901,-2.08428 z"
         id="path775-5" />
    </g>
    <g
       aria-label="Venn"
       id="text783"
       style="font-size:8.46667px;line-height:1.25;word-spacing:0px;display:inline;opacity:1;stroke-width:0.264583"
       transform="translate(2.2071977)">
      <path
         d="m 8.4584027,172.92761 -2.240691,6.1557 H 5.126305 l -2.240691,-6.1557 h 0.8764326 l 1.9306323,5.4157 1.9306323,-5.4157 z"
         id="path785" />
      <path
         d="M 12.782688,176.85502 H 9.3803105 q 0,0.42582 0.1281576,0.74415 0.1281576,0.31419 0.3513999,0.51676 0.214974,0.19844 0.508496,0.29766 0.297657,0.0992 0.653191,0.0992 0.471289,0 0.946712,-0.18603 0.479558,-0.19017 0.682129,-0.37207 h 0.04134 v 0.84749 q -0.392741,0.16537 -0.802019,0.27699 -0.409277,0.11162 -0.859896,0.11162 -1.1492844,0 -1.7942066,-0.62012 -0.6449221,-0.62425 -0.6449221,-1.7694 0,-1.13275 0.6159833,-1.79834 0.6201175,-0.66559 1.6288414,-0.66559 0.934311,0 1.438673,0.5457 0.508496,0.5457 0.508496,1.55029 z m -0.756543,-0.59531 q -0.0041,-0.61185 -0.310059,-0.94671 -0.30179,-0.33486 -0.921908,-0.33486 -0.624251,0 -0.9963218,0.36793 -0.3679363,0.36794 -0.4175457,0.91364 z"
         id="path787" />
      <path
         d="m 17.822176,179.08331 h -0.777214 v -2.62929 q 0,-0.31833 -0.03721,-0.59532 -0.03721,-0.28112 -0.136426,-0.43821 -0.103353,-0.17364 -0.297657,-0.25632 -0.194303,-0.0868 -0.504362,-0.0868 -0.318327,0 -0.665592,0.1571 -0.347266,0.1571 -0.665593,0.40101 v 3.44785 h -0.777214 v -4.6178 h 0.777214 v 0.51263 q 0.363802,-0.30179 0.752409,-0.47129 0.388607,-0.1695 0.797884,-0.1695 0.748275,0 1.141017,0.45062 0.392741,0.45061 0.392741,1.29811 z"
         id="path789" />
      <path
         d="m 23.17999,179.08331 h -0.777213 v -2.62929 q 0,-0.31833 -0.03721,-0.59532 -0.03721,-0.28112 -0.136425,-0.43821 -0.103353,-0.17364 -0.297657,-0.25632 -0.194303,-0.0868 -0.504362,-0.0868 -0.318327,0 -0.665593,0.1571 -0.347265,0.1571 -0.665592,0.40101 v 3.44785 h -0.777214 v -4.6178 h 0.777214 v 0.51263 q 0.363802,-0.30179 0.752409,-0.47129 0.388607,-0.1695 0.797884,-0.1695 0.748275,0 1.141016,0.45062 0.392741,0.45061 0.392741,1.29811 z"
         id="path791" />
    </g>
    <g
       aria-label="ADJUST"
       id="text1071"
       style="font-size:4.23333px;line-height:1.25;word-spacing:0px;display:inline;stroke-width:0.264583"
       transform="rotate(-91.12375,102.20263,113.15019)">
      <path
         d="m 14.084926,26.089689 h -0.436148 l -0.301791,-0.857828 h -1.331183 l -0.30179,0.857828 h -0.415479 l 1.120345,-3.077845 h 0.545702 z m -0.864029,-1.209227 -0.539501,-1.511018 -0.541569,1.511018 z"
         id="path1100" />
      <path
         d="m 17.152437,24.553867 q 0,0.419612 -0.183968,0.760676 -0.181901,0.341065 -0.485758,0.529167 -0.21084,0.130224 -0.471289,0.188102 -0.258382,0.05788 -0.682128,0.05788 h -0.777213 v -3.077845 h 0.768945 q 0.450618,0 0.715201,0.06614 0.26665,0.06408 0.450618,0.177767 0.314192,0.19637 0.489892,0.522965 0.1757,0.326595 0.1757,0.775146 z m -0.427881,-0.0062 q 0,-0.361735 -0.12609,-0.609782 -0.126091,-0.248046 -0.376204,-0.390673 -0.181901,-0.103353 -0.38654,-0.142627 -0.204638,-0.04134 -0.489892,-0.04134 h -0.384472 v 2.375047 h 0.384472 q 0.295589,0 0.514697,-0.04341 0.221175,-0.04341 0.405143,-0.161231 0.229443,-0.146761 0.343131,-0.386539 0.115755,-0.239779 0.115755,-0.599446 z"
         id="path1102" />
      <path
         d="m 18.942507,25.289739 q 0,0.405143 -0.248047,0.624251 -0.24598,0.219107 -0.661458,0.219107 -0.09922,0 -0.264583,-0.0186 -0.165364,-0.01654 -0.276985,-0.04134 v -0.382405 h 0.02274 q 0.08475,0.02894 0.208773,0.05994 0.124023,0.03101 0.254248,0.03101 0.190169,0 0.30179,-0.04341 0.113688,-0.04341 0.167431,-0.124024 0.05581,-0.08268 0.07028,-0.202571 0.01654,-0.119889 0.01654,-0.276985 V 23.33844 h -0.651123 v -0.326594 h 1.0604 z"
         id="path1104" />
      <path
         d="m 22.055492,24.85359 q 0,0.334863 -0.07441,0.584977 -0.07235,0.248046 -0.239778,0.413411 -0.159163,0.157096 -0.37207,0.229443 -0.212907,0.07235 -0.496093,0.07235 -0.289388,0 -0.504362,-0.07648 -0.214974,-0.07648 -0.361735,-0.225309 -0.167431,-0.169499 -0.241845,-0.409277 -0.07235,-0.239779 -0.07235,-0.589111 v -1.841746 h 0.409277 v 1.862417 q 0,0.250113 0.03307,0.394807 0.03514,0.144694 0.115755,0.262516 0.09095,0.134359 0.24598,0.202572 0.157096,0.06821 0.376204,0.06821 0.221175,0 0.376204,-0.06615 0.155029,-0.06821 0.248046,-0.204639 0.08062,-0.117822 0.113689,-0.268717 0.03514,-0.152962 0.03514,-0.378271 v -1.872752 h 0.409277 z"
         id="path1106" />
      <path
         d="m 25.073394,25.211191 q 0,0.179833 -0.08475,0.355533 -0.08268,0.1757 -0.233577,0.297656 -0.165364,0.132292 -0.386539,0.206706 -0.219108,0.07441 -0.529166,0.07441 -0.332796,0 -0.599447,-0.06201 -0.264583,-0.06201 -0.539501,-0.183968 v -0.51263 h 0.02894 q 0.233577,0.194304 0.539501,0.299723 0.305924,0.10542 0.574642,0.10542 0.380338,0 0.591178,-0.142627 0.212906,-0.142626 0.212906,-0.380338 0,-0.204638 -0.101285,-0.30179 -0.09922,-0.09715 -0.303858,-0.150895 -0.155029,-0.04134 -0.33693,-0.06821 -0.179833,-0.02687 -0.382405,-0.06821 -0.409277,-0.08682 -0.607714,-0.295589 -0.196371,-0.210839 -0.196371,-0.547769 0,-0.38654 0.326595,-0.632519 0.326595,-0.248047 0.82889,-0.248047 0.324527,0 0.595312,0.06201 0.270784,0.06201 0.479556,0.152962 V 23.6547 h -0.02894 q -0.1757,-0.148828 -0.463021,-0.24598 -0.285253,-0.09922 -0.584977,-0.09922 -0.328661,0 -0.529166,0.136425 -0.198437,0.136426 -0.198437,0.3514 0,0.192236 0.09922,0.30179 0.09922,0.109554 0.349332,0.167431 0.132292,0.02894 0.376204,0.07028 0.243913,0.04134 0.413411,0.08475 0.343131,0.09095 0.516764,0.274919 0.173633,0.183968 0.173633,0.514697 z"
         id="path1108" />
      <path
         d="m 27.92593,23.375645 h -1.099674 v 2.714044 h -0.409277 v -2.714044 h -1.099673 v -0.363801 h 2.608624 z"
         id="path1110" />
    </g>
    <g
       aria-label="DISTANCE"
       transform="translate(0,168.49998)"
       id="text1763"
       style="font-size:4.23333px;line-height:1.25;word-spacing:0px;display:inline;stroke-width:0.264583">
      <path
         d="m 164.2842,20.540641 q 0,0.419613 -0.18397,0.760677 -0.1819,0.341064 -0.48576,0.529166 -0.21084,0.130225 -0.47129,0.188102 -0.25838,0.05788 -0.68212,0.05788 h -0.77722 V 18.99862 h 0.76895 q 0.45062,0 0.7152,0.06615 0.26665,0.06408 0.45062,0.177767 0.31419,0.19637 0.48989,0.522965 0.1757,0.326594 0.1757,0.775145 z m -0.42788,-0.0062 q 0,-0.361734 -0.12609,-0.609781 -0.12609,-0.248047 -0.37621,-0.390674 -0.1819,-0.103352 -0.38654,-0.142626 -0.20463,-0.04134 -0.48989,-0.04134 h -0.38447 v 2.375047 h 0.38447 q 0.29559,0 0.5147,-0.04341 0.22117,-0.04341 0.40514,-0.16123 0.22944,-0.146761 0.34313,-0.38654 0.11576,-0.239778 0.11576,-0.599446 z"
         id="path1817" />
      <path
         d="m 166.03086,22.076464 h -1.21543 v -0.314193 h 0.40308 V 19.31281 h -0.40308 v -0.314192 h 1.21543 v 0.314192 h -0.40308 v 2.449461 h 0.40308 z"
         id="path1819" />
      <path
         d="m 168.96401,21.197965 q 0,0.179834 -0.0848,0.355534 -0.0827,0.175699 -0.23357,0.297656 -0.16537,0.132291 -0.38654,0.206705 -0.21911,0.07441 -0.52917,0.07441 -0.3328,0 -0.59945,-0.06201 -0.26458,-0.06201 -0.5395,-0.183968 v -0.51263 h 0.0289 q 0.23358,0.194303 0.5395,0.299723 0.30593,0.10542 0.57464,0.10542 0.38034,0 0.59118,-0.142627 0.21291,-0.142627 0.21291,-0.380338 0,-0.204639 -0.10129,-0.30179 -0.0992,-0.09715 -0.30385,-0.150896 -0.15503,-0.04134 -0.33693,-0.06821 -0.17984,-0.02687 -0.38241,-0.06821 -0.40928,-0.08682 -0.60771,-0.295589 -0.19637,-0.21084 -0.19637,-0.54777 0,-0.386539 0.32659,-0.632519 0.3266,-0.248047 0.82889,-0.248047 0.32453,0 0.59531,0.06201 0.27079,0.06201 0.47956,0.152962 v 0.483691 h -0.0289 q -0.1757,-0.148828 -0.46302,-0.245979 -0.28525,-0.09922 -0.58498,-0.09922 -0.32866,0 -0.52916,0.136426 -0.19844,0.136425 -0.19844,0.351399 0,0.192236 0.0992,0.30179 0.0992,0.109554 0.34933,0.167432 0.13229,0.02894 0.3762,0.07028 0.24392,0.04134 0.41342,0.08475 0.34313,0.09095 0.51676,0.274918 0.17363,0.183968 0.17363,0.514697 z"
         id="path1821" />
      <path
         d="m 171.81655,19.36242 h -1.09967 v 2.714044 H 170.3076 V 19.36242 h -1.09968 v -0.363802 h 2.60863 z"
         id="path1823" />
      <path
         d="m 174.40864,22.076464 h -0.43615 l -0.30179,-0.857828 h -1.33119 l -0.30179,0.857828 h -0.41547 l 1.12034,-3.077846 h 0.5457 z m -0.86403,-1.209228 -0.5395,-1.511017 -0.54157,1.511017 z"
         id="path1825" />
      <path
         d="m 177.22397,22.076464 h -0.50643 l -1.45934,-2.753318 v 2.753318 h -0.38241 v -3.077846 h 0.63459 l 1.33118,2.51354 v -2.51354 h 0.38241 z"
         id="path1827" />
      <path
         d="m 180.41963,21.853222 q -0.11368,0.04961 -0.2067,0.09302 -0.0909,0.04341 -0.23978,0.09095 -0.12609,0.03927 -0.27492,0.06615 -0.14676,0.02894 -0.32453,0.02894 -0.33486,0 -0.60978,-0.09302 -0.27285,-0.09509 -0.47542,-0.295589 -0.19844,-0.196371 -0.31006,-0.498161 -0.11162,-0.303857 -0.11162,-0.704866 0,-0.380338 0.10749,-0.680061 0.10748,-0.299723 0.31006,-0.506428 0.19637,-0.200505 0.47335,-0.305925 0.27905,-0.10542 0.61805,-0.10542 0.24805,0 0.49403,0.05995 0.24804,0.05994 0.54983,0.21084 v 0.485758 h -0.031 q -0.25425,-0.212907 -0.50436,-0.310059 -0.25012,-0.09715 -0.53537,-0.09715 -0.23358,0 -0.42168,0.07648 -0.18604,0.07441 -0.3328,0.233577 -0.14262,0.155029 -0.22324,0.392741 -0.0786,0.235644 -0.0786,0.545702 0,0.324528 0.0868,0.558105 0.0889,0.233578 0.22738,0.380339 0.14469,0.152962 0.33693,0.227376 0.1943,0.07235 0.40927,0.07235 0.29559,0 0.55397,-0.101286 0.25839,-0.101286 0.48369,-0.303857 h 0.0289 z"
         id="path1829" />
      <path
         d="m 183.02619,22.076464 h -2.02778 v -3.077846 h 2.02778 v 0.363802 h -1.6185 v 0.843358 h 1.6185 v 0.363802 h -1.6185 v 1.143082 h 1.6185 z"
         id="path1831" />
    </g>
    <g
       aria-label="WITHIN"
       id="text1836"
       style="font-size:4.23333px;line-height:1.25;word-spacing:0px;stroke-width:0.264583"
       transform="translate(254.09918,-39.662796)">
      <path
         d="m -85.994029,244.74773 -0.79995,3.07785 h -0.460953 l -0.646989,-2.55488 -0.632519,2.55488 h -0.450618 l -0.81442,-3.07785 h 0.419612 l 0.646989,2.55902 0.636653,-2.55902 h 0.415478 l 0.642854,2.58382 0.642855,-2.58382 z"
         id="path1842" />
      <path
         d="m -84.305244,247.82558 h -1.215429 v -0.3142 h 0.403076 v -2.44946 h -0.403076 v -0.31419 h 1.215429 v 0.31419 h -0.403076 v 2.44946 h 0.403076 z"
         id="path1844" />
      <path
         d="m -81.413433,245.11153 h -1.099674 v 2.71405 h -0.409277 v -2.71405 h -1.099674 v -0.3638 h 2.608625 z"
         id="path1846" />
      <path
         d="m -78.645646,247.82558 h -0.409277 v -1.50689 h -1.535822 v 1.50689 h -0.409277 v -3.07785 h 0.409277 v 1.20716 h 1.535822 v -1.20716 h 0.409277 z"
         id="path1848" />
      <path
         d="m -76.73362,247.82558 h -1.215428 v -0.3142 h 0.403075 v -2.44946 h -0.403075 v -0.31419 h 1.215428 v 0.31419 h -0.403076 v 2.44946 h 0.403076 z"
         id="path1850" />
      <path
         d="m -73.688847,247.82558 h -0.506428 l -1.459341,-2.75332 v 2.75332 h -0.382406 v -3.07785 h 0.634586 l 1.331184,2.51354 v -2.51354 h 0.382405 z"
         id="path1852" />
    </g>
    <rect
       style="display:inline;fill:#000000;fill-opacity:0.88755;stroke-width:0.311252"
       id="rect652-0-4"
       width="26"
       height="10.721942"
       x="159.37602"
       y="210.38174"
       ry="2.5666873"
       rx="2.5666873" />
    <rect
       style="display:inline;fill:#000000;fill-opacity:0.88755;stroke-width:0.311252"
       id="rect652-0-4-5"
       width="26"
       height="10.721942"
       x="2.2399998"
       y="208.49998"
       ry="2.5666873"
       rx="2.5666873" />
    <path
       style="fill:none;stroke:#000000;stroke-width:0.4;stroke-linecap:butt;stroke-linejoin:miter;stroke-dasharray:none;stroke-opacity:1"
       d="m 165.45948,175.45145 2.22011,-2.21998"
       id="path402" />
    <path
       style="fill:none;stroke:#000000;stroke-width:0.375118;stroke-linecap:butt;stroke-linejoin:miter;stroke-dasharray:none;stroke-opacity:1"
       d="m 162.62939,186.51915 c 0.0459,-1.21983 0.23159,-2.26078 2.3061,-2.30544"
       id="path406"
       sodipodi:nodetypes="cc" />
    <path
       style="display:inline;fill:none;stroke:#000000;stroke-width:0.4;stroke-linecap:butt;stroke-linejoin:miter;stroke-dasharray:none;stroke-opacity:1"
       d="m 168.30355,185.87621 c 1.32734,0.0244 2.40874,-0.10465 2.45909,-2.45667"
       id="path406-7"
       sodipodi:nodetypes="cc" />
  </g>
  <g
     inkscape:groupmode="layer"
     id="layer2"
     inkscape:label="components"
     style="display:none">
    <circle
       style="display:inline;vector-effect:none;fill:#0000ff;fill-opacity:1;fill-rule:evenodd;stroke:none;stroke-width:1;stroke-linecap:butt;stroke-linejoin:miter;stroke-miterlimit:4;stroke-dasharray:none;stroke-dashoffset:0;stroke-opacity:1;paint-order:normal"
       id="circle4958-4-5"
       cx="178.16974"
       cy="11.90625"
       r="4"
       inkscape:label="distance" />
    <circle
       style="display:inline;vector-effect:none;fill:#0000ff;fill-opacity:1;fill-rule:evenodd;stroke:none;stroke-width:1;stroke-linecap:butt;stroke-linejoin:miter;stroke-miterlimit:4;stroke-dasharray:none;stroke-dashoffset:0;stroke-opacity:1;paint-order:normal"
       id="circle4958-4-5-7"
       cx="178.16974"
       cy="30.162498"
       r="4"
       inkscape:label="within_gate" />
    <circle
       style="display:inline;vector-effect:none;fill:#0000ff;fill-opacity:1;fill-rule:evenodd;stroke:none;stroke-width:1;stroke-linecap:butt;stroke-linejoin:miter;stroke-miterlimit:4;stroke-dasharray:none;stroke-dashoffset:0;stroke-opacity:1;paint-order:normal"
       id="circle4958-4-5-0"
       cx="178.16974"
       cy="47.28648"
       r="4"
       inkscape:label="y_distance" />
    <circle
       style="display:inline;vector-effect:none;fill:#0000ff;fill-opacity:1;fill-rule:evenodd;stroke:none;stroke-width:1;stroke-linecap:butt;stroke-linejoin:miter;stroke-miterlimit:4;stroke-dasharray:none;stroke-dashoffset:0;stroke-opacity:1;paint-order:normal"
       id="circle4958-4-5-0-9"
       cx="166.58218"
       cy="47.28648"
       r="4"
       inkscape:label="x_distance" />
    <circle
       style="display:inline;vector-effect:none;fill:#0000ff;fill-opacity:1;fill-rule:evenodd;stroke:none;stroke-width:1;stroke-linecap:butt;stroke-linejoin:miter;stroke-miterlimit:4;stroke-dasharray:none;stroke-dashoffset:0;stroke-opacity:1;paint-order:normal"
       id="circle4958-4-5-0-9-8"
       cx="9.4460001"
       cy="45.200008"
       r="4"
       inkscape:label="x_position" />
    <circle
       style="display:inline;vector-effect:none;fill:#0000ff;fill-opacity:1;fill-rule:evenodd;stroke:none;stroke-width:1;stroke-linecap:butt;stroke-linejoin:miter;stroke-miterlimit:4;stroke-dasharray:none;stroke-dashoffset:0;stroke-opacity:1;paint-order:normal"
       id="circle4958-4-5-0-9-8-9"
       cx="21.034"
       cy="45.200008"
       r="4"
       inkscape:label="y_position" />
    <circle
       r="4"
       cy="16"
       cx="9.4460001"
       id="circle4956-3-4-8"
       style="display:inline;opacity:1;vector-effect:none;fill:#00ff00;fill-opacity:1;fill-rule:evenodd;stroke:none;stroke-width:1;stroke-linecap:butt;stroke-linejoin:miter;stroke-miterlimit:4;stroke-dasharray:none;stroke-dashoffset:0;stroke-opacity:1;paint-order:normal"
       inkscape:label="x_position" />
    <circle
       style="display:inline;fill:#00ff00;fill-opacity:1;fill-rule:evenodd;stroke:none;stroke-width:1;stroke-linecap:butt;stroke-linejoin:miter;stroke-miterlimit:4;stroke-dasharray:none;stroke-dashoffset:0;stroke-opacity:1;paint-order:normal"
       id="path4954-3-0-2-9-0-3"
       cx="9.4460001"
       cy="34"
       r="4"
       inkscape:label="x_position_input" />
    <circle
       style="display:inline;vector-effect:none;fill:#ff0000;fill-opacity:1;fill-rule:evenodd;stroke:none;stroke-width:1;stroke-linecap:butt;stroke-linejoin:miter;stroke-miterlimit:4;stroke-dasharray:none;stroke-dashoffset:0;stroke-opacity:1;paint-order:normal"
       id="path4954-3-0-2-9-0-1"
       cx="9.4460001"
       cy="25"
       r="4"
       inkscape:label="x_position_attn" />
    <circle
       style="display:inline;fill:#ff0000;fill-opacity:1;fill-rule:evenodd;stroke:none;stroke-width:1;stroke-linecap:butt;stroke-linejoin:miter;stroke-miterlimit:4;stroke-dasharray:none;stroke-dashoffset:0;stroke-opacity:1;paint-order:normal"
       id="path4954-3-0-2-9-0-1-9"
       cx="166.58218"
       cy="11.90625"
       r="4"
       inkscape:label="exp_lin_log" />
    <circle
       r="4"
       cy="16"
       cx="21.034"
       id="circle4956-3-4-8-7"
       style="display:inline;vector-effect:none;fill:#00ff00;fill-opacity:1;fill-rule:evenodd;stroke:none;stroke-width:1;stroke-linecap:butt;stroke-linejoin:miter;stroke-miterlimit:4;stroke-dasharray:none;stroke-dashoffset:0;stroke-opacity:1;paint-order:normal"
       inkscape:label="y_position" />
    <circle
       style="display:inline;fill:#00ff00;fill-opacity:1;fill-rule:evenodd;stroke:none;stroke-width:1;stroke-linecap:butt;stroke-linejoin:miter;stroke-miterlimit:4;stroke-dasharray:none;stroke-dashoffset:0;stroke-opacity:1;paint-order:normal"
       id="path4954-3-0-2-9-0-3-4"
       cx="21.034"
       cy="34"
       r="4"
       inkscape:label="y_position_input" />
    <circle
       style="display:inline;vector-effect:none;fill:#ff0000;fill-opacity:1;fill-rule:evenodd;stroke:none;stroke-width:1;stroke-linecap:butt;stroke-linejoin:miter;stroke-miterlimit:4;stroke-dasharray:none;stroke-dashoffset:0;stroke-opacity:1;paint-order:normal"
       id="path4954-3-0-2-9-0-1-1"
       cx="21.034"
       cy="25"
       r="4"
       inkscape:label="y_position_attn" />
  </g>
</svg>
